M48
; DRILL file {KiCad (5.1.4)-1} date 2020/01/26 12:54:07
; FORMAT={-:-/ absolute / inch / decimal}
; #@! TF.CreationDate,2020-01-26T12:54:07+01:00
; #@! TF.GenerationSoftware,Kicad,Pcbnew,(5.1.4)-1
; #@! TF.FileFunction,Plated,1,2,PTH
FMAT,2
INCH
T1C0.0157
T2C0.0236
T3C0.0315
T4C0.0394
T5C0.0400
T6C0.0500
T7C0.1378
%
G90
G05
T1
X3.8819Y-3.3504
X3.8819Y-3.378
X3.8819Y-3.4055
X3.8819Y-3.4331
X4.0217Y-3.3504
X4.0217Y-3.378
X4.0217Y-3.4055
X4.0217Y-3.4331
X4.2638Y-3.3484
X4.3012Y-3.3346
X4.3307Y-3.2047
X4.3307Y-3.3585
X4.5276Y-3.252
X4.563Y-3.3642
X4.5857Y-3.3177
X4.6083Y-3.3427
X4.726Y-3.546
X4.7904Y-3.5876
X4.8228Y-4.878
X4.8228Y-4.9134
X4.8228Y-4.9488
X4.8228Y-4.9843
X4.8346Y-4.1417
X4.8346Y-4.1732
X4.8346Y-4.2047
X4.874Y-3.5886
X4.9488Y-3.6575
X4.9626Y-3.1083
X4.9705Y-3.3524
X5.0098Y-3.1713
X5.0098Y-3.2205
X5.0315Y-3.626
X5.0669Y-3.8445
X5.07Y-3.664
X5.0822Y-3.7722
X5.1181Y-3.1811
X5.136Y-4.712
X5.1457Y-3.4232
X5.17Y-3.77
X5.1791Y-4.2362
X5.2087Y-3.935
X5.2087Y-4.4941
X5.212Y-3.504
T2
X5.8976Y-3.8543
X5.9006Y-4.4163
X5.9016Y-3.4055
X5.9016Y-3.6063
X5.9016Y-4.1732
X5.9173Y-4.6831
T3
X5.2582Y-4.16
X5.2582Y-4.26
X5.5582Y-4.16
X5.5582Y-4.26
X5.2582Y-3.88
X5.2582Y-3.98
X5.5582Y-3.88
X5.5582Y-3.98
X5.2582Y-3.32
X5.2582Y-3.42
X5.5582Y-3.32
X5.5582Y-3.42
X5.2582Y-3.6
X5.2582Y-3.7
X5.5582Y-3.6
X5.5582Y-3.7
X5.2582Y-4.72
X5.2582Y-4.82
X5.5582Y-4.72
X5.5582Y-4.82
X5.2582Y-4.44
X5.2582Y-4.54
X5.5582Y-4.44
X5.5582Y-4.54
T4
X4.4646Y-4.5444
X4.4646Y-4.7413
X4.4646Y-4.9381
X4.6614Y-4.446
X4.6614Y-4.6429
X4.6614Y-4.8397
X6.0039Y-3.4618
X6.0039Y-3.6587
X6.0039Y-3.8555
X6.2008Y-3.3634
X6.2008Y-3.5602
X6.2008Y-3.7571
X4.2717Y-3.6417
X4.2717Y-3.9173
X4.4685Y-3.5039
X4.4685Y-3.7795
X6.0039Y-4.2323
X6.0039Y-4.4291
X6.0039Y-4.626
X6.2008Y-4.1339
X6.2008Y-4.3307
X6.2008Y-4.5276
X4.8425Y-3.25
X4.8425Y-3.35
X4.178Y-4.256
X4.278Y-4.256
X4.378Y-4.256
X4.678Y-4.256
X4.778Y-4.256
T5
X4.1685Y-2.9455
X4.1685Y-3.0455
X4.2685Y-2.9455
X4.3685Y-2.9455
X4.4685Y-2.9455
X4.4685Y-3.0455
X4.5685Y-2.9455
X4.5685Y-3.0455
X4.6685Y-2.9455
X4.6685Y-3.0455
X4.7685Y-2.9455
X4.7685Y-3.0455
X4.8685Y-2.9455
X4.8685Y-3.0455
X4.9685Y-2.9455
X4.9685Y-3.0455
X5.0685Y-2.9455
X5.0685Y-3.0455
X5.1685Y-2.9455
X5.1685Y-3.0455
X5.2685Y-2.9455
X5.2685Y-3.0455
X5.3685Y-2.9455
X5.3685Y-3.0455
X5.4685Y-2.9455
X5.4685Y-3.0455
X5.5685Y-2.9455
X5.5685Y-3.0455
X5.6685Y-2.9455
X5.6685Y-3.0455
X5.7685Y-2.9455
X5.7685Y-3.0455
X5.8685Y-2.9455
X5.8685Y-3.0455
X5.9685Y-2.9455
X5.9685Y-3.0455
X6.0685Y-2.9455
X6.0685Y-3.0455
T6
X5.863Y-4.9961
X6.063Y-4.9961
T7
X6.249Y-4.9135
T0
M30
