G04 #@! TF.GenerationSoftware,KiCad,Pcbnew,(5.1.4)-1*
G04 #@! TF.CreationDate,2020-01-26T14:24:25+01:00*
G04 #@! TF.ProjectId,debounce_shield,6465626f-756e-4636-955f-736869656c64,rev?*
G04 #@! TF.SameCoordinates,Original*
G04 #@! TF.FileFunction,Soldermask,Bot*
G04 #@! TF.FilePolarity,Negative*
%FSLAX46Y46*%
G04 Gerber Fmt 4.6, Leading zero omitted, Abs format (unit mm)*
G04 Created by KiCad (PCBNEW (5.1.4)-1) date 2020-01-26 14:24:25*
%MOMM*%
%LPD*%
G04 APERTURE LIST*
%ADD10C,0.100000*%
G04 APERTURE END LIST*
D10*
G36*
X151200000Y-118500000D02*
G01*
X151200000Y-120300000D01*
X150300000Y-120300000D01*
X150300000Y-118500000D01*
X150750000Y-118050000D01*
X151200000Y-118500000D01*
G37*
X151200000Y-118500000D02*
X151200000Y-120300000D01*
X150300000Y-120300000D01*
X150300000Y-118500000D01*
X150750000Y-118050000D01*
X151200000Y-118500000D01*
G36*
X150800000Y-113600000D02*
G01*
X149900000Y-113600000D01*
X149900000Y-111600000D01*
X150800000Y-111600000D01*
X150800000Y-113600000D01*
G37*
X150800000Y-113600000D02*
X149900000Y-113600000D01*
X149900000Y-111600000D01*
X150800000Y-111600000D01*
X150800000Y-113600000D01*
G36*
X150800000Y-108400000D02*
G01*
X149900000Y-108400000D01*
X149900000Y-105500000D01*
X150800000Y-105500000D01*
X150800000Y-108400000D01*
G37*
X150800000Y-108400000D02*
X149900000Y-108400000D01*
X149900000Y-105500000D01*
X150800000Y-105500000D01*
X150800000Y-108400000D01*
G36*
X150700000Y-98900000D02*
G01*
X149800000Y-98900000D01*
X149800000Y-97400000D01*
X150700000Y-97400000D01*
X150700000Y-98900000D01*
G37*
X150700000Y-98900000D02*
X149800000Y-98900000D01*
X149800000Y-97400000D01*
X150700000Y-97400000D01*
X150700000Y-98900000D01*
G36*
X150850000Y-93800000D02*
G01*
X149900000Y-93800000D01*
X149900000Y-91100000D01*
X150850000Y-91100000D01*
X150850000Y-93800000D01*
G37*
X150850000Y-93800000D02*
X149900000Y-93800000D01*
X149900000Y-91100000D01*
X150850000Y-91100000D01*
X150850000Y-93800000D01*
G36*
X150800000Y-88300000D02*
G01*
X149900000Y-88300000D01*
X149900000Y-86000000D01*
X150800000Y-86000000D01*
X150800000Y-88300000D01*
G37*
X150800000Y-88300000D02*
X149900000Y-88300000D01*
X149900000Y-86000000D01*
X150800000Y-86000000D01*
X150800000Y-88300000D01*
G36*
X121700000Y-127609600D02*
G01*
X119300000Y-127609600D01*
X119300000Y-126209600D01*
X120100000Y-125409600D01*
X120100000Y-121309600D01*
X119700000Y-120909600D01*
X116100000Y-120909600D01*
X114800000Y-119609600D01*
X115900000Y-118509600D01*
X116800000Y-119409600D01*
X119700000Y-119409600D01*
X120100000Y-119009600D01*
X120100000Y-112609600D01*
X121700000Y-112609600D01*
X121700000Y-127609600D01*
G37*
X121700000Y-127609600D02*
X119300000Y-127609600D01*
X119300000Y-126209600D01*
X120100000Y-125409600D01*
X120100000Y-121309600D01*
X119700000Y-120909600D01*
X116100000Y-120909600D01*
X114800000Y-119609600D01*
X115900000Y-118509600D01*
X116800000Y-119409600D01*
X119700000Y-119409600D01*
X120100000Y-119009600D01*
X120100000Y-112609600D01*
X121700000Y-112609600D01*
X121700000Y-127609600D01*
G36*
X157400000Y-117000000D02*
G01*
X155000000Y-119400000D01*
X152600000Y-119400000D01*
X152623327Y-86300017D01*
X154800000Y-84100000D01*
X157400000Y-84100000D01*
X157400000Y-117000000D01*
G37*
X157400000Y-117000000D02*
X155000000Y-119400000D01*
X152600000Y-119400000D01*
X152623327Y-86300017D01*
X154800000Y-84100000D01*
X157400000Y-84100000D01*
X157400000Y-117000000D01*
G36*
X159407416Y-121370152D02*
G01*
X159745512Y-121437403D01*
X160195908Y-121623963D01*
X160344043Y-121685322D01*
X160382472Y-121701240D01*
X160955720Y-122084272D01*
X161443228Y-122571780D01*
X161826260Y-123145028D01*
X161826261Y-123145030D01*
X161871918Y-123255257D01*
X162090097Y-123781988D01*
X162224600Y-124458180D01*
X162224600Y-125147620D01*
X162090097Y-125823812D01*
X161968672Y-126116959D01*
X161889580Y-126307905D01*
X161826260Y-126460772D01*
X161443228Y-127034020D01*
X160955720Y-127521528D01*
X160382472Y-127904560D01*
X159745512Y-128168397D01*
X159407416Y-128235648D01*
X159069321Y-128302900D01*
X158379879Y-128302900D01*
X158041784Y-128235648D01*
X157703688Y-128168397D01*
X157066728Y-127904560D01*
X156493480Y-127521528D01*
X156005972Y-127034020D01*
X155622940Y-126460772D01*
X155559621Y-126307905D01*
X155480528Y-126116959D01*
X155359103Y-125823812D01*
X155224600Y-125147620D01*
X155224600Y-124458180D01*
X155359103Y-123781988D01*
X155577282Y-123255257D01*
X155622939Y-123145030D01*
X155622940Y-123145028D01*
X156005972Y-122571780D01*
X156493480Y-122084272D01*
X157066728Y-121701240D01*
X157105158Y-121685322D01*
X157253292Y-121623963D01*
X157703688Y-121437403D01*
X158041784Y-121370152D01*
X158379879Y-121302900D01*
X159069321Y-121302900D01*
X159407416Y-121370152D01*
X159407416Y-121370152D01*
G37*
G36*
X154364610Y-125698036D02*
G01*
X154592095Y-125792264D01*
X154592097Y-125792265D01*
X154796828Y-125929062D01*
X154970938Y-126103172D01*
X155088022Y-126278400D01*
X155107736Y-126307905D01*
X155201964Y-126535390D01*
X155250000Y-126776884D01*
X155250000Y-127023116D01*
X155201964Y-127264610D01*
X155121752Y-127458258D01*
X155107735Y-127492097D01*
X154970938Y-127696828D01*
X154796828Y-127870938D01*
X154592097Y-128007735D01*
X154592096Y-128007736D01*
X154592095Y-128007736D01*
X154364610Y-128101964D01*
X154123116Y-128150000D01*
X153876884Y-128150000D01*
X153635390Y-128101964D01*
X153407905Y-128007736D01*
X153407904Y-128007736D01*
X153407903Y-128007735D01*
X153203172Y-127870938D01*
X153029062Y-127696828D01*
X152892265Y-127492097D01*
X152878248Y-127458258D01*
X152798036Y-127264610D01*
X152750000Y-127023116D01*
X152750000Y-126776884D01*
X152798036Y-126535390D01*
X152892264Y-126307905D01*
X152911979Y-126278400D01*
X153029062Y-126103172D01*
X153203172Y-125929062D01*
X153407903Y-125792265D01*
X153407905Y-125792264D01*
X153635390Y-125698036D01*
X153876884Y-125650000D01*
X154123116Y-125650000D01*
X154364610Y-125698036D01*
X154364610Y-125698036D01*
G37*
G36*
X101521158Y-121981394D02*
G01*
X101869237Y-122050631D01*
X102433401Y-122284315D01*
X102941135Y-122623572D01*
X103372928Y-123055365D01*
X103712185Y-123563099D01*
X103945869Y-124127263D01*
X103945869Y-124127265D01*
X104049853Y-124650025D01*
X104065000Y-124726177D01*
X104065000Y-125336823D01*
X103945869Y-125935737D01*
X103712185Y-126499901D01*
X103372928Y-127007635D01*
X102941135Y-127439428D01*
X102433401Y-127778685D01*
X101869237Y-128012369D01*
X101569780Y-128071935D01*
X101270325Y-128131500D01*
X100659675Y-128131500D01*
X100360220Y-128071935D01*
X100060763Y-128012369D01*
X99496599Y-127778685D01*
X98988865Y-127439428D01*
X98557072Y-127007635D01*
X98217815Y-126499901D01*
X97984131Y-125935737D01*
X97865000Y-125336823D01*
X97865000Y-124726177D01*
X97880148Y-124650025D01*
X97984131Y-124127265D01*
X97984131Y-124127263D01*
X98217815Y-123563099D01*
X98557072Y-123055365D01*
X98988865Y-122623572D01*
X99496599Y-122284315D01*
X100060763Y-122050631D01*
X100408842Y-121981394D01*
X100659675Y-121931500D01*
X101270325Y-121931500D01*
X101521158Y-121981394D01*
X101521158Y-121981394D01*
G37*
G36*
X149616032Y-125914469D02*
G01*
X149686142Y-125935737D01*
X149804535Y-125971651D01*
X149804537Y-125971652D01*
X149978258Y-126064507D01*
X150130528Y-126189472D01*
X150255493Y-126341742D01*
X150348348Y-126515463D01*
X150405531Y-126703968D01*
X150424838Y-126900000D01*
X150405531Y-127096032D01*
X150348348Y-127284537D01*
X150255493Y-127458258D01*
X150130528Y-127610528D01*
X149978258Y-127735493D01*
X149804537Y-127828348D01*
X149804535Y-127828349D01*
X149710285Y-127856939D01*
X149616032Y-127885531D01*
X149469124Y-127900000D01*
X148370876Y-127900000D01*
X148223968Y-127885531D01*
X148129715Y-127856939D01*
X148035465Y-127828349D01*
X148035463Y-127828348D01*
X147861742Y-127735493D01*
X147709472Y-127610528D01*
X147584507Y-127458258D01*
X147491652Y-127284537D01*
X147434469Y-127096032D01*
X147415162Y-126900000D01*
X147434469Y-126703968D01*
X147491652Y-126515463D01*
X147584507Y-126341742D01*
X147709472Y-126189472D01*
X147861742Y-126064507D01*
X148035463Y-125971652D01*
X148035465Y-125971651D01*
X148153858Y-125935737D01*
X148223968Y-125914469D01*
X148370876Y-125900000D01*
X149469124Y-125900000D01*
X149616032Y-125914469D01*
X149616032Y-125914469D01*
G37*
G36*
X114358103Y-124585958D02*
G01*
X114425990Y-124606552D01*
X114488559Y-124639996D01*
X114543399Y-124685001D01*
X114588404Y-124739841D01*
X114621848Y-124802410D01*
X114642442Y-124870297D01*
X114650000Y-124947040D01*
X114650000Y-125909760D01*
X114642442Y-125986503D01*
X114621848Y-126054390D01*
X114588404Y-126116959D01*
X114543399Y-126171799D01*
X114488559Y-126216804D01*
X114425990Y-126250248D01*
X114358103Y-126270842D01*
X114281360Y-126278400D01*
X112518640Y-126278400D01*
X112441897Y-126270842D01*
X112374010Y-126250248D01*
X112311441Y-126216804D01*
X112256601Y-126171799D01*
X112211596Y-126116959D01*
X112178152Y-126054390D01*
X112157558Y-125986503D01*
X112150000Y-125909760D01*
X112150000Y-124947040D01*
X112157558Y-124870297D01*
X112178152Y-124802410D01*
X112211596Y-124739841D01*
X112256601Y-124685001D01*
X112311441Y-124639996D01*
X112374010Y-124606552D01*
X112441897Y-124585958D01*
X112518640Y-124578400D01*
X114281360Y-124578400D01*
X114358103Y-124585958D01*
X114358103Y-124585958D01*
G37*
G36*
X118966627Y-122090699D02*
G01*
X119046742Y-122115001D01*
X119126855Y-122139303D01*
X119126857Y-122139304D01*
X119274518Y-122218231D01*
X119403949Y-122324451D01*
X119488928Y-122428000D01*
X119510168Y-122453881D01*
X119589097Y-122601545D01*
X119595779Y-122623573D01*
X119637701Y-122761773D01*
X119654112Y-122928400D01*
X119637701Y-123095027D01*
X119637286Y-123096394D01*
X119597365Y-123228000D01*
X119589096Y-123255257D01*
X119510169Y-123402918D01*
X119403949Y-123532349D01*
X119274518Y-123638569D01*
X119126857Y-123717496D01*
X119126855Y-123717497D01*
X119046742Y-123741798D01*
X118966627Y-123766101D01*
X118841752Y-123778400D01*
X117958248Y-123778400D01*
X117833373Y-123766101D01*
X117753258Y-123741798D01*
X117673145Y-123717497D01*
X117673143Y-123717496D01*
X117525482Y-123638569D01*
X117396051Y-123532349D01*
X117289831Y-123402918D01*
X117210904Y-123255257D01*
X117202636Y-123228000D01*
X117162714Y-123096394D01*
X117162299Y-123095027D01*
X117145888Y-122928400D01*
X117162299Y-122761773D01*
X117204221Y-122623573D01*
X117210903Y-122601545D01*
X117289832Y-122453881D01*
X117311072Y-122428000D01*
X117396051Y-122324451D01*
X117525482Y-122218231D01*
X117673143Y-122139304D01*
X117673145Y-122139303D01*
X117753258Y-122115001D01*
X117833373Y-122090699D01*
X117958248Y-122078400D01*
X118841752Y-122078400D01*
X118966627Y-122090699D01*
X118966627Y-122090699D01*
G37*
G36*
X141978000Y-123228000D02*
G01*
X140378000Y-123228000D01*
X140378000Y-121628000D01*
X141978000Y-121628000D01*
X141978000Y-123228000D01*
X141978000Y-123228000D01*
G37*
G36*
X133636471Y-121631859D02*
G01*
X133714827Y-121639576D01*
X133865628Y-121685321D01*
X133865630Y-121685322D01*
X134004605Y-121759606D01*
X134126422Y-121859578D01*
X134226394Y-121981395D01*
X134278244Y-122078400D01*
X134300679Y-122120372D01*
X134346424Y-122271173D01*
X134361870Y-122428000D01*
X134346424Y-122584827D01*
X134300679Y-122735628D01*
X134300678Y-122735630D01*
X134226394Y-122874605D01*
X134126422Y-122996422D01*
X134004605Y-123096394D01*
X133865630Y-123170678D01*
X133865628Y-123170679D01*
X133714827Y-123216424D01*
X133636471Y-123224141D01*
X133597294Y-123228000D01*
X133518706Y-123228000D01*
X133479529Y-123224141D01*
X133401173Y-123216424D01*
X133250372Y-123170679D01*
X133250370Y-123170678D01*
X133111395Y-123096394D01*
X132989578Y-122996422D01*
X132889606Y-122874605D01*
X132815322Y-122735630D01*
X132815321Y-122735628D01*
X132769576Y-122584827D01*
X132754130Y-122428000D01*
X132769576Y-122271173D01*
X132815321Y-122120372D01*
X132837756Y-122078400D01*
X132889606Y-121981395D01*
X132989578Y-121859578D01*
X133111395Y-121759606D01*
X133250370Y-121685322D01*
X133250372Y-121685321D01*
X133401173Y-121639576D01*
X133479529Y-121631859D01*
X133518706Y-121628000D01*
X133597294Y-121628000D01*
X133636471Y-121631859D01*
X133636471Y-121631859D01*
G37*
G36*
X113966627Y-119590699D02*
G01*
X114046742Y-119615001D01*
X114126855Y-119639303D01*
X114126857Y-119639304D01*
X114274518Y-119718231D01*
X114403949Y-119824451D01*
X114510169Y-119953882D01*
X114589096Y-120101543D01*
X114637701Y-120261773D01*
X114654112Y-120428400D01*
X114637701Y-120595027D01*
X114589096Y-120755257D01*
X114510169Y-120902918D01*
X114403949Y-121032349D01*
X114274518Y-121138569D01*
X114126857Y-121217496D01*
X114126855Y-121217497D01*
X114046742Y-121241799D01*
X113966627Y-121266101D01*
X113841752Y-121278400D01*
X112958248Y-121278400D01*
X112833373Y-121266101D01*
X112753258Y-121241799D01*
X112673145Y-121217497D01*
X112673143Y-121217496D01*
X112525482Y-121138569D01*
X112396051Y-121032349D01*
X112289831Y-120902918D01*
X112210904Y-120755257D01*
X112162299Y-120595027D01*
X112145888Y-120428400D01*
X112162299Y-120261773D01*
X112210904Y-120101543D01*
X112289831Y-119953882D01*
X112396051Y-119824451D01*
X112525482Y-119718231D01*
X112673143Y-119639304D01*
X112673145Y-119639303D01*
X112753258Y-119615001D01*
X112833373Y-119590699D01*
X112958248Y-119578400D01*
X113841752Y-119578400D01*
X113966627Y-119590699D01*
X113966627Y-119590699D01*
G37*
G36*
X133636471Y-119091859D02*
G01*
X133714827Y-119099576D01*
X133865628Y-119145321D01*
X133865630Y-119145322D01*
X134004605Y-119219606D01*
X134004607Y-119219607D01*
X134004606Y-119219607D01*
X134126422Y-119319578D01*
X134226393Y-119441394D01*
X134300679Y-119580372D01*
X134346424Y-119731173D01*
X134361870Y-119888000D01*
X134346424Y-120044827D01*
X134300679Y-120195628D01*
X134300678Y-120195630D01*
X134226394Y-120334605D01*
X134126422Y-120456422D01*
X134004605Y-120556394D01*
X133932328Y-120595027D01*
X133865628Y-120630679D01*
X133714827Y-120676424D01*
X133636471Y-120684141D01*
X133597294Y-120688000D01*
X133518706Y-120688000D01*
X133479529Y-120684141D01*
X133401173Y-120676424D01*
X133250372Y-120630679D01*
X133183672Y-120595027D01*
X133111395Y-120556394D01*
X132989578Y-120456422D01*
X132889606Y-120334605D01*
X132815322Y-120195630D01*
X132815321Y-120195628D01*
X132769576Y-120044827D01*
X132754130Y-119888000D01*
X132769576Y-119731173D01*
X132815321Y-119580372D01*
X132889607Y-119441394D01*
X132989578Y-119319578D01*
X133111394Y-119219607D01*
X133111393Y-119219607D01*
X133111395Y-119219606D01*
X133250370Y-119145322D01*
X133250372Y-119145321D01*
X133401173Y-119099576D01*
X133479529Y-119091859D01*
X133518706Y-119088000D01*
X133597294Y-119088000D01*
X133636471Y-119091859D01*
X133636471Y-119091859D01*
G37*
G36*
X141256471Y-119091859D02*
G01*
X141334827Y-119099576D01*
X141485628Y-119145321D01*
X141485630Y-119145322D01*
X141624605Y-119219606D01*
X141624607Y-119219607D01*
X141624606Y-119219607D01*
X141746422Y-119319578D01*
X141846393Y-119441394D01*
X141920679Y-119580372D01*
X141966424Y-119731173D01*
X141981870Y-119888000D01*
X141966424Y-120044827D01*
X141920679Y-120195628D01*
X141920678Y-120195630D01*
X141846394Y-120334605D01*
X141746422Y-120456422D01*
X141624605Y-120556394D01*
X141552328Y-120595027D01*
X141485628Y-120630679D01*
X141334827Y-120676424D01*
X141256471Y-120684141D01*
X141217294Y-120688000D01*
X141138706Y-120688000D01*
X141099529Y-120684141D01*
X141021173Y-120676424D01*
X140870372Y-120630679D01*
X140803672Y-120595027D01*
X140731395Y-120556394D01*
X140609578Y-120456422D01*
X140509606Y-120334605D01*
X140435322Y-120195630D01*
X140435321Y-120195628D01*
X140389576Y-120044827D01*
X140374130Y-119888000D01*
X140389576Y-119731173D01*
X140435321Y-119580372D01*
X140509607Y-119441394D01*
X140609578Y-119319578D01*
X140731394Y-119219607D01*
X140731393Y-119219607D01*
X140731395Y-119219606D01*
X140870370Y-119145322D01*
X140870372Y-119145321D01*
X141021173Y-119099576D01*
X141099529Y-119091859D01*
X141138706Y-119088000D01*
X141217294Y-119088000D01*
X141256471Y-119091859D01*
X141256471Y-119091859D01*
G37*
G36*
X118966627Y-117090699D02*
G01*
X119046742Y-117115001D01*
X119126855Y-117139303D01*
X119126857Y-117139304D01*
X119274518Y-117218231D01*
X119403949Y-117324451D01*
X119510169Y-117453882D01*
X119589096Y-117601543D01*
X119637701Y-117761773D01*
X119654112Y-117928400D01*
X119637701Y-118095027D01*
X119589096Y-118255257D01*
X119510169Y-118402918D01*
X119403949Y-118532349D01*
X119274518Y-118638569D01*
X119126857Y-118717496D01*
X119126855Y-118717497D01*
X119046742Y-118741798D01*
X118966627Y-118766101D01*
X118841752Y-118778400D01*
X117958248Y-118778400D01*
X117833373Y-118766101D01*
X117753258Y-118741798D01*
X117673145Y-118717497D01*
X117673143Y-118717496D01*
X117525482Y-118638569D01*
X117396051Y-118532349D01*
X117289831Y-118402918D01*
X117210904Y-118255257D01*
X117162299Y-118095027D01*
X117145888Y-117928400D01*
X117162299Y-117761773D01*
X117210904Y-117601543D01*
X117289831Y-117453882D01*
X117396051Y-117324451D01*
X117525482Y-117218231D01*
X117673143Y-117139304D01*
X117673145Y-117139303D01*
X117753258Y-117115001D01*
X117833373Y-117090699D01*
X117958248Y-117078400D01*
X118841752Y-117078400D01*
X118966627Y-117090699D01*
X118966627Y-117090699D01*
G37*
G36*
X153458103Y-116657558D02*
G01*
X153525990Y-116678152D01*
X153588559Y-116711596D01*
X153643399Y-116756601D01*
X153688404Y-116811441D01*
X153721848Y-116874010D01*
X153742442Y-116941897D01*
X153750000Y-117018640D01*
X153750000Y-117981360D01*
X153742442Y-118058103D01*
X153721848Y-118125990D01*
X153688404Y-118188559D01*
X153643399Y-118243399D01*
X153588559Y-118288404D01*
X153525990Y-118321848D01*
X153458103Y-118342442D01*
X153381360Y-118350000D01*
X151618640Y-118350000D01*
X151541897Y-118342442D01*
X151474010Y-118321848D01*
X151411441Y-118288404D01*
X151356601Y-118243399D01*
X151311596Y-118188559D01*
X151278152Y-118125990D01*
X151257558Y-118058103D01*
X151250000Y-117981360D01*
X151250000Y-117018640D01*
X151257558Y-116941897D01*
X151278152Y-116874010D01*
X151311596Y-116811441D01*
X151356601Y-116756601D01*
X151411441Y-116711596D01*
X151474010Y-116678152D01*
X151541897Y-116657558D01*
X151618640Y-116650000D01*
X153381360Y-116650000D01*
X153458103Y-116657558D01*
X153458103Y-116657558D01*
G37*
G36*
X113966627Y-114590699D02*
G01*
X114046742Y-114615001D01*
X114126855Y-114639303D01*
X114126857Y-114639304D01*
X114274518Y-114718231D01*
X114403949Y-114824451D01*
X114510169Y-114953882D01*
X114589096Y-115101543D01*
X114589097Y-115101545D01*
X114608839Y-115166627D01*
X114637701Y-115261773D01*
X114654112Y-115428400D01*
X114637701Y-115595027D01*
X114589096Y-115755257D01*
X114510169Y-115902918D01*
X114403949Y-116032349D01*
X114274518Y-116138569D01*
X114126857Y-116217496D01*
X114126855Y-116217497D01*
X114046742Y-116241799D01*
X113966627Y-116266101D01*
X113841752Y-116278400D01*
X112958248Y-116278400D01*
X112833373Y-116266101D01*
X112753258Y-116241799D01*
X112673145Y-116217497D01*
X112673143Y-116217496D01*
X112525482Y-116138569D01*
X112396051Y-116032349D01*
X112289831Y-115902918D01*
X112210904Y-115755257D01*
X112162299Y-115595027D01*
X112145888Y-115428400D01*
X112162299Y-115261773D01*
X112191161Y-115166627D01*
X112210903Y-115101545D01*
X112210904Y-115101543D01*
X112289831Y-114953882D01*
X112396051Y-114824451D01*
X112525482Y-114718231D01*
X112673143Y-114639304D01*
X112673145Y-114639303D01*
X112753258Y-114615001D01*
X112833373Y-114590699D01*
X112958248Y-114578400D01*
X113841752Y-114578400D01*
X113966627Y-114590699D01*
X113966627Y-114590699D01*
G37*
G36*
X133636471Y-114519859D02*
G01*
X133714827Y-114527576D01*
X133865628Y-114573321D01*
X133865630Y-114573322D01*
X134004605Y-114647606D01*
X134090662Y-114718231D01*
X134126422Y-114747578D01*
X134226393Y-114869394D01*
X134300679Y-115008372D01*
X134346424Y-115159173D01*
X134361870Y-115316000D01*
X134346424Y-115472827D01*
X134300679Y-115623628D01*
X134300678Y-115623630D01*
X134226394Y-115762605D01*
X134126422Y-115884422D01*
X134004605Y-115984394D01*
X133865630Y-116058678D01*
X133865628Y-116058679D01*
X133714827Y-116104424D01*
X133636471Y-116112141D01*
X133597294Y-116116000D01*
X133518706Y-116116000D01*
X133479529Y-116112141D01*
X133401173Y-116104424D01*
X133250372Y-116058679D01*
X133250370Y-116058678D01*
X133111395Y-115984394D01*
X132989578Y-115884422D01*
X132889606Y-115762605D01*
X132815322Y-115623630D01*
X132815321Y-115623628D01*
X132769576Y-115472827D01*
X132754130Y-115316000D01*
X132769576Y-115159173D01*
X132815321Y-115008372D01*
X132889607Y-114869394D01*
X132989578Y-114747578D01*
X133025338Y-114718231D01*
X133111395Y-114647606D01*
X133250370Y-114573322D01*
X133250372Y-114573321D01*
X133401173Y-114527576D01*
X133479529Y-114519859D01*
X133518706Y-114516000D01*
X133597294Y-114516000D01*
X133636471Y-114519859D01*
X133636471Y-114519859D01*
G37*
G36*
X141978000Y-116116000D02*
G01*
X140378000Y-116116000D01*
X140378000Y-114516000D01*
X141978000Y-114516000D01*
X141978000Y-116116000D01*
X141978000Y-116116000D01*
G37*
G36*
X158066627Y-114162299D02*
G01*
X158146742Y-114186602D01*
X158226855Y-114210903D01*
X158226857Y-114210904D01*
X158374518Y-114289831D01*
X158503949Y-114396051D01*
X158610169Y-114525482D01*
X158689096Y-114673143D01*
X158689097Y-114673145D01*
X158713399Y-114753258D01*
X158737701Y-114833373D01*
X158754112Y-115000000D01*
X158737701Y-115166627D01*
X158737700Y-115166629D01*
X158692390Y-115316000D01*
X158689096Y-115326857D01*
X158610169Y-115474518D01*
X158503949Y-115603949D01*
X158374518Y-115710169D01*
X158276416Y-115762606D01*
X158226855Y-115789097D01*
X158146742Y-115813399D01*
X158066627Y-115837701D01*
X157941752Y-115850000D01*
X157058248Y-115850000D01*
X156933373Y-115837701D01*
X156853258Y-115813399D01*
X156773145Y-115789097D01*
X156723584Y-115762606D01*
X156625482Y-115710169D01*
X156496051Y-115603949D01*
X156389831Y-115474518D01*
X156310904Y-115326857D01*
X156307611Y-115316000D01*
X156262300Y-115166629D01*
X156262299Y-115166627D01*
X156245888Y-115000000D01*
X156262299Y-114833373D01*
X156286601Y-114753258D01*
X156310903Y-114673145D01*
X156310904Y-114673143D01*
X156389831Y-114525482D01*
X156496051Y-114396051D01*
X156625482Y-114289831D01*
X156773143Y-114210904D01*
X156773145Y-114210903D01*
X156853258Y-114186602D01*
X156933373Y-114162299D01*
X157058248Y-114150000D01*
X157941752Y-114150000D01*
X158066627Y-114162299D01*
X158066627Y-114162299D01*
G37*
G36*
X118966627Y-112090699D02*
G01*
X119022362Y-112107606D01*
X119126855Y-112139303D01*
X119126857Y-112139304D01*
X119274518Y-112218231D01*
X119403949Y-112324451D01*
X119510169Y-112453882D01*
X119589096Y-112601543D01*
X119637701Y-112761773D01*
X119654112Y-112928400D01*
X119637701Y-113095027D01*
X119589096Y-113255257D01*
X119510169Y-113402918D01*
X119403949Y-113532349D01*
X119274518Y-113638569D01*
X119126857Y-113717496D01*
X119126855Y-113717497D01*
X119046742Y-113741798D01*
X118966627Y-113766101D01*
X118841752Y-113778400D01*
X117958248Y-113778400D01*
X117833373Y-113766101D01*
X117753258Y-113741798D01*
X117673145Y-113717497D01*
X117673143Y-113717496D01*
X117525482Y-113638569D01*
X117396051Y-113532349D01*
X117289831Y-113402918D01*
X117210904Y-113255257D01*
X117162299Y-113095027D01*
X117145888Y-112928400D01*
X117162299Y-112761773D01*
X117210904Y-112601543D01*
X117289831Y-112453882D01*
X117396051Y-112324451D01*
X117525482Y-112218231D01*
X117673143Y-112139304D01*
X117673145Y-112139303D01*
X117777638Y-112107606D01*
X117833373Y-112090699D01*
X117958248Y-112078400D01*
X118841752Y-112078400D01*
X118966627Y-112090699D01*
X118966627Y-112090699D01*
G37*
G36*
X141256471Y-111979859D02*
G01*
X141334827Y-111987576D01*
X141485628Y-112033321D01*
X141485630Y-112033322D01*
X141624605Y-112107606D01*
X141746422Y-112207578D01*
X141842337Y-112324451D01*
X141846393Y-112329394D01*
X141920679Y-112468372D01*
X141966424Y-112619173D01*
X141981870Y-112776000D01*
X141966424Y-112932827D01*
X141920679Y-113083628D01*
X141920678Y-113083630D01*
X141846394Y-113222605D01*
X141746422Y-113344422D01*
X141624605Y-113444394D01*
X141485630Y-113518678D01*
X141485628Y-113518679D01*
X141334827Y-113564424D01*
X141256471Y-113572141D01*
X141217294Y-113576000D01*
X141138706Y-113576000D01*
X141099529Y-113572141D01*
X141021173Y-113564424D01*
X140870372Y-113518679D01*
X140870370Y-113518678D01*
X140731395Y-113444394D01*
X140609578Y-113344422D01*
X140509606Y-113222605D01*
X140435322Y-113083630D01*
X140435321Y-113083628D01*
X140389576Y-112932827D01*
X140374130Y-112776000D01*
X140389576Y-112619173D01*
X140435321Y-112468372D01*
X140509607Y-112329394D01*
X140513664Y-112324451D01*
X140609578Y-112207578D01*
X140731395Y-112107606D01*
X140870370Y-112033322D01*
X140870372Y-112033321D01*
X141021173Y-111987576D01*
X141099529Y-111979859D01*
X141138706Y-111976000D01*
X141217294Y-111976000D01*
X141256471Y-111979859D01*
X141256471Y-111979859D01*
G37*
G36*
X133636471Y-111979859D02*
G01*
X133714827Y-111987576D01*
X133865628Y-112033321D01*
X133865630Y-112033322D01*
X134004605Y-112107606D01*
X134126422Y-112207578D01*
X134222337Y-112324451D01*
X134226393Y-112329394D01*
X134300679Y-112468372D01*
X134346424Y-112619173D01*
X134361870Y-112776000D01*
X134346424Y-112932827D01*
X134300679Y-113083628D01*
X134300678Y-113083630D01*
X134226394Y-113222605D01*
X134126422Y-113344422D01*
X134004605Y-113444394D01*
X133865630Y-113518678D01*
X133865628Y-113518679D01*
X133714827Y-113564424D01*
X133636471Y-113572141D01*
X133597294Y-113576000D01*
X133518706Y-113576000D01*
X133479529Y-113572141D01*
X133401173Y-113564424D01*
X133250372Y-113518679D01*
X133250370Y-113518678D01*
X133111395Y-113444394D01*
X132989578Y-113344422D01*
X132889606Y-113222605D01*
X132815322Y-113083630D01*
X132815321Y-113083628D01*
X132769576Y-112932827D01*
X132754130Y-112776000D01*
X132769576Y-112619173D01*
X132815321Y-112468372D01*
X132889607Y-112329394D01*
X132893664Y-112324451D01*
X132989578Y-112207578D01*
X133111395Y-112107606D01*
X133250370Y-112033322D01*
X133250372Y-112033321D01*
X133401173Y-111987576D01*
X133479529Y-111979859D01*
X133518706Y-111976000D01*
X133597294Y-111976000D01*
X133636471Y-111979859D01*
X133636471Y-111979859D01*
G37*
G36*
X153066627Y-111662299D02*
G01*
X153146742Y-111686601D01*
X153226855Y-111710903D01*
X153226857Y-111710904D01*
X153374518Y-111789831D01*
X153503949Y-111896051D01*
X153610169Y-112025482D01*
X153689096Y-112173143D01*
X153737701Y-112333373D01*
X153754112Y-112500000D01*
X153737701Y-112666627D01*
X153689096Y-112826857D01*
X153610169Y-112974518D01*
X153503949Y-113103949D01*
X153374518Y-113210169D01*
X153226857Y-113289096D01*
X153226855Y-113289097D01*
X153146742Y-113313399D01*
X153066627Y-113337701D01*
X152941752Y-113350000D01*
X152058248Y-113350000D01*
X151933373Y-113337701D01*
X151853258Y-113313399D01*
X151773145Y-113289097D01*
X151773143Y-113289096D01*
X151625482Y-113210169D01*
X151496051Y-113103949D01*
X151389831Y-112974518D01*
X151310904Y-112826857D01*
X151262299Y-112666627D01*
X151245888Y-112500000D01*
X151262299Y-112333373D01*
X151310904Y-112173143D01*
X151389831Y-112025482D01*
X151496051Y-111896051D01*
X151625482Y-111789831D01*
X151773143Y-111710904D01*
X151773145Y-111710903D01*
X151853258Y-111686601D01*
X151933373Y-111662299D01*
X152058248Y-111650000D01*
X152941752Y-111650000D01*
X153066627Y-111662299D01*
X153066627Y-111662299D01*
G37*
G36*
X158066627Y-109162299D02*
G01*
X158146742Y-109186601D01*
X158226855Y-109210903D01*
X158226857Y-109210904D01*
X158374518Y-109289831D01*
X158503949Y-109396051D01*
X158610169Y-109525482D01*
X158689096Y-109673143D01*
X158737701Y-109833373D01*
X158754112Y-110000000D01*
X158737701Y-110166627D01*
X158689096Y-110326857D01*
X158610169Y-110474518D01*
X158503949Y-110603949D01*
X158374518Y-110710169D01*
X158226857Y-110789096D01*
X158226855Y-110789097D01*
X158146742Y-110813399D01*
X158066627Y-110837701D01*
X157941752Y-110850000D01*
X157058248Y-110850000D01*
X156933373Y-110837701D01*
X156853258Y-110813399D01*
X156773145Y-110789097D01*
X156773143Y-110789096D01*
X156625482Y-110710169D01*
X156496051Y-110603949D01*
X156389831Y-110474518D01*
X156310904Y-110326857D01*
X156262299Y-110166627D01*
X156245888Y-110000000D01*
X156262299Y-109833373D01*
X156310904Y-109673143D01*
X156389831Y-109525482D01*
X156496051Y-109396051D01*
X156625482Y-109289831D01*
X156773143Y-109210904D01*
X156773145Y-109210903D01*
X156853258Y-109186601D01*
X156933373Y-109162299D01*
X157058248Y-109150000D01*
X157941752Y-109150000D01*
X158066627Y-109162299D01*
X158066627Y-109162299D01*
G37*
G36*
X106348490Y-107128019D02*
G01*
X106412889Y-107140829D01*
X106594878Y-107216211D01*
X106758663Y-107325649D01*
X106897951Y-107464937D01*
X107007389Y-107628722D01*
X107082771Y-107810711D01*
X107121200Y-108003909D01*
X107121200Y-108200891D01*
X107082771Y-108394089D01*
X107007389Y-108576078D01*
X106897951Y-108739863D01*
X106758663Y-108879151D01*
X106594878Y-108988589D01*
X106412889Y-109063971D01*
X106348490Y-109076781D01*
X106219693Y-109102400D01*
X106022707Y-109102400D01*
X105893910Y-109076781D01*
X105829511Y-109063971D01*
X105647522Y-108988589D01*
X105483737Y-108879151D01*
X105344449Y-108739863D01*
X105235011Y-108576078D01*
X105159629Y-108394089D01*
X105121200Y-108200891D01*
X105121200Y-108003909D01*
X105159629Y-107810711D01*
X105235011Y-107628722D01*
X105344449Y-107464937D01*
X105483737Y-107325649D01*
X105647522Y-107216211D01*
X105829511Y-107140829D01*
X105893910Y-107128019D01*
X106022707Y-107102400D01*
X106219693Y-107102400D01*
X106348490Y-107128019D01*
X106348490Y-107128019D01*
G37*
G36*
X121588490Y-107128019D02*
G01*
X121652889Y-107140829D01*
X121834878Y-107216211D01*
X121998663Y-107325649D01*
X122137951Y-107464937D01*
X122247389Y-107628722D01*
X122322771Y-107810711D01*
X122361200Y-108003909D01*
X122361200Y-108200891D01*
X122322771Y-108394089D01*
X122247389Y-108576078D01*
X122137951Y-108739863D01*
X121998663Y-108879151D01*
X121834878Y-108988589D01*
X121652889Y-109063971D01*
X121588490Y-109076781D01*
X121459693Y-109102400D01*
X121262707Y-109102400D01*
X121133910Y-109076781D01*
X121069511Y-109063971D01*
X120887522Y-108988589D01*
X120723737Y-108879151D01*
X120584449Y-108739863D01*
X120475011Y-108576078D01*
X120399629Y-108394089D01*
X120361200Y-108200891D01*
X120361200Y-108003909D01*
X120399629Y-107810711D01*
X120475011Y-107628722D01*
X120584449Y-107464937D01*
X120723737Y-107325649D01*
X120887522Y-107216211D01*
X121069511Y-107140829D01*
X121133910Y-107128019D01*
X121262707Y-107102400D01*
X121459693Y-107102400D01*
X121588490Y-107128019D01*
X121588490Y-107128019D01*
G37*
G36*
X119048490Y-107128019D02*
G01*
X119112889Y-107140829D01*
X119294878Y-107216211D01*
X119458663Y-107325649D01*
X119597951Y-107464937D01*
X119707389Y-107628722D01*
X119782771Y-107810711D01*
X119821200Y-108003909D01*
X119821200Y-108200891D01*
X119782771Y-108394089D01*
X119707389Y-108576078D01*
X119597951Y-108739863D01*
X119458663Y-108879151D01*
X119294878Y-108988589D01*
X119112889Y-109063971D01*
X119048490Y-109076781D01*
X118919693Y-109102400D01*
X118722707Y-109102400D01*
X118593910Y-109076781D01*
X118529511Y-109063971D01*
X118347522Y-108988589D01*
X118183737Y-108879151D01*
X118044449Y-108739863D01*
X117935011Y-108576078D01*
X117859629Y-108394089D01*
X117821200Y-108200891D01*
X117821200Y-108003909D01*
X117859629Y-107810711D01*
X117935011Y-107628722D01*
X118044449Y-107464937D01*
X118183737Y-107325649D01*
X118347522Y-107216211D01*
X118529511Y-107140829D01*
X118593910Y-107128019D01*
X118722707Y-107102400D01*
X118919693Y-107102400D01*
X119048490Y-107128019D01*
X119048490Y-107128019D01*
G37*
G36*
X108888490Y-107128019D02*
G01*
X108952889Y-107140829D01*
X109134878Y-107216211D01*
X109298663Y-107325649D01*
X109437951Y-107464937D01*
X109547389Y-107628722D01*
X109622771Y-107810711D01*
X109661200Y-108003909D01*
X109661200Y-108200891D01*
X109622771Y-108394089D01*
X109547389Y-108576078D01*
X109437951Y-108739863D01*
X109298663Y-108879151D01*
X109134878Y-108988589D01*
X108952889Y-109063971D01*
X108888490Y-109076781D01*
X108759693Y-109102400D01*
X108562707Y-109102400D01*
X108433910Y-109076781D01*
X108369511Y-109063971D01*
X108187522Y-108988589D01*
X108023737Y-108879151D01*
X107884449Y-108739863D01*
X107775011Y-108576078D01*
X107699629Y-108394089D01*
X107661200Y-108200891D01*
X107661200Y-108003909D01*
X107699629Y-107810711D01*
X107775011Y-107628722D01*
X107884449Y-107464937D01*
X108023737Y-107325649D01*
X108187522Y-107216211D01*
X108369511Y-107140829D01*
X108433910Y-107128019D01*
X108562707Y-107102400D01*
X108759693Y-107102400D01*
X108888490Y-107128019D01*
X108888490Y-107128019D01*
G37*
G36*
X111428490Y-107128019D02*
G01*
X111492889Y-107140829D01*
X111674878Y-107216211D01*
X111838663Y-107325649D01*
X111977951Y-107464937D01*
X112087389Y-107628722D01*
X112162771Y-107810711D01*
X112201200Y-108003909D01*
X112201200Y-108200891D01*
X112162771Y-108394089D01*
X112087389Y-108576078D01*
X111977951Y-108739863D01*
X111838663Y-108879151D01*
X111674878Y-108988589D01*
X111492889Y-109063971D01*
X111428490Y-109076781D01*
X111299693Y-109102400D01*
X111102707Y-109102400D01*
X110973910Y-109076781D01*
X110909511Y-109063971D01*
X110727522Y-108988589D01*
X110563737Y-108879151D01*
X110424449Y-108739863D01*
X110315011Y-108576078D01*
X110239629Y-108394089D01*
X110201200Y-108200891D01*
X110201200Y-108003909D01*
X110239629Y-107810711D01*
X110315011Y-107628722D01*
X110424449Y-107464937D01*
X110563737Y-107325649D01*
X110727522Y-107216211D01*
X110909511Y-107140829D01*
X110973910Y-107128019D01*
X111102707Y-107102400D01*
X111299693Y-107102400D01*
X111428490Y-107128019D01*
X111428490Y-107128019D01*
G37*
G36*
X141978000Y-109004000D02*
G01*
X140378000Y-109004000D01*
X140378000Y-107404000D01*
X141978000Y-107404000D01*
X141978000Y-109004000D01*
X141978000Y-109004000D01*
G37*
G36*
X133636471Y-107407859D02*
G01*
X133714827Y-107415576D01*
X133865628Y-107461321D01*
X133865630Y-107461322D01*
X134004605Y-107535606D01*
X134126422Y-107635578D01*
X134226394Y-107757395D01*
X134263521Y-107826855D01*
X134300679Y-107896372D01*
X134346424Y-108047173D01*
X134361870Y-108204000D01*
X134346424Y-108360827D01*
X134336334Y-108394088D01*
X134300678Y-108511630D01*
X134226394Y-108650605D01*
X134126422Y-108772422D01*
X134004605Y-108872394D01*
X133865630Y-108946678D01*
X133865628Y-108946679D01*
X133714827Y-108992424D01*
X133636471Y-109000141D01*
X133597294Y-109004000D01*
X133518706Y-109004000D01*
X133479529Y-109000141D01*
X133401173Y-108992424D01*
X133250372Y-108946679D01*
X133250370Y-108946678D01*
X133111395Y-108872394D01*
X132989578Y-108772422D01*
X132889606Y-108650605D01*
X132815322Y-108511630D01*
X132779666Y-108394088D01*
X132769576Y-108360827D01*
X132754130Y-108204000D01*
X132769576Y-108047173D01*
X132815321Y-107896372D01*
X132852479Y-107826855D01*
X132889606Y-107757395D01*
X132989578Y-107635578D01*
X133111395Y-107535606D01*
X133250370Y-107461322D01*
X133250372Y-107461321D01*
X133401173Y-107415576D01*
X133479529Y-107407859D01*
X133518706Y-107404000D01*
X133597294Y-107404000D01*
X133636471Y-107407859D01*
X133636471Y-107407859D01*
G37*
G36*
X153066627Y-106662299D02*
G01*
X153146742Y-106686601D01*
X153226855Y-106710903D01*
X153226857Y-106710904D01*
X153374518Y-106789831D01*
X153503949Y-106896051D01*
X153610168Y-107025481D01*
X153689097Y-107173145D01*
X153713399Y-107253258D01*
X153737701Y-107333373D01*
X153754112Y-107500000D01*
X153737701Y-107666627D01*
X153689096Y-107826857D01*
X153610169Y-107974518D01*
X153503949Y-108103949D01*
X153374518Y-108210169D01*
X153226857Y-108289096D01*
X153226855Y-108289097D01*
X153146742Y-108313399D01*
X153066627Y-108337701D01*
X152941752Y-108350000D01*
X152058248Y-108350000D01*
X151933373Y-108337701D01*
X151853258Y-108313399D01*
X151773145Y-108289097D01*
X151773143Y-108289096D01*
X151625482Y-108210169D01*
X151496051Y-108103949D01*
X151389831Y-107974518D01*
X151310904Y-107826857D01*
X151262299Y-107666627D01*
X151245888Y-107500000D01*
X151262299Y-107333373D01*
X151286601Y-107253258D01*
X151310903Y-107173145D01*
X151389832Y-107025481D01*
X151496051Y-106896051D01*
X151625482Y-106789831D01*
X151773143Y-106710904D01*
X151773145Y-106710903D01*
X151853258Y-106686601D01*
X151933373Y-106662299D01*
X152058248Y-106650000D01*
X152941752Y-106650000D01*
X153066627Y-106662299D01*
X153066627Y-106662299D01*
G37*
G36*
X141256471Y-104867859D02*
G01*
X141334827Y-104875576D01*
X141485628Y-104921321D01*
X141485630Y-104921322D01*
X141624605Y-104995606D01*
X141624607Y-104995607D01*
X141624606Y-104995607D01*
X141746422Y-105095578D01*
X141846393Y-105217394D01*
X141920679Y-105356372D01*
X141966424Y-105507173D01*
X141981870Y-105664000D01*
X141966424Y-105820827D01*
X141961305Y-105837701D01*
X141920678Y-105971630D01*
X141846394Y-106110605D01*
X141746422Y-106232422D01*
X141624605Y-106332394D01*
X141485630Y-106406678D01*
X141485628Y-106406679D01*
X141334827Y-106452424D01*
X141256471Y-106460141D01*
X141217294Y-106464000D01*
X141138706Y-106464000D01*
X141099529Y-106460141D01*
X141021173Y-106452424D01*
X140870372Y-106406679D01*
X140870370Y-106406678D01*
X140731395Y-106332394D01*
X140609578Y-106232422D01*
X140509606Y-106110605D01*
X140435322Y-105971630D01*
X140394695Y-105837701D01*
X140389576Y-105820827D01*
X140374130Y-105664000D01*
X140389576Y-105507173D01*
X140435321Y-105356372D01*
X140509607Y-105217394D01*
X140609578Y-105095578D01*
X140731394Y-104995607D01*
X140731393Y-104995607D01*
X140731395Y-104995606D01*
X140870370Y-104921322D01*
X140870372Y-104921321D01*
X141021173Y-104875576D01*
X141099529Y-104867859D01*
X141138706Y-104864000D01*
X141217294Y-104864000D01*
X141256471Y-104867859D01*
X141256471Y-104867859D01*
G37*
G36*
X133636471Y-104867859D02*
G01*
X133714827Y-104875576D01*
X133865628Y-104921321D01*
X133865630Y-104921322D01*
X134004605Y-104995606D01*
X134004607Y-104995607D01*
X134004606Y-104995607D01*
X134126422Y-105095578D01*
X134226393Y-105217394D01*
X134300679Y-105356372D01*
X134346424Y-105507173D01*
X134361870Y-105664000D01*
X134346424Y-105820827D01*
X134341305Y-105837701D01*
X134300678Y-105971630D01*
X134226394Y-106110605D01*
X134126422Y-106232422D01*
X134004605Y-106332394D01*
X133865630Y-106406678D01*
X133865628Y-106406679D01*
X133714827Y-106452424D01*
X133636471Y-106460141D01*
X133597294Y-106464000D01*
X133518706Y-106464000D01*
X133479529Y-106460141D01*
X133401173Y-106452424D01*
X133250372Y-106406679D01*
X133250370Y-106406678D01*
X133111395Y-106332394D01*
X132989578Y-106232422D01*
X132889606Y-106110605D01*
X132815322Y-105971630D01*
X132774695Y-105837701D01*
X132769576Y-105820827D01*
X132754130Y-105664000D01*
X132769576Y-105507173D01*
X132815321Y-105356372D01*
X132889607Y-105217394D01*
X132989578Y-105095578D01*
X133111394Y-104995607D01*
X133111393Y-104995607D01*
X133111395Y-104995606D01*
X133250370Y-104921322D01*
X133250372Y-104921321D01*
X133401173Y-104875576D01*
X133479529Y-104867859D01*
X133518706Y-104864000D01*
X133597294Y-104864000D01*
X133636471Y-104867859D01*
X133636471Y-104867859D01*
G37*
G36*
X158066627Y-104162299D02*
G01*
X158146742Y-104186601D01*
X158226855Y-104210903D01*
X158226857Y-104210904D01*
X158374518Y-104289831D01*
X158503949Y-104396051D01*
X158610169Y-104525482D01*
X158689096Y-104673143D01*
X158737701Y-104833373D01*
X158754112Y-105000000D01*
X158737701Y-105166627D01*
X158689096Y-105326857D01*
X158610169Y-105474518D01*
X158503949Y-105603949D01*
X158374518Y-105710169D01*
X158226857Y-105789096D01*
X158226855Y-105789097D01*
X158146742Y-105813399D01*
X158066627Y-105837701D01*
X157941752Y-105850000D01*
X157058248Y-105850000D01*
X156933373Y-105837701D01*
X156853258Y-105813399D01*
X156773145Y-105789097D01*
X156773143Y-105789096D01*
X156625482Y-105710169D01*
X156496051Y-105603949D01*
X156389831Y-105474518D01*
X156310904Y-105326857D01*
X156262299Y-105166627D01*
X156245888Y-105000000D01*
X156262299Y-104833373D01*
X156310904Y-104673143D01*
X156389831Y-104525482D01*
X156496051Y-104396051D01*
X156625482Y-104289831D01*
X156773143Y-104210904D01*
X156773145Y-104210903D01*
X156853258Y-104186601D01*
X156933373Y-104162299D01*
X157058248Y-104150000D01*
X157941752Y-104150000D01*
X158066627Y-104162299D01*
X158066627Y-104162299D01*
G37*
G36*
X141978000Y-101892000D02*
G01*
X140378000Y-101892000D01*
X140378000Y-100292000D01*
X141978000Y-100292000D01*
X141978000Y-101892000D01*
X141978000Y-101892000D01*
G37*
G36*
X133636471Y-100295859D02*
G01*
X133714827Y-100303576D01*
X133865628Y-100349321D01*
X133865630Y-100349322D01*
X134004605Y-100423606D01*
X134004607Y-100423607D01*
X134004606Y-100423607D01*
X134126422Y-100523578D01*
X134226393Y-100645394D01*
X134300679Y-100784372D01*
X134346424Y-100935173D01*
X134361870Y-101092000D01*
X134346424Y-101248827D01*
X134300679Y-101399628D01*
X134300678Y-101399630D01*
X134226394Y-101538605D01*
X134126422Y-101660422D01*
X134004605Y-101760394D01*
X133865630Y-101834678D01*
X133865628Y-101834679D01*
X133714827Y-101880424D01*
X133636471Y-101888141D01*
X133597294Y-101892000D01*
X133518706Y-101892000D01*
X133479529Y-101888141D01*
X133401173Y-101880424D01*
X133250372Y-101834679D01*
X133250370Y-101834678D01*
X133111395Y-101760394D01*
X132989578Y-101660422D01*
X132889606Y-101538605D01*
X132815322Y-101399630D01*
X132815321Y-101399628D01*
X132769576Y-101248827D01*
X132754130Y-101092000D01*
X132769576Y-100935173D01*
X132815321Y-100784372D01*
X132889607Y-100645394D01*
X132989578Y-100523578D01*
X133111394Y-100423607D01*
X133111393Y-100423607D01*
X133111395Y-100423606D01*
X133250370Y-100349322D01*
X133250372Y-100349321D01*
X133401173Y-100303576D01*
X133479529Y-100295859D01*
X133518706Y-100292000D01*
X133597294Y-100292000D01*
X133636471Y-100295859D01*
X133636471Y-100295859D01*
G37*
G36*
X109066627Y-98662299D02*
G01*
X109146742Y-98686602D01*
X109226855Y-98710903D01*
X109226857Y-98710904D01*
X109374518Y-98789831D01*
X109503949Y-98896051D01*
X109610168Y-99025481D01*
X109689097Y-99173145D01*
X109713399Y-99253258D01*
X109737701Y-99333373D01*
X109754112Y-99500000D01*
X109737701Y-99666627D01*
X109689096Y-99826857D01*
X109610169Y-99974518D01*
X109503949Y-100103949D01*
X109374518Y-100210169D01*
X109226857Y-100289096D01*
X109226855Y-100289097D01*
X109179123Y-100303576D01*
X109066627Y-100337701D01*
X108941752Y-100350000D01*
X108058248Y-100350000D01*
X107933373Y-100337701D01*
X107820877Y-100303576D01*
X107773145Y-100289097D01*
X107773143Y-100289096D01*
X107625482Y-100210169D01*
X107496051Y-100103949D01*
X107389831Y-99974518D01*
X107310904Y-99826857D01*
X107262299Y-99666627D01*
X107245888Y-99500000D01*
X107262299Y-99333373D01*
X107286601Y-99253258D01*
X107310903Y-99173145D01*
X107389832Y-99025481D01*
X107496051Y-98896051D01*
X107625482Y-98789831D01*
X107773143Y-98710904D01*
X107773145Y-98710903D01*
X107853258Y-98686602D01*
X107933373Y-98662299D01*
X108058248Y-98650000D01*
X108941752Y-98650000D01*
X109066627Y-98662299D01*
X109066627Y-98662299D01*
G37*
G36*
X133636471Y-97755859D02*
G01*
X133714827Y-97763576D01*
X133865628Y-97809321D01*
X133865630Y-97809322D01*
X134004605Y-97883606D01*
X134004607Y-97883607D01*
X134004606Y-97883607D01*
X134126422Y-97983578D01*
X134226393Y-98105394D01*
X134300679Y-98244372D01*
X134346424Y-98395173D01*
X134361870Y-98552000D01*
X134346424Y-98708827D01*
X134321851Y-98789832D01*
X134300678Y-98859630D01*
X134226394Y-98998605D01*
X134126422Y-99120422D01*
X134004605Y-99220394D01*
X133865630Y-99294678D01*
X133865628Y-99294679D01*
X133714827Y-99340424D01*
X133636471Y-99348141D01*
X133597294Y-99352000D01*
X133518706Y-99352000D01*
X133479529Y-99348141D01*
X133401173Y-99340424D01*
X133250372Y-99294679D01*
X133250370Y-99294678D01*
X133111395Y-99220394D01*
X132989578Y-99120422D01*
X132889606Y-98998605D01*
X132815322Y-98859630D01*
X132794149Y-98789832D01*
X132769576Y-98708827D01*
X132754130Y-98552000D01*
X132769576Y-98395173D01*
X132815321Y-98244372D01*
X132889607Y-98105394D01*
X132989578Y-97983578D01*
X133111394Y-97883607D01*
X133111393Y-97883607D01*
X133111395Y-97883606D01*
X133250370Y-97809322D01*
X133250372Y-97809321D01*
X133401173Y-97763576D01*
X133479529Y-97755859D01*
X133518706Y-97752000D01*
X133597294Y-97752000D01*
X133636471Y-97755859D01*
X133636471Y-97755859D01*
G37*
G36*
X141256471Y-97755859D02*
G01*
X141334827Y-97763576D01*
X141485628Y-97809321D01*
X141485630Y-97809322D01*
X141624605Y-97883606D01*
X141624607Y-97883607D01*
X141624606Y-97883607D01*
X141746422Y-97983578D01*
X141846393Y-98105394D01*
X141920679Y-98244372D01*
X141966424Y-98395173D01*
X141981870Y-98552000D01*
X141966424Y-98708827D01*
X141941851Y-98789832D01*
X141920678Y-98859630D01*
X141846394Y-98998605D01*
X141746422Y-99120422D01*
X141624605Y-99220394D01*
X141485630Y-99294678D01*
X141485628Y-99294679D01*
X141334827Y-99340424D01*
X141256471Y-99348141D01*
X141217294Y-99352000D01*
X141138706Y-99352000D01*
X141099529Y-99348141D01*
X141021173Y-99340424D01*
X140870372Y-99294679D01*
X140870370Y-99294678D01*
X140731395Y-99220394D01*
X140609578Y-99120422D01*
X140509606Y-98998605D01*
X140435322Y-98859630D01*
X140414149Y-98789832D01*
X140389576Y-98708827D01*
X140374130Y-98552000D01*
X140389576Y-98395173D01*
X140435321Y-98244372D01*
X140509607Y-98105394D01*
X140609578Y-97983578D01*
X140731394Y-97883607D01*
X140731393Y-97883607D01*
X140731395Y-97883606D01*
X140870370Y-97809322D01*
X140870372Y-97809321D01*
X141021173Y-97763576D01*
X141099529Y-97755859D01*
X141138706Y-97752000D01*
X141217294Y-97752000D01*
X141256471Y-97755859D01*
X141256471Y-97755859D01*
G37*
G36*
X153458103Y-97087558D02*
G01*
X153525990Y-97108152D01*
X153588559Y-97141596D01*
X153643399Y-97186601D01*
X153688404Y-97241441D01*
X153721848Y-97304010D01*
X153742442Y-97371897D01*
X153750000Y-97448640D01*
X153750000Y-98411360D01*
X153742442Y-98488103D01*
X153721848Y-98555990D01*
X153688404Y-98618559D01*
X153643399Y-98673399D01*
X153588559Y-98718404D01*
X153525990Y-98751848D01*
X153458103Y-98772442D01*
X153381360Y-98780000D01*
X151618640Y-98780000D01*
X151541897Y-98772442D01*
X151474010Y-98751848D01*
X151411441Y-98718404D01*
X151356601Y-98673399D01*
X151311596Y-98618559D01*
X151278152Y-98555990D01*
X151257558Y-98488103D01*
X151250000Y-98411360D01*
X151250000Y-97448640D01*
X151257558Y-97371897D01*
X151278152Y-97304010D01*
X151311596Y-97241441D01*
X151356601Y-97186601D01*
X151411441Y-97141596D01*
X151474010Y-97108152D01*
X151541897Y-97087558D01*
X151618640Y-97080000D01*
X153381360Y-97080000D01*
X153458103Y-97087558D01*
X153458103Y-97087558D01*
G37*
G36*
X114066627Y-95162299D02*
G01*
X114146742Y-95186602D01*
X114226855Y-95210903D01*
X114226857Y-95210904D01*
X114374518Y-95289831D01*
X114503949Y-95396051D01*
X114610169Y-95525482D01*
X114689096Y-95673143D01*
X114737701Y-95833373D01*
X114754112Y-96000000D01*
X114737701Y-96166627D01*
X114689096Y-96326857D01*
X114610169Y-96474518D01*
X114503949Y-96603949D01*
X114374518Y-96710169D01*
X114226857Y-96789096D01*
X114226855Y-96789097D01*
X114146742Y-96813398D01*
X114066627Y-96837701D01*
X113941752Y-96850000D01*
X113058248Y-96850000D01*
X112933373Y-96837701D01*
X112853258Y-96813398D01*
X112773145Y-96789097D01*
X112773143Y-96789096D01*
X112625482Y-96710169D01*
X112496051Y-96603949D01*
X112389831Y-96474518D01*
X112310904Y-96326857D01*
X112262299Y-96166627D01*
X112245888Y-96000000D01*
X112262299Y-95833373D01*
X112310904Y-95673143D01*
X112389831Y-95525482D01*
X112496051Y-95396051D01*
X112625482Y-95289831D01*
X112773143Y-95210904D01*
X112773145Y-95210903D01*
X112853258Y-95186602D01*
X112933373Y-95162299D01*
X113058248Y-95150000D01*
X113941752Y-95150000D01*
X114066627Y-95162299D01*
X114066627Y-95162299D01*
G37*
G36*
X158066627Y-94592299D02*
G01*
X158146742Y-94616602D01*
X158226855Y-94640903D01*
X158226857Y-94640904D01*
X158374518Y-94719831D01*
X158503949Y-94826051D01*
X158610169Y-94955482D01*
X158689096Y-95103143D01*
X158737701Y-95263373D01*
X158754112Y-95430000D01*
X158737701Y-95596627D01*
X158689096Y-95756857D01*
X158610169Y-95904518D01*
X158503949Y-96033949D01*
X158374518Y-96140169D01*
X158325015Y-96166629D01*
X158226855Y-96219097D01*
X158146742Y-96243399D01*
X158066627Y-96267701D01*
X157941752Y-96280000D01*
X157058248Y-96280000D01*
X156933373Y-96267701D01*
X156853258Y-96243399D01*
X156773145Y-96219097D01*
X156674985Y-96166629D01*
X156625482Y-96140169D01*
X156496051Y-96033949D01*
X156389831Y-95904518D01*
X156310904Y-95756857D01*
X156262299Y-95596627D01*
X156245888Y-95430000D01*
X156262299Y-95263373D01*
X156310904Y-95103143D01*
X156389831Y-94955482D01*
X156496051Y-94826051D01*
X156625482Y-94719831D01*
X156773143Y-94640904D01*
X156773145Y-94640903D01*
X156853258Y-94616602D01*
X156933373Y-94592299D01*
X157058248Y-94580000D01*
X157941752Y-94580000D01*
X158066627Y-94592299D01*
X158066627Y-94592299D01*
G37*
G36*
X133636471Y-93183859D02*
G01*
X133714827Y-93191576D01*
X133865628Y-93237321D01*
X133865630Y-93237322D01*
X134004605Y-93311606D01*
X134126422Y-93411578D01*
X134226394Y-93533395D01*
X134283466Y-93640169D01*
X134300679Y-93672372D01*
X134346424Y-93823173D01*
X134361870Y-93980000D01*
X134346424Y-94136827D01*
X134300679Y-94287628D01*
X134300678Y-94287630D01*
X134226394Y-94426605D01*
X134126422Y-94548422D01*
X134004605Y-94648394D01*
X133870956Y-94719831D01*
X133865628Y-94722679D01*
X133714827Y-94768424D01*
X133636471Y-94776141D01*
X133597294Y-94780000D01*
X133518706Y-94780000D01*
X133479529Y-94776141D01*
X133401173Y-94768424D01*
X133250372Y-94722679D01*
X133245044Y-94719831D01*
X133111395Y-94648394D01*
X132989578Y-94548422D01*
X132889606Y-94426605D01*
X132815322Y-94287630D01*
X132815321Y-94287628D01*
X132769576Y-94136827D01*
X132754130Y-93980000D01*
X132769576Y-93823173D01*
X132815321Y-93672372D01*
X132832534Y-93640169D01*
X132889606Y-93533395D01*
X132989578Y-93411578D01*
X133111395Y-93311606D01*
X133250370Y-93237322D01*
X133250372Y-93237321D01*
X133401173Y-93191576D01*
X133479529Y-93183859D01*
X133518706Y-93180000D01*
X133597294Y-93180000D01*
X133636471Y-93183859D01*
X133636471Y-93183859D01*
G37*
G36*
X141978000Y-94780000D02*
G01*
X140378000Y-94780000D01*
X140378000Y-93180000D01*
X141978000Y-93180000D01*
X141978000Y-94780000D01*
X141978000Y-94780000D01*
G37*
G36*
X153066627Y-92092299D02*
G01*
X153119682Y-92108393D01*
X153226855Y-92140903D01*
X153226857Y-92140904D01*
X153374518Y-92219831D01*
X153503949Y-92326051D01*
X153610169Y-92455482D01*
X153689096Y-92603143D01*
X153737701Y-92763373D01*
X153754112Y-92930000D01*
X153737701Y-93096627D01*
X153689096Y-93256857D01*
X153610169Y-93404518D01*
X153503949Y-93533949D01*
X153374518Y-93640169D01*
X153226857Y-93719096D01*
X153226855Y-93719097D01*
X153146742Y-93743398D01*
X153066627Y-93767701D01*
X152941752Y-93780000D01*
X152058248Y-93780000D01*
X151933373Y-93767701D01*
X151853258Y-93743398D01*
X151773145Y-93719097D01*
X151773143Y-93719096D01*
X151625482Y-93640169D01*
X151496051Y-93533949D01*
X151389831Y-93404518D01*
X151310904Y-93256857D01*
X151262299Y-93096627D01*
X151245888Y-92930000D01*
X151262299Y-92763373D01*
X151310904Y-92603143D01*
X151389831Y-92455482D01*
X151496051Y-92326051D01*
X151625482Y-92219831D01*
X151773143Y-92140904D01*
X151773145Y-92140903D01*
X151880318Y-92108393D01*
X151933373Y-92092299D01*
X152058248Y-92080000D01*
X152941752Y-92080000D01*
X153066627Y-92092299D01*
X153066627Y-92092299D01*
G37*
G36*
X109066627Y-91662299D02*
G01*
X109146742Y-91686601D01*
X109226855Y-91710903D01*
X109226857Y-91710904D01*
X109374518Y-91789831D01*
X109503949Y-91896051D01*
X109610169Y-92025482D01*
X109671863Y-92140903D01*
X109689097Y-92173145D01*
X109691989Y-92182679D01*
X109737701Y-92333373D01*
X109754112Y-92500000D01*
X109737701Y-92666627D01*
X109689096Y-92826857D01*
X109610169Y-92974518D01*
X109503949Y-93103949D01*
X109374518Y-93210169D01*
X109226857Y-93289096D01*
X109226855Y-93289097D01*
X109152651Y-93311606D01*
X109066627Y-93337701D01*
X108941752Y-93350000D01*
X108058248Y-93350000D01*
X107933373Y-93337701D01*
X107847349Y-93311606D01*
X107773145Y-93289097D01*
X107773143Y-93289096D01*
X107625482Y-93210169D01*
X107496051Y-93103949D01*
X107389831Y-92974518D01*
X107310904Y-92826857D01*
X107262299Y-92666627D01*
X107245888Y-92500000D01*
X107262299Y-92333373D01*
X107308011Y-92182679D01*
X107310903Y-92173145D01*
X107328137Y-92140903D01*
X107389831Y-92025482D01*
X107496051Y-91896051D01*
X107625482Y-91789831D01*
X107773143Y-91710904D01*
X107773145Y-91710903D01*
X107853258Y-91686601D01*
X107933373Y-91662299D01*
X108058248Y-91650000D01*
X108941752Y-91650000D01*
X109066627Y-91662299D01*
X109066627Y-91662299D01*
G37*
G36*
X141256471Y-90643859D02*
G01*
X141334827Y-90651576D01*
X141485628Y-90697321D01*
X141485630Y-90697322D01*
X141624605Y-90771606D01*
X141746422Y-90871578D01*
X141846394Y-90993395D01*
X141920678Y-91132370D01*
X141920679Y-91132372D01*
X141966424Y-91283173D01*
X141981870Y-91440000D01*
X141966424Y-91596827D01*
X141931819Y-91710903D01*
X141920678Y-91747630D01*
X141846394Y-91886605D01*
X141746422Y-92008422D01*
X141624605Y-92108394D01*
X141503465Y-92173145D01*
X141485628Y-92182679D01*
X141334827Y-92228424D01*
X141256471Y-92236141D01*
X141217294Y-92240000D01*
X141138706Y-92240000D01*
X141099529Y-92236141D01*
X141021173Y-92228424D01*
X140870372Y-92182679D01*
X140852535Y-92173145D01*
X140731395Y-92108394D01*
X140609578Y-92008422D01*
X140509606Y-91886605D01*
X140435322Y-91747630D01*
X140424181Y-91710903D01*
X140389576Y-91596827D01*
X140374130Y-91440000D01*
X140389576Y-91283173D01*
X140435321Y-91132372D01*
X140435322Y-91132370D01*
X140509606Y-90993395D01*
X140609578Y-90871578D01*
X140731395Y-90771606D01*
X140870370Y-90697322D01*
X140870372Y-90697321D01*
X141021173Y-90651576D01*
X141099529Y-90643859D01*
X141138706Y-90640000D01*
X141217294Y-90640000D01*
X141256471Y-90643859D01*
X141256471Y-90643859D01*
G37*
G36*
X133636471Y-90643859D02*
G01*
X133714827Y-90651576D01*
X133865628Y-90697321D01*
X133865630Y-90697322D01*
X134004605Y-90771606D01*
X134126422Y-90871578D01*
X134226394Y-90993395D01*
X134300678Y-91132370D01*
X134300679Y-91132372D01*
X134346424Y-91283173D01*
X134361870Y-91440000D01*
X134346424Y-91596827D01*
X134311819Y-91710903D01*
X134300678Y-91747630D01*
X134226394Y-91886605D01*
X134126422Y-92008422D01*
X134004605Y-92108394D01*
X133883465Y-92173145D01*
X133865628Y-92182679D01*
X133714827Y-92228424D01*
X133636471Y-92236141D01*
X133597294Y-92240000D01*
X133518706Y-92240000D01*
X133479529Y-92236141D01*
X133401173Y-92228424D01*
X133250372Y-92182679D01*
X133232535Y-92173145D01*
X133111395Y-92108394D01*
X132989578Y-92008422D01*
X132889606Y-91886605D01*
X132815322Y-91747630D01*
X132804181Y-91710903D01*
X132769576Y-91596827D01*
X132754130Y-91440000D01*
X132769576Y-91283173D01*
X132815321Y-91132372D01*
X132815322Y-91132370D01*
X132889606Y-90993395D01*
X132989578Y-90871578D01*
X133111395Y-90771606D01*
X133250370Y-90697322D01*
X133250372Y-90697321D01*
X133401173Y-90651576D01*
X133479529Y-90643859D01*
X133518706Y-90640000D01*
X133597294Y-90640000D01*
X133636471Y-90643859D01*
X133636471Y-90643859D01*
G37*
G36*
X158066627Y-89592299D02*
G01*
X158146742Y-89616601D01*
X158226855Y-89640903D01*
X158226857Y-89640904D01*
X158374518Y-89719831D01*
X158503949Y-89826051D01*
X158610169Y-89955482D01*
X158689096Y-90103143D01*
X158737701Y-90263373D01*
X158754112Y-90430000D01*
X158737701Y-90596627D01*
X158689096Y-90756857D01*
X158610169Y-90904518D01*
X158503949Y-91033949D01*
X158374518Y-91140169D01*
X158226857Y-91219096D01*
X158226855Y-91219097D01*
X158146742Y-91243399D01*
X158066627Y-91267701D01*
X157941752Y-91280000D01*
X157058248Y-91280000D01*
X156933373Y-91267701D01*
X156853258Y-91243399D01*
X156773145Y-91219097D01*
X156773143Y-91219096D01*
X156625482Y-91140169D01*
X156496051Y-91033949D01*
X156389831Y-90904518D01*
X156310904Y-90756857D01*
X156262299Y-90596627D01*
X156245888Y-90430000D01*
X156262299Y-90263373D01*
X156310904Y-90103143D01*
X156389831Y-89955482D01*
X156496051Y-89826051D01*
X156625482Y-89719831D01*
X156773143Y-89640904D01*
X156773145Y-89640903D01*
X156853258Y-89616601D01*
X156933373Y-89592299D01*
X157058248Y-89580000D01*
X157941752Y-89580000D01*
X158066627Y-89592299D01*
X158066627Y-89592299D01*
G37*
G36*
X114458103Y-88157558D02*
G01*
X114525990Y-88178152D01*
X114588559Y-88211596D01*
X114643399Y-88256601D01*
X114688404Y-88311441D01*
X114721848Y-88374010D01*
X114742442Y-88441897D01*
X114750000Y-88518640D01*
X114750000Y-89481360D01*
X114742442Y-89558103D01*
X114721848Y-89625990D01*
X114688404Y-89688559D01*
X114643399Y-89743399D01*
X114588559Y-89788404D01*
X114525990Y-89821848D01*
X114458103Y-89842442D01*
X114381360Y-89850000D01*
X112618640Y-89850000D01*
X112541897Y-89842442D01*
X112474010Y-89821848D01*
X112411441Y-89788404D01*
X112356601Y-89743399D01*
X112311596Y-89688559D01*
X112278152Y-89625990D01*
X112257558Y-89558103D01*
X112250000Y-89481360D01*
X112250000Y-88518640D01*
X112257558Y-88441897D01*
X112278152Y-88374010D01*
X112311596Y-88311441D01*
X112356601Y-88256601D01*
X112411441Y-88211596D01*
X112474010Y-88178152D01*
X112541897Y-88157558D01*
X112618640Y-88150000D01*
X114381360Y-88150000D01*
X114458103Y-88157558D01*
X114458103Y-88157558D01*
G37*
G36*
X153066627Y-87092299D02*
G01*
X153146742Y-87116602D01*
X153226855Y-87140903D01*
X153226857Y-87140904D01*
X153374518Y-87219831D01*
X153503949Y-87326051D01*
X153610169Y-87455482D01*
X153689096Y-87603143D01*
X153737701Y-87763373D01*
X153754112Y-87930000D01*
X153737701Y-88096627D01*
X153719218Y-88157558D01*
X153699784Y-88221625D01*
X153689096Y-88256857D01*
X153610169Y-88404518D01*
X153503949Y-88533949D01*
X153374518Y-88640169D01*
X153226857Y-88719096D01*
X153226855Y-88719097D01*
X153146742Y-88743398D01*
X153066627Y-88767701D01*
X152941752Y-88780000D01*
X152058248Y-88780000D01*
X151933373Y-88767701D01*
X151853258Y-88743398D01*
X151773145Y-88719097D01*
X151773143Y-88719096D01*
X151625482Y-88640169D01*
X151496051Y-88533949D01*
X151389831Y-88404518D01*
X151310904Y-88256857D01*
X151300217Y-88221625D01*
X151280782Y-88157558D01*
X151262299Y-88096627D01*
X151245888Y-87930000D01*
X151262299Y-87763373D01*
X151310904Y-87603143D01*
X151389831Y-87455482D01*
X151496051Y-87326051D01*
X151625482Y-87219831D01*
X151773143Y-87140904D01*
X151773145Y-87140903D01*
X151853258Y-87116602D01*
X151933373Y-87092299D01*
X152058248Y-87080000D01*
X152941752Y-87080000D01*
X153066627Y-87092299D01*
X153066627Y-87092299D01*
G37*
G36*
X133636471Y-86071859D02*
G01*
X133714827Y-86079576D01*
X133865628Y-86125321D01*
X133865630Y-86125322D01*
X134004605Y-86199606D01*
X134102566Y-86280000D01*
X134126422Y-86299578D01*
X134226393Y-86421394D01*
X134300679Y-86560372D01*
X134346424Y-86711173D01*
X134361870Y-86868000D01*
X134346424Y-87024827D01*
X134311212Y-87140904D01*
X134300678Y-87175630D01*
X134226394Y-87314605D01*
X134126422Y-87436422D01*
X134004605Y-87536394D01*
X133879727Y-87603143D01*
X133865628Y-87610679D01*
X133714827Y-87656424D01*
X133636471Y-87664141D01*
X133597294Y-87668000D01*
X133518706Y-87668000D01*
X133479529Y-87664141D01*
X133401173Y-87656424D01*
X133250372Y-87610679D01*
X133236273Y-87603143D01*
X133111395Y-87536394D01*
X132989578Y-87436422D01*
X132889606Y-87314605D01*
X132815322Y-87175630D01*
X132804788Y-87140904D01*
X132769576Y-87024827D01*
X132754130Y-86868000D01*
X132769576Y-86711173D01*
X132815321Y-86560372D01*
X132889607Y-86421394D01*
X132989578Y-86299578D01*
X133013434Y-86280000D01*
X133111395Y-86199606D01*
X133250370Y-86125322D01*
X133250372Y-86125321D01*
X133401173Y-86079576D01*
X133479529Y-86071859D01*
X133518706Y-86068000D01*
X133597294Y-86068000D01*
X133636471Y-86071859D01*
X133636471Y-86071859D01*
G37*
G36*
X141978000Y-87668000D02*
G01*
X140378000Y-87668000D01*
X140378000Y-86068000D01*
X141978000Y-86068000D01*
X141978000Y-87668000D01*
X141978000Y-87668000D01*
G37*
G36*
X158066627Y-84592299D02*
G01*
X158146742Y-84616601D01*
X158226855Y-84640903D01*
X158226857Y-84640904D01*
X158374518Y-84719831D01*
X158503949Y-84826051D01*
X158610169Y-84955482D01*
X158689096Y-85103143D01*
X158689097Y-85103145D01*
X158713399Y-85183258D01*
X158737701Y-85263373D01*
X158754112Y-85430000D01*
X158737701Y-85596627D01*
X158689096Y-85756857D01*
X158610169Y-85904518D01*
X158503949Y-86033949D01*
X158374518Y-86140169D01*
X158263320Y-86199606D01*
X158226855Y-86219097D01*
X158146742Y-86243399D01*
X158066627Y-86267701D01*
X157941752Y-86280000D01*
X157058248Y-86280000D01*
X156933373Y-86267701D01*
X156853258Y-86243399D01*
X156773145Y-86219097D01*
X156736680Y-86199606D01*
X156625482Y-86140169D01*
X156496051Y-86033949D01*
X156389831Y-85904518D01*
X156310904Y-85756857D01*
X156262299Y-85596627D01*
X156245888Y-85430000D01*
X156262299Y-85263373D01*
X156286602Y-85183258D01*
X156310903Y-85103145D01*
X156310904Y-85103143D01*
X156389831Y-84955482D01*
X156496051Y-84826051D01*
X156625482Y-84719831D01*
X156773143Y-84640904D01*
X156773145Y-84640903D01*
X156853258Y-84616601D01*
X156933373Y-84592299D01*
X157058248Y-84580000D01*
X157941752Y-84580000D01*
X158066627Y-84592299D01*
X158066627Y-84592299D01*
G37*
G36*
X123849500Y-85940000D02*
G01*
X122149500Y-85940000D01*
X122149500Y-84240000D01*
X123849500Y-84240000D01*
X123849500Y-85940000D01*
X123849500Y-85940000D01*
G37*
G36*
X133636471Y-83531859D02*
G01*
X133714827Y-83539576D01*
X133865628Y-83585321D01*
X133865630Y-83585322D01*
X134004605Y-83659606D01*
X134004607Y-83659607D01*
X134004606Y-83659607D01*
X134126422Y-83759578D01*
X134226393Y-83881394D01*
X134300679Y-84020372D01*
X134346424Y-84171173D01*
X134361870Y-84328000D01*
X134346424Y-84484827D01*
X134313822Y-84592300D01*
X134300678Y-84635630D01*
X134226394Y-84774605D01*
X134126422Y-84896422D01*
X134004605Y-84996394D01*
X133865630Y-85070678D01*
X133865628Y-85070679D01*
X133714827Y-85116424D01*
X133636471Y-85124141D01*
X133597294Y-85128000D01*
X133518706Y-85128000D01*
X133479529Y-85124141D01*
X133401173Y-85116424D01*
X133250372Y-85070679D01*
X133250370Y-85070678D01*
X133111395Y-84996394D01*
X132989578Y-84896422D01*
X132889606Y-84774605D01*
X132815322Y-84635630D01*
X132802178Y-84592300D01*
X132769576Y-84484827D01*
X132754130Y-84328000D01*
X132769576Y-84171173D01*
X132815321Y-84020372D01*
X132889607Y-83881394D01*
X132989578Y-83759578D01*
X133111394Y-83659607D01*
X133111393Y-83659607D01*
X133111395Y-83659606D01*
X133250370Y-83585322D01*
X133250372Y-83585321D01*
X133401173Y-83539576D01*
X133479529Y-83531859D01*
X133518706Y-83528000D01*
X133597294Y-83528000D01*
X133636471Y-83531859D01*
X133636471Y-83531859D01*
G37*
G36*
X141256471Y-83531859D02*
G01*
X141334827Y-83539576D01*
X141485628Y-83585321D01*
X141485630Y-83585322D01*
X141624605Y-83659606D01*
X141624607Y-83659607D01*
X141624606Y-83659607D01*
X141746422Y-83759578D01*
X141846393Y-83881394D01*
X141920679Y-84020372D01*
X141966424Y-84171173D01*
X141981870Y-84328000D01*
X141966424Y-84484827D01*
X141933822Y-84592300D01*
X141920678Y-84635630D01*
X141846394Y-84774605D01*
X141746422Y-84896422D01*
X141624605Y-84996394D01*
X141485630Y-85070678D01*
X141485628Y-85070679D01*
X141334827Y-85116424D01*
X141256471Y-85124141D01*
X141217294Y-85128000D01*
X141138706Y-85128000D01*
X141099529Y-85124141D01*
X141021173Y-85116424D01*
X140870372Y-85070679D01*
X140870370Y-85070678D01*
X140731395Y-84996394D01*
X140609578Y-84896422D01*
X140509606Y-84774605D01*
X140435322Y-84635630D01*
X140422178Y-84592300D01*
X140389576Y-84484827D01*
X140374130Y-84328000D01*
X140389576Y-84171173D01*
X140435321Y-84020372D01*
X140509607Y-83881394D01*
X140609578Y-83759578D01*
X140731394Y-83659607D01*
X140731393Y-83659607D01*
X140731395Y-83659606D01*
X140870370Y-83585322D01*
X140870372Y-83585321D01*
X141021173Y-83539576D01*
X141099529Y-83531859D01*
X141138706Y-83528000D01*
X141217294Y-83528000D01*
X141256471Y-83531859D01*
X141256471Y-83531859D01*
G37*
G36*
X123166127Y-81712299D02*
G01*
X123246242Y-81736602D01*
X123326355Y-81760903D01*
X123326357Y-81760904D01*
X123474018Y-81839831D01*
X123603449Y-81946051D01*
X123709669Y-82075482D01*
X123788596Y-82223143D01*
X123837201Y-82383373D01*
X123853612Y-82550000D01*
X123837201Y-82716627D01*
X123788596Y-82876857D01*
X123709669Y-83024518D01*
X123603449Y-83153949D01*
X123474018Y-83260169D01*
X123326357Y-83339096D01*
X123326355Y-83339097D01*
X123246242Y-83363398D01*
X123166127Y-83387701D01*
X123041252Y-83400000D01*
X122957748Y-83400000D01*
X122832873Y-83387701D01*
X122752758Y-83363398D01*
X122672645Y-83339097D01*
X122672643Y-83339096D01*
X122524982Y-83260169D01*
X122395551Y-83153949D01*
X122289331Y-83024518D01*
X122210404Y-82876857D01*
X122161799Y-82716627D01*
X122145388Y-82550000D01*
X122161799Y-82383373D01*
X122210404Y-82223143D01*
X122289331Y-82075482D01*
X122395551Y-81946051D01*
X122524982Y-81839831D01*
X122672643Y-81760904D01*
X122672645Y-81760903D01*
X122752758Y-81736602D01*
X122832873Y-81712299D01*
X122957748Y-81700000D01*
X123041252Y-81700000D01*
X123166127Y-81712299D01*
X123166127Y-81712299D01*
G37*
G36*
X101615380Y-73044766D02*
G01*
X101914837Y-73104331D01*
X102479001Y-73338015D01*
X102986735Y-73677272D01*
X103418528Y-74109065D01*
X103757785Y-74616799D01*
X103991469Y-75180963D01*
X103991469Y-75180965D01*
X104110600Y-75779875D01*
X104110600Y-76390525D01*
X104078186Y-76553479D01*
X103991469Y-76989437D01*
X103757785Y-77553601D01*
X103418528Y-78061335D01*
X102986735Y-78493128D01*
X102479001Y-78832385D01*
X101914837Y-79066069D01*
X101615380Y-79125635D01*
X101315925Y-79185200D01*
X100705275Y-79185200D01*
X100405820Y-79125635D01*
X100106363Y-79066069D01*
X99542199Y-78832385D01*
X99034465Y-78493128D01*
X98602672Y-78061335D01*
X98263415Y-77553601D01*
X98029731Y-76989437D01*
X97943014Y-76553479D01*
X97910600Y-76390525D01*
X97910600Y-75779875D01*
X98029731Y-75180965D01*
X98029731Y-75180963D01*
X98263415Y-74616799D01*
X98602672Y-74109065D01*
X99034465Y-73677272D01*
X99542199Y-73338015D01*
X100106363Y-73104331D01*
X100405820Y-73044766D01*
X100705275Y-72985200D01*
X101315925Y-72985200D01*
X101615380Y-73044766D01*
X101615380Y-73044766D01*
G37*
G36*
X159615380Y-73044766D02*
G01*
X159914837Y-73104331D01*
X160479001Y-73338015D01*
X160986735Y-73677272D01*
X161418528Y-74109065D01*
X161757785Y-74616799D01*
X161991469Y-75180963D01*
X161991469Y-75180965D01*
X162110600Y-75779875D01*
X162110600Y-76390525D01*
X162078186Y-76553479D01*
X161991469Y-76989437D01*
X161757785Y-77553601D01*
X161418528Y-78061335D01*
X160986735Y-78493128D01*
X160479001Y-78832385D01*
X159914837Y-79066069D01*
X159615380Y-79125634D01*
X159315925Y-79185200D01*
X158705275Y-79185200D01*
X158405820Y-79125635D01*
X158106363Y-79066069D01*
X157542199Y-78832385D01*
X157034465Y-78493128D01*
X156602672Y-78061335D01*
X156263415Y-77553601D01*
X156029731Y-76989437D01*
X155943014Y-76553479D01*
X155910600Y-76390525D01*
X155910600Y-75779875D01*
X156029731Y-75180965D01*
X156029731Y-75180963D01*
X156263415Y-74616799D01*
X156602672Y-74109065D01*
X157034465Y-73677272D01*
X157542199Y-73338015D01*
X158106363Y-73104331D01*
X158405820Y-73044766D01*
X158705275Y-72985200D01*
X159315925Y-72985200D01*
X159615380Y-73044766D01*
X159615380Y-73044766D01*
G37*
G36*
X146605312Y-76495765D02*
G01*
X146689895Y-76504096D01*
X146852684Y-76553478D01*
X146852687Y-76553479D01*
X147002707Y-76633666D01*
X147002708Y-76633667D01*
X147002712Y-76633669D01*
X147134212Y-76741588D01*
X147242131Y-76873088D01*
X147242133Y-76873092D01*
X147242134Y-76873093D01*
X147322321Y-77023113D01*
X147322322Y-77023116D01*
X147371704Y-77185905D01*
X147388378Y-77355200D01*
X147371704Y-77524495D01*
X147329920Y-77662238D01*
X147322321Y-77687287D01*
X147242134Y-77837307D01*
X147242131Y-77837312D01*
X147134212Y-77968812D01*
X147002712Y-78076731D01*
X147002708Y-78076733D01*
X147002707Y-78076734D01*
X146852687Y-78156921D01*
X146852684Y-78156922D01*
X146689895Y-78206304D01*
X146605312Y-78214635D01*
X146563021Y-78218800D01*
X146478179Y-78218800D01*
X146435888Y-78214635D01*
X146351305Y-78206304D01*
X146188516Y-78156922D01*
X146188513Y-78156921D01*
X146038493Y-78076734D01*
X146038492Y-78076733D01*
X146038488Y-78076731D01*
X145906988Y-77968812D01*
X145799069Y-77837312D01*
X145799066Y-77837307D01*
X145718879Y-77687287D01*
X145711280Y-77662238D01*
X145669496Y-77524495D01*
X145652822Y-77355200D01*
X145669496Y-77185905D01*
X145718878Y-77023116D01*
X145718879Y-77023113D01*
X145799066Y-76873093D01*
X145799067Y-76873092D01*
X145799069Y-76873088D01*
X145906988Y-76741588D01*
X146038488Y-76633669D01*
X146038492Y-76633667D01*
X146038493Y-76633666D01*
X146188513Y-76553479D01*
X146188516Y-76553478D01*
X146351305Y-76504096D01*
X146435888Y-76495765D01*
X146478179Y-76491600D01*
X146563021Y-76491600D01*
X146605312Y-76495765D01*
X146605312Y-76495765D01*
G37*
G36*
X116125312Y-76495765D02*
G01*
X116209895Y-76504096D01*
X116372684Y-76553478D01*
X116372687Y-76553479D01*
X116522707Y-76633666D01*
X116522708Y-76633667D01*
X116522712Y-76633669D01*
X116654212Y-76741588D01*
X116762131Y-76873088D01*
X116762133Y-76873092D01*
X116762134Y-76873093D01*
X116842321Y-77023113D01*
X116842322Y-77023116D01*
X116891704Y-77185905D01*
X116908378Y-77355200D01*
X116891704Y-77524495D01*
X116849920Y-77662238D01*
X116842321Y-77687287D01*
X116762134Y-77837307D01*
X116762131Y-77837312D01*
X116654212Y-77968812D01*
X116522712Y-78076731D01*
X116522708Y-78076733D01*
X116522707Y-78076734D01*
X116372687Y-78156921D01*
X116372684Y-78156922D01*
X116209895Y-78206304D01*
X116125312Y-78214635D01*
X116083021Y-78218800D01*
X115998179Y-78218800D01*
X115955888Y-78214635D01*
X115871305Y-78206304D01*
X115708516Y-78156922D01*
X115708513Y-78156921D01*
X115558493Y-78076734D01*
X115558492Y-78076733D01*
X115558488Y-78076731D01*
X115426988Y-77968812D01*
X115319069Y-77837312D01*
X115319066Y-77837307D01*
X115238879Y-77687287D01*
X115231280Y-77662238D01*
X115189496Y-77524495D01*
X115172822Y-77355200D01*
X115189496Y-77185905D01*
X115238878Y-77023116D01*
X115238879Y-77023113D01*
X115319066Y-76873093D01*
X115319067Y-76873092D01*
X115319069Y-76873088D01*
X115426988Y-76741588D01*
X115558488Y-76633669D01*
X115558492Y-76633667D01*
X115558493Y-76633666D01*
X115708513Y-76553479D01*
X115708516Y-76553478D01*
X115871305Y-76504096D01*
X115955888Y-76495765D01*
X115998179Y-76491600D01*
X116083021Y-76491600D01*
X116125312Y-76495765D01*
X116125312Y-76495765D01*
G37*
G36*
X128825312Y-76495765D02*
G01*
X128909895Y-76504096D01*
X129072684Y-76553478D01*
X129072687Y-76553479D01*
X129222707Y-76633666D01*
X129222708Y-76633667D01*
X129222712Y-76633669D01*
X129354212Y-76741588D01*
X129462131Y-76873088D01*
X129462133Y-76873092D01*
X129462134Y-76873093D01*
X129542321Y-77023113D01*
X129542322Y-77023116D01*
X129591704Y-77185905D01*
X129608378Y-77355200D01*
X129591704Y-77524495D01*
X129549920Y-77662238D01*
X129542321Y-77687287D01*
X129462134Y-77837307D01*
X129462131Y-77837312D01*
X129354212Y-77968812D01*
X129222712Y-78076731D01*
X129222708Y-78076733D01*
X129222707Y-78076734D01*
X129072687Y-78156921D01*
X129072684Y-78156922D01*
X128909895Y-78206304D01*
X128825312Y-78214635D01*
X128783021Y-78218800D01*
X128698179Y-78218800D01*
X128655888Y-78214635D01*
X128571305Y-78206304D01*
X128408516Y-78156922D01*
X128408513Y-78156921D01*
X128258493Y-78076734D01*
X128258492Y-78076733D01*
X128258488Y-78076731D01*
X128126988Y-77968812D01*
X128019069Y-77837312D01*
X128019066Y-77837307D01*
X127938879Y-77687287D01*
X127931280Y-77662238D01*
X127889496Y-77524495D01*
X127872822Y-77355200D01*
X127889496Y-77185905D01*
X127938878Y-77023116D01*
X127938879Y-77023113D01*
X128019066Y-76873093D01*
X128019067Y-76873092D01*
X128019069Y-76873088D01*
X128126988Y-76741588D01*
X128258488Y-76633669D01*
X128258492Y-76633667D01*
X128258493Y-76633666D01*
X128408513Y-76553479D01*
X128408516Y-76553478D01*
X128571305Y-76504096D01*
X128655888Y-76495765D01*
X128698179Y-76491600D01*
X128783021Y-76491600D01*
X128825312Y-76495765D01*
X128825312Y-76495765D01*
G37*
G36*
X149145312Y-76495765D02*
G01*
X149229895Y-76504096D01*
X149392684Y-76553478D01*
X149392687Y-76553479D01*
X149542707Y-76633666D01*
X149542708Y-76633667D01*
X149542712Y-76633669D01*
X149674212Y-76741588D01*
X149782131Y-76873088D01*
X149782133Y-76873092D01*
X149782134Y-76873093D01*
X149862321Y-77023113D01*
X149862322Y-77023116D01*
X149911704Y-77185905D01*
X149928378Y-77355200D01*
X149911704Y-77524495D01*
X149869920Y-77662238D01*
X149862321Y-77687287D01*
X149782134Y-77837307D01*
X149782131Y-77837312D01*
X149674212Y-77968812D01*
X149542712Y-78076731D01*
X149542708Y-78076733D01*
X149542707Y-78076734D01*
X149392687Y-78156921D01*
X149392684Y-78156922D01*
X149229895Y-78206304D01*
X149145312Y-78214635D01*
X149103021Y-78218800D01*
X149018179Y-78218800D01*
X148975888Y-78214635D01*
X148891305Y-78206304D01*
X148728516Y-78156922D01*
X148728513Y-78156921D01*
X148578493Y-78076734D01*
X148578492Y-78076733D01*
X148578488Y-78076731D01*
X148446988Y-77968812D01*
X148339069Y-77837312D01*
X148339066Y-77837307D01*
X148258879Y-77687287D01*
X148251280Y-77662238D01*
X148209496Y-77524495D01*
X148192822Y-77355200D01*
X148209496Y-77185905D01*
X148258878Y-77023116D01*
X148258879Y-77023113D01*
X148339066Y-76873093D01*
X148339067Y-76873092D01*
X148339069Y-76873088D01*
X148446988Y-76741588D01*
X148578488Y-76633669D01*
X148578492Y-76633667D01*
X148578493Y-76633666D01*
X148728513Y-76553479D01*
X148728516Y-76553478D01*
X148891305Y-76504096D01*
X148975888Y-76495765D01*
X149018179Y-76491600D01*
X149103021Y-76491600D01*
X149145312Y-76495765D01*
X149145312Y-76495765D01*
G37*
G36*
X121205312Y-76495765D02*
G01*
X121289895Y-76504096D01*
X121452684Y-76553478D01*
X121452687Y-76553479D01*
X121602707Y-76633666D01*
X121602708Y-76633667D01*
X121602712Y-76633669D01*
X121734212Y-76741588D01*
X121842131Y-76873088D01*
X121842133Y-76873092D01*
X121842134Y-76873093D01*
X121922321Y-77023113D01*
X121922322Y-77023116D01*
X121971704Y-77185905D01*
X121988378Y-77355200D01*
X121971704Y-77524495D01*
X121929920Y-77662238D01*
X121922321Y-77687287D01*
X121842134Y-77837307D01*
X121842131Y-77837312D01*
X121734212Y-77968812D01*
X121602712Y-78076731D01*
X121602708Y-78076733D01*
X121602707Y-78076734D01*
X121452687Y-78156921D01*
X121452684Y-78156922D01*
X121289895Y-78206304D01*
X121205312Y-78214635D01*
X121163021Y-78218800D01*
X121078179Y-78218800D01*
X121035888Y-78214635D01*
X120951305Y-78206304D01*
X120788516Y-78156922D01*
X120788513Y-78156921D01*
X120638493Y-78076734D01*
X120638492Y-78076733D01*
X120638488Y-78076731D01*
X120506988Y-77968812D01*
X120399069Y-77837312D01*
X120399066Y-77837307D01*
X120318879Y-77687287D01*
X120311280Y-77662238D01*
X120269496Y-77524495D01*
X120252822Y-77355200D01*
X120269496Y-77185905D01*
X120318878Y-77023116D01*
X120318879Y-77023113D01*
X120399066Y-76873093D01*
X120399067Y-76873092D01*
X120399069Y-76873088D01*
X120506988Y-76741588D01*
X120638488Y-76633669D01*
X120638492Y-76633667D01*
X120638493Y-76633666D01*
X120788513Y-76553479D01*
X120788516Y-76553478D01*
X120951305Y-76504096D01*
X121035888Y-76495765D01*
X121078179Y-76491600D01*
X121163021Y-76491600D01*
X121205312Y-76495765D01*
X121205312Y-76495765D01*
G37*
G36*
X118665312Y-76495765D02*
G01*
X118749895Y-76504096D01*
X118912684Y-76553478D01*
X118912687Y-76553479D01*
X119062707Y-76633666D01*
X119062708Y-76633667D01*
X119062712Y-76633669D01*
X119194212Y-76741588D01*
X119302131Y-76873088D01*
X119302133Y-76873092D01*
X119302134Y-76873093D01*
X119382321Y-77023113D01*
X119382322Y-77023116D01*
X119431704Y-77185905D01*
X119448378Y-77355200D01*
X119431704Y-77524495D01*
X119389920Y-77662238D01*
X119382321Y-77687287D01*
X119302134Y-77837307D01*
X119302131Y-77837312D01*
X119194212Y-77968812D01*
X119062712Y-78076731D01*
X119062708Y-78076733D01*
X119062707Y-78076734D01*
X118912687Y-78156921D01*
X118912684Y-78156922D01*
X118749895Y-78206304D01*
X118665312Y-78214635D01*
X118623021Y-78218800D01*
X118538179Y-78218800D01*
X118495888Y-78214635D01*
X118411305Y-78206304D01*
X118248516Y-78156922D01*
X118248513Y-78156921D01*
X118098493Y-78076734D01*
X118098492Y-78076733D01*
X118098488Y-78076731D01*
X117966988Y-77968812D01*
X117859069Y-77837312D01*
X117859066Y-77837307D01*
X117778879Y-77687287D01*
X117771280Y-77662238D01*
X117729496Y-77524495D01*
X117712822Y-77355200D01*
X117729496Y-77185905D01*
X117778878Y-77023116D01*
X117778879Y-77023113D01*
X117859066Y-76873093D01*
X117859067Y-76873092D01*
X117859069Y-76873088D01*
X117966988Y-76741588D01*
X118098488Y-76633669D01*
X118098492Y-76633667D01*
X118098493Y-76633666D01*
X118248513Y-76553479D01*
X118248516Y-76553478D01*
X118411305Y-76504096D01*
X118495888Y-76495765D01*
X118538179Y-76491600D01*
X118623021Y-76491600D01*
X118665312Y-76495765D01*
X118665312Y-76495765D01*
G37*
G36*
X113585312Y-76495765D02*
G01*
X113669895Y-76504096D01*
X113832684Y-76553478D01*
X113832687Y-76553479D01*
X113982707Y-76633666D01*
X113982708Y-76633667D01*
X113982712Y-76633669D01*
X114114212Y-76741588D01*
X114222131Y-76873088D01*
X114222133Y-76873092D01*
X114222134Y-76873093D01*
X114302321Y-77023113D01*
X114302322Y-77023116D01*
X114351704Y-77185905D01*
X114368378Y-77355200D01*
X114351704Y-77524495D01*
X114309920Y-77662238D01*
X114302321Y-77687287D01*
X114222134Y-77837307D01*
X114222131Y-77837312D01*
X114114212Y-77968812D01*
X113982712Y-78076731D01*
X113982708Y-78076733D01*
X113982707Y-78076734D01*
X113832687Y-78156921D01*
X113832684Y-78156922D01*
X113669895Y-78206304D01*
X113585312Y-78214635D01*
X113543021Y-78218800D01*
X113458179Y-78218800D01*
X113415888Y-78214635D01*
X113331305Y-78206304D01*
X113168516Y-78156922D01*
X113168513Y-78156921D01*
X113018493Y-78076734D01*
X113018492Y-78076733D01*
X113018488Y-78076731D01*
X112886988Y-77968812D01*
X112779069Y-77837312D01*
X112779066Y-77837307D01*
X112698879Y-77687287D01*
X112691280Y-77662238D01*
X112649496Y-77524495D01*
X112632822Y-77355200D01*
X112649496Y-77185905D01*
X112698878Y-77023116D01*
X112698879Y-77023113D01*
X112779066Y-76873093D01*
X112779067Y-76873092D01*
X112779069Y-76873088D01*
X112886988Y-76741588D01*
X113018488Y-76633669D01*
X113018492Y-76633667D01*
X113018493Y-76633666D01*
X113168513Y-76553479D01*
X113168516Y-76553478D01*
X113331305Y-76504096D01*
X113415888Y-76495765D01*
X113458179Y-76491600D01*
X113543021Y-76491600D01*
X113585312Y-76495765D01*
X113585312Y-76495765D01*
G37*
G36*
X123745312Y-76495765D02*
G01*
X123829895Y-76504096D01*
X123992684Y-76553478D01*
X123992687Y-76553479D01*
X124142707Y-76633666D01*
X124142708Y-76633667D01*
X124142712Y-76633669D01*
X124274212Y-76741588D01*
X124382131Y-76873088D01*
X124382133Y-76873092D01*
X124382134Y-76873093D01*
X124462321Y-77023113D01*
X124462322Y-77023116D01*
X124511704Y-77185905D01*
X124528378Y-77355200D01*
X124511704Y-77524495D01*
X124469920Y-77662238D01*
X124462321Y-77687287D01*
X124382134Y-77837307D01*
X124382131Y-77837312D01*
X124274212Y-77968812D01*
X124142712Y-78076731D01*
X124142708Y-78076733D01*
X124142707Y-78076734D01*
X123992687Y-78156921D01*
X123992684Y-78156922D01*
X123829895Y-78206304D01*
X123745312Y-78214635D01*
X123703021Y-78218800D01*
X123618179Y-78218800D01*
X123575888Y-78214635D01*
X123491305Y-78206304D01*
X123328516Y-78156922D01*
X123328513Y-78156921D01*
X123178493Y-78076734D01*
X123178492Y-78076733D01*
X123178488Y-78076731D01*
X123046988Y-77968812D01*
X122939069Y-77837312D01*
X122939066Y-77837307D01*
X122858879Y-77687287D01*
X122851280Y-77662238D01*
X122809496Y-77524495D01*
X122792822Y-77355200D01*
X122809496Y-77185905D01*
X122858878Y-77023116D01*
X122858879Y-77023113D01*
X122939066Y-76873093D01*
X122939067Y-76873092D01*
X122939069Y-76873088D01*
X123046988Y-76741588D01*
X123178488Y-76633669D01*
X123178492Y-76633667D01*
X123178493Y-76633666D01*
X123328513Y-76553479D01*
X123328516Y-76553478D01*
X123491305Y-76504096D01*
X123575888Y-76495765D01*
X123618179Y-76491600D01*
X123703021Y-76491600D01*
X123745312Y-76495765D01*
X123745312Y-76495765D01*
G37*
G36*
X126285312Y-76495765D02*
G01*
X126369895Y-76504096D01*
X126532684Y-76553478D01*
X126532687Y-76553479D01*
X126682707Y-76633666D01*
X126682708Y-76633667D01*
X126682712Y-76633669D01*
X126814212Y-76741588D01*
X126922131Y-76873088D01*
X126922133Y-76873092D01*
X126922134Y-76873093D01*
X127002321Y-77023113D01*
X127002322Y-77023116D01*
X127051704Y-77185905D01*
X127068378Y-77355200D01*
X127051704Y-77524495D01*
X127009920Y-77662238D01*
X127002321Y-77687287D01*
X126922134Y-77837307D01*
X126922131Y-77837312D01*
X126814212Y-77968812D01*
X126682712Y-78076731D01*
X126682708Y-78076733D01*
X126682707Y-78076734D01*
X126532687Y-78156921D01*
X126532684Y-78156922D01*
X126369895Y-78206304D01*
X126285312Y-78214635D01*
X126243021Y-78218800D01*
X126158179Y-78218800D01*
X126115888Y-78214635D01*
X126031305Y-78206304D01*
X125868516Y-78156922D01*
X125868513Y-78156921D01*
X125718493Y-78076734D01*
X125718492Y-78076733D01*
X125718488Y-78076731D01*
X125586988Y-77968812D01*
X125479069Y-77837312D01*
X125479066Y-77837307D01*
X125398879Y-77687287D01*
X125391280Y-77662238D01*
X125349496Y-77524495D01*
X125332822Y-77355200D01*
X125349496Y-77185905D01*
X125398878Y-77023116D01*
X125398879Y-77023113D01*
X125479066Y-76873093D01*
X125479067Y-76873092D01*
X125479069Y-76873088D01*
X125586988Y-76741588D01*
X125718488Y-76633669D01*
X125718492Y-76633667D01*
X125718493Y-76633666D01*
X125868513Y-76553479D01*
X125868516Y-76553478D01*
X126031305Y-76504096D01*
X126115888Y-76495765D01*
X126158179Y-76491600D01*
X126243021Y-76491600D01*
X126285312Y-76495765D01*
X126285312Y-76495765D01*
G37*
G36*
X144065312Y-76495765D02*
G01*
X144149895Y-76504096D01*
X144312684Y-76553478D01*
X144312687Y-76553479D01*
X144462707Y-76633666D01*
X144462708Y-76633667D01*
X144462712Y-76633669D01*
X144594212Y-76741588D01*
X144702131Y-76873088D01*
X144702133Y-76873092D01*
X144702134Y-76873093D01*
X144782321Y-77023113D01*
X144782322Y-77023116D01*
X144831704Y-77185905D01*
X144848378Y-77355200D01*
X144831704Y-77524495D01*
X144789920Y-77662238D01*
X144782321Y-77687287D01*
X144702134Y-77837307D01*
X144702131Y-77837312D01*
X144594212Y-77968812D01*
X144462712Y-78076731D01*
X144462708Y-78076733D01*
X144462707Y-78076734D01*
X144312687Y-78156921D01*
X144312684Y-78156922D01*
X144149895Y-78206304D01*
X144065312Y-78214635D01*
X144023021Y-78218800D01*
X143938179Y-78218800D01*
X143895888Y-78214635D01*
X143811305Y-78206304D01*
X143648516Y-78156922D01*
X143648513Y-78156921D01*
X143498493Y-78076734D01*
X143498492Y-78076733D01*
X143498488Y-78076731D01*
X143366988Y-77968812D01*
X143259069Y-77837312D01*
X143259066Y-77837307D01*
X143178879Y-77687287D01*
X143171280Y-77662238D01*
X143129496Y-77524495D01*
X143112822Y-77355200D01*
X143129496Y-77185905D01*
X143178878Y-77023116D01*
X143178879Y-77023113D01*
X143259066Y-76873093D01*
X143259067Y-76873092D01*
X143259069Y-76873088D01*
X143366988Y-76741588D01*
X143498488Y-76633669D01*
X143498492Y-76633667D01*
X143498493Y-76633666D01*
X143648513Y-76553479D01*
X143648516Y-76553478D01*
X143811305Y-76504096D01*
X143895888Y-76495765D01*
X143938179Y-76491600D01*
X144023021Y-76491600D01*
X144065312Y-76495765D01*
X144065312Y-76495765D01*
G37*
G36*
X133905312Y-76495765D02*
G01*
X133989895Y-76504096D01*
X134152684Y-76553478D01*
X134152687Y-76553479D01*
X134302707Y-76633666D01*
X134302708Y-76633667D01*
X134302712Y-76633669D01*
X134434212Y-76741588D01*
X134542131Y-76873088D01*
X134542133Y-76873092D01*
X134542134Y-76873093D01*
X134622321Y-77023113D01*
X134622322Y-77023116D01*
X134671704Y-77185905D01*
X134688378Y-77355200D01*
X134671704Y-77524495D01*
X134629920Y-77662238D01*
X134622321Y-77687287D01*
X134542134Y-77837307D01*
X134542131Y-77837312D01*
X134434212Y-77968812D01*
X134302712Y-78076731D01*
X134302708Y-78076733D01*
X134302707Y-78076734D01*
X134152687Y-78156921D01*
X134152684Y-78156922D01*
X133989895Y-78206304D01*
X133905312Y-78214635D01*
X133863021Y-78218800D01*
X133778179Y-78218800D01*
X133735888Y-78214635D01*
X133651305Y-78206304D01*
X133488516Y-78156922D01*
X133488513Y-78156921D01*
X133338493Y-78076734D01*
X133338492Y-78076733D01*
X133338488Y-78076731D01*
X133206988Y-77968812D01*
X133099069Y-77837312D01*
X133099066Y-77837307D01*
X133018879Y-77687287D01*
X133011280Y-77662238D01*
X132969496Y-77524495D01*
X132952822Y-77355200D01*
X132969496Y-77185905D01*
X133018878Y-77023116D01*
X133018879Y-77023113D01*
X133099066Y-76873093D01*
X133099067Y-76873092D01*
X133099069Y-76873088D01*
X133206988Y-76741588D01*
X133338488Y-76633669D01*
X133338492Y-76633667D01*
X133338493Y-76633666D01*
X133488513Y-76553479D01*
X133488516Y-76553478D01*
X133651305Y-76504096D01*
X133735888Y-76495765D01*
X133778179Y-76491600D01*
X133863021Y-76491600D01*
X133905312Y-76495765D01*
X133905312Y-76495765D01*
G37*
G36*
X141525312Y-76495765D02*
G01*
X141609895Y-76504096D01*
X141772684Y-76553478D01*
X141772687Y-76553479D01*
X141922707Y-76633666D01*
X141922708Y-76633667D01*
X141922712Y-76633669D01*
X142054212Y-76741588D01*
X142162131Y-76873088D01*
X142162133Y-76873092D01*
X142162134Y-76873093D01*
X142242321Y-77023113D01*
X142242322Y-77023116D01*
X142291704Y-77185905D01*
X142308378Y-77355200D01*
X142291704Y-77524495D01*
X142249920Y-77662238D01*
X142242321Y-77687287D01*
X142162134Y-77837307D01*
X142162131Y-77837312D01*
X142054212Y-77968812D01*
X141922712Y-78076731D01*
X141922708Y-78076733D01*
X141922707Y-78076734D01*
X141772687Y-78156921D01*
X141772684Y-78156922D01*
X141609895Y-78206304D01*
X141525312Y-78214635D01*
X141483021Y-78218800D01*
X141398179Y-78218800D01*
X141355888Y-78214635D01*
X141271305Y-78206304D01*
X141108516Y-78156922D01*
X141108513Y-78156921D01*
X140958493Y-78076734D01*
X140958492Y-78076733D01*
X140958488Y-78076731D01*
X140826988Y-77968812D01*
X140719069Y-77837312D01*
X140719066Y-77837307D01*
X140638879Y-77687287D01*
X140631280Y-77662238D01*
X140589496Y-77524495D01*
X140572822Y-77355200D01*
X140589496Y-77185905D01*
X140638878Y-77023116D01*
X140638879Y-77023113D01*
X140719066Y-76873093D01*
X140719067Y-76873092D01*
X140719069Y-76873088D01*
X140826988Y-76741588D01*
X140958488Y-76633669D01*
X140958492Y-76633667D01*
X140958493Y-76633666D01*
X141108513Y-76553479D01*
X141108516Y-76553478D01*
X141271305Y-76504096D01*
X141355888Y-76495765D01*
X141398179Y-76491600D01*
X141483021Y-76491600D01*
X141525312Y-76495765D01*
X141525312Y-76495765D01*
G37*
G36*
X106744200Y-78218800D02*
G01*
X105017000Y-78218800D01*
X105017000Y-76491600D01*
X106744200Y-76491600D01*
X106744200Y-78218800D01*
X106744200Y-78218800D01*
G37*
G36*
X138985312Y-76495765D02*
G01*
X139069895Y-76504096D01*
X139232684Y-76553478D01*
X139232687Y-76553479D01*
X139382707Y-76633666D01*
X139382708Y-76633667D01*
X139382712Y-76633669D01*
X139514212Y-76741588D01*
X139622131Y-76873088D01*
X139622133Y-76873092D01*
X139622134Y-76873093D01*
X139702321Y-77023113D01*
X139702322Y-77023116D01*
X139751704Y-77185905D01*
X139768378Y-77355200D01*
X139751704Y-77524495D01*
X139709920Y-77662238D01*
X139702321Y-77687287D01*
X139622134Y-77837307D01*
X139622131Y-77837312D01*
X139514212Y-77968812D01*
X139382712Y-78076731D01*
X139382708Y-78076733D01*
X139382707Y-78076734D01*
X139232687Y-78156921D01*
X139232684Y-78156922D01*
X139069895Y-78206304D01*
X138985312Y-78214635D01*
X138943021Y-78218800D01*
X138858179Y-78218800D01*
X138815888Y-78214635D01*
X138731305Y-78206304D01*
X138568516Y-78156922D01*
X138568513Y-78156921D01*
X138418493Y-78076734D01*
X138418492Y-78076733D01*
X138418488Y-78076731D01*
X138286988Y-77968812D01*
X138179069Y-77837312D01*
X138179066Y-77837307D01*
X138098879Y-77687287D01*
X138091280Y-77662238D01*
X138049496Y-77524495D01*
X138032822Y-77355200D01*
X138049496Y-77185905D01*
X138098878Y-77023116D01*
X138098879Y-77023113D01*
X138179066Y-76873093D01*
X138179067Y-76873092D01*
X138179069Y-76873088D01*
X138286988Y-76741588D01*
X138418488Y-76633669D01*
X138418492Y-76633667D01*
X138418493Y-76633666D01*
X138568513Y-76553479D01*
X138568516Y-76553478D01*
X138731305Y-76504096D01*
X138815888Y-76495765D01*
X138858179Y-76491600D01*
X138943021Y-76491600D01*
X138985312Y-76495765D01*
X138985312Y-76495765D01*
G37*
G36*
X131365312Y-76495765D02*
G01*
X131449895Y-76504096D01*
X131612684Y-76553478D01*
X131612687Y-76553479D01*
X131762707Y-76633666D01*
X131762708Y-76633667D01*
X131762712Y-76633669D01*
X131894212Y-76741588D01*
X132002131Y-76873088D01*
X132002133Y-76873092D01*
X132002134Y-76873093D01*
X132082321Y-77023113D01*
X132082322Y-77023116D01*
X132131704Y-77185905D01*
X132148378Y-77355200D01*
X132131704Y-77524495D01*
X132089920Y-77662238D01*
X132082321Y-77687287D01*
X132002134Y-77837307D01*
X132002131Y-77837312D01*
X131894212Y-77968812D01*
X131762712Y-78076731D01*
X131762708Y-78076733D01*
X131762707Y-78076734D01*
X131612687Y-78156921D01*
X131612684Y-78156922D01*
X131449895Y-78206304D01*
X131365312Y-78214635D01*
X131323021Y-78218800D01*
X131238179Y-78218800D01*
X131195888Y-78214635D01*
X131111305Y-78206304D01*
X130948516Y-78156922D01*
X130948513Y-78156921D01*
X130798493Y-78076734D01*
X130798492Y-78076733D01*
X130798488Y-78076731D01*
X130666988Y-77968812D01*
X130559069Y-77837312D01*
X130559066Y-77837307D01*
X130478879Y-77687287D01*
X130471280Y-77662238D01*
X130429496Y-77524495D01*
X130412822Y-77355200D01*
X130429496Y-77185905D01*
X130478878Y-77023116D01*
X130478879Y-77023113D01*
X130559066Y-76873093D01*
X130559067Y-76873092D01*
X130559069Y-76873088D01*
X130666988Y-76741588D01*
X130798488Y-76633669D01*
X130798492Y-76633667D01*
X130798493Y-76633666D01*
X130948513Y-76553479D01*
X130948516Y-76553478D01*
X131111305Y-76504096D01*
X131195888Y-76495765D01*
X131238179Y-76491600D01*
X131323021Y-76491600D01*
X131365312Y-76495765D01*
X131365312Y-76495765D01*
G37*
G36*
X136445312Y-76495765D02*
G01*
X136529895Y-76504096D01*
X136692684Y-76553478D01*
X136692687Y-76553479D01*
X136842707Y-76633666D01*
X136842708Y-76633667D01*
X136842712Y-76633669D01*
X136974212Y-76741588D01*
X137082131Y-76873088D01*
X137082133Y-76873092D01*
X137082134Y-76873093D01*
X137162321Y-77023113D01*
X137162322Y-77023116D01*
X137211704Y-77185905D01*
X137228378Y-77355200D01*
X137211704Y-77524495D01*
X137169920Y-77662238D01*
X137162321Y-77687287D01*
X137082134Y-77837307D01*
X137082131Y-77837312D01*
X136974212Y-77968812D01*
X136842712Y-78076731D01*
X136842708Y-78076733D01*
X136842707Y-78076734D01*
X136692687Y-78156921D01*
X136692684Y-78156922D01*
X136529895Y-78206304D01*
X136445312Y-78214635D01*
X136403021Y-78218800D01*
X136318179Y-78218800D01*
X136275888Y-78214635D01*
X136191305Y-78206304D01*
X136028516Y-78156922D01*
X136028513Y-78156921D01*
X135878493Y-78076734D01*
X135878492Y-78076733D01*
X135878488Y-78076731D01*
X135746988Y-77968812D01*
X135639069Y-77837312D01*
X135639066Y-77837307D01*
X135558879Y-77687287D01*
X135551280Y-77662238D01*
X135509496Y-77524495D01*
X135492822Y-77355200D01*
X135509496Y-77185905D01*
X135558878Y-77023116D01*
X135558879Y-77023113D01*
X135639066Y-76873093D01*
X135639067Y-76873092D01*
X135639069Y-76873088D01*
X135746988Y-76741588D01*
X135878488Y-76633669D01*
X135878492Y-76633667D01*
X135878493Y-76633666D01*
X136028513Y-76553479D01*
X136028516Y-76553478D01*
X136191305Y-76504096D01*
X136275888Y-76495765D01*
X136318179Y-76491600D01*
X136403021Y-76491600D01*
X136445312Y-76495765D01*
X136445312Y-76495765D01*
G37*
G36*
X151685312Y-76495765D02*
G01*
X151769895Y-76504096D01*
X151932684Y-76553478D01*
X151932687Y-76553479D01*
X152082707Y-76633666D01*
X152082708Y-76633667D01*
X152082712Y-76633669D01*
X152214212Y-76741588D01*
X152322131Y-76873088D01*
X152322133Y-76873092D01*
X152322134Y-76873093D01*
X152402321Y-77023113D01*
X152402322Y-77023116D01*
X152451704Y-77185905D01*
X152468378Y-77355200D01*
X152451704Y-77524495D01*
X152409920Y-77662238D01*
X152402321Y-77687287D01*
X152322134Y-77837307D01*
X152322131Y-77837312D01*
X152214212Y-77968812D01*
X152082712Y-78076731D01*
X152082708Y-78076733D01*
X152082707Y-78076734D01*
X151932687Y-78156921D01*
X151932684Y-78156922D01*
X151769895Y-78206304D01*
X151685312Y-78214635D01*
X151643021Y-78218800D01*
X151558179Y-78218800D01*
X151515888Y-78214635D01*
X151431305Y-78206304D01*
X151268516Y-78156922D01*
X151268513Y-78156921D01*
X151118493Y-78076734D01*
X151118492Y-78076733D01*
X151118488Y-78076731D01*
X150986988Y-77968812D01*
X150879069Y-77837312D01*
X150879066Y-77837307D01*
X150798879Y-77687287D01*
X150791280Y-77662238D01*
X150749496Y-77524495D01*
X150732822Y-77355200D01*
X150749496Y-77185905D01*
X150798878Y-77023116D01*
X150798879Y-77023113D01*
X150879066Y-76873093D01*
X150879067Y-76873092D01*
X150879069Y-76873088D01*
X150986988Y-76741588D01*
X151118488Y-76633669D01*
X151118492Y-76633667D01*
X151118493Y-76633666D01*
X151268513Y-76553479D01*
X151268516Y-76553478D01*
X151431305Y-76504096D01*
X151515888Y-76495765D01*
X151558179Y-76491600D01*
X151643021Y-76491600D01*
X151685312Y-76495765D01*
X151685312Y-76495765D01*
G37*
G36*
X154225312Y-76495765D02*
G01*
X154309895Y-76504096D01*
X154472684Y-76553478D01*
X154472687Y-76553479D01*
X154622707Y-76633666D01*
X154622708Y-76633667D01*
X154622712Y-76633669D01*
X154754212Y-76741588D01*
X154862131Y-76873088D01*
X154862133Y-76873092D01*
X154862134Y-76873093D01*
X154942321Y-77023113D01*
X154942322Y-77023116D01*
X154991704Y-77185905D01*
X155008378Y-77355200D01*
X154991704Y-77524495D01*
X154949920Y-77662238D01*
X154942321Y-77687287D01*
X154862134Y-77837307D01*
X154862131Y-77837312D01*
X154754212Y-77968812D01*
X154622712Y-78076731D01*
X154622708Y-78076733D01*
X154622707Y-78076734D01*
X154472687Y-78156921D01*
X154472684Y-78156922D01*
X154309895Y-78206304D01*
X154225312Y-78214635D01*
X154183021Y-78218800D01*
X154098179Y-78218800D01*
X154055888Y-78214635D01*
X153971305Y-78206304D01*
X153808516Y-78156922D01*
X153808513Y-78156921D01*
X153658493Y-78076734D01*
X153658492Y-78076733D01*
X153658488Y-78076731D01*
X153526988Y-77968812D01*
X153419069Y-77837312D01*
X153419066Y-77837307D01*
X153338879Y-77687287D01*
X153331280Y-77662238D01*
X153289496Y-77524495D01*
X153272822Y-77355200D01*
X153289496Y-77185905D01*
X153338878Y-77023116D01*
X153338879Y-77023113D01*
X153419066Y-76873093D01*
X153419067Y-76873092D01*
X153419069Y-76873088D01*
X153526988Y-76741588D01*
X153658488Y-76633669D01*
X153658492Y-76633667D01*
X153658493Y-76633666D01*
X153808513Y-76553479D01*
X153808516Y-76553478D01*
X153971305Y-76504096D01*
X154055888Y-76495765D01*
X154098179Y-76491600D01*
X154183021Y-76491600D01*
X154225312Y-76495765D01*
X154225312Y-76495765D01*
G37*
G36*
X108474552Y-76807853D02*
G01*
X108528419Y-76813158D01*
X108605118Y-76836425D01*
X108632098Y-76844609D01*
X108727638Y-76895676D01*
X108811390Y-76964410D01*
X108880124Y-77048162D01*
X108931191Y-77143702D01*
X108931192Y-77143706D01*
X108962642Y-77247381D01*
X108973261Y-77355200D01*
X108962642Y-77463019D01*
X108943994Y-77524493D01*
X108931191Y-77566698D01*
X108880124Y-77662238D01*
X108811390Y-77745990D01*
X108727638Y-77814724D01*
X108632098Y-77865791D01*
X108605118Y-77873975D01*
X108528419Y-77897242D01*
X108474552Y-77902547D01*
X108447619Y-77905200D01*
X108393581Y-77905200D01*
X108366648Y-77902547D01*
X108312781Y-77897242D01*
X108236082Y-77873975D01*
X108209102Y-77865791D01*
X108113562Y-77814724D01*
X108029810Y-77745990D01*
X107961076Y-77662238D01*
X107910009Y-77566698D01*
X107897206Y-77524493D01*
X107878558Y-77463019D01*
X107867939Y-77355200D01*
X107878558Y-77247381D01*
X107910008Y-77143706D01*
X107910009Y-77143702D01*
X107961076Y-77048162D01*
X108029810Y-76964410D01*
X108113562Y-76895676D01*
X108209102Y-76844609D01*
X108236082Y-76836425D01*
X108312781Y-76813158D01*
X108366648Y-76807853D01*
X108393581Y-76805200D01*
X108447619Y-76805200D01*
X108474552Y-76807853D01*
X108474552Y-76807853D01*
G37*
G36*
X111014552Y-76807853D02*
G01*
X111068419Y-76813158D01*
X111145118Y-76836425D01*
X111172098Y-76844609D01*
X111267638Y-76895676D01*
X111351390Y-76964410D01*
X111420124Y-77048162D01*
X111471191Y-77143702D01*
X111471192Y-77143706D01*
X111502642Y-77247381D01*
X111513261Y-77355200D01*
X111502642Y-77463019D01*
X111483994Y-77524493D01*
X111471191Y-77566698D01*
X111420124Y-77662238D01*
X111351390Y-77745990D01*
X111267638Y-77814724D01*
X111172098Y-77865791D01*
X111145118Y-77873975D01*
X111068419Y-77897242D01*
X111014552Y-77902547D01*
X110987619Y-77905200D01*
X110933581Y-77905200D01*
X110906648Y-77902547D01*
X110852781Y-77897242D01*
X110776082Y-77873975D01*
X110749102Y-77865791D01*
X110653562Y-77814724D01*
X110569810Y-77745990D01*
X110501076Y-77662238D01*
X110450009Y-77566698D01*
X110437206Y-77524493D01*
X110418558Y-77463019D01*
X110407939Y-77355200D01*
X110418558Y-77247381D01*
X110450008Y-77143706D01*
X110450009Y-77143702D01*
X110501076Y-77048162D01*
X110569810Y-76964410D01*
X110653562Y-76895676D01*
X110749102Y-76844609D01*
X110776082Y-76836425D01*
X110852781Y-76813158D01*
X110906648Y-76807853D01*
X110933581Y-76805200D01*
X110987619Y-76805200D01*
X111014552Y-76807853D01*
X111014552Y-76807853D01*
G37*
G36*
X151685312Y-73955765D02*
G01*
X151769895Y-73964096D01*
X151932684Y-74013478D01*
X151932687Y-74013479D01*
X152082707Y-74093666D01*
X152082708Y-74093667D01*
X152082712Y-74093669D01*
X152214212Y-74201588D01*
X152322131Y-74333088D01*
X152322133Y-74333092D01*
X152322134Y-74333093D01*
X152402321Y-74483113D01*
X152402322Y-74483116D01*
X152451704Y-74645905D01*
X152468378Y-74815200D01*
X152451704Y-74984495D01*
X152402322Y-75147284D01*
X152402321Y-75147287D01*
X152322134Y-75297307D01*
X152322131Y-75297312D01*
X152214212Y-75428812D01*
X152082712Y-75536731D01*
X152082708Y-75536733D01*
X152082707Y-75536734D01*
X151932687Y-75616921D01*
X151932684Y-75616922D01*
X151769895Y-75666304D01*
X151685312Y-75674635D01*
X151643021Y-75678800D01*
X151558179Y-75678800D01*
X151515888Y-75674635D01*
X151431305Y-75666304D01*
X151268516Y-75616922D01*
X151268513Y-75616921D01*
X151118493Y-75536734D01*
X151118492Y-75536733D01*
X151118488Y-75536731D01*
X150986988Y-75428812D01*
X150879069Y-75297312D01*
X150879066Y-75297307D01*
X150798879Y-75147287D01*
X150798878Y-75147284D01*
X150749496Y-74984495D01*
X150732822Y-74815200D01*
X150749496Y-74645905D01*
X150798878Y-74483116D01*
X150798879Y-74483113D01*
X150879066Y-74333093D01*
X150879067Y-74333092D01*
X150879069Y-74333088D01*
X150986988Y-74201588D01*
X151118488Y-74093669D01*
X151118492Y-74093667D01*
X151118493Y-74093666D01*
X151268513Y-74013479D01*
X151268516Y-74013478D01*
X151431305Y-73964096D01*
X151515888Y-73955765D01*
X151558179Y-73951600D01*
X151643021Y-73951600D01*
X151685312Y-73955765D01*
X151685312Y-73955765D01*
G37*
G36*
X149145312Y-73955765D02*
G01*
X149229895Y-73964096D01*
X149392684Y-74013478D01*
X149392687Y-74013479D01*
X149542707Y-74093666D01*
X149542708Y-74093667D01*
X149542712Y-74093669D01*
X149674212Y-74201588D01*
X149782131Y-74333088D01*
X149782133Y-74333092D01*
X149782134Y-74333093D01*
X149862321Y-74483113D01*
X149862322Y-74483116D01*
X149911704Y-74645905D01*
X149928378Y-74815200D01*
X149911704Y-74984495D01*
X149862322Y-75147284D01*
X149862321Y-75147287D01*
X149782134Y-75297307D01*
X149782131Y-75297312D01*
X149674212Y-75428812D01*
X149542712Y-75536731D01*
X149542708Y-75536733D01*
X149542707Y-75536734D01*
X149392687Y-75616921D01*
X149392684Y-75616922D01*
X149229895Y-75666304D01*
X149145312Y-75674635D01*
X149103021Y-75678800D01*
X149018179Y-75678800D01*
X148975888Y-75674635D01*
X148891305Y-75666304D01*
X148728516Y-75616922D01*
X148728513Y-75616921D01*
X148578493Y-75536734D01*
X148578492Y-75536733D01*
X148578488Y-75536731D01*
X148446988Y-75428812D01*
X148339069Y-75297312D01*
X148339066Y-75297307D01*
X148258879Y-75147287D01*
X148258878Y-75147284D01*
X148209496Y-74984495D01*
X148192822Y-74815200D01*
X148209496Y-74645905D01*
X148258878Y-74483116D01*
X148258879Y-74483113D01*
X148339066Y-74333093D01*
X148339067Y-74333092D01*
X148339069Y-74333088D01*
X148446988Y-74201588D01*
X148578488Y-74093669D01*
X148578492Y-74093667D01*
X148578493Y-74093666D01*
X148728513Y-74013479D01*
X148728516Y-74013478D01*
X148891305Y-73964096D01*
X148975888Y-73955765D01*
X149018179Y-73951600D01*
X149103021Y-73951600D01*
X149145312Y-73955765D01*
X149145312Y-73955765D01*
G37*
G36*
X146605312Y-73955765D02*
G01*
X146689895Y-73964096D01*
X146852684Y-74013478D01*
X146852687Y-74013479D01*
X147002707Y-74093666D01*
X147002708Y-74093667D01*
X147002712Y-74093669D01*
X147134212Y-74201588D01*
X147242131Y-74333088D01*
X147242133Y-74333092D01*
X147242134Y-74333093D01*
X147322321Y-74483113D01*
X147322322Y-74483116D01*
X147371704Y-74645905D01*
X147388378Y-74815200D01*
X147371704Y-74984495D01*
X147322322Y-75147284D01*
X147322321Y-75147287D01*
X147242134Y-75297307D01*
X147242131Y-75297312D01*
X147134212Y-75428812D01*
X147002712Y-75536731D01*
X147002708Y-75536733D01*
X147002707Y-75536734D01*
X146852687Y-75616921D01*
X146852684Y-75616922D01*
X146689895Y-75666304D01*
X146605312Y-75674635D01*
X146563021Y-75678800D01*
X146478179Y-75678800D01*
X146435888Y-75674635D01*
X146351305Y-75666304D01*
X146188516Y-75616922D01*
X146188513Y-75616921D01*
X146038493Y-75536734D01*
X146038492Y-75536733D01*
X146038488Y-75536731D01*
X145906988Y-75428812D01*
X145799069Y-75297312D01*
X145799066Y-75297307D01*
X145718879Y-75147287D01*
X145718878Y-75147284D01*
X145669496Y-74984495D01*
X145652822Y-74815200D01*
X145669496Y-74645905D01*
X145718878Y-74483116D01*
X145718879Y-74483113D01*
X145799066Y-74333093D01*
X145799067Y-74333092D01*
X145799069Y-74333088D01*
X145906988Y-74201588D01*
X146038488Y-74093669D01*
X146038492Y-74093667D01*
X146038493Y-74093666D01*
X146188513Y-74013479D01*
X146188516Y-74013478D01*
X146351305Y-73964096D01*
X146435888Y-73955765D01*
X146478179Y-73951600D01*
X146563021Y-73951600D01*
X146605312Y-73955765D01*
X146605312Y-73955765D01*
G37*
G36*
X154225312Y-73955765D02*
G01*
X154309895Y-73964096D01*
X154472684Y-74013478D01*
X154472687Y-74013479D01*
X154622707Y-74093666D01*
X154622708Y-74093667D01*
X154622712Y-74093669D01*
X154754212Y-74201588D01*
X154862131Y-74333088D01*
X154862133Y-74333092D01*
X154862134Y-74333093D01*
X154942321Y-74483113D01*
X154942322Y-74483116D01*
X154991704Y-74645905D01*
X155008378Y-74815200D01*
X154991704Y-74984495D01*
X154942322Y-75147284D01*
X154942321Y-75147287D01*
X154862134Y-75297307D01*
X154862131Y-75297312D01*
X154754212Y-75428812D01*
X154622712Y-75536731D01*
X154622708Y-75536733D01*
X154622707Y-75536734D01*
X154472687Y-75616921D01*
X154472684Y-75616922D01*
X154309895Y-75666304D01*
X154225312Y-75674635D01*
X154183021Y-75678800D01*
X154098179Y-75678800D01*
X154055888Y-75674635D01*
X153971305Y-75666304D01*
X153808516Y-75616922D01*
X153808513Y-75616921D01*
X153658493Y-75536734D01*
X153658492Y-75536733D01*
X153658488Y-75536731D01*
X153526988Y-75428812D01*
X153419069Y-75297312D01*
X153419066Y-75297307D01*
X153338879Y-75147287D01*
X153338878Y-75147284D01*
X153289496Y-74984495D01*
X153272822Y-74815200D01*
X153289496Y-74645905D01*
X153338878Y-74483116D01*
X153338879Y-74483113D01*
X153419066Y-74333093D01*
X153419067Y-74333092D01*
X153419069Y-74333088D01*
X153526988Y-74201588D01*
X153658488Y-74093669D01*
X153658492Y-74093667D01*
X153658493Y-74093666D01*
X153808513Y-74013479D01*
X153808516Y-74013478D01*
X153971305Y-73964096D01*
X154055888Y-73955765D01*
X154098179Y-73951600D01*
X154183021Y-73951600D01*
X154225312Y-73955765D01*
X154225312Y-73955765D01*
G37*
G36*
X141525312Y-73955765D02*
G01*
X141609895Y-73964096D01*
X141772684Y-74013478D01*
X141772687Y-74013479D01*
X141922707Y-74093666D01*
X141922708Y-74093667D01*
X141922712Y-74093669D01*
X142054212Y-74201588D01*
X142162131Y-74333088D01*
X142162133Y-74333092D01*
X142162134Y-74333093D01*
X142242321Y-74483113D01*
X142242322Y-74483116D01*
X142291704Y-74645905D01*
X142308378Y-74815200D01*
X142291704Y-74984495D01*
X142242322Y-75147284D01*
X142242321Y-75147287D01*
X142162134Y-75297307D01*
X142162131Y-75297312D01*
X142054212Y-75428812D01*
X141922712Y-75536731D01*
X141922708Y-75536733D01*
X141922707Y-75536734D01*
X141772687Y-75616921D01*
X141772684Y-75616922D01*
X141609895Y-75666304D01*
X141525312Y-75674635D01*
X141483021Y-75678800D01*
X141398179Y-75678800D01*
X141355888Y-75674635D01*
X141271305Y-75666304D01*
X141108516Y-75616922D01*
X141108513Y-75616921D01*
X140958493Y-75536734D01*
X140958492Y-75536733D01*
X140958488Y-75536731D01*
X140826988Y-75428812D01*
X140719069Y-75297312D01*
X140719066Y-75297307D01*
X140638879Y-75147287D01*
X140638878Y-75147284D01*
X140589496Y-74984495D01*
X140572822Y-74815200D01*
X140589496Y-74645905D01*
X140638878Y-74483116D01*
X140638879Y-74483113D01*
X140719066Y-74333093D01*
X140719067Y-74333092D01*
X140719069Y-74333088D01*
X140826988Y-74201588D01*
X140958488Y-74093669D01*
X140958492Y-74093667D01*
X140958493Y-74093666D01*
X141108513Y-74013479D01*
X141108516Y-74013478D01*
X141271305Y-73964096D01*
X141355888Y-73955765D01*
X141398179Y-73951600D01*
X141483021Y-73951600D01*
X141525312Y-73955765D01*
X141525312Y-73955765D01*
G37*
G36*
X138985312Y-73955765D02*
G01*
X139069895Y-73964096D01*
X139232684Y-74013478D01*
X139232687Y-74013479D01*
X139382707Y-74093666D01*
X139382708Y-74093667D01*
X139382712Y-74093669D01*
X139514212Y-74201588D01*
X139622131Y-74333088D01*
X139622133Y-74333092D01*
X139622134Y-74333093D01*
X139702321Y-74483113D01*
X139702322Y-74483116D01*
X139751704Y-74645905D01*
X139768378Y-74815200D01*
X139751704Y-74984495D01*
X139702322Y-75147284D01*
X139702321Y-75147287D01*
X139622134Y-75297307D01*
X139622131Y-75297312D01*
X139514212Y-75428812D01*
X139382712Y-75536731D01*
X139382708Y-75536733D01*
X139382707Y-75536734D01*
X139232687Y-75616921D01*
X139232684Y-75616922D01*
X139069895Y-75666304D01*
X138985312Y-75674635D01*
X138943021Y-75678800D01*
X138858179Y-75678800D01*
X138815888Y-75674635D01*
X138731305Y-75666304D01*
X138568516Y-75616922D01*
X138568513Y-75616921D01*
X138418493Y-75536734D01*
X138418492Y-75536733D01*
X138418488Y-75536731D01*
X138286988Y-75428812D01*
X138179069Y-75297312D01*
X138179066Y-75297307D01*
X138098879Y-75147287D01*
X138098878Y-75147284D01*
X138049496Y-74984495D01*
X138032822Y-74815200D01*
X138049496Y-74645905D01*
X138098878Y-74483116D01*
X138098879Y-74483113D01*
X138179066Y-74333093D01*
X138179067Y-74333092D01*
X138179069Y-74333088D01*
X138286988Y-74201588D01*
X138418488Y-74093669D01*
X138418492Y-74093667D01*
X138418493Y-74093666D01*
X138568513Y-74013479D01*
X138568516Y-74013478D01*
X138731305Y-73964096D01*
X138815888Y-73955765D01*
X138858179Y-73951600D01*
X138943021Y-73951600D01*
X138985312Y-73955765D01*
X138985312Y-73955765D01*
G37*
G36*
X136445312Y-73955765D02*
G01*
X136529895Y-73964096D01*
X136692684Y-74013478D01*
X136692687Y-74013479D01*
X136842707Y-74093666D01*
X136842708Y-74093667D01*
X136842712Y-74093669D01*
X136974212Y-74201588D01*
X137082131Y-74333088D01*
X137082133Y-74333092D01*
X137082134Y-74333093D01*
X137162321Y-74483113D01*
X137162322Y-74483116D01*
X137211704Y-74645905D01*
X137228378Y-74815200D01*
X137211704Y-74984495D01*
X137162322Y-75147284D01*
X137162321Y-75147287D01*
X137082134Y-75297307D01*
X137082131Y-75297312D01*
X136974212Y-75428812D01*
X136842712Y-75536731D01*
X136842708Y-75536733D01*
X136842707Y-75536734D01*
X136692687Y-75616921D01*
X136692684Y-75616922D01*
X136529895Y-75666304D01*
X136445312Y-75674635D01*
X136403021Y-75678800D01*
X136318179Y-75678800D01*
X136275888Y-75674635D01*
X136191305Y-75666304D01*
X136028516Y-75616922D01*
X136028513Y-75616921D01*
X135878493Y-75536734D01*
X135878492Y-75536733D01*
X135878488Y-75536731D01*
X135746988Y-75428812D01*
X135639069Y-75297312D01*
X135639066Y-75297307D01*
X135558879Y-75147287D01*
X135558878Y-75147284D01*
X135509496Y-74984495D01*
X135492822Y-74815200D01*
X135509496Y-74645905D01*
X135558878Y-74483116D01*
X135558879Y-74483113D01*
X135639066Y-74333093D01*
X135639067Y-74333092D01*
X135639069Y-74333088D01*
X135746988Y-74201588D01*
X135878488Y-74093669D01*
X135878492Y-74093667D01*
X135878493Y-74093666D01*
X136028513Y-74013479D01*
X136028516Y-74013478D01*
X136191305Y-73964096D01*
X136275888Y-73955765D01*
X136318179Y-73951600D01*
X136403021Y-73951600D01*
X136445312Y-73955765D01*
X136445312Y-73955765D01*
G37*
G36*
X133905312Y-73955765D02*
G01*
X133989895Y-73964096D01*
X134152684Y-74013478D01*
X134152687Y-74013479D01*
X134302707Y-74093666D01*
X134302708Y-74093667D01*
X134302712Y-74093669D01*
X134434212Y-74201588D01*
X134542131Y-74333088D01*
X134542133Y-74333092D01*
X134542134Y-74333093D01*
X134622321Y-74483113D01*
X134622322Y-74483116D01*
X134671704Y-74645905D01*
X134688378Y-74815200D01*
X134671704Y-74984495D01*
X134622322Y-75147284D01*
X134622321Y-75147287D01*
X134542134Y-75297307D01*
X134542131Y-75297312D01*
X134434212Y-75428812D01*
X134302712Y-75536731D01*
X134302708Y-75536733D01*
X134302707Y-75536734D01*
X134152687Y-75616921D01*
X134152684Y-75616922D01*
X133989895Y-75666304D01*
X133905312Y-75674635D01*
X133863021Y-75678800D01*
X133778179Y-75678800D01*
X133735888Y-75674635D01*
X133651305Y-75666304D01*
X133488516Y-75616922D01*
X133488513Y-75616921D01*
X133338493Y-75536734D01*
X133338492Y-75536733D01*
X133338488Y-75536731D01*
X133206988Y-75428812D01*
X133099069Y-75297312D01*
X133099066Y-75297307D01*
X133018879Y-75147287D01*
X133018878Y-75147284D01*
X132969496Y-74984495D01*
X132952822Y-74815200D01*
X132969496Y-74645905D01*
X133018878Y-74483116D01*
X133018879Y-74483113D01*
X133099066Y-74333093D01*
X133099067Y-74333092D01*
X133099069Y-74333088D01*
X133206988Y-74201588D01*
X133338488Y-74093669D01*
X133338492Y-74093667D01*
X133338493Y-74093666D01*
X133488513Y-74013479D01*
X133488516Y-74013478D01*
X133651305Y-73964096D01*
X133735888Y-73955765D01*
X133778179Y-73951600D01*
X133863021Y-73951600D01*
X133905312Y-73955765D01*
X133905312Y-73955765D01*
G37*
G36*
X144065312Y-73955765D02*
G01*
X144149895Y-73964096D01*
X144312684Y-74013478D01*
X144312687Y-74013479D01*
X144462707Y-74093666D01*
X144462708Y-74093667D01*
X144462712Y-74093669D01*
X144594212Y-74201588D01*
X144702131Y-74333088D01*
X144702133Y-74333092D01*
X144702134Y-74333093D01*
X144782321Y-74483113D01*
X144782322Y-74483116D01*
X144831704Y-74645905D01*
X144848378Y-74815200D01*
X144831704Y-74984495D01*
X144782322Y-75147284D01*
X144782321Y-75147287D01*
X144702134Y-75297307D01*
X144702131Y-75297312D01*
X144594212Y-75428812D01*
X144462712Y-75536731D01*
X144462708Y-75536733D01*
X144462707Y-75536734D01*
X144312687Y-75616921D01*
X144312684Y-75616922D01*
X144149895Y-75666304D01*
X144065312Y-75674635D01*
X144023021Y-75678800D01*
X143938179Y-75678800D01*
X143895888Y-75674635D01*
X143811305Y-75666304D01*
X143648516Y-75616922D01*
X143648513Y-75616921D01*
X143498493Y-75536734D01*
X143498492Y-75536733D01*
X143498488Y-75536731D01*
X143366988Y-75428812D01*
X143259069Y-75297312D01*
X143259066Y-75297307D01*
X143178879Y-75147287D01*
X143178878Y-75147284D01*
X143129496Y-74984495D01*
X143112822Y-74815200D01*
X143129496Y-74645905D01*
X143178878Y-74483116D01*
X143178879Y-74483113D01*
X143259066Y-74333093D01*
X143259067Y-74333092D01*
X143259069Y-74333088D01*
X143366988Y-74201588D01*
X143498488Y-74093669D01*
X143498492Y-74093667D01*
X143498493Y-74093666D01*
X143648513Y-74013479D01*
X143648516Y-74013478D01*
X143811305Y-73964096D01*
X143895888Y-73955765D01*
X143938179Y-73951600D01*
X144023021Y-73951600D01*
X144065312Y-73955765D01*
X144065312Y-73955765D01*
G37*
G36*
X108505312Y-73955765D02*
G01*
X108589895Y-73964096D01*
X108752684Y-74013478D01*
X108752687Y-74013479D01*
X108902707Y-74093666D01*
X108902708Y-74093667D01*
X108902712Y-74093669D01*
X109034212Y-74201588D01*
X109142131Y-74333088D01*
X109142133Y-74333092D01*
X109142134Y-74333093D01*
X109222321Y-74483113D01*
X109222322Y-74483116D01*
X109271704Y-74645905D01*
X109288378Y-74815200D01*
X109271704Y-74984495D01*
X109222322Y-75147284D01*
X109222321Y-75147287D01*
X109142134Y-75297307D01*
X109142131Y-75297312D01*
X109034212Y-75428812D01*
X108902712Y-75536731D01*
X108902708Y-75536733D01*
X108902707Y-75536734D01*
X108752687Y-75616921D01*
X108752684Y-75616922D01*
X108589895Y-75666304D01*
X108505312Y-75674635D01*
X108463021Y-75678800D01*
X108378179Y-75678800D01*
X108335888Y-75674635D01*
X108251305Y-75666304D01*
X108088516Y-75616922D01*
X108088513Y-75616921D01*
X107938493Y-75536734D01*
X107938492Y-75536733D01*
X107938488Y-75536731D01*
X107806988Y-75428812D01*
X107699069Y-75297312D01*
X107699066Y-75297307D01*
X107618879Y-75147287D01*
X107618878Y-75147284D01*
X107569496Y-74984495D01*
X107552822Y-74815200D01*
X107569496Y-74645905D01*
X107618878Y-74483116D01*
X107618879Y-74483113D01*
X107699066Y-74333093D01*
X107699067Y-74333092D01*
X107699069Y-74333088D01*
X107806988Y-74201588D01*
X107938488Y-74093669D01*
X107938492Y-74093667D01*
X107938493Y-74093666D01*
X108088513Y-74013479D01*
X108088516Y-74013478D01*
X108251305Y-73964096D01*
X108335888Y-73955765D01*
X108378179Y-73951600D01*
X108463021Y-73951600D01*
X108505312Y-73955765D01*
X108505312Y-73955765D01*
G37*
G36*
X111045312Y-73955765D02*
G01*
X111129895Y-73964096D01*
X111292684Y-74013478D01*
X111292687Y-74013479D01*
X111442707Y-74093666D01*
X111442708Y-74093667D01*
X111442712Y-74093669D01*
X111574212Y-74201588D01*
X111682131Y-74333088D01*
X111682133Y-74333092D01*
X111682134Y-74333093D01*
X111762321Y-74483113D01*
X111762322Y-74483116D01*
X111811704Y-74645905D01*
X111828378Y-74815200D01*
X111811704Y-74984495D01*
X111762322Y-75147284D01*
X111762321Y-75147287D01*
X111682134Y-75297307D01*
X111682131Y-75297312D01*
X111574212Y-75428812D01*
X111442712Y-75536731D01*
X111442708Y-75536733D01*
X111442707Y-75536734D01*
X111292687Y-75616921D01*
X111292684Y-75616922D01*
X111129895Y-75666304D01*
X111045312Y-75674635D01*
X111003021Y-75678800D01*
X110918179Y-75678800D01*
X110875888Y-75674635D01*
X110791305Y-75666304D01*
X110628516Y-75616922D01*
X110628513Y-75616921D01*
X110478493Y-75536734D01*
X110478492Y-75536733D01*
X110478488Y-75536731D01*
X110346988Y-75428812D01*
X110239069Y-75297312D01*
X110239066Y-75297307D01*
X110158879Y-75147287D01*
X110158878Y-75147284D01*
X110109496Y-74984495D01*
X110092822Y-74815200D01*
X110109496Y-74645905D01*
X110158878Y-74483116D01*
X110158879Y-74483113D01*
X110239066Y-74333093D01*
X110239067Y-74333092D01*
X110239069Y-74333088D01*
X110346988Y-74201588D01*
X110478488Y-74093669D01*
X110478492Y-74093667D01*
X110478493Y-74093666D01*
X110628513Y-74013479D01*
X110628516Y-74013478D01*
X110791305Y-73964096D01*
X110875888Y-73955765D01*
X110918179Y-73951600D01*
X111003021Y-73951600D01*
X111045312Y-73955765D01*
X111045312Y-73955765D01*
G37*
G36*
X113585312Y-73955765D02*
G01*
X113669895Y-73964096D01*
X113832684Y-74013478D01*
X113832687Y-74013479D01*
X113982707Y-74093666D01*
X113982708Y-74093667D01*
X113982712Y-74093669D01*
X114114212Y-74201588D01*
X114222131Y-74333088D01*
X114222133Y-74333092D01*
X114222134Y-74333093D01*
X114302321Y-74483113D01*
X114302322Y-74483116D01*
X114351704Y-74645905D01*
X114368378Y-74815200D01*
X114351704Y-74984495D01*
X114302322Y-75147284D01*
X114302321Y-75147287D01*
X114222134Y-75297307D01*
X114222131Y-75297312D01*
X114114212Y-75428812D01*
X113982712Y-75536731D01*
X113982708Y-75536733D01*
X113982707Y-75536734D01*
X113832687Y-75616921D01*
X113832684Y-75616922D01*
X113669895Y-75666304D01*
X113585312Y-75674635D01*
X113543021Y-75678800D01*
X113458179Y-75678800D01*
X113415888Y-75674635D01*
X113331305Y-75666304D01*
X113168516Y-75616922D01*
X113168513Y-75616921D01*
X113018493Y-75536734D01*
X113018492Y-75536733D01*
X113018488Y-75536731D01*
X112886988Y-75428812D01*
X112779069Y-75297312D01*
X112779066Y-75297307D01*
X112698879Y-75147287D01*
X112698878Y-75147284D01*
X112649496Y-74984495D01*
X112632822Y-74815200D01*
X112649496Y-74645905D01*
X112698878Y-74483116D01*
X112698879Y-74483113D01*
X112779066Y-74333093D01*
X112779067Y-74333092D01*
X112779069Y-74333088D01*
X112886988Y-74201588D01*
X113018488Y-74093669D01*
X113018492Y-74093667D01*
X113018493Y-74093666D01*
X113168513Y-74013479D01*
X113168516Y-74013478D01*
X113331305Y-73964096D01*
X113415888Y-73955765D01*
X113458179Y-73951600D01*
X113543021Y-73951600D01*
X113585312Y-73955765D01*
X113585312Y-73955765D01*
G37*
G36*
X116125312Y-73955765D02*
G01*
X116209895Y-73964096D01*
X116372684Y-74013478D01*
X116372687Y-74013479D01*
X116522707Y-74093666D01*
X116522708Y-74093667D01*
X116522712Y-74093669D01*
X116654212Y-74201588D01*
X116762131Y-74333088D01*
X116762133Y-74333092D01*
X116762134Y-74333093D01*
X116842321Y-74483113D01*
X116842322Y-74483116D01*
X116891704Y-74645905D01*
X116908378Y-74815200D01*
X116891704Y-74984495D01*
X116842322Y-75147284D01*
X116842321Y-75147287D01*
X116762134Y-75297307D01*
X116762131Y-75297312D01*
X116654212Y-75428812D01*
X116522712Y-75536731D01*
X116522708Y-75536733D01*
X116522707Y-75536734D01*
X116372687Y-75616921D01*
X116372684Y-75616922D01*
X116209895Y-75666304D01*
X116125312Y-75674635D01*
X116083021Y-75678800D01*
X115998179Y-75678800D01*
X115955888Y-75674635D01*
X115871305Y-75666304D01*
X115708516Y-75616922D01*
X115708513Y-75616921D01*
X115558493Y-75536734D01*
X115558492Y-75536733D01*
X115558488Y-75536731D01*
X115426988Y-75428812D01*
X115319069Y-75297312D01*
X115319066Y-75297307D01*
X115238879Y-75147287D01*
X115238878Y-75147284D01*
X115189496Y-74984495D01*
X115172822Y-74815200D01*
X115189496Y-74645905D01*
X115238878Y-74483116D01*
X115238879Y-74483113D01*
X115319066Y-74333093D01*
X115319067Y-74333092D01*
X115319069Y-74333088D01*
X115426988Y-74201588D01*
X115558488Y-74093669D01*
X115558492Y-74093667D01*
X115558493Y-74093666D01*
X115708513Y-74013479D01*
X115708516Y-74013478D01*
X115871305Y-73964096D01*
X115955888Y-73955765D01*
X115998179Y-73951600D01*
X116083021Y-73951600D01*
X116125312Y-73955765D01*
X116125312Y-73955765D01*
G37*
G36*
X118665312Y-73955765D02*
G01*
X118749895Y-73964096D01*
X118912684Y-74013478D01*
X118912687Y-74013479D01*
X119062707Y-74093666D01*
X119062708Y-74093667D01*
X119062712Y-74093669D01*
X119194212Y-74201588D01*
X119302131Y-74333088D01*
X119302133Y-74333092D01*
X119302134Y-74333093D01*
X119382321Y-74483113D01*
X119382322Y-74483116D01*
X119431704Y-74645905D01*
X119448378Y-74815200D01*
X119431704Y-74984495D01*
X119382322Y-75147284D01*
X119382321Y-75147287D01*
X119302134Y-75297307D01*
X119302131Y-75297312D01*
X119194212Y-75428812D01*
X119062712Y-75536731D01*
X119062708Y-75536733D01*
X119062707Y-75536734D01*
X118912687Y-75616921D01*
X118912684Y-75616922D01*
X118749895Y-75666304D01*
X118665312Y-75674635D01*
X118623021Y-75678800D01*
X118538179Y-75678800D01*
X118495888Y-75674635D01*
X118411305Y-75666304D01*
X118248516Y-75616922D01*
X118248513Y-75616921D01*
X118098493Y-75536734D01*
X118098492Y-75536733D01*
X118098488Y-75536731D01*
X117966988Y-75428812D01*
X117859069Y-75297312D01*
X117859066Y-75297307D01*
X117778879Y-75147287D01*
X117778878Y-75147284D01*
X117729496Y-74984495D01*
X117712822Y-74815200D01*
X117729496Y-74645905D01*
X117778878Y-74483116D01*
X117778879Y-74483113D01*
X117859066Y-74333093D01*
X117859067Y-74333092D01*
X117859069Y-74333088D01*
X117966988Y-74201588D01*
X118098488Y-74093669D01*
X118098492Y-74093667D01*
X118098493Y-74093666D01*
X118248513Y-74013479D01*
X118248516Y-74013478D01*
X118411305Y-73964096D01*
X118495888Y-73955765D01*
X118538179Y-73951600D01*
X118623021Y-73951600D01*
X118665312Y-73955765D01*
X118665312Y-73955765D01*
G37*
G36*
X121205312Y-73955765D02*
G01*
X121289895Y-73964096D01*
X121452684Y-74013478D01*
X121452687Y-74013479D01*
X121602707Y-74093666D01*
X121602708Y-74093667D01*
X121602712Y-74093669D01*
X121734212Y-74201588D01*
X121842131Y-74333088D01*
X121842133Y-74333092D01*
X121842134Y-74333093D01*
X121922321Y-74483113D01*
X121922322Y-74483116D01*
X121971704Y-74645905D01*
X121988378Y-74815200D01*
X121971704Y-74984495D01*
X121922322Y-75147284D01*
X121922321Y-75147287D01*
X121842134Y-75297307D01*
X121842131Y-75297312D01*
X121734212Y-75428812D01*
X121602712Y-75536731D01*
X121602708Y-75536733D01*
X121602707Y-75536734D01*
X121452687Y-75616921D01*
X121452684Y-75616922D01*
X121289895Y-75666304D01*
X121205312Y-75674635D01*
X121163021Y-75678800D01*
X121078179Y-75678800D01*
X121035888Y-75674635D01*
X120951305Y-75666304D01*
X120788516Y-75616922D01*
X120788513Y-75616921D01*
X120638493Y-75536734D01*
X120638492Y-75536733D01*
X120638488Y-75536731D01*
X120506988Y-75428812D01*
X120399069Y-75297312D01*
X120399066Y-75297307D01*
X120318879Y-75147287D01*
X120318878Y-75147284D01*
X120269496Y-74984495D01*
X120252822Y-74815200D01*
X120269496Y-74645905D01*
X120318878Y-74483116D01*
X120318879Y-74483113D01*
X120399066Y-74333093D01*
X120399067Y-74333092D01*
X120399069Y-74333088D01*
X120506988Y-74201588D01*
X120638488Y-74093669D01*
X120638492Y-74093667D01*
X120638493Y-74093666D01*
X120788513Y-74013479D01*
X120788516Y-74013478D01*
X120951305Y-73964096D01*
X121035888Y-73955765D01*
X121078179Y-73951600D01*
X121163021Y-73951600D01*
X121205312Y-73955765D01*
X121205312Y-73955765D01*
G37*
G36*
X123745312Y-73955765D02*
G01*
X123829895Y-73964096D01*
X123992684Y-74013478D01*
X123992687Y-74013479D01*
X124142707Y-74093666D01*
X124142708Y-74093667D01*
X124142712Y-74093669D01*
X124274212Y-74201588D01*
X124382131Y-74333088D01*
X124382133Y-74333092D01*
X124382134Y-74333093D01*
X124462321Y-74483113D01*
X124462322Y-74483116D01*
X124511704Y-74645905D01*
X124528378Y-74815200D01*
X124511704Y-74984495D01*
X124462322Y-75147284D01*
X124462321Y-75147287D01*
X124382134Y-75297307D01*
X124382131Y-75297312D01*
X124274212Y-75428812D01*
X124142712Y-75536731D01*
X124142708Y-75536733D01*
X124142707Y-75536734D01*
X123992687Y-75616921D01*
X123992684Y-75616922D01*
X123829895Y-75666304D01*
X123745312Y-75674635D01*
X123703021Y-75678800D01*
X123618179Y-75678800D01*
X123575888Y-75674635D01*
X123491305Y-75666304D01*
X123328516Y-75616922D01*
X123328513Y-75616921D01*
X123178493Y-75536734D01*
X123178492Y-75536733D01*
X123178488Y-75536731D01*
X123046988Y-75428812D01*
X122939069Y-75297312D01*
X122939066Y-75297307D01*
X122858879Y-75147287D01*
X122858878Y-75147284D01*
X122809496Y-74984495D01*
X122792822Y-74815200D01*
X122809496Y-74645905D01*
X122858878Y-74483116D01*
X122858879Y-74483113D01*
X122939066Y-74333093D01*
X122939067Y-74333092D01*
X122939069Y-74333088D01*
X123046988Y-74201588D01*
X123178488Y-74093669D01*
X123178492Y-74093667D01*
X123178493Y-74093666D01*
X123328513Y-74013479D01*
X123328516Y-74013478D01*
X123491305Y-73964096D01*
X123575888Y-73955765D01*
X123618179Y-73951600D01*
X123703021Y-73951600D01*
X123745312Y-73955765D01*
X123745312Y-73955765D01*
G37*
G36*
X126285312Y-73955765D02*
G01*
X126369895Y-73964096D01*
X126532684Y-74013478D01*
X126532687Y-74013479D01*
X126682707Y-74093666D01*
X126682708Y-74093667D01*
X126682712Y-74093669D01*
X126814212Y-74201588D01*
X126922131Y-74333088D01*
X126922133Y-74333092D01*
X126922134Y-74333093D01*
X127002321Y-74483113D01*
X127002322Y-74483116D01*
X127051704Y-74645905D01*
X127068378Y-74815200D01*
X127051704Y-74984495D01*
X127002322Y-75147284D01*
X127002321Y-75147287D01*
X126922134Y-75297307D01*
X126922131Y-75297312D01*
X126814212Y-75428812D01*
X126682712Y-75536731D01*
X126682708Y-75536733D01*
X126682707Y-75536734D01*
X126532687Y-75616921D01*
X126532684Y-75616922D01*
X126369895Y-75666304D01*
X126285312Y-75674635D01*
X126243021Y-75678800D01*
X126158179Y-75678800D01*
X126115888Y-75674635D01*
X126031305Y-75666304D01*
X125868516Y-75616922D01*
X125868513Y-75616921D01*
X125718493Y-75536734D01*
X125718492Y-75536733D01*
X125718488Y-75536731D01*
X125586988Y-75428812D01*
X125479069Y-75297312D01*
X125479066Y-75297307D01*
X125398879Y-75147287D01*
X125398878Y-75147284D01*
X125349496Y-74984495D01*
X125332822Y-74815200D01*
X125349496Y-74645905D01*
X125398878Y-74483116D01*
X125398879Y-74483113D01*
X125479066Y-74333093D01*
X125479067Y-74333092D01*
X125479069Y-74333088D01*
X125586988Y-74201588D01*
X125718488Y-74093669D01*
X125718492Y-74093667D01*
X125718493Y-74093666D01*
X125868513Y-74013479D01*
X125868516Y-74013478D01*
X126031305Y-73964096D01*
X126115888Y-73955765D01*
X126158179Y-73951600D01*
X126243021Y-73951600D01*
X126285312Y-73955765D01*
X126285312Y-73955765D01*
G37*
G36*
X128825312Y-73955765D02*
G01*
X128909895Y-73964096D01*
X129072684Y-74013478D01*
X129072687Y-74013479D01*
X129222707Y-74093666D01*
X129222708Y-74093667D01*
X129222712Y-74093669D01*
X129354212Y-74201588D01*
X129462131Y-74333088D01*
X129462133Y-74333092D01*
X129462134Y-74333093D01*
X129542321Y-74483113D01*
X129542322Y-74483116D01*
X129591704Y-74645905D01*
X129608378Y-74815200D01*
X129591704Y-74984495D01*
X129542322Y-75147284D01*
X129542321Y-75147287D01*
X129462134Y-75297307D01*
X129462131Y-75297312D01*
X129354212Y-75428812D01*
X129222712Y-75536731D01*
X129222708Y-75536733D01*
X129222707Y-75536734D01*
X129072687Y-75616921D01*
X129072684Y-75616922D01*
X128909895Y-75666304D01*
X128825312Y-75674635D01*
X128783021Y-75678800D01*
X128698179Y-75678800D01*
X128655888Y-75674635D01*
X128571305Y-75666304D01*
X128408516Y-75616922D01*
X128408513Y-75616921D01*
X128258493Y-75536734D01*
X128258492Y-75536733D01*
X128258488Y-75536731D01*
X128126988Y-75428812D01*
X128019069Y-75297312D01*
X128019066Y-75297307D01*
X127938879Y-75147287D01*
X127938878Y-75147284D01*
X127889496Y-74984495D01*
X127872822Y-74815200D01*
X127889496Y-74645905D01*
X127938878Y-74483116D01*
X127938879Y-74483113D01*
X128019066Y-74333093D01*
X128019067Y-74333092D01*
X128019069Y-74333088D01*
X128126988Y-74201588D01*
X128258488Y-74093669D01*
X128258492Y-74093667D01*
X128258493Y-74093666D01*
X128408513Y-74013479D01*
X128408516Y-74013478D01*
X128571305Y-73964096D01*
X128655888Y-73955765D01*
X128698179Y-73951600D01*
X128783021Y-73951600D01*
X128825312Y-73955765D01*
X128825312Y-73955765D01*
G37*
G36*
X131365312Y-73955765D02*
G01*
X131449895Y-73964096D01*
X131612684Y-74013478D01*
X131612687Y-74013479D01*
X131762707Y-74093666D01*
X131762708Y-74093667D01*
X131762712Y-74093669D01*
X131894212Y-74201588D01*
X132002131Y-74333088D01*
X132002133Y-74333092D01*
X132002134Y-74333093D01*
X132082321Y-74483113D01*
X132082322Y-74483116D01*
X132131704Y-74645905D01*
X132148378Y-74815200D01*
X132131704Y-74984495D01*
X132082322Y-75147284D01*
X132082321Y-75147287D01*
X132002134Y-75297307D01*
X132002131Y-75297312D01*
X131894212Y-75428812D01*
X131762712Y-75536731D01*
X131762708Y-75536733D01*
X131762707Y-75536734D01*
X131612687Y-75616921D01*
X131612684Y-75616922D01*
X131449895Y-75666304D01*
X131365312Y-75674635D01*
X131323021Y-75678800D01*
X131238179Y-75678800D01*
X131195888Y-75674635D01*
X131111305Y-75666304D01*
X130948516Y-75616922D01*
X130948513Y-75616921D01*
X130798493Y-75536734D01*
X130798492Y-75536733D01*
X130798488Y-75536731D01*
X130666988Y-75428812D01*
X130559069Y-75297312D01*
X130559066Y-75297307D01*
X130478879Y-75147287D01*
X130478878Y-75147284D01*
X130429496Y-74984495D01*
X130412822Y-74815200D01*
X130429496Y-74645905D01*
X130478878Y-74483116D01*
X130478879Y-74483113D01*
X130559066Y-74333093D01*
X130559067Y-74333092D01*
X130559069Y-74333088D01*
X130666988Y-74201588D01*
X130798488Y-74093669D01*
X130798492Y-74093667D01*
X130798493Y-74093666D01*
X130948513Y-74013479D01*
X130948516Y-74013478D01*
X131111305Y-73964096D01*
X131195888Y-73955765D01*
X131238179Y-73951600D01*
X131323021Y-73951600D01*
X131365312Y-73955765D01*
X131365312Y-73955765D01*
G37*
G36*
X105965312Y-73955765D02*
G01*
X106049895Y-73964096D01*
X106212684Y-74013478D01*
X106212687Y-74013479D01*
X106362707Y-74093666D01*
X106362708Y-74093667D01*
X106362712Y-74093669D01*
X106494212Y-74201588D01*
X106602131Y-74333088D01*
X106602133Y-74333092D01*
X106602134Y-74333093D01*
X106682321Y-74483113D01*
X106682322Y-74483116D01*
X106731704Y-74645905D01*
X106748378Y-74815200D01*
X106731704Y-74984495D01*
X106682322Y-75147284D01*
X106682321Y-75147287D01*
X106602134Y-75297307D01*
X106602131Y-75297312D01*
X106494212Y-75428812D01*
X106362712Y-75536731D01*
X106362708Y-75536733D01*
X106362707Y-75536734D01*
X106212687Y-75616921D01*
X106212684Y-75616922D01*
X106049895Y-75666304D01*
X105965312Y-75674635D01*
X105923021Y-75678800D01*
X105838179Y-75678800D01*
X105795888Y-75674635D01*
X105711305Y-75666304D01*
X105548516Y-75616922D01*
X105548513Y-75616921D01*
X105398493Y-75536734D01*
X105398492Y-75536733D01*
X105398488Y-75536731D01*
X105266988Y-75428812D01*
X105159069Y-75297312D01*
X105159066Y-75297307D01*
X105078879Y-75147287D01*
X105078878Y-75147284D01*
X105029496Y-74984495D01*
X105012822Y-74815200D01*
X105029496Y-74645905D01*
X105078878Y-74483116D01*
X105078879Y-74483113D01*
X105159066Y-74333093D01*
X105159067Y-74333092D01*
X105159069Y-74333088D01*
X105266988Y-74201588D01*
X105398488Y-74093669D01*
X105398492Y-74093667D01*
X105398493Y-74093666D01*
X105548513Y-74013479D01*
X105548516Y-74013478D01*
X105711305Y-73964096D01*
X105795888Y-73955765D01*
X105838179Y-73951600D01*
X105923021Y-73951600D01*
X105965312Y-73955765D01*
X105965312Y-73955765D01*
G37*
M02*
