G04 #@! TF.GenerationSoftware,KiCad,Pcbnew,(5.1.0)-1*
G04 #@! TF.CreationDate,2019-03-28T22:22:43+01:00*
G04 #@! TF.ProjectId,debounce_shield,6465626f-756e-4636-955f-736869656c64,rev?*
G04 #@! TF.SameCoordinates,Original*
G04 #@! TF.FileFunction,Soldermask,Top*
G04 #@! TF.FilePolarity,Negative*
%FSLAX46Y46*%
G04 Gerber Fmt 4.6, Leading zero omitted, Abs format (unit mm)*
G04 Created by KiCad (PCBNEW (5.1.0)-1) date 2019-03-28 22:22:43*
%MOMM*%
%LPD*%
G04 APERTURE LIST*
%ADD10C,0.150000*%
G04 APERTURE END LIST*
D10*
G36*
X159271786Y-121343173D02*
G01*
X159745512Y-121437403D01*
X160058327Y-121566975D01*
X160291908Y-121663727D01*
X160382472Y-121701240D01*
X160955720Y-122084272D01*
X161443228Y-122571780D01*
X161792318Y-123094230D01*
X161826261Y-123145030D01*
X162090097Y-123781989D01*
X162224600Y-124458179D01*
X162224600Y-125147621D01*
X162196929Y-125286730D01*
X162090097Y-125823812D01*
X161826260Y-126460772D01*
X161443228Y-127034020D01*
X160955720Y-127521528D01*
X160382472Y-127904560D01*
X159745512Y-128168397D01*
X159407416Y-128235648D01*
X159069321Y-128302900D01*
X158379879Y-128302900D01*
X158041784Y-128235648D01*
X157703688Y-128168397D01*
X157066728Y-127904560D01*
X156493480Y-127521528D01*
X156005972Y-127034020D01*
X155622940Y-126460772D01*
X155359103Y-125823812D01*
X155252271Y-125286730D01*
X155224600Y-125147621D01*
X155224600Y-124458179D01*
X155359103Y-123781989D01*
X155622939Y-123145030D01*
X155656882Y-123094230D01*
X156005972Y-122571780D01*
X156493480Y-122084272D01*
X157066728Y-121701240D01*
X157157293Y-121663727D01*
X157390873Y-121566975D01*
X157703688Y-121437403D01*
X158177414Y-121343173D01*
X158379879Y-121302900D01*
X159069321Y-121302900D01*
X159271786Y-121343173D01*
X159271786Y-121343173D01*
G37*
G36*
X101819109Y-121302900D02*
G01*
X102239912Y-121386603D01*
X102615393Y-121542132D01*
X102862479Y-121644478D01*
X102876872Y-121650440D01*
X103450120Y-122033472D01*
X103937628Y-122520980D01*
X104320660Y-123094228D01*
X104584497Y-123731188D01*
X104719000Y-124407380D01*
X104719000Y-125096820D01*
X104584497Y-125773012D01*
X104320660Y-126409972D01*
X103937628Y-126983220D01*
X103450120Y-127470728D01*
X102876872Y-127853760D01*
X102239912Y-128117597D01*
X101984523Y-128168397D01*
X101563721Y-128252100D01*
X100874279Y-128252100D01*
X100453477Y-128168397D01*
X100198088Y-128117597D01*
X99561128Y-127853760D01*
X98987880Y-127470728D01*
X98500372Y-126983220D01*
X98117340Y-126409972D01*
X97853503Y-125773012D01*
X97719000Y-125096820D01*
X97719000Y-124407380D01*
X97853503Y-123731188D01*
X98117340Y-123094228D01*
X98500372Y-122520980D01*
X98987880Y-122033472D01*
X99561128Y-121650440D01*
X99575522Y-121644478D01*
X99822607Y-121542132D01*
X100198088Y-121386603D01*
X100618891Y-121302900D01*
X100874279Y-121252100D01*
X101563721Y-121252100D01*
X101819109Y-121302900D01*
X101819109Y-121302900D01*
G37*
G36*
X142957343Y-124487214D02*
G01*
X142957346Y-124487215D01*
X142957345Y-124487215D01*
X143048339Y-124524906D01*
X143089563Y-124552451D01*
X143130230Y-124579624D01*
X143199876Y-124649270D01*
X143254595Y-124731163D01*
X143292286Y-124822157D01*
X143311500Y-124918753D01*
X143311500Y-125017247D01*
X143292286Y-125113843D01*
X143292285Y-125113845D01*
X143254594Y-125204839D01*
X143199875Y-125286731D01*
X143130231Y-125356375D01*
X143048339Y-125411094D01*
X143048338Y-125411095D01*
X143048337Y-125411095D01*
X142957343Y-125448786D01*
X142860747Y-125468000D01*
X142762253Y-125468000D01*
X142665657Y-125448786D01*
X142574663Y-125411095D01*
X142574662Y-125411095D01*
X142574661Y-125411094D01*
X142492769Y-125356375D01*
X142423125Y-125286731D01*
X142368406Y-125204839D01*
X142330715Y-125113845D01*
X142330714Y-125113843D01*
X142311500Y-125017247D01*
X142311500Y-124918753D01*
X142330714Y-124822157D01*
X142368405Y-124731163D01*
X142423124Y-124649270D01*
X142492770Y-124579624D01*
X142533437Y-124552451D01*
X142574661Y-124524906D01*
X142665655Y-124487215D01*
X142665654Y-124487215D01*
X142665657Y-124487214D01*
X142762253Y-124468000D01*
X142860747Y-124468000D01*
X142957343Y-124487214D01*
X142957343Y-124487214D01*
G37*
G36*
X131405522Y-121504039D02*
G01*
X131439057Y-121514212D01*
X131469956Y-121530728D01*
X131497043Y-121552957D01*
X131519272Y-121580044D01*
X131535788Y-121610943D01*
X131545961Y-121644478D01*
X131550000Y-121685487D01*
X131550000Y-122714513D01*
X131545961Y-122755522D01*
X131535788Y-122789057D01*
X131519272Y-122819956D01*
X131497043Y-122847043D01*
X131469956Y-122869272D01*
X131439057Y-122885788D01*
X131405522Y-122895961D01*
X131364513Y-122900000D01*
X130585487Y-122900000D01*
X130544478Y-122895961D01*
X130510943Y-122885788D01*
X130480044Y-122869272D01*
X130452957Y-122847043D01*
X130430728Y-122819956D01*
X130414212Y-122789057D01*
X130404039Y-122755522D01*
X130400000Y-122714513D01*
X130400000Y-121685487D01*
X130404039Y-121644478D01*
X130414212Y-121610943D01*
X130430728Y-121580044D01*
X130452957Y-121552957D01*
X130480044Y-121530728D01*
X130510943Y-121514212D01*
X130544478Y-121504039D01*
X130585487Y-121500000D01*
X131364513Y-121500000D01*
X131405522Y-121504039D01*
X131405522Y-121504039D01*
G37*
G36*
X133455522Y-121504039D02*
G01*
X133489057Y-121514212D01*
X133519956Y-121530728D01*
X133547043Y-121552957D01*
X133569272Y-121580044D01*
X133585788Y-121610943D01*
X133595961Y-121644478D01*
X133600000Y-121685487D01*
X133600000Y-122714513D01*
X133595961Y-122755522D01*
X133585788Y-122789057D01*
X133569272Y-122819956D01*
X133547043Y-122847043D01*
X133519956Y-122869272D01*
X133489057Y-122885788D01*
X133455522Y-122895961D01*
X133414513Y-122900000D01*
X132635487Y-122900000D01*
X132594478Y-122895961D01*
X132560943Y-122885788D01*
X132530044Y-122869272D01*
X132502957Y-122847043D01*
X132480728Y-122819956D01*
X132464212Y-122789057D01*
X132454039Y-122755522D01*
X132450000Y-122714513D01*
X132450000Y-121685487D01*
X132454039Y-121644478D01*
X132464212Y-121610943D01*
X132480728Y-121580044D01*
X132502957Y-121552957D01*
X132530044Y-121530728D01*
X132560943Y-121514212D01*
X132594478Y-121504039D01*
X132635487Y-121500000D01*
X133414513Y-121500000D01*
X133455522Y-121504039D01*
X133455522Y-121504039D01*
G37*
G36*
X146338964Y-121466337D02*
G01*
X146370525Y-121475912D01*
X146399620Y-121491463D01*
X146425115Y-121512385D01*
X146446037Y-121537880D01*
X146461588Y-121566975D01*
X146471163Y-121598536D01*
X146475000Y-121637498D01*
X146475000Y-122712502D01*
X146471163Y-122751464D01*
X146461588Y-122783025D01*
X146446037Y-122812120D01*
X146425115Y-122837615D01*
X146399620Y-122858537D01*
X146370525Y-122874088D01*
X146338964Y-122883663D01*
X146300002Y-122887500D01*
X144899998Y-122887500D01*
X144861036Y-122883663D01*
X144829475Y-122874088D01*
X144800380Y-122858537D01*
X144774885Y-122837615D01*
X144753963Y-122812120D01*
X144738412Y-122783025D01*
X144728837Y-122751464D01*
X144725000Y-122712502D01*
X144725000Y-121637498D01*
X144728837Y-121598536D01*
X144738412Y-121566975D01*
X144753963Y-121537880D01*
X144774885Y-121512385D01*
X144800380Y-121491463D01*
X144829475Y-121475912D01*
X144861036Y-121466337D01*
X144899998Y-121462500D01*
X146300002Y-121462500D01*
X146338964Y-121466337D01*
X146338964Y-121466337D01*
G37*
G36*
X143800000Y-122300000D02*
G01*
X142200000Y-122300000D01*
X142200000Y-120700000D01*
X143800000Y-120700000D01*
X143800000Y-122300000D01*
X143800000Y-122300000D01*
G37*
G36*
X135458471Y-120703859D02*
G01*
X135536827Y-120711576D01*
X135687628Y-120757321D01*
X135687630Y-120757322D01*
X135826605Y-120831606D01*
X135826607Y-120831607D01*
X135826606Y-120831607D01*
X135948422Y-120931578D01*
X136048393Y-121053394D01*
X136122679Y-121192372D01*
X136168424Y-121343173D01*
X136183870Y-121500000D01*
X136168424Y-121656827D01*
X136122679Y-121807628D01*
X136122678Y-121807630D01*
X136048394Y-121946605D01*
X135948422Y-122068422D01*
X135826605Y-122168394D01*
X135687630Y-122242678D01*
X135687628Y-122242679D01*
X135536827Y-122288424D01*
X135458471Y-122296141D01*
X135419294Y-122300000D01*
X135340706Y-122300000D01*
X135301529Y-122296141D01*
X135223173Y-122288424D01*
X135072372Y-122242679D01*
X135072370Y-122242678D01*
X134933395Y-122168394D01*
X134811578Y-122068422D01*
X134711606Y-121946605D01*
X134637322Y-121807630D01*
X134637321Y-121807628D01*
X134591576Y-121656827D01*
X134576130Y-121500000D01*
X134591576Y-121343173D01*
X134637321Y-121192372D01*
X134711607Y-121053394D01*
X134811578Y-120931578D01*
X134933394Y-120831607D01*
X134933393Y-120831607D01*
X134933395Y-120831606D01*
X135072370Y-120757322D01*
X135072372Y-120757321D01*
X135223173Y-120711576D01*
X135301529Y-120703859D01*
X135340706Y-120700000D01*
X135419294Y-120700000D01*
X135458471Y-120703859D01*
X135458471Y-120703859D01*
G37*
G36*
X131550000Y-120500000D02*
G01*
X130650000Y-120500000D01*
X130650000Y-117500000D01*
X131550000Y-117500000D01*
X131550000Y-120500000D01*
X131550000Y-120500000D01*
G37*
G36*
X133350000Y-120500000D02*
G01*
X132450000Y-120500000D01*
X132450000Y-117500000D01*
X133350000Y-117500000D01*
X133350000Y-120500000D01*
X133350000Y-120500000D01*
G37*
G36*
X146338964Y-118491337D02*
G01*
X146370525Y-118500912D01*
X146399620Y-118516463D01*
X146425115Y-118537385D01*
X146446037Y-118562880D01*
X146461588Y-118591975D01*
X146471163Y-118623536D01*
X146475000Y-118662498D01*
X146475000Y-119737502D01*
X146471163Y-119776464D01*
X146461588Y-119808025D01*
X146446037Y-119837120D01*
X146425115Y-119862615D01*
X146399620Y-119883537D01*
X146370525Y-119899088D01*
X146338964Y-119908663D01*
X146300002Y-119912500D01*
X144899998Y-119912500D01*
X144861036Y-119908663D01*
X144829475Y-119899088D01*
X144800380Y-119883537D01*
X144774885Y-119862615D01*
X144753963Y-119837120D01*
X144738412Y-119808025D01*
X144728837Y-119776464D01*
X144725000Y-119737502D01*
X144725000Y-118662498D01*
X144728837Y-118623536D01*
X144738412Y-118591975D01*
X144753963Y-118562880D01*
X144774885Y-118537385D01*
X144800380Y-118516463D01*
X144829475Y-118500912D01*
X144861036Y-118491337D01*
X144899998Y-118487500D01*
X146300002Y-118487500D01*
X146338964Y-118491337D01*
X146338964Y-118491337D01*
G37*
G36*
X135458471Y-118163859D02*
G01*
X135536827Y-118171576D01*
X135687628Y-118217321D01*
X135687630Y-118217322D01*
X135826605Y-118291606D01*
X135948422Y-118391578D01*
X136048394Y-118513395D01*
X136057073Y-118529633D01*
X136122679Y-118652372D01*
X136168424Y-118803173D01*
X136183870Y-118960000D01*
X136168424Y-119116827D01*
X136122679Y-119267628D01*
X136122678Y-119267630D01*
X136048394Y-119406605D01*
X135948422Y-119528422D01*
X135826605Y-119628394D01*
X135762797Y-119662500D01*
X135687628Y-119702679D01*
X135536827Y-119748424D01*
X135458471Y-119756141D01*
X135419294Y-119760000D01*
X135340706Y-119760000D01*
X135301529Y-119756141D01*
X135223173Y-119748424D01*
X135072372Y-119702679D01*
X134997203Y-119662500D01*
X134933395Y-119628394D01*
X134811578Y-119528422D01*
X134711606Y-119406605D01*
X134637322Y-119267630D01*
X134637321Y-119267628D01*
X134591576Y-119116827D01*
X134576130Y-118960000D01*
X134591576Y-118803173D01*
X134637321Y-118652372D01*
X134702927Y-118529633D01*
X134711606Y-118513395D01*
X134811578Y-118391578D01*
X134933395Y-118291606D01*
X135072370Y-118217322D01*
X135072372Y-118217321D01*
X135223173Y-118171576D01*
X135301529Y-118163859D01*
X135340706Y-118160000D01*
X135419294Y-118160000D01*
X135458471Y-118163859D01*
X135458471Y-118163859D01*
G37*
G36*
X143078471Y-118163859D02*
G01*
X143156827Y-118171576D01*
X143307628Y-118217321D01*
X143307630Y-118217322D01*
X143446605Y-118291606D01*
X143568422Y-118391578D01*
X143668394Y-118513395D01*
X143677073Y-118529633D01*
X143742679Y-118652372D01*
X143788424Y-118803173D01*
X143803870Y-118960000D01*
X143788424Y-119116827D01*
X143742679Y-119267628D01*
X143742678Y-119267630D01*
X143668394Y-119406605D01*
X143568422Y-119528422D01*
X143446605Y-119628394D01*
X143382797Y-119662500D01*
X143307628Y-119702679D01*
X143156827Y-119748424D01*
X143078471Y-119756141D01*
X143039294Y-119760000D01*
X142960706Y-119760000D01*
X142921529Y-119756141D01*
X142843173Y-119748424D01*
X142692372Y-119702679D01*
X142617203Y-119662500D01*
X142553395Y-119628394D01*
X142431578Y-119528422D01*
X142331606Y-119406605D01*
X142257322Y-119267630D01*
X142257321Y-119267628D01*
X142211576Y-119116827D01*
X142196130Y-118960000D01*
X142211576Y-118803173D01*
X142257321Y-118652372D01*
X142322927Y-118529633D01*
X142331606Y-118513395D01*
X142431578Y-118391578D01*
X142553395Y-118291606D01*
X142692370Y-118217322D01*
X142692372Y-118217321D01*
X142843173Y-118171576D01*
X142921529Y-118163859D01*
X142960706Y-118160000D01*
X143039294Y-118160000D01*
X143078471Y-118163859D01*
X143078471Y-118163859D01*
G37*
G36*
X112462327Y-117551699D02*
G01*
X112542442Y-117576002D01*
X112622555Y-117600303D01*
X112622557Y-117600304D01*
X112770218Y-117679231D01*
X112899649Y-117785451D01*
X113005868Y-117914881D01*
X113084797Y-118062545D01*
X113109099Y-118142658D01*
X113133401Y-118222773D01*
X113149812Y-118389400D01*
X113133401Y-118556027D01*
X113084796Y-118716257D01*
X113005869Y-118863918D01*
X112899649Y-118993349D01*
X112770218Y-119099569D01*
X112622557Y-119178496D01*
X112622555Y-119178497D01*
X112542442Y-119202798D01*
X112462327Y-119227101D01*
X112337452Y-119239400D01*
X110953948Y-119239400D01*
X110829073Y-119227101D01*
X110748958Y-119202798D01*
X110668845Y-119178497D01*
X110668843Y-119178496D01*
X110521182Y-119099569D01*
X110391751Y-118993349D01*
X110285531Y-118863918D01*
X110206604Y-118716257D01*
X110157999Y-118556027D01*
X110141588Y-118389400D01*
X110157999Y-118222773D01*
X110182301Y-118142658D01*
X110206603Y-118062545D01*
X110285532Y-117914881D01*
X110391751Y-117785451D01*
X110521182Y-117679231D01*
X110668843Y-117600304D01*
X110668845Y-117600303D01*
X110748958Y-117576002D01*
X110829073Y-117551699D01*
X110953948Y-117539400D01*
X112337452Y-117539400D01*
X112462327Y-117551699D01*
X112462327Y-117551699D01*
G37*
G36*
X135455195Y-115623536D02*
G01*
X135536827Y-115631576D01*
X135687628Y-115677321D01*
X135687630Y-115677322D01*
X135826605Y-115751606D01*
X135948422Y-115851578D01*
X136048394Y-115973395D01*
X136092562Y-116056027D01*
X136122679Y-116112372D01*
X136168424Y-116263173D01*
X136183870Y-116420000D01*
X136168424Y-116576827D01*
X136122679Y-116727628D01*
X136122678Y-116727630D01*
X136048394Y-116866605D01*
X135948422Y-116988422D01*
X135826605Y-117088394D01*
X135687630Y-117162678D01*
X135687628Y-117162679D01*
X135536827Y-117208424D01*
X135458471Y-117216141D01*
X135419294Y-117220000D01*
X135340706Y-117220000D01*
X135301529Y-117216141D01*
X135223173Y-117208424D01*
X135072372Y-117162679D01*
X135072370Y-117162678D01*
X134933395Y-117088394D01*
X134811578Y-116988422D01*
X134711606Y-116866605D01*
X134637322Y-116727630D01*
X134637321Y-116727628D01*
X134591576Y-116576827D01*
X134576130Y-116420000D01*
X134591576Y-116263173D01*
X134637321Y-116112372D01*
X134667438Y-116056027D01*
X134711606Y-115973395D01*
X134811578Y-115851578D01*
X134933395Y-115751606D01*
X135072370Y-115677322D01*
X135072372Y-115677321D01*
X135223173Y-115631576D01*
X135304805Y-115623536D01*
X135340706Y-115620000D01*
X135419294Y-115620000D01*
X135455195Y-115623536D01*
X135455195Y-115623536D01*
G37*
G36*
X143075195Y-115623536D02*
G01*
X143156827Y-115631576D01*
X143307628Y-115677321D01*
X143307630Y-115677322D01*
X143446605Y-115751606D01*
X143568422Y-115851578D01*
X143668394Y-115973395D01*
X143712562Y-116056027D01*
X143742679Y-116112372D01*
X143788424Y-116263173D01*
X143803870Y-116420000D01*
X143788424Y-116576827D01*
X143742679Y-116727628D01*
X143742678Y-116727630D01*
X143668394Y-116866605D01*
X143568422Y-116988422D01*
X143446605Y-117088394D01*
X143307630Y-117162678D01*
X143307628Y-117162679D01*
X143156827Y-117208424D01*
X143078471Y-117216141D01*
X143039294Y-117220000D01*
X142960706Y-117220000D01*
X142921529Y-117216141D01*
X142843173Y-117208424D01*
X142692372Y-117162679D01*
X142692370Y-117162678D01*
X142553395Y-117088394D01*
X142431578Y-116988422D01*
X142331606Y-116866605D01*
X142257322Y-116727630D01*
X142257321Y-116727628D01*
X142211576Y-116576827D01*
X142196130Y-116420000D01*
X142211576Y-116263173D01*
X142257321Y-116112372D01*
X142287438Y-116056027D01*
X142331606Y-115973395D01*
X142431578Y-115851578D01*
X142553395Y-115751606D01*
X142692370Y-115677322D01*
X142692372Y-115677321D01*
X142843173Y-115631576D01*
X142924805Y-115623536D01*
X142960706Y-115620000D01*
X143039294Y-115620000D01*
X143075195Y-115623536D01*
X143075195Y-115623536D01*
G37*
G36*
X146338964Y-115491337D02*
G01*
X146370525Y-115500912D01*
X146399620Y-115516463D01*
X146425115Y-115537385D01*
X146446037Y-115562880D01*
X146461588Y-115591975D01*
X146471163Y-115623536D01*
X146475000Y-115662498D01*
X146475000Y-116737502D01*
X146471163Y-116776464D01*
X146461588Y-116808025D01*
X146446037Y-116837120D01*
X146425115Y-116862615D01*
X146399620Y-116883537D01*
X146370525Y-116899088D01*
X146338964Y-116908663D01*
X146300002Y-116912500D01*
X144899998Y-116912500D01*
X144861036Y-116908663D01*
X144829475Y-116899088D01*
X144800380Y-116883537D01*
X144774885Y-116862615D01*
X144753963Y-116837120D01*
X144738412Y-116808025D01*
X144728837Y-116776464D01*
X144725000Y-116737502D01*
X144725000Y-115662498D01*
X144728837Y-115623536D01*
X144738412Y-115591975D01*
X144753963Y-115562880D01*
X144774885Y-115537385D01*
X144800380Y-115516463D01*
X144829475Y-115500912D01*
X144861036Y-115491337D01*
X144899998Y-115487500D01*
X146300002Y-115487500D01*
X146338964Y-115491337D01*
X146338964Y-115491337D01*
G37*
G36*
X150816627Y-115162299D02*
G01*
X150896742Y-115186601D01*
X150976855Y-115210903D01*
X150976857Y-115210904D01*
X151124518Y-115289831D01*
X151253949Y-115396051D01*
X151360169Y-115525482D01*
X151395710Y-115591975D01*
X151439097Y-115673145D01*
X151454151Y-115722773D01*
X151487701Y-115833373D01*
X151504112Y-116000000D01*
X151487701Y-116166627D01*
X151472646Y-116216257D01*
X151442841Y-116314513D01*
X151439096Y-116326857D01*
X151360169Y-116474518D01*
X151253949Y-116603949D01*
X151124518Y-116710169D01*
X150976857Y-116789096D01*
X150976855Y-116789097D01*
X150914456Y-116808025D01*
X150816627Y-116837701D01*
X150691752Y-116850000D01*
X149308248Y-116850000D01*
X149183373Y-116837701D01*
X149085544Y-116808025D01*
X149023145Y-116789097D01*
X149023143Y-116789096D01*
X148875482Y-116710169D01*
X148746051Y-116603949D01*
X148639831Y-116474518D01*
X148560904Y-116326857D01*
X148557160Y-116314513D01*
X148527354Y-116216257D01*
X148512299Y-116166627D01*
X148495888Y-116000000D01*
X148512299Y-115833373D01*
X148545849Y-115722773D01*
X148560903Y-115673145D01*
X148604290Y-115591975D01*
X148639831Y-115525482D01*
X148746051Y-115396051D01*
X148875482Y-115289831D01*
X149023143Y-115210904D01*
X149023145Y-115210903D01*
X149103258Y-115186601D01*
X149183373Y-115162299D01*
X149308248Y-115150000D01*
X150691752Y-115150000D01*
X150816627Y-115162299D01*
X150816627Y-115162299D01*
G37*
G36*
X117462327Y-115051699D02*
G01*
X117542442Y-115076002D01*
X117622555Y-115100303D01*
X117622557Y-115100304D01*
X117770218Y-115179231D01*
X117899649Y-115285451D01*
X118005869Y-115414882D01*
X118064986Y-115525481D01*
X118084797Y-115562545D01*
X118093724Y-115591975D01*
X118133401Y-115722773D01*
X118149812Y-115889400D01*
X118133401Y-116056027D01*
X118133400Y-116056029D01*
X118099851Y-116166629D01*
X118084796Y-116216257D01*
X118005869Y-116363918D01*
X117899649Y-116493349D01*
X117770218Y-116599569D01*
X117652483Y-116662500D01*
X117622555Y-116678497D01*
X117542442Y-116702798D01*
X117462327Y-116727101D01*
X117337452Y-116739400D01*
X115953948Y-116739400D01*
X115829073Y-116727101D01*
X115748958Y-116702798D01*
X115668845Y-116678497D01*
X115638917Y-116662500D01*
X115521182Y-116599569D01*
X115391751Y-116493349D01*
X115285531Y-116363918D01*
X115206604Y-116216257D01*
X115191550Y-116166629D01*
X115158000Y-116056029D01*
X115157999Y-116056027D01*
X115141588Y-115889400D01*
X115157999Y-115722773D01*
X115197676Y-115591975D01*
X115206603Y-115562545D01*
X115226414Y-115525481D01*
X115285531Y-115414882D01*
X115391751Y-115285451D01*
X115521182Y-115179231D01*
X115668843Y-115100304D01*
X115668845Y-115100303D01*
X115748958Y-115076002D01*
X115829073Y-115051699D01*
X115953948Y-115039400D01*
X117337452Y-115039400D01*
X117462327Y-115051699D01*
X117462327Y-115051699D01*
G37*
G36*
X133455522Y-115104039D02*
G01*
X133489057Y-115114212D01*
X133519956Y-115130728D01*
X133547043Y-115152957D01*
X133569272Y-115180044D01*
X133585788Y-115210943D01*
X133595961Y-115244478D01*
X133600000Y-115285487D01*
X133600000Y-116314513D01*
X133595961Y-116355522D01*
X133585788Y-116389057D01*
X133569272Y-116419956D01*
X133547043Y-116447043D01*
X133519956Y-116469272D01*
X133489057Y-116485788D01*
X133455522Y-116495961D01*
X133414513Y-116500000D01*
X132635487Y-116500000D01*
X132594478Y-116495961D01*
X132560943Y-116485788D01*
X132530044Y-116469272D01*
X132502957Y-116447043D01*
X132480728Y-116419956D01*
X132464212Y-116389057D01*
X132454039Y-116355522D01*
X132450000Y-116314513D01*
X132450000Y-115285487D01*
X132454039Y-115244478D01*
X132464212Y-115210943D01*
X132480728Y-115180044D01*
X132502957Y-115152957D01*
X132530044Y-115130728D01*
X132560943Y-115114212D01*
X132594478Y-115104039D01*
X132635487Y-115100000D01*
X133414513Y-115100000D01*
X133455522Y-115104039D01*
X133455522Y-115104039D01*
G37*
G36*
X131405522Y-115104039D02*
G01*
X131439057Y-115114212D01*
X131469956Y-115130728D01*
X131497043Y-115152957D01*
X131519272Y-115180044D01*
X131535788Y-115210943D01*
X131545961Y-115244478D01*
X131550000Y-115285487D01*
X131550000Y-116314513D01*
X131545961Y-116355522D01*
X131535788Y-116389057D01*
X131519272Y-116419956D01*
X131497043Y-116447043D01*
X131469956Y-116469272D01*
X131439057Y-116485788D01*
X131405522Y-116495961D01*
X131364513Y-116500000D01*
X130585487Y-116500000D01*
X130544478Y-116495961D01*
X130510943Y-116485788D01*
X130480044Y-116469272D01*
X130452957Y-116447043D01*
X130430728Y-116419956D01*
X130414212Y-116389057D01*
X130404039Y-116355522D01*
X130400000Y-116314513D01*
X130400000Y-115285487D01*
X130404039Y-115244478D01*
X130414212Y-115210943D01*
X130430728Y-115180044D01*
X130452957Y-115152957D01*
X130480044Y-115130728D01*
X130510943Y-115114212D01*
X130544478Y-115104039D01*
X130585487Y-115100000D01*
X131364513Y-115100000D01*
X131405522Y-115104039D01*
X131405522Y-115104039D01*
G37*
G36*
X135458471Y-113083859D02*
G01*
X135536827Y-113091576D01*
X135687628Y-113137321D01*
X135687630Y-113137322D01*
X135826605Y-113211606D01*
X135948422Y-113311578D01*
X136048394Y-113433395D01*
X136122678Y-113572370D01*
X136122679Y-113572372D01*
X136168424Y-113723173D01*
X136183870Y-113880000D01*
X136168424Y-114036827D01*
X136122679Y-114187628D01*
X136122678Y-114187630D01*
X136048394Y-114326605D01*
X135948422Y-114448422D01*
X135826605Y-114548394D01*
X135687630Y-114622678D01*
X135687628Y-114622679D01*
X135536827Y-114668424D01*
X135458471Y-114676141D01*
X135419294Y-114680000D01*
X135340706Y-114680000D01*
X135301529Y-114676141D01*
X135223173Y-114668424D01*
X135072372Y-114622679D01*
X135072370Y-114622678D01*
X134933395Y-114548394D01*
X134811578Y-114448422D01*
X134711606Y-114326605D01*
X134637322Y-114187630D01*
X134637321Y-114187628D01*
X134591576Y-114036827D01*
X134576130Y-113880000D01*
X134591576Y-113723173D01*
X134637321Y-113572372D01*
X134637322Y-113572370D01*
X134711606Y-113433395D01*
X134811578Y-113311578D01*
X134933395Y-113211606D01*
X135072370Y-113137322D01*
X135072372Y-113137321D01*
X135223173Y-113091576D01*
X135301529Y-113083859D01*
X135340706Y-113080000D01*
X135419294Y-113080000D01*
X135458471Y-113083859D01*
X135458471Y-113083859D01*
G37*
G36*
X143078471Y-113083859D02*
G01*
X143156827Y-113091576D01*
X143307628Y-113137321D01*
X143307630Y-113137322D01*
X143446605Y-113211606D01*
X143568422Y-113311578D01*
X143668394Y-113433395D01*
X143742678Y-113572370D01*
X143742679Y-113572372D01*
X143788424Y-113723173D01*
X143803870Y-113880000D01*
X143788424Y-114036827D01*
X143742679Y-114187628D01*
X143742678Y-114187630D01*
X143668394Y-114326605D01*
X143568422Y-114448422D01*
X143446605Y-114548394D01*
X143307630Y-114622678D01*
X143307628Y-114622679D01*
X143156827Y-114668424D01*
X143078471Y-114676141D01*
X143039294Y-114680000D01*
X142960706Y-114680000D01*
X142921529Y-114676141D01*
X142843173Y-114668424D01*
X142692372Y-114622679D01*
X142692370Y-114622678D01*
X142553395Y-114548394D01*
X142431578Y-114448422D01*
X142331606Y-114326605D01*
X142257322Y-114187630D01*
X142257321Y-114187628D01*
X142211576Y-114036827D01*
X142196130Y-113880000D01*
X142211576Y-113723173D01*
X142257321Y-113572372D01*
X142257322Y-113572370D01*
X142331606Y-113433395D01*
X142431578Y-113311578D01*
X142553395Y-113211606D01*
X142692370Y-113137322D01*
X142692372Y-113137321D01*
X142843173Y-113091576D01*
X142921529Y-113083859D01*
X142960706Y-113080000D01*
X143039294Y-113080000D01*
X143078471Y-113083859D01*
X143078471Y-113083859D01*
G37*
G36*
X155816627Y-112662299D02*
G01*
X155872448Y-112679232D01*
X155976855Y-112710903D01*
X155976857Y-112710904D01*
X156124518Y-112789831D01*
X156253949Y-112896051D01*
X156360169Y-113025482D01*
X156419949Y-113137322D01*
X156439097Y-113173145D01*
X156454151Y-113222773D01*
X156487701Y-113333373D01*
X156504112Y-113500000D01*
X156487701Y-113666627D01*
X156439096Y-113826857D01*
X156360169Y-113974518D01*
X156253949Y-114103949D01*
X156124518Y-114210169D01*
X155976857Y-114289096D01*
X155976855Y-114289097D01*
X155896742Y-114313398D01*
X155816627Y-114337701D01*
X155691752Y-114350000D01*
X154308248Y-114350000D01*
X154183373Y-114337701D01*
X154103258Y-114313398D01*
X154023145Y-114289097D01*
X154023143Y-114289096D01*
X153875482Y-114210169D01*
X153746051Y-114103949D01*
X153639831Y-113974518D01*
X153560904Y-113826857D01*
X153512299Y-113666627D01*
X153495888Y-113500000D01*
X153512299Y-113333373D01*
X153545849Y-113222773D01*
X153560903Y-113173145D01*
X153580051Y-113137322D01*
X153639831Y-113025482D01*
X153746051Y-112896051D01*
X153875482Y-112789831D01*
X154023143Y-112710904D01*
X154023145Y-112710903D01*
X154127552Y-112679232D01*
X154183373Y-112662299D01*
X154308248Y-112650000D01*
X155691752Y-112650000D01*
X155816627Y-112662299D01*
X155816627Y-112662299D01*
G37*
G36*
X112462327Y-112551699D02*
G01*
X112542442Y-112576002D01*
X112622555Y-112600303D01*
X112622557Y-112600304D01*
X112770218Y-112679231D01*
X112899649Y-112785451D01*
X113005868Y-112914881D01*
X113084797Y-113062545D01*
X113093603Y-113091576D01*
X113133401Y-113222773D01*
X113149812Y-113389400D01*
X113133401Y-113556027D01*
X113120436Y-113598767D01*
X113093520Y-113687500D01*
X113084796Y-113716257D01*
X113005869Y-113863918D01*
X112899649Y-113993349D01*
X112770218Y-114099569D01*
X112622557Y-114178496D01*
X112622555Y-114178497D01*
X112542442Y-114202798D01*
X112462327Y-114227101D01*
X112337452Y-114239400D01*
X110953948Y-114239400D01*
X110829073Y-114227101D01*
X110748958Y-114202798D01*
X110668845Y-114178497D01*
X110668843Y-114178496D01*
X110521182Y-114099569D01*
X110391751Y-113993349D01*
X110285531Y-113863918D01*
X110206604Y-113716257D01*
X110197881Y-113687500D01*
X110170964Y-113598767D01*
X110157999Y-113556027D01*
X110141588Y-113389400D01*
X110157999Y-113222773D01*
X110197797Y-113091576D01*
X110206603Y-113062545D01*
X110285532Y-112914881D01*
X110391751Y-112785451D01*
X110521182Y-112679231D01*
X110668843Y-112600304D01*
X110668845Y-112600303D01*
X110748958Y-112576002D01*
X110829073Y-112551699D01*
X110953948Y-112539400D01*
X112337452Y-112539400D01*
X112462327Y-112551699D01*
X112462327Y-112551699D01*
G37*
G36*
X146338964Y-112516337D02*
G01*
X146370525Y-112525912D01*
X146399620Y-112541463D01*
X146425115Y-112562385D01*
X146446037Y-112587880D01*
X146461588Y-112616975D01*
X146471163Y-112648536D01*
X146475000Y-112687498D01*
X146475000Y-113762502D01*
X146471163Y-113801464D01*
X146461588Y-113833025D01*
X146446037Y-113862120D01*
X146425115Y-113887615D01*
X146399620Y-113908537D01*
X146370525Y-113924088D01*
X146338964Y-113933663D01*
X146300002Y-113937500D01*
X144899998Y-113937500D01*
X144861036Y-113933663D01*
X144829475Y-113924088D01*
X144800380Y-113908537D01*
X144774885Y-113887615D01*
X144753963Y-113862120D01*
X144738412Y-113833025D01*
X144728837Y-113801464D01*
X144725000Y-113762502D01*
X144725000Y-112687498D01*
X144728837Y-112648536D01*
X144738412Y-112616975D01*
X144753963Y-112587880D01*
X144774885Y-112562385D01*
X144800380Y-112541463D01*
X144829475Y-112525912D01*
X144861036Y-112516337D01*
X144899998Y-112512500D01*
X146300002Y-112512500D01*
X146338964Y-112516337D01*
X146338964Y-112516337D01*
G37*
G36*
X105958464Y-112219737D02*
G01*
X105990025Y-112229312D01*
X106019120Y-112244863D01*
X106044615Y-112265785D01*
X106065537Y-112291280D01*
X106081088Y-112320375D01*
X106090663Y-112351936D01*
X106094500Y-112390898D01*
X106094500Y-113465902D01*
X106090663Y-113504864D01*
X106081088Y-113536425D01*
X106065537Y-113565520D01*
X106044615Y-113591015D01*
X106019120Y-113611937D01*
X105990025Y-113627488D01*
X105958464Y-113637063D01*
X105919502Y-113640900D01*
X104519498Y-113640900D01*
X104480536Y-113637063D01*
X104448975Y-113627488D01*
X104419880Y-113611937D01*
X104394385Y-113591015D01*
X104373463Y-113565520D01*
X104357912Y-113536425D01*
X104348337Y-113504864D01*
X104344500Y-113465902D01*
X104344500Y-112390898D01*
X104348337Y-112351936D01*
X104357912Y-112320375D01*
X104373463Y-112291280D01*
X104394385Y-112265785D01*
X104419880Y-112244863D01*
X104448975Y-112229312D01*
X104480536Y-112219737D01*
X104519498Y-112215900D01*
X105919502Y-112215900D01*
X105958464Y-112219737D01*
X105958464Y-112219737D01*
G37*
G36*
X150816627Y-110162299D02*
G01*
X150872448Y-110179232D01*
X150976855Y-110210903D01*
X150976857Y-110210904D01*
X151124518Y-110289831D01*
X151253949Y-110396051D01*
X151360169Y-110525482D01*
X151439096Y-110673143D01*
X151439097Y-110673145D01*
X151454151Y-110722773D01*
X151487701Y-110833373D01*
X151504112Y-111000000D01*
X151487701Y-111166627D01*
X151439096Y-111326857D01*
X151360169Y-111474518D01*
X151253949Y-111603949D01*
X151124518Y-111710169D01*
X150976857Y-111789096D01*
X150976855Y-111789097D01*
X150896742Y-111813399D01*
X150816627Y-111837701D01*
X150691752Y-111850000D01*
X149308248Y-111850000D01*
X149183373Y-111837701D01*
X149103258Y-111813399D01*
X149023145Y-111789097D01*
X149023143Y-111789096D01*
X148875482Y-111710169D01*
X148746051Y-111603949D01*
X148639831Y-111474518D01*
X148560904Y-111326857D01*
X148512299Y-111166627D01*
X148495888Y-111000000D01*
X148512299Y-110833373D01*
X148545849Y-110722773D01*
X148560903Y-110673145D01*
X148560904Y-110673143D01*
X148639831Y-110525482D01*
X148746051Y-110396051D01*
X148875482Y-110289831D01*
X149023143Y-110210904D01*
X149023145Y-110210903D01*
X149127552Y-110179232D01*
X149183373Y-110162299D01*
X149308248Y-110150000D01*
X150691752Y-110150000D01*
X150816627Y-110162299D01*
X150816627Y-110162299D01*
G37*
G36*
X117462327Y-110051699D02*
G01*
X117542442Y-110076002D01*
X117622555Y-110100303D01*
X117622557Y-110100304D01*
X117770218Y-110179231D01*
X117899649Y-110285451D01*
X118005869Y-110414882D01*
X118084198Y-110561425D01*
X118084797Y-110562545D01*
X118103368Y-110623767D01*
X118133401Y-110722773D01*
X118149812Y-110889400D01*
X118133401Y-111056027D01*
X118133400Y-111056029D01*
X118099851Y-111166629D01*
X118084796Y-111216257D01*
X118005869Y-111363918D01*
X117899649Y-111493349D01*
X117770218Y-111599569D01*
X117622557Y-111678496D01*
X117622555Y-111678497D01*
X117542442Y-111702798D01*
X117462327Y-111727101D01*
X117337452Y-111739400D01*
X115953948Y-111739400D01*
X115829073Y-111727101D01*
X115748958Y-111702798D01*
X115668845Y-111678497D01*
X115668843Y-111678496D01*
X115521182Y-111599569D01*
X115391751Y-111493349D01*
X115285531Y-111363918D01*
X115206604Y-111216257D01*
X115191550Y-111166629D01*
X115158000Y-111056029D01*
X115157999Y-111056027D01*
X115141588Y-110889400D01*
X115157999Y-110722773D01*
X115188032Y-110623767D01*
X115206603Y-110562545D01*
X115207202Y-110561425D01*
X115285531Y-110414882D01*
X115391751Y-110285451D01*
X115521182Y-110179231D01*
X115668843Y-110100304D01*
X115668845Y-110100303D01*
X115748958Y-110076002D01*
X115829073Y-110051699D01*
X115953948Y-110039400D01*
X117337452Y-110039400D01*
X117462327Y-110051699D01*
X117462327Y-110051699D01*
G37*
G36*
X105958464Y-109244737D02*
G01*
X105990025Y-109254312D01*
X106019120Y-109269863D01*
X106044615Y-109290785D01*
X106065537Y-109316280D01*
X106081088Y-109345375D01*
X106090663Y-109376936D01*
X106094500Y-109415898D01*
X106094500Y-110490902D01*
X106090663Y-110529864D01*
X106081088Y-110561425D01*
X106065537Y-110590520D01*
X106044615Y-110616015D01*
X106019120Y-110636937D01*
X105990025Y-110652488D01*
X105958464Y-110662063D01*
X105919502Y-110665900D01*
X104519498Y-110665900D01*
X104480536Y-110662063D01*
X104448975Y-110652488D01*
X104419880Y-110636937D01*
X104394385Y-110616015D01*
X104373463Y-110590520D01*
X104357912Y-110561425D01*
X104348337Y-110529864D01*
X104344500Y-110490902D01*
X104344500Y-109415898D01*
X104348337Y-109376936D01*
X104357912Y-109345375D01*
X104373463Y-109316280D01*
X104394385Y-109290785D01*
X104419880Y-109269863D01*
X104448975Y-109254312D01*
X104480536Y-109244737D01*
X104519498Y-109240900D01*
X105919502Y-109240900D01*
X105958464Y-109244737D01*
X105958464Y-109244737D01*
G37*
G36*
X125863143Y-108764614D02*
G01*
X125951935Y-108801393D01*
X125954139Y-108802306D01*
X125962698Y-108808025D01*
X126009470Y-108839277D01*
X126036031Y-108857025D01*
X126105675Y-108926669D01*
X126150230Y-108993349D01*
X126160395Y-109008563D01*
X126198086Y-109099557D01*
X126217300Y-109196153D01*
X126217300Y-109294647D01*
X126198086Y-109391243D01*
X126177009Y-109442127D01*
X126160394Y-109482239D01*
X126105675Y-109564131D01*
X126036031Y-109633775D01*
X125954139Y-109688494D01*
X125954138Y-109688495D01*
X125954137Y-109688495D01*
X125863143Y-109726186D01*
X125766547Y-109745400D01*
X125668053Y-109745400D01*
X125571457Y-109726186D01*
X125480463Y-109688495D01*
X125480462Y-109688495D01*
X125480461Y-109688494D01*
X125398569Y-109633775D01*
X125328925Y-109564131D01*
X125274206Y-109482239D01*
X125257591Y-109442127D01*
X125236514Y-109391243D01*
X125217300Y-109294647D01*
X125217300Y-109196153D01*
X125236514Y-109099557D01*
X125274205Y-109008563D01*
X125284371Y-108993349D01*
X125328925Y-108926669D01*
X125398569Y-108857025D01*
X125425131Y-108839277D01*
X125471902Y-108808025D01*
X125480461Y-108802306D01*
X125482665Y-108801393D01*
X125571457Y-108764614D01*
X125668053Y-108745400D01*
X125766547Y-108745400D01*
X125863143Y-108764614D01*
X125863143Y-108764614D01*
G37*
G36*
X155816627Y-107662299D02*
G01*
X155872448Y-107679232D01*
X155976855Y-107710903D01*
X155976857Y-107710904D01*
X156124518Y-107789831D01*
X156253949Y-107896051D01*
X156360169Y-108025482D01*
X156407093Y-108113270D01*
X156439097Y-108173145D01*
X156454151Y-108222773D01*
X156487701Y-108333373D01*
X156504112Y-108500000D01*
X156487701Y-108666627D01*
X156472646Y-108716257D01*
X156439121Y-108826777D01*
X156439096Y-108826857D01*
X156360169Y-108974518D01*
X156253949Y-109103949D01*
X156124518Y-109210169D01*
X156031422Y-109259930D01*
X155976855Y-109289097D01*
X155896742Y-109313398D01*
X155816627Y-109337701D01*
X155691752Y-109350000D01*
X154308248Y-109350000D01*
X154183373Y-109337701D01*
X154103258Y-109313398D01*
X154023145Y-109289097D01*
X153968578Y-109259930D01*
X153875482Y-109210169D01*
X153746051Y-109103949D01*
X153639831Y-108974518D01*
X153560904Y-108826857D01*
X153560880Y-108826777D01*
X153527354Y-108716257D01*
X153512299Y-108666627D01*
X153495888Y-108500000D01*
X153512299Y-108333373D01*
X153545849Y-108222773D01*
X153560903Y-108173145D01*
X153592907Y-108113270D01*
X153639831Y-108025482D01*
X153746051Y-107896051D01*
X153875482Y-107789831D01*
X154023143Y-107710904D01*
X154023145Y-107710903D01*
X154127552Y-107679232D01*
X154183373Y-107662299D01*
X154308248Y-107650000D01*
X155691752Y-107650000D01*
X155816627Y-107662299D01*
X155816627Y-107662299D01*
G37*
G36*
X112462327Y-107551699D02*
G01*
X112533282Y-107573223D01*
X112622555Y-107600303D01*
X112622557Y-107600304D01*
X112770218Y-107679231D01*
X112899649Y-107785451D01*
X113005868Y-107914881D01*
X113084797Y-108062545D01*
X113087401Y-108071129D01*
X113133401Y-108222773D01*
X113149812Y-108389400D01*
X113133401Y-108556027D01*
X113133400Y-108556029D01*
X113099851Y-108666629D01*
X113084796Y-108716257D01*
X113005869Y-108863918D01*
X112899649Y-108993349D01*
X112770218Y-109099569D01*
X112622557Y-109178496D01*
X112622555Y-109178497D01*
X112564346Y-109196154D01*
X112462327Y-109227101D01*
X112337452Y-109239400D01*
X110953948Y-109239400D01*
X110829073Y-109227101D01*
X110727054Y-109196154D01*
X110668845Y-109178497D01*
X110668843Y-109178496D01*
X110521182Y-109099569D01*
X110391751Y-108993349D01*
X110285531Y-108863918D01*
X110206604Y-108716257D01*
X110191550Y-108666629D01*
X110158000Y-108556029D01*
X110157999Y-108556027D01*
X110141588Y-108389400D01*
X110157999Y-108222773D01*
X110203999Y-108071129D01*
X110206603Y-108062545D01*
X110285532Y-107914881D01*
X110391751Y-107785451D01*
X110521182Y-107679231D01*
X110668843Y-107600304D01*
X110668845Y-107600303D01*
X110758118Y-107573223D01*
X110829073Y-107551699D01*
X110953948Y-107539400D01*
X112337452Y-107539400D01*
X112462327Y-107551699D01*
X112462327Y-107551699D01*
G37*
G36*
X146338964Y-107491337D02*
G01*
X146370525Y-107500912D01*
X146399620Y-107516463D01*
X146425115Y-107537385D01*
X146446037Y-107562880D01*
X146461588Y-107591975D01*
X146471163Y-107623536D01*
X146475000Y-107662498D01*
X146475000Y-108737502D01*
X146471163Y-108776464D01*
X146461588Y-108808025D01*
X146446037Y-108837120D01*
X146425115Y-108862615D01*
X146399620Y-108883537D01*
X146370525Y-108899088D01*
X146338964Y-108908663D01*
X146300002Y-108912500D01*
X144899998Y-108912500D01*
X144861036Y-108908663D01*
X144829475Y-108899088D01*
X144800380Y-108883537D01*
X144774885Y-108862615D01*
X144753963Y-108837120D01*
X144738412Y-108808025D01*
X144728837Y-108776464D01*
X144725000Y-108737502D01*
X144725000Y-107662498D01*
X144728837Y-107623536D01*
X144738412Y-107591975D01*
X144753963Y-107562880D01*
X144774885Y-107537385D01*
X144800380Y-107516463D01*
X144829475Y-107500912D01*
X144861036Y-107491337D01*
X144899998Y-107487500D01*
X146300002Y-107487500D01*
X146338964Y-107491337D01*
X146338964Y-107491337D01*
G37*
G36*
X133455522Y-107504039D02*
G01*
X133489057Y-107514212D01*
X133519956Y-107530728D01*
X133547043Y-107552957D01*
X133569272Y-107580044D01*
X133585788Y-107610943D01*
X133595961Y-107644478D01*
X133600000Y-107685487D01*
X133600000Y-108714513D01*
X133595961Y-108755522D01*
X133585788Y-108789057D01*
X133569272Y-108819956D01*
X133547043Y-108847043D01*
X133519956Y-108869272D01*
X133489057Y-108885788D01*
X133455522Y-108895961D01*
X133414513Y-108900000D01*
X132635487Y-108900000D01*
X132594478Y-108895961D01*
X132560943Y-108885788D01*
X132530044Y-108869272D01*
X132502957Y-108847043D01*
X132480728Y-108819956D01*
X132464212Y-108789057D01*
X132454039Y-108755522D01*
X132450000Y-108714513D01*
X132450000Y-107685487D01*
X132454039Y-107644478D01*
X132464212Y-107610943D01*
X132480728Y-107580044D01*
X132502957Y-107552957D01*
X132530044Y-107530728D01*
X132560943Y-107514212D01*
X132594478Y-107504039D01*
X132635487Y-107500000D01*
X133414513Y-107500000D01*
X133455522Y-107504039D01*
X133455522Y-107504039D01*
G37*
G36*
X131405522Y-107504039D02*
G01*
X131439057Y-107514212D01*
X131469956Y-107530728D01*
X131497043Y-107552957D01*
X131519272Y-107580044D01*
X131535788Y-107610943D01*
X131545961Y-107644478D01*
X131550000Y-107685487D01*
X131550000Y-108714513D01*
X131545961Y-108755522D01*
X131535788Y-108789057D01*
X131519272Y-108819956D01*
X131497043Y-108847043D01*
X131469956Y-108869272D01*
X131439057Y-108885788D01*
X131405522Y-108895961D01*
X131364513Y-108900000D01*
X130585487Y-108900000D01*
X130544478Y-108895961D01*
X130510943Y-108885788D01*
X130480044Y-108869272D01*
X130452957Y-108847043D01*
X130430728Y-108819956D01*
X130414212Y-108789057D01*
X130404039Y-108755522D01*
X130400000Y-108714513D01*
X130400000Y-107685487D01*
X130404039Y-107644478D01*
X130414212Y-107610943D01*
X130430728Y-107580044D01*
X130452957Y-107552957D01*
X130480044Y-107530728D01*
X130510943Y-107514212D01*
X130544478Y-107504039D01*
X130585487Y-107500000D01*
X131364513Y-107500000D01*
X131405522Y-107504039D01*
X131405522Y-107504039D01*
G37*
G36*
X135458471Y-106703859D02*
G01*
X135536827Y-106711576D01*
X135687628Y-106757321D01*
X135687630Y-106757322D01*
X135826605Y-106831606D01*
X135834032Y-106837701D01*
X135948422Y-106931578D01*
X136048393Y-107053394D01*
X136122679Y-107192372D01*
X136168424Y-107343173D01*
X136183870Y-107500000D01*
X136168424Y-107656827D01*
X136128077Y-107789832D01*
X136122678Y-107807630D01*
X136048394Y-107946605D01*
X135948422Y-108068422D01*
X135826605Y-108168394D01*
X135727064Y-108221600D01*
X135687628Y-108242679D01*
X135536827Y-108288424D01*
X135458471Y-108296141D01*
X135419294Y-108300000D01*
X135340706Y-108300000D01*
X135301529Y-108296141D01*
X135223173Y-108288424D01*
X135072372Y-108242679D01*
X135032936Y-108221600D01*
X134933395Y-108168394D01*
X134811578Y-108068422D01*
X134711606Y-107946605D01*
X134637322Y-107807630D01*
X134631923Y-107789832D01*
X134591576Y-107656827D01*
X134576130Y-107500000D01*
X134591576Y-107343173D01*
X134637321Y-107192372D01*
X134711607Y-107053394D01*
X134811578Y-106931578D01*
X134925968Y-106837701D01*
X134933395Y-106831606D01*
X135072370Y-106757322D01*
X135072372Y-106757321D01*
X135223173Y-106711576D01*
X135301529Y-106703859D01*
X135340706Y-106700000D01*
X135419294Y-106700000D01*
X135458471Y-106703859D01*
X135458471Y-106703859D01*
G37*
G36*
X143800000Y-108300000D02*
G01*
X142200000Y-108300000D01*
X142200000Y-106700000D01*
X143800000Y-106700000D01*
X143800000Y-108300000D01*
X143800000Y-108300000D01*
G37*
G36*
X105748091Y-107250675D02*
G01*
X105781979Y-107260955D01*
X105813212Y-107277650D01*
X105840586Y-107300114D01*
X105863050Y-107327488D01*
X105879745Y-107358721D01*
X105890025Y-107392609D01*
X105894100Y-107433988D01*
X105894100Y-108034212D01*
X105890025Y-108075591D01*
X105879745Y-108109479D01*
X105863050Y-108140712D01*
X105840586Y-108168086D01*
X105813212Y-108190550D01*
X105781979Y-108207245D01*
X105748091Y-108217525D01*
X105706712Y-108221600D01*
X104681488Y-108221600D01*
X104640109Y-108217525D01*
X104606221Y-108207245D01*
X104574988Y-108190550D01*
X104547614Y-108168086D01*
X104525150Y-108140712D01*
X104508455Y-108109479D01*
X104498175Y-108075591D01*
X104494100Y-108034212D01*
X104494100Y-107433988D01*
X104498175Y-107392609D01*
X104508455Y-107358721D01*
X104525150Y-107327488D01*
X104547614Y-107300114D01*
X104574988Y-107277650D01*
X104606221Y-107260955D01*
X104640109Y-107250675D01*
X104681488Y-107246600D01*
X105706712Y-107246600D01*
X105748091Y-107250675D01*
X105748091Y-107250675D01*
G37*
G36*
X150816627Y-105162299D02*
G01*
X150872448Y-105179232D01*
X150976855Y-105210903D01*
X150976857Y-105210904D01*
X151124518Y-105289831D01*
X151253949Y-105396051D01*
X151360169Y-105525482D01*
X151382787Y-105567797D01*
X151439097Y-105673145D01*
X151454151Y-105722773D01*
X151487701Y-105833373D01*
X151504112Y-106000000D01*
X151487701Y-106166627D01*
X151439096Y-106326857D01*
X151360169Y-106474518D01*
X151253949Y-106603949D01*
X151124518Y-106710169D01*
X150976857Y-106789096D01*
X150976855Y-106789097D01*
X150896742Y-106813398D01*
X150816627Y-106837701D01*
X150691752Y-106850000D01*
X149308248Y-106850000D01*
X149183373Y-106837701D01*
X149103258Y-106813398D01*
X149023145Y-106789097D01*
X149023143Y-106789096D01*
X148875482Y-106710169D01*
X148746051Y-106603949D01*
X148639831Y-106474518D01*
X148560904Y-106326857D01*
X148512299Y-106166627D01*
X148495888Y-106000000D01*
X148512299Y-105833373D01*
X148545849Y-105722773D01*
X148560903Y-105673145D01*
X148617213Y-105567797D01*
X148639831Y-105525482D01*
X148746051Y-105396051D01*
X148875482Y-105289831D01*
X149023143Y-105210904D01*
X149023145Y-105210903D01*
X149127552Y-105179232D01*
X149183373Y-105162299D01*
X149308248Y-105150000D01*
X150691752Y-105150000D01*
X150816627Y-105162299D01*
X150816627Y-105162299D01*
G37*
G36*
X117462327Y-105051699D02*
G01*
X117542442Y-105076002D01*
X117622555Y-105100303D01*
X117622557Y-105100304D01*
X117770218Y-105179231D01*
X117899649Y-105285451D01*
X118005869Y-105414882D01*
X118084796Y-105562543D01*
X118133401Y-105722773D01*
X118149812Y-105889400D01*
X118133401Y-106056027D01*
X118133400Y-106056029D01*
X118089549Y-106200591D01*
X118084796Y-106216257D01*
X118005869Y-106363918D01*
X117899649Y-106493349D01*
X117770218Y-106599569D01*
X117622557Y-106678496D01*
X117622555Y-106678497D01*
X117542442Y-106702798D01*
X117462327Y-106727101D01*
X117337452Y-106739400D01*
X115953948Y-106739400D01*
X115829073Y-106727101D01*
X115748958Y-106702798D01*
X115668845Y-106678497D01*
X115668843Y-106678496D01*
X115521182Y-106599569D01*
X115391751Y-106493349D01*
X115285531Y-106363918D01*
X115206604Y-106216257D01*
X115201852Y-106200591D01*
X115158000Y-106056029D01*
X115157999Y-106056027D01*
X115141588Y-105889400D01*
X115157999Y-105722773D01*
X115206604Y-105562543D01*
X115285531Y-105414882D01*
X115391751Y-105285451D01*
X115521182Y-105179231D01*
X115668843Y-105100304D01*
X115668845Y-105100303D01*
X115748958Y-105076002D01*
X115829073Y-105051699D01*
X115953948Y-105039400D01*
X117337452Y-105039400D01*
X117462327Y-105051699D01*
X117462327Y-105051699D01*
G37*
G36*
X133350000Y-106500000D02*
G01*
X132450000Y-106500000D01*
X132450000Y-103500000D01*
X133350000Y-103500000D01*
X133350000Y-106500000D01*
X133350000Y-106500000D01*
G37*
G36*
X131550000Y-106500000D02*
G01*
X130650000Y-106500000D01*
X130650000Y-103500000D01*
X131550000Y-103500000D01*
X131550000Y-106500000D01*
X131550000Y-106500000D01*
G37*
G36*
X105748091Y-105375675D02*
G01*
X105781979Y-105385955D01*
X105813212Y-105402650D01*
X105840586Y-105425114D01*
X105863050Y-105452488D01*
X105879745Y-105483721D01*
X105890025Y-105517609D01*
X105894100Y-105558988D01*
X105894100Y-106159212D01*
X105890025Y-106200591D01*
X105879745Y-106234479D01*
X105863050Y-106265712D01*
X105840586Y-106293086D01*
X105813212Y-106315550D01*
X105781979Y-106332245D01*
X105748091Y-106342525D01*
X105706712Y-106346600D01*
X104681488Y-106346600D01*
X104640109Y-106342525D01*
X104606221Y-106332245D01*
X104574988Y-106315550D01*
X104547614Y-106293086D01*
X104525150Y-106265712D01*
X104508455Y-106234479D01*
X104498175Y-106200591D01*
X104494100Y-106159212D01*
X104494100Y-105558988D01*
X104498175Y-105517609D01*
X104508455Y-105483721D01*
X104525150Y-105452488D01*
X104547614Y-105425114D01*
X104574988Y-105402650D01*
X104606221Y-105385955D01*
X104640109Y-105375675D01*
X104681488Y-105371600D01*
X105706712Y-105371600D01*
X105748091Y-105375675D01*
X105748091Y-105375675D01*
G37*
G36*
X146338964Y-104516337D02*
G01*
X146370525Y-104525912D01*
X146399620Y-104541463D01*
X146425115Y-104562385D01*
X146446037Y-104587880D01*
X146461588Y-104616975D01*
X146471163Y-104648536D01*
X146475000Y-104687498D01*
X146475000Y-105762502D01*
X146471163Y-105801464D01*
X146461588Y-105833025D01*
X146446037Y-105862120D01*
X146425115Y-105887615D01*
X146399620Y-105908537D01*
X146370525Y-105924088D01*
X146338964Y-105933663D01*
X146300002Y-105937500D01*
X144899998Y-105937500D01*
X144861036Y-105933663D01*
X144829475Y-105924088D01*
X144800380Y-105908537D01*
X144774885Y-105887615D01*
X144753963Y-105862120D01*
X144738412Y-105833025D01*
X144728837Y-105801464D01*
X144725000Y-105762502D01*
X144725000Y-104687498D01*
X144728837Y-104648536D01*
X144738412Y-104616975D01*
X144753963Y-104587880D01*
X144774885Y-104562385D01*
X144800380Y-104541463D01*
X144829475Y-104525912D01*
X144861036Y-104516337D01*
X144899998Y-104512500D01*
X146300002Y-104512500D01*
X146338964Y-104516337D01*
X146338964Y-104516337D01*
G37*
G36*
X143078471Y-104163859D02*
G01*
X143156827Y-104171576D01*
X143307628Y-104217321D01*
X143307630Y-104217322D01*
X143446605Y-104291606D01*
X143568422Y-104391578D01*
X143668394Y-104513395D01*
X143707054Y-104585723D01*
X143742679Y-104652372D01*
X143788424Y-104803173D01*
X143803870Y-104960000D01*
X143788424Y-105116827D01*
X143759886Y-105210903D01*
X143742678Y-105267630D01*
X143668394Y-105406605D01*
X143568422Y-105528422D01*
X143446605Y-105628394D01*
X143362882Y-105673145D01*
X143307628Y-105702679D01*
X143156827Y-105748424D01*
X143078471Y-105756141D01*
X143039294Y-105760000D01*
X142960706Y-105760000D01*
X142921529Y-105756141D01*
X142843173Y-105748424D01*
X142692372Y-105702679D01*
X142637118Y-105673145D01*
X142553395Y-105628394D01*
X142431578Y-105528422D01*
X142331606Y-105406605D01*
X142257322Y-105267630D01*
X142240114Y-105210903D01*
X142211576Y-105116827D01*
X142196130Y-104960000D01*
X142211576Y-104803173D01*
X142257321Y-104652372D01*
X142292946Y-104585723D01*
X142331606Y-104513395D01*
X142431578Y-104391578D01*
X142553395Y-104291606D01*
X142692370Y-104217322D01*
X142692372Y-104217321D01*
X142843173Y-104171576D01*
X142921529Y-104163859D01*
X142960706Y-104160000D01*
X143039294Y-104160000D01*
X143078471Y-104163859D01*
X143078471Y-104163859D01*
G37*
G36*
X135458471Y-104163859D02*
G01*
X135536827Y-104171576D01*
X135687628Y-104217321D01*
X135687630Y-104217322D01*
X135826605Y-104291606D01*
X135948422Y-104391578D01*
X136048394Y-104513395D01*
X136087054Y-104585723D01*
X136122679Y-104652372D01*
X136168424Y-104803173D01*
X136183870Y-104960000D01*
X136168424Y-105116827D01*
X136139886Y-105210903D01*
X136122678Y-105267630D01*
X136048394Y-105406605D01*
X135948422Y-105528422D01*
X135826605Y-105628394D01*
X135742882Y-105673145D01*
X135687628Y-105702679D01*
X135536827Y-105748424D01*
X135458471Y-105756141D01*
X135419294Y-105760000D01*
X135340706Y-105760000D01*
X135301529Y-105756141D01*
X135223173Y-105748424D01*
X135072372Y-105702679D01*
X135017118Y-105673145D01*
X134933395Y-105628394D01*
X134811578Y-105528422D01*
X134711606Y-105406605D01*
X134637322Y-105267630D01*
X134620114Y-105210903D01*
X134591576Y-105116827D01*
X134576130Y-104960000D01*
X134591576Y-104803173D01*
X134637321Y-104652372D01*
X134672946Y-104585723D01*
X134711606Y-104513395D01*
X134811578Y-104391578D01*
X134933395Y-104291606D01*
X135072370Y-104217322D01*
X135072372Y-104217321D01*
X135223173Y-104171576D01*
X135301529Y-104163859D01*
X135340706Y-104160000D01*
X135419294Y-104160000D01*
X135458471Y-104163859D01*
X135458471Y-104163859D01*
G37*
G36*
X155816627Y-102662299D02*
G01*
X155896742Y-102686602D01*
X155976855Y-102710903D01*
X155976857Y-102710904D01*
X156124518Y-102789831D01*
X156253949Y-102896051D01*
X156360168Y-103025481D01*
X156439097Y-103173145D01*
X156453310Y-103220000D01*
X156487701Y-103333373D01*
X156504112Y-103500000D01*
X156487701Y-103666627D01*
X156439096Y-103826857D01*
X156360169Y-103974518D01*
X156253949Y-104103949D01*
X156124518Y-104210169D01*
X155976857Y-104289096D01*
X155976855Y-104289097D01*
X155896742Y-104313398D01*
X155816627Y-104337701D01*
X155691752Y-104350000D01*
X154308248Y-104350000D01*
X154183373Y-104337701D01*
X154103258Y-104313398D01*
X154023145Y-104289097D01*
X154023143Y-104289096D01*
X153875482Y-104210169D01*
X153746051Y-104103949D01*
X153639831Y-103974518D01*
X153560904Y-103826857D01*
X153512299Y-103666627D01*
X153495888Y-103500000D01*
X153512299Y-103333373D01*
X153546690Y-103220000D01*
X153560903Y-103173145D01*
X153639832Y-103025481D01*
X153746051Y-102896051D01*
X153875482Y-102789831D01*
X154023143Y-102710904D01*
X154023145Y-102710903D01*
X154103258Y-102686602D01*
X154183373Y-102662299D01*
X154308248Y-102650000D01*
X155691752Y-102650000D01*
X155816627Y-102662299D01*
X155816627Y-102662299D01*
G37*
G36*
X135458471Y-101623859D02*
G01*
X135536827Y-101631576D01*
X135687628Y-101677321D01*
X135687630Y-101677322D01*
X135826605Y-101751606D01*
X135826607Y-101751607D01*
X135826606Y-101751607D01*
X135948422Y-101851578D01*
X136048393Y-101973394D01*
X136122679Y-102112372D01*
X136168424Y-102263173D01*
X136183870Y-102420000D01*
X136168424Y-102576827D01*
X136146227Y-102650000D01*
X136122678Y-102727630D01*
X136048394Y-102866605D01*
X135948422Y-102988422D01*
X135826605Y-103088394D01*
X135687630Y-103162678D01*
X135687628Y-103162679D01*
X135536827Y-103208424D01*
X135458471Y-103216141D01*
X135419294Y-103220000D01*
X135340706Y-103220000D01*
X135301529Y-103216141D01*
X135223173Y-103208424D01*
X135072372Y-103162679D01*
X135072370Y-103162678D01*
X134933395Y-103088394D01*
X134811578Y-102988422D01*
X134711606Y-102866605D01*
X134637322Y-102727630D01*
X134613773Y-102650000D01*
X134591576Y-102576827D01*
X134576130Y-102420000D01*
X134591576Y-102263173D01*
X134637321Y-102112372D01*
X134711607Y-101973394D01*
X134811578Y-101851578D01*
X134933394Y-101751607D01*
X134933393Y-101751607D01*
X134933395Y-101751606D01*
X135072370Y-101677322D01*
X135072372Y-101677321D01*
X135223173Y-101631576D01*
X135301529Y-101623859D01*
X135340706Y-101620000D01*
X135419294Y-101620000D01*
X135458471Y-101623859D01*
X135458471Y-101623859D01*
G37*
G36*
X143078471Y-101623859D02*
G01*
X143156827Y-101631576D01*
X143307628Y-101677321D01*
X143307630Y-101677322D01*
X143446605Y-101751606D01*
X143446607Y-101751607D01*
X143446606Y-101751607D01*
X143568422Y-101851578D01*
X143668393Y-101973394D01*
X143742679Y-102112372D01*
X143788424Y-102263173D01*
X143803870Y-102420000D01*
X143788424Y-102576827D01*
X143766227Y-102650000D01*
X143742678Y-102727630D01*
X143668394Y-102866605D01*
X143568422Y-102988422D01*
X143446605Y-103088394D01*
X143307630Y-103162678D01*
X143307628Y-103162679D01*
X143156827Y-103208424D01*
X143078471Y-103216141D01*
X143039294Y-103220000D01*
X142960706Y-103220000D01*
X142921529Y-103216141D01*
X142843173Y-103208424D01*
X142692372Y-103162679D01*
X142692370Y-103162678D01*
X142553395Y-103088394D01*
X142431578Y-102988422D01*
X142331606Y-102866605D01*
X142257322Y-102727630D01*
X142233773Y-102650000D01*
X142211576Y-102576827D01*
X142196130Y-102420000D01*
X142211576Y-102263173D01*
X142257321Y-102112372D01*
X142331607Y-101973394D01*
X142431578Y-101851578D01*
X142553394Y-101751607D01*
X142553393Y-101751607D01*
X142553395Y-101751606D01*
X142692370Y-101677322D01*
X142692372Y-101677321D01*
X142843173Y-101631576D01*
X142921529Y-101623859D01*
X142960706Y-101620000D01*
X143039294Y-101620000D01*
X143078471Y-101623859D01*
X143078471Y-101623859D01*
G37*
G36*
X146338964Y-101178837D02*
G01*
X146370525Y-101188412D01*
X146399620Y-101203963D01*
X146425115Y-101224885D01*
X146446037Y-101250380D01*
X146461588Y-101279475D01*
X146471163Y-101311036D01*
X146475000Y-101349998D01*
X146475000Y-102425002D01*
X146471163Y-102463964D01*
X146461588Y-102495525D01*
X146446037Y-102524620D01*
X146425115Y-102550115D01*
X146399620Y-102571037D01*
X146370525Y-102586588D01*
X146338964Y-102596163D01*
X146300002Y-102600000D01*
X144899998Y-102600000D01*
X144861036Y-102596163D01*
X144829475Y-102586588D01*
X144800380Y-102571037D01*
X144774885Y-102550115D01*
X144753963Y-102524620D01*
X144738412Y-102495525D01*
X144728837Y-102463964D01*
X144725000Y-102425002D01*
X144725000Y-101349998D01*
X144728837Y-101311036D01*
X144738412Y-101279475D01*
X144753963Y-101250380D01*
X144774885Y-101224885D01*
X144800380Y-101203963D01*
X144829475Y-101188412D01*
X144861036Y-101178837D01*
X144899998Y-101175000D01*
X146300002Y-101175000D01*
X146338964Y-101178837D01*
X146338964Y-101178837D01*
G37*
G36*
X131405522Y-101104039D02*
G01*
X131439057Y-101114212D01*
X131469956Y-101130728D01*
X131497043Y-101152957D01*
X131519272Y-101180044D01*
X131535788Y-101210943D01*
X131545961Y-101244478D01*
X131550000Y-101285487D01*
X131550000Y-102314513D01*
X131545961Y-102355522D01*
X131535788Y-102389057D01*
X131519272Y-102419956D01*
X131497043Y-102447043D01*
X131469956Y-102469272D01*
X131439057Y-102485788D01*
X131405522Y-102495961D01*
X131364513Y-102500000D01*
X130585487Y-102500000D01*
X130544478Y-102495961D01*
X130510943Y-102485788D01*
X130480044Y-102469272D01*
X130452957Y-102447043D01*
X130430728Y-102419956D01*
X130414212Y-102389057D01*
X130404039Y-102355522D01*
X130400000Y-102314513D01*
X130400000Y-101285487D01*
X130404039Y-101244478D01*
X130414212Y-101210943D01*
X130430728Y-101180044D01*
X130452957Y-101152957D01*
X130480044Y-101130728D01*
X130510943Y-101114212D01*
X130544478Y-101104039D01*
X130585487Y-101100000D01*
X131364513Y-101100000D01*
X131405522Y-101104039D01*
X131405522Y-101104039D01*
G37*
G36*
X133455522Y-101104039D02*
G01*
X133489057Y-101114212D01*
X133519956Y-101130728D01*
X133547043Y-101152957D01*
X133569272Y-101180044D01*
X133585788Y-101210943D01*
X133595961Y-101244478D01*
X133600000Y-101285487D01*
X133600000Y-102314513D01*
X133595961Y-102355522D01*
X133585788Y-102389057D01*
X133569272Y-102419956D01*
X133547043Y-102447043D01*
X133519956Y-102469272D01*
X133489057Y-102485788D01*
X133455522Y-102495961D01*
X133414513Y-102500000D01*
X132635487Y-102500000D01*
X132594478Y-102495961D01*
X132560943Y-102485788D01*
X132530044Y-102469272D01*
X132502957Y-102447043D01*
X132480728Y-102419956D01*
X132464212Y-102389057D01*
X132454039Y-102355522D01*
X132450000Y-102314513D01*
X132450000Y-101285487D01*
X132454039Y-101244478D01*
X132464212Y-101210943D01*
X132480728Y-101180044D01*
X132502957Y-101152957D01*
X132530044Y-101130728D01*
X132560943Y-101114212D01*
X132594478Y-101104039D01*
X132635487Y-101100000D01*
X133414513Y-101100000D01*
X133455522Y-101104039D01*
X133455522Y-101104039D01*
G37*
G36*
X143078471Y-99083859D02*
G01*
X143156827Y-99091576D01*
X143307628Y-99137321D01*
X143307630Y-99137322D01*
X143446605Y-99211606D01*
X143568422Y-99311578D01*
X143668394Y-99433395D01*
X143690375Y-99474519D01*
X143742679Y-99572372D01*
X143788424Y-99723173D01*
X143803870Y-99880000D01*
X143788424Y-100036827D01*
X143742679Y-100187628D01*
X143742678Y-100187630D01*
X143668394Y-100326605D01*
X143568422Y-100448422D01*
X143446605Y-100548394D01*
X143307630Y-100622678D01*
X143307628Y-100622679D01*
X143156827Y-100668424D01*
X143078471Y-100676141D01*
X143039294Y-100680000D01*
X142960706Y-100680000D01*
X142921529Y-100676141D01*
X142843173Y-100668424D01*
X142692372Y-100622679D01*
X142692370Y-100622678D01*
X142553395Y-100548394D01*
X142431578Y-100448422D01*
X142331606Y-100326605D01*
X142257322Y-100187630D01*
X142257321Y-100187628D01*
X142211576Y-100036827D01*
X142196130Y-99880000D01*
X142211576Y-99723173D01*
X142257321Y-99572372D01*
X142309625Y-99474519D01*
X142331606Y-99433395D01*
X142431578Y-99311578D01*
X142553395Y-99211606D01*
X142692370Y-99137322D01*
X142692372Y-99137321D01*
X142843173Y-99091576D01*
X142921529Y-99083859D01*
X142960706Y-99080000D01*
X143039294Y-99080000D01*
X143078471Y-99083859D01*
X143078471Y-99083859D01*
G37*
G36*
X135458471Y-99083859D02*
G01*
X135536827Y-99091576D01*
X135687628Y-99137321D01*
X135687630Y-99137322D01*
X135826605Y-99211606D01*
X135948422Y-99311578D01*
X136048394Y-99433395D01*
X136070375Y-99474519D01*
X136122679Y-99572372D01*
X136168424Y-99723173D01*
X136183870Y-99880000D01*
X136168424Y-100036827D01*
X136122679Y-100187628D01*
X136122678Y-100187630D01*
X136048394Y-100326605D01*
X135948422Y-100448422D01*
X135826605Y-100548394D01*
X135687630Y-100622678D01*
X135687628Y-100622679D01*
X135536827Y-100668424D01*
X135458471Y-100676141D01*
X135419294Y-100680000D01*
X135340706Y-100680000D01*
X135301529Y-100676141D01*
X135223173Y-100668424D01*
X135072372Y-100622679D01*
X135072370Y-100622678D01*
X134933395Y-100548394D01*
X134811578Y-100448422D01*
X134711606Y-100326605D01*
X134637322Y-100187630D01*
X134637321Y-100187628D01*
X134591576Y-100036827D01*
X134576130Y-99880000D01*
X134591576Y-99723173D01*
X134637321Y-99572372D01*
X134689625Y-99474519D01*
X134711606Y-99433395D01*
X134811578Y-99311578D01*
X134933395Y-99211606D01*
X135072370Y-99137322D01*
X135072372Y-99137321D01*
X135223173Y-99091576D01*
X135301529Y-99083859D01*
X135340706Y-99080000D01*
X135419294Y-99080000D01*
X135458471Y-99083859D01*
X135458471Y-99083859D01*
G37*
G36*
X150816627Y-98162299D02*
G01*
X150896742Y-98186601D01*
X150976855Y-98210903D01*
X150976857Y-98210904D01*
X151124518Y-98289831D01*
X151253949Y-98396051D01*
X151360169Y-98525482D01*
X151399344Y-98598773D01*
X151439097Y-98673145D01*
X151455366Y-98726777D01*
X151487701Y-98833373D01*
X151504112Y-99000000D01*
X151487701Y-99166627D01*
X151439096Y-99326857D01*
X151360169Y-99474518D01*
X151253949Y-99603949D01*
X151124518Y-99710169D01*
X150976857Y-99789096D01*
X150976855Y-99789097D01*
X150896742Y-99813399D01*
X150816627Y-99837701D01*
X150691752Y-99850000D01*
X149308248Y-99850000D01*
X149183373Y-99837701D01*
X149103258Y-99813399D01*
X149023145Y-99789097D01*
X149023143Y-99789096D01*
X148875482Y-99710169D01*
X148746051Y-99603949D01*
X148639831Y-99474518D01*
X148560904Y-99326857D01*
X148512299Y-99166627D01*
X148495888Y-99000000D01*
X148512299Y-98833373D01*
X148544634Y-98726777D01*
X148560903Y-98673145D01*
X148600656Y-98598773D01*
X148639831Y-98525482D01*
X148746051Y-98396051D01*
X148875482Y-98289831D01*
X149023143Y-98210904D01*
X149023145Y-98210903D01*
X149103258Y-98186601D01*
X149183373Y-98162299D01*
X149308248Y-98150000D01*
X150691752Y-98150000D01*
X150816627Y-98162299D01*
X150816627Y-98162299D01*
G37*
G36*
X146338964Y-98203837D02*
G01*
X146370525Y-98213412D01*
X146399620Y-98228963D01*
X146425115Y-98249885D01*
X146446037Y-98275380D01*
X146461588Y-98304475D01*
X146471163Y-98336036D01*
X146475000Y-98374998D01*
X146475000Y-99450002D01*
X146471163Y-99488964D01*
X146461588Y-99520525D01*
X146446037Y-99549620D01*
X146425115Y-99575115D01*
X146399620Y-99596037D01*
X146370525Y-99611588D01*
X146338964Y-99621163D01*
X146300002Y-99625000D01*
X144899998Y-99625000D01*
X144861036Y-99621163D01*
X144829475Y-99611588D01*
X144800380Y-99596037D01*
X144774885Y-99575115D01*
X144753963Y-99549620D01*
X144738412Y-99520525D01*
X144728837Y-99488964D01*
X144725000Y-99450002D01*
X144725000Y-98374998D01*
X144728837Y-98336036D01*
X144738412Y-98304475D01*
X144753963Y-98275380D01*
X144774885Y-98249885D01*
X144800380Y-98228963D01*
X144829475Y-98213412D01*
X144861036Y-98203837D01*
X144899998Y-98200000D01*
X146300002Y-98200000D01*
X146338964Y-98203837D01*
X146338964Y-98203837D01*
G37*
G36*
X129355522Y-97654039D02*
G01*
X129389057Y-97664212D01*
X129419956Y-97680728D01*
X129447043Y-97702957D01*
X129469272Y-97730044D01*
X129485788Y-97760943D01*
X129495961Y-97794478D01*
X129500000Y-97835487D01*
X129500000Y-98614513D01*
X129495961Y-98655522D01*
X129485788Y-98689057D01*
X129469272Y-98719956D01*
X129447043Y-98747043D01*
X129419956Y-98769272D01*
X129389057Y-98785788D01*
X129355522Y-98795961D01*
X129314513Y-98800000D01*
X128285487Y-98800000D01*
X128244478Y-98795961D01*
X128210943Y-98785788D01*
X128180044Y-98769272D01*
X128152957Y-98747043D01*
X128130728Y-98719956D01*
X128114212Y-98689057D01*
X128104039Y-98655522D01*
X128100000Y-98614513D01*
X128100000Y-97835487D01*
X128104039Y-97794478D01*
X128114212Y-97760943D01*
X128130728Y-97730044D01*
X128152957Y-97702957D01*
X128180044Y-97680728D01*
X128210943Y-97664212D01*
X128244478Y-97654039D01*
X128285487Y-97650000D01*
X129314513Y-97650000D01*
X129355522Y-97654039D01*
X129355522Y-97654039D01*
G37*
G36*
X155816627Y-95662299D02*
G01*
X155896742Y-95686602D01*
X155976855Y-95710903D01*
X155976857Y-95710904D01*
X156124518Y-95789831D01*
X156253949Y-95896051D01*
X156360169Y-96025482D01*
X156439096Y-96173143D01*
X156487701Y-96333373D01*
X156504112Y-96500000D01*
X156487701Y-96666627D01*
X156439096Y-96826857D01*
X156360169Y-96974518D01*
X156253949Y-97103949D01*
X156124518Y-97210169D01*
X155976857Y-97289096D01*
X155976855Y-97289097D01*
X155896742Y-97313398D01*
X155816627Y-97337701D01*
X155691752Y-97350000D01*
X154308248Y-97350000D01*
X154183373Y-97337701D01*
X154103258Y-97313398D01*
X154023145Y-97289097D01*
X154023143Y-97289096D01*
X153875482Y-97210169D01*
X153746051Y-97103949D01*
X153639831Y-96974518D01*
X153560904Y-96826857D01*
X153512299Y-96666627D01*
X153495888Y-96500000D01*
X153512299Y-96333373D01*
X153560904Y-96173143D01*
X153639831Y-96025482D01*
X153746051Y-95896051D01*
X153875482Y-95789831D01*
X154023143Y-95710904D01*
X154023145Y-95710903D01*
X154103258Y-95686602D01*
X154183373Y-95662299D01*
X154308248Y-95650000D01*
X155691752Y-95650000D01*
X155816627Y-95662299D01*
X155816627Y-95662299D01*
G37*
G36*
X104831943Y-95963014D02*
G01*
X104831946Y-95963015D01*
X104831945Y-95963015D01*
X104922939Y-96000706D01*
X104960017Y-96025481D01*
X105004830Y-96055424D01*
X105074476Y-96125070D01*
X105129195Y-96206963D01*
X105166886Y-96297957D01*
X105186100Y-96394553D01*
X105186100Y-96493047D01*
X105166886Y-96589643D01*
X105166885Y-96589645D01*
X105129194Y-96680639D01*
X105074475Y-96762531D01*
X105004831Y-96832175D01*
X104922939Y-96886894D01*
X104922938Y-96886895D01*
X104922937Y-96886895D01*
X104831943Y-96924586D01*
X104735347Y-96943800D01*
X104636853Y-96943800D01*
X104540257Y-96924586D01*
X104449263Y-96886895D01*
X104449262Y-96886895D01*
X104449261Y-96886894D01*
X104367369Y-96832175D01*
X104297725Y-96762531D01*
X104243006Y-96680639D01*
X104205315Y-96589645D01*
X104205314Y-96589643D01*
X104186100Y-96493047D01*
X104186100Y-96394553D01*
X104205314Y-96297957D01*
X104243005Y-96206963D01*
X104297724Y-96125070D01*
X104367370Y-96055424D01*
X104412183Y-96025481D01*
X104449261Y-96000706D01*
X104540255Y-95963015D01*
X104540254Y-95963015D01*
X104540257Y-95963014D01*
X104636853Y-95943800D01*
X104735347Y-95943800D01*
X104831943Y-95963014D01*
X104831943Y-95963014D01*
G37*
G36*
X112794427Y-94998022D02*
G01*
X112794430Y-94998023D01*
X112794431Y-94998023D01*
X112964081Y-95049486D01*
X112964083Y-95049487D01*
X112964086Y-95049488D01*
X113120431Y-95133056D01*
X113257475Y-95245525D01*
X113369944Y-95382569D01*
X113453512Y-95538914D01*
X113453513Y-95538917D01*
X113453514Y-95538919D01*
X113481364Y-95630728D01*
X113504978Y-95708573D01*
X113522354Y-95885000D01*
X113504978Y-96061427D01*
X113504977Y-96061430D01*
X113504977Y-96061431D01*
X113460831Y-96206961D01*
X113453512Y-96231086D01*
X113369944Y-96387431D01*
X113257475Y-96524475D01*
X113120431Y-96636944D01*
X112964086Y-96720512D01*
X112964083Y-96720513D01*
X112964081Y-96720514D01*
X112794431Y-96771977D01*
X112794430Y-96771977D01*
X112794427Y-96771978D01*
X112662211Y-96785000D01*
X111873789Y-96785000D01*
X111741573Y-96771978D01*
X111741570Y-96771977D01*
X111741569Y-96771977D01*
X111571919Y-96720514D01*
X111571917Y-96720513D01*
X111571914Y-96720512D01*
X111415569Y-96636944D01*
X111278525Y-96524475D01*
X111166056Y-96387431D01*
X111082488Y-96231086D01*
X111075170Y-96206961D01*
X111031023Y-96061431D01*
X111031023Y-96061430D01*
X111031022Y-96061427D01*
X111013646Y-95885000D01*
X111031022Y-95708573D01*
X111054636Y-95630728D01*
X111082486Y-95538919D01*
X111082487Y-95538917D01*
X111082488Y-95538914D01*
X111166056Y-95382569D01*
X111278525Y-95245525D01*
X111415569Y-95133056D01*
X111571914Y-95049488D01*
X111571917Y-95049487D01*
X111571919Y-95049486D01*
X111741569Y-94998023D01*
X111741570Y-94998023D01*
X111741573Y-94998022D01*
X111873789Y-94985000D01*
X112662211Y-94985000D01*
X112794427Y-94998022D01*
X112794427Y-94998022D01*
G37*
G36*
X129355522Y-95604039D02*
G01*
X129389057Y-95614212D01*
X129419956Y-95630728D01*
X129447043Y-95652957D01*
X129469272Y-95680044D01*
X129485788Y-95710943D01*
X129495961Y-95744478D01*
X129500000Y-95785487D01*
X129500000Y-96564513D01*
X129495961Y-96605522D01*
X129485788Y-96639057D01*
X129469272Y-96669956D01*
X129447043Y-96697043D01*
X129419956Y-96719272D01*
X129389057Y-96735788D01*
X129355522Y-96745961D01*
X129314513Y-96750000D01*
X128285487Y-96750000D01*
X128244478Y-96745961D01*
X128210943Y-96735788D01*
X128180044Y-96719272D01*
X128152957Y-96697043D01*
X128130728Y-96669956D01*
X128114212Y-96639057D01*
X128104039Y-96605522D01*
X128100000Y-96564513D01*
X128100000Y-95785487D01*
X128104039Y-95744478D01*
X128114212Y-95710943D01*
X128130728Y-95680044D01*
X128152957Y-95652957D01*
X128180044Y-95630728D01*
X128210943Y-95614212D01*
X128244478Y-95604039D01*
X128285487Y-95600000D01*
X129314513Y-95600000D01*
X129355522Y-95604039D01*
X129355522Y-95604039D01*
G37*
G36*
X146338964Y-94091337D02*
G01*
X146370525Y-94100912D01*
X146399620Y-94116463D01*
X146425115Y-94137385D01*
X146446037Y-94162880D01*
X146461588Y-94191975D01*
X146471163Y-94223536D01*
X146475000Y-94262498D01*
X146475000Y-95337502D01*
X146471163Y-95376464D01*
X146461588Y-95408025D01*
X146446037Y-95437120D01*
X146425115Y-95462615D01*
X146399620Y-95483537D01*
X146370525Y-95499088D01*
X146338964Y-95508663D01*
X146300002Y-95512500D01*
X144899998Y-95512500D01*
X144861036Y-95508663D01*
X144829475Y-95499088D01*
X144800380Y-95483537D01*
X144774885Y-95462615D01*
X144753963Y-95437120D01*
X144738412Y-95408025D01*
X144728837Y-95376464D01*
X144725000Y-95337502D01*
X144725000Y-94262498D01*
X144728837Y-94223536D01*
X144738412Y-94191975D01*
X144753963Y-94162880D01*
X144774885Y-94137385D01*
X144800380Y-94116463D01*
X144829475Y-94100912D01*
X144861036Y-94091337D01*
X144899998Y-94087500D01*
X146300002Y-94087500D01*
X146338964Y-94091337D01*
X146338964Y-94091337D01*
G37*
G36*
X131405522Y-94104039D02*
G01*
X131439057Y-94114212D01*
X131469956Y-94130728D01*
X131497043Y-94152957D01*
X131519272Y-94180044D01*
X131535788Y-94210943D01*
X131545961Y-94244478D01*
X131550000Y-94285487D01*
X131550000Y-95314513D01*
X131545961Y-95355522D01*
X131535788Y-95389057D01*
X131519272Y-95419956D01*
X131497043Y-95447043D01*
X131469956Y-95469272D01*
X131439057Y-95485788D01*
X131405522Y-95495961D01*
X131364513Y-95500000D01*
X130585487Y-95500000D01*
X130544478Y-95495961D01*
X130510943Y-95485788D01*
X130480044Y-95469272D01*
X130452957Y-95447043D01*
X130430728Y-95419956D01*
X130414212Y-95389057D01*
X130404039Y-95355522D01*
X130400000Y-95314513D01*
X130400000Y-94285487D01*
X130404039Y-94244478D01*
X130414212Y-94210943D01*
X130430728Y-94180044D01*
X130452957Y-94152957D01*
X130480044Y-94130728D01*
X130510943Y-94114212D01*
X130544478Y-94104039D01*
X130585487Y-94100000D01*
X131364513Y-94100000D01*
X131405522Y-94104039D01*
X131405522Y-94104039D01*
G37*
G36*
X133455522Y-94104039D02*
G01*
X133489057Y-94114212D01*
X133519956Y-94130728D01*
X133547043Y-94152957D01*
X133569272Y-94180044D01*
X133585788Y-94210943D01*
X133595961Y-94244478D01*
X133600000Y-94285487D01*
X133600000Y-95314513D01*
X133595961Y-95355522D01*
X133585788Y-95389057D01*
X133569272Y-95419956D01*
X133547043Y-95447043D01*
X133519956Y-95469272D01*
X133489057Y-95485788D01*
X133455522Y-95495961D01*
X133414513Y-95500000D01*
X132635487Y-95500000D01*
X132594478Y-95495961D01*
X132560943Y-95485788D01*
X132530044Y-95469272D01*
X132502957Y-95447043D01*
X132480728Y-95419956D01*
X132464212Y-95389057D01*
X132454039Y-95355522D01*
X132450000Y-95314513D01*
X132450000Y-94285487D01*
X132454039Y-94244478D01*
X132464212Y-94210943D01*
X132480728Y-94180044D01*
X132502957Y-94152957D01*
X132530044Y-94130728D01*
X132560943Y-94114212D01*
X132594478Y-94104039D01*
X132635487Y-94100000D01*
X133414513Y-94100000D01*
X133455522Y-94104039D01*
X133455522Y-94104039D01*
G37*
G36*
X126370000Y-95050000D02*
G01*
X125770000Y-95050000D01*
X125770000Y-93550000D01*
X126370000Y-93550000D01*
X126370000Y-95050000D01*
X126370000Y-95050000D01*
G37*
G36*
X125100000Y-95050000D02*
G01*
X124500000Y-95050000D01*
X124500000Y-93550000D01*
X125100000Y-93550000D01*
X125100000Y-95050000D01*
X125100000Y-95050000D01*
G37*
G36*
X127640000Y-95050000D02*
G01*
X127040000Y-95050000D01*
X127040000Y-93550000D01*
X127640000Y-93550000D01*
X127640000Y-95050000D01*
X127640000Y-95050000D01*
G37*
G36*
X128910000Y-95050000D02*
G01*
X128310000Y-95050000D01*
X128310000Y-93550000D01*
X128910000Y-93550000D01*
X128910000Y-95050000D01*
X128910000Y-95050000D01*
G37*
G36*
X123830000Y-95050000D02*
G01*
X123230000Y-95050000D01*
X123230000Y-93550000D01*
X123830000Y-93550000D01*
X123830000Y-95050000D01*
X123830000Y-95050000D01*
G37*
G36*
X122560000Y-95050000D02*
G01*
X121960000Y-95050000D01*
X121960000Y-93550000D01*
X122560000Y-93550000D01*
X122560000Y-95050000D01*
X122560000Y-95050000D01*
G37*
G36*
X121290000Y-95050000D02*
G01*
X120690000Y-95050000D01*
X120690000Y-93550000D01*
X121290000Y-93550000D01*
X121290000Y-95050000D01*
X121290000Y-95050000D01*
G37*
G36*
X150816627Y-93162299D02*
G01*
X150896742Y-93186601D01*
X150976855Y-93210903D01*
X150976857Y-93210904D01*
X151124518Y-93289831D01*
X151253949Y-93396051D01*
X151360168Y-93525481D01*
X151439097Y-93673145D01*
X151444929Y-93692372D01*
X151487701Y-93833373D01*
X151504112Y-94000000D01*
X151487701Y-94166627D01*
X151487700Y-94166629D01*
X151444929Y-94307630D01*
X151439096Y-94326857D01*
X151360169Y-94474518D01*
X151253949Y-94603949D01*
X151124518Y-94710169D01*
X151063698Y-94742678D01*
X150976855Y-94789097D01*
X150896742Y-94813399D01*
X150816627Y-94837701D01*
X150691752Y-94850000D01*
X149308248Y-94850000D01*
X149183373Y-94837701D01*
X149103258Y-94813399D01*
X149023145Y-94789097D01*
X148936302Y-94742678D01*
X148875482Y-94710169D01*
X148746051Y-94603949D01*
X148639831Y-94474518D01*
X148560904Y-94326857D01*
X148555072Y-94307630D01*
X148512300Y-94166629D01*
X148512299Y-94166627D01*
X148495888Y-94000000D01*
X148512299Y-93833373D01*
X148555071Y-93692372D01*
X148560903Y-93673145D01*
X148639832Y-93525481D01*
X148746051Y-93396051D01*
X148875482Y-93289831D01*
X149023143Y-93210904D01*
X149023145Y-93210903D01*
X149103258Y-93186601D01*
X149183373Y-93162299D01*
X149308248Y-93150000D01*
X150691752Y-93150000D01*
X150816627Y-93162299D01*
X150816627Y-93162299D01*
G37*
G36*
X143800000Y-94800000D02*
G01*
X142200000Y-94800000D01*
X142200000Y-93200000D01*
X143800000Y-93200000D01*
X143800000Y-94800000D01*
X143800000Y-94800000D01*
G37*
G36*
X135458471Y-93203859D02*
G01*
X135536827Y-93211576D01*
X135687628Y-93257321D01*
X135687630Y-93257322D01*
X135826605Y-93331606D01*
X135948422Y-93431578D01*
X136025487Y-93525482D01*
X136048393Y-93553394D01*
X136122679Y-93692372D01*
X136168424Y-93843173D01*
X136183870Y-94000000D01*
X136168424Y-94156827D01*
X136122679Y-94307628D01*
X136122678Y-94307630D01*
X136048394Y-94446605D01*
X135948422Y-94568422D01*
X135826605Y-94668394D01*
X135687630Y-94742678D01*
X135687628Y-94742679D01*
X135536827Y-94788424D01*
X135458471Y-94796141D01*
X135419294Y-94800000D01*
X135340706Y-94800000D01*
X135301529Y-94796141D01*
X135223173Y-94788424D01*
X135072372Y-94742679D01*
X135072370Y-94742678D01*
X134933395Y-94668394D01*
X134811578Y-94568422D01*
X134711606Y-94446605D01*
X134637322Y-94307630D01*
X134637321Y-94307628D01*
X134591576Y-94156827D01*
X134576130Y-94000000D01*
X134591576Y-93843173D01*
X134637321Y-93692372D01*
X134711607Y-93553394D01*
X134734514Y-93525482D01*
X134811578Y-93431578D01*
X134933395Y-93331606D01*
X135072370Y-93257322D01*
X135072372Y-93257321D01*
X135223173Y-93211576D01*
X135301529Y-93203859D01*
X135340706Y-93200000D01*
X135419294Y-93200000D01*
X135458471Y-93203859D01*
X135458471Y-93203859D01*
G37*
G36*
X133350000Y-93100000D02*
G01*
X132450000Y-93100000D01*
X132450000Y-90100000D01*
X133350000Y-90100000D01*
X133350000Y-93100000D01*
X133350000Y-93100000D01*
G37*
G36*
X131550000Y-93100000D02*
G01*
X130650000Y-93100000D01*
X130650000Y-90100000D01*
X131550000Y-90100000D01*
X131550000Y-93100000D01*
X131550000Y-93100000D01*
G37*
G36*
X146338964Y-91116337D02*
G01*
X146370525Y-91125912D01*
X146399620Y-91141463D01*
X146425115Y-91162385D01*
X146446037Y-91187880D01*
X146461588Y-91216975D01*
X146471163Y-91248536D01*
X146475000Y-91287498D01*
X146475000Y-92362502D01*
X146471163Y-92401464D01*
X146461588Y-92433025D01*
X146446037Y-92462120D01*
X146425115Y-92487615D01*
X146399620Y-92508537D01*
X146370525Y-92524088D01*
X146338964Y-92533663D01*
X146300002Y-92537500D01*
X144899998Y-92537500D01*
X144861036Y-92533663D01*
X144829475Y-92524088D01*
X144800380Y-92508537D01*
X144774885Y-92487615D01*
X144753963Y-92462120D01*
X144738412Y-92433025D01*
X144728837Y-92401464D01*
X144725000Y-92362502D01*
X144725000Y-91287498D01*
X144728837Y-91248536D01*
X144738412Y-91216975D01*
X144753963Y-91187880D01*
X144774885Y-91162385D01*
X144800380Y-91141463D01*
X144829475Y-91125912D01*
X144861036Y-91116337D01*
X144899998Y-91112500D01*
X146300002Y-91112500D01*
X146338964Y-91116337D01*
X146338964Y-91116337D01*
G37*
G36*
X155816627Y-90662299D02*
G01*
X155847209Y-90671576D01*
X155976855Y-90710903D01*
X155976857Y-90710904D01*
X156124518Y-90789831D01*
X156253949Y-90896051D01*
X156360169Y-91025482D01*
X156429202Y-91154633D01*
X156439097Y-91173145D01*
X156452392Y-91216975D01*
X156487701Y-91333373D01*
X156504112Y-91500000D01*
X156487701Y-91666627D01*
X156439096Y-91826857D01*
X156360169Y-91974518D01*
X156253949Y-92103949D01*
X156124518Y-92210169D01*
X156052948Y-92248424D01*
X155976855Y-92289097D01*
X155896742Y-92313398D01*
X155816627Y-92337701D01*
X155691752Y-92350000D01*
X154308248Y-92350000D01*
X154183373Y-92337701D01*
X154103258Y-92313398D01*
X154023145Y-92289097D01*
X153947052Y-92248424D01*
X153875482Y-92210169D01*
X153746051Y-92103949D01*
X153639831Y-91974518D01*
X153560904Y-91826857D01*
X153512299Y-91666627D01*
X153495888Y-91500000D01*
X153512299Y-91333373D01*
X153547608Y-91216975D01*
X153560903Y-91173145D01*
X153570798Y-91154633D01*
X153639831Y-91025482D01*
X153746051Y-90896051D01*
X153875482Y-90789831D01*
X154023143Y-90710904D01*
X154023145Y-90710903D01*
X154152791Y-90671576D01*
X154183373Y-90662299D01*
X154308248Y-90650000D01*
X155691752Y-90650000D01*
X155816627Y-90662299D01*
X155816627Y-90662299D01*
G37*
G36*
X143078471Y-90663859D02*
G01*
X143156827Y-90671576D01*
X143307628Y-90717321D01*
X143307630Y-90717322D01*
X143446605Y-90791606D01*
X143568422Y-90891578D01*
X143668394Y-91013395D01*
X143721367Y-91112500D01*
X143742679Y-91152372D01*
X143788424Y-91303173D01*
X143803870Y-91460000D01*
X143788424Y-91616827D01*
X143761677Y-91705000D01*
X143742678Y-91767630D01*
X143668394Y-91906605D01*
X143568422Y-92028422D01*
X143446605Y-92128394D01*
X143307630Y-92202678D01*
X143307628Y-92202679D01*
X143156827Y-92248424D01*
X143078471Y-92256141D01*
X143039294Y-92260000D01*
X142960706Y-92260000D01*
X142921529Y-92256141D01*
X142843173Y-92248424D01*
X142692372Y-92202679D01*
X142692370Y-92202678D01*
X142553395Y-92128394D01*
X142431578Y-92028422D01*
X142331606Y-91906605D01*
X142257322Y-91767630D01*
X142238323Y-91705000D01*
X142211576Y-91616827D01*
X142196130Y-91460000D01*
X142211576Y-91303173D01*
X142257321Y-91152372D01*
X142278633Y-91112500D01*
X142331606Y-91013395D01*
X142431578Y-90891578D01*
X142553395Y-90791606D01*
X142692370Y-90717322D01*
X142692372Y-90717321D01*
X142843173Y-90671576D01*
X142921529Y-90663859D01*
X142960706Y-90660000D01*
X143039294Y-90660000D01*
X143078471Y-90663859D01*
X143078471Y-90663859D01*
G37*
G36*
X135458471Y-90663859D02*
G01*
X135536827Y-90671576D01*
X135687628Y-90717321D01*
X135687630Y-90717322D01*
X135826605Y-90791606D01*
X135948422Y-90891578D01*
X136048394Y-91013395D01*
X136101367Y-91112500D01*
X136122679Y-91152372D01*
X136168424Y-91303173D01*
X136183870Y-91460000D01*
X136168424Y-91616827D01*
X136141677Y-91705000D01*
X136122678Y-91767630D01*
X136048394Y-91906605D01*
X135948422Y-92028422D01*
X135826605Y-92128394D01*
X135687630Y-92202678D01*
X135687628Y-92202679D01*
X135536827Y-92248424D01*
X135458471Y-92256141D01*
X135419294Y-92260000D01*
X135340706Y-92260000D01*
X135301529Y-92256141D01*
X135223173Y-92248424D01*
X135072372Y-92202679D01*
X135072370Y-92202678D01*
X134933395Y-92128394D01*
X134811578Y-92028422D01*
X134711606Y-91906605D01*
X134637322Y-91767630D01*
X134618323Y-91705000D01*
X134591576Y-91616827D01*
X134576130Y-91460000D01*
X134591576Y-91303173D01*
X134637321Y-91152372D01*
X134658633Y-91112500D01*
X134711606Y-91013395D01*
X134811578Y-90891578D01*
X134933395Y-90791606D01*
X135072370Y-90717322D01*
X135072372Y-90717321D01*
X135223173Y-90671576D01*
X135301529Y-90663859D01*
X135340706Y-90660000D01*
X135419294Y-90660000D01*
X135458471Y-90663859D01*
X135458471Y-90663859D01*
G37*
G36*
X112794427Y-89918022D02*
G01*
X112794430Y-89918023D01*
X112794431Y-89918023D01*
X112964081Y-89969486D01*
X112964083Y-89969487D01*
X112964086Y-89969488D01*
X113120431Y-90053056D01*
X113257475Y-90165525D01*
X113369944Y-90302569D01*
X113453512Y-90458914D01*
X113504978Y-90628573D01*
X113522354Y-90805000D01*
X113504978Y-90981427D01*
X113504977Y-90981430D01*
X113504977Y-90981431D01*
X113456432Y-91141463D01*
X113453512Y-91151086D01*
X113369944Y-91307431D01*
X113257475Y-91444475D01*
X113120431Y-91556944D01*
X112964086Y-91640512D01*
X112964083Y-91640513D01*
X112964081Y-91640514D01*
X112794431Y-91691977D01*
X112794430Y-91691977D01*
X112794427Y-91691978D01*
X112662211Y-91705000D01*
X111873789Y-91705000D01*
X111741573Y-91691978D01*
X111741570Y-91691977D01*
X111741569Y-91691977D01*
X111571919Y-91640514D01*
X111571917Y-91640513D01*
X111571914Y-91640512D01*
X111415569Y-91556944D01*
X111278525Y-91444475D01*
X111166056Y-91307431D01*
X111082488Y-91151086D01*
X111079569Y-91141463D01*
X111031023Y-90981431D01*
X111031023Y-90981430D01*
X111031022Y-90981427D01*
X111013646Y-90805000D01*
X111031022Y-90628573D01*
X111082488Y-90458914D01*
X111166056Y-90302569D01*
X111278525Y-90165525D01*
X111415569Y-90053056D01*
X111571914Y-89969488D01*
X111571917Y-89969487D01*
X111571919Y-89969486D01*
X111741569Y-89918023D01*
X111741570Y-89918023D01*
X111741573Y-89918022D01*
X111873789Y-89905000D01*
X112662211Y-89905000D01*
X112794427Y-89918022D01*
X112794427Y-89918022D01*
G37*
G36*
X150816627Y-88162299D02*
G01*
X150866148Y-88177321D01*
X150976855Y-88210903D01*
X150976857Y-88210904D01*
X151124518Y-88289831D01*
X151253949Y-88396051D01*
X151360169Y-88525482D01*
X151439096Y-88673143D01*
X151487701Y-88833373D01*
X151504112Y-89000000D01*
X151487701Y-89166627D01*
X151487700Y-89166629D01*
X151444909Y-89307696D01*
X151439096Y-89326857D01*
X151360169Y-89474518D01*
X151253949Y-89603949D01*
X151124518Y-89710169D01*
X150976857Y-89789096D01*
X150976855Y-89789097D01*
X150896742Y-89813399D01*
X150816627Y-89837701D01*
X150691752Y-89850000D01*
X149308248Y-89850000D01*
X149183373Y-89837701D01*
X149103258Y-89813399D01*
X149023145Y-89789097D01*
X149023143Y-89789096D01*
X148875482Y-89710169D01*
X148746051Y-89603949D01*
X148639831Y-89474518D01*
X148560904Y-89326857D01*
X148555092Y-89307696D01*
X148512300Y-89166629D01*
X148512299Y-89166627D01*
X148495888Y-89000000D01*
X148512299Y-88833373D01*
X148560904Y-88673143D01*
X148639831Y-88525482D01*
X148746051Y-88396051D01*
X148875482Y-88289831D01*
X149023143Y-88210904D01*
X149023145Y-88210903D01*
X149133852Y-88177321D01*
X149183373Y-88162299D01*
X149308248Y-88150000D01*
X150691752Y-88150000D01*
X150816627Y-88162299D01*
X150816627Y-88162299D01*
G37*
G36*
X135458471Y-88123859D02*
G01*
X135536827Y-88131576D01*
X135687628Y-88177321D01*
X135687630Y-88177322D01*
X135826605Y-88251606D01*
X135948422Y-88351578D01*
X136048394Y-88473395D01*
X136076235Y-88525482D01*
X136122679Y-88612372D01*
X136168424Y-88763173D01*
X136183870Y-88920000D01*
X136168424Y-89076827D01*
X136122679Y-89227628D01*
X136122678Y-89227630D01*
X136048394Y-89366605D01*
X135948422Y-89488422D01*
X135826605Y-89588394D01*
X135711349Y-89650000D01*
X135687628Y-89662679D01*
X135536827Y-89708424D01*
X135458471Y-89716141D01*
X135419294Y-89720000D01*
X135340706Y-89720000D01*
X135301529Y-89716141D01*
X135223173Y-89708424D01*
X135072372Y-89662679D01*
X135048651Y-89650000D01*
X134933395Y-89588394D01*
X134811578Y-89488422D01*
X134711606Y-89366605D01*
X134637322Y-89227630D01*
X134637321Y-89227628D01*
X134591576Y-89076827D01*
X134576130Y-88920000D01*
X134591576Y-88763173D01*
X134637321Y-88612372D01*
X134683765Y-88525482D01*
X134711606Y-88473395D01*
X134811578Y-88351578D01*
X134933395Y-88251606D01*
X135072370Y-88177322D01*
X135072372Y-88177321D01*
X135223173Y-88131576D01*
X135301529Y-88123859D01*
X135340706Y-88120000D01*
X135419294Y-88120000D01*
X135458471Y-88123859D01*
X135458471Y-88123859D01*
G37*
G36*
X143078471Y-88123859D02*
G01*
X143156827Y-88131576D01*
X143307628Y-88177321D01*
X143307630Y-88177322D01*
X143446605Y-88251606D01*
X143568422Y-88351578D01*
X143668394Y-88473395D01*
X143696235Y-88525482D01*
X143742679Y-88612372D01*
X143788424Y-88763173D01*
X143803870Y-88920000D01*
X143788424Y-89076827D01*
X143742679Y-89227628D01*
X143742678Y-89227630D01*
X143668394Y-89366605D01*
X143568422Y-89488422D01*
X143446605Y-89588394D01*
X143331349Y-89650000D01*
X143307628Y-89662679D01*
X143156827Y-89708424D01*
X143078471Y-89716141D01*
X143039294Y-89720000D01*
X142960706Y-89720000D01*
X142921529Y-89716141D01*
X142843173Y-89708424D01*
X142692372Y-89662679D01*
X142668651Y-89650000D01*
X142553395Y-89588394D01*
X142431578Y-89488422D01*
X142331606Y-89366605D01*
X142257322Y-89227630D01*
X142257321Y-89227628D01*
X142211576Y-89076827D01*
X142196130Y-88920000D01*
X142211576Y-88763173D01*
X142257321Y-88612372D01*
X142303765Y-88525482D01*
X142331606Y-88473395D01*
X142431578Y-88351578D01*
X142553395Y-88251606D01*
X142692370Y-88177322D01*
X142692372Y-88177321D01*
X142843173Y-88131576D01*
X142921529Y-88123859D01*
X142960706Y-88120000D01*
X143039294Y-88120000D01*
X143078471Y-88123859D01*
X143078471Y-88123859D01*
G37*
G36*
X122560000Y-89650000D02*
G01*
X121960000Y-89650000D01*
X121960000Y-88150000D01*
X122560000Y-88150000D01*
X122560000Y-89650000D01*
X122560000Y-89650000D01*
G37*
G36*
X127640000Y-89650000D02*
G01*
X127040000Y-89650000D01*
X127040000Y-88150000D01*
X127640000Y-88150000D01*
X127640000Y-89650000D01*
X127640000Y-89650000D01*
G37*
G36*
X128910000Y-89650000D02*
G01*
X128310000Y-89650000D01*
X128310000Y-88150000D01*
X128910000Y-88150000D01*
X128910000Y-89650000D01*
X128910000Y-89650000D01*
G37*
G36*
X126370000Y-89650000D02*
G01*
X125770000Y-89650000D01*
X125770000Y-88150000D01*
X126370000Y-88150000D01*
X126370000Y-89650000D01*
X126370000Y-89650000D01*
G37*
G36*
X121290000Y-89650000D02*
G01*
X120690000Y-89650000D01*
X120690000Y-88150000D01*
X121290000Y-88150000D01*
X121290000Y-89650000D01*
X121290000Y-89650000D01*
G37*
G36*
X125100000Y-89650000D02*
G01*
X124500000Y-89650000D01*
X124500000Y-88150000D01*
X125100000Y-88150000D01*
X125100000Y-89650000D01*
X125100000Y-89650000D01*
G37*
G36*
X123830000Y-89650000D02*
G01*
X123230000Y-89650000D01*
X123230000Y-88150000D01*
X123830000Y-88150000D01*
X123830000Y-89650000D01*
X123830000Y-89650000D01*
G37*
G36*
X146338964Y-87891337D02*
G01*
X146370525Y-87900912D01*
X146399620Y-87916463D01*
X146425115Y-87937385D01*
X146446037Y-87962880D01*
X146461588Y-87991975D01*
X146471163Y-88023536D01*
X146475000Y-88062498D01*
X146475000Y-89137502D01*
X146471163Y-89176464D01*
X146461588Y-89208025D01*
X146446037Y-89237120D01*
X146425115Y-89262615D01*
X146399620Y-89283537D01*
X146370525Y-89299088D01*
X146338964Y-89308663D01*
X146300002Y-89312500D01*
X144899998Y-89312500D01*
X144861036Y-89308663D01*
X144829475Y-89299088D01*
X144800380Y-89283537D01*
X144774885Y-89262615D01*
X144753963Y-89237120D01*
X144738412Y-89208025D01*
X144728837Y-89176464D01*
X144725000Y-89137502D01*
X144725000Y-88062498D01*
X144728837Y-88023536D01*
X144738412Y-87991975D01*
X144753963Y-87962880D01*
X144774885Y-87937385D01*
X144800380Y-87916463D01*
X144829475Y-87900912D01*
X144861036Y-87891337D01*
X144899998Y-87887500D01*
X146300002Y-87887500D01*
X146338964Y-87891337D01*
X146338964Y-87891337D01*
G37*
G36*
X133455522Y-87704039D02*
G01*
X133489057Y-87714212D01*
X133519956Y-87730728D01*
X133547043Y-87752957D01*
X133569272Y-87780044D01*
X133585788Y-87810943D01*
X133595961Y-87844478D01*
X133600000Y-87885487D01*
X133600000Y-88914513D01*
X133595961Y-88955522D01*
X133585788Y-88989057D01*
X133569272Y-89019956D01*
X133547043Y-89047043D01*
X133519956Y-89069272D01*
X133489057Y-89085788D01*
X133455522Y-89095961D01*
X133414513Y-89100000D01*
X132635487Y-89100000D01*
X132594478Y-89095961D01*
X132560943Y-89085788D01*
X132530044Y-89069272D01*
X132502957Y-89047043D01*
X132480728Y-89019956D01*
X132464212Y-88989057D01*
X132454039Y-88955522D01*
X132450000Y-88914513D01*
X132450000Y-87885487D01*
X132454039Y-87844478D01*
X132464212Y-87810943D01*
X132480728Y-87780044D01*
X132502957Y-87752957D01*
X132530044Y-87730728D01*
X132560943Y-87714212D01*
X132594478Y-87704039D01*
X132635487Y-87700000D01*
X133414513Y-87700000D01*
X133455522Y-87704039D01*
X133455522Y-87704039D01*
G37*
G36*
X131405522Y-87704039D02*
G01*
X131439057Y-87714212D01*
X131469956Y-87730728D01*
X131497043Y-87752957D01*
X131519272Y-87780044D01*
X131535788Y-87810943D01*
X131545961Y-87844478D01*
X131550000Y-87885487D01*
X131550000Y-88914513D01*
X131545961Y-88955522D01*
X131535788Y-88989057D01*
X131519272Y-89019956D01*
X131497043Y-89047043D01*
X131469956Y-89069272D01*
X131439057Y-89085788D01*
X131405522Y-89095961D01*
X131364513Y-89100000D01*
X130585487Y-89100000D01*
X130544478Y-89095961D01*
X130510943Y-89085788D01*
X130480044Y-89069272D01*
X130452957Y-89047043D01*
X130430728Y-89019956D01*
X130414212Y-88989057D01*
X130404039Y-88955522D01*
X130400000Y-88914513D01*
X130400000Y-87885487D01*
X130404039Y-87844478D01*
X130414212Y-87810943D01*
X130430728Y-87780044D01*
X130452957Y-87752957D01*
X130480044Y-87730728D01*
X130510943Y-87714212D01*
X130544478Y-87704039D01*
X130585487Y-87700000D01*
X131364513Y-87700000D01*
X131405522Y-87704039D01*
X131405522Y-87704039D01*
G37*
G36*
X101776490Y-86858819D02*
G01*
X101840889Y-86871629D01*
X102022878Y-86947011D01*
X102186663Y-87056449D01*
X102325951Y-87195737D01*
X102435389Y-87359522D01*
X102510771Y-87541511D01*
X102510771Y-87541512D01*
X102549200Y-87734707D01*
X102549200Y-87931693D01*
X102523581Y-88060490D01*
X102510771Y-88124889D01*
X102435389Y-88306878D01*
X102325951Y-88470663D01*
X102186663Y-88609951D01*
X102022878Y-88719389D01*
X101840889Y-88794771D01*
X101776490Y-88807581D01*
X101647693Y-88833200D01*
X101450707Y-88833200D01*
X101321910Y-88807581D01*
X101257511Y-88794771D01*
X101075522Y-88719389D01*
X100911737Y-88609951D01*
X100772449Y-88470663D01*
X100663011Y-88306878D01*
X100587629Y-88124889D01*
X100574819Y-88060490D01*
X100549200Y-87931693D01*
X100549200Y-87734707D01*
X100587629Y-87541512D01*
X100587629Y-87541511D01*
X100663011Y-87359522D01*
X100772449Y-87195737D01*
X100911737Y-87056449D01*
X101075522Y-86947011D01*
X101257511Y-86871629D01*
X101321910Y-86858819D01*
X101450707Y-86833200D01*
X101647693Y-86833200D01*
X101776490Y-86858819D01*
X101776490Y-86858819D01*
G37*
G36*
X99134209Y-87297291D02*
G01*
X99169629Y-87304336D01*
X99219676Y-87325067D01*
X99269724Y-87345797D01*
X99359802Y-87405985D01*
X99436415Y-87482598D01*
X99496603Y-87572676D01*
X99538064Y-87672772D01*
X99559200Y-87779028D01*
X99559200Y-87887372D01*
X99538064Y-87993628D01*
X99496603Y-88093724D01*
X99436415Y-88183802D01*
X99359802Y-88260415D01*
X99269724Y-88320603D01*
X99219676Y-88341334D01*
X99169629Y-88362064D01*
X99134209Y-88369109D01*
X99063372Y-88383200D01*
X98955028Y-88383200D01*
X98884191Y-88369109D01*
X98848771Y-88362064D01*
X98798724Y-88341334D01*
X98748676Y-88320603D01*
X98658598Y-88260415D01*
X98581985Y-88183802D01*
X98521797Y-88093724D01*
X98480336Y-87993628D01*
X98459200Y-87887372D01*
X98459200Y-87779028D01*
X98480336Y-87672772D01*
X98521797Y-87572676D01*
X98581985Y-87482598D01*
X98658598Y-87405985D01*
X98748676Y-87345797D01*
X98798724Y-87325066D01*
X98848771Y-87304336D01*
X98884191Y-87297291D01*
X98955028Y-87283200D01*
X99063372Y-87283200D01*
X99134209Y-87297291D01*
X99134209Y-87297291D01*
G37*
G36*
X155816627Y-85662299D02*
G01*
X155896742Y-85686602D01*
X155976855Y-85710903D01*
X155976857Y-85710904D01*
X156124518Y-85789831D01*
X156253949Y-85896051D01*
X156360169Y-86025482D01*
X156419388Y-86136273D01*
X156439097Y-86173145D01*
X156454273Y-86223175D01*
X156487701Y-86333373D01*
X156504112Y-86500000D01*
X156487701Y-86666627D01*
X156487700Y-86666629D01*
X156439173Y-86826606D01*
X156439096Y-86826857D01*
X156360169Y-86974518D01*
X156253949Y-87103949D01*
X156124518Y-87210169D01*
X155976857Y-87289096D01*
X155976855Y-87289097D01*
X155896742Y-87313398D01*
X155816627Y-87337701D01*
X155691752Y-87350000D01*
X154308248Y-87350000D01*
X154183373Y-87337701D01*
X154103258Y-87313398D01*
X154023145Y-87289097D01*
X154023143Y-87289096D01*
X153875482Y-87210169D01*
X153746051Y-87103949D01*
X153639831Y-86974518D01*
X153560904Y-86826857D01*
X153560828Y-86826606D01*
X153512300Y-86666629D01*
X153512299Y-86666627D01*
X153495888Y-86500000D01*
X153512299Y-86333373D01*
X153545727Y-86223175D01*
X153560903Y-86173145D01*
X153580612Y-86136273D01*
X153639831Y-86025482D01*
X153746051Y-85896051D01*
X153875482Y-85789831D01*
X154023143Y-85710904D01*
X154023145Y-85710903D01*
X154103258Y-85686602D01*
X154183373Y-85662299D01*
X154308248Y-85650000D01*
X155691752Y-85650000D01*
X155816627Y-85662299D01*
X155816627Y-85662299D01*
G37*
G36*
X143078471Y-85583859D02*
G01*
X143156827Y-85591576D01*
X143307628Y-85637321D01*
X143307630Y-85637322D01*
X143446605Y-85711606D01*
X143568422Y-85811578D01*
X143637748Y-85896052D01*
X143668393Y-85933394D01*
X143742679Y-86072372D01*
X143788424Y-86223173D01*
X143803870Y-86380000D01*
X143788424Y-86536827D01*
X143749049Y-86666629D01*
X143742678Y-86687630D01*
X143668394Y-86826605D01*
X143568422Y-86948422D01*
X143446605Y-87048394D01*
X143342671Y-87103948D01*
X143307628Y-87122679D01*
X143156827Y-87168424D01*
X143078471Y-87176141D01*
X143039294Y-87180000D01*
X142960706Y-87180000D01*
X142921529Y-87176141D01*
X142843173Y-87168424D01*
X142692372Y-87122679D01*
X142657329Y-87103948D01*
X142553395Y-87048394D01*
X142431578Y-86948422D01*
X142331606Y-86826605D01*
X142257322Y-86687630D01*
X142250951Y-86666629D01*
X142211576Y-86536827D01*
X142196130Y-86380000D01*
X142211576Y-86223173D01*
X142257321Y-86072372D01*
X142331607Y-85933394D01*
X142362253Y-85896052D01*
X142431578Y-85811578D01*
X142553395Y-85711606D01*
X142692370Y-85637322D01*
X142692372Y-85637321D01*
X142843173Y-85591576D01*
X142921529Y-85583859D01*
X142960706Y-85580000D01*
X143039294Y-85580000D01*
X143078471Y-85583859D01*
X143078471Y-85583859D01*
G37*
G36*
X135458471Y-85583859D02*
G01*
X135536827Y-85591576D01*
X135687628Y-85637321D01*
X135687630Y-85637322D01*
X135826605Y-85711606D01*
X135948422Y-85811578D01*
X136017748Y-85896052D01*
X136048393Y-85933394D01*
X136122679Y-86072372D01*
X136168424Y-86223173D01*
X136183870Y-86380000D01*
X136168424Y-86536827D01*
X136129049Y-86666629D01*
X136122678Y-86687630D01*
X136048394Y-86826605D01*
X135948422Y-86948422D01*
X135826605Y-87048394D01*
X135722671Y-87103948D01*
X135687628Y-87122679D01*
X135536827Y-87168424D01*
X135458471Y-87176141D01*
X135419294Y-87180000D01*
X135340706Y-87180000D01*
X135301529Y-87176141D01*
X135223173Y-87168424D01*
X135072372Y-87122679D01*
X135037329Y-87103948D01*
X134933395Y-87048394D01*
X134811578Y-86948422D01*
X134711606Y-86826605D01*
X134637322Y-86687630D01*
X134630951Y-86666629D01*
X134591576Y-86536827D01*
X134576130Y-86380000D01*
X134591576Y-86223173D01*
X134637321Y-86072372D01*
X134711607Y-85933394D01*
X134742253Y-85896052D01*
X134811578Y-85811578D01*
X134933395Y-85711606D01*
X135072370Y-85637322D01*
X135072372Y-85637321D01*
X135223173Y-85591576D01*
X135301529Y-85583859D01*
X135340706Y-85580000D01*
X135419294Y-85580000D01*
X135458471Y-85583859D01*
X135458471Y-85583859D01*
G37*
G36*
X119671200Y-86930600D02*
G01*
X117971200Y-86930600D01*
X117971200Y-85230600D01*
X119671200Y-85230600D01*
X119671200Y-86930600D01*
X119671200Y-86930600D01*
G37*
G36*
X112794427Y-84838022D02*
G01*
X112794430Y-84838023D01*
X112794431Y-84838023D01*
X112964081Y-84889486D01*
X112964083Y-84889487D01*
X112964086Y-84889488D01*
X113120431Y-84973056D01*
X113257475Y-85085525D01*
X113369944Y-85222569D01*
X113453512Y-85378914D01*
X113453513Y-85378917D01*
X113453514Y-85378919D01*
X113476177Y-85453629D01*
X113504978Y-85548573D01*
X113522354Y-85725000D01*
X113504978Y-85901427D01*
X113504977Y-85901430D01*
X113504977Y-85901431D01*
X113467347Y-86025481D01*
X113453512Y-86071086D01*
X113369944Y-86227431D01*
X113257475Y-86364475D01*
X113120431Y-86476944D01*
X112964086Y-86560512D01*
X112964083Y-86560513D01*
X112964081Y-86560514D01*
X112794431Y-86611977D01*
X112794430Y-86611977D01*
X112794427Y-86611978D01*
X112662211Y-86625000D01*
X111873789Y-86625000D01*
X111741573Y-86611978D01*
X111741570Y-86611977D01*
X111741569Y-86611977D01*
X111571919Y-86560514D01*
X111571917Y-86560513D01*
X111571914Y-86560512D01*
X111415569Y-86476944D01*
X111278525Y-86364475D01*
X111166056Y-86227431D01*
X111082488Y-86071086D01*
X111068654Y-86025481D01*
X111031023Y-85901431D01*
X111031023Y-85901430D01*
X111031022Y-85901427D01*
X111013646Y-85725000D01*
X111031022Y-85548573D01*
X111059823Y-85453629D01*
X111082486Y-85378919D01*
X111082487Y-85378917D01*
X111082488Y-85378914D01*
X111166056Y-85222569D01*
X111278525Y-85085525D01*
X111415569Y-84973056D01*
X111571914Y-84889488D01*
X111571917Y-84889487D01*
X111571919Y-84889486D01*
X111741569Y-84838023D01*
X111741570Y-84838023D01*
X111741573Y-84838022D01*
X111873789Y-84825000D01*
X112662211Y-84825000D01*
X112794427Y-84838022D01*
X112794427Y-84838022D01*
G37*
G36*
X146338964Y-84916337D02*
G01*
X146370525Y-84925912D01*
X146399620Y-84941463D01*
X146425115Y-84962385D01*
X146446037Y-84987880D01*
X146461588Y-85016975D01*
X146471163Y-85048536D01*
X146475000Y-85087498D01*
X146475000Y-86162502D01*
X146471163Y-86201464D01*
X146461588Y-86233025D01*
X146446037Y-86262120D01*
X146425115Y-86287615D01*
X146399620Y-86308537D01*
X146370525Y-86324088D01*
X146338964Y-86333663D01*
X146300002Y-86337500D01*
X144899998Y-86337500D01*
X144861036Y-86333663D01*
X144829475Y-86324088D01*
X144800380Y-86308537D01*
X144774885Y-86287615D01*
X144753963Y-86262120D01*
X144738412Y-86233025D01*
X144728837Y-86201464D01*
X144725000Y-86162502D01*
X144725000Y-85087498D01*
X144728837Y-85048536D01*
X144738412Y-85016975D01*
X144753963Y-84987880D01*
X144774885Y-84962385D01*
X144800380Y-84941463D01*
X144829475Y-84925912D01*
X144861036Y-84916337D01*
X144899998Y-84912500D01*
X146300002Y-84912500D01*
X146338964Y-84916337D01*
X146338964Y-84916337D01*
G37*
G36*
X102549200Y-86293200D02*
G01*
X100549200Y-86293200D01*
X100549200Y-84293200D01*
X102549200Y-84293200D01*
X102549200Y-86293200D01*
X102549200Y-86293200D01*
G37*
G36*
X99125318Y-84755522D02*
G01*
X99169629Y-84764336D01*
X99219676Y-84785067D01*
X99269724Y-84805797D01*
X99359802Y-84865985D01*
X99436415Y-84942598D01*
X99496603Y-85032676D01*
X99517333Y-85082724D01*
X99530176Y-85113727D01*
X99538064Y-85132772D01*
X99559200Y-85239028D01*
X99559200Y-85347372D01*
X99538064Y-85453628D01*
X99496603Y-85553724D01*
X99436415Y-85643802D01*
X99359802Y-85720415D01*
X99269724Y-85780603D01*
X99247443Y-85789832D01*
X99169629Y-85822064D01*
X99134209Y-85829109D01*
X99063372Y-85843200D01*
X98955028Y-85843200D01*
X98884191Y-85829109D01*
X98848771Y-85822064D01*
X98770957Y-85789832D01*
X98748676Y-85780603D01*
X98658598Y-85720415D01*
X98581985Y-85643802D01*
X98521797Y-85553724D01*
X98480336Y-85453628D01*
X98459200Y-85347372D01*
X98459200Y-85239028D01*
X98480336Y-85132772D01*
X98488225Y-85113727D01*
X98501067Y-85082724D01*
X98521797Y-85032676D01*
X98581985Y-84942598D01*
X98658598Y-84865985D01*
X98748676Y-84805797D01*
X98798724Y-84785067D01*
X98848771Y-84764336D01*
X98893082Y-84755522D01*
X98955028Y-84743200D01*
X99063372Y-84743200D01*
X99125318Y-84755522D01*
X99125318Y-84755522D01*
G37*
G36*
X131655522Y-83504039D02*
G01*
X131689057Y-83514212D01*
X131719956Y-83530728D01*
X131747043Y-83552957D01*
X131769272Y-83580044D01*
X131785788Y-83610943D01*
X131795961Y-83644478D01*
X131800000Y-83685487D01*
X131800000Y-84714513D01*
X131795961Y-84755522D01*
X131785788Y-84789057D01*
X131769272Y-84819956D01*
X131747043Y-84847043D01*
X131719956Y-84869272D01*
X131689057Y-84885788D01*
X131655522Y-84895961D01*
X131614513Y-84900000D01*
X130835487Y-84900000D01*
X130794478Y-84895961D01*
X130760943Y-84885788D01*
X130730044Y-84869272D01*
X130702957Y-84847043D01*
X130680728Y-84819956D01*
X130664212Y-84789057D01*
X130654039Y-84755522D01*
X130650000Y-84714513D01*
X130650000Y-83685487D01*
X130654039Y-83644478D01*
X130664212Y-83610943D01*
X130680728Y-83580044D01*
X130702957Y-83552957D01*
X130730044Y-83530728D01*
X130760943Y-83514212D01*
X130794478Y-83504039D01*
X130835487Y-83500000D01*
X131614513Y-83500000D01*
X131655522Y-83504039D01*
X131655522Y-83504039D01*
G37*
G36*
X129605522Y-83504039D02*
G01*
X129639057Y-83514212D01*
X129669956Y-83530728D01*
X129697043Y-83552957D01*
X129719272Y-83580044D01*
X129735788Y-83610943D01*
X129745961Y-83644478D01*
X129750000Y-83685487D01*
X129750000Y-84714513D01*
X129745961Y-84755522D01*
X129735788Y-84789057D01*
X129719272Y-84819956D01*
X129697043Y-84847043D01*
X129669956Y-84869272D01*
X129639057Y-84885788D01*
X129605522Y-84895961D01*
X129564513Y-84900000D01*
X128785487Y-84900000D01*
X128744478Y-84895961D01*
X128710943Y-84885788D01*
X128680044Y-84869272D01*
X128652957Y-84847043D01*
X128630728Y-84819956D01*
X128614212Y-84789057D01*
X128604039Y-84755522D01*
X128600000Y-84714513D01*
X128600000Y-83685487D01*
X128604039Y-83644478D01*
X128614212Y-83610943D01*
X128630728Y-83580044D01*
X128652957Y-83552957D01*
X128680044Y-83530728D01*
X128710943Y-83514212D01*
X128744478Y-83504039D01*
X128785487Y-83500000D01*
X129564513Y-83500000D01*
X129605522Y-83504039D01*
X129605522Y-83504039D01*
G37*
G36*
X118987827Y-82702899D02*
G01*
X119026113Y-82714513D01*
X119148055Y-82751503D01*
X119148057Y-82751504D01*
X119295718Y-82830431D01*
X119425149Y-82936651D01*
X119531369Y-83066082D01*
X119610296Y-83213743D01*
X119658901Y-83373973D01*
X119675312Y-83540600D01*
X119658901Y-83707227D01*
X119658900Y-83707229D01*
X119623335Y-83824475D01*
X119610296Y-83867457D01*
X119531369Y-84015118D01*
X119425149Y-84144549D01*
X119295718Y-84250769D01*
X119148057Y-84329696D01*
X119148055Y-84329697D01*
X119067942Y-84353998D01*
X118987827Y-84378301D01*
X118862952Y-84390600D01*
X118779448Y-84390600D01*
X118654573Y-84378301D01*
X118574458Y-84353998D01*
X118494345Y-84329697D01*
X118494343Y-84329696D01*
X118346682Y-84250769D01*
X118217251Y-84144549D01*
X118111031Y-84015118D01*
X118032104Y-83867457D01*
X118019066Y-83824475D01*
X117983500Y-83707229D01*
X117983499Y-83707227D01*
X117967088Y-83540600D01*
X117983499Y-83373973D01*
X118032104Y-83213743D01*
X118111031Y-83066082D01*
X118217251Y-82936651D01*
X118346682Y-82830431D01*
X118494343Y-82751504D01*
X118494345Y-82751503D01*
X118616287Y-82714513D01*
X118654573Y-82702899D01*
X118779448Y-82690600D01*
X118862952Y-82690600D01*
X118987827Y-82702899D01*
X118987827Y-82702899D01*
G37*
G36*
X122509600Y-84170800D02*
G01*
X120959600Y-84170800D01*
X120959600Y-83570800D01*
X122509600Y-83570800D01*
X122509600Y-84170800D01*
X122509600Y-84170800D01*
G37*
G36*
X127909600Y-84170800D02*
G01*
X126359600Y-84170800D01*
X126359600Y-83570800D01*
X127909600Y-83570800D01*
X127909600Y-84170800D01*
X127909600Y-84170800D01*
G37*
G36*
X112794427Y-82298022D02*
G01*
X112794430Y-82298023D01*
X112794431Y-82298023D01*
X112964081Y-82349486D01*
X112964083Y-82349487D01*
X112964086Y-82349488D01*
X113120431Y-82433056D01*
X113257475Y-82545525D01*
X113369944Y-82682569D01*
X113453512Y-82838914D01*
X113453513Y-82838917D01*
X113453514Y-82838919D01*
X113483161Y-82936652D01*
X113504978Y-83008573D01*
X113522354Y-83185000D01*
X113504978Y-83361427D01*
X113504977Y-83361430D01*
X113504977Y-83361431D01*
X113457170Y-83519030D01*
X113453512Y-83531086D01*
X113369944Y-83687431D01*
X113257475Y-83824475D01*
X113120431Y-83936944D01*
X112964086Y-84020512D01*
X112964083Y-84020513D01*
X112964081Y-84020514D01*
X112794431Y-84071977D01*
X112794430Y-84071977D01*
X112794427Y-84071978D01*
X112662211Y-84085000D01*
X111873789Y-84085000D01*
X111741573Y-84071978D01*
X111741570Y-84071977D01*
X111741569Y-84071977D01*
X111571919Y-84020514D01*
X111571917Y-84020513D01*
X111571914Y-84020512D01*
X111415569Y-83936944D01*
X111278525Y-83824475D01*
X111166056Y-83687431D01*
X111082488Y-83531086D01*
X111078831Y-83519030D01*
X111031023Y-83361431D01*
X111031023Y-83361430D01*
X111031022Y-83361427D01*
X111013646Y-83185000D01*
X111031022Y-83008573D01*
X111052839Y-82936652D01*
X111082486Y-82838919D01*
X111082487Y-82838917D01*
X111082488Y-82838914D01*
X111166056Y-82682569D01*
X111278525Y-82545525D01*
X111415569Y-82433056D01*
X111571914Y-82349488D01*
X111571917Y-82349487D01*
X111571919Y-82349486D01*
X111741569Y-82298023D01*
X111741570Y-82298023D01*
X111741573Y-82298022D01*
X111873789Y-82285000D01*
X112662211Y-82285000D01*
X112794427Y-82298022D01*
X112794427Y-82298022D01*
G37*
G36*
X122509600Y-82900800D02*
G01*
X120959600Y-82900800D01*
X120959600Y-82300800D01*
X122509600Y-82300800D01*
X122509600Y-82900800D01*
X122509600Y-82900800D01*
G37*
G36*
X127909600Y-82900800D02*
G01*
X126359600Y-82900800D01*
X126359600Y-82300800D01*
X127909600Y-82300800D01*
X127909600Y-82900800D01*
X127909600Y-82900800D01*
G37*
G36*
X131655522Y-81504039D02*
G01*
X131689057Y-81514212D01*
X131719956Y-81530728D01*
X131747043Y-81552957D01*
X131769272Y-81580044D01*
X131785788Y-81610943D01*
X131795961Y-81644478D01*
X131800000Y-81685487D01*
X131800000Y-82714513D01*
X131795961Y-82755522D01*
X131785788Y-82789057D01*
X131769272Y-82819956D01*
X131747043Y-82847043D01*
X131719956Y-82869272D01*
X131689057Y-82885788D01*
X131655522Y-82895961D01*
X131614513Y-82900000D01*
X130835487Y-82900000D01*
X130794478Y-82895961D01*
X130760943Y-82885788D01*
X130730044Y-82869272D01*
X130702957Y-82847043D01*
X130680728Y-82819956D01*
X130664212Y-82789057D01*
X130654039Y-82755522D01*
X130650000Y-82714513D01*
X130650000Y-81685487D01*
X130654039Y-81644478D01*
X130664212Y-81610943D01*
X130680728Y-81580044D01*
X130702957Y-81552957D01*
X130730044Y-81530728D01*
X130760943Y-81514212D01*
X130794478Y-81504039D01*
X130835487Y-81500000D01*
X131614513Y-81500000D01*
X131655522Y-81504039D01*
X131655522Y-81504039D01*
G37*
G36*
X129605522Y-81504039D02*
G01*
X129639057Y-81514212D01*
X129669956Y-81530728D01*
X129697043Y-81552957D01*
X129719272Y-81580044D01*
X129735788Y-81610943D01*
X129745961Y-81644478D01*
X129750000Y-81685487D01*
X129750000Y-82714513D01*
X129745961Y-82755522D01*
X129735788Y-82789057D01*
X129719272Y-82819956D01*
X129697043Y-82847043D01*
X129669956Y-82869272D01*
X129639057Y-82885788D01*
X129605522Y-82895961D01*
X129564513Y-82900000D01*
X128785487Y-82900000D01*
X128744478Y-82895961D01*
X128710943Y-82885788D01*
X128680044Y-82869272D01*
X128652957Y-82847043D01*
X128630728Y-82819956D01*
X128614212Y-82789057D01*
X128604039Y-82755522D01*
X128600000Y-82714513D01*
X128600000Y-81685487D01*
X128604039Y-81644478D01*
X128614212Y-81610943D01*
X128630728Y-81580044D01*
X128652957Y-81552957D01*
X128680044Y-81530728D01*
X128710943Y-81514212D01*
X128744478Y-81504039D01*
X128785487Y-81500000D01*
X129564513Y-81500000D01*
X129605522Y-81504039D01*
X129605522Y-81504039D01*
G37*
G36*
X116493822Y-81518139D02*
G01*
X116527357Y-81528312D01*
X116558256Y-81544828D01*
X116585343Y-81567057D01*
X116607572Y-81594144D01*
X116624088Y-81625043D01*
X116634261Y-81658578D01*
X116638300Y-81699587D01*
X116638300Y-82478613D01*
X116634261Y-82519622D01*
X116624088Y-82553157D01*
X116607572Y-82584056D01*
X116585343Y-82611143D01*
X116558256Y-82633372D01*
X116527357Y-82649888D01*
X116493822Y-82660061D01*
X116452813Y-82664100D01*
X115423787Y-82664100D01*
X115382778Y-82660061D01*
X115349243Y-82649888D01*
X115318344Y-82633372D01*
X115291257Y-82611143D01*
X115269028Y-82584056D01*
X115252512Y-82553157D01*
X115242339Y-82519622D01*
X115238300Y-82478613D01*
X115238300Y-81699587D01*
X115242339Y-81658578D01*
X115252512Y-81625043D01*
X115269028Y-81594144D01*
X115291257Y-81567057D01*
X115318344Y-81544828D01*
X115349243Y-81528312D01*
X115382778Y-81518139D01*
X115423787Y-81514100D01*
X116452813Y-81514100D01*
X116493822Y-81518139D01*
X116493822Y-81518139D01*
G37*
G36*
X144036843Y-81358014D02*
G01*
X144036846Y-81358015D01*
X144036845Y-81358015D01*
X144127839Y-81395706D01*
X144169063Y-81423251D01*
X144209730Y-81450424D01*
X144279376Y-81520070D01*
X144334095Y-81601963D01*
X144371786Y-81692957D01*
X144391000Y-81789553D01*
X144391000Y-81888047D01*
X144371786Y-81984643D01*
X144371785Y-81984645D01*
X144334094Y-82075639D01*
X144279375Y-82157531D01*
X144209731Y-82227175D01*
X144127839Y-82281894D01*
X144127838Y-82281895D01*
X144127837Y-82281895D01*
X144036843Y-82319586D01*
X143940247Y-82338800D01*
X143841753Y-82338800D01*
X143745157Y-82319586D01*
X143654163Y-82281895D01*
X143654162Y-82281895D01*
X143654161Y-82281894D01*
X143572269Y-82227175D01*
X143502625Y-82157531D01*
X143447906Y-82075639D01*
X143410215Y-81984645D01*
X143410214Y-81984643D01*
X143391000Y-81888047D01*
X143391000Y-81789553D01*
X143410214Y-81692957D01*
X143447905Y-81601963D01*
X143502624Y-81520070D01*
X143572270Y-81450424D01*
X143612937Y-81423251D01*
X143654161Y-81395706D01*
X143745155Y-81358015D01*
X143745154Y-81358015D01*
X143745157Y-81358014D01*
X143841753Y-81338800D01*
X143940247Y-81338800D01*
X144036843Y-81358014D01*
X144036843Y-81358014D01*
G37*
G36*
X104808122Y-80876139D02*
G01*
X104841657Y-80886312D01*
X104872556Y-80902828D01*
X104899643Y-80925057D01*
X104921872Y-80952144D01*
X104938388Y-80983043D01*
X104948561Y-81016578D01*
X104952600Y-81057587D01*
X104952600Y-82086613D01*
X104948561Y-82127622D01*
X104938388Y-82161157D01*
X104921872Y-82192056D01*
X104899643Y-82219143D01*
X104872556Y-82241372D01*
X104841657Y-82257888D01*
X104808122Y-82268061D01*
X104767113Y-82272100D01*
X103988087Y-82272100D01*
X103947078Y-82268061D01*
X103913543Y-82257888D01*
X103882644Y-82241372D01*
X103855557Y-82219143D01*
X103833328Y-82192056D01*
X103816812Y-82161157D01*
X103806639Y-82127622D01*
X103802600Y-82086613D01*
X103802600Y-81057587D01*
X103806639Y-81016578D01*
X103816812Y-80983043D01*
X103833328Y-80952144D01*
X103855557Y-80925057D01*
X103882644Y-80902828D01*
X103913543Y-80886312D01*
X103947078Y-80876139D01*
X103988087Y-80872100D01*
X104767113Y-80872100D01*
X104808122Y-80876139D01*
X104808122Y-80876139D01*
G37*
G36*
X102758122Y-80876139D02*
G01*
X102791657Y-80886312D01*
X102822556Y-80902828D01*
X102849643Y-80925057D01*
X102871872Y-80952144D01*
X102888388Y-80983043D01*
X102898561Y-81016578D01*
X102902600Y-81057587D01*
X102902600Y-82086613D01*
X102898561Y-82127622D01*
X102888388Y-82161157D01*
X102871872Y-82192056D01*
X102849643Y-82219143D01*
X102822556Y-82241372D01*
X102791657Y-82257888D01*
X102758122Y-82268061D01*
X102717113Y-82272100D01*
X101938087Y-82272100D01*
X101897078Y-82268061D01*
X101863543Y-82257888D01*
X101832644Y-82241372D01*
X101805557Y-82219143D01*
X101783328Y-82192056D01*
X101766812Y-82161157D01*
X101756639Y-82127622D01*
X101752600Y-82086613D01*
X101752600Y-81057587D01*
X101756639Y-81016578D01*
X101766812Y-80983043D01*
X101783328Y-80952144D01*
X101805557Y-80925057D01*
X101832644Y-80902828D01*
X101863543Y-80886312D01*
X101897078Y-80876139D01*
X101938087Y-80872100D01*
X102717113Y-80872100D01*
X102758122Y-80876139D01*
X102758122Y-80876139D01*
G37*
G36*
X118987827Y-80162899D02*
G01*
X119067942Y-80187201D01*
X119148055Y-80211503D01*
X119148057Y-80211504D01*
X119295718Y-80290431D01*
X119425149Y-80396651D01*
X119531369Y-80526082D01*
X119610296Y-80673743D01*
X119610297Y-80673745D01*
X119632115Y-80745671D01*
X119658901Y-80833973D01*
X119675312Y-81000600D01*
X119658901Y-81167227D01*
X119610296Y-81327457D01*
X119531369Y-81475118D01*
X119425149Y-81604549D01*
X119295718Y-81710769D01*
X119148323Y-81789554D01*
X119148055Y-81789697D01*
X119067942Y-81813999D01*
X118987827Y-81838301D01*
X118862952Y-81850600D01*
X118779448Y-81850600D01*
X118654573Y-81838301D01*
X118574458Y-81813999D01*
X118494345Y-81789697D01*
X118494077Y-81789554D01*
X118346682Y-81710769D01*
X118217251Y-81604549D01*
X118111031Y-81475118D01*
X118032104Y-81327457D01*
X117983499Y-81167227D01*
X117967088Y-81000600D01*
X117983499Y-80833973D01*
X118010285Y-80745671D01*
X118032103Y-80673745D01*
X118032104Y-80673743D01*
X118111031Y-80526082D01*
X118217251Y-80396651D01*
X118346682Y-80290431D01*
X118494343Y-80211504D01*
X118494345Y-80211503D01*
X118574458Y-80187201D01*
X118654573Y-80162899D01*
X118779448Y-80150600D01*
X118862952Y-80150600D01*
X118987827Y-80162899D01*
X118987827Y-80162899D01*
G37*
G36*
X127909600Y-81630800D02*
G01*
X126359600Y-81630800D01*
X126359600Y-81030800D01*
X127909600Y-81030800D01*
X127909600Y-81630800D01*
X127909600Y-81630800D01*
G37*
G36*
X122509600Y-81630800D02*
G01*
X120959600Y-81630800D01*
X120959600Y-81030800D01*
X122509600Y-81030800D01*
X122509600Y-81630800D01*
X122509600Y-81630800D01*
G37*
G36*
X129605522Y-79504039D02*
G01*
X129639057Y-79514212D01*
X129669956Y-79530728D01*
X129697043Y-79552957D01*
X129719272Y-79580044D01*
X129735788Y-79610943D01*
X129745961Y-79644478D01*
X129750000Y-79685487D01*
X129750000Y-80714513D01*
X129745961Y-80755522D01*
X129735788Y-80789057D01*
X129719272Y-80819956D01*
X129697043Y-80847043D01*
X129669956Y-80869272D01*
X129639057Y-80885788D01*
X129605522Y-80895961D01*
X129564513Y-80900000D01*
X128785487Y-80900000D01*
X128744478Y-80895961D01*
X128710943Y-80885788D01*
X128680044Y-80869272D01*
X128652957Y-80847043D01*
X128630728Y-80819956D01*
X128614212Y-80789057D01*
X128604039Y-80755522D01*
X128600000Y-80714513D01*
X128600000Y-79685487D01*
X128604039Y-79644478D01*
X128614212Y-79610943D01*
X128630728Y-79580044D01*
X128652957Y-79552957D01*
X128680044Y-79530728D01*
X128710943Y-79514212D01*
X128744478Y-79504039D01*
X128785487Y-79500000D01*
X129564513Y-79500000D01*
X129605522Y-79504039D01*
X129605522Y-79504039D01*
G37*
G36*
X131655522Y-79504039D02*
G01*
X131689057Y-79514212D01*
X131719956Y-79530728D01*
X131747043Y-79552957D01*
X131769272Y-79580044D01*
X131785788Y-79610943D01*
X131795961Y-79644478D01*
X131800000Y-79685487D01*
X131800000Y-80714513D01*
X131795961Y-80755522D01*
X131785788Y-80789057D01*
X131769272Y-80819956D01*
X131747043Y-80847043D01*
X131719956Y-80869272D01*
X131689057Y-80885788D01*
X131655522Y-80895961D01*
X131614513Y-80900000D01*
X130835487Y-80900000D01*
X130794478Y-80895961D01*
X130760943Y-80885788D01*
X130730044Y-80869272D01*
X130702957Y-80847043D01*
X130680728Y-80819956D01*
X130664212Y-80789057D01*
X130654039Y-80755522D01*
X130650000Y-80714513D01*
X130650000Y-79685487D01*
X130654039Y-79644478D01*
X130664212Y-79610943D01*
X130680728Y-79580044D01*
X130702957Y-79552957D01*
X130730044Y-79530728D01*
X130760943Y-79514212D01*
X130794478Y-79504039D01*
X130835487Y-79500000D01*
X131614513Y-79500000D01*
X131655522Y-79504039D01*
X131655522Y-79504039D01*
G37*
G36*
X116493822Y-79468139D02*
G01*
X116527357Y-79478312D01*
X116558256Y-79494828D01*
X116585343Y-79517057D01*
X116607572Y-79544144D01*
X116624088Y-79575043D01*
X116634261Y-79608578D01*
X116638300Y-79649587D01*
X116638300Y-80428613D01*
X116634261Y-80469622D01*
X116624088Y-80503157D01*
X116607572Y-80534056D01*
X116585343Y-80561143D01*
X116558256Y-80583372D01*
X116527357Y-80599888D01*
X116493822Y-80610061D01*
X116452813Y-80614100D01*
X115423787Y-80614100D01*
X115382778Y-80610061D01*
X115349243Y-80599888D01*
X115318344Y-80583372D01*
X115291257Y-80561143D01*
X115269028Y-80534056D01*
X115252512Y-80503157D01*
X115242339Y-80469622D01*
X115238300Y-80428613D01*
X115238300Y-79649587D01*
X115242339Y-79608578D01*
X115252512Y-79575043D01*
X115269028Y-79544144D01*
X115291257Y-79517057D01*
X115318344Y-79494828D01*
X115349243Y-79478312D01*
X115382778Y-79468139D01*
X115423787Y-79464100D01*
X116452813Y-79464100D01*
X116493822Y-79468139D01*
X116493822Y-79468139D01*
G37*
G36*
X127909600Y-80360800D02*
G01*
X126359600Y-80360800D01*
X126359600Y-79760800D01*
X127909600Y-79760800D01*
X127909600Y-80360800D01*
X127909600Y-80360800D01*
G37*
G36*
X122509600Y-80360800D02*
G01*
X120959600Y-80360800D01*
X120959600Y-79760800D01*
X122509600Y-79760800D01*
X122509600Y-80360800D01*
X122509600Y-80360800D01*
G37*
G36*
X159615380Y-73044766D02*
G01*
X159914837Y-73104331D01*
X160479001Y-73338015D01*
X160986735Y-73677272D01*
X161418528Y-74109065D01*
X161757785Y-74616799D01*
X161991469Y-75180963D01*
X161991469Y-75180965D01*
X162110600Y-75779875D01*
X162110600Y-76390525D01*
X162078186Y-76553479D01*
X161991469Y-76989437D01*
X161757785Y-77553601D01*
X161418528Y-78061335D01*
X160986735Y-78493128D01*
X160479001Y-78832385D01*
X159914837Y-79066069D01*
X159615380Y-79125634D01*
X159315925Y-79185200D01*
X158705275Y-79185200D01*
X158405820Y-79125635D01*
X158106363Y-79066069D01*
X157542199Y-78832385D01*
X157034465Y-78493128D01*
X156602672Y-78061335D01*
X156263415Y-77553601D01*
X156029731Y-76989437D01*
X155943014Y-76553479D01*
X155910600Y-76390525D01*
X155910600Y-75779875D01*
X156029731Y-75180965D01*
X156029731Y-75180963D01*
X156263415Y-74616799D01*
X156602672Y-74109065D01*
X157034465Y-73677272D01*
X157542199Y-73338015D01*
X158106363Y-73104331D01*
X158405820Y-73044766D01*
X158705275Y-72985200D01*
X159315925Y-72985200D01*
X159615380Y-73044766D01*
X159615380Y-73044766D01*
G37*
G36*
X101615380Y-73044766D02*
G01*
X101914837Y-73104331D01*
X102479001Y-73338015D01*
X102986735Y-73677272D01*
X103418528Y-74109065D01*
X103757785Y-74616799D01*
X103991469Y-75180963D01*
X103991469Y-75180965D01*
X104110600Y-75779875D01*
X104110600Y-76390525D01*
X104078186Y-76553479D01*
X103991469Y-76989437D01*
X103757785Y-77553601D01*
X103418528Y-78061335D01*
X102986735Y-78493128D01*
X102479001Y-78832385D01*
X101914837Y-79066069D01*
X101615380Y-79125635D01*
X101315925Y-79185200D01*
X100705275Y-79185200D01*
X100405820Y-79125635D01*
X100106363Y-79066069D01*
X99542199Y-78832385D01*
X99034465Y-78493128D01*
X98602672Y-78061335D01*
X98263415Y-77553601D01*
X98029731Y-76989437D01*
X97943014Y-76553479D01*
X97910600Y-76390525D01*
X97910600Y-75779875D01*
X98029731Y-75180965D01*
X98029731Y-75180963D01*
X98263415Y-74616799D01*
X98602672Y-74109065D01*
X99034465Y-73677272D01*
X99542199Y-73338015D01*
X100106363Y-73104331D01*
X100405820Y-73044766D01*
X100705275Y-72985200D01*
X101315925Y-72985200D01*
X101615380Y-73044766D01*
X101615380Y-73044766D01*
G37*
G36*
X113585312Y-76495765D02*
G01*
X113669895Y-76504096D01*
X113832684Y-76553478D01*
X113832687Y-76553479D01*
X113982707Y-76633666D01*
X113982708Y-76633667D01*
X113982712Y-76633669D01*
X114114212Y-76741588D01*
X114222131Y-76873088D01*
X114222133Y-76873092D01*
X114222134Y-76873093D01*
X114302321Y-77023113D01*
X114302322Y-77023116D01*
X114351704Y-77185905D01*
X114368378Y-77355200D01*
X114351704Y-77524495D01*
X114309920Y-77662238D01*
X114302321Y-77687287D01*
X114222134Y-77837307D01*
X114222131Y-77837312D01*
X114114212Y-77968812D01*
X113982712Y-78076731D01*
X113982708Y-78076733D01*
X113982707Y-78076734D01*
X113832687Y-78156921D01*
X113832684Y-78156922D01*
X113669895Y-78206304D01*
X113585312Y-78214635D01*
X113543021Y-78218800D01*
X113458179Y-78218800D01*
X113415888Y-78214635D01*
X113331305Y-78206304D01*
X113168516Y-78156922D01*
X113168513Y-78156921D01*
X113018493Y-78076734D01*
X113018492Y-78076733D01*
X113018488Y-78076731D01*
X112886988Y-77968812D01*
X112779069Y-77837312D01*
X112779066Y-77837307D01*
X112698879Y-77687287D01*
X112691280Y-77662238D01*
X112649496Y-77524495D01*
X112632822Y-77355200D01*
X112649496Y-77185905D01*
X112698878Y-77023116D01*
X112698879Y-77023113D01*
X112779066Y-76873093D01*
X112779067Y-76873092D01*
X112779069Y-76873088D01*
X112886988Y-76741588D01*
X113018488Y-76633669D01*
X113018492Y-76633667D01*
X113018493Y-76633666D01*
X113168513Y-76553479D01*
X113168516Y-76553478D01*
X113331305Y-76504096D01*
X113415888Y-76495765D01*
X113458179Y-76491600D01*
X113543021Y-76491600D01*
X113585312Y-76495765D01*
X113585312Y-76495765D01*
G37*
G36*
X154225312Y-76495765D02*
G01*
X154309895Y-76504096D01*
X154472684Y-76553478D01*
X154472687Y-76553479D01*
X154622707Y-76633666D01*
X154622708Y-76633667D01*
X154622712Y-76633669D01*
X154754212Y-76741588D01*
X154862131Y-76873088D01*
X154862133Y-76873092D01*
X154862134Y-76873093D01*
X154942321Y-77023113D01*
X154942322Y-77023116D01*
X154991704Y-77185905D01*
X155008378Y-77355200D01*
X154991704Y-77524495D01*
X154949920Y-77662238D01*
X154942321Y-77687287D01*
X154862134Y-77837307D01*
X154862131Y-77837312D01*
X154754212Y-77968812D01*
X154622712Y-78076731D01*
X154622708Y-78076733D01*
X154622707Y-78076734D01*
X154472687Y-78156921D01*
X154472684Y-78156922D01*
X154309895Y-78206304D01*
X154225312Y-78214635D01*
X154183021Y-78218800D01*
X154098179Y-78218800D01*
X154055888Y-78214635D01*
X153971305Y-78206304D01*
X153808516Y-78156922D01*
X153808513Y-78156921D01*
X153658493Y-78076734D01*
X153658492Y-78076733D01*
X153658488Y-78076731D01*
X153526988Y-77968812D01*
X153419069Y-77837312D01*
X153419066Y-77837307D01*
X153338879Y-77687287D01*
X153331280Y-77662238D01*
X153289496Y-77524495D01*
X153272822Y-77355200D01*
X153289496Y-77185905D01*
X153338878Y-77023116D01*
X153338879Y-77023113D01*
X153419066Y-76873093D01*
X153419067Y-76873092D01*
X153419069Y-76873088D01*
X153526988Y-76741588D01*
X153658488Y-76633669D01*
X153658492Y-76633667D01*
X153658493Y-76633666D01*
X153808513Y-76553479D01*
X153808516Y-76553478D01*
X153971305Y-76504096D01*
X154055888Y-76495765D01*
X154098179Y-76491600D01*
X154183021Y-76491600D01*
X154225312Y-76495765D01*
X154225312Y-76495765D01*
G37*
G36*
X151685312Y-76495765D02*
G01*
X151769895Y-76504096D01*
X151932684Y-76553478D01*
X151932687Y-76553479D01*
X152082707Y-76633666D01*
X152082708Y-76633667D01*
X152082712Y-76633669D01*
X152214212Y-76741588D01*
X152322131Y-76873088D01*
X152322133Y-76873092D01*
X152322134Y-76873093D01*
X152402321Y-77023113D01*
X152402322Y-77023116D01*
X152451704Y-77185905D01*
X152468378Y-77355200D01*
X152451704Y-77524495D01*
X152409920Y-77662238D01*
X152402321Y-77687287D01*
X152322134Y-77837307D01*
X152322131Y-77837312D01*
X152214212Y-77968812D01*
X152082712Y-78076731D01*
X152082708Y-78076733D01*
X152082707Y-78076734D01*
X151932687Y-78156921D01*
X151932684Y-78156922D01*
X151769895Y-78206304D01*
X151685312Y-78214635D01*
X151643021Y-78218800D01*
X151558179Y-78218800D01*
X151515888Y-78214635D01*
X151431305Y-78206304D01*
X151268516Y-78156922D01*
X151268513Y-78156921D01*
X151118493Y-78076734D01*
X151118492Y-78076733D01*
X151118488Y-78076731D01*
X150986988Y-77968812D01*
X150879069Y-77837312D01*
X150879066Y-77837307D01*
X150798879Y-77687287D01*
X150791280Y-77662238D01*
X150749496Y-77524495D01*
X150732822Y-77355200D01*
X150749496Y-77185905D01*
X150798878Y-77023116D01*
X150798879Y-77023113D01*
X150879066Y-76873093D01*
X150879067Y-76873092D01*
X150879069Y-76873088D01*
X150986988Y-76741588D01*
X151118488Y-76633669D01*
X151118492Y-76633667D01*
X151118493Y-76633666D01*
X151268513Y-76553479D01*
X151268516Y-76553478D01*
X151431305Y-76504096D01*
X151515888Y-76495765D01*
X151558179Y-76491600D01*
X151643021Y-76491600D01*
X151685312Y-76495765D01*
X151685312Y-76495765D01*
G37*
G36*
X149145312Y-76495765D02*
G01*
X149229895Y-76504096D01*
X149392684Y-76553478D01*
X149392687Y-76553479D01*
X149542707Y-76633666D01*
X149542708Y-76633667D01*
X149542712Y-76633669D01*
X149674212Y-76741588D01*
X149782131Y-76873088D01*
X149782133Y-76873092D01*
X149782134Y-76873093D01*
X149862321Y-77023113D01*
X149862322Y-77023116D01*
X149911704Y-77185905D01*
X149928378Y-77355200D01*
X149911704Y-77524495D01*
X149869920Y-77662238D01*
X149862321Y-77687287D01*
X149782134Y-77837307D01*
X149782131Y-77837312D01*
X149674212Y-77968812D01*
X149542712Y-78076731D01*
X149542708Y-78076733D01*
X149542707Y-78076734D01*
X149392687Y-78156921D01*
X149392684Y-78156922D01*
X149229895Y-78206304D01*
X149145312Y-78214635D01*
X149103021Y-78218800D01*
X149018179Y-78218800D01*
X148975888Y-78214635D01*
X148891305Y-78206304D01*
X148728516Y-78156922D01*
X148728513Y-78156921D01*
X148578493Y-78076734D01*
X148578492Y-78076733D01*
X148578488Y-78076731D01*
X148446988Y-77968812D01*
X148339069Y-77837312D01*
X148339066Y-77837307D01*
X148258879Y-77687287D01*
X148251280Y-77662238D01*
X148209496Y-77524495D01*
X148192822Y-77355200D01*
X148209496Y-77185905D01*
X148258878Y-77023116D01*
X148258879Y-77023113D01*
X148339066Y-76873093D01*
X148339067Y-76873092D01*
X148339069Y-76873088D01*
X148446988Y-76741588D01*
X148578488Y-76633669D01*
X148578492Y-76633667D01*
X148578493Y-76633666D01*
X148728513Y-76553479D01*
X148728516Y-76553478D01*
X148891305Y-76504096D01*
X148975888Y-76495765D01*
X149018179Y-76491600D01*
X149103021Y-76491600D01*
X149145312Y-76495765D01*
X149145312Y-76495765D01*
G37*
G36*
X146605312Y-76495765D02*
G01*
X146689895Y-76504096D01*
X146852684Y-76553478D01*
X146852687Y-76553479D01*
X147002707Y-76633666D01*
X147002708Y-76633667D01*
X147002712Y-76633669D01*
X147134212Y-76741588D01*
X147242131Y-76873088D01*
X147242133Y-76873092D01*
X147242134Y-76873093D01*
X147322321Y-77023113D01*
X147322322Y-77023116D01*
X147371704Y-77185905D01*
X147388378Y-77355200D01*
X147371704Y-77524495D01*
X147329920Y-77662238D01*
X147322321Y-77687287D01*
X147242134Y-77837307D01*
X147242131Y-77837312D01*
X147134212Y-77968812D01*
X147002712Y-78076731D01*
X147002708Y-78076733D01*
X147002707Y-78076734D01*
X146852687Y-78156921D01*
X146852684Y-78156922D01*
X146689895Y-78206304D01*
X146605312Y-78214635D01*
X146563021Y-78218800D01*
X146478179Y-78218800D01*
X146435888Y-78214635D01*
X146351305Y-78206304D01*
X146188516Y-78156922D01*
X146188513Y-78156921D01*
X146038493Y-78076734D01*
X146038492Y-78076733D01*
X146038488Y-78076731D01*
X145906988Y-77968812D01*
X145799069Y-77837312D01*
X145799066Y-77837307D01*
X145718879Y-77687287D01*
X145711280Y-77662238D01*
X145669496Y-77524495D01*
X145652822Y-77355200D01*
X145669496Y-77185905D01*
X145718878Y-77023116D01*
X145718879Y-77023113D01*
X145799066Y-76873093D01*
X145799067Y-76873092D01*
X145799069Y-76873088D01*
X145906988Y-76741588D01*
X146038488Y-76633669D01*
X146038492Y-76633667D01*
X146038493Y-76633666D01*
X146188513Y-76553479D01*
X146188516Y-76553478D01*
X146351305Y-76504096D01*
X146435888Y-76495765D01*
X146478179Y-76491600D01*
X146563021Y-76491600D01*
X146605312Y-76495765D01*
X146605312Y-76495765D01*
G37*
G36*
X144065312Y-76495765D02*
G01*
X144149895Y-76504096D01*
X144312684Y-76553478D01*
X144312687Y-76553479D01*
X144462707Y-76633666D01*
X144462708Y-76633667D01*
X144462712Y-76633669D01*
X144594212Y-76741588D01*
X144702131Y-76873088D01*
X144702133Y-76873092D01*
X144702134Y-76873093D01*
X144782321Y-77023113D01*
X144782322Y-77023116D01*
X144831704Y-77185905D01*
X144848378Y-77355200D01*
X144831704Y-77524495D01*
X144789920Y-77662238D01*
X144782321Y-77687287D01*
X144702134Y-77837307D01*
X144702131Y-77837312D01*
X144594212Y-77968812D01*
X144462712Y-78076731D01*
X144462708Y-78076733D01*
X144462707Y-78076734D01*
X144312687Y-78156921D01*
X144312684Y-78156922D01*
X144149895Y-78206304D01*
X144065312Y-78214635D01*
X144023021Y-78218800D01*
X143938179Y-78218800D01*
X143895888Y-78214635D01*
X143811305Y-78206304D01*
X143648516Y-78156922D01*
X143648513Y-78156921D01*
X143498493Y-78076734D01*
X143498492Y-78076733D01*
X143498488Y-78076731D01*
X143366988Y-77968812D01*
X143259069Y-77837312D01*
X143259066Y-77837307D01*
X143178879Y-77687287D01*
X143171280Y-77662238D01*
X143129496Y-77524495D01*
X143112822Y-77355200D01*
X143129496Y-77185905D01*
X143178878Y-77023116D01*
X143178879Y-77023113D01*
X143259066Y-76873093D01*
X143259067Y-76873092D01*
X143259069Y-76873088D01*
X143366988Y-76741588D01*
X143498488Y-76633669D01*
X143498492Y-76633667D01*
X143498493Y-76633666D01*
X143648513Y-76553479D01*
X143648516Y-76553478D01*
X143811305Y-76504096D01*
X143895888Y-76495765D01*
X143938179Y-76491600D01*
X144023021Y-76491600D01*
X144065312Y-76495765D01*
X144065312Y-76495765D01*
G37*
G36*
X141525312Y-76495765D02*
G01*
X141609895Y-76504096D01*
X141772684Y-76553478D01*
X141772687Y-76553479D01*
X141922707Y-76633666D01*
X141922708Y-76633667D01*
X141922712Y-76633669D01*
X142054212Y-76741588D01*
X142162131Y-76873088D01*
X142162133Y-76873092D01*
X142162134Y-76873093D01*
X142242321Y-77023113D01*
X142242322Y-77023116D01*
X142291704Y-77185905D01*
X142308378Y-77355200D01*
X142291704Y-77524495D01*
X142249920Y-77662238D01*
X142242321Y-77687287D01*
X142162134Y-77837307D01*
X142162131Y-77837312D01*
X142054212Y-77968812D01*
X141922712Y-78076731D01*
X141922708Y-78076733D01*
X141922707Y-78076734D01*
X141772687Y-78156921D01*
X141772684Y-78156922D01*
X141609895Y-78206304D01*
X141525312Y-78214635D01*
X141483021Y-78218800D01*
X141398179Y-78218800D01*
X141355888Y-78214635D01*
X141271305Y-78206304D01*
X141108516Y-78156922D01*
X141108513Y-78156921D01*
X140958493Y-78076734D01*
X140958492Y-78076733D01*
X140958488Y-78076731D01*
X140826988Y-77968812D01*
X140719069Y-77837312D01*
X140719066Y-77837307D01*
X140638879Y-77687287D01*
X140631280Y-77662238D01*
X140589496Y-77524495D01*
X140572822Y-77355200D01*
X140589496Y-77185905D01*
X140638878Y-77023116D01*
X140638879Y-77023113D01*
X140719066Y-76873093D01*
X140719067Y-76873092D01*
X140719069Y-76873088D01*
X140826988Y-76741588D01*
X140958488Y-76633669D01*
X140958492Y-76633667D01*
X140958493Y-76633666D01*
X141108513Y-76553479D01*
X141108516Y-76553478D01*
X141271305Y-76504096D01*
X141355888Y-76495765D01*
X141398179Y-76491600D01*
X141483021Y-76491600D01*
X141525312Y-76495765D01*
X141525312Y-76495765D01*
G37*
G36*
X138985312Y-76495765D02*
G01*
X139069895Y-76504096D01*
X139232684Y-76553478D01*
X139232687Y-76553479D01*
X139382707Y-76633666D01*
X139382708Y-76633667D01*
X139382712Y-76633669D01*
X139514212Y-76741588D01*
X139622131Y-76873088D01*
X139622133Y-76873092D01*
X139622134Y-76873093D01*
X139702321Y-77023113D01*
X139702322Y-77023116D01*
X139751704Y-77185905D01*
X139768378Y-77355200D01*
X139751704Y-77524495D01*
X139709920Y-77662238D01*
X139702321Y-77687287D01*
X139622134Y-77837307D01*
X139622131Y-77837312D01*
X139514212Y-77968812D01*
X139382712Y-78076731D01*
X139382708Y-78076733D01*
X139382707Y-78076734D01*
X139232687Y-78156921D01*
X139232684Y-78156922D01*
X139069895Y-78206304D01*
X138985312Y-78214635D01*
X138943021Y-78218800D01*
X138858179Y-78218800D01*
X138815888Y-78214635D01*
X138731305Y-78206304D01*
X138568516Y-78156922D01*
X138568513Y-78156921D01*
X138418493Y-78076734D01*
X138418492Y-78076733D01*
X138418488Y-78076731D01*
X138286988Y-77968812D01*
X138179069Y-77837312D01*
X138179066Y-77837307D01*
X138098879Y-77687287D01*
X138091280Y-77662238D01*
X138049496Y-77524495D01*
X138032822Y-77355200D01*
X138049496Y-77185905D01*
X138098878Y-77023116D01*
X138098879Y-77023113D01*
X138179066Y-76873093D01*
X138179067Y-76873092D01*
X138179069Y-76873088D01*
X138286988Y-76741588D01*
X138418488Y-76633669D01*
X138418492Y-76633667D01*
X138418493Y-76633666D01*
X138568513Y-76553479D01*
X138568516Y-76553478D01*
X138731305Y-76504096D01*
X138815888Y-76495765D01*
X138858179Y-76491600D01*
X138943021Y-76491600D01*
X138985312Y-76495765D01*
X138985312Y-76495765D01*
G37*
G36*
X136445312Y-76495765D02*
G01*
X136529895Y-76504096D01*
X136692684Y-76553478D01*
X136692687Y-76553479D01*
X136842707Y-76633666D01*
X136842708Y-76633667D01*
X136842712Y-76633669D01*
X136974212Y-76741588D01*
X137082131Y-76873088D01*
X137082133Y-76873092D01*
X137082134Y-76873093D01*
X137162321Y-77023113D01*
X137162322Y-77023116D01*
X137211704Y-77185905D01*
X137228378Y-77355200D01*
X137211704Y-77524495D01*
X137169920Y-77662238D01*
X137162321Y-77687287D01*
X137082134Y-77837307D01*
X137082131Y-77837312D01*
X136974212Y-77968812D01*
X136842712Y-78076731D01*
X136842708Y-78076733D01*
X136842707Y-78076734D01*
X136692687Y-78156921D01*
X136692684Y-78156922D01*
X136529895Y-78206304D01*
X136445312Y-78214635D01*
X136403021Y-78218800D01*
X136318179Y-78218800D01*
X136275888Y-78214635D01*
X136191305Y-78206304D01*
X136028516Y-78156922D01*
X136028513Y-78156921D01*
X135878493Y-78076734D01*
X135878492Y-78076733D01*
X135878488Y-78076731D01*
X135746988Y-77968812D01*
X135639069Y-77837312D01*
X135639066Y-77837307D01*
X135558879Y-77687287D01*
X135551280Y-77662238D01*
X135509496Y-77524495D01*
X135492822Y-77355200D01*
X135509496Y-77185905D01*
X135558878Y-77023116D01*
X135558879Y-77023113D01*
X135639066Y-76873093D01*
X135639067Y-76873092D01*
X135639069Y-76873088D01*
X135746988Y-76741588D01*
X135878488Y-76633669D01*
X135878492Y-76633667D01*
X135878493Y-76633666D01*
X136028513Y-76553479D01*
X136028516Y-76553478D01*
X136191305Y-76504096D01*
X136275888Y-76495765D01*
X136318179Y-76491600D01*
X136403021Y-76491600D01*
X136445312Y-76495765D01*
X136445312Y-76495765D01*
G37*
G36*
X133905312Y-76495765D02*
G01*
X133989895Y-76504096D01*
X134152684Y-76553478D01*
X134152687Y-76553479D01*
X134302707Y-76633666D01*
X134302708Y-76633667D01*
X134302712Y-76633669D01*
X134434212Y-76741588D01*
X134542131Y-76873088D01*
X134542133Y-76873092D01*
X134542134Y-76873093D01*
X134622321Y-77023113D01*
X134622322Y-77023116D01*
X134671704Y-77185905D01*
X134688378Y-77355200D01*
X134671704Y-77524495D01*
X134629920Y-77662238D01*
X134622321Y-77687287D01*
X134542134Y-77837307D01*
X134542131Y-77837312D01*
X134434212Y-77968812D01*
X134302712Y-78076731D01*
X134302708Y-78076733D01*
X134302707Y-78076734D01*
X134152687Y-78156921D01*
X134152684Y-78156922D01*
X133989895Y-78206304D01*
X133905312Y-78214635D01*
X133863021Y-78218800D01*
X133778179Y-78218800D01*
X133735888Y-78214635D01*
X133651305Y-78206304D01*
X133488516Y-78156922D01*
X133488513Y-78156921D01*
X133338493Y-78076734D01*
X133338492Y-78076733D01*
X133338488Y-78076731D01*
X133206988Y-77968812D01*
X133099069Y-77837312D01*
X133099066Y-77837307D01*
X133018879Y-77687287D01*
X133011280Y-77662238D01*
X132969496Y-77524495D01*
X132952822Y-77355200D01*
X132969496Y-77185905D01*
X133018878Y-77023116D01*
X133018879Y-77023113D01*
X133099066Y-76873093D01*
X133099067Y-76873092D01*
X133099069Y-76873088D01*
X133206988Y-76741588D01*
X133338488Y-76633669D01*
X133338492Y-76633667D01*
X133338493Y-76633666D01*
X133488513Y-76553479D01*
X133488516Y-76553478D01*
X133651305Y-76504096D01*
X133735888Y-76495765D01*
X133778179Y-76491600D01*
X133863021Y-76491600D01*
X133905312Y-76495765D01*
X133905312Y-76495765D01*
G37*
G36*
X128825312Y-76495765D02*
G01*
X128909895Y-76504096D01*
X129072684Y-76553478D01*
X129072687Y-76553479D01*
X129222707Y-76633666D01*
X129222708Y-76633667D01*
X129222712Y-76633669D01*
X129354212Y-76741588D01*
X129462131Y-76873088D01*
X129462133Y-76873092D01*
X129462134Y-76873093D01*
X129542321Y-77023113D01*
X129542322Y-77023116D01*
X129591704Y-77185905D01*
X129608378Y-77355200D01*
X129591704Y-77524495D01*
X129549920Y-77662238D01*
X129542321Y-77687287D01*
X129462134Y-77837307D01*
X129462131Y-77837312D01*
X129354212Y-77968812D01*
X129222712Y-78076731D01*
X129222708Y-78076733D01*
X129222707Y-78076734D01*
X129072687Y-78156921D01*
X129072684Y-78156922D01*
X128909895Y-78206304D01*
X128825312Y-78214635D01*
X128783021Y-78218800D01*
X128698179Y-78218800D01*
X128655888Y-78214635D01*
X128571305Y-78206304D01*
X128408516Y-78156922D01*
X128408513Y-78156921D01*
X128258493Y-78076734D01*
X128258492Y-78076733D01*
X128258488Y-78076731D01*
X128126988Y-77968812D01*
X128019069Y-77837312D01*
X128019066Y-77837307D01*
X127938879Y-77687287D01*
X127931280Y-77662238D01*
X127889496Y-77524495D01*
X127872822Y-77355200D01*
X127889496Y-77185905D01*
X127938878Y-77023116D01*
X127938879Y-77023113D01*
X128019066Y-76873093D01*
X128019067Y-76873092D01*
X128019069Y-76873088D01*
X128126988Y-76741588D01*
X128258488Y-76633669D01*
X128258492Y-76633667D01*
X128258493Y-76633666D01*
X128408513Y-76553479D01*
X128408516Y-76553478D01*
X128571305Y-76504096D01*
X128655888Y-76495765D01*
X128698179Y-76491600D01*
X128783021Y-76491600D01*
X128825312Y-76495765D01*
X128825312Y-76495765D01*
G37*
G36*
X126285312Y-76495765D02*
G01*
X126369895Y-76504096D01*
X126532684Y-76553478D01*
X126532687Y-76553479D01*
X126682707Y-76633666D01*
X126682708Y-76633667D01*
X126682712Y-76633669D01*
X126814212Y-76741588D01*
X126922131Y-76873088D01*
X126922133Y-76873092D01*
X126922134Y-76873093D01*
X127002321Y-77023113D01*
X127002322Y-77023116D01*
X127051704Y-77185905D01*
X127068378Y-77355200D01*
X127051704Y-77524495D01*
X127009920Y-77662238D01*
X127002321Y-77687287D01*
X126922134Y-77837307D01*
X126922131Y-77837312D01*
X126814212Y-77968812D01*
X126682712Y-78076731D01*
X126682708Y-78076733D01*
X126682707Y-78076734D01*
X126532687Y-78156921D01*
X126532684Y-78156922D01*
X126369895Y-78206304D01*
X126285312Y-78214635D01*
X126243021Y-78218800D01*
X126158179Y-78218800D01*
X126115888Y-78214635D01*
X126031305Y-78206304D01*
X125868516Y-78156922D01*
X125868513Y-78156921D01*
X125718493Y-78076734D01*
X125718492Y-78076733D01*
X125718488Y-78076731D01*
X125586988Y-77968812D01*
X125479069Y-77837312D01*
X125479066Y-77837307D01*
X125398879Y-77687287D01*
X125391280Y-77662238D01*
X125349496Y-77524495D01*
X125332822Y-77355200D01*
X125349496Y-77185905D01*
X125398878Y-77023116D01*
X125398879Y-77023113D01*
X125479066Y-76873093D01*
X125479067Y-76873092D01*
X125479069Y-76873088D01*
X125586988Y-76741588D01*
X125718488Y-76633669D01*
X125718492Y-76633667D01*
X125718493Y-76633666D01*
X125868513Y-76553479D01*
X125868516Y-76553478D01*
X126031305Y-76504096D01*
X126115888Y-76495765D01*
X126158179Y-76491600D01*
X126243021Y-76491600D01*
X126285312Y-76495765D01*
X126285312Y-76495765D01*
G37*
G36*
X123745312Y-76495765D02*
G01*
X123829895Y-76504096D01*
X123992684Y-76553478D01*
X123992687Y-76553479D01*
X124142707Y-76633666D01*
X124142708Y-76633667D01*
X124142712Y-76633669D01*
X124274212Y-76741588D01*
X124382131Y-76873088D01*
X124382133Y-76873092D01*
X124382134Y-76873093D01*
X124462321Y-77023113D01*
X124462322Y-77023116D01*
X124511704Y-77185905D01*
X124528378Y-77355200D01*
X124511704Y-77524495D01*
X124469920Y-77662238D01*
X124462321Y-77687287D01*
X124382134Y-77837307D01*
X124382131Y-77837312D01*
X124274212Y-77968812D01*
X124142712Y-78076731D01*
X124142708Y-78076733D01*
X124142707Y-78076734D01*
X123992687Y-78156921D01*
X123992684Y-78156922D01*
X123829895Y-78206304D01*
X123745312Y-78214635D01*
X123703021Y-78218800D01*
X123618179Y-78218800D01*
X123575888Y-78214635D01*
X123491305Y-78206304D01*
X123328516Y-78156922D01*
X123328513Y-78156921D01*
X123178493Y-78076734D01*
X123178492Y-78076733D01*
X123178488Y-78076731D01*
X123046988Y-77968812D01*
X122939069Y-77837312D01*
X122939066Y-77837307D01*
X122858879Y-77687287D01*
X122851280Y-77662238D01*
X122809496Y-77524495D01*
X122792822Y-77355200D01*
X122809496Y-77185905D01*
X122858878Y-77023116D01*
X122858879Y-77023113D01*
X122939066Y-76873093D01*
X122939067Y-76873092D01*
X122939069Y-76873088D01*
X123046988Y-76741588D01*
X123178488Y-76633669D01*
X123178492Y-76633667D01*
X123178493Y-76633666D01*
X123328513Y-76553479D01*
X123328516Y-76553478D01*
X123491305Y-76504096D01*
X123575888Y-76495765D01*
X123618179Y-76491600D01*
X123703021Y-76491600D01*
X123745312Y-76495765D01*
X123745312Y-76495765D01*
G37*
G36*
X121205312Y-76495765D02*
G01*
X121289895Y-76504096D01*
X121452684Y-76553478D01*
X121452687Y-76553479D01*
X121602707Y-76633666D01*
X121602708Y-76633667D01*
X121602712Y-76633669D01*
X121734212Y-76741588D01*
X121842131Y-76873088D01*
X121842133Y-76873092D01*
X121842134Y-76873093D01*
X121922321Y-77023113D01*
X121922322Y-77023116D01*
X121971704Y-77185905D01*
X121988378Y-77355200D01*
X121971704Y-77524495D01*
X121929920Y-77662238D01*
X121922321Y-77687287D01*
X121842134Y-77837307D01*
X121842131Y-77837312D01*
X121734212Y-77968812D01*
X121602712Y-78076731D01*
X121602708Y-78076733D01*
X121602707Y-78076734D01*
X121452687Y-78156921D01*
X121452684Y-78156922D01*
X121289895Y-78206304D01*
X121205312Y-78214635D01*
X121163021Y-78218800D01*
X121078179Y-78218800D01*
X121035888Y-78214635D01*
X120951305Y-78206304D01*
X120788516Y-78156922D01*
X120788513Y-78156921D01*
X120638493Y-78076734D01*
X120638492Y-78076733D01*
X120638488Y-78076731D01*
X120506988Y-77968812D01*
X120399069Y-77837312D01*
X120399066Y-77837307D01*
X120318879Y-77687287D01*
X120311280Y-77662238D01*
X120269496Y-77524495D01*
X120252822Y-77355200D01*
X120269496Y-77185905D01*
X120318878Y-77023116D01*
X120318879Y-77023113D01*
X120399066Y-76873093D01*
X120399067Y-76873092D01*
X120399069Y-76873088D01*
X120506988Y-76741588D01*
X120638488Y-76633669D01*
X120638492Y-76633667D01*
X120638493Y-76633666D01*
X120788513Y-76553479D01*
X120788516Y-76553478D01*
X120951305Y-76504096D01*
X121035888Y-76495765D01*
X121078179Y-76491600D01*
X121163021Y-76491600D01*
X121205312Y-76495765D01*
X121205312Y-76495765D01*
G37*
G36*
X118665312Y-76495765D02*
G01*
X118749895Y-76504096D01*
X118912684Y-76553478D01*
X118912687Y-76553479D01*
X119062707Y-76633666D01*
X119062708Y-76633667D01*
X119062712Y-76633669D01*
X119194212Y-76741588D01*
X119302131Y-76873088D01*
X119302133Y-76873092D01*
X119302134Y-76873093D01*
X119382321Y-77023113D01*
X119382322Y-77023116D01*
X119431704Y-77185905D01*
X119448378Y-77355200D01*
X119431704Y-77524495D01*
X119389920Y-77662238D01*
X119382321Y-77687287D01*
X119302134Y-77837307D01*
X119302131Y-77837312D01*
X119194212Y-77968812D01*
X119062712Y-78076731D01*
X119062708Y-78076733D01*
X119062707Y-78076734D01*
X118912687Y-78156921D01*
X118912684Y-78156922D01*
X118749895Y-78206304D01*
X118665312Y-78214635D01*
X118623021Y-78218800D01*
X118538179Y-78218800D01*
X118495888Y-78214635D01*
X118411305Y-78206304D01*
X118248516Y-78156922D01*
X118248513Y-78156921D01*
X118098493Y-78076734D01*
X118098492Y-78076733D01*
X118098488Y-78076731D01*
X117966988Y-77968812D01*
X117859069Y-77837312D01*
X117859066Y-77837307D01*
X117778879Y-77687287D01*
X117771280Y-77662238D01*
X117729496Y-77524495D01*
X117712822Y-77355200D01*
X117729496Y-77185905D01*
X117778878Y-77023116D01*
X117778879Y-77023113D01*
X117859066Y-76873093D01*
X117859067Y-76873092D01*
X117859069Y-76873088D01*
X117966988Y-76741588D01*
X118098488Y-76633669D01*
X118098492Y-76633667D01*
X118098493Y-76633666D01*
X118248513Y-76553479D01*
X118248516Y-76553478D01*
X118411305Y-76504096D01*
X118495888Y-76495765D01*
X118538179Y-76491600D01*
X118623021Y-76491600D01*
X118665312Y-76495765D01*
X118665312Y-76495765D01*
G37*
G36*
X116125312Y-76495765D02*
G01*
X116209895Y-76504096D01*
X116372684Y-76553478D01*
X116372687Y-76553479D01*
X116522707Y-76633666D01*
X116522708Y-76633667D01*
X116522712Y-76633669D01*
X116654212Y-76741588D01*
X116762131Y-76873088D01*
X116762133Y-76873092D01*
X116762134Y-76873093D01*
X116842321Y-77023113D01*
X116842322Y-77023116D01*
X116891704Y-77185905D01*
X116908378Y-77355200D01*
X116891704Y-77524495D01*
X116849920Y-77662238D01*
X116842321Y-77687287D01*
X116762134Y-77837307D01*
X116762131Y-77837312D01*
X116654212Y-77968812D01*
X116522712Y-78076731D01*
X116522708Y-78076733D01*
X116522707Y-78076734D01*
X116372687Y-78156921D01*
X116372684Y-78156922D01*
X116209895Y-78206304D01*
X116125312Y-78214635D01*
X116083021Y-78218800D01*
X115998179Y-78218800D01*
X115955888Y-78214635D01*
X115871305Y-78206304D01*
X115708516Y-78156922D01*
X115708513Y-78156921D01*
X115558493Y-78076734D01*
X115558492Y-78076733D01*
X115558488Y-78076731D01*
X115426988Y-77968812D01*
X115319069Y-77837312D01*
X115319066Y-77837307D01*
X115238879Y-77687287D01*
X115231280Y-77662238D01*
X115189496Y-77524495D01*
X115172822Y-77355200D01*
X115189496Y-77185905D01*
X115238878Y-77023116D01*
X115238879Y-77023113D01*
X115319066Y-76873093D01*
X115319067Y-76873092D01*
X115319069Y-76873088D01*
X115426988Y-76741588D01*
X115558488Y-76633669D01*
X115558492Y-76633667D01*
X115558493Y-76633666D01*
X115708513Y-76553479D01*
X115708516Y-76553478D01*
X115871305Y-76504096D01*
X115955888Y-76495765D01*
X115998179Y-76491600D01*
X116083021Y-76491600D01*
X116125312Y-76495765D01*
X116125312Y-76495765D01*
G37*
G36*
X131365312Y-76495765D02*
G01*
X131449895Y-76504096D01*
X131612684Y-76553478D01*
X131612687Y-76553479D01*
X131762707Y-76633666D01*
X131762708Y-76633667D01*
X131762712Y-76633669D01*
X131894212Y-76741588D01*
X132002131Y-76873088D01*
X132002133Y-76873092D01*
X132002134Y-76873093D01*
X132082321Y-77023113D01*
X132082322Y-77023116D01*
X132131704Y-77185905D01*
X132148378Y-77355200D01*
X132131704Y-77524495D01*
X132089920Y-77662238D01*
X132082321Y-77687287D01*
X132002134Y-77837307D01*
X132002131Y-77837312D01*
X131894212Y-77968812D01*
X131762712Y-78076731D01*
X131762708Y-78076733D01*
X131762707Y-78076734D01*
X131612687Y-78156921D01*
X131612684Y-78156922D01*
X131449895Y-78206304D01*
X131365312Y-78214635D01*
X131323021Y-78218800D01*
X131238179Y-78218800D01*
X131195888Y-78214635D01*
X131111305Y-78206304D01*
X130948516Y-78156922D01*
X130948513Y-78156921D01*
X130798493Y-78076734D01*
X130798492Y-78076733D01*
X130798488Y-78076731D01*
X130666988Y-77968812D01*
X130559069Y-77837312D01*
X130559066Y-77837307D01*
X130478879Y-77687287D01*
X130471280Y-77662238D01*
X130429496Y-77524495D01*
X130412822Y-77355200D01*
X130429496Y-77185905D01*
X130478878Y-77023116D01*
X130478879Y-77023113D01*
X130559066Y-76873093D01*
X130559067Y-76873092D01*
X130559069Y-76873088D01*
X130666988Y-76741588D01*
X130798488Y-76633669D01*
X130798492Y-76633667D01*
X130798493Y-76633666D01*
X130948513Y-76553479D01*
X130948516Y-76553478D01*
X131111305Y-76504096D01*
X131195888Y-76495765D01*
X131238179Y-76491600D01*
X131323021Y-76491600D01*
X131365312Y-76495765D01*
X131365312Y-76495765D01*
G37*
G36*
X106744200Y-78218800D02*
G01*
X105017000Y-78218800D01*
X105017000Y-76491600D01*
X106744200Y-76491600D01*
X106744200Y-78218800D01*
X106744200Y-78218800D01*
G37*
G36*
X108474552Y-76807853D02*
G01*
X108528419Y-76813158D01*
X108605118Y-76836425D01*
X108632098Y-76844609D01*
X108727638Y-76895676D01*
X108811390Y-76964410D01*
X108880124Y-77048162D01*
X108931191Y-77143702D01*
X108931192Y-77143706D01*
X108962642Y-77247381D01*
X108973261Y-77355200D01*
X108962642Y-77463019D01*
X108943994Y-77524493D01*
X108931191Y-77566698D01*
X108880124Y-77662238D01*
X108811390Y-77745990D01*
X108727638Y-77814724D01*
X108632098Y-77865791D01*
X108605118Y-77873975D01*
X108528419Y-77897242D01*
X108474552Y-77902547D01*
X108447619Y-77905200D01*
X108393581Y-77905200D01*
X108366648Y-77902547D01*
X108312781Y-77897242D01*
X108236082Y-77873975D01*
X108209102Y-77865791D01*
X108113562Y-77814724D01*
X108029810Y-77745990D01*
X107961076Y-77662238D01*
X107910009Y-77566698D01*
X107897206Y-77524493D01*
X107878558Y-77463019D01*
X107867939Y-77355200D01*
X107878558Y-77247381D01*
X107910008Y-77143706D01*
X107910009Y-77143702D01*
X107961076Y-77048162D01*
X108029810Y-76964410D01*
X108113562Y-76895676D01*
X108209102Y-76844609D01*
X108236082Y-76836425D01*
X108312781Y-76813158D01*
X108366648Y-76807853D01*
X108393581Y-76805200D01*
X108447619Y-76805200D01*
X108474552Y-76807853D01*
X108474552Y-76807853D01*
G37*
G36*
X111014552Y-76807853D02*
G01*
X111068419Y-76813158D01*
X111145118Y-76836425D01*
X111172098Y-76844609D01*
X111267638Y-76895676D01*
X111351390Y-76964410D01*
X111420124Y-77048162D01*
X111471191Y-77143702D01*
X111471192Y-77143706D01*
X111502642Y-77247381D01*
X111513261Y-77355200D01*
X111502642Y-77463019D01*
X111483994Y-77524493D01*
X111471191Y-77566698D01*
X111420124Y-77662238D01*
X111351390Y-77745990D01*
X111267638Y-77814724D01*
X111172098Y-77865791D01*
X111145118Y-77873975D01*
X111068419Y-77897242D01*
X111014552Y-77902547D01*
X110987619Y-77905200D01*
X110933581Y-77905200D01*
X110906648Y-77902547D01*
X110852781Y-77897242D01*
X110776082Y-77873975D01*
X110749102Y-77865791D01*
X110653562Y-77814724D01*
X110569810Y-77745990D01*
X110501076Y-77662238D01*
X110450009Y-77566698D01*
X110437206Y-77524493D01*
X110418558Y-77463019D01*
X110407939Y-77355200D01*
X110418558Y-77247381D01*
X110450008Y-77143706D01*
X110450009Y-77143702D01*
X110501076Y-77048162D01*
X110569810Y-76964410D01*
X110653562Y-76895676D01*
X110749102Y-76844609D01*
X110776082Y-76836425D01*
X110852781Y-76813158D01*
X110906648Y-76807853D01*
X110933581Y-76805200D01*
X110987619Y-76805200D01*
X111014552Y-76807853D01*
X111014552Y-76807853D01*
G37*
G36*
X149145312Y-73955765D02*
G01*
X149229895Y-73964096D01*
X149392684Y-74013478D01*
X149392687Y-74013479D01*
X149542707Y-74093666D01*
X149542708Y-74093667D01*
X149542712Y-74093669D01*
X149674212Y-74201588D01*
X149782131Y-74333088D01*
X149782133Y-74333092D01*
X149782134Y-74333093D01*
X149862321Y-74483113D01*
X149862322Y-74483116D01*
X149911704Y-74645905D01*
X149928378Y-74815200D01*
X149911704Y-74984495D01*
X149862322Y-75147284D01*
X149862321Y-75147287D01*
X149782134Y-75297307D01*
X149782131Y-75297312D01*
X149674212Y-75428812D01*
X149542712Y-75536731D01*
X149542708Y-75536733D01*
X149542707Y-75536734D01*
X149392687Y-75616921D01*
X149392684Y-75616922D01*
X149229895Y-75666304D01*
X149145312Y-75674635D01*
X149103021Y-75678800D01*
X149018179Y-75678800D01*
X148975888Y-75674635D01*
X148891305Y-75666304D01*
X148728516Y-75616922D01*
X148728513Y-75616921D01*
X148578493Y-75536734D01*
X148578492Y-75536733D01*
X148578488Y-75536731D01*
X148446988Y-75428812D01*
X148339069Y-75297312D01*
X148339066Y-75297307D01*
X148258879Y-75147287D01*
X148258878Y-75147284D01*
X148209496Y-74984495D01*
X148192822Y-74815200D01*
X148209496Y-74645905D01*
X148258878Y-74483116D01*
X148258879Y-74483113D01*
X148339066Y-74333093D01*
X148339067Y-74333092D01*
X148339069Y-74333088D01*
X148446988Y-74201588D01*
X148578488Y-74093669D01*
X148578492Y-74093667D01*
X148578493Y-74093666D01*
X148728513Y-74013479D01*
X148728516Y-74013478D01*
X148891305Y-73964096D01*
X148975888Y-73955765D01*
X149018179Y-73951600D01*
X149103021Y-73951600D01*
X149145312Y-73955765D01*
X149145312Y-73955765D01*
G37*
G36*
X126285312Y-73955765D02*
G01*
X126369895Y-73964096D01*
X126532684Y-74013478D01*
X126532687Y-74013479D01*
X126682707Y-74093666D01*
X126682708Y-74093667D01*
X126682712Y-74093669D01*
X126814212Y-74201588D01*
X126922131Y-74333088D01*
X126922133Y-74333092D01*
X126922134Y-74333093D01*
X127002321Y-74483113D01*
X127002322Y-74483116D01*
X127051704Y-74645905D01*
X127068378Y-74815200D01*
X127051704Y-74984495D01*
X127002322Y-75147284D01*
X127002321Y-75147287D01*
X126922134Y-75297307D01*
X126922131Y-75297312D01*
X126814212Y-75428812D01*
X126682712Y-75536731D01*
X126682708Y-75536733D01*
X126682707Y-75536734D01*
X126532687Y-75616921D01*
X126532684Y-75616922D01*
X126369895Y-75666304D01*
X126285312Y-75674635D01*
X126243021Y-75678800D01*
X126158179Y-75678800D01*
X126115888Y-75674635D01*
X126031305Y-75666304D01*
X125868516Y-75616922D01*
X125868513Y-75616921D01*
X125718493Y-75536734D01*
X125718492Y-75536733D01*
X125718488Y-75536731D01*
X125586988Y-75428812D01*
X125479069Y-75297312D01*
X125479066Y-75297307D01*
X125398879Y-75147287D01*
X125398878Y-75147284D01*
X125349496Y-74984495D01*
X125332822Y-74815200D01*
X125349496Y-74645905D01*
X125398878Y-74483116D01*
X125398879Y-74483113D01*
X125479066Y-74333093D01*
X125479067Y-74333092D01*
X125479069Y-74333088D01*
X125586988Y-74201588D01*
X125718488Y-74093669D01*
X125718492Y-74093667D01*
X125718493Y-74093666D01*
X125868513Y-74013479D01*
X125868516Y-74013478D01*
X126031305Y-73964096D01*
X126115888Y-73955765D01*
X126158179Y-73951600D01*
X126243021Y-73951600D01*
X126285312Y-73955765D01*
X126285312Y-73955765D01*
G37*
G36*
X128825312Y-73955765D02*
G01*
X128909895Y-73964096D01*
X129072684Y-74013478D01*
X129072687Y-74013479D01*
X129222707Y-74093666D01*
X129222708Y-74093667D01*
X129222712Y-74093669D01*
X129354212Y-74201588D01*
X129462131Y-74333088D01*
X129462133Y-74333092D01*
X129462134Y-74333093D01*
X129542321Y-74483113D01*
X129542322Y-74483116D01*
X129591704Y-74645905D01*
X129608378Y-74815200D01*
X129591704Y-74984495D01*
X129542322Y-75147284D01*
X129542321Y-75147287D01*
X129462134Y-75297307D01*
X129462131Y-75297312D01*
X129354212Y-75428812D01*
X129222712Y-75536731D01*
X129222708Y-75536733D01*
X129222707Y-75536734D01*
X129072687Y-75616921D01*
X129072684Y-75616922D01*
X128909895Y-75666304D01*
X128825312Y-75674635D01*
X128783021Y-75678800D01*
X128698179Y-75678800D01*
X128655888Y-75674635D01*
X128571305Y-75666304D01*
X128408516Y-75616922D01*
X128408513Y-75616921D01*
X128258493Y-75536734D01*
X128258492Y-75536733D01*
X128258488Y-75536731D01*
X128126988Y-75428812D01*
X128019069Y-75297312D01*
X128019066Y-75297307D01*
X127938879Y-75147287D01*
X127938878Y-75147284D01*
X127889496Y-74984495D01*
X127872822Y-74815200D01*
X127889496Y-74645905D01*
X127938878Y-74483116D01*
X127938879Y-74483113D01*
X128019066Y-74333093D01*
X128019067Y-74333092D01*
X128019069Y-74333088D01*
X128126988Y-74201588D01*
X128258488Y-74093669D01*
X128258492Y-74093667D01*
X128258493Y-74093666D01*
X128408513Y-74013479D01*
X128408516Y-74013478D01*
X128571305Y-73964096D01*
X128655888Y-73955765D01*
X128698179Y-73951600D01*
X128783021Y-73951600D01*
X128825312Y-73955765D01*
X128825312Y-73955765D01*
G37*
G36*
X121205312Y-73955765D02*
G01*
X121289895Y-73964096D01*
X121452684Y-74013478D01*
X121452687Y-74013479D01*
X121602707Y-74093666D01*
X121602708Y-74093667D01*
X121602712Y-74093669D01*
X121734212Y-74201588D01*
X121842131Y-74333088D01*
X121842133Y-74333092D01*
X121842134Y-74333093D01*
X121922321Y-74483113D01*
X121922322Y-74483116D01*
X121971704Y-74645905D01*
X121988378Y-74815200D01*
X121971704Y-74984495D01*
X121922322Y-75147284D01*
X121922321Y-75147287D01*
X121842134Y-75297307D01*
X121842131Y-75297312D01*
X121734212Y-75428812D01*
X121602712Y-75536731D01*
X121602708Y-75536733D01*
X121602707Y-75536734D01*
X121452687Y-75616921D01*
X121452684Y-75616922D01*
X121289895Y-75666304D01*
X121205312Y-75674635D01*
X121163021Y-75678800D01*
X121078179Y-75678800D01*
X121035888Y-75674635D01*
X120951305Y-75666304D01*
X120788516Y-75616922D01*
X120788513Y-75616921D01*
X120638493Y-75536734D01*
X120638492Y-75536733D01*
X120638488Y-75536731D01*
X120506988Y-75428812D01*
X120399069Y-75297312D01*
X120399066Y-75297307D01*
X120318879Y-75147287D01*
X120318878Y-75147284D01*
X120269496Y-74984495D01*
X120252822Y-74815200D01*
X120269496Y-74645905D01*
X120318878Y-74483116D01*
X120318879Y-74483113D01*
X120399066Y-74333093D01*
X120399067Y-74333092D01*
X120399069Y-74333088D01*
X120506988Y-74201588D01*
X120638488Y-74093669D01*
X120638492Y-74093667D01*
X120638493Y-74093666D01*
X120788513Y-74013479D01*
X120788516Y-74013478D01*
X120951305Y-73964096D01*
X121035888Y-73955765D01*
X121078179Y-73951600D01*
X121163021Y-73951600D01*
X121205312Y-73955765D01*
X121205312Y-73955765D01*
G37*
G36*
X131365312Y-73955765D02*
G01*
X131449895Y-73964096D01*
X131612684Y-74013478D01*
X131612687Y-74013479D01*
X131762707Y-74093666D01*
X131762708Y-74093667D01*
X131762712Y-74093669D01*
X131894212Y-74201588D01*
X132002131Y-74333088D01*
X132002133Y-74333092D01*
X132002134Y-74333093D01*
X132082321Y-74483113D01*
X132082322Y-74483116D01*
X132131704Y-74645905D01*
X132148378Y-74815200D01*
X132131704Y-74984495D01*
X132082322Y-75147284D01*
X132082321Y-75147287D01*
X132002134Y-75297307D01*
X132002131Y-75297312D01*
X131894212Y-75428812D01*
X131762712Y-75536731D01*
X131762708Y-75536733D01*
X131762707Y-75536734D01*
X131612687Y-75616921D01*
X131612684Y-75616922D01*
X131449895Y-75666304D01*
X131365312Y-75674635D01*
X131323021Y-75678800D01*
X131238179Y-75678800D01*
X131195888Y-75674635D01*
X131111305Y-75666304D01*
X130948516Y-75616922D01*
X130948513Y-75616921D01*
X130798493Y-75536734D01*
X130798492Y-75536733D01*
X130798488Y-75536731D01*
X130666988Y-75428812D01*
X130559069Y-75297312D01*
X130559066Y-75297307D01*
X130478879Y-75147287D01*
X130478878Y-75147284D01*
X130429496Y-74984495D01*
X130412822Y-74815200D01*
X130429496Y-74645905D01*
X130478878Y-74483116D01*
X130478879Y-74483113D01*
X130559066Y-74333093D01*
X130559067Y-74333092D01*
X130559069Y-74333088D01*
X130666988Y-74201588D01*
X130798488Y-74093669D01*
X130798492Y-74093667D01*
X130798493Y-74093666D01*
X130948513Y-74013479D01*
X130948516Y-74013478D01*
X131111305Y-73964096D01*
X131195888Y-73955765D01*
X131238179Y-73951600D01*
X131323021Y-73951600D01*
X131365312Y-73955765D01*
X131365312Y-73955765D01*
G37*
G36*
X118665312Y-73955765D02*
G01*
X118749895Y-73964096D01*
X118912684Y-74013478D01*
X118912687Y-74013479D01*
X119062707Y-74093666D01*
X119062708Y-74093667D01*
X119062712Y-74093669D01*
X119194212Y-74201588D01*
X119302131Y-74333088D01*
X119302133Y-74333092D01*
X119302134Y-74333093D01*
X119382321Y-74483113D01*
X119382322Y-74483116D01*
X119431704Y-74645905D01*
X119448378Y-74815200D01*
X119431704Y-74984495D01*
X119382322Y-75147284D01*
X119382321Y-75147287D01*
X119302134Y-75297307D01*
X119302131Y-75297312D01*
X119194212Y-75428812D01*
X119062712Y-75536731D01*
X119062708Y-75536733D01*
X119062707Y-75536734D01*
X118912687Y-75616921D01*
X118912684Y-75616922D01*
X118749895Y-75666304D01*
X118665312Y-75674635D01*
X118623021Y-75678800D01*
X118538179Y-75678800D01*
X118495888Y-75674635D01*
X118411305Y-75666304D01*
X118248516Y-75616922D01*
X118248513Y-75616921D01*
X118098493Y-75536734D01*
X118098492Y-75536733D01*
X118098488Y-75536731D01*
X117966988Y-75428812D01*
X117859069Y-75297312D01*
X117859066Y-75297307D01*
X117778879Y-75147287D01*
X117778878Y-75147284D01*
X117729496Y-74984495D01*
X117712822Y-74815200D01*
X117729496Y-74645905D01*
X117778878Y-74483116D01*
X117778879Y-74483113D01*
X117859066Y-74333093D01*
X117859067Y-74333092D01*
X117859069Y-74333088D01*
X117966988Y-74201588D01*
X118098488Y-74093669D01*
X118098492Y-74093667D01*
X118098493Y-74093666D01*
X118248513Y-74013479D01*
X118248516Y-74013478D01*
X118411305Y-73964096D01*
X118495888Y-73955765D01*
X118538179Y-73951600D01*
X118623021Y-73951600D01*
X118665312Y-73955765D01*
X118665312Y-73955765D01*
G37*
G36*
X133905312Y-73955765D02*
G01*
X133989895Y-73964096D01*
X134152684Y-74013478D01*
X134152687Y-74013479D01*
X134302707Y-74093666D01*
X134302708Y-74093667D01*
X134302712Y-74093669D01*
X134434212Y-74201588D01*
X134542131Y-74333088D01*
X134542133Y-74333092D01*
X134542134Y-74333093D01*
X134622321Y-74483113D01*
X134622322Y-74483116D01*
X134671704Y-74645905D01*
X134688378Y-74815200D01*
X134671704Y-74984495D01*
X134622322Y-75147284D01*
X134622321Y-75147287D01*
X134542134Y-75297307D01*
X134542131Y-75297312D01*
X134434212Y-75428812D01*
X134302712Y-75536731D01*
X134302708Y-75536733D01*
X134302707Y-75536734D01*
X134152687Y-75616921D01*
X134152684Y-75616922D01*
X133989895Y-75666304D01*
X133905312Y-75674635D01*
X133863021Y-75678800D01*
X133778179Y-75678800D01*
X133735888Y-75674635D01*
X133651305Y-75666304D01*
X133488516Y-75616922D01*
X133488513Y-75616921D01*
X133338493Y-75536734D01*
X133338492Y-75536733D01*
X133338488Y-75536731D01*
X133206988Y-75428812D01*
X133099069Y-75297312D01*
X133099066Y-75297307D01*
X133018879Y-75147287D01*
X133018878Y-75147284D01*
X132969496Y-74984495D01*
X132952822Y-74815200D01*
X132969496Y-74645905D01*
X133018878Y-74483116D01*
X133018879Y-74483113D01*
X133099066Y-74333093D01*
X133099067Y-74333092D01*
X133099069Y-74333088D01*
X133206988Y-74201588D01*
X133338488Y-74093669D01*
X133338492Y-74093667D01*
X133338493Y-74093666D01*
X133488513Y-74013479D01*
X133488516Y-74013478D01*
X133651305Y-73964096D01*
X133735888Y-73955765D01*
X133778179Y-73951600D01*
X133863021Y-73951600D01*
X133905312Y-73955765D01*
X133905312Y-73955765D01*
G37*
G36*
X116125312Y-73955765D02*
G01*
X116209895Y-73964096D01*
X116372684Y-74013478D01*
X116372687Y-74013479D01*
X116522707Y-74093666D01*
X116522708Y-74093667D01*
X116522712Y-74093669D01*
X116654212Y-74201588D01*
X116762131Y-74333088D01*
X116762133Y-74333092D01*
X116762134Y-74333093D01*
X116842321Y-74483113D01*
X116842322Y-74483116D01*
X116891704Y-74645905D01*
X116908378Y-74815200D01*
X116891704Y-74984495D01*
X116842322Y-75147284D01*
X116842321Y-75147287D01*
X116762134Y-75297307D01*
X116762131Y-75297312D01*
X116654212Y-75428812D01*
X116522712Y-75536731D01*
X116522708Y-75536733D01*
X116522707Y-75536734D01*
X116372687Y-75616921D01*
X116372684Y-75616922D01*
X116209895Y-75666304D01*
X116125312Y-75674635D01*
X116083021Y-75678800D01*
X115998179Y-75678800D01*
X115955888Y-75674635D01*
X115871305Y-75666304D01*
X115708516Y-75616922D01*
X115708513Y-75616921D01*
X115558493Y-75536734D01*
X115558492Y-75536733D01*
X115558488Y-75536731D01*
X115426988Y-75428812D01*
X115319069Y-75297312D01*
X115319066Y-75297307D01*
X115238879Y-75147287D01*
X115238878Y-75147284D01*
X115189496Y-74984495D01*
X115172822Y-74815200D01*
X115189496Y-74645905D01*
X115238878Y-74483116D01*
X115238879Y-74483113D01*
X115319066Y-74333093D01*
X115319067Y-74333092D01*
X115319069Y-74333088D01*
X115426988Y-74201588D01*
X115558488Y-74093669D01*
X115558492Y-74093667D01*
X115558493Y-74093666D01*
X115708513Y-74013479D01*
X115708516Y-74013478D01*
X115871305Y-73964096D01*
X115955888Y-73955765D01*
X115998179Y-73951600D01*
X116083021Y-73951600D01*
X116125312Y-73955765D01*
X116125312Y-73955765D01*
G37*
G36*
X123745312Y-73955765D02*
G01*
X123829895Y-73964096D01*
X123992684Y-74013478D01*
X123992687Y-74013479D01*
X124142707Y-74093666D01*
X124142708Y-74093667D01*
X124142712Y-74093669D01*
X124274212Y-74201588D01*
X124382131Y-74333088D01*
X124382133Y-74333092D01*
X124382134Y-74333093D01*
X124462321Y-74483113D01*
X124462322Y-74483116D01*
X124511704Y-74645905D01*
X124528378Y-74815200D01*
X124511704Y-74984495D01*
X124462322Y-75147284D01*
X124462321Y-75147287D01*
X124382134Y-75297307D01*
X124382131Y-75297312D01*
X124274212Y-75428812D01*
X124142712Y-75536731D01*
X124142708Y-75536733D01*
X124142707Y-75536734D01*
X123992687Y-75616921D01*
X123992684Y-75616922D01*
X123829895Y-75666304D01*
X123745312Y-75674635D01*
X123703021Y-75678800D01*
X123618179Y-75678800D01*
X123575888Y-75674635D01*
X123491305Y-75666304D01*
X123328516Y-75616922D01*
X123328513Y-75616921D01*
X123178493Y-75536734D01*
X123178492Y-75536733D01*
X123178488Y-75536731D01*
X123046988Y-75428812D01*
X122939069Y-75297312D01*
X122939066Y-75297307D01*
X122858879Y-75147287D01*
X122858878Y-75147284D01*
X122809496Y-74984495D01*
X122792822Y-74815200D01*
X122809496Y-74645905D01*
X122858878Y-74483116D01*
X122858879Y-74483113D01*
X122939066Y-74333093D01*
X122939067Y-74333092D01*
X122939069Y-74333088D01*
X123046988Y-74201588D01*
X123178488Y-74093669D01*
X123178492Y-74093667D01*
X123178493Y-74093666D01*
X123328513Y-74013479D01*
X123328516Y-74013478D01*
X123491305Y-73964096D01*
X123575888Y-73955765D01*
X123618179Y-73951600D01*
X123703021Y-73951600D01*
X123745312Y-73955765D01*
X123745312Y-73955765D01*
G37*
G36*
X154225312Y-73955765D02*
G01*
X154309895Y-73964096D01*
X154472684Y-74013478D01*
X154472687Y-74013479D01*
X154622707Y-74093666D01*
X154622708Y-74093667D01*
X154622712Y-74093669D01*
X154754212Y-74201588D01*
X154862131Y-74333088D01*
X154862133Y-74333092D01*
X154862134Y-74333093D01*
X154942321Y-74483113D01*
X154942322Y-74483116D01*
X154991704Y-74645905D01*
X155008378Y-74815200D01*
X154991704Y-74984495D01*
X154942322Y-75147284D01*
X154942321Y-75147287D01*
X154862134Y-75297307D01*
X154862131Y-75297312D01*
X154754212Y-75428812D01*
X154622712Y-75536731D01*
X154622708Y-75536733D01*
X154622707Y-75536734D01*
X154472687Y-75616921D01*
X154472684Y-75616922D01*
X154309895Y-75666304D01*
X154225312Y-75674635D01*
X154183021Y-75678800D01*
X154098179Y-75678800D01*
X154055888Y-75674635D01*
X153971305Y-75666304D01*
X153808516Y-75616922D01*
X153808513Y-75616921D01*
X153658493Y-75536734D01*
X153658492Y-75536733D01*
X153658488Y-75536731D01*
X153526988Y-75428812D01*
X153419069Y-75297312D01*
X153419066Y-75297307D01*
X153338879Y-75147287D01*
X153338878Y-75147284D01*
X153289496Y-74984495D01*
X153272822Y-74815200D01*
X153289496Y-74645905D01*
X153338878Y-74483116D01*
X153338879Y-74483113D01*
X153419066Y-74333093D01*
X153419067Y-74333092D01*
X153419069Y-74333088D01*
X153526988Y-74201588D01*
X153658488Y-74093669D01*
X153658492Y-74093667D01*
X153658493Y-74093666D01*
X153808513Y-74013479D01*
X153808516Y-74013478D01*
X153971305Y-73964096D01*
X154055888Y-73955765D01*
X154098179Y-73951600D01*
X154183021Y-73951600D01*
X154225312Y-73955765D01*
X154225312Y-73955765D01*
G37*
G36*
X151685312Y-73955765D02*
G01*
X151769895Y-73964096D01*
X151932684Y-74013478D01*
X151932687Y-74013479D01*
X152082707Y-74093666D01*
X152082708Y-74093667D01*
X152082712Y-74093669D01*
X152214212Y-74201588D01*
X152322131Y-74333088D01*
X152322133Y-74333092D01*
X152322134Y-74333093D01*
X152402321Y-74483113D01*
X152402322Y-74483116D01*
X152451704Y-74645905D01*
X152468378Y-74815200D01*
X152451704Y-74984495D01*
X152402322Y-75147284D01*
X152402321Y-75147287D01*
X152322134Y-75297307D01*
X152322131Y-75297312D01*
X152214212Y-75428812D01*
X152082712Y-75536731D01*
X152082708Y-75536733D01*
X152082707Y-75536734D01*
X151932687Y-75616921D01*
X151932684Y-75616922D01*
X151769895Y-75666304D01*
X151685312Y-75674635D01*
X151643021Y-75678800D01*
X151558179Y-75678800D01*
X151515888Y-75674635D01*
X151431305Y-75666304D01*
X151268516Y-75616922D01*
X151268513Y-75616921D01*
X151118493Y-75536734D01*
X151118492Y-75536733D01*
X151118488Y-75536731D01*
X150986988Y-75428812D01*
X150879069Y-75297312D01*
X150879066Y-75297307D01*
X150798879Y-75147287D01*
X150798878Y-75147284D01*
X150749496Y-74984495D01*
X150732822Y-74815200D01*
X150749496Y-74645905D01*
X150798878Y-74483116D01*
X150798879Y-74483113D01*
X150879066Y-74333093D01*
X150879067Y-74333092D01*
X150879069Y-74333088D01*
X150986988Y-74201588D01*
X151118488Y-74093669D01*
X151118492Y-74093667D01*
X151118493Y-74093666D01*
X151268513Y-74013479D01*
X151268516Y-74013478D01*
X151431305Y-73964096D01*
X151515888Y-73955765D01*
X151558179Y-73951600D01*
X151643021Y-73951600D01*
X151685312Y-73955765D01*
X151685312Y-73955765D01*
G37*
G36*
X146605312Y-73955765D02*
G01*
X146689895Y-73964096D01*
X146852684Y-74013478D01*
X146852687Y-74013479D01*
X147002707Y-74093666D01*
X147002708Y-74093667D01*
X147002712Y-74093669D01*
X147134212Y-74201588D01*
X147242131Y-74333088D01*
X147242133Y-74333092D01*
X147242134Y-74333093D01*
X147322321Y-74483113D01*
X147322322Y-74483116D01*
X147371704Y-74645905D01*
X147388378Y-74815200D01*
X147371704Y-74984495D01*
X147322322Y-75147284D01*
X147322321Y-75147287D01*
X147242134Y-75297307D01*
X147242131Y-75297312D01*
X147134212Y-75428812D01*
X147002712Y-75536731D01*
X147002708Y-75536733D01*
X147002707Y-75536734D01*
X146852687Y-75616921D01*
X146852684Y-75616922D01*
X146689895Y-75666304D01*
X146605312Y-75674635D01*
X146563021Y-75678800D01*
X146478179Y-75678800D01*
X146435888Y-75674635D01*
X146351305Y-75666304D01*
X146188516Y-75616922D01*
X146188513Y-75616921D01*
X146038493Y-75536734D01*
X146038492Y-75536733D01*
X146038488Y-75536731D01*
X145906988Y-75428812D01*
X145799069Y-75297312D01*
X145799066Y-75297307D01*
X145718879Y-75147287D01*
X145718878Y-75147284D01*
X145669496Y-74984495D01*
X145652822Y-74815200D01*
X145669496Y-74645905D01*
X145718878Y-74483116D01*
X145718879Y-74483113D01*
X145799066Y-74333093D01*
X145799067Y-74333092D01*
X145799069Y-74333088D01*
X145906988Y-74201588D01*
X146038488Y-74093669D01*
X146038492Y-74093667D01*
X146038493Y-74093666D01*
X146188513Y-74013479D01*
X146188516Y-74013478D01*
X146351305Y-73964096D01*
X146435888Y-73955765D01*
X146478179Y-73951600D01*
X146563021Y-73951600D01*
X146605312Y-73955765D01*
X146605312Y-73955765D01*
G37*
G36*
X105965312Y-73955765D02*
G01*
X106049895Y-73964096D01*
X106212684Y-74013478D01*
X106212687Y-74013479D01*
X106362707Y-74093666D01*
X106362708Y-74093667D01*
X106362712Y-74093669D01*
X106494212Y-74201588D01*
X106602131Y-74333088D01*
X106602133Y-74333092D01*
X106602134Y-74333093D01*
X106682321Y-74483113D01*
X106682322Y-74483116D01*
X106731704Y-74645905D01*
X106748378Y-74815200D01*
X106731704Y-74984495D01*
X106682322Y-75147284D01*
X106682321Y-75147287D01*
X106602134Y-75297307D01*
X106602131Y-75297312D01*
X106494212Y-75428812D01*
X106362712Y-75536731D01*
X106362708Y-75536733D01*
X106362707Y-75536734D01*
X106212687Y-75616921D01*
X106212684Y-75616922D01*
X106049895Y-75666304D01*
X105965312Y-75674635D01*
X105923021Y-75678800D01*
X105838179Y-75678800D01*
X105795888Y-75674635D01*
X105711305Y-75666304D01*
X105548516Y-75616922D01*
X105548513Y-75616921D01*
X105398493Y-75536734D01*
X105398492Y-75536733D01*
X105398488Y-75536731D01*
X105266988Y-75428812D01*
X105159069Y-75297312D01*
X105159066Y-75297307D01*
X105078879Y-75147287D01*
X105078878Y-75147284D01*
X105029496Y-74984495D01*
X105012822Y-74815200D01*
X105029496Y-74645905D01*
X105078878Y-74483116D01*
X105078879Y-74483113D01*
X105159066Y-74333093D01*
X105159067Y-74333092D01*
X105159069Y-74333088D01*
X105266988Y-74201588D01*
X105398488Y-74093669D01*
X105398492Y-74093667D01*
X105398493Y-74093666D01*
X105548513Y-74013479D01*
X105548516Y-74013478D01*
X105711305Y-73964096D01*
X105795888Y-73955765D01*
X105838179Y-73951600D01*
X105923021Y-73951600D01*
X105965312Y-73955765D01*
X105965312Y-73955765D01*
G37*
G36*
X144065312Y-73955765D02*
G01*
X144149895Y-73964096D01*
X144312684Y-74013478D01*
X144312687Y-74013479D01*
X144462707Y-74093666D01*
X144462708Y-74093667D01*
X144462712Y-74093669D01*
X144594212Y-74201588D01*
X144702131Y-74333088D01*
X144702133Y-74333092D01*
X144702134Y-74333093D01*
X144782321Y-74483113D01*
X144782322Y-74483116D01*
X144831704Y-74645905D01*
X144848378Y-74815200D01*
X144831704Y-74984495D01*
X144782322Y-75147284D01*
X144782321Y-75147287D01*
X144702134Y-75297307D01*
X144702131Y-75297312D01*
X144594212Y-75428812D01*
X144462712Y-75536731D01*
X144462708Y-75536733D01*
X144462707Y-75536734D01*
X144312687Y-75616921D01*
X144312684Y-75616922D01*
X144149895Y-75666304D01*
X144065312Y-75674635D01*
X144023021Y-75678800D01*
X143938179Y-75678800D01*
X143895888Y-75674635D01*
X143811305Y-75666304D01*
X143648516Y-75616922D01*
X143648513Y-75616921D01*
X143498493Y-75536734D01*
X143498492Y-75536733D01*
X143498488Y-75536731D01*
X143366988Y-75428812D01*
X143259069Y-75297312D01*
X143259066Y-75297307D01*
X143178879Y-75147287D01*
X143178878Y-75147284D01*
X143129496Y-74984495D01*
X143112822Y-74815200D01*
X143129496Y-74645905D01*
X143178878Y-74483116D01*
X143178879Y-74483113D01*
X143259066Y-74333093D01*
X143259067Y-74333092D01*
X143259069Y-74333088D01*
X143366988Y-74201588D01*
X143498488Y-74093669D01*
X143498492Y-74093667D01*
X143498493Y-74093666D01*
X143648513Y-74013479D01*
X143648516Y-74013478D01*
X143811305Y-73964096D01*
X143895888Y-73955765D01*
X143938179Y-73951600D01*
X144023021Y-73951600D01*
X144065312Y-73955765D01*
X144065312Y-73955765D01*
G37*
G36*
X108505312Y-73955765D02*
G01*
X108589895Y-73964096D01*
X108752684Y-74013478D01*
X108752687Y-74013479D01*
X108902707Y-74093666D01*
X108902708Y-74093667D01*
X108902712Y-74093669D01*
X109034212Y-74201588D01*
X109142131Y-74333088D01*
X109142133Y-74333092D01*
X109142134Y-74333093D01*
X109222321Y-74483113D01*
X109222322Y-74483116D01*
X109271704Y-74645905D01*
X109288378Y-74815200D01*
X109271704Y-74984495D01*
X109222322Y-75147284D01*
X109222321Y-75147287D01*
X109142134Y-75297307D01*
X109142131Y-75297312D01*
X109034212Y-75428812D01*
X108902712Y-75536731D01*
X108902708Y-75536733D01*
X108902707Y-75536734D01*
X108752687Y-75616921D01*
X108752684Y-75616922D01*
X108589895Y-75666304D01*
X108505312Y-75674635D01*
X108463021Y-75678800D01*
X108378179Y-75678800D01*
X108335888Y-75674635D01*
X108251305Y-75666304D01*
X108088516Y-75616922D01*
X108088513Y-75616921D01*
X107938493Y-75536734D01*
X107938492Y-75536733D01*
X107938488Y-75536731D01*
X107806988Y-75428812D01*
X107699069Y-75297312D01*
X107699066Y-75297307D01*
X107618879Y-75147287D01*
X107618878Y-75147284D01*
X107569496Y-74984495D01*
X107552822Y-74815200D01*
X107569496Y-74645905D01*
X107618878Y-74483116D01*
X107618879Y-74483113D01*
X107699066Y-74333093D01*
X107699067Y-74333092D01*
X107699069Y-74333088D01*
X107806988Y-74201588D01*
X107938488Y-74093669D01*
X107938492Y-74093667D01*
X107938493Y-74093666D01*
X108088513Y-74013479D01*
X108088516Y-74013478D01*
X108251305Y-73964096D01*
X108335888Y-73955765D01*
X108378179Y-73951600D01*
X108463021Y-73951600D01*
X108505312Y-73955765D01*
X108505312Y-73955765D01*
G37*
G36*
X141525312Y-73955765D02*
G01*
X141609895Y-73964096D01*
X141772684Y-74013478D01*
X141772687Y-74013479D01*
X141922707Y-74093666D01*
X141922708Y-74093667D01*
X141922712Y-74093669D01*
X142054212Y-74201588D01*
X142162131Y-74333088D01*
X142162133Y-74333092D01*
X142162134Y-74333093D01*
X142242321Y-74483113D01*
X142242322Y-74483116D01*
X142291704Y-74645905D01*
X142308378Y-74815200D01*
X142291704Y-74984495D01*
X142242322Y-75147284D01*
X142242321Y-75147287D01*
X142162134Y-75297307D01*
X142162131Y-75297312D01*
X142054212Y-75428812D01*
X141922712Y-75536731D01*
X141922708Y-75536733D01*
X141922707Y-75536734D01*
X141772687Y-75616921D01*
X141772684Y-75616922D01*
X141609895Y-75666304D01*
X141525312Y-75674635D01*
X141483021Y-75678800D01*
X141398179Y-75678800D01*
X141355888Y-75674635D01*
X141271305Y-75666304D01*
X141108516Y-75616922D01*
X141108513Y-75616921D01*
X140958493Y-75536734D01*
X140958492Y-75536733D01*
X140958488Y-75536731D01*
X140826988Y-75428812D01*
X140719069Y-75297312D01*
X140719066Y-75297307D01*
X140638879Y-75147287D01*
X140638878Y-75147284D01*
X140589496Y-74984495D01*
X140572822Y-74815200D01*
X140589496Y-74645905D01*
X140638878Y-74483116D01*
X140638879Y-74483113D01*
X140719066Y-74333093D01*
X140719067Y-74333092D01*
X140719069Y-74333088D01*
X140826988Y-74201588D01*
X140958488Y-74093669D01*
X140958492Y-74093667D01*
X140958493Y-74093666D01*
X141108513Y-74013479D01*
X141108516Y-74013478D01*
X141271305Y-73964096D01*
X141355888Y-73955765D01*
X141398179Y-73951600D01*
X141483021Y-73951600D01*
X141525312Y-73955765D01*
X141525312Y-73955765D01*
G37*
G36*
X111045312Y-73955765D02*
G01*
X111129895Y-73964096D01*
X111292684Y-74013478D01*
X111292687Y-74013479D01*
X111442707Y-74093666D01*
X111442708Y-74093667D01*
X111442712Y-74093669D01*
X111574212Y-74201588D01*
X111682131Y-74333088D01*
X111682133Y-74333092D01*
X111682134Y-74333093D01*
X111762321Y-74483113D01*
X111762322Y-74483116D01*
X111811704Y-74645905D01*
X111828378Y-74815200D01*
X111811704Y-74984495D01*
X111762322Y-75147284D01*
X111762321Y-75147287D01*
X111682134Y-75297307D01*
X111682131Y-75297312D01*
X111574212Y-75428812D01*
X111442712Y-75536731D01*
X111442708Y-75536733D01*
X111442707Y-75536734D01*
X111292687Y-75616921D01*
X111292684Y-75616922D01*
X111129895Y-75666304D01*
X111045312Y-75674635D01*
X111003021Y-75678800D01*
X110918179Y-75678800D01*
X110875888Y-75674635D01*
X110791305Y-75666304D01*
X110628516Y-75616922D01*
X110628513Y-75616921D01*
X110478493Y-75536734D01*
X110478492Y-75536733D01*
X110478488Y-75536731D01*
X110346988Y-75428812D01*
X110239069Y-75297312D01*
X110239066Y-75297307D01*
X110158879Y-75147287D01*
X110158878Y-75147284D01*
X110109496Y-74984495D01*
X110092822Y-74815200D01*
X110109496Y-74645905D01*
X110158878Y-74483116D01*
X110158879Y-74483113D01*
X110239066Y-74333093D01*
X110239067Y-74333092D01*
X110239069Y-74333088D01*
X110346988Y-74201588D01*
X110478488Y-74093669D01*
X110478492Y-74093667D01*
X110478493Y-74093666D01*
X110628513Y-74013479D01*
X110628516Y-74013478D01*
X110791305Y-73964096D01*
X110875888Y-73955765D01*
X110918179Y-73951600D01*
X111003021Y-73951600D01*
X111045312Y-73955765D01*
X111045312Y-73955765D01*
G37*
G36*
X138985312Y-73955765D02*
G01*
X139069895Y-73964096D01*
X139232684Y-74013478D01*
X139232687Y-74013479D01*
X139382707Y-74093666D01*
X139382708Y-74093667D01*
X139382712Y-74093669D01*
X139514212Y-74201588D01*
X139622131Y-74333088D01*
X139622133Y-74333092D01*
X139622134Y-74333093D01*
X139702321Y-74483113D01*
X139702322Y-74483116D01*
X139751704Y-74645905D01*
X139768378Y-74815200D01*
X139751704Y-74984495D01*
X139702322Y-75147284D01*
X139702321Y-75147287D01*
X139622134Y-75297307D01*
X139622131Y-75297312D01*
X139514212Y-75428812D01*
X139382712Y-75536731D01*
X139382708Y-75536733D01*
X139382707Y-75536734D01*
X139232687Y-75616921D01*
X139232684Y-75616922D01*
X139069895Y-75666304D01*
X138985312Y-75674635D01*
X138943021Y-75678800D01*
X138858179Y-75678800D01*
X138815888Y-75674635D01*
X138731305Y-75666304D01*
X138568516Y-75616922D01*
X138568513Y-75616921D01*
X138418493Y-75536734D01*
X138418492Y-75536733D01*
X138418488Y-75536731D01*
X138286988Y-75428812D01*
X138179069Y-75297312D01*
X138179066Y-75297307D01*
X138098879Y-75147287D01*
X138098878Y-75147284D01*
X138049496Y-74984495D01*
X138032822Y-74815200D01*
X138049496Y-74645905D01*
X138098878Y-74483116D01*
X138098879Y-74483113D01*
X138179066Y-74333093D01*
X138179067Y-74333092D01*
X138179069Y-74333088D01*
X138286988Y-74201588D01*
X138418488Y-74093669D01*
X138418492Y-74093667D01*
X138418493Y-74093666D01*
X138568513Y-74013479D01*
X138568516Y-74013478D01*
X138731305Y-73964096D01*
X138815888Y-73955765D01*
X138858179Y-73951600D01*
X138943021Y-73951600D01*
X138985312Y-73955765D01*
X138985312Y-73955765D01*
G37*
G36*
X136445312Y-73955765D02*
G01*
X136529895Y-73964096D01*
X136692684Y-74013478D01*
X136692687Y-74013479D01*
X136842707Y-74093666D01*
X136842708Y-74093667D01*
X136842712Y-74093669D01*
X136974212Y-74201588D01*
X137082131Y-74333088D01*
X137082133Y-74333092D01*
X137082134Y-74333093D01*
X137162321Y-74483113D01*
X137162322Y-74483116D01*
X137211704Y-74645905D01*
X137228378Y-74815200D01*
X137211704Y-74984495D01*
X137162322Y-75147284D01*
X137162321Y-75147287D01*
X137082134Y-75297307D01*
X137082131Y-75297312D01*
X136974212Y-75428812D01*
X136842712Y-75536731D01*
X136842708Y-75536733D01*
X136842707Y-75536734D01*
X136692687Y-75616921D01*
X136692684Y-75616922D01*
X136529895Y-75666304D01*
X136445312Y-75674635D01*
X136403021Y-75678800D01*
X136318179Y-75678800D01*
X136275888Y-75674635D01*
X136191305Y-75666304D01*
X136028516Y-75616922D01*
X136028513Y-75616921D01*
X135878493Y-75536734D01*
X135878492Y-75536733D01*
X135878488Y-75536731D01*
X135746988Y-75428812D01*
X135639069Y-75297312D01*
X135639066Y-75297307D01*
X135558879Y-75147287D01*
X135558878Y-75147284D01*
X135509496Y-74984495D01*
X135492822Y-74815200D01*
X135509496Y-74645905D01*
X135558878Y-74483116D01*
X135558879Y-74483113D01*
X135639066Y-74333093D01*
X135639067Y-74333092D01*
X135639069Y-74333088D01*
X135746988Y-74201588D01*
X135878488Y-74093669D01*
X135878492Y-74093667D01*
X135878493Y-74093666D01*
X136028513Y-74013479D01*
X136028516Y-74013478D01*
X136191305Y-73964096D01*
X136275888Y-73955765D01*
X136318179Y-73951600D01*
X136403021Y-73951600D01*
X136445312Y-73955765D01*
X136445312Y-73955765D01*
G37*
G36*
X113585312Y-73955765D02*
G01*
X113669895Y-73964096D01*
X113832684Y-74013478D01*
X113832687Y-74013479D01*
X113982707Y-74093666D01*
X113982708Y-74093667D01*
X113982712Y-74093669D01*
X114114212Y-74201588D01*
X114222131Y-74333088D01*
X114222133Y-74333092D01*
X114222134Y-74333093D01*
X114302321Y-74483113D01*
X114302322Y-74483116D01*
X114351704Y-74645905D01*
X114368378Y-74815200D01*
X114351704Y-74984495D01*
X114302322Y-75147284D01*
X114302321Y-75147287D01*
X114222134Y-75297307D01*
X114222131Y-75297312D01*
X114114212Y-75428812D01*
X113982712Y-75536731D01*
X113982708Y-75536733D01*
X113982707Y-75536734D01*
X113832687Y-75616921D01*
X113832684Y-75616922D01*
X113669895Y-75666304D01*
X113585312Y-75674635D01*
X113543021Y-75678800D01*
X113458179Y-75678800D01*
X113415888Y-75674635D01*
X113331305Y-75666304D01*
X113168516Y-75616922D01*
X113168513Y-75616921D01*
X113018493Y-75536734D01*
X113018492Y-75536733D01*
X113018488Y-75536731D01*
X112886988Y-75428812D01*
X112779069Y-75297312D01*
X112779066Y-75297307D01*
X112698879Y-75147287D01*
X112698878Y-75147284D01*
X112649496Y-74984495D01*
X112632822Y-74815200D01*
X112649496Y-74645905D01*
X112698878Y-74483116D01*
X112698879Y-74483113D01*
X112779066Y-74333093D01*
X112779067Y-74333092D01*
X112779069Y-74333088D01*
X112886988Y-74201588D01*
X113018488Y-74093669D01*
X113018492Y-74093667D01*
X113018493Y-74093666D01*
X113168513Y-74013479D01*
X113168516Y-74013478D01*
X113331305Y-73964096D01*
X113415888Y-73955765D01*
X113458179Y-73951600D01*
X113543021Y-73951600D01*
X113585312Y-73955765D01*
X113585312Y-73955765D01*
G37*
M02*
