M48
INCH,TZ
T1C0.0079
T2C0.0157
T3C0.0315
T4C0.0394
T5C0.0400
T6C0.0429
T7C0.0433
T8C0.0453
T9C0.1378
%
G90
G05
T1
X47625Y-33710
X48085Y-35560
X48150Y-36515
X48470Y-31570
X49165Y-30945
X49260Y-34230
X49605Y-33025
X49615Y-32525
X49740Y-33765
X49975Y-34390
X50020Y-35685
X50140Y-34170
X51395Y-33815
X52100Y-33150
X52230Y-31580
X52965Y-31185
T2
X47638Y-35512
X49606Y-35512
X49606Y-37874
X51181Y-38661
T3
X43640Y-31530
X53299Y-39323
X53299Y-40323
X53299Y-41323
X53299Y-42323
X56299Y-39323
X56299Y-40323
X56299Y-41323
X56299Y-42323
X53299Y-34008
X53299Y-35008
X53299Y-36008
X53299Y-37008
X56299Y-34008
X56299Y-35008
X56299Y-36008
X56299Y-37008
X53299Y-44835
X53299Y-45835
X53299Y-46835
X53299Y-47835
X56299Y-44835
X56299Y-45835
X56299Y-46835
X56299Y-47835
T4
X46780Y-31890
X46780Y-32890
X46780Y-33890
T5
X41685Y-29455
X41685Y-30455
X42685Y-29455
X42685Y-30455
X43685Y-29455
X43685Y-30455
X44685Y-29455
X44685Y-30455
X45685Y-29455
X45685Y-30455
X46685Y-29455
X46685Y-30455
X47685Y-29455
X47685Y-30455
X48685Y-29455
X48685Y-30455
X49685Y-29455
X49685Y-30455
X50685Y-29455
X50685Y-30455
X51685Y-29455
X51685Y-30455
X52685Y-29455
X52685Y-30455
X53685Y-29455
X53685Y-30455
X54685Y-29455
X54685Y-30455
X55685Y-29455
X55685Y-30455
X56685Y-29455
X56685Y-30455
X57685Y-29455
X57685Y-30455
X58685Y-29455
X58685Y-30455
X59685Y-29455
X59685Y-30455
X60685Y-29455
X60685Y-30455
T6
X43955Y-42673
X43955Y-44641
X43955Y-46610
X45924Y-41689
X45924Y-43657
X45924Y-45626
X59055Y-35039
X59055Y-37008
X59055Y-38976
X61024Y-34055
X61024Y-36024
X61024Y-37992
X59055Y-41732
X59055Y-43701
X59055Y-45669
X61024Y-40748
X61024Y-42717
X61024Y-44685
T7
X39980Y-33580
X39980Y-34580
T8
X44200Y-32750
X44200Y-33750
X44200Y-35750
X44200Y-37750
T9
X39850Y-49115
X62490Y-49135
T0
M30
