G04 #@! TF.GenerationSoftware,KiCad,Pcbnew,(5.1.0)-1*
G04 #@! TF.CreationDate,2019-03-28T22:22:43+01:00*
G04 #@! TF.ProjectId,debounce_shield,6465626f-756e-4636-955f-736869656c64,rev?*
G04 #@! TF.SameCoordinates,Original*
G04 #@! TF.FileFunction,Legend,Bot*
G04 #@! TF.FilePolarity,Positive*
%FSLAX46Y46*%
G04 Gerber Fmt 4.6, Leading zero omitted, Abs format (unit mm)*
G04 Created by KiCad (PCBNEW (5.1.0)-1) date 2019-03-28 22:22:43*
%MOMM*%
%LPD*%
G04 APERTURE LIST*
%ADD10C,0.010000*%
%ADD11C,0.150000*%
G04 APERTURE END LIST*
D10*
G36*
X127064727Y-107733082D02*
G01*
X126990069Y-107768459D01*
X126938929Y-107828024D01*
X126910840Y-107912272D01*
X126904624Y-107994419D01*
X126916191Y-108094886D01*
X126950409Y-108171282D01*
X127008178Y-108225494D01*
X127017533Y-108231049D01*
X127074941Y-108253375D01*
X127145025Y-108267486D01*
X127210234Y-108270418D01*
X127232834Y-108267409D01*
X127244014Y-108262014D01*
X127251991Y-108248334D01*
X127257295Y-108221433D01*
X127260455Y-108176375D01*
X127262000Y-108108225D01*
X127262459Y-108012048D01*
X127262467Y-107991091D01*
X127262467Y-107721399D01*
X127163371Y-107721399D01*
X127064727Y-107733082D01*
X127064727Y-107733082D01*
G37*
X127064727Y-107733082D02*
X126990069Y-107768459D01*
X126938929Y-107828024D01*
X126910840Y-107912272D01*
X126904624Y-107994419D01*
X126916191Y-108094886D01*
X126950409Y-108171282D01*
X127008178Y-108225494D01*
X127017533Y-108231049D01*
X127074941Y-108253375D01*
X127145025Y-108267486D01*
X127210234Y-108270418D01*
X127232834Y-108267409D01*
X127244014Y-108262014D01*
X127251991Y-108248334D01*
X127257295Y-108221433D01*
X127260455Y-108176375D01*
X127262000Y-108108225D01*
X127262459Y-108012048D01*
X127262467Y-107991091D01*
X127262467Y-107721399D01*
X127163371Y-107721399D01*
X127064727Y-107733082D01*
G36*
X133427625Y-110230708D02*
G01*
X133352734Y-110240525D01*
X133305811Y-110259632D01*
X133281348Y-110292201D01*
X133273834Y-110342403D01*
X133273800Y-110347179D01*
X133283829Y-110403985D01*
X133316039Y-110440924D01*
X133373611Y-110460267D01*
X133438435Y-110464600D01*
X133527800Y-110464600D01*
X133527800Y-110223462D01*
X133427625Y-110230708D01*
X133427625Y-110230708D01*
G37*
X133427625Y-110230708D02*
X133352734Y-110240525D01*
X133305811Y-110259632D01*
X133281348Y-110292201D01*
X133273834Y-110342403D01*
X133273800Y-110347179D01*
X133283829Y-110403985D01*
X133316039Y-110440924D01*
X133373611Y-110460267D01*
X133438435Y-110464600D01*
X133527800Y-110464600D01*
X133527800Y-110223462D01*
X133427625Y-110230708D01*
G36*
X125996700Y-110210849D02*
G01*
X125912665Y-110219689D01*
X125856222Y-110245203D01*
X125828540Y-110286791D01*
X125826400Y-110298255D01*
X125835415Y-110345029D01*
X125873949Y-110377397D01*
X125940443Y-110394404D01*
X125987768Y-110396866D01*
X126077133Y-110396866D01*
X126077133Y-110210600D01*
X125996700Y-110210849D01*
X125996700Y-110210849D01*
G37*
X125996700Y-110210849D02*
X125912665Y-110219689D01*
X125856222Y-110245203D01*
X125828540Y-110286791D01*
X125826400Y-110298255D01*
X125835415Y-110345029D01*
X125873949Y-110377397D01*
X125940443Y-110394404D01*
X125987768Y-110396866D01*
X126077133Y-110396866D01*
X126077133Y-110210600D01*
X125996700Y-110210849D01*
G36*
X125979767Y-110566449D02*
G01*
X125894832Y-110572060D01*
X125838094Y-110589913D01*
X125805373Y-110622313D01*
X125792644Y-110669638D01*
X125794482Y-110716010D01*
X125812629Y-110747394D01*
X125852109Y-110767202D01*
X125917949Y-110778842D01*
X125958847Y-110782420D01*
X126077133Y-110790883D01*
X126077133Y-110566200D01*
X125979767Y-110566449D01*
X125979767Y-110566449D01*
G37*
X125979767Y-110566449D02*
X125894832Y-110572060D01*
X125838094Y-110589913D01*
X125805373Y-110622313D01*
X125792644Y-110669638D01*
X125794482Y-110716010D01*
X125812629Y-110747394D01*
X125852109Y-110767202D01*
X125917949Y-110778842D01*
X125958847Y-110782420D01*
X126077133Y-110790883D01*
X126077133Y-110566200D01*
X125979767Y-110566449D01*
G36*
X129059722Y-106235499D02*
G01*
X129053373Y-106261083D01*
X129041857Y-106315668D01*
X129026019Y-106394926D01*
X129006704Y-106494529D01*
X128984755Y-106610151D01*
X128961018Y-106737462D01*
X128948220Y-106806999D01*
X128916189Y-106978418D01*
X128888829Y-107117393D01*
X128865900Y-107224990D01*
X128847165Y-107302274D01*
X128832386Y-107350311D01*
X128822712Y-107368990D01*
X128799682Y-107383218D01*
X128749893Y-107407853D01*
X128678052Y-107440773D01*
X128588865Y-107479859D01*
X128487037Y-107522991D01*
X128413959Y-107553147D01*
X128291327Y-107602843D01*
X128195913Y-107640455D01*
X128123816Y-107667264D01*
X128071134Y-107684551D01*
X128033969Y-107693595D01*
X128008417Y-107695679D01*
X127990626Y-107692099D01*
X127966605Y-107678646D01*
X127918477Y-107648344D01*
X127849954Y-107603652D01*
X127775998Y-107554503D01*
X127465667Y-107554503D01*
X127465667Y-107992310D01*
X127465514Y-108125849D01*
X127464885Y-108229395D01*
X127463522Y-108306821D01*
X127461166Y-108361999D01*
X127457561Y-108398801D01*
X127452450Y-108421102D01*
X127445573Y-108432772D01*
X127436675Y-108437686D01*
X127436034Y-108437860D01*
X127384164Y-108445251D01*
X127309179Y-108448407D01*
X127221514Y-108447681D01*
X127131610Y-108443425D01*
X127049902Y-108435991D01*
X126986831Y-108425731D01*
X126973440Y-108422255D01*
X126886076Y-108382565D01*
X126806610Y-108321410D01*
X126743502Y-108246925D01*
X126705210Y-108167245D01*
X126704095Y-108163255D01*
X126688740Y-108070944D01*
X126685630Y-107965462D01*
X126694785Y-107864794D01*
X126703691Y-107822911D01*
X126737972Y-107747882D01*
X126795661Y-107674325D01*
X126867462Y-107612514D01*
X126922413Y-107581168D01*
X126990503Y-107560224D01*
X127081404Y-107545159D01*
X127184425Y-107536894D01*
X127288877Y-107536352D01*
X127370207Y-107542576D01*
X127465667Y-107554503D01*
X127775998Y-107554503D01*
X127764753Y-107547030D01*
X127666587Y-107480935D01*
X127559172Y-107407829D01*
X127501449Y-107368241D01*
X127391655Y-107293316D01*
X127289943Y-107224996D01*
X127199865Y-107165584D01*
X127124976Y-107117381D01*
X127068828Y-107082689D01*
X127034973Y-107063809D01*
X127027181Y-107061000D01*
X127008965Y-107072612D01*
X126970721Y-107105148D01*
X126915918Y-107155158D01*
X126848029Y-107219191D01*
X126770522Y-107293796D01*
X126686871Y-107375523D01*
X126600545Y-107460921D01*
X126515016Y-107546540D01*
X126433754Y-107628928D01*
X126360230Y-107704636D01*
X126297916Y-107770212D01*
X126250282Y-107822207D01*
X126220800Y-107857169D01*
X126212600Y-107870811D01*
X126221883Y-107889647D01*
X126248223Y-107932845D01*
X126289357Y-107996952D01*
X126343021Y-108078515D01*
X126406952Y-108174081D01*
X126478885Y-108280197D01*
X126527983Y-108351917D01*
X126604008Y-108463605D01*
X126673440Y-108567639D01*
X126734003Y-108660444D01*
X126783416Y-108738447D01*
X126819402Y-108798073D01*
X126839681Y-108835748D01*
X126843367Y-108846552D01*
X126836973Y-108869970D01*
X126819219Y-108919248D01*
X126792246Y-108989188D01*
X126758196Y-109074591D01*
X126719209Y-109170259D01*
X126677427Y-109270994D01*
X126634990Y-109371596D01*
X126594041Y-109466866D01*
X126556721Y-109551608D01*
X126525170Y-109620620D01*
X126520325Y-109630853D01*
X126511948Y-109648245D01*
X126502834Y-109662706D01*
X126489592Y-109675185D01*
X126468829Y-109686628D01*
X126437154Y-109697983D01*
X126391173Y-109710197D01*
X126327495Y-109724218D01*
X126242727Y-109740993D01*
X126133477Y-109761470D01*
X125996354Y-109786595D01*
X125899333Y-109804288D01*
X125775120Y-109827243D01*
X125660368Y-109849014D01*
X125559721Y-109868675D01*
X125477827Y-109885300D01*
X125419328Y-109897964D01*
X125388871Y-109905741D01*
X125387100Y-109906390D01*
X125349000Y-109922007D01*
X125349000Y-110487563D01*
X125349304Y-110650539D01*
X125350282Y-110782358D01*
X125352031Y-110885726D01*
X125354651Y-110963349D01*
X125358239Y-111017932D01*
X125362893Y-111052181D01*
X125368713Y-111068800D01*
X125370167Y-111070365D01*
X125391518Y-111077583D01*
X125442013Y-111089886D01*
X125517459Y-111106397D01*
X125613664Y-111126240D01*
X125726433Y-111148539D01*
X125851573Y-111172419D01*
X125916267Y-111184455D01*
X126045959Y-111208872D01*
X126165338Y-111232285D01*
X126270208Y-111253798D01*
X126356375Y-111272514D01*
X126419644Y-111287538D01*
X126455820Y-111297973D01*
X126462387Y-111301140D01*
X126473528Y-111321056D01*
X126494935Y-111367470D01*
X126524551Y-111435334D01*
X126560321Y-111519600D01*
X126600186Y-111615221D01*
X126642090Y-111717150D01*
X126683977Y-111820339D01*
X126723790Y-111919740D01*
X126759472Y-112010306D01*
X126788966Y-112086990D01*
X126810216Y-112144743D01*
X126821165Y-112178519D01*
X126822200Y-112184188D01*
X126812950Y-112202315D01*
X126786729Y-112244807D01*
X126745829Y-112308177D01*
X126692543Y-112388934D01*
X126629162Y-112483592D01*
X126557978Y-112588661D01*
X126517400Y-112648063D01*
X126442968Y-112757317D01*
X126375111Y-112858074D01*
X126316122Y-112946836D01*
X126268296Y-113020108D01*
X126233924Y-113074394D01*
X126215301Y-113106197D01*
X126212600Y-113112768D01*
X126224194Y-113129017D01*
X126257116Y-113166130D01*
X126308580Y-113221192D01*
X126375799Y-113291288D01*
X126455987Y-113373504D01*
X126546354Y-113464927D01*
X126617161Y-113535814D01*
X126727330Y-113645376D01*
X126816253Y-113733045D01*
X126886465Y-113801043D01*
X126940499Y-113851592D01*
X126980887Y-113886915D01*
X127010164Y-113909233D01*
X127030863Y-113920770D01*
X127045516Y-113923746D01*
X127055980Y-113920758D01*
X127078366Y-113906713D01*
X127124777Y-113876037D01*
X127191362Y-113831333D01*
X127274269Y-113775199D01*
X127369648Y-113710237D01*
X127473645Y-113639047D01*
X127497244Y-113622845D01*
X127602524Y-113551377D01*
X127700240Y-113486655D01*
X127786537Y-113431108D01*
X127857560Y-113387162D01*
X127909454Y-113357244D01*
X127938364Y-113343780D01*
X127941367Y-113343266D01*
X127969726Y-113350908D01*
X128020944Y-113371811D01*
X128088193Y-113402945D01*
X128164644Y-113441276D01*
X128178833Y-113448695D01*
X128267634Y-113493628D01*
X128334967Y-113523868D01*
X128378226Y-113538338D01*
X128393985Y-113537595D01*
X128404805Y-113517207D01*
X128426641Y-113469119D01*
X128458133Y-113396666D01*
X128497920Y-113303182D01*
X128544642Y-113192002D01*
X128582656Y-113100747D01*
X127504586Y-113100747D01*
X127491045Y-113210357D01*
X127459062Y-113311161D01*
X127409536Y-113396264D01*
X127343369Y-113458774D01*
X127337561Y-113462483D01*
X127216709Y-113518781D01*
X127087730Y-113542843D01*
X126949179Y-113534853D01*
X126880791Y-113520193D01*
X126825424Y-113504340D01*
X126783769Y-113489756D01*
X126767073Y-113481152D01*
X126764478Y-113459009D01*
X126772573Y-113419015D01*
X126787353Y-113373058D01*
X126804815Y-113333028D01*
X126820957Y-113310813D01*
X126824905Y-113309399D01*
X126852036Y-113316761D01*
X126874165Y-113326956D01*
X126920820Y-113340342D01*
X126987297Y-113346015D01*
X127060505Y-113344234D01*
X127127350Y-113335261D01*
X127171654Y-113321045D01*
X127227168Y-113273740D01*
X127264049Y-113200637D01*
X127280786Y-113105155D01*
X127281651Y-113072009D01*
X127268888Y-112967114D01*
X127232774Y-112886043D01*
X127174900Y-112830128D01*
X127096856Y-112800701D01*
X127000234Y-112799092D01*
X126962877Y-112805232D01*
X126893724Y-112818671D01*
X126849906Y-112822653D01*
X126823643Y-112814813D01*
X126807154Y-112792781D01*
X126792659Y-112754191D01*
X126792376Y-112753351D01*
X126780042Y-112704825D01*
X126779234Y-112671550D01*
X126782346Y-112665147D01*
X126815056Y-112647305D01*
X126871176Y-112630162D01*
X126940276Y-112615707D01*
X127011924Y-112605929D01*
X127075689Y-112602819D01*
X127101049Y-112604350D01*
X127209010Y-112630288D01*
X127308724Y-112678964D01*
X127390671Y-112744990D01*
X127425567Y-112788000D01*
X127472747Y-112882675D01*
X127498787Y-112989221D01*
X127504586Y-113100747D01*
X128582656Y-113100747D01*
X128596939Y-113066462D01*
X128653450Y-112929895D01*
X128712815Y-112785637D01*
X128773674Y-112637022D01*
X128834666Y-112487386D01*
X128894432Y-112340063D01*
X128951610Y-112198388D01*
X129004841Y-112065695D01*
X129052764Y-111945321D01*
X129094019Y-111840598D01*
X129127246Y-111754863D01*
X129151085Y-111691450D01*
X129164174Y-111653694D01*
X129166241Y-111644378D01*
X129147002Y-111622052D01*
X129110492Y-111595253D01*
X129103436Y-111591006D01*
X128945716Y-111482982D01*
X128801971Y-111352684D01*
X128677215Y-111205978D01*
X128576461Y-111048733D01*
X128506695Y-110892519D01*
X128471025Y-110754655D01*
X128451715Y-110599203D01*
X128449256Y-110438492D01*
X128464138Y-110284853D01*
X128479526Y-110209298D01*
X128528035Y-110060895D01*
X126280333Y-110060895D01*
X126280333Y-110937198D01*
X126225300Y-110946369D01*
X126085340Y-110961212D01*
X125943468Y-110961125D01*
X125813347Y-110946395D01*
X125768870Y-110936777D01*
X125681441Y-110899477D01*
X125618204Y-110839523D01*
X125581109Y-110759795D01*
X125572101Y-110663175D01*
X125573289Y-110647442D01*
X125583348Y-110587017D01*
X125603794Y-110545062D01*
X125635103Y-110512043D01*
X125688490Y-110464341D01*
X125650022Y-110412311D01*
X125621282Y-110348112D01*
X125614353Y-110272253D01*
X125629268Y-110199003D01*
X125649477Y-110161189D01*
X125708242Y-110108217D01*
X125794653Y-110070054D01*
X125905581Y-110047375D01*
X126037895Y-110040858D01*
X126168783Y-110048949D01*
X126280333Y-110060895D01*
X128528035Y-110060895D01*
X128538626Y-110028496D01*
X128622120Y-109867440D01*
X128733957Y-109718879D01*
X128765373Y-109684364D01*
X128917423Y-109544040D01*
X129080019Y-109435709D01*
X129254578Y-109358751D01*
X129442516Y-109312545D01*
X129645249Y-109296473D01*
X129651591Y-109296450D01*
X129852744Y-109312400D01*
X130043760Y-109360517D01*
X130223244Y-109440249D01*
X130389804Y-109551044D01*
X130470897Y-109620800D01*
X130609139Y-109770975D01*
X130716215Y-109934339D01*
X130792288Y-110111268D01*
X130837520Y-110302137D01*
X130852083Y-110499991D01*
X130836312Y-110700957D01*
X130788664Y-110891028D01*
X130709588Y-111069401D01*
X130599537Y-111235274D01*
X130458959Y-111387844D01*
X130288305Y-111526309D01*
X130268070Y-111540402D01*
X130200978Y-111587797D01*
X130158530Y-111621836D01*
X130136427Y-111646753D01*
X130130371Y-111666781D01*
X130131589Y-111674792D01*
X130141549Y-111703381D01*
X130162891Y-111758505D01*
X130194220Y-111836841D01*
X130234141Y-111935069D01*
X130281260Y-112049868D01*
X130334180Y-112177918D01*
X130391508Y-112315897D01*
X130451847Y-112460486D01*
X130513803Y-112608362D01*
X130575981Y-112756207D01*
X130636985Y-112900697D01*
X130695421Y-113038514D01*
X130749894Y-113166335D01*
X130799009Y-113280842D01*
X130841370Y-113378711D01*
X130875582Y-113456624D01*
X130900251Y-113511258D01*
X130913981Y-113539294D01*
X130916144Y-113542336D01*
X130936918Y-113536933D01*
X130981083Y-113517974D01*
X131042420Y-113488344D01*
X131114712Y-113450928D01*
X131124442Y-113445722D01*
X131200195Y-113406662D01*
X131268398Y-113374462D01*
X131321921Y-113352292D01*
X131353636Y-113343319D01*
X131355016Y-113343266D01*
X131380518Y-113352881D01*
X131430642Y-113380541D01*
X131502553Y-113424472D01*
X131593413Y-113482896D01*
X131700385Y-113554039D01*
X131797892Y-113620455D01*
X131903010Y-113692544D01*
X132000611Y-113759099D01*
X132086770Y-113817473D01*
X132157561Y-113865019D01*
X132209058Y-113899090D01*
X132237337Y-113917039D01*
X132239687Y-113918368D01*
X132251291Y-113922832D01*
X132264687Y-113922337D01*
X132282478Y-113914634D01*
X132307267Y-113897479D01*
X132341658Y-113868623D01*
X132388255Y-113825821D01*
X132449661Y-113766825D01*
X132528478Y-113689389D01*
X132627312Y-113591266D01*
X132682972Y-113535814D01*
X132779004Y-113439543D01*
X132866891Y-113350389D01*
X132943848Y-113271260D01*
X133007088Y-113205063D01*
X133053826Y-113154708D01*
X133081276Y-113123102D01*
X133087533Y-113113537D01*
X133078259Y-113095309D01*
X133052009Y-113052863D01*
X133011147Y-112989784D01*
X132958034Y-112909656D01*
X132914744Y-112845346D01*
X132556615Y-112845346D01*
X132550245Y-112927914D01*
X132548364Y-112934540D01*
X132520632Y-112997200D01*
X132475458Y-113049369D01*
X132407426Y-113095768D01*
X132311585Y-113140925D01*
X132235799Y-113173118D01*
X132186167Y-113197537D01*
X132157209Y-113218510D01*
X132143447Y-113240363D01*
X132139404Y-113267422D01*
X132139267Y-113277010D01*
X132153667Y-113321737D01*
X132194527Y-113349970D01*
X132258334Y-113360984D01*
X132341576Y-113354055D01*
X132420209Y-113334983D01*
X132469548Y-113320556D01*
X132504477Y-113311342D01*
X132513833Y-113309583D01*
X132526165Y-113324207D01*
X132539116Y-113360341D01*
X132549927Y-113405801D01*
X132555834Y-113448398D01*
X132554077Y-113475946D01*
X132552212Y-113478961D01*
X132522592Y-113494919D01*
X132469837Y-113512037D01*
X132404479Y-113527804D01*
X132337051Y-113539712D01*
X132278085Y-113545252D01*
X132273574Y-113545352D01*
X132209058Y-113540773D01*
X132136967Y-113527926D01*
X132110067Y-113520883D01*
X132019989Y-113478746D01*
X131971527Y-113435628D01*
X131942258Y-113398507D01*
X131926469Y-113363576D01*
X131920123Y-113317851D01*
X131919134Y-113267066D01*
X131920970Y-113204089D01*
X131929142Y-113161955D01*
X131947643Y-113127722D01*
X131970949Y-113099163D01*
X132031832Y-113048490D01*
X132124770Y-112999137D01*
X132159569Y-112984274D01*
X132235937Y-112949347D01*
X132292712Y-112915748D01*
X132322801Y-112888113D01*
X132339114Y-112857605D01*
X132332815Y-112836587D01*
X132310105Y-112816146D01*
X132253633Y-112790869D01*
X132178293Y-112787497D01*
X132091205Y-112806227D01*
X132080648Y-112809847D01*
X132039096Y-112823783D01*
X132014535Y-112830363D01*
X132011881Y-112830270D01*
X132005453Y-112813884D01*
X131990983Y-112776084D01*
X131981296Y-112750599D01*
X131964856Y-112703770D01*
X131961460Y-112677569D01*
X131970961Y-112661435D01*
X131979961Y-112654236D01*
X132017661Y-112636822D01*
X132076659Y-112619929D01*
X132144467Y-112606362D01*
X132208592Y-112598928D01*
X132229000Y-112598294D01*
X132328778Y-112611202D01*
X132415531Y-112646680D01*
X132485156Y-112700409D01*
X132533551Y-112768071D01*
X132556615Y-112845346D01*
X132914744Y-112845346D01*
X132895032Y-112816064D01*
X132824502Y-112712595D01*
X132797163Y-112672802D01*
X132723482Y-112565195D01*
X132655580Y-112464893D01*
X132595999Y-112375745D01*
X132547286Y-112301597D01*
X132511984Y-112246300D01*
X132492638Y-112213700D01*
X132490201Y-112208608D01*
X132486824Y-112191447D01*
X132488866Y-112166580D01*
X132497549Y-112130338D01*
X132514097Y-112079054D01*
X132539734Y-112009063D01*
X132575684Y-111916697D01*
X132623170Y-111798289D01*
X132645553Y-111743098D01*
X132691900Y-111630196D01*
X132735057Y-111527205D01*
X132773146Y-111438435D01*
X132804291Y-111368198D01*
X132826614Y-111320805D01*
X132838214Y-111300590D01*
X132859454Y-111292823D01*
X132909845Y-111280010D01*
X132985199Y-111263046D01*
X133081327Y-111242825D01*
X133194039Y-111220242D01*
X133319145Y-111196190D01*
X133383867Y-111184109D01*
X133513541Y-111159739D01*
X133632904Y-111136538D01*
X133737763Y-111115381D01*
X133823924Y-111097143D01*
X133887196Y-111082700D01*
X133923385Y-111072927D01*
X133929967Y-111070103D01*
X133936118Y-111057026D01*
X133941048Y-111026876D01*
X133944856Y-110976918D01*
X133947642Y-110904415D01*
X133949508Y-110806630D01*
X133950554Y-110680825D01*
X133950880Y-110524266D01*
X133950874Y-110500626D01*
X133950383Y-110366430D01*
X133949111Y-110242611D01*
X133947164Y-110133360D01*
X133945151Y-110060895D01*
X133747933Y-110060895D01*
X133747933Y-110496992D01*
X133747512Y-110615263D01*
X133746326Y-110722223D01*
X133744491Y-110813251D01*
X133742124Y-110883724D01*
X133739342Y-110929018D01*
X133736645Y-110944377D01*
X133714806Y-110950473D01*
X133669976Y-110954572D01*
X133626578Y-110955666D01*
X133527800Y-110955666D01*
X133527800Y-110655320D01*
X133401368Y-110647206D01*
X133281879Y-110629320D01*
X133185537Y-110593238D01*
X133115130Y-110540270D01*
X133085298Y-110498730D01*
X133060819Y-110424806D01*
X133053822Y-110337140D01*
X133064306Y-110250996D01*
X133085298Y-110193402D01*
X133137082Y-110131882D01*
X133216759Y-110085589D01*
X133321625Y-110055234D01*
X133448978Y-110041524D01*
X133596113Y-110045167D01*
X133636383Y-110048949D01*
X133747933Y-110060895D01*
X133945151Y-110060895D01*
X133944650Y-110042865D01*
X133941675Y-109975318D01*
X133938346Y-109934906D01*
X133936200Y-109925389D01*
X133915224Y-109915575D01*
X133862686Y-109900829D01*
X133780465Y-109881567D01*
X133670441Y-109858209D01*
X133534492Y-109831172D01*
X133385598Y-109802936D01*
X133254096Y-109778170D01*
X133132479Y-109754671D01*
X133024969Y-109733301D01*
X132935788Y-109714921D01*
X132869157Y-109700394D01*
X132829298Y-109690583D01*
X132820306Y-109687502D01*
X132804584Y-109667210D01*
X132778976Y-109620602D01*
X132745643Y-109552779D01*
X132706752Y-109468844D01*
X132664464Y-109373900D01*
X132620945Y-109273049D01*
X132578357Y-109171393D01*
X132538866Y-109074034D01*
X132504635Y-108986076D01*
X132477828Y-108912619D01*
X132460609Y-108858768D01*
X132455141Y-108829623D01*
X132455554Y-108827444D01*
X132467618Y-108806379D01*
X132496550Y-108761026D01*
X132539969Y-108694960D01*
X132595494Y-108611758D01*
X132660745Y-108514997D01*
X132705267Y-108449533D01*
X132511800Y-108449533D01*
X132308600Y-108449533D01*
X132308600Y-108077000D01*
X131953000Y-108077000D01*
X131953000Y-107890733D01*
X132308600Y-107890733D01*
X132308600Y-107721399D01*
X131900430Y-107721399D01*
X131905549Y-107632499D01*
X131910667Y-107543600D01*
X132211233Y-107538975D01*
X132511800Y-107534351D01*
X132511800Y-108449533D01*
X132705267Y-108449533D01*
X132733342Y-108408253D01*
X132777195Y-108344170D01*
X132852363Y-108233948D01*
X132920969Y-108132153D01*
X132980737Y-108042258D01*
X133029389Y-107967733D01*
X133064650Y-107912051D01*
X133084244Y-107878683D01*
X133087533Y-107870863D01*
X133075839Y-107852664D01*
X133043073Y-107814580D01*
X132992708Y-107760057D01*
X132928219Y-107692542D01*
X132853078Y-107615485D01*
X132770759Y-107532331D01*
X132684736Y-107446528D01*
X132598483Y-107361524D01*
X132515474Y-107280767D01*
X132439182Y-107207703D01*
X132373080Y-107145781D01*
X132320642Y-107098447D01*
X132285343Y-107069149D01*
X132271516Y-107061000D01*
X132250914Y-107070297D01*
X132205993Y-107096692D01*
X132140229Y-107137941D01*
X132057102Y-107191798D01*
X131960090Y-107256017D01*
X131852672Y-107328355D01*
X131772987Y-107382733D01*
X131660619Y-107459355D01*
X131556512Y-107529449D01*
X131464092Y-107590775D01*
X131386788Y-107641095D01*
X131328027Y-107678170D01*
X131291236Y-107699762D01*
X131280345Y-107704466D01*
X131258927Y-107698320D01*
X131211193Y-107681192D01*
X131142118Y-107655053D01*
X131056680Y-107621871D01*
X130959855Y-107583615D01*
X130856618Y-107542253D01*
X130751948Y-107499754D01*
X130650820Y-107458087D01*
X130558211Y-107419222D01*
X130543403Y-107412920D01*
X130520408Y-107403612D01*
X130501521Y-107395174D01*
X130485735Y-107384354D01*
X130472044Y-107367894D01*
X130459443Y-107342541D01*
X130446924Y-107305040D01*
X130433483Y-107252135D01*
X130418112Y-107180572D01*
X130399805Y-107087096D01*
X130377557Y-106968451D01*
X130350362Y-106821384D01*
X130335167Y-106739266D01*
X130311260Y-106611190D01*
X130289034Y-106493870D01*
X130269300Y-106391445D01*
X130252866Y-106308052D01*
X130240543Y-106247828D01*
X130233140Y-106214909D01*
X130231625Y-106210100D01*
X130213443Y-106207098D01*
X130165355Y-106204349D01*
X130091322Y-106201940D01*
X129995306Y-106199956D01*
X129881265Y-106198484D01*
X129753163Y-106197611D01*
X129648648Y-106197399D01*
X129073495Y-106197399D01*
X129059722Y-106235499D01*
X129059722Y-106235499D01*
G37*
X129059722Y-106235499D02*
X129053373Y-106261083D01*
X129041857Y-106315668D01*
X129026019Y-106394926D01*
X129006704Y-106494529D01*
X128984755Y-106610151D01*
X128961018Y-106737462D01*
X128948220Y-106806999D01*
X128916189Y-106978418D01*
X128888829Y-107117393D01*
X128865900Y-107224990D01*
X128847165Y-107302274D01*
X128832386Y-107350311D01*
X128822712Y-107368990D01*
X128799682Y-107383218D01*
X128749893Y-107407853D01*
X128678052Y-107440773D01*
X128588865Y-107479859D01*
X128487037Y-107522991D01*
X128413959Y-107553147D01*
X128291327Y-107602843D01*
X128195913Y-107640455D01*
X128123816Y-107667264D01*
X128071134Y-107684551D01*
X128033969Y-107693595D01*
X128008417Y-107695679D01*
X127990626Y-107692099D01*
X127966605Y-107678646D01*
X127918477Y-107648344D01*
X127849954Y-107603652D01*
X127775998Y-107554503D01*
X127465667Y-107554503D01*
X127465667Y-107992310D01*
X127465514Y-108125849D01*
X127464885Y-108229395D01*
X127463522Y-108306821D01*
X127461166Y-108361999D01*
X127457561Y-108398801D01*
X127452450Y-108421102D01*
X127445573Y-108432772D01*
X127436675Y-108437686D01*
X127436034Y-108437860D01*
X127384164Y-108445251D01*
X127309179Y-108448407D01*
X127221514Y-108447681D01*
X127131610Y-108443425D01*
X127049902Y-108435991D01*
X126986831Y-108425731D01*
X126973440Y-108422255D01*
X126886076Y-108382565D01*
X126806610Y-108321410D01*
X126743502Y-108246925D01*
X126705210Y-108167245D01*
X126704095Y-108163255D01*
X126688740Y-108070944D01*
X126685630Y-107965462D01*
X126694785Y-107864794D01*
X126703691Y-107822911D01*
X126737972Y-107747882D01*
X126795661Y-107674325D01*
X126867462Y-107612514D01*
X126922413Y-107581168D01*
X126990503Y-107560224D01*
X127081404Y-107545159D01*
X127184425Y-107536894D01*
X127288877Y-107536352D01*
X127370207Y-107542576D01*
X127465667Y-107554503D01*
X127775998Y-107554503D01*
X127764753Y-107547030D01*
X127666587Y-107480935D01*
X127559172Y-107407829D01*
X127501449Y-107368241D01*
X127391655Y-107293316D01*
X127289943Y-107224996D01*
X127199865Y-107165584D01*
X127124976Y-107117381D01*
X127068828Y-107082689D01*
X127034973Y-107063809D01*
X127027181Y-107061000D01*
X127008965Y-107072612D01*
X126970721Y-107105148D01*
X126915918Y-107155158D01*
X126848029Y-107219191D01*
X126770522Y-107293796D01*
X126686871Y-107375523D01*
X126600545Y-107460921D01*
X126515016Y-107546540D01*
X126433754Y-107628928D01*
X126360230Y-107704636D01*
X126297916Y-107770212D01*
X126250282Y-107822207D01*
X126220800Y-107857169D01*
X126212600Y-107870811D01*
X126221883Y-107889647D01*
X126248223Y-107932845D01*
X126289357Y-107996952D01*
X126343021Y-108078515D01*
X126406952Y-108174081D01*
X126478885Y-108280197D01*
X126527983Y-108351917D01*
X126604008Y-108463605D01*
X126673440Y-108567639D01*
X126734003Y-108660444D01*
X126783416Y-108738447D01*
X126819402Y-108798073D01*
X126839681Y-108835748D01*
X126843367Y-108846552D01*
X126836973Y-108869970D01*
X126819219Y-108919248D01*
X126792246Y-108989188D01*
X126758196Y-109074591D01*
X126719209Y-109170259D01*
X126677427Y-109270994D01*
X126634990Y-109371596D01*
X126594041Y-109466866D01*
X126556721Y-109551608D01*
X126525170Y-109620620D01*
X126520325Y-109630853D01*
X126511948Y-109648245D01*
X126502834Y-109662706D01*
X126489592Y-109675185D01*
X126468829Y-109686628D01*
X126437154Y-109697983D01*
X126391173Y-109710197D01*
X126327495Y-109724218D01*
X126242727Y-109740993D01*
X126133477Y-109761470D01*
X125996354Y-109786595D01*
X125899333Y-109804288D01*
X125775120Y-109827243D01*
X125660368Y-109849014D01*
X125559721Y-109868675D01*
X125477827Y-109885300D01*
X125419328Y-109897964D01*
X125388871Y-109905741D01*
X125387100Y-109906390D01*
X125349000Y-109922007D01*
X125349000Y-110487563D01*
X125349304Y-110650539D01*
X125350282Y-110782358D01*
X125352031Y-110885726D01*
X125354651Y-110963349D01*
X125358239Y-111017932D01*
X125362893Y-111052181D01*
X125368713Y-111068800D01*
X125370167Y-111070365D01*
X125391518Y-111077583D01*
X125442013Y-111089886D01*
X125517459Y-111106397D01*
X125613664Y-111126240D01*
X125726433Y-111148539D01*
X125851573Y-111172419D01*
X125916267Y-111184455D01*
X126045959Y-111208872D01*
X126165338Y-111232285D01*
X126270208Y-111253798D01*
X126356375Y-111272514D01*
X126419644Y-111287538D01*
X126455820Y-111297973D01*
X126462387Y-111301140D01*
X126473528Y-111321056D01*
X126494935Y-111367470D01*
X126524551Y-111435334D01*
X126560321Y-111519600D01*
X126600186Y-111615221D01*
X126642090Y-111717150D01*
X126683977Y-111820339D01*
X126723790Y-111919740D01*
X126759472Y-112010306D01*
X126788966Y-112086990D01*
X126810216Y-112144743D01*
X126821165Y-112178519D01*
X126822200Y-112184188D01*
X126812950Y-112202315D01*
X126786729Y-112244807D01*
X126745829Y-112308177D01*
X126692543Y-112388934D01*
X126629162Y-112483592D01*
X126557978Y-112588661D01*
X126517400Y-112648063D01*
X126442968Y-112757317D01*
X126375111Y-112858074D01*
X126316122Y-112946836D01*
X126268296Y-113020108D01*
X126233924Y-113074394D01*
X126215301Y-113106197D01*
X126212600Y-113112768D01*
X126224194Y-113129017D01*
X126257116Y-113166130D01*
X126308580Y-113221192D01*
X126375799Y-113291288D01*
X126455987Y-113373504D01*
X126546354Y-113464927D01*
X126617161Y-113535814D01*
X126727330Y-113645376D01*
X126816253Y-113733045D01*
X126886465Y-113801043D01*
X126940499Y-113851592D01*
X126980887Y-113886915D01*
X127010164Y-113909233D01*
X127030863Y-113920770D01*
X127045516Y-113923746D01*
X127055980Y-113920758D01*
X127078366Y-113906713D01*
X127124777Y-113876037D01*
X127191362Y-113831333D01*
X127274269Y-113775199D01*
X127369648Y-113710237D01*
X127473645Y-113639047D01*
X127497244Y-113622845D01*
X127602524Y-113551377D01*
X127700240Y-113486655D01*
X127786537Y-113431108D01*
X127857560Y-113387162D01*
X127909454Y-113357244D01*
X127938364Y-113343780D01*
X127941367Y-113343266D01*
X127969726Y-113350908D01*
X128020944Y-113371811D01*
X128088193Y-113402945D01*
X128164644Y-113441276D01*
X128178833Y-113448695D01*
X128267634Y-113493628D01*
X128334967Y-113523868D01*
X128378226Y-113538338D01*
X128393985Y-113537595D01*
X128404805Y-113517207D01*
X128426641Y-113469119D01*
X128458133Y-113396666D01*
X128497920Y-113303182D01*
X128544642Y-113192002D01*
X128582656Y-113100747D01*
X127504586Y-113100747D01*
X127491045Y-113210357D01*
X127459062Y-113311161D01*
X127409536Y-113396264D01*
X127343369Y-113458774D01*
X127337561Y-113462483D01*
X127216709Y-113518781D01*
X127087730Y-113542843D01*
X126949179Y-113534853D01*
X126880791Y-113520193D01*
X126825424Y-113504340D01*
X126783769Y-113489756D01*
X126767073Y-113481152D01*
X126764478Y-113459009D01*
X126772573Y-113419015D01*
X126787353Y-113373058D01*
X126804815Y-113333028D01*
X126820957Y-113310813D01*
X126824905Y-113309399D01*
X126852036Y-113316761D01*
X126874165Y-113326956D01*
X126920820Y-113340342D01*
X126987297Y-113346015D01*
X127060505Y-113344234D01*
X127127350Y-113335261D01*
X127171654Y-113321045D01*
X127227168Y-113273740D01*
X127264049Y-113200637D01*
X127280786Y-113105155D01*
X127281651Y-113072009D01*
X127268888Y-112967114D01*
X127232774Y-112886043D01*
X127174900Y-112830128D01*
X127096856Y-112800701D01*
X127000234Y-112799092D01*
X126962877Y-112805232D01*
X126893724Y-112818671D01*
X126849906Y-112822653D01*
X126823643Y-112814813D01*
X126807154Y-112792781D01*
X126792659Y-112754191D01*
X126792376Y-112753351D01*
X126780042Y-112704825D01*
X126779234Y-112671550D01*
X126782346Y-112665147D01*
X126815056Y-112647305D01*
X126871176Y-112630162D01*
X126940276Y-112615707D01*
X127011924Y-112605929D01*
X127075689Y-112602819D01*
X127101049Y-112604350D01*
X127209010Y-112630288D01*
X127308724Y-112678964D01*
X127390671Y-112744990D01*
X127425567Y-112788000D01*
X127472747Y-112882675D01*
X127498787Y-112989221D01*
X127504586Y-113100747D01*
X128582656Y-113100747D01*
X128596939Y-113066462D01*
X128653450Y-112929895D01*
X128712815Y-112785637D01*
X128773674Y-112637022D01*
X128834666Y-112487386D01*
X128894432Y-112340063D01*
X128951610Y-112198388D01*
X129004841Y-112065695D01*
X129052764Y-111945321D01*
X129094019Y-111840598D01*
X129127246Y-111754863D01*
X129151085Y-111691450D01*
X129164174Y-111653694D01*
X129166241Y-111644378D01*
X129147002Y-111622052D01*
X129110492Y-111595253D01*
X129103436Y-111591006D01*
X128945716Y-111482982D01*
X128801971Y-111352684D01*
X128677215Y-111205978D01*
X128576461Y-111048733D01*
X128506695Y-110892519D01*
X128471025Y-110754655D01*
X128451715Y-110599203D01*
X128449256Y-110438492D01*
X128464138Y-110284853D01*
X128479526Y-110209298D01*
X128528035Y-110060895D01*
X126280333Y-110060895D01*
X126280333Y-110937198D01*
X126225300Y-110946369D01*
X126085340Y-110961212D01*
X125943468Y-110961125D01*
X125813347Y-110946395D01*
X125768870Y-110936777D01*
X125681441Y-110899477D01*
X125618204Y-110839523D01*
X125581109Y-110759795D01*
X125572101Y-110663175D01*
X125573289Y-110647442D01*
X125583348Y-110587017D01*
X125603794Y-110545062D01*
X125635103Y-110512043D01*
X125688490Y-110464341D01*
X125650022Y-110412311D01*
X125621282Y-110348112D01*
X125614353Y-110272253D01*
X125629268Y-110199003D01*
X125649477Y-110161189D01*
X125708242Y-110108217D01*
X125794653Y-110070054D01*
X125905581Y-110047375D01*
X126037895Y-110040858D01*
X126168783Y-110048949D01*
X126280333Y-110060895D01*
X128528035Y-110060895D01*
X128538626Y-110028496D01*
X128622120Y-109867440D01*
X128733957Y-109718879D01*
X128765373Y-109684364D01*
X128917423Y-109544040D01*
X129080019Y-109435709D01*
X129254578Y-109358751D01*
X129442516Y-109312545D01*
X129645249Y-109296473D01*
X129651591Y-109296450D01*
X129852744Y-109312400D01*
X130043760Y-109360517D01*
X130223244Y-109440249D01*
X130389804Y-109551044D01*
X130470897Y-109620800D01*
X130609139Y-109770975D01*
X130716215Y-109934339D01*
X130792288Y-110111268D01*
X130837520Y-110302137D01*
X130852083Y-110499991D01*
X130836312Y-110700957D01*
X130788664Y-110891028D01*
X130709588Y-111069401D01*
X130599537Y-111235274D01*
X130458959Y-111387844D01*
X130288305Y-111526309D01*
X130268070Y-111540402D01*
X130200978Y-111587797D01*
X130158530Y-111621836D01*
X130136427Y-111646753D01*
X130130371Y-111666781D01*
X130131589Y-111674792D01*
X130141549Y-111703381D01*
X130162891Y-111758505D01*
X130194220Y-111836841D01*
X130234141Y-111935069D01*
X130281260Y-112049868D01*
X130334180Y-112177918D01*
X130391508Y-112315897D01*
X130451847Y-112460486D01*
X130513803Y-112608362D01*
X130575981Y-112756207D01*
X130636985Y-112900697D01*
X130695421Y-113038514D01*
X130749894Y-113166335D01*
X130799009Y-113280842D01*
X130841370Y-113378711D01*
X130875582Y-113456624D01*
X130900251Y-113511258D01*
X130913981Y-113539294D01*
X130916144Y-113542336D01*
X130936918Y-113536933D01*
X130981083Y-113517974D01*
X131042420Y-113488344D01*
X131114712Y-113450928D01*
X131124442Y-113445722D01*
X131200195Y-113406662D01*
X131268398Y-113374462D01*
X131321921Y-113352292D01*
X131353636Y-113343319D01*
X131355016Y-113343266D01*
X131380518Y-113352881D01*
X131430642Y-113380541D01*
X131502553Y-113424472D01*
X131593413Y-113482896D01*
X131700385Y-113554039D01*
X131797892Y-113620455D01*
X131903010Y-113692544D01*
X132000611Y-113759099D01*
X132086770Y-113817473D01*
X132157561Y-113865019D01*
X132209058Y-113899090D01*
X132237337Y-113917039D01*
X132239687Y-113918368D01*
X132251291Y-113922832D01*
X132264687Y-113922337D01*
X132282478Y-113914634D01*
X132307267Y-113897479D01*
X132341658Y-113868623D01*
X132388255Y-113825821D01*
X132449661Y-113766825D01*
X132528478Y-113689389D01*
X132627312Y-113591266D01*
X132682972Y-113535814D01*
X132779004Y-113439543D01*
X132866891Y-113350389D01*
X132943848Y-113271260D01*
X133007088Y-113205063D01*
X133053826Y-113154708D01*
X133081276Y-113123102D01*
X133087533Y-113113537D01*
X133078259Y-113095309D01*
X133052009Y-113052863D01*
X133011147Y-112989784D01*
X132958034Y-112909656D01*
X132914744Y-112845346D01*
X132556615Y-112845346D01*
X132550245Y-112927914D01*
X132548364Y-112934540D01*
X132520632Y-112997200D01*
X132475458Y-113049369D01*
X132407426Y-113095768D01*
X132311585Y-113140925D01*
X132235799Y-113173118D01*
X132186167Y-113197537D01*
X132157209Y-113218510D01*
X132143447Y-113240363D01*
X132139404Y-113267422D01*
X132139267Y-113277010D01*
X132153667Y-113321737D01*
X132194527Y-113349970D01*
X132258334Y-113360984D01*
X132341576Y-113354055D01*
X132420209Y-113334983D01*
X132469548Y-113320556D01*
X132504477Y-113311342D01*
X132513833Y-113309583D01*
X132526165Y-113324207D01*
X132539116Y-113360341D01*
X132549927Y-113405801D01*
X132555834Y-113448398D01*
X132554077Y-113475946D01*
X132552212Y-113478961D01*
X132522592Y-113494919D01*
X132469837Y-113512037D01*
X132404479Y-113527804D01*
X132337051Y-113539712D01*
X132278085Y-113545252D01*
X132273574Y-113545352D01*
X132209058Y-113540773D01*
X132136967Y-113527926D01*
X132110067Y-113520883D01*
X132019989Y-113478746D01*
X131971527Y-113435628D01*
X131942258Y-113398507D01*
X131926469Y-113363576D01*
X131920123Y-113317851D01*
X131919134Y-113267066D01*
X131920970Y-113204089D01*
X131929142Y-113161955D01*
X131947643Y-113127722D01*
X131970949Y-113099163D01*
X132031832Y-113048490D01*
X132124770Y-112999137D01*
X132159569Y-112984274D01*
X132235937Y-112949347D01*
X132292712Y-112915748D01*
X132322801Y-112888113D01*
X132339114Y-112857605D01*
X132332815Y-112836587D01*
X132310105Y-112816146D01*
X132253633Y-112790869D01*
X132178293Y-112787497D01*
X132091205Y-112806227D01*
X132080648Y-112809847D01*
X132039096Y-112823783D01*
X132014535Y-112830363D01*
X132011881Y-112830270D01*
X132005453Y-112813884D01*
X131990983Y-112776084D01*
X131981296Y-112750599D01*
X131964856Y-112703770D01*
X131961460Y-112677569D01*
X131970961Y-112661435D01*
X131979961Y-112654236D01*
X132017661Y-112636822D01*
X132076659Y-112619929D01*
X132144467Y-112606362D01*
X132208592Y-112598928D01*
X132229000Y-112598294D01*
X132328778Y-112611202D01*
X132415531Y-112646680D01*
X132485156Y-112700409D01*
X132533551Y-112768071D01*
X132556615Y-112845346D01*
X132914744Y-112845346D01*
X132895032Y-112816064D01*
X132824502Y-112712595D01*
X132797163Y-112672802D01*
X132723482Y-112565195D01*
X132655580Y-112464893D01*
X132595999Y-112375745D01*
X132547286Y-112301597D01*
X132511984Y-112246300D01*
X132492638Y-112213700D01*
X132490201Y-112208608D01*
X132486824Y-112191447D01*
X132488866Y-112166580D01*
X132497549Y-112130338D01*
X132514097Y-112079054D01*
X132539734Y-112009063D01*
X132575684Y-111916697D01*
X132623170Y-111798289D01*
X132645553Y-111743098D01*
X132691900Y-111630196D01*
X132735057Y-111527205D01*
X132773146Y-111438435D01*
X132804291Y-111368198D01*
X132826614Y-111320805D01*
X132838214Y-111300590D01*
X132859454Y-111292823D01*
X132909845Y-111280010D01*
X132985199Y-111263046D01*
X133081327Y-111242825D01*
X133194039Y-111220242D01*
X133319145Y-111196190D01*
X133383867Y-111184109D01*
X133513541Y-111159739D01*
X133632904Y-111136538D01*
X133737763Y-111115381D01*
X133823924Y-111097143D01*
X133887196Y-111082700D01*
X133923385Y-111072927D01*
X133929967Y-111070103D01*
X133936118Y-111057026D01*
X133941048Y-111026876D01*
X133944856Y-110976918D01*
X133947642Y-110904415D01*
X133949508Y-110806630D01*
X133950554Y-110680825D01*
X133950880Y-110524266D01*
X133950874Y-110500626D01*
X133950383Y-110366430D01*
X133949111Y-110242611D01*
X133947164Y-110133360D01*
X133945151Y-110060895D01*
X133747933Y-110060895D01*
X133747933Y-110496992D01*
X133747512Y-110615263D01*
X133746326Y-110722223D01*
X133744491Y-110813251D01*
X133742124Y-110883724D01*
X133739342Y-110929018D01*
X133736645Y-110944377D01*
X133714806Y-110950473D01*
X133669976Y-110954572D01*
X133626578Y-110955666D01*
X133527800Y-110955666D01*
X133527800Y-110655320D01*
X133401368Y-110647206D01*
X133281879Y-110629320D01*
X133185537Y-110593238D01*
X133115130Y-110540270D01*
X133085298Y-110498730D01*
X133060819Y-110424806D01*
X133053822Y-110337140D01*
X133064306Y-110250996D01*
X133085298Y-110193402D01*
X133137082Y-110131882D01*
X133216759Y-110085589D01*
X133321625Y-110055234D01*
X133448978Y-110041524D01*
X133596113Y-110045167D01*
X133636383Y-110048949D01*
X133747933Y-110060895D01*
X133945151Y-110060895D01*
X133944650Y-110042865D01*
X133941675Y-109975318D01*
X133938346Y-109934906D01*
X133936200Y-109925389D01*
X133915224Y-109915575D01*
X133862686Y-109900829D01*
X133780465Y-109881567D01*
X133670441Y-109858209D01*
X133534492Y-109831172D01*
X133385598Y-109802936D01*
X133254096Y-109778170D01*
X133132479Y-109754671D01*
X133024969Y-109733301D01*
X132935788Y-109714921D01*
X132869157Y-109700394D01*
X132829298Y-109690583D01*
X132820306Y-109687502D01*
X132804584Y-109667210D01*
X132778976Y-109620602D01*
X132745643Y-109552779D01*
X132706752Y-109468844D01*
X132664464Y-109373900D01*
X132620945Y-109273049D01*
X132578357Y-109171393D01*
X132538866Y-109074034D01*
X132504635Y-108986076D01*
X132477828Y-108912619D01*
X132460609Y-108858768D01*
X132455141Y-108829623D01*
X132455554Y-108827444D01*
X132467618Y-108806379D01*
X132496550Y-108761026D01*
X132539969Y-108694960D01*
X132595494Y-108611758D01*
X132660745Y-108514997D01*
X132705267Y-108449533D01*
X132511800Y-108449533D01*
X132308600Y-108449533D01*
X132308600Y-108077000D01*
X131953000Y-108077000D01*
X131953000Y-107890733D01*
X132308600Y-107890733D01*
X132308600Y-107721399D01*
X131900430Y-107721399D01*
X131905549Y-107632499D01*
X131910667Y-107543600D01*
X132211233Y-107538975D01*
X132511800Y-107534351D01*
X132511800Y-108449533D01*
X132705267Y-108449533D01*
X132733342Y-108408253D01*
X132777195Y-108344170D01*
X132852363Y-108233948D01*
X132920969Y-108132153D01*
X132980737Y-108042258D01*
X133029389Y-107967733D01*
X133064650Y-107912051D01*
X133084244Y-107878683D01*
X133087533Y-107870863D01*
X133075839Y-107852664D01*
X133043073Y-107814580D01*
X132992708Y-107760057D01*
X132928219Y-107692542D01*
X132853078Y-107615485D01*
X132770759Y-107532331D01*
X132684736Y-107446528D01*
X132598483Y-107361524D01*
X132515474Y-107280767D01*
X132439182Y-107207703D01*
X132373080Y-107145781D01*
X132320642Y-107098447D01*
X132285343Y-107069149D01*
X132271516Y-107061000D01*
X132250914Y-107070297D01*
X132205993Y-107096692D01*
X132140229Y-107137941D01*
X132057102Y-107191798D01*
X131960090Y-107256017D01*
X131852672Y-107328355D01*
X131772987Y-107382733D01*
X131660619Y-107459355D01*
X131556512Y-107529449D01*
X131464092Y-107590775D01*
X131386788Y-107641095D01*
X131328027Y-107678170D01*
X131291236Y-107699762D01*
X131280345Y-107704466D01*
X131258927Y-107698320D01*
X131211193Y-107681192D01*
X131142118Y-107655053D01*
X131056680Y-107621871D01*
X130959855Y-107583615D01*
X130856618Y-107542253D01*
X130751948Y-107499754D01*
X130650820Y-107458087D01*
X130558211Y-107419222D01*
X130543403Y-107412920D01*
X130520408Y-107403612D01*
X130501521Y-107395174D01*
X130485735Y-107384354D01*
X130472044Y-107367894D01*
X130459443Y-107342541D01*
X130446924Y-107305040D01*
X130433483Y-107252135D01*
X130418112Y-107180572D01*
X130399805Y-107087096D01*
X130377557Y-106968451D01*
X130350362Y-106821384D01*
X130335167Y-106739266D01*
X130311260Y-106611190D01*
X130289034Y-106493870D01*
X130269300Y-106391445D01*
X130252866Y-106308052D01*
X130240543Y-106247828D01*
X130233140Y-106214909D01*
X130231625Y-106210100D01*
X130213443Y-106207098D01*
X130165355Y-106204349D01*
X130091322Y-106201940D01*
X129995306Y-106199956D01*
X129881265Y-106198484D01*
X129753163Y-106197611D01*
X129648648Y-106197399D01*
X129073495Y-106197399D01*
X129059722Y-106235499D01*
D11*
X148226376Y-96374271D02*
X147893042Y-96374271D01*
X147750185Y-96898080D02*
X148226376Y-96898080D01*
X148226376Y-95898080D01*
X147750185Y-95898080D01*
X147178757Y-96326652D02*
X147273995Y-96279033D01*
X147321614Y-96231414D01*
X147369233Y-96136176D01*
X147369233Y-96088557D01*
X147321614Y-95993319D01*
X147273995Y-95945700D01*
X147178757Y-95898080D01*
X146988280Y-95898080D01*
X146893042Y-95945700D01*
X146845423Y-95993319D01*
X146797804Y-96088557D01*
X146797804Y-96136176D01*
X146845423Y-96231414D01*
X146893042Y-96279033D01*
X146988280Y-96326652D01*
X147178757Y-96326652D01*
X147273995Y-96374271D01*
X147321614Y-96421890D01*
X147369233Y-96517128D01*
X147369233Y-96707604D01*
X147321614Y-96802842D01*
X147273995Y-96850461D01*
X147178757Y-96898080D01*
X146988280Y-96898080D01*
X146893042Y-96850461D01*
X146845423Y-96802842D01*
X146797804Y-96707604D01*
X146797804Y-96517128D01*
X146845423Y-96421890D01*
X146893042Y-96374271D01*
X146988280Y-96326652D01*
X109808876Y-110826871D02*
X109475542Y-110826871D01*
X109332685Y-111350680D02*
X109808876Y-111350680D01*
X109808876Y-110350680D01*
X109332685Y-110350680D01*
X108380304Y-111350680D02*
X108951733Y-111350680D01*
X108666019Y-111350680D02*
X108666019Y-110350680D01*
X108761257Y-110493538D01*
X108856495Y-110588776D01*
X108951733Y-110636395D01*
X109834276Y-105810371D02*
X109500942Y-105810371D01*
X109358085Y-106334180D02*
X109834276Y-106334180D01*
X109834276Y-105334180D01*
X109358085Y-105334180D01*
X108977133Y-105429419D02*
X108929514Y-105381800D01*
X108834276Y-105334180D01*
X108596180Y-105334180D01*
X108500942Y-105381800D01*
X108453323Y-105429419D01*
X108405704Y-105524657D01*
X108405704Y-105619895D01*
X108453323Y-105762752D01*
X109024752Y-106334180D01*
X108405704Y-106334180D01*
X158399076Y-88915571D02*
X158065742Y-88915571D01*
X157922885Y-89439380D02*
X158399076Y-89439380D01*
X158399076Y-88439380D01*
X157922885Y-88439380D01*
X157589552Y-88439380D02*
X156970504Y-88439380D01*
X157303838Y-88820333D01*
X157160980Y-88820333D01*
X157065742Y-88867952D01*
X157018123Y-88915571D01*
X156970504Y-89010809D01*
X156970504Y-89248904D01*
X157018123Y-89344142D01*
X157065742Y-89391761D01*
X157160980Y-89439380D01*
X157446695Y-89439380D01*
X157541933Y-89391761D01*
X157589552Y-89344142D01*
X148226376Y-86379371D02*
X147893042Y-86379371D01*
X147750185Y-86903180D02*
X148226376Y-86903180D01*
X148226376Y-85903180D01*
X147750185Y-85903180D01*
X146893042Y-86236514D02*
X146893042Y-86903180D01*
X147131138Y-85855561D02*
X147369233Y-86569847D01*
X146750185Y-86569847D01*
X148639066Y-113379571D02*
X148305733Y-113379571D01*
X148162876Y-113903380D02*
X148639066Y-113903380D01*
X148639066Y-112903380D01*
X148162876Y-112903380D01*
X147210495Y-113903380D02*
X147781923Y-113903380D01*
X147496209Y-113903380D02*
X147496209Y-112903380D01*
X147591447Y-113046238D01*
X147686685Y-113141476D01*
X147781923Y-113189095D01*
X146353352Y-113236714D02*
X146353352Y-113903380D01*
X146591447Y-112855761D02*
X146829542Y-113570047D01*
X146210495Y-113570047D01*
X148264476Y-91383171D02*
X147931142Y-91383171D01*
X147788285Y-91906980D02*
X148264476Y-91906980D01*
X148264476Y-90906980D01*
X147788285Y-90906980D01*
X146931142Y-90906980D02*
X147121619Y-90906980D01*
X147216857Y-90954600D01*
X147264476Y-91002219D01*
X147359714Y-91145076D01*
X147407333Y-91335552D01*
X147407333Y-91716504D01*
X147359714Y-91811742D01*
X147312095Y-91859361D01*
X147216857Y-91906980D01*
X147026380Y-91906980D01*
X146931142Y-91859361D01*
X146883523Y-91811742D01*
X146835904Y-91716504D01*
X146835904Y-91478409D01*
X146883523Y-91383171D01*
X146931142Y-91335552D01*
X147026380Y-91287933D01*
X147216857Y-91287933D01*
X147312095Y-91335552D01*
X147359714Y-91383171D01*
X147407333Y-91478409D01*
X158862566Y-115877671D02*
X158529233Y-115877671D01*
X158386376Y-116401480D02*
X158862566Y-116401480D01*
X158862566Y-115401480D01*
X158386376Y-115401480D01*
X157433995Y-116401480D02*
X158005423Y-116401480D01*
X157719709Y-116401480D02*
X157719709Y-115401480D01*
X157814947Y-115544338D01*
X157910185Y-115639576D01*
X158005423Y-115687195D01*
X157100661Y-115401480D02*
X156481614Y-115401480D01*
X156814947Y-115782433D01*
X156672090Y-115782433D01*
X156576852Y-115830052D01*
X156529233Y-115877671D01*
X156481614Y-115972909D01*
X156481614Y-116211004D01*
X156529233Y-116306242D01*
X156576852Y-116353861D01*
X156672090Y-116401480D01*
X156957804Y-116401480D01*
X157053042Y-116353861D01*
X157100661Y-116306242D01*
X148639066Y-108375771D02*
X148305733Y-108375771D01*
X148162876Y-108899580D02*
X148639066Y-108899580D01*
X148639066Y-107899580D01*
X148162876Y-107899580D01*
X147210495Y-108899580D02*
X147781923Y-108899580D01*
X147496209Y-108899580D02*
X147496209Y-107899580D01*
X147591447Y-108042438D01*
X147686685Y-108137676D01*
X147781923Y-108185295D01*
X146829542Y-107994819D02*
X146781923Y-107947200D01*
X146686685Y-107899580D01*
X146448590Y-107899580D01*
X146353352Y-107947200D01*
X146305733Y-107994819D01*
X146258114Y-108090057D01*
X146258114Y-108185295D01*
X146305733Y-108328152D01*
X146877161Y-108899580D01*
X146258114Y-108899580D01*
X158837166Y-110848471D02*
X158503833Y-110848471D01*
X158360976Y-111372280D02*
X158837166Y-111372280D01*
X158837166Y-110372280D01*
X158360976Y-110372280D01*
X157408595Y-111372280D02*
X157980023Y-111372280D01*
X157694309Y-111372280D02*
X157694309Y-110372280D01*
X157789547Y-110515138D01*
X157884785Y-110610376D01*
X157980023Y-110657995D01*
X156456214Y-111372280D02*
X157027642Y-111372280D01*
X156741928Y-111372280D02*
X156741928Y-110372280D01*
X156837166Y-110515138D01*
X156932404Y-110610376D01*
X157027642Y-110657995D01*
X148588266Y-103410071D02*
X148254933Y-103410071D01*
X148112076Y-103933880D02*
X148588266Y-103933880D01*
X148588266Y-102933880D01*
X148112076Y-102933880D01*
X147159695Y-103933880D02*
X147731123Y-103933880D01*
X147445409Y-103933880D02*
X147445409Y-102933880D01*
X147540647Y-103076738D01*
X147635885Y-103171976D01*
X147731123Y-103219595D01*
X146540647Y-102933880D02*
X146445409Y-102933880D01*
X146350171Y-102981500D01*
X146302552Y-103029119D01*
X146254933Y-103124357D01*
X146207314Y-103314833D01*
X146207314Y-103552928D01*
X146254933Y-103743404D01*
X146302552Y-103838642D01*
X146350171Y-103886261D01*
X146445409Y-103933880D01*
X146540647Y-103933880D01*
X146635885Y-103886261D01*
X146683504Y-103838642D01*
X146731123Y-103743404D01*
X146778742Y-103552928D01*
X146778742Y-103314833D01*
X146731123Y-103124357D01*
X146683504Y-103029119D01*
X146635885Y-102981500D01*
X146540647Y-102933880D01*
X158376976Y-105862071D02*
X158043642Y-105862071D01*
X157900785Y-106385880D02*
X158376976Y-106385880D01*
X158376976Y-105385880D01*
X157900785Y-105385880D01*
X157424595Y-106385880D02*
X157234119Y-106385880D01*
X157138880Y-106338261D01*
X157091261Y-106290642D01*
X156996023Y-106147785D01*
X156948404Y-105957309D01*
X156948404Y-105576357D01*
X156996023Y-105481119D01*
X157043642Y-105433500D01*
X157138880Y-105385880D01*
X157329357Y-105385880D01*
X157424595Y-105433500D01*
X157472214Y-105481119D01*
X157519833Y-105576357D01*
X157519833Y-105814452D01*
X157472214Y-105909690D01*
X157424595Y-105957309D01*
X157329357Y-106004928D01*
X157138880Y-106004928D01*
X157043642Y-105957309D01*
X156996023Y-105909690D01*
X156948404Y-105814452D01*
X158262676Y-93952771D02*
X157929342Y-93952771D01*
X157786485Y-94476580D02*
X158262676Y-94476580D01*
X158262676Y-93476580D01*
X157786485Y-93476580D01*
X156881723Y-93476580D02*
X157357914Y-93476580D01*
X157405533Y-93952771D01*
X157357914Y-93905152D01*
X157262676Y-93857533D01*
X157024580Y-93857533D01*
X156929342Y-93905152D01*
X156881723Y-93952771D01*
X156834104Y-94048009D01*
X156834104Y-94286104D01*
X156881723Y-94381342D01*
X156929342Y-94428961D01*
X157024580Y-94476580D01*
X157262676Y-94476580D01*
X157357914Y-94428961D01*
X157405533Y-94381342D01*
X158272076Y-98897771D02*
X157938742Y-98897771D01*
X157795885Y-99421580D02*
X158272076Y-99421580D01*
X158272076Y-98421580D01*
X157795885Y-98421580D01*
X157462552Y-98421580D02*
X156795885Y-98421580D01*
X157224457Y-99421580D01*
M02*
