G04 #@! TF.GenerationSoftware,KiCad,Pcbnew,(5.1.0)-1*
G04 #@! TF.CreationDate,2019-03-28T22:22:43+01:00*
G04 #@! TF.ProjectId,debounce_shield,6465626f-756e-4636-955f-736869656c64,rev?*
G04 #@! TF.SameCoordinates,Original*
G04 #@! TF.FileFunction,Soldermask,Bot*
G04 #@! TF.FilePolarity,Negative*
%FSLAX46Y46*%
G04 Gerber Fmt 4.6, Leading zero omitted, Abs format (unit mm)*
G04 Created by KiCad (PCBNEW (5.1.0)-1) date 2019-03-28 22:22:43*
%MOMM*%
%LPD*%
G04 APERTURE LIST*
%ADD10C,0.100000*%
%ADD11C,0.150000*%
G04 APERTURE END LIST*
D10*
G36*
X146035900Y-100195700D02*
G01*
X149035900Y-100195700D01*
X149035900Y-97695700D01*
X146035900Y-97695700D01*
X146035900Y-100195700D01*
G37*
X146035900Y-100195700D02*
X149035900Y-100195700D01*
X149035900Y-97695700D01*
X146035900Y-97695700D01*
X146035900Y-100195700D01*
G36*
X107618400Y-114648300D02*
G01*
X110618400Y-114648300D01*
X110618400Y-112148300D01*
X107618400Y-112148300D01*
X107618400Y-114648300D01*
G37*
X107618400Y-114648300D02*
X110618400Y-114648300D01*
X110618400Y-112148300D01*
X107618400Y-112148300D01*
X107618400Y-114648300D01*
G36*
X107643800Y-109631800D02*
G01*
X110643800Y-109631800D01*
X110643800Y-107131800D01*
X107643800Y-107131800D01*
X107643800Y-109631800D01*
G37*
X107643800Y-109631800D02*
X110643800Y-109631800D01*
X110643800Y-107131800D01*
X107643800Y-107131800D01*
X107643800Y-109631800D01*
G36*
X159208600Y-85237000D02*
G01*
X156208600Y-85237000D01*
X156208600Y-87737000D01*
X159208600Y-87737000D01*
X159208600Y-85237000D01*
G37*
X159208600Y-85237000D02*
X156208600Y-85237000D01*
X156208600Y-87737000D01*
X159208600Y-87737000D01*
X159208600Y-85237000D01*
G36*
X146035900Y-90200800D02*
G01*
X149035900Y-90200800D01*
X149035900Y-87700800D01*
X146035900Y-87700800D01*
X146035900Y-90200800D01*
G37*
X146035900Y-90200800D02*
X149035900Y-90200800D01*
X149035900Y-87700800D01*
X146035900Y-87700800D01*
X146035900Y-90200800D01*
G36*
X145972400Y-117201000D02*
G01*
X148972400Y-117201000D01*
X148972400Y-114701000D01*
X145972400Y-114701000D01*
X145972400Y-117201000D01*
G37*
X145972400Y-117201000D02*
X148972400Y-117201000D01*
X148972400Y-114701000D01*
X145972400Y-114701000D01*
X145972400Y-117201000D01*
G36*
X146074000Y-95204600D02*
G01*
X149074000Y-95204600D01*
X149074000Y-92704600D01*
X146074000Y-92704600D01*
X146074000Y-95204600D01*
G37*
X146074000Y-95204600D02*
X149074000Y-95204600D01*
X149074000Y-92704600D01*
X146074000Y-92704600D01*
X146074000Y-95204600D01*
G36*
X159195900Y-112199100D02*
G01*
X156195900Y-112199100D01*
X156195900Y-114699100D01*
X159195900Y-114699100D01*
X159195900Y-112199100D01*
G37*
X159195900Y-112199100D02*
X156195900Y-112199100D01*
X156195900Y-114699100D01*
X159195900Y-114699100D01*
X159195900Y-112199100D01*
G36*
X145972400Y-112197200D02*
G01*
X148972400Y-112197200D01*
X148972400Y-109697200D01*
X145972400Y-109697200D01*
X145972400Y-112197200D01*
G37*
X145972400Y-112197200D02*
X148972400Y-112197200D01*
X148972400Y-109697200D01*
X145972400Y-109697200D01*
X145972400Y-112197200D01*
G36*
X159170500Y-107169900D02*
G01*
X156170500Y-107169900D01*
X156170500Y-109669900D01*
X159170500Y-109669900D01*
X159170500Y-107169900D01*
G37*
X159170500Y-107169900D02*
X156170500Y-107169900D01*
X156170500Y-109669900D01*
X159170500Y-109669900D01*
X159170500Y-107169900D01*
G36*
X145921600Y-107231500D02*
G01*
X148921600Y-107231500D01*
X148921600Y-104731500D01*
X145921600Y-104731500D01*
X145921600Y-107231500D01*
G37*
X145921600Y-107231500D02*
X148921600Y-107231500D01*
X148921600Y-104731500D01*
X145921600Y-104731500D01*
X145921600Y-107231500D01*
G36*
X159186500Y-102183500D02*
G01*
X156186500Y-102183500D01*
X156186500Y-104683500D01*
X159186500Y-104683500D01*
X159186500Y-102183500D01*
G37*
X159186500Y-102183500D02*
X156186500Y-102183500D01*
X156186500Y-104683500D01*
X159186500Y-104683500D01*
X159186500Y-102183500D01*
G36*
X159072200Y-90274200D02*
G01*
X156072200Y-90274200D01*
X156072200Y-92774200D01*
X159072200Y-92774200D01*
X159072200Y-90274200D01*
G37*
X159072200Y-90274200D02*
X156072200Y-90274200D01*
X156072200Y-92774200D01*
X159072200Y-92774200D01*
X159072200Y-90274200D01*
G36*
X159081600Y-95219200D02*
G01*
X156081600Y-95219200D01*
X156081600Y-97719200D01*
X159081600Y-97719200D01*
X159081600Y-95219200D01*
G37*
X159081600Y-95219200D02*
X156081600Y-95219200D01*
X156081600Y-97719200D01*
X159081600Y-97719200D01*
X159081600Y-95219200D01*
D11*
G36*
X159271786Y-121343173D02*
G01*
X159745512Y-121437403D01*
X160195908Y-121623963D01*
X160275250Y-121656827D01*
X160382472Y-121701240D01*
X160955720Y-122084272D01*
X161443228Y-122571780D01*
X161826260Y-123145028D01*
X162090097Y-123781988D01*
X162224600Y-124458180D01*
X162224600Y-125147620D01*
X162090097Y-125823812D01*
X161826260Y-126460772D01*
X161443228Y-127034020D01*
X160955720Y-127521528D01*
X160382472Y-127904560D01*
X159745512Y-128168397D01*
X159407416Y-128235648D01*
X159069321Y-128302900D01*
X158379879Y-128302900D01*
X158041784Y-128235648D01*
X157703688Y-128168397D01*
X157066728Y-127904560D01*
X156493480Y-127521528D01*
X156005972Y-127034020D01*
X155622940Y-126460772D01*
X155359103Y-125823812D01*
X155224600Y-125147620D01*
X155224600Y-124458180D01*
X155359103Y-123781988D01*
X155622940Y-123145028D01*
X156005972Y-122571780D01*
X156493480Y-122084272D01*
X157066728Y-121701240D01*
X157173951Y-121656827D01*
X157253292Y-121623963D01*
X157703688Y-121437403D01*
X158177414Y-121343173D01*
X158379879Y-121302900D01*
X159069321Y-121302900D01*
X159271786Y-121343173D01*
X159271786Y-121343173D01*
G37*
G36*
X101819109Y-121302900D02*
G01*
X102239912Y-121386603D01*
X102876872Y-121650440D01*
X103450120Y-122033472D01*
X103937628Y-122520980D01*
X104320660Y-123094228D01*
X104584497Y-123731188D01*
X104719000Y-124407380D01*
X104719000Y-125096820D01*
X104584497Y-125773012D01*
X104320660Y-126409972D01*
X103937628Y-126983220D01*
X103450120Y-127470728D01*
X102876872Y-127853760D01*
X102239912Y-128117597D01*
X101984523Y-128168397D01*
X101563721Y-128252100D01*
X100874279Y-128252100D01*
X100453477Y-128168397D01*
X100198088Y-128117597D01*
X99561128Y-127853760D01*
X98987880Y-127470728D01*
X98500372Y-126983220D01*
X98117340Y-126409972D01*
X97853503Y-125773012D01*
X97719000Y-125096820D01*
X97719000Y-124407380D01*
X97853503Y-123731188D01*
X98117340Y-123094228D01*
X98500372Y-122520980D01*
X98987880Y-122033472D01*
X99561128Y-121650440D01*
X100198088Y-121386603D01*
X100618891Y-121302900D01*
X100874279Y-121252100D01*
X101563721Y-121252100D01*
X101819109Y-121302900D01*
X101819109Y-121302900D01*
G37*
G36*
X135458471Y-120703859D02*
G01*
X135536827Y-120711576D01*
X135687628Y-120757321D01*
X135687630Y-120757322D01*
X135826605Y-120831606D01*
X135826607Y-120831607D01*
X135826606Y-120831607D01*
X135948422Y-120931578D01*
X136048393Y-121053394D01*
X136122679Y-121192372D01*
X136168424Y-121343173D01*
X136183870Y-121500000D01*
X136168424Y-121656827D01*
X136154951Y-121701240D01*
X136122678Y-121807630D01*
X136048394Y-121946605D01*
X135948422Y-122068422D01*
X135826605Y-122168394D01*
X135687630Y-122242678D01*
X135687628Y-122242679D01*
X135536827Y-122288424D01*
X135458471Y-122296141D01*
X135419294Y-122300000D01*
X135340706Y-122300000D01*
X135301529Y-122296141D01*
X135223173Y-122288424D01*
X135072372Y-122242679D01*
X135072370Y-122242678D01*
X134933395Y-122168394D01*
X134811578Y-122068422D01*
X134711606Y-121946605D01*
X134637322Y-121807630D01*
X134605049Y-121701240D01*
X134591576Y-121656827D01*
X134576130Y-121500000D01*
X134591576Y-121343173D01*
X134637321Y-121192372D01*
X134711607Y-121053394D01*
X134811578Y-120931578D01*
X134933394Y-120831607D01*
X134933393Y-120831607D01*
X134933395Y-120831606D01*
X135072370Y-120757322D01*
X135072372Y-120757321D01*
X135223173Y-120711576D01*
X135301529Y-120703859D01*
X135340706Y-120700000D01*
X135419294Y-120700000D01*
X135458471Y-120703859D01*
X135458471Y-120703859D01*
G37*
G36*
X143800000Y-122300000D02*
G01*
X142200000Y-122300000D01*
X142200000Y-120700000D01*
X143800000Y-120700000D01*
X143800000Y-122300000D01*
X143800000Y-122300000D01*
G37*
G36*
X135458471Y-118163859D02*
G01*
X135536827Y-118171576D01*
X135687628Y-118217321D01*
X135687630Y-118217322D01*
X135826605Y-118291606D01*
X135826607Y-118291607D01*
X135826606Y-118291607D01*
X135948422Y-118391578D01*
X136048393Y-118513394D01*
X136122679Y-118652372D01*
X136168424Y-118803173D01*
X136183870Y-118960000D01*
X136168424Y-119116827D01*
X136122679Y-119267628D01*
X136122678Y-119267630D01*
X136048394Y-119406605D01*
X135948422Y-119528422D01*
X135826605Y-119628394D01*
X135687630Y-119702678D01*
X135687628Y-119702679D01*
X135536827Y-119748424D01*
X135458471Y-119756141D01*
X135419294Y-119760000D01*
X135340706Y-119760000D01*
X135301529Y-119756141D01*
X135223173Y-119748424D01*
X135072372Y-119702679D01*
X135072370Y-119702678D01*
X134933395Y-119628394D01*
X134811578Y-119528422D01*
X134711606Y-119406605D01*
X134637322Y-119267630D01*
X134637321Y-119267628D01*
X134591576Y-119116827D01*
X134576130Y-118960000D01*
X134591576Y-118803173D01*
X134637321Y-118652372D01*
X134711607Y-118513394D01*
X134811578Y-118391578D01*
X134933394Y-118291607D01*
X134933393Y-118291607D01*
X134933395Y-118291606D01*
X135072370Y-118217322D01*
X135072372Y-118217321D01*
X135223173Y-118171576D01*
X135301529Y-118163859D01*
X135340706Y-118160000D01*
X135419294Y-118160000D01*
X135458471Y-118163859D01*
X135458471Y-118163859D01*
G37*
G36*
X143078471Y-118163859D02*
G01*
X143156827Y-118171576D01*
X143307628Y-118217321D01*
X143307630Y-118217322D01*
X143446605Y-118291606D01*
X143446607Y-118291607D01*
X143446606Y-118291607D01*
X143568422Y-118391578D01*
X143668393Y-118513394D01*
X143742679Y-118652372D01*
X143788424Y-118803173D01*
X143803870Y-118960000D01*
X143788424Y-119116827D01*
X143742679Y-119267628D01*
X143742678Y-119267630D01*
X143668394Y-119406605D01*
X143568422Y-119528422D01*
X143446605Y-119628394D01*
X143307630Y-119702678D01*
X143307628Y-119702679D01*
X143156827Y-119748424D01*
X143078471Y-119756141D01*
X143039294Y-119760000D01*
X142960706Y-119760000D01*
X142921529Y-119756141D01*
X142843173Y-119748424D01*
X142692372Y-119702679D01*
X142692370Y-119702678D01*
X142553395Y-119628394D01*
X142431578Y-119528422D01*
X142331606Y-119406605D01*
X142257322Y-119267630D01*
X142257321Y-119267628D01*
X142211576Y-119116827D01*
X142196130Y-118960000D01*
X142211576Y-118803173D01*
X142257321Y-118652372D01*
X142331607Y-118513394D01*
X142431578Y-118391578D01*
X142553394Y-118291607D01*
X142553393Y-118291607D01*
X142553395Y-118291606D01*
X142692370Y-118217322D01*
X142692372Y-118217321D01*
X142843173Y-118171576D01*
X142921529Y-118163859D01*
X142960706Y-118160000D01*
X143039294Y-118160000D01*
X143078471Y-118163859D01*
X143078471Y-118163859D01*
G37*
G36*
X112462327Y-117551699D02*
G01*
X112542442Y-117576002D01*
X112622555Y-117600303D01*
X112622557Y-117600304D01*
X112770218Y-117679231D01*
X112899649Y-117785451D01*
X113005869Y-117914882D01*
X113084796Y-118062543D01*
X113133401Y-118222773D01*
X113149812Y-118389400D01*
X113133401Y-118556027D01*
X113084796Y-118716257D01*
X113005869Y-118863918D01*
X112899649Y-118993349D01*
X112770218Y-119099569D01*
X112622557Y-119178496D01*
X112622555Y-119178497D01*
X112542442Y-119202798D01*
X112462327Y-119227101D01*
X112337452Y-119239400D01*
X110953948Y-119239400D01*
X110829073Y-119227101D01*
X110748958Y-119202798D01*
X110668845Y-119178497D01*
X110668843Y-119178496D01*
X110521182Y-119099569D01*
X110391751Y-118993349D01*
X110285531Y-118863918D01*
X110206604Y-118716257D01*
X110157999Y-118556027D01*
X110141588Y-118389400D01*
X110157999Y-118222773D01*
X110206604Y-118062543D01*
X110285531Y-117914882D01*
X110391751Y-117785451D01*
X110521182Y-117679231D01*
X110668843Y-117600304D01*
X110668845Y-117600303D01*
X110748958Y-117576002D01*
X110829073Y-117551699D01*
X110953948Y-117539400D01*
X112337452Y-117539400D01*
X112462327Y-117551699D01*
X112462327Y-117551699D01*
G37*
G36*
X143078471Y-115623859D02*
G01*
X143156827Y-115631576D01*
X143307628Y-115677321D01*
X143307630Y-115677322D01*
X143446605Y-115751606D01*
X143568422Y-115851578D01*
X143668394Y-115973395D01*
X143693543Y-116020446D01*
X143742679Y-116112372D01*
X143788424Y-116263173D01*
X143803870Y-116420000D01*
X143788424Y-116576827D01*
X143742679Y-116727628D01*
X143742678Y-116727630D01*
X143668394Y-116866605D01*
X143568422Y-116988422D01*
X143446605Y-117088394D01*
X143307630Y-117162678D01*
X143307628Y-117162679D01*
X143156827Y-117208424D01*
X143078471Y-117216141D01*
X143039294Y-117220000D01*
X142960706Y-117220000D01*
X142921529Y-117216141D01*
X142843173Y-117208424D01*
X142692372Y-117162679D01*
X142692370Y-117162678D01*
X142553395Y-117088394D01*
X142431578Y-116988422D01*
X142331606Y-116866605D01*
X142257322Y-116727630D01*
X142257321Y-116727628D01*
X142211576Y-116576827D01*
X142196130Y-116420000D01*
X142211576Y-116263173D01*
X142257321Y-116112372D01*
X142306457Y-116020446D01*
X142331606Y-115973395D01*
X142431578Y-115851578D01*
X142553395Y-115751606D01*
X142692370Y-115677322D01*
X142692372Y-115677321D01*
X142843173Y-115631576D01*
X142921529Y-115623859D01*
X142960706Y-115620000D01*
X143039294Y-115620000D01*
X143078471Y-115623859D01*
X143078471Y-115623859D01*
G37*
G36*
X135458471Y-115623859D02*
G01*
X135536827Y-115631576D01*
X135687628Y-115677321D01*
X135687630Y-115677322D01*
X135826605Y-115751606D01*
X135948422Y-115851578D01*
X136048394Y-115973395D01*
X136073543Y-116020446D01*
X136122679Y-116112372D01*
X136168424Y-116263173D01*
X136183870Y-116420000D01*
X136168424Y-116576827D01*
X136122679Y-116727628D01*
X136122678Y-116727630D01*
X136048394Y-116866605D01*
X135948422Y-116988422D01*
X135826605Y-117088394D01*
X135687630Y-117162678D01*
X135687628Y-117162679D01*
X135536827Y-117208424D01*
X135458471Y-117216141D01*
X135419294Y-117220000D01*
X135340706Y-117220000D01*
X135301529Y-117216141D01*
X135223173Y-117208424D01*
X135072372Y-117162679D01*
X135072370Y-117162678D01*
X134933395Y-117088394D01*
X134811578Y-116988422D01*
X134711606Y-116866605D01*
X134637322Y-116727630D01*
X134637321Y-116727628D01*
X134591576Y-116576827D01*
X134576130Y-116420000D01*
X134591576Y-116263173D01*
X134637321Y-116112372D01*
X134686457Y-116020446D01*
X134711606Y-115973395D01*
X134811578Y-115851578D01*
X134933395Y-115751606D01*
X135072370Y-115677322D01*
X135072372Y-115677321D01*
X135223173Y-115631576D01*
X135301529Y-115623859D01*
X135340706Y-115620000D01*
X135419294Y-115620000D01*
X135458471Y-115623859D01*
X135458471Y-115623859D01*
G37*
G36*
X146479448Y-114943952D02*
G01*
X146481915Y-114952084D01*
X146493466Y-114973695D01*
X146509006Y-114992631D01*
X146967375Y-115451000D01*
X146555757Y-115862618D01*
X146540217Y-115881554D01*
X146528666Y-115903165D01*
X146521553Y-115926614D01*
X146519151Y-115951000D01*
X146521553Y-115975386D01*
X146528666Y-115998835D01*
X146540217Y-116020446D01*
X146555757Y-116039382D01*
X146967375Y-116451000D01*
X146509006Y-116909369D01*
X146493466Y-116928305D01*
X146481915Y-116949916D01*
X146479448Y-116958048D01*
X146472400Y-116960186D01*
X146450035Y-116953402D01*
X146425649Y-116951000D01*
X145472400Y-116951000D01*
X145472400Y-114951000D01*
X146425649Y-114951000D01*
X146450035Y-114948598D01*
X146472400Y-114941814D01*
X146479448Y-114943952D01*
X146479448Y-114943952D01*
G37*
G36*
X148494765Y-114948598D02*
G01*
X148519151Y-114951000D01*
X149472400Y-114951000D01*
X149472400Y-115025001D01*
X149474802Y-115049387D01*
X149481915Y-115072836D01*
X149493466Y-115094447D01*
X149509011Y-115113389D01*
X149527953Y-115128934D01*
X149549564Y-115140485D01*
X149573013Y-115147598D01*
X149597399Y-115150000D01*
X150691752Y-115150000D01*
X150816627Y-115162299D01*
X150872448Y-115179232D01*
X150976855Y-115210903D01*
X150976857Y-115210904D01*
X151124518Y-115289831D01*
X151253949Y-115396051D01*
X151360169Y-115525482D01*
X151410690Y-115620000D01*
X151439097Y-115673145D01*
X151454151Y-115722773D01*
X151487701Y-115833373D01*
X151504112Y-116000000D01*
X151487701Y-116166627D01*
X151439096Y-116326857D01*
X151360169Y-116474518D01*
X151253949Y-116603949D01*
X151124518Y-116710169D01*
X150976857Y-116789096D01*
X150976855Y-116789097D01*
X150896742Y-116813399D01*
X150816627Y-116837701D01*
X150691752Y-116850000D01*
X149597399Y-116850000D01*
X149573013Y-116852402D01*
X149549564Y-116859515D01*
X149527953Y-116871066D01*
X149509011Y-116886611D01*
X149493466Y-116905553D01*
X149481915Y-116927164D01*
X149474802Y-116950613D01*
X149474764Y-116951000D01*
X148519151Y-116951000D01*
X148494765Y-116953402D01*
X148472400Y-116960186D01*
X148465352Y-116958048D01*
X148462885Y-116949916D01*
X148451334Y-116928305D01*
X148435794Y-116909369D01*
X147977425Y-116451000D01*
X148389043Y-116039382D01*
X148404583Y-116020446D01*
X148416134Y-115998835D01*
X148423247Y-115975386D01*
X148425649Y-115951000D01*
X148423247Y-115926614D01*
X148416134Y-115903165D01*
X148404583Y-115881554D01*
X148389043Y-115862618D01*
X147977425Y-115451000D01*
X148435794Y-114992631D01*
X148451334Y-114973695D01*
X148462885Y-114952084D01*
X148465352Y-114943952D01*
X148472400Y-114941814D01*
X148494765Y-114948598D01*
X148494765Y-114948598D01*
G37*
G36*
X117462327Y-115051699D02*
G01*
X117532007Y-115072836D01*
X117622555Y-115100303D01*
X117622557Y-115100304D01*
X117770218Y-115179231D01*
X117899649Y-115285451D01*
X118005869Y-115414882D01*
X118084796Y-115562543D01*
X118133401Y-115722773D01*
X118149812Y-115889400D01*
X118133401Y-116056027D01*
X118133400Y-116056029D01*
X118099851Y-116166629D01*
X118084796Y-116216257D01*
X118005869Y-116363918D01*
X117899649Y-116493349D01*
X117770218Y-116599569D01*
X117622557Y-116678496D01*
X117622555Y-116678497D01*
X117542442Y-116702798D01*
X117462327Y-116727101D01*
X117337452Y-116739400D01*
X115953948Y-116739400D01*
X115829073Y-116727101D01*
X115748958Y-116702798D01*
X115668845Y-116678497D01*
X115668843Y-116678496D01*
X115521182Y-116599569D01*
X115391751Y-116493349D01*
X115285531Y-116363918D01*
X115206604Y-116216257D01*
X115191550Y-116166629D01*
X115158000Y-116056029D01*
X115157999Y-116056027D01*
X115141588Y-115889400D01*
X115157999Y-115722773D01*
X115206604Y-115562543D01*
X115285531Y-115414882D01*
X115391751Y-115285451D01*
X115521182Y-115179231D01*
X115668843Y-115100304D01*
X115668845Y-115100303D01*
X115759393Y-115072836D01*
X115829073Y-115051699D01*
X115953948Y-115039400D01*
X117337452Y-115039400D01*
X117462327Y-115051699D01*
X117462327Y-115051699D01*
G37*
G36*
X143078471Y-113083859D02*
G01*
X143156827Y-113091576D01*
X143307628Y-113137321D01*
X143307630Y-113137322D01*
X143446605Y-113211606D01*
X143568422Y-113311578D01*
X143668394Y-113433395D01*
X143742678Y-113572370D01*
X143742679Y-113572372D01*
X143788424Y-113723173D01*
X143803870Y-113880000D01*
X143788424Y-114036827D01*
X143742679Y-114187628D01*
X143742678Y-114187630D01*
X143668394Y-114326605D01*
X143568422Y-114448422D01*
X143446605Y-114548394D01*
X143307630Y-114622678D01*
X143307628Y-114622679D01*
X143156827Y-114668424D01*
X143078471Y-114676141D01*
X143039294Y-114680000D01*
X142960706Y-114680000D01*
X142921529Y-114676141D01*
X142843173Y-114668424D01*
X142692372Y-114622679D01*
X142692370Y-114622678D01*
X142553395Y-114548394D01*
X142431578Y-114448422D01*
X142331606Y-114326605D01*
X142257322Y-114187630D01*
X142257321Y-114187628D01*
X142211576Y-114036827D01*
X142196130Y-113880000D01*
X142211576Y-113723173D01*
X142257321Y-113572372D01*
X142257322Y-113572370D01*
X142331606Y-113433395D01*
X142431578Y-113311578D01*
X142553395Y-113211606D01*
X142692370Y-113137322D01*
X142692372Y-113137321D01*
X142843173Y-113091576D01*
X142921529Y-113083859D01*
X142960706Y-113080000D01*
X143039294Y-113080000D01*
X143078471Y-113083859D01*
X143078471Y-113083859D01*
G37*
G36*
X135458471Y-113083859D02*
G01*
X135536827Y-113091576D01*
X135687628Y-113137321D01*
X135687630Y-113137322D01*
X135826605Y-113211606D01*
X135948422Y-113311578D01*
X136048394Y-113433395D01*
X136122678Y-113572370D01*
X136122679Y-113572372D01*
X136168424Y-113723173D01*
X136183870Y-113880000D01*
X136168424Y-114036827D01*
X136122679Y-114187628D01*
X136122678Y-114187630D01*
X136048394Y-114326605D01*
X135948422Y-114448422D01*
X135826605Y-114548394D01*
X135687630Y-114622678D01*
X135687628Y-114622679D01*
X135536827Y-114668424D01*
X135458471Y-114676141D01*
X135419294Y-114680000D01*
X135340706Y-114680000D01*
X135301529Y-114676141D01*
X135223173Y-114668424D01*
X135072372Y-114622679D01*
X135072370Y-114622678D01*
X134933395Y-114548394D01*
X134811578Y-114448422D01*
X134711606Y-114326605D01*
X134637322Y-114187630D01*
X134637321Y-114187628D01*
X134591576Y-114036827D01*
X134576130Y-113880000D01*
X134591576Y-113723173D01*
X134637321Y-113572372D01*
X134637322Y-113572370D01*
X134711606Y-113433395D01*
X134811578Y-113311578D01*
X134933395Y-113211606D01*
X135072370Y-113137322D01*
X135072372Y-113137321D01*
X135223173Y-113091576D01*
X135301529Y-113083859D01*
X135340706Y-113080000D01*
X135419294Y-113080000D01*
X135458471Y-113083859D01*
X135458471Y-113083859D01*
G37*
G36*
X158718265Y-112446698D02*
G01*
X158742651Y-112449100D01*
X159695900Y-112449100D01*
X159695900Y-114449100D01*
X158742651Y-114449100D01*
X158718265Y-114451502D01*
X158695900Y-114458286D01*
X158688852Y-114456148D01*
X158686385Y-114448016D01*
X158674834Y-114426405D01*
X158659294Y-114407469D01*
X158200925Y-113949100D01*
X158612543Y-113537482D01*
X158628083Y-113518546D01*
X158639634Y-113496935D01*
X158646747Y-113473486D01*
X158649149Y-113449100D01*
X158646747Y-113424714D01*
X158639634Y-113401265D01*
X158628083Y-113379654D01*
X158612543Y-113360718D01*
X158200925Y-112949100D01*
X158659294Y-112490731D01*
X158674834Y-112471795D01*
X158686385Y-112450184D01*
X158688852Y-112442052D01*
X158695900Y-112439914D01*
X158718265Y-112446698D01*
X158718265Y-112446698D01*
G37*
G36*
X156702948Y-112442052D02*
G01*
X156705415Y-112450184D01*
X156716966Y-112471795D01*
X156732506Y-112490731D01*
X157190875Y-112949100D01*
X156779257Y-113360718D01*
X156763717Y-113379654D01*
X156752166Y-113401265D01*
X156745053Y-113424714D01*
X156742651Y-113449100D01*
X156745053Y-113473486D01*
X156752166Y-113496935D01*
X156763717Y-113518546D01*
X156779257Y-113537482D01*
X157190875Y-113949100D01*
X156732506Y-114407469D01*
X156716966Y-114426405D01*
X156705415Y-114448016D01*
X156702948Y-114456148D01*
X156695900Y-114458286D01*
X156673535Y-114451502D01*
X156649149Y-114449100D01*
X155693039Y-114449100D01*
X155686385Y-114427164D01*
X155674834Y-114405553D01*
X155659289Y-114386611D01*
X155640347Y-114371066D01*
X155618736Y-114359515D01*
X155595287Y-114352402D01*
X155570901Y-114350000D01*
X154308248Y-114350000D01*
X154183373Y-114337701D01*
X154103258Y-114313398D01*
X154023145Y-114289097D01*
X153998663Y-114276011D01*
X153875482Y-114210169D01*
X153746051Y-114103949D01*
X153639831Y-113974518D01*
X153560904Y-113826857D01*
X153512299Y-113666627D01*
X153495888Y-113500000D01*
X153512299Y-113333373D01*
X153545849Y-113222773D01*
X153560903Y-113173145D01*
X153580051Y-113137322D01*
X153639831Y-113025482D01*
X153746051Y-112896051D01*
X153875482Y-112789831D01*
X154023143Y-112710904D01*
X154023145Y-112710903D01*
X154127552Y-112679232D01*
X154183373Y-112662299D01*
X154308248Y-112650000D01*
X155570901Y-112650000D01*
X155595287Y-112647598D01*
X155618736Y-112640485D01*
X155640347Y-112628934D01*
X155659289Y-112613389D01*
X155674834Y-112594447D01*
X155686385Y-112572836D01*
X155693498Y-112549387D01*
X155695900Y-112525001D01*
X155695900Y-112449100D01*
X156649149Y-112449100D01*
X156673535Y-112446698D01*
X156695900Y-112439914D01*
X156702948Y-112442052D01*
X156702948Y-112442052D01*
G37*
G36*
X108125448Y-112391252D02*
G01*
X108127915Y-112399384D01*
X108139466Y-112420995D01*
X108155006Y-112439931D01*
X108613375Y-112898300D01*
X108201757Y-113309918D01*
X108186217Y-113328854D01*
X108174666Y-113350465D01*
X108167553Y-113373914D01*
X108165151Y-113398300D01*
X108167553Y-113422686D01*
X108174666Y-113446135D01*
X108186217Y-113467746D01*
X108201757Y-113486682D01*
X108613375Y-113898300D01*
X108155006Y-114356669D01*
X108139466Y-114375605D01*
X108127915Y-114397216D01*
X108125448Y-114405348D01*
X108118400Y-114407486D01*
X108096035Y-114400702D01*
X108071649Y-114398300D01*
X107118400Y-114398300D01*
X107118400Y-112398300D01*
X108071649Y-112398300D01*
X108096035Y-112395898D01*
X108118400Y-112389114D01*
X108125448Y-112391252D01*
X108125448Y-112391252D01*
G37*
G36*
X110140765Y-112395898D02*
G01*
X110165151Y-112398300D01*
X111118400Y-112398300D01*
X111118400Y-112414401D01*
X111120802Y-112438787D01*
X111127915Y-112462236D01*
X111139466Y-112483847D01*
X111155011Y-112502789D01*
X111173953Y-112518334D01*
X111195564Y-112529885D01*
X111219013Y-112536998D01*
X111243399Y-112539400D01*
X112337452Y-112539400D01*
X112462327Y-112551699D01*
X112532007Y-112572836D01*
X112622555Y-112600303D01*
X112622557Y-112600304D01*
X112770218Y-112679231D01*
X112899649Y-112785451D01*
X113005868Y-112914881D01*
X113084797Y-113062545D01*
X113093603Y-113091576D01*
X113133401Y-113222773D01*
X113149812Y-113389400D01*
X113133401Y-113556027D01*
X113133400Y-113556029D01*
X113099851Y-113666629D01*
X113084796Y-113716257D01*
X113005869Y-113863918D01*
X112899649Y-113993349D01*
X112770218Y-114099569D01*
X112622557Y-114178496D01*
X112622555Y-114178497D01*
X112542442Y-114202798D01*
X112462327Y-114227101D01*
X112337452Y-114239400D01*
X111243399Y-114239400D01*
X111219013Y-114241802D01*
X111195564Y-114248915D01*
X111173953Y-114260466D01*
X111155011Y-114276011D01*
X111139466Y-114294953D01*
X111127915Y-114316564D01*
X111120802Y-114340013D01*
X111118400Y-114364399D01*
X111118400Y-114398300D01*
X110165151Y-114398300D01*
X110140765Y-114400702D01*
X110118400Y-114407486D01*
X110111352Y-114405348D01*
X110108885Y-114397216D01*
X110097334Y-114375605D01*
X110081794Y-114356669D01*
X109623425Y-113898300D01*
X110035043Y-113486682D01*
X110050583Y-113467746D01*
X110062134Y-113446135D01*
X110069247Y-113422686D01*
X110071649Y-113398300D01*
X110069247Y-113373914D01*
X110062134Y-113350465D01*
X110050583Y-113328854D01*
X110035043Y-113309918D01*
X109623425Y-112898300D01*
X110081794Y-112439931D01*
X110097334Y-112420995D01*
X110108885Y-112399384D01*
X110111352Y-112391252D01*
X110118400Y-112389114D01*
X110140765Y-112395898D01*
X110140765Y-112395898D01*
G37*
G36*
X148494765Y-109944798D02*
G01*
X148519151Y-109947200D01*
X149472400Y-109947200D01*
X149472400Y-110025001D01*
X149474802Y-110049387D01*
X149481915Y-110072836D01*
X149493466Y-110094447D01*
X149509011Y-110113389D01*
X149527953Y-110128934D01*
X149549564Y-110140485D01*
X149573013Y-110147598D01*
X149597399Y-110150000D01*
X150691752Y-110150000D01*
X150816627Y-110162299D01*
X150872448Y-110179232D01*
X150976855Y-110210903D01*
X150976857Y-110210904D01*
X151124518Y-110289831D01*
X151253949Y-110396051D01*
X151360169Y-110525482D01*
X151439096Y-110673143D01*
X151439097Y-110673145D01*
X151454151Y-110722773D01*
X151487701Y-110833373D01*
X151504112Y-111000000D01*
X151487701Y-111166627D01*
X151439096Y-111326857D01*
X151360169Y-111474518D01*
X151253949Y-111603949D01*
X151124518Y-111710169D01*
X150976857Y-111789096D01*
X150976855Y-111789097D01*
X150896742Y-111813399D01*
X150816627Y-111837701D01*
X150691752Y-111850000D01*
X149597399Y-111850000D01*
X149573013Y-111852402D01*
X149549564Y-111859515D01*
X149527953Y-111871066D01*
X149509011Y-111886611D01*
X149493466Y-111905553D01*
X149481915Y-111927164D01*
X149475837Y-111947200D01*
X148519151Y-111947200D01*
X148494765Y-111949602D01*
X148472400Y-111956386D01*
X148465352Y-111954248D01*
X148462885Y-111946116D01*
X148451334Y-111924505D01*
X148435794Y-111905569D01*
X147977425Y-111447200D01*
X148389043Y-111035582D01*
X148404583Y-111016646D01*
X148416134Y-110995035D01*
X148423247Y-110971586D01*
X148425649Y-110947200D01*
X148423247Y-110922814D01*
X148416134Y-110899365D01*
X148404583Y-110877754D01*
X148389043Y-110858818D01*
X147977425Y-110447200D01*
X148435794Y-109988831D01*
X148451334Y-109969895D01*
X148462885Y-109948284D01*
X148465352Y-109940152D01*
X148472400Y-109938014D01*
X148494765Y-109944798D01*
X148494765Y-109944798D01*
G37*
G36*
X146479448Y-109940152D02*
G01*
X146481915Y-109948284D01*
X146493466Y-109969895D01*
X146509006Y-109988831D01*
X146967375Y-110447200D01*
X146555757Y-110858818D01*
X146540217Y-110877754D01*
X146528666Y-110899365D01*
X146521553Y-110922814D01*
X146519151Y-110947200D01*
X146521553Y-110971586D01*
X146528666Y-110995035D01*
X146540217Y-111016646D01*
X146555757Y-111035582D01*
X146967375Y-111447200D01*
X146509006Y-111905569D01*
X146493466Y-111924505D01*
X146481915Y-111946116D01*
X146479448Y-111954248D01*
X146472400Y-111956386D01*
X146450035Y-111949602D01*
X146425649Y-111947200D01*
X145472400Y-111947200D01*
X145472400Y-109947200D01*
X146425649Y-109947200D01*
X146450035Y-109944798D01*
X146472400Y-109938014D01*
X146479448Y-109940152D01*
X146479448Y-109940152D01*
G37*
G36*
X117462327Y-110051699D02*
G01*
X117532007Y-110072836D01*
X117622555Y-110100303D01*
X117622557Y-110100304D01*
X117770218Y-110179231D01*
X117899649Y-110285451D01*
X118005869Y-110414882D01*
X118084796Y-110562543D01*
X118133401Y-110722773D01*
X118149812Y-110889400D01*
X118133401Y-111056027D01*
X118133400Y-111056029D01*
X118099851Y-111166629D01*
X118084796Y-111216257D01*
X118005869Y-111363918D01*
X117899649Y-111493349D01*
X117770218Y-111599569D01*
X117622557Y-111678496D01*
X117622555Y-111678497D01*
X117542442Y-111702798D01*
X117462327Y-111727101D01*
X117337452Y-111739400D01*
X115953948Y-111739400D01*
X115829073Y-111727101D01*
X115748958Y-111702798D01*
X115668845Y-111678497D01*
X115668843Y-111678496D01*
X115521182Y-111599569D01*
X115391751Y-111493349D01*
X115285531Y-111363918D01*
X115206604Y-111216257D01*
X115191550Y-111166629D01*
X115158000Y-111056029D01*
X115157999Y-111056027D01*
X115141588Y-110889400D01*
X115157999Y-110722773D01*
X115206604Y-110562543D01*
X115285531Y-110414882D01*
X115391751Y-110285451D01*
X115521182Y-110179231D01*
X115668843Y-110100304D01*
X115668845Y-110100303D01*
X115759393Y-110072836D01*
X115829073Y-110051699D01*
X115953948Y-110039400D01*
X117337452Y-110039400D01*
X117462327Y-110051699D01*
X117462327Y-110051699D01*
G37*
G36*
X156677548Y-107412852D02*
G01*
X156680015Y-107420984D01*
X156691566Y-107442595D01*
X156707106Y-107461531D01*
X157165475Y-107919900D01*
X156753857Y-108331518D01*
X156738317Y-108350454D01*
X156726766Y-108372065D01*
X156719653Y-108395514D01*
X156717251Y-108419900D01*
X156719653Y-108444286D01*
X156726766Y-108467735D01*
X156738317Y-108489346D01*
X156753857Y-108508282D01*
X157165475Y-108919900D01*
X156707106Y-109378269D01*
X156691566Y-109397205D01*
X156680015Y-109418816D01*
X156677548Y-109426948D01*
X156670500Y-109429086D01*
X156648135Y-109422302D01*
X156623749Y-109419900D01*
X155657102Y-109419900D01*
X155649434Y-109405553D01*
X155633889Y-109386611D01*
X155614947Y-109371066D01*
X155593336Y-109359515D01*
X155569887Y-109352402D01*
X155545501Y-109350000D01*
X154308248Y-109350000D01*
X154183373Y-109337701D01*
X154103258Y-109313398D01*
X154023145Y-109289097D01*
X153998663Y-109276011D01*
X153875482Y-109210169D01*
X153746051Y-109103949D01*
X153639831Y-108974518D01*
X153560904Y-108826857D01*
X153512299Y-108666627D01*
X153495888Y-108500000D01*
X153512299Y-108333373D01*
X153545849Y-108222773D01*
X153560903Y-108173145D01*
X153616879Y-108068422D01*
X153639831Y-108025482D01*
X153746051Y-107896051D01*
X153875482Y-107789831D01*
X154023143Y-107710904D01*
X154023145Y-107710903D01*
X154127552Y-107679232D01*
X154183373Y-107662299D01*
X154308248Y-107650000D01*
X155545501Y-107650000D01*
X155569887Y-107647598D01*
X155593336Y-107640485D01*
X155614947Y-107628934D01*
X155633889Y-107613389D01*
X155649434Y-107594447D01*
X155660985Y-107572836D01*
X155668098Y-107549387D01*
X155670500Y-107525001D01*
X155670500Y-107419900D01*
X156623749Y-107419900D01*
X156648135Y-107417498D01*
X156670500Y-107410714D01*
X156677548Y-107412852D01*
X156677548Y-107412852D01*
G37*
G36*
X158692865Y-107417498D02*
G01*
X158717251Y-107419900D01*
X159670500Y-107419900D01*
X159670500Y-109419900D01*
X158717251Y-109419900D01*
X158692865Y-109422302D01*
X158670500Y-109429086D01*
X158663452Y-109426948D01*
X158660985Y-109418816D01*
X158649434Y-109397205D01*
X158633894Y-109378269D01*
X158175525Y-108919900D01*
X158587143Y-108508282D01*
X158602683Y-108489346D01*
X158614234Y-108467735D01*
X158621347Y-108444286D01*
X158623749Y-108419900D01*
X158621347Y-108395514D01*
X158614234Y-108372065D01*
X158602683Y-108350454D01*
X158587143Y-108331518D01*
X158175525Y-107919900D01*
X158633894Y-107461531D01*
X158649434Y-107442595D01*
X158660985Y-107420984D01*
X158663452Y-107412852D01*
X158670500Y-107410714D01*
X158692865Y-107417498D01*
X158692865Y-107417498D01*
G37*
G36*
X108150848Y-107374752D02*
G01*
X108153315Y-107382884D01*
X108164866Y-107404495D01*
X108180406Y-107423431D01*
X108638775Y-107881800D01*
X108227157Y-108293418D01*
X108211617Y-108312354D01*
X108200066Y-108333965D01*
X108192953Y-108357414D01*
X108190551Y-108381800D01*
X108192953Y-108406186D01*
X108200066Y-108429635D01*
X108211617Y-108451246D01*
X108227157Y-108470182D01*
X108638775Y-108881800D01*
X108180406Y-109340169D01*
X108164866Y-109359105D01*
X108153315Y-109380716D01*
X108150848Y-109388848D01*
X108143800Y-109390986D01*
X108121435Y-109384202D01*
X108097049Y-109381800D01*
X107143800Y-109381800D01*
X107143800Y-107381800D01*
X108097049Y-107381800D01*
X108121435Y-107379398D01*
X108143800Y-107372614D01*
X108150848Y-107374752D01*
X108150848Y-107374752D01*
G37*
G36*
X110166165Y-107379398D02*
G01*
X110190551Y-107381800D01*
X111143800Y-107381800D01*
X111143800Y-107414401D01*
X111146202Y-107438787D01*
X111153315Y-107462236D01*
X111164866Y-107483847D01*
X111180411Y-107502789D01*
X111199353Y-107518334D01*
X111220964Y-107529885D01*
X111244413Y-107536998D01*
X111268799Y-107539400D01*
X112337452Y-107539400D01*
X112462327Y-107551699D01*
X112532007Y-107572836D01*
X112622555Y-107600303D01*
X112622557Y-107600304D01*
X112770218Y-107679231D01*
X112899649Y-107785451D01*
X113005868Y-107914881D01*
X113084797Y-108062545D01*
X113109098Y-108142658D01*
X113133401Y-108222773D01*
X113149812Y-108389400D01*
X113133401Y-108556027D01*
X113133400Y-108556029D01*
X113099851Y-108666629D01*
X113084796Y-108716257D01*
X113005869Y-108863918D01*
X112899649Y-108993349D01*
X112770218Y-109099569D01*
X112622557Y-109178496D01*
X112622555Y-109178497D01*
X112542442Y-109202799D01*
X112462327Y-109227101D01*
X112337452Y-109239400D01*
X111268799Y-109239400D01*
X111244413Y-109241802D01*
X111220964Y-109248915D01*
X111199353Y-109260466D01*
X111180411Y-109276011D01*
X111164866Y-109294953D01*
X111153315Y-109316564D01*
X111146202Y-109340013D01*
X111143800Y-109364399D01*
X111143800Y-109381800D01*
X110190551Y-109381800D01*
X110166165Y-109384202D01*
X110143800Y-109390986D01*
X110136752Y-109388848D01*
X110134285Y-109380716D01*
X110122734Y-109359105D01*
X110107194Y-109340169D01*
X109648825Y-108881800D01*
X110060443Y-108470182D01*
X110075983Y-108451246D01*
X110087534Y-108429635D01*
X110094647Y-108406186D01*
X110097049Y-108381800D01*
X110094647Y-108357414D01*
X110087534Y-108333965D01*
X110075983Y-108312354D01*
X110060443Y-108293418D01*
X109648825Y-107881800D01*
X110107194Y-107423431D01*
X110122734Y-107404495D01*
X110134285Y-107382884D01*
X110136752Y-107374752D01*
X110143800Y-107372614D01*
X110166165Y-107379398D01*
X110166165Y-107379398D01*
G37*
G36*
X135458471Y-106703859D02*
G01*
X135536827Y-106711576D01*
X135687628Y-106757321D01*
X135687630Y-106757322D01*
X135826605Y-106831606D01*
X135948422Y-106931578D01*
X135964044Y-106950613D01*
X136048393Y-107053394D01*
X136122679Y-107192372D01*
X136168424Y-107343173D01*
X136183870Y-107500000D01*
X136168424Y-107656827D01*
X136128077Y-107789832D01*
X136122678Y-107807630D01*
X136048394Y-107946605D01*
X135948422Y-108068422D01*
X135826605Y-108168394D01*
X135724873Y-108222771D01*
X135687628Y-108242679D01*
X135536827Y-108288424D01*
X135458471Y-108296141D01*
X135419294Y-108300000D01*
X135340706Y-108300000D01*
X135301529Y-108296141D01*
X135223173Y-108288424D01*
X135072372Y-108242679D01*
X135035127Y-108222771D01*
X134933395Y-108168394D01*
X134811578Y-108068422D01*
X134711606Y-107946605D01*
X134637322Y-107807630D01*
X134631923Y-107789832D01*
X134591576Y-107656827D01*
X134576130Y-107500000D01*
X134591576Y-107343173D01*
X134637321Y-107192372D01*
X134711607Y-107053394D01*
X134795957Y-106950613D01*
X134811578Y-106931578D01*
X134933395Y-106831606D01*
X135072370Y-106757322D01*
X135072372Y-106757321D01*
X135223173Y-106711576D01*
X135301529Y-106703859D01*
X135340706Y-106700000D01*
X135419294Y-106700000D01*
X135458471Y-106703859D01*
X135458471Y-106703859D01*
G37*
G36*
X143800000Y-108300000D02*
G01*
X142200000Y-108300000D01*
X142200000Y-106700000D01*
X143800000Y-106700000D01*
X143800000Y-108300000D01*
X143800000Y-108300000D01*
G37*
G36*
X146428648Y-104974452D02*
G01*
X146431115Y-104982584D01*
X146442666Y-105004195D01*
X146458206Y-105023131D01*
X146916575Y-105481500D01*
X146504957Y-105893118D01*
X146489417Y-105912054D01*
X146477866Y-105933665D01*
X146470753Y-105957114D01*
X146468351Y-105981500D01*
X146470753Y-106005886D01*
X146477866Y-106029335D01*
X146489417Y-106050946D01*
X146504957Y-106069882D01*
X146916575Y-106481500D01*
X146458206Y-106939869D01*
X146442666Y-106958805D01*
X146431115Y-106980416D01*
X146428648Y-106988548D01*
X146421600Y-106990686D01*
X146399235Y-106983902D01*
X146374849Y-106981500D01*
X145421600Y-106981500D01*
X145421600Y-104981500D01*
X146374849Y-104981500D01*
X146399235Y-104979098D01*
X146421600Y-104972314D01*
X146428648Y-104974452D01*
X146428648Y-104974452D01*
G37*
G36*
X148443965Y-104979098D02*
G01*
X148468351Y-104981500D01*
X149421600Y-104981500D01*
X149421600Y-105025001D01*
X149424002Y-105049387D01*
X149431115Y-105072836D01*
X149442666Y-105094447D01*
X149458211Y-105113389D01*
X149477153Y-105128934D01*
X149498764Y-105140485D01*
X149522213Y-105147598D01*
X149546599Y-105150000D01*
X150691752Y-105150000D01*
X150816627Y-105162299D01*
X150872448Y-105179232D01*
X150976855Y-105210903D01*
X150976857Y-105210904D01*
X151124518Y-105289831D01*
X151253949Y-105396051D01*
X151360169Y-105525482D01*
X151415176Y-105628393D01*
X151439097Y-105673145D01*
X151454151Y-105722773D01*
X151487701Y-105833373D01*
X151504112Y-106000000D01*
X151487701Y-106166627D01*
X151439096Y-106326857D01*
X151360169Y-106474518D01*
X151253949Y-106603949D01*
X151124518Y-106710169D01*
X150976857Y-106789096D01*
X150976855Y-106789097D01*
X150896742Y-106813398D01*
X150816627Y-106837701D01*
X150691752Y-106850000D01*
X149546599Y-106850000D01*
X149522213Y-106852402D01*
X149498764Y-106859515D01*
X149477153Y-106871066D01*
X149458211Y-106886611D01*
X149442666Y-106905553D01*
X149431115Y-106927164D01*
X149424002Y-106950613D01*
X149421600Y-106974999D01*
X149421600Y-106981500D01*
X148468351Y-106981500D01*
X148443965Y-106983902D01*
X148421600Y-106990686D01*
X148414552Y-106988548D01*
X148412085Y-106980416D01*
X148400534Y-106958805D01*
X148384994Y-106939869D01*
X147926625Y-106481500D01*
X148338243Y-106069882D01*
X148353783Y-106050946D01*
X148365334Y-106029335D01*
X148372447Y-106005886D01*
X148374849Y-105981500D01*
X148372447Y-105957114D01*
X148365334Y-105933665D01*
X148353783Y-105912054D01*
X148338243Y-105893118D01*
X147926625Y-105481500D01*
X148384994Y-105023131D01*
X148400534Y-105004195D01*
X148412085Y-104982584D01*
X148414552Y-104974452D01*
X148421600Y-104972314D01*
X148443965Y-104979098D01*
X148443965Y-104979098D01*
G37*
G36*
X117462327Y-105051699D02*
G01*
X117532007Y-105072836D01*
X117622555Y-105100303D01*
X117622557Y-105100304D01*
X117770218Y-105179231D01*
X117899649Y-105285451D01*
X118005869Y-105414882D01*
X118084796Y-105562543D01*
X118133401Y-105722773D01*
X118149812Y-105889400D01*
X118133401Y-106056027D01*
X118133400Y-106056029D01*
X118099851Y-106166629D01*
X118084796Y-106216257D01*
X118005869Y-106363918D01*
X117899649Y-106493349D01*
X117770218Y-106599569D01*
X117622557Y-106678496D01*
X117622555Y-106678497D01*
X117542442Y-106702798D01*
X117462327Y-106727101D01*
X117337452Y-106739400D01*
X115953948Y-106739400D01*
X115829073Y-106727101D01*
X115748958Y-106702798D01*
X115668845Y-106678497D01*
X115668843Y-106678496D01*
X115521182Y-106599569D01*
X115391751Y-106493349D01*
X115285531Y-106363918D01*
X115206604Y-106216257D01*
X115191550Y-106166629D01*
X115158000Y-106056029D01*
X115157999Y-106056027D01*
X115141588Y-105889400D01*
X115157999Y-105722773D01*
X115206604Y-105562543D01*
X115285531Y-105414882D01*
X115391751Y-105285451D01*
X115521182Y-105179231D01*
X115668843Y-105100304D01*
X115668845Y-105100303D01*
X115759393Y-105072836D01*
X115829073Y-105051699D01*
X115953948Y-105039400D01*
X117337452Y-105039400D01*
X117462327Y-105051699D01*
X117462327Y-105051699D01*
G37*
G36*
X135458471Y-104163859D02*
G01*
X135536827Y-104171576D01*
X135687628Y-104217321D01*
X135687630Y-104217322D01*
X135826605Y-104291606D01*
X135948422Y-104391578D01*
X135984798Y-104435902D01*
X136048393Y-104513394D01*
X136122679Y-104652372D01*
X136168424Y-104803173D01*
X136183870Y-104960000D01*
X136168424Y-105116827D01*
X136139886Y-105210903D01*
X136122678Y-105267630D01*
X136048394Y-105406605D01*
X135948422Y-105528422D01*
X135826605Y-105628394D01*
X135742882Y-105673145D01*
X135687628Y-105702679D01*
X135536827Y-105748424D01*
X135458471Y-105756141D01*
X135419294Y-105760000D01*
X135340706Y-105760000D01*
X135301529Y-105756141D01*
X135223173Y-105748424D01*
X135072372Y-105702679D01*
X135017118Y-105673145D01*
X134933395Y-105628394D01*
X134811578Y-105528422D01*
X134711606Y-105406605D01*
X134637322Y-105267630D01*
X134620114Y-105210903D01*
X134591576Y-105116827D01*
X134576130Y-104960000D01*
X134591576Y-104803173D01*
X134637321Y-104652372D01*
X134711607Y-104513394D01*
X134775203Y-104435902D01*
X134811578Y-104391578D01*
X134933395Y-104291606D01*
X135072370Y-104217322D01*
X135072372Y-104217321D01*
X135223173Y-104171576D01*
X135301529Y-104163859D01*
X135340706Y-104160000D01*
X135419294Y-104160000D01*
X135458471Y-104163859D01*
X135458471Y-104163859D01*
G37*
G36*
X143078471Y-104163859D02*
G01*
X143156827Y-104171576D01*
X143307628Y-104217321D01*
X143307630Y-104217322D01*
X143446605Y-104291606D01*
X143568422Y-104391578D01*
X143604798Y-104435902D01*
X143668393Y-104513394D01*
X143742679Y-104652372D01*
X143788424Y-104803173D01*
X143803870Y-104960000D01*
X143788424Y-105116827D01*
X143759886Y-105210903D01*
X143742678Y-105267630D01*
X143668394Y-105406605D01*
X143568422Y-105528422D01*
X143446605Y-105628394D01*
X143362882Y-105673145D01*
X143307628Y-105702679D01*
X143156827Y-105748424D01*
X143078471Y-105756141D01*
X143039294Y-105760000D01*
X142960706Y-105760000D01*
X142921529Y-105756141D01*
X142843173Y-105748424D01*
X142692372Y-105702679D01*
X142637118Y-105673145D01*
X142553395Y-105628394D01*
X142431578Y-105528422D01*
X142331606Y-105406605D01*
X142257322Y-105267630D01*
X142240114Y-105210903D01*
X142211576Y-105116827D01*
X142196130Y-104960000D01*
X142211576Y-104803173D01*
X142257321Y-104652372D01*
X142331607Y-104513394D01*
X142395203Y-104435902D01*
X142431578Y-104391578D01*
X142553395Y-104291606D01*
X142692370Y-104217322D01*
X142692372Y-104217321D01*
X142843173Y-104171576D01*
X142921529Y-104163859D01*
X142960706Y-104160000D01*
X143039294Y-104160000D01*
X143078471Y-104163859D01*
X143078471Y-104163859D01*
G37*
G36*
X158708865Y-102431098D02*
G01*
X158733251Y-102433500D01*
X159686500Y-102433500D01*
X159686500Y-104433500D01*
X158733251Y-104433500D01*
X158708865Y-104435902D01*
X158686500Y-104442686D01*
X158679452Y-104440548D01*
X158676985Y-104432416D01*
X158665434Y-104410805D01*
X158649894Y-104391869D01*
X158191525Y-103933500D01*
X158603143Y-103521882D01*
X158618683Y-103502946D01*
X158630234Y-103481335D01*
X158637347Y-103457886D01*
X158639749Y-103433500D01*
X158637347Y-103409114D01*
X158630234Y-103385665D01*
X158618683Y-103364054D01*
X158603143Y-103345118D01*
X158191525Y-102933500D01*
X158649894Y-102475131D01*
X158665434Y-102456195D01*
X158676985Y-102434584D01*
X158679452Y-102426452D01*
X158686500Y-102424314D01*
X158708865Y-102431098D01*
X158708865Y-102431098D01*
G37*
G36*
X156693548Y-102426452D02*
G01*
X156696015Y-102434584D01*
X156707566Y-102456195D01*
X156723106Y-102475131D01*
X157181475Y-102933500D01*
X156769857Y-103345118D01*
X156754317Y-103364054D01*
X156742766Y-103385665D01*
X156735653Y-103409114D01*
X156733251Y-103433500D01*
X156735653Y-103457886D01*
X156742766Y-103481335D01*
X156754317Y-103502946D01*
X156769857Y-103521882D01*
X157181475Y-103933500D01*
X156723106Y-104391869D01*
X156707566Y-104410805D01*
X156696015Y-104432416D01*
X156693548Y-104440548D01*
X156686500Y-104442686D01*
X156664135Y-104435902D01*
X156639749Y-104433500D01*
X155678907Y-104433500D01*
X155676985Y-104427164D01*
X155665434Y-104405553D01*
X155649889Y-104386611D01*
X155630947Y-104371066D01*
X155609336Y-104359515D01*
X155585887Y-104352402D01*
X155561501Y-104350000D01*
X154308248Y-104350000D01*
X154183373Y-104337701D01*
X154103258Y-104313398D01*
X154023145Y-104289097D01*
X154023143Y-104289096D01*
X153875482Y-104210169D01*
X153746051Y-104103949D01*
X153639831Y-103974518D01*
X153560904Y-103826857D01*
X153512299Y-103666627D01*
X153495888Y-103500000D01*
X153512299Y-103333373D01*
X153546690Y-103220000D01*
X153560903Y-103173145D01*
X153639832Y-103025481D01*
X153746051Y-102896051D01*
X153875482Y-102789831D01*
X154023143Y-102710904D01*
X154023145Y-102710903D01*
X154103258Y-102686602D01*
X154183373Y-102662299D01*
X154308248Y-102650000D01*
X155561501Y-102650000D01*
X155585887Y-102647598D01*
X155609336Y-102640485D01*
X155630947Y-102628934D01*
X155649889Y-102613389D01*
X155665434Y-102594447D01*
X155676985Y-102572836D01*
X155684098Y-102549387D01*
X155686500Y-102525001D01*
X155686500Y-102433500D01*
X156639749Y-102433500D01*
X156664135Y-102431098D01*
X156686500Y-102424314D01*
X156693548Y-102426452D01*
X156693548Y-102426452D01*
G37*
G36*
X135458471Y-101623859D02*
G01*
X135536827Y-101631576D01*
X135687628Y-101677321D01*
X135687630Y-101677322D01*
X135826605Y-101751606D01*
X135826607Y-101751607D01*
X135826606Y-101751607D01*
X135948422Y-101851578D01*
X136048393Y-101973394D01*
X136122679Y-102112372D01*
X136168424Y-102263173D01*
X136183870Y-102420000D01*
X136168424Y-102576827D01*
X136146227Y-102650000D01*
X136122678Y-102727630D01*
X136048394Y-102866605D01*
X135948422Y-102988422D01*
X135826605Y-103088394D01*
X135687630Y-103162678D01*
X135687628Y-103162679D01*
X135536827Y-103208424D01*
X135458471Y-103216141D01*
X135419294Y-103220000D01*
X135340706Y-103220000D01*
X135301529Y-103216141D01*
X135223173Y-103208424D01*
X135072372Y-103162679D01*
X135072370Y-103162678D01*
X134933395Y-103088394D01*
X134811578Y-102988422D01*
X134711606Y-102866605D01*
X134637322Y-102727630D01*
X134613773Y-102650000D01*
X134591576Y-102576827D01*
X134576130Y-102420000D01*
X134591576Y-102263173D01*
X134637321Y-102112372D01*
X134711607Y-101973394D01*
X134811578Y-101851578D01*
X134933394Y-101751607D01*
X134933393Y-101751607D01*
X134933395Y-101751606D01*
X135072370Y-101677322D01*
X135072372Y-101677321D01*
X135223173Y-101631576D01*
X135301529Y-101623859D01*
X135340706Y-101620000D01*
X135419294Y-101620000D01*
X135458471Y-101623859D01*
X135458471Y-101623859D01*
G37*
G36*
X143078471Y-101623859D02*
G01*
X143156827Y-101631576D01*
X143307628Y-101677321D01*
X143307630Y-101677322D01*
X143446605Y-101751606D01*
X143446607Y-101751607D01*
X143446606Y-101751607D01*
X143568422Y-101851578D01*
X143668393Y-101973394D01*
X143742679Y-102112372D01*
X143788424Y-102263173D01*
X143803870Y-102420000D01*
X143788424Y-102576827D01*
X143766227Y-102650000D01*
X143742678Y-102727630D01*
X143668394Y-102866605D01*
X143568422Y-102988422D01*
X143446605Y-103088394D01*
X143307630Y-103162678D01*
X143307628Y-103162679D01*
X143156827Y-103208424D01*
X143078471Y-103216141D01*
X143039294Y-103220000D01*
X142960706Y-103220000D01*
X142921529Y-103216141D01*
X142843173Y-103208424D01*
X142692372Y-103162679D01*
X142692370Y-103162678D01*
X142553395Y-103088394D01*
X142431578Y-102988422D01*
X142331606Y-102866605D01*
X142257322Y-102727630D01*
X142233773Y-102650000D01*
X142211576Y-102576827D01*
X142196130Y-102420000D01*
X142211576Y-102263173D01*
X142257321Y-102112372D01*
X142331607Y-101973394D01*
X142431578Y-101851578D01*
X142553394Y-101751607D01*
X142553393Y-101751607D01*
X142553395Y-101751606D01*
X142692370Y-101677322D01*
X142692372Y-101677321D01*
X142843173Y-101631576D01*
X142921529Y-101623859D01*
X142960706Y-101620000D01*
X143039294Y-101620000D01*
X143078471Y-101623859D01*
X143078471Y-101623859D01*
G37*
G36*
X143078471Y-99083859D02*
G01*
X143156827Y-99091576D01*
X143307628Y-99137321D01*
X143307630Y-99137322D01*
X143446605Y-99211606D01*
X143568422Y-99311578D01*
X143668394Y-99433395D01*
X143690375Y-99474519D01*
X143742679Y-99572372D01*
X143788424Y-99723173D01*
X143803870Y-99880000D01*
X143788424Y-100036827D01*
X143742679Y-100187628D01*
X143742678Y-100187630D01*
X143668394Y-100326605D01*
X143568422Y-100448422D01*
X143446605Y-100548394D01*
X143307630Y-100622678D01*
X143307628Y-100622679D01*
X143156827Y-100668424D01*
X143078471Y-100676141D01*
X143039294Y-100680000D01*
X142960706Y-100680000D01*
X142921529Y-100676141D01*
X142843173Y-100668424D01*
X142692372Y-100622679D01*
X142692370Y-100622678D01*
X142553395Y-100548394D01*
X142431578Y-100448422D01*
X142331606Y-100326605D01*
X142257322Y-100187630D01*
X142257321Y-100187628D01*
X142211576Y-100036827D01*
X142196130Y-99880000D01*
X142211576Y-99723173D01*
X142257321Y-99572372D01*
X142309625Y-99474519D01*
X142331606Y-99433395D01*
X142431578Y-99311578D01*
X142553395Y-99211606D01*
X142692370Y-99137322D01*
X142692372Y-99137321D01*
X142843173Y-99091576D01*
X142921529Y-99083859D01*
X142960706Y-99080000D01*
X143039294Y-99080000D01*
X143078471Y-99083859D01*
X143078471Y-99083859D01*
G37*
G36*
X135458471Y-99083859D02*
G01*
X135536827Y-99091576D01*
X135687628Y-99137321D01*
X135687630Y-99137322D01*
X135826605Y-99211606D01*
X135948422Y-99311578D01*
X136048394Y-99433395D01*
X136070375Y-99474519D01*
X136122679Y-99572372D01*
X136168424Y-99723173D01*
X136183870Y-99880000D01*
X136168424Y-100036827D01*
X136122679Y-100187628D01*
X136122678Y-100187630D01*
X136048394Y-100326605D01*
X135948422Y-100448422D01*
X135826605Y-100548394D01*
X135687630Y-100622678D01*
X135687628Y-100622679D01*
X135536827Y-100668424D01*
X135458471Y-100676141D01*
X135419294Y-100680000D01*
X135340706Y-100680000D01*
X135301529Y-100676141D01*
X135223173Y-100668424D01*
X135072372Y-100622679D01*
X135072370Y-100622678D01*
X134933395Y-100548394D01*
X134811578Y-100448422D01*
X134711606Y-100326605D01*
X134637322Y-100187630D01*
X134637321Y-100187628D01*
X134591576Y-100036827D01*
X134576130Y-99880000D01*
X134591576Y-99723173D01*
X134637321Y-99572372D01*
X134689625Y-99474519D01*
X134711606Y-99433395D01*
X134811578Y-99311578D01*
X134933395Y-99211606D01*
X135072370Y-99137322D01*
X135072372Y-99137321D01*
X135223173Y-99091576D01*
X135301529Y-99083859D01*
X135340706Y-99080000D01*
X135419294Y-99080000D01*
X135458471Y-99083859D01*
X135458471Y-99083859D01*
G37*
G36*
X148558265Y-97943298D02*
G01*
X148582651Y-97945700D01*
X149535900Y-97945700D01*
X149535900Y-98025001D01*
X149538302Y-98049387D01*
X149545415Y-98072836D01*
X149556966Y-98094447D01*
X149572511Y-98113389D01*
X149591453Y-98128934D01*
X149613064Y-98140485D01*
X149636513Y-98147598D01*
X149660899Y-98150000D01*
X150691752Y-98150000D01*
X150816627Y-98162299D01*
X150896742Y-98186601D01*
X150976855Y-98210903D01*
X150976857Y-98210904D01*
X151124518Y-98289831D01*
X151253949Y-98396051D01*
X151360169Y-98525482D01*
X151439096Y-98673143D01*
X151487701Y-98833373D01*
X151504112Y-99000000D01*
X151487701Y-99166627D01*
X151439096Y-99326857D01*
X151360169Y-99474518D01*
X151253949Y-99603949D01*
X151124518Y-99710169D01*
X150976857Y-99789096D01*
X150976855Y-99789097D01*
X150896742Y-99813399D01*
X150816627Y-99837701D01*
X150691752Y-99850000D01*
X149660899Y-99850000D01*
X149636513Y-99852402D01*
X149613064Y-99859515D01*
X149591453Y-99871066D01*
X149572511Y-99886611D01*
X149556966Y-99905553D01*
X149545415Y-99927164D01*
X149539792Y-99945700D01*
X148582651Y-99945700D01*
X148558265Y-99948102D01*
X148535900Y-99954886D01*
X148528852Y-99952748D01*
X148526385Y-99944616D01*
X148514834Y-99923005D01*
X148499294Y-99904069D01*
X148040925Y-99445700D01*
X148452543Y-99034082D01*
X148468083Y-99015146D01*
X148479634Y-98993535D01*
X148486747Y-98970086D01*
X148489149Y-98945700D01*
X148486747Y-98921314D01*
X148479634Y-98897865D01*
X148468083Y-98876254D01*
X148452543Y-98857318D01*
X148040925Y-98445700D01*
X148499294Y-97987331D01*
X148514834Y-97968395D01*
X148526385Y-97946784D01*
X148528852Y-97938652D01*
X148535900Y-97936514D01*
X148558265Y-97943298D01*
X148558265Y-97943298D01*
G37*
G36*
X146542948Y-97938652D02*
G01*
X146545415Y-97946784D01*
X146556966Y-97968395D01*
X146572506Y-97987331D01*
X147030875Y-98445700D01*
X146619257Y-98857318D01*
X146603717Y-98876254D01*
X146592166Y-98897865D01*
X146585053Y-98921314D01*
X146582651Y-98945700D01*
X146585053Y-98970086D01*
X146592166Y-98993535D01*
X146603717Y-99015146D01*
X146619257Y-99034082D01*
X147030875Y-99445700D01*
X146572506Y-99904069D01*
X146556966Y-99923005D01*
X146545415Y-99944616D01*
X146542948Y-99952748D01*
X146535900Y-99954886D01*
X146513535Y-99948102D01*
X146489149Y-99945700D01*
X145535900Y-99945700D01*
X145535900Y-97945700D01*
X146489149Y-97945700D01*
X146513535Y-97943298D01*
X146535900Y-97936514D01*
X146542948Y-97938652D01*
X146542948Y-97938652D01*
G37*
G36*
X156588648Y-95462152D02*
G01*
X156591115Y-95470284D01*
X156602666Y-95491895D01*
X156618206Y-95510831D01*
X157076575Y-95969200D01*
X156664957Y-96380818D01*
X156649417Y-96399754D01*
X156637866Y-96421365D01*
X156630753Y-96444814D01*
X156628351Y-96469200D01*
X156630753Y-96493586D01*
X156637866Y-96517035D01*
X156649417Y-96538646D01*
X156664957Y-96557582D01*
X157076575Y-96969200D01*
X156618206Y-97427569D01*
X156602666Y-97446505D01*
X156591115Y-97468116D01*
X156588648Y-97476248D01*
X156581600Y-97478386D01*
X156559235Y-97471602D01*
X156534849Y-97469200D01*
X155581029Y-97469200D01*
X155579198Y-97450613D01*
X155572085Y-97427164D01*
X155560534Y-97405553D01*
X155544989Y-97386611D01*
X155526047Y-97371066D01*
X155504436Y-97359515D01*
X155480987Y-97352402D01*
X155456601Y-97350000D01*
X154308248Y-97350000D01*
X154183373Y-97337701D01*
X154103258Y-97313398D01*
X154023145Y-97289097D01*
X154023143Y-97289096D01*
X153875482Y-97210169D01*
X153746051Y-97103949D01*
X153639831Y-96974518D01*
X153560904Y-96826857D01*
X153512299Y-96666627D01*
X153495888Y-96500000D01*
X153512299Y-96333373D01*
X153560904Y-96173143D01*
X153639831Y-96025482D01*
X153746051Y-95896051D01*
X153875482Y-95789831D01*
X154023143Y-95710904D01*
X154023145Y-95710903D01*
X154103258Y-95686602D01*
X154183373Y-95662299D01*
X154308248Y-95650000D01*
X155456601Y-95650000D01*
X155480987Y-95647598D01*
X155504436Y-95640485D01*
X155526047Y-95628934D01*
X155544989Y-95613389D01*
X155560534Y-95594447D01*
X155572085Y-95572836D01*
X155579198Y-95549387D01*
X155581600Y-95525001D01*
X155581600Y-95469200D01*
X156534849Y-95469200D01*
X156559235Y-95466798D01*
X156581600Y-95460014D01*
X156588648Y-95462152D01*
X156588648Y-95462152D01*
G37*
G36*
X158603965Y-95466798D02*
G01*
X158628351Y-95469200D01*
X159581600Y-95469200D01*
X159581600Y-97469200D01*
X158628351Y-97469200D01*
X158603965Y-97471602D01*
X158581600Y-97478386D01*
X158574552Y-97476248D01*
X158572085Y-97468116D01*
X158560534Y-97446505D01*
X158544994Y-97427569D01*
X158086625Y-96969200D01*
X158498243Y-96557582D01*
X158513783Y-96538646D01*
X158525334Y-96517035D01*
X158532447Y-96493586D01*
X158534849Y-96469200D01*
X158532447Y-96444814D01*
X158525334Y-96421365D01*
X158513783Y-96399754D01*
X158498243Y-96380818D01*
X158086625Y-95969200D01*
X158544994Y-95510831D01*
X158560534Y-95491895D01*
X158572085Y-95470284D01*
X158574552Y-95462152D01*
X158581600Y-95460014D01*
X158603965Y-95466798D01*
X158603965Y-95466798D01*
G37*
G36*
X112794427Y-94998022D02*
G01*
X112794430Y-94998023D01*
X112794431Y-94998023D01*
X112964081Y-95049486D01*
X112964083Y-95049487D01*
X112964086Y-95049488D01*
X113120431Y-95133056D01*
X113257475Y-95245525D01*
X113369944Y-95382569D01*
X113453512Y-95538914D01*
X113453513Y-95538917D01*
X113453514Y-95538919D01*
X113487210Y-95650000D01*
X113504978Y-95708573D01*
X113522354Y-95885000D01*
X113504978Y-96061427D01*
X113504977Y-96061430D01*
X113504977Y-96061431D01*
X113471089Y-96173145D01*
X113453512Y-96231086D01*
X113369944Y-96387431D01*
X113257475Y-96524475D01*
X113120431Y-96636944D01*
X112964086Y-96720512D01*
X112964083Y-96720513D01*
X112964081Y-96720514D01*
X112794431Y-96771977D01*
X112794430Y-96771977D01*
X112794427Y-96771978D01*
X112662211Y-96785000D01*
X111873789Y-96785000D01*
X111741573Y-96771978D01*
X111741570Y-96771977D01*
X111741569Y-96771977D01*
X111571919Y-96720514D01*
X111571917Y-96720513D01*
X111571914Y-96720512D01*
X111415569Y-96636944D01*
X111278525Y-96524475D01*
X111166056Y-96387431D01*
X111082488Y-96231086D01*
X111064912Y-96173145D01*
X111031023Y-96061431D01*
X111031023Y-96061430D01*
X111031022Y-96061427D01*
X111013646Y-95885000D01*
X111031022Y-95708573D01*
X111048790Y-95650000D01*
X111082486Y-95538919D01*
X111082487Y-95538917D01*
X111082488Y-95538914D01*
X111166056Y-95382569D01*
X111278525Y-95245525D01*
X111415569Y-95133056D01*
X111571914Y-95049488D01*
X111571917Y-95049487D01*
X111571919Y-95049486D01*
X111741569Y-94998023D01*
X111741570Y-94998023D01*
X111741573Y-94998022D01*
X111873789Y-94985000D01*
X112662211Y-94985000D01*
X112794427Y-94998022D01*
X112794427Y-94998022D01*
G37*
G36*
X146581048Y-92947552D02*
G01*
X146583515Y-92955684D01*
X146595066Y-92977295D01*
X146610606Y-92996231D01*
X147068975Y-93454600D01*
X146657357Y-93866218D01*
X146641817Y-93885154D01*
X146630266Y-93906765D01*
X146623153Y-93930214D01*
X146620751Y-93954600D01*
X146623153Y-93978986D01*
X146630266Y-94002435D01*
X146641817Y-94024046D01*
X146657357Y-94042982D01*
X147068975Y-94454600D01*
X146610606Y-94912969D01*
X146595066Y-94931905D01*
X146583515Y-94953516D01*
X146581048Y-94961648D01*
X146574000Y-94963786D01*
X146551635Y-94957002D01*
X146527249Y-94954600D01*
X145574000Y-94954600D01*
X145574000Y-92954600D01*
X146527249Y-92954600D01*
X146551635Y-92952198D01*
X146574000Y-92945414D01*
X146581048Y-92947552D01*
X146581048Y-92947552D01*
G37*
G36*
X148596365Y-92952198D02*
G01*
X148620751Y-92954600D01*
X149574000Y-92954600D01*
X149574000Y-93025001D01*
X149576402Y-93049387D01*
X149583515Y-93072836D01*
X149595066Y-93094447D01*
X149610611Y-93113389D01*
X149629553Y-93128934D01*
X149651164Y-93140485D01*
X149674613Y-93147598D01*
X149698999Y-93150000D01*
X150691752Y-93150000D01*
X150816627Y-93162299D01*
X150896742Y-93186601D01*
X150976855Y-93210903D01*
X150976857Y-93210904D01*
X151124518Y-93289831D01*
X151253949Y-93396051D01*
X151360168Y-93525481D01*
X151439097Y-93673145D01*
X151444929Y-93692372D01*
X151487701Y-93833373D01*
X151504112Y-94000000D01*
X151487701Y-94166627D01*
X151487700Y-94166629D01*
X151444929Y-94307630D01*
X151439096Y-94326857D01*
X151360169Y-94474518D01*
X151253949Y-94603949D01*
X151124518Y-94710169D01*
X151063698Y-94742678D01*
X150976855Y-94789097D01*
X150896742Y-94813399D01*
X150816627Y-94837701D01*
X150691752Y-94850000D01*
X149698999Y-94850000D01*
X149674613Y-94852402D01*
X149651164Y-94859515D01*
X149629553Y-94871066D01*
X149610611Y-94886611D01*
X149595066Y-94905553D01*
X149583515Y-94927164D01*
X149576402Y-94950613D01*
X149576009Y-94954600D01*
X148620751Y-94954600D01*
X148596365Y-94957002D01*
X148574000Y-94963786D01*
X148566952Y-94961648D01*
X148564485Y-94953516D01*
X148552934Y-94931905D01*
X148537394Y-94912969D01*
X148079025Y-94454600D01*
X148460145Y-94073480D01*
X148475685Y-94054544D01*
X148487236Y-94032933D01*
X148496149Y-93997350D01*
X148501618Y-93941823D01*
X148501618Y-93917319D01*
X148496838Y-93893286D01*
X148487460Y-93870647D01*
X148473847Y-93850273D01*
X148465619Y-93841194D01*
X148079025Y-93454600D01*
X148537394Y-92996231D01*
X148552934Y-92977295D01*
X148564485Y-92955684D01*
X148566952Y-92947552D01*
X148574000Y-92945414D01*
X148596365Y-92952198D01*
X148596365Y-92952198D01*
G37*
G36*
X135458471Y-93203859D02*
G01*
X135536827Y-93211576D01*
X135687628Y-93257321D01*
X135687630Y-93257322D01*
X135826605Y-93331606D01*
X135948422Y-93431578D01*
X136025487Y-93525482D01*
X136048393Y-93553394D01*
X136122679Y-93692372D01*
X136168424Y-93843173D01*
X136183870Y-94000000D01*
X136168424Y-94156827D01*
X136122679Y-94307628D01*
X136122678Y-94307630D01*
X136048394Y-94446605D01*
X135948422Y-94568422D01*
X135826605Y-94668394D01*
X135687630Y-94742678D01*
X135687628Y-94742679D01*
X135536827Y-94788424D01*
X135458471Y-94796141D01*
X135419294Y-94800000D01*
X135340706Y-94800000D01*
X135301529Y-94796141D01*
X135223173Y-94788424D01*
X135072372Y-94742679D01*
X135072370Y-94742678D01*
X134933395Y-94668394D01*
X134811578Y-94568422D01*
X134711606Y-94446605D01*
X134637322Y-94307630D01*
X134637321Y-94307628D01*
X134591576Y-94156827D01*
X134576130Y-94000000D01*
X134591576Y-93843173D01*
X134637321Y-93692372D01*
X134711607Y-93553394D01*
X134734514Y-93525482D01*
X134811578Y-93431578D01*
X134933395Y-93331606D01*
X135072370Y-93257322D01*
X135072372Y-93257321D01*
X135223173Y-93211576D01*
X135301529Y-93203859D01*
X135340706Y-93200000D01*
X135419294Y-93200000D01*
X135458471Y-93203859D01*
X135458471Y-93203859D01*
G37*
G36*
X143800000Y-94800000D02*
G01*
X142200000Y-94800000D01*
X142200000Y-93200000D01*
X143800000Y-93200000D01*
X143800000Y-94800000D01*
X143800000Y-94800000D01*
G37*
G36*
X158594565Y-90521798D02*
G01*
X158618951Y-90524200D01*
X159572200Y-90524200D01*
X159572200Y-92524200D01*
X158618951Y-92524200D01*
X158594565Y-92526602D01*
X158572200Y-92533386D01*
X158565152Y-92531248D01*
X158562685Y-92523116D01*
X158551134Y-92501505D01*
X158535594Y-92482569D01*
X158077225Y-92024200D01*
X158488843Y-91612582D01*
X158504383Y-91593646D01*
X158515934Y-91572035D01*
X158523047Y-91548586D01*
X158525449Y-91524200D01*
X158523047Y-91499814D01*
X158515934Y-91476365D01*
X158504383Y-91454754D01*
X158488843Y-91435818D01*
X158077225Y-91024200D01*
X158535594Y-90565831D01*
X158551134Y-90546895D01*
X158562685Y-90525284D01*
X158565152Y-90517152D01*
X158572200Y-90515014D01*
X158594565Y-90521798D01*
X158594565Y-90521798D01*
G37*
G36*
X156579248Y-90517152D02*
G01*
X156581715Y-90525284D01*
X156593266Y-90546895D01*
X156608806Y-90565831D01*
X157067175Y-91024200D01*
X156655557Y-91435818D01*
X156640017Y-91454754D01*
X156628466Y-91476365D01*
X156621353Y-91499814D01*
X156618951Y-91524200D01*
X156621353Y-91548586D01*
X156628466Y-91572035D01*
X156640017Y-91593646D01*
X156655557Y-91612582D01*
X157067175Y-92024200D01*
X156608806Y-92482569D01*
X156593266Y-92501505D01*
X156581715Y-92523116D01*
X156579248Y-92531248D01*
X156572200Y-92533386D01*
X156549835Y-92526602D01*
X156525449Y-92524200D01*
X155572200Y-92524200D01*
X155572200Y-92474999D01*
X155569798Y-92450613D01*
X155562685Y-92427164D01*
X155551134Y-92405553D01*
X155535589Y-92386611D01*
X155516647Y-92371066D01*
X155495036Y-92359515D01*
X155471587Y-92352402D01*
X155447201Y-92350000D01*
X154308248Y-92350000D01*
X154183373Y-92337701D01*
X154103258Y-92313398D01*
X154023145Y-92289097D01*
X153947052Y-92248424D01*
X153875482Y-92210169D01*
X153746051Y-92103949D01*
X153639831Y-91974518D01*
X153560904Y-91826857D01*
X153512299Y-91666627D01*
X153495888Y-91500000D01*
X153512299Y-91333373D01*
X153560904Y-91173143D01*
X153639831Y-91025482D01*
X153746051Y-90896051D01*
X153875482Y-90789831D01*
X154023143Y-90710904D01*
X154023145Y-90710903D01*
X154152791Y-90671576D01*
X154183373Y-90662299D01*
X154308248Y-90650000D01*
X155447201Y-90650000D01*
X155471587Y-90647598D01*
X155495036Y-90640485D01*
X155516647Y-90628934D01*
X155535589Y-90613389D01*
X155551134Y-90594447D01*
X155562685Y-90572836D01*
X155569798Y-90549387D01*
X155572200Y-90525001D01*
X155572200Y-90524200D01*
X156525449Y-90524200D01*
X156549835Y-90521798D01*
X156572200Y-90515014D01*
X156579248Y-90517152D01*
X156579248Y-90517152D01*
G37*
G36*
X135458471Y-90663859D02*
G01*
X135536827Y-90671576D01*
X135687628Y-90717321D01*
X135687630Y-90717322D01*
X135826605Y-90791606D01*
X135948422Y-90891578D01*
X136048394Y-91013395D01*
X136121989Y-91151081D01*
X136122679Y-91152372D01*
X136168424Y-91303173D01*
X136183870Y-91460000D01*
X136168424Y-91616827D01*
X136145627Y-91691977D01*
X136122678Y-91767630D01*
X136048394Y-91906605D01*
X135948422Y-92028422D01*
X135826605Y-92128394D01*
X135687630Y-92202678D01*
X135687628Y-92202679D01*
X135536827Y-92248424D01*
X135458471Y-92256141D01*
X135419294Y-92260000D01*
X135340706Y-92260000D01*
X135301529Y-92256141D01*
X135223173Y-92248424D01*
X135072372Y-92202679D01*
X135072370Y-92202678D01*
X134933395Y-92128394D01*
X134811578Y-92028422D01*
X134711606Y-91906605D01*
X134637322Y-91767630D01*
X134614373Y-91691977D01*
X134591576Y-91616827D01*
X134576130Y-91460000D01*
X134591576Y-91303173D01*
X134637321Y-91152372D01*
X134638011Y-91151081D01*
X134711606Y-91013395D01*
X134811578Y-90891578D01*
X134933395Y-90791606D01*
X135072370Y-90717322D01*
X135072372Y-90717321D01*
X135223173Y-90671576D01*
X135301529Y-90663859D01*
X135340706Y-90660000D01*
X135419294Y-90660000D01*
X135458471Y-90663859D01*
X135458471Y-90663859D01*
G37*
G36*
X143078471Y-90663859D02*
G01*
X143156827Y-90671576D01*
X143307628Y-90717321D01*
X143307630Y-90717322D01*
X143446605Y-90791606D01*
X143568422Y-90891578D01*
X143668394Y-91013395D01*
X143741989Y-91151081D01*
X143742679Y-91152372D01*
X143788424Y-91303173D01*
X143803870Y-91460000D01*
X143788424Y-91616827D01*
X143765627Y-91691977D01*
X143742678Y-91767630D01*
X143668394Y-91906605D01*
X143568422Y-92028422D01*
X143446605Y-92128394D01*
X143307630Y-92202678D01*
X143307628Y-92202679D01*
X143156827Y-92248424D01*
X143078471Y-92256141D01*
X143039294Y-92260000D01*
X142960706Y-92260000D01*
X142921529Y-92256141D01*
X142843173Y-92248424D01*
X142692372Y-92202679D01*
X142692370Y-92202678D01*
X142553395Y-92128394D01*
X142431578Y-92028422D01*
X142331606Y-91906605D01*
X142257322Y-91767630D01*
X142234373Y-91691977D01*
X142211576Y-91616827D01*
X142196130Y-91460000D01*
X142211576Y-91303173D01*
X142257321Y-91152372D01*
X142258011Y-91151081D01*
X142331606Y-91013395D01*
X142431578Y-90891578D01*
X142553395Y-90791606D01*
X142692370Y-90717322D01*
X142692372Y-90717321D01*
X142843173Y-90671576D01*
X142921529Y-90663859D01*
X142960706Y-90660000D01*
X143039294Y-90660000D01*
X143078471Y-90663859D01*
X143078471Y-90663859D01*
G37*
G36*
X112794427Y-89918022D02*
G01*
X112794430Y-89918023D01*
X112794431Y-89918023D01*
X112964081Y-89969486D01*
X112964083Y-89969487D01*
X112964086Y-89969488D01*
X113120431Y-90053056D01*
X113257475Y-90165525D01*
X113369944Y-90302569D01*
X113453512Y-90458914D01*
X113453513Y-90458917D01*
X113453514Y-90458919D01*
X113494626Y-90594447D01*
X113504978Y-90628573D01*
X113522354Y-90805000D01*
X113504978Y-90981427D01*
X113504977Y-90981430D01*
X113504977Y-90981431D01*
X113491615Y-91025481D01*
X113453512Y-91151086D01*
X113369944Y-91307431D01*
X113257475Y-91444475D01*
X113120431Y-91556944D01*
X112964086Y-91640512D01*
X112964083Y-91640513D01*
X112964081Y-91640514D01*
X112794431Y-91691977D01*
X112794430Y-91691977D01*
X112794427Y-91691978D01*
X112662211Y-91705000D01*
X111873789Y-91705000D01*
X111741573Y-91691978D01*
X111741570Y-91691977D01*
X111741569Y-91691977D01*
X111571919Y-91640514D01*
X111571917Y-91640513D01*
X111571914Y-91640512D01*
X111415569Y-91556944D01*
X111278525Y-91444475D01*
X111166056Y-91307431D01*
X111082488Y-91151086D01*
X111044386Y-91025481D01*
X111031023Y-90981431D01*
X111031023Y-90981430D01*
X111031022Y-90981427D01*
X111013646Y-90805000D01*
X111031022Y-90628573D01*
X111041374Y-90594447D01*
X111082486Y-90458919D01*
X111082487Y-90458917D01*
X111082488Y-90458914D01*
X111166056Y-90302569D01*
X111278525Y-90165525D01*
X111415569Y-90053056D01*
X111571914Y-89969488D01*
X111571917Y-89969487D01*
X111571919Y-89969486D01*
X111741569Y-89918023D01*
X111741570Y-89918023D01*
X111741573Y-89918022D01*
X111873789Y-89905000D01*
X112662211Y-89905000D01*
X112794427Y-89918022D01*
X112794427Y-89918022D01*
G37*
G36*
X148558265Y-87948398D02*
G01*
X148582651Y-87950800D01*
X149535900Y-87950800D01*
X149535900Y-88025001D01*
X149538302Y-88049387D01*
X149545415Y-88072836D01*
X149556966Y-88094447D01*
X149572511Y-88113389D01*
X149591453Y-88128934D01*
X149613064Y-88140485D01*
X149636513Y-88147598D01*
X149660899Y-88150000D01*
X150691752Y-88150000D01*
X150816627Y-88162299D01*
X150866148Y-88177321D01*
X150976855Y-88210903D01*
X150976857Y-88210904D01*
X151124518Y-88289831D01*
X151253949Y-88396051D01*
X151360169Y-88525482D01*
X151439096Y-88673143D01*
X151487701Y-88833373D01*
X151504112Y-89000000D01*
X151487701Y-89166627D01*
X151439096Y-89326857D01*
X151360169Y-89474518D01*
X151253949Y-89603949D01*
X151124518Y-89710169D01*
X150976857Y-89789096D01*
X150976855Y-89789097D01*
X150896742Y-89813399D01*
X150816627Y-89837701D01*
X150691752Y-89850000D01*
X149660899Y-89850000D01*
X149636513Y-89852402D01*
X149613064Y-89859515D01*
X149591453Y-89871066D01*
X149572511Y-89886611D01*
X149556966Y-89905553D01*
X149545415Y-89927164D01*
X149538302Y-89950613D01*
X149538284Y-89950800D01*
X148582651Y-89950800D01*
X148558265Y-89953202D01*
X148535900Y-89959986D01*
X148528852Y-89957848D01*
X148526385Y-89949716D01*
X148514834Y-89928105D01*
X148499294Y-89909169D01*
X148040925Y-89450800D01*
X148452543Y-89039182D01*
X148468083Y-89020246D01*
X148479634Y-88998635D01*
X148486747Y-88975186D01*
X148489149Y-88950800D01*
X148486747Y-88926414D01*
X148479634Y-88902965D01*
X148468083Y-88881354D01*
X148452543Y-88862418D01*
X148040925Y-88450800D01*
X148499294Y-87992431D01*
X148514834Y-87973495D01*
X148526385Y-87951884D01*
X148528852Y-87943752D01*
X148535900Y-87941614D01*
X148558265Y-87948398D01*
X148558265Y-87948398D01*
G37*
G36*
X146542948Y-87943752D02*
G01*
X146545415Y-87951884D01*
X146556966Y-87973495D01*
X146572506Y-87992431D01*
X147030875Y-88450800D01*
X146619257Y-88862418D01*
X146603717Y-88881354D01*
X146592166Y-88902965D01*
X146585053Y-88926414D01*
X146582651Y-88950800D01*
X146585053Y-88975186D01*
X146592166Y-88998635D01*
X146603717Y-89020246D01*
X146619257Y-89039182D01*
X147030875Y-89450800D01*
X146572506Y-89909169D01*
X146556966Y-89928105D01*
X146545415Y-89949716D01*
X146542948Y-89957848D01*
X146535900Y-89959986D01*
X146513535Y-89953202D01*
X146489149Y-89950800D01*
X145535900Y-89950800D01*
X145535900Y-87950800D01*
X146489149Y-87950800D01*
X146513535Y-87948398D01*
X146535900Y-87941614D01*
X146542948Y-87943752D01*
X146542948Y-87943752D01*
G37*
G36*
X143078471Y-88123859D02*
G01*
X143156827Y-88131576D01*
X143307628Y-88177321D01*
X143307630Y-88177322D01*
X143446605Y-88251606D01*
X143568422Y-88351578D01*
X143668394Y-88473395D01*
X143696235Y-88525482D01*
X143742679Y-88612372D01*
X143788424Y-88763173D01*
X143803870Y-88920000D01*
X143788424Y-89076827D01*
X143742679Y-89227628D01*
X143742678Y-89227630D01*
X143668394Y-89366605D01*
X143568422Y-89488422D01*
X143446605Y-89588394D01*
X143307630Y-89662678D01*
X143307628Y-89662679D01*
X143156827Y-89708424D01*
X143078471Y-89716141D01*
X143039294Y-89720000D01*
X142960706Y-89720000D01*
X142921529Y-89716141D01*
X142843173Y-89708424D01*
X142692372Y-89662679D01*
X142692370Y-89662678D01*
X142553395Y-89588394D01*
X142431578Y-89488422D01*
X142331606Y-89366605D01*
X142257322Y-89227630D01*
X142257321Y-89227628D01*
X142211576Y-89076827D01*
X142196130Y-88920000D01*
X142211576Y-88763173D01*
X142257321Y-88612372D01*
X142303765Y-88525482D01*
X142331606Y-88473395D01*
X142431578Y-88351578D01*
X142553395Y-88251606D01*
X142692370Y-88177322D01*
X142692372Y-88177321D01*
X142843173Y-88131576D01*
X142921529Y-88123859D01*
X142960706Y-88120000D01*
X143039294Y-88120000D01*
X143078471Y-88123859D01*
X143078471Y-88123859D01*
G37*
G36*
X135458471Y-88123859D02*
G01*
X135536827Y-88131576D01*
X135687628Y-88177321D01*
X135687630Y-88177322D01*
X135826605Y-88251606D01*
X135948422Y-88351578D01*
X136048394Y-88473395D01*
X136076235Y-88525482D01*
X136122679Y-88612372D01*
X136168424Y-88763173D01*
X136183870Y-88920000D01*
X136168424Y-89076827D01*
X136122679Y-89227628D01*
X136122678Y-89227630D01*
X136048394Y-89366605D01*
X135948422Y-89488422D01*
X135826605Y-89588394D01*
X135687630Y-89662678D01*
X135687628Y-89662679D01*
X135536827Y-89708424D01*
X135458471Y-89716141D01*
X135419294Y-89720000D01*
X135340706Y-89720000D01*
X135301529Y-89716141D01*
X135223173Y-89708424D01*
X135072372Y-89662679D01*
X135072370Y-89662678D01*
X134933395Y-89588394D01*
X134811578Y-89488422D01*
X134711606Y-89366605D01*
X134637322Y-89227630D01*
X134637321Y-89227628D01*
X134591576Y-89076827D01*
X134576130Y-88920000D01*
X134591576Y-88763173D01*
X134637321Y-88612372D01*
X134683765Y-88525482D01*
X134711606Y-88473395D01*
X134811578Y-88351578D01*
X134933395Y-88251606D01*
X135072370Y-88177322D01*
X135072372Y-88177321D01*
X135223173Y-88131576D01*
X135301529Y-88123859D01*
X135340706Y-88120000D01*
X135419294Y-88120000D01*
X135458471Y-88123859D01*
X135458471Y-88123859D01*
G37*
G36*
X101776490Y-86858819D02*
G01*
X101840889Y-86871629D01*
X102022878Y-86947011D01*
X102186663Y-87056449D01*
X102325951Y-87195737D01*
X102435389Y-87359522D01*
X102510771Y-87541511D01*
X102510771Y-87541512D01*
X102549200Y-87734707D01*
X102549200Y-87931693D01*
X102544400Y-87955825D01*
X102510771Y-88124889D01*
X102435389Y-88306878D01*
X102325951Y-88470663D01*
X102186663Y-88609951D01*
X102022878Y-88719389D01*
X101840889Y-88794771D01*
X101776490Y-88807581D01*
X101647693Y-88833200D01*
X101450707Y-88833200D01*
X101321910Y-88807581D01*
X101257511Y-88794771D01*
X101075522Y-88719389D01*
X100911737Y-88609951D01*
X100772449Y-88470663D01*
X100663011Y-88306878D01*
X100587629Y-88124889D01*
X100554000Y-87955825D01*
X100549200Y-87931693D01*
X100549200Y-87734707D01*
X100587629Y-87541512D01*
X100587629Y-87541511D01*
X100663011Y-87359522D01*
X100772449Y-87195737D01*
X100911737Y-87056449D01*
X101075522Y-86947011D01*
X101257511Y-86871629D01*
X101321910Y-86858819D01*
X101450707Y-86833200D01*
X101647693Y-86833200D01*
X101776490Y-86858819D01*
X101776490Y-86858819D01*
G37*
G36*
X99134209Y-87297291D02*
G01*
X99169629Y-87304336D01*
X99219676Y-87325067D01*
X99269724Y-87345797D01*
X99359802Y-87405985D01*
X99436415Y-87482598D01*
X99496603Y-87572676D01*
X99538064Y-87672772D01*
X99559200Y-87779028D01*
X99559200Y-87887372D01*
X99538064Y-87993628D01*
X99496603Y-88093724D01*
X99436415Y-88183802D01*
X99359802Y-88260415D01*
X99269724Y-88320603D01*
X99219676Y-88341334D01*
X99169629Y-88362064D01*
X99134209Y-88369109D01*
X99063372Y-88383200D01*
X98955028Y-88383200D01*
X98884191Y-88369109D01*
X98848771Y-88362064D01*
X98798724Y-88341334D01*
X98748676Y-88320603D01*
X98658598Y-88260415D01*
X98581985Y-88183802D01*
X98521797Y-88093724D01*
X98480336Y-87993628D01*
X98459200Y-87887372D01*
X98459200Y-87779028D01*
X98480336Y-87672772D01*
X98521797Y-87572676D01*
X98581985Y-87482598D01*
X98658598Y-87405985D01*
X98748676Y-87345797D01*
X98798724Y-87325066D01*
X98848771Y-87304336D01*
X98884191Y-87297291D01*
X98955028Y-87283200D01*
X99063372Y-87283200D01*
X99134209Y-87297291D01*
X99134209Y-87297291D01*
G37*
G36*
X158730965Y-85484598D02*
G01*
X158755351Y-85487000D01*
X159708600Y-85487000D01*
X159708600Y-87487000D01*
X158755351Y-87487000D01*
X158730965Y-87489402D01*
X158708600Y-87496186D01*
X158701552Y-87494048D01*
X158699085Y-87485916D01*
X158687534Y-87464305D01*
X158671994Y-87445369D01*
X158213625Y-86987000D01*
X158625243Y-86575382D01*
X158640783Y-86556446D01*
X158652334Y-86534835D01*
X158659447Y-86511386D01*
X158661849Y-86487000D01*
X158659447Y-86462614D01*
X158652334Y-86439165D01*
X158640783Y-86417554D01*
X158625243Y-86398618D01*
X158213625Y-85987000D01*
X158671994Y-85528631D01*
X158687534Y-85509695D01*
X158699085Y-85488084D01*
X158701552Y-85479952D01*
X158708600Y-85477814D01*
X158730965Y-85484598D01*
X158730965Y-85484598D01*
G37*
G36*
X156715648Y-85479952D02*
G01*
X156718115Y-85488084D01*
X156729666Y-85509695D01*
X156745206Y-85528631D01*
X157203575Y-85987000D01*
X156791957Y-86398618D01*
X156776417Y-86417554D01*
X156764866Y-86439165D01*
X156757753Y-86462614D01*
X156755351Y-86487000D01*
X156757753Y-86511386D01*
X156764866Y-86534835D01*
X156776417Y-86556446D01*
X156791957Y-86575382D01*
X157203575Y-86987000D01*
X156745206Y-87445369D01*
X156729666Y-87464305D01*
X156718115Y-87485916D01*
X156715648Y-87494048D01*
X156708600Y-87496186D01*
X156686235Y-87489402D01*
X156661849Y-87487000D01*
X155708600Y-87487000D01*
X155708600Y-87474999D01*
X155706198Y-87450613D01*
X155699085Y-87427164D01*
X155687534Y-87405553D01*
X155671989Y-87386611D01*
X155653047Y-87371066D01*
X155631436Y-87359515D01*
X155607987Y-87352402D01*
X155583601Y-87350000D01*
X154308248Y-87350000D01*
X154183373Y-87337701D01*
X154103258Y-87313398D01*
X154023145Y-87289097D01*
X154023143Y-87289096D01*
X153875482Y-87210169D01*
X153746051Y-87103949D01*
X153639831Y-86974518D01*
X153560904Y-86826857D01*
X153560828Y-86826606D01*
X153512300Y-86666629D01*
X153512299Y-86666627D01*
X153495888Y-86500000D01*
X153512299Y-86333373D01*
X153545727Y-86223175D01*
X153560903Y-86173145D01*
X153639832Y-86025481D01*
X153746051Y-85896051D01*
X153875482Y-85789831D01*
X154023143Y-85710904D01*
X154023145Y-85710903D01*
X154103258Y-85686602D01*
X154183373Y-85662299D01*
X154308248Y-85650000D01*
X155583601Y-85650000D01*
X155607987Y-85647598D01*
X155631436Y-85640485D01*
X155653047Y-85628934D01*
X155671989Y-85613389D01*
X155687534Y-85594447D01*
X155699085Y-85572836D01*
X155706198Y-85549387D01*
X155708600Y-85525001D01*
X155708600Y-85487000D01*
X156661849Y-85487000D01*
X156686235Y-85484598D01*
X156708600Y-85477814D01*
X156715648Y-85479952D01*
X156715648Y-85479952D01*
G37*
G36*
X143078471Y-85583859D02*
G01*
X143156827Y-85591576D01*
X143307628Y-85637321D01*
X143307630Y-85637322D01*
X143446605Y-85711606D01*
X143568422Y-85811578D01*
X143668394Y-85933395D01*
X143717615Y-86025481D01*
X143742679Y-86072372D01*
X143788424Y-86223173D01*
X143803870Y-86380000D01*
X143788424Y-86536827D01*
X143749049Y-86666629D01*
X143742678Y-86687630D01*
X143668394Y-86826605D01*
X143568422Y-86948422D01*
X143446605Y-87048394D01*
X143342671Y-87103948D01*
X143307628Y-87122679D01*
X143156827Y-87168424D01*
X143078471Y-87176141D01*
X143039294Y-87180000D01*
X142960706Y-87180000D01*
X142921529Y-87176141D01*
X142843173Y-87168424D01*
X142692372Y-87122679D01*
X142657329Y-87103948D01*
X142553395Y-87048394D01*
X142431578Y-86948422D01*
X142331606Y-86826605D01*
X142257322Y-86687630D01*
X142250951Y-86666629D01*
X142211576Y-86536827D01*
X142196130Y-86380000D01*
X142211576Y-86223173D01*
X142257321Y-86072372D01*
X142282385Y-86025481D01*
X142331606Y-85933395D01*
X142431578Y-85811578D01*
X142553395Y-85711606D01*
X142692370Y-85637322D01*
X142692372Y-85637321D01*
X142843173Y-85591576D01*
X142921529Y-85583859D01*
X142960706Y-85580000D01*
X143039294Y-85580000D01*
X143078471Y-85583859D01*
X143078471Y-85583859D01*
G37*
G36*
X135458471Y-85583859D02*
G01*
X135536827Y-85591576D01*
X135687628Y-85637321D01*
X135687630Y-85637322D01*
X135826605Y-85711606D01*
X135948422Y-85811578D01*
X136048394Y-85933395D01*
X136097615Y-86025481D01*
X136122679Y-86072372D01*
X136168424Y-86223173D01*
X136183870Y-86380000D01*
X136168424Y-86536827D01*
X136129049Y-86666629D01*
X136122678Y-86687630D01*
X136048394Y-86826605D01*
X135948422Y-86948422D01*
X135826605Y-87048394D01*
X135722671Y-87103948D01*
X135687628Y-87122679D01*
X135536827Y-87168424D01*
X135458471Y-87176141D01*
X135419294Y-87180000D01*
X135340706Y-87180000D01*
X135301529Y-87176141D01*
X135223173Y-87168424D01*
X135072372Y-87122679D01*
X135037329Y-87103948D01*
X134933395Y-87048394D01*
X134811578Y-86948422D01*
X134711606Y-86826605D01*
X134637322Y-86687630D01*
X134630951Y-86666629D01*
X134591576Y-86536827D01*
X134576130Y-86380000D01*
X134591576Y-86223173D01*
X134637321Y-86072372D01*
X134662385Y-86025481D01*
X134711606Y-85933395D01*
X134811578Y-85811578D01*
X134933395Y-85711606D01*
X135072370Y-85637322D01*
X135072372Y-85637321D01*
X135223173Y-85591576D01*
X135301529Y-85583859D01*
X135340706Y-85580000D01*
X135419294Y-85580000D01*
X135458471Y-85583859D01*
X135458471Y-85583859D01*
G37*
G36*
X119671200Y-86930600D02*
G01*
X117971200Y-86930600D01*
X117971200Y-85230600D01*
X119671200Y-85230600D01*
X119671200Y-86930600D01*
X119671200Y-86930600D01*
G37*
G36*
X112794427Y-84838022D02*
G01*
X112794430Y-84838023D01*
X112794431Y-84838023D01*
X112964081Y-84889486D01*
X112964083Y-84889487D01*
X112964086Y-84889488D01*
X113120431Y-84973056D01*
X113257475Y-85085525D01*
X113369944Y-85222569D01*
X113453512Y-85378914D01*
X113453513Y-85378917D01*
X113453514Y-85378919D01*
X113504977Y-85548569D01*
X113504978Y-85548573D01*
X113522354Y-85725000D01*
X113504978Y-85901427D01*
X113504977Y-85901430D01*
X113504977Y-85901431D01*
X113467347Y-86025481D01*
X113453512Y-86071086D01*
X113369944Y-86227431D01*
X113257475Y-86364475D01*
X113120431Y-86476944D01*
X112964086Y-86560512D01*
X112964083Y-86560513D01*
X112964081Y-86560514D01*
X112794431Y-86611977D01*
X112794430Y-86611977D01*
X112794427Y-86611978D01*
X112662211Y-86625000D01*
X111873789Y-86625000D01*
X111741573Y-86611978D01*
X111741570Y-86611977D01*
X111741569Y-86611977D01*
X111571919Y-86560514D01*
X111571917Y-86560513D01*
X111571914Y-86560512D01*
X111415569Y-86476944D01*
X111278525Y-86364475D01*
X111166056Y-86227431D01*
X111082488Y-86071086D01*
X111068654Y-86025481D01*
X111031023Y-85901431D01*
X111031023Y-85901430D01*
X111031022Y-85901427D01*
X111013646Y-85725000D01*
X111031022Y-85548573D01*
X111031023Y-85548569D01*
X111082486Y-85378919D01*
X111082487Y-85378917D01*
X111082488Y-85378914D01*
X111166056Y-85222569D01*
X111278525Y-85085525D01*
X111415569Y-84973056D01*
X111571914Y-84889488D01*
X111571917Y-84889487D01*
X111571919Y-84889486D01*
X111741569Y-84838023D01*
X111741570Y-84838023D01*
X111741573Y-84838022D01*
X111873789Y-84825000D01*
X112662211Y-84825000D01*
X112794427Y-84838022D01*
X112794427Y-84838022D01*
G37*
G36*
X102549200Y-86293200D02*
G01*
X100549200Y-86293200D01*
X100549200Y-84293200D01*
X102549200Y-84293200D01*
X102549200Y-86293200D01*
X102549200Y-86293200D01*
G37*
G36*
X99134209Y-84757291D02*
G01*
X99169629Y-84764336D01*
X99219676Y-84785067D01*
X99269724Y-84805797D01*
X99359802Y-84865985D01*
X99436415Y-84942598D01*
X99496603Y-85032676D01*
X99538064Y-85132772D01*
X99557524Y-85230600D01*
X99559200Y-85239030D01*
X99559200Y-85347370D01*
X99538064Y-85453629D01*
X99517334Y-85503676D01*
X99496603Y-85553724D01*
X99436415Y-85643802D01*
X99359802Y-85720415D01*
X99269724Y-85780603D01*
X99247443Y-85789832D01*
X99169629Y-85822064D01*
X99134209Y-85829109D01*
X99063372Y-85843200D01*
X98955028Y-85843200D01*
X98884191Y-85829109D01*
X98848771Y-85822064D01*
X98770957Y-85789832D01*
X98748676Y-85780603D01*
X98658598Y-85720415D01*
X98581985Y-85643802D01*
X98521797Y-85553724D01*
X98501066Y-85503676D01*
X98480336Y-85453629D01*
X98459200Y-85347370D01*
X98459200Y-85239030D01*
X98460877Y-85230600D01*
X98480336Y-85132772D01*
X98521797Y-85032676D01*
X98581985Y-84942598D01*
X98658598Y-84865985D01*
X98748676Y-84805797D01*
X98798724Y-84785067D01*
X98848771Y-84764336D01*
X98884191Y-84757291D01*
X98955028Y-84743200D01*
X99063372Y-84743200D01*
X99134209Y-84757291D01*
X99134209Y-84757291D01*
G37*
G36*
X118987827Y-82702899D02*
G01*
X119067942Y-82727202D01*
X119148055Y-82751503D01*
X119148057Y-82751504D01*
X119295718Y-82830431D01*
X119425149Y-82936651D01*
X119531369Y-83066082D01*
X119610296Y-83213743D01*
X119658901Y-83373973D01*
X119675312Y-83540600D01*
X119658901Y-83707227D01*
X119658900Y-83707229D01*
X119623335Y-83824475D01*
X119610296Y-83867457D01*
X119531369Y-84015118D01*
X119425149Y-84144549D01*
X119295718Y-84250769D01*
X119148057Y-84329696D01*
X119148055Y-84329697D01*
X119067942Y-84353998D01*
X118987827Y-84378301D01*
X118862952Y-84390600D01*
X118779448Y-84390600D01*
X118654573Y-84378301D01*
X118574458Y-84353998D01*
X118494345Y-84329697D01*
X118494343Y-84329696D01*
X118346682Y-84250769D01*
X118217251Y-84144549D01*
X118111031Y-84015118D01*
X118032104Y-83867457D01*
X118019066Y-83824475D01*
X117983500Y-83707229D01*
X117983499Y-83707227D01*
X117967088Y-83540600D01*
X117983499Y-83373973D01*
X118032104Y-83213743D01*
X118111031Y-83066082D01*
X118217251Y-82936651D01*
X118346682Y-82830431D01*
X118494343Y-82751504D01*
X118494345Y-82751503D01*
X118574458Y-82727202D01*
X118654573Y-82702899D01*
X118779448Y-82690600D01*
X118862952Y-82690600D01*
X118987827Y-82702899D01*
X118987827Y-82702899D01*
G37*
G36*
X112794427Y-82298022D02*
G01*
X112794430Y-82298023D01*
X112794431Y-82298023D01*
X112964081Y-82349486D01*
X112964083Y-82349487D01*
X112964086Y-82349488D01*
X113120431Y-82433056D01*
X113257475Y-82545525D01*
X113369944Y-82682569D01*
X113453512Y-82838914D01*
X113453513Y-82838917D01*
X113453514Y-82838919D01*
X113483161Y-82936652D01*
X113504978Y-83008573D01*
X113522354Y-83185000D01*
X113504978Y-83361427D01*
X113453512Y-83531086D01*
X113369944Y-83687431D01*
X113257475Y-83824475D01*
X113120431Y-83936944D01*
X112964086Y-84020512D01*
X112964083Y-84020513D01*
X112964081Y-84020514D01*
X112794431Y-84071977D01*
X112794430Y-84071977D01*
X112794427Y-84071978D01*
X112662211Y-84085000D01*
X111873789Y-84085000D01*
X111741573Y-84071978D01*
X111741570Y-84071977D01*
X111741569Y-84071977D01*
X111571919Y-84020514D01*
X111571917Y-84020513D01*
X111571914Y-84020512D01*
X111415569Y-83936944D01*
X111278525Y-83824475D01*
X111166056Y-83687431D01*
X111082488Y-83531086D01*
X111031022Y-83361427D01*
X111013646Y-83185000D01*
X111031022Y-83008573D01*
X111052839Y-82936652D01*
X111082486Y-82838919D01*
X111082487Y-82838917D01*
X111082488Y-82838914D01*
X111166056Y-82682569D01*
X111278525Y-82545525D01*
X111415569Y-82433056D01*
X111571914Y-82349488D01*
X111571917Y-82349487D01*
X111571919Y-82349486D01*
X111741569Y-82298023D01*
X111741570Y-82298023D01*
X111741573Y-82298022D01*
X111873789Y-82285000D01*
X112662211Y-82285000D01*
X112794427Y-82298022D01*
X112794427Y-82298022D01*
G37*
G36*
X118987827Y-80162899D02*
G01*
X119067942Y-80187201D01*
X119148055Y-80211503D01*
X119148057Y-80211504D01*
X119295718Y-80290431D01*
X119425149Y-80396651D01*
X119531369Y-80526082D01*
X119610296Y-80673743D01*
X119658901Y-80833973D01*
X119675312Y-81000600D01*
X119658901Y-81167227D01*
X119610296Y-81327457D01*
X119531369Y-81475118D01*
X119425149Y-81604549D01*
X119295718Y-81710769D01*
X119148057Y-81789696D01*
X119148055Y-81789697D01*
X119067942Y-81813999D01*
X118987827Y-81838301D01*
X118862952Y-81850600D01*
X118779448Y-81850600D01*
X118654573Y-81838301D01*
X118574458Y-81813999D01*
X118494345Y-81789697D01*
X118494343Y-81789696D01*
X118346682Y-81710769D01*
X118217251Y-81604549D01*
X118111031Y-81475118D01*
X118032104Y-81327457D01*
X117983499Y-81167227D01*
X117967088Y-81000600D01*
X117983499Y-80833973D01*
X118032104Y-80673743D01*
X118111031Y-80526082D01*
X118217251Y-80396651D01*
X118346682Y-80290431D01*
X118494343Y-80211504D01*
X118494345Y-80211503D01*
X118574458Y-80187201D01*
X118654573Y-80162899D01*
X118779448Y-80150600D01*
X118862952Y-80150600D01*
X118987827Y-80162899D01*
X118987827Y-80162899D01*
G37*
G36*
X101615380Y-73044766D02*
G01*
X101914837Y-73104331D01*
X102479001Y-73338015D01*
X102986735Y-73677272D01*
X103418528Y-74109065D01*
X103757785Y-74616799D01*
X103991469Y-75180963D01*
X103991469Y-75180965D01*
X104110600Y-75779875D01*
X104110600Y-76390525D01*
X104078186Y-76553479D01*
X103991469Y-76989437D01*
X103757785Y-77553601D01*
X103418528Y-78061335D01*
X102986735Y-78493128D01*
X102479001Y-78832385D01*
X101914837Y-79066069D01*
X101615380Y-79125635D01*
X101315925Y-79185200D01*
X100705275Y-79185200D01*
X100405820Y-79125635D01*
X100106363Y-79066069D01*
X99542199Y-78832385D01*
X99034465Y-78493128D01*
X98602672Y-78061335D01*
X98263415Y-77553601D01*
X98029731Y-76989437D01*
X97943014Y-76553479D01*
X97910600Y-76390525D01*
X97910600Y-75779875D01*
X98029731Y-75180965D01*
X98029731Y-75180963D01*
X98263415Y-74616799D01*
X98602672Y-74109065D01*
X99034465Y-73677272D01*
X99542199Y-73338015D01*
X100106363Y-73104331D01*
X100405820Y-73044766D01*
X100705275Y-72985200D01*
X101315925Y-72985200D01*
X101615380Y-73044766D01*
X101615380Y-73044766D01*
G37*
G36*
X159615380Y-73044766D02*
G01*
X159914837Y-73104331D01*
X160479001Y-73338015D01*
X160986735Y-73677272D01*
X161418528Y-74109065D01*
X161757785Y-74616799D01*
X161991469Y-75180963D01*
X161991469Y-75180965D01*
X162110600Y-75779875D01*
X162110600Y-76390525D01*
X162078186Y-76553479D01*
X161991469Y-76989437D01*
X161757785Y-77553601D01*
X161418528Y-78061335D01*
X160986735Y-78493128D01*
X160479001Y-78832385D01*
X159914837Y-79066069D01*
X159615380Y-79125634D01*
X159315925Y-79185200D01*
X158705275Y-79185200D01*
X158405820Y-79125635D01*
X158106363Y-79066069D01*
X157542199Y-78832385D01*
X157034465Y-78493128D01*
X156602672Y-78061335D01*
X156263415Y-77553601D01*
X156029731Y-76989437D01*
X155943014Y-76553479D01*
X155910600Y-76390525D01*
X155910600Y-75779875D01*
X156029731Y-75180965D01*
X156029731Y-75180963D01*
X156263415Y-74616799D01*
X156602672Y-74109065D01*
X157034465Y-73677272D01*
X157542199Y-73338015D01*
X158106363Y-73104331D01*
X158405820Y-73044766D01*
X158705275Y-72985200D01*
X159315925Y-72985200D01*
X159615380Y-73044766D01*
X159615380Y-73044766D01*
G37*
G36*
X154225312Y-76495765D02*
G01*
X154309895Y-76504096D01*
X154472684Y-76553478D01*
X154472687Y-76553479D01*
X154622707Y-76633666D01*
X154622708Y-76633667D01*
X154622712Y-76633669D01*
X154754212Y-76741588D01*
X154862131Y-76873088D01*
X154862133Y-76873092D01*
X154862134Y-76873093D01*
X154942321Y-77023113D01*
X154942322Y-77023116D01*
X154991704Y-77185905D01*
X155008378Y-77355200D01*
X154991704Y-77524495D01*
X154949920Y-77662238D01*
X154942321Y-77687287D01*
X154862134Y-77837307D01*
X154862131Y-77837312D01*
X154754212Y-77968812D01*
X154622712Y-78076731D01*
X154622708Y-78076733D01*
X154622707Y-78076734D01*
X154472687Y-78156921D01*
X154472684Y-78156922D01*
X154309895Y-78206304D01*
X154225312Y-78214635D01*
X154183021Y-78218800D01*
X154098179Y-78218800D01*
X154055888Y-78214635D01*
X153971305Y-78206304D01*
X153808516Y-78156922D01*
X153808513Y-78156921D01*
X153658493Y-78076734D01*
X153658492Y-78076733D01*
X153658488Y-78076731D01*
X153526988Y-77968812D01*
X153419069Y-77837312D01*
X153419066Y-77837307D01*
X153338879Y-77687287D01*
X153331280Y-77662238D01*
X153289496Y-77524495D01*
X153272822Y-77355200D01*
X153289496Y-77185905D01*
X153338878Y-77023116D01*
X153338879Y-77023113D01*
X153419066Y-76873093D01*
X153419067Y-76873092D01*
X153419069Y-76873088D01*
X153526988Y-76741588D01*
X153658488Y-76633669D01*
X153658492Y-76633667D01*
X153658493Y-76633666D01*
X153808513Y-76553479D01*
X153808516Y-76553478D01*
X153971305Y-76504096D01*
X154055888Y-76495765D01*
X154098179Y-76491600D01*
X154183021Y-76491600D01*
X154225312Y-76495765D01*
X154225312Y-76495765D01*
G37*
G36*
X116125312Y-76495765D02*
G01*
X116209895Y-76504096D01*
X116372684Y-76553478D01*
X116372687Y-76553479D01*
X116522707Y-76633666D01*
X116522708Y-76633667D01*
X116522712Y-76633669D01*
X116654212Y-76741588D01*
X116762131Y-76873088D01*
X116762133Y-76873092D01*
X116762134Y-76873093D01*
X116842321Y-77023113D01*
X116842322Y-77023116D01*
X116891704Y-77185905D01*
X116908378Y-77355200D01*
X116891704Y-77524495D01*
X116849920Y-77662238D01*
X116842321Y-77687287D01*
X116762134Y-77837307D01*
X116762131Y-77837312D01*
X116654212Y-77968812D01*
X116522712Y-78076731D01*
X116522708Y-78076733D01*
X116522707Y-78076734D01*
X116372687Y-78156921D01*
X116372684Y-78156922D01*
X116209895Y-78206304D01*
X116125312Y-78214635D01*
X116083021Y-78218800D01*
X115998179Y-78218800D01*
X115955888Y-78214635D01*
X115871305Y-78206304D01*
X115708516Y-78156922D01*
X115708513Y-78156921D01*
X115558493Y-78076734D01*
X115558492Y-78076733D01*
X115558488Y-78076731D01*
X115426988Y-77968812D01*
X115319069Y-77837312D01*
X115319066Y-77837307D01*
X115238879Y-77687287D01*
X115231280Y-77662238D01*
X115189496Y-77524495D01*
X115172822Y-77355200D01*
X115189496Y-77185905D01*
X115238878Y-77023116D01*
X115238879Y-77023113D01*
X115319066Y-76873093D01*
X115319067Y-76873092D01*
X115319069Y-76873088D01*
X115426988Y-76741588D01*
X115558488Y-76633669D01*
X115558492Y-76633667D01*
X115558493Y-76633666D01*
X115708513Y-76553479D01*
X115708516Y-76553478D01*
X115871305Y-76504096D01*
X115955888Y-76495765D01*
X115998179Y-76491600D01*
X116083021Y-76491600D01*
X116125312Y-76495765D01*
X116125312Y-76495765D01*
G37*
G36*
X113585312Y-76495765D02*
G01*
X113669895Y-76504096D01*
X113832684Y-76553478D01*
X113832687Y-76553479D01*
X113982707Y-76633666D01*
X113982708Y-76633667D01*
X113982712Y-76633669D01*
X114114212Y-76741588D01*
X114222131Y-76873088D01*
X114222133Y-76873092D01*
X114222134Y-76873093D01*
X114302321Y-77023113D01*
X114302322Y-77023116D01*
X114351704Y-77185905D01*
X114368378Y-77355200D01*
X114351704Y-77524495D01*
X114309920Y-77662238D01*
X114302321Y-77687287D01*
X114222134Y-77837307D01*
X114222131Y-77837312D01*
X114114212Y-77968812D01*
X113982712Y-78076731D01*
X113982708Y-78076733D01*
X113982707Y-78076734D01*
X113832687Y-78156921D01*
X113832684Y-78156922D01*
X113669895Y-78206304D01*
X113585312Y-78214635D01*
X113543021Y-78218800D01*
X113458179Y-78218800D01*
X113415888Y-78214635D01*
X113331305Y-78206304D01*
X113168516Y-78156922D01*
X113168513Y-78156921D01*
X113018493Y-78076734D01*
X113018492Y-78076733D01*
X113018488Y-78076731D01*
X112886988Y-77968812D01*
X112779069Y-77837312D01*
X112779066Y-77837307D01*
X112698879Y-77687287D01*
X112691280Y-77662238D01*
X112649496Y-77524495D01*
X112632822Y-77355200D01*
X112649496Y-77185905D01*
X112698878Y-77023116D01*
X112698879Y-77023113D01*
X112779066Y-76873093D01*
X112779067Y-76873092D01*
X112779069Y-76873088D01*
X112886988Y-76741588D01*
X113018488Y-76633669D01*
X113018492Y-76633667D01*
X113018493Y-76633666D01*
X113168513Y-76553479D01*
X113168516Y-76553478D01*
X113331305Y-76504096D01*
X113415888Y-76495765D01*
X113458179Y-76491600D01*
X113543021Y-76491600D01*
X113585312Y-76495765D01*
X113585312Y-76495765D01*
G37*
G36*
X106744200Y-78218800D02*
G01*
X105017000Y-78218800D01*
X105017000Y-76491600D01*
X106744200Y-76491600D01*
X106744200Y-78218800D01*
X106744200Y-78218800D01*
G37*
G36*
X151685312Y-76495765D02*
G01*
X151769895Y-76504096D01*
X151932684Y-76553478D01*
X151932687Y-76553479D01*
X152082707Y-76633666D01*
X152082708Y-76633667D01*
X152082712Y-76633669D01*
X152214212Y-76741588D01*
X152322131Y-76873088D01*
X152322133Y-76873092D01*
X152322134Y-76873093D01*
X152402321Y-77023113D01*
X152402322Y-77023116D01*
X152451704Y-77185905D01*
X152468378Y-77355200D01*
X152451704Y-77524495D01*
X152409920Y-77662238D01*
X152402321Y-77687287D01*
X152322134Y-77837307D01*
X152322131Y-77837312D01*
X152214212Y-77968812D01*
X152082712Y-78076731D01*
X152082708Y-78076733D01*
X152082707Y-78076734D01*
X151932687Y-78156921D01*
X151932684Y-78156922D01*
X151769895Y-78206304D01*
X151685312Y-78214635D01*
X151643021Y-78218800D01*
X151558179Y-78218800D01*
X151515888Y-78214635D01*
X151431305Y-78206304D01*
X151268516Y-78156922D01*
X151268513Y-78156921D01*
X151118493Y-78076734D01*
X151118492Y-78076733D01*
X151118488Y-78076731D01*
X150986988Y-77968812D01*
X150879069Y-77837312D01*
X150879066Y-77837307D01*
X150798879Y-77687287D01*
X150791280Y-77662238D01*
X150749496Y-77524495D01*
X150732822Y-77355200D01*
X150749496Y-77185905D01*
X150798878Y-77023116D01*
X150798879Y-77023113D01*
X150879066Y-76873093D01*
X150879067Y-76873092D01*
X150879069Y-76873088D01*
X150986988Y-76741588D01*
X151118488Y-76633669D01*
X151118492Y-76633667D01*
X151118493Y-76633666D01*
X151268513Y-76553479D01*
X151268516Y-76553478D01*
X151431305Y-76504096D01*
X151515888Y-76495765D01*
X151558179Y-76491600D01*
X151643021Y-76491600D01*
X151685312Y-76495765D01*
X151685312Y-76495765D01*
G37*
G36*
X149145312Y-76495765D02*
G01*
X149229895Y-76504096D01*
X149392684Y-76553478D01*
X149392687Y-76553479D01*
X149542707Y-76633666D01*
X149542708Y-76633667D01*
X149542712Y-76633669D01*
X149674212Y-76741588D01*
X149782131Y-76873088D01*
X149782133Y-76873092D01*
X149782134Y-76873093D01*
X149862321Y-77023113D01*
X149862322Y-77023116D01*
X149911704Y-77185905D01*
X149928378Y-77355200D01*
X149911704Y-77524495D01*
X149869920Y-77662238D01*
X149862321Y-77687287D01*
X149782134Y-77837307D01*
X149782131Y-77837312D01*
X149674212Y-77968812D01*
X149542712Y-78076731D01*
X149542708Y-78076733D01*
X149542707Y-78076734D01*
X149392687Y-78156921D01*
X149392684Y-78156922D01*
X149229895Y-78206304D01*
X149145312Y-78214635D01*
X149103021Y-78218800D01*
X149018179Y-78218800D01*
X148975888Y-78214635D01*
X148891305Y-78206304D01*
X148728516Y-78156922D01*
X148728513Y-78156921D01*
X148578493Y-78076734D01*
X148578492Y-78076733D01*
X148578488Y-78076731D01*
X148446988Y-77968812D01*
X148339069Y-77837312D01*
X148339066Y-77837307D01*
X148258879Y-77687287D01*
X148251280Y-77662238D01*
X148209496Y-77524495D01*
X148192822Y-77355200D01*
X148209496Y-77185905D01*
X148258878Y-77023116D01*
X148258879Y-77023113D01*
X148339066Y-76873093D01*
X148339067Y-76873092D01*
X148339069Y-76873088D01*
X148446988Y-76741588D01*
X148578488Y-76633669D01*
X148578492Y-76633667D01*
X148578493Y-76633666D01*
X148728513Y-76553479D01*
X148728516Y-76553478D01*
X148891305Y-76504096D01*
X148975888Y-76495765D01*
X149018179Y-76491600D01*
X149103021Y-76491600D01*
X149145312Y-76495765D01*
X149145312Y-76495765D01*
G37*
G36*
X146605312Y-76495765D02*
G01*
X146689895Y-76504096D01*
X146852684Y-76553478D01*
X146852687Y-76553479D01*
X147002707Y-76633666D01*
X147002708Y-76633667D01*
X147002712Y-76633669D01*
X147134212Y-76741588D01*
X147242131Y-76873088D01*
X147242133Y-76873092D01*
X147242134Y-76873093D01*
X147322321Y-77023113D01*
X147322322Y-77023116D01*
X147371704Y-77185905D01*
X147388378Y-77355200D01*
X147371704Y-77524495D01*
X147329920Y-77662238D01*
X147322321Y-77687287D01*
X147242134Y-77837307D01*
X147242131Y-77837312D01*
X147134212Y-77968812D01*
X147002712Y-78076731D01*
X147002708Y-78076733D01*
X147002707Y-78076734D01*
X146852687Y-78156921D01*
X146852684Y-78156922D01*
X146689895Y-78206304D01*
X146605312Y-78214635D01*
X146563021Y-78218800D01*
X146478179Y-78218800D01*
X146435888Y-78214635D01*
X146351305Y-78206304D01*
X146188516Y-78156922D01*
X146188513Y-78156921D01*
X146038493Y-78076734D01*
X146038492Y-78076733D01*
X146038488Y-78076731D01*
X145906988Y-77968812D01*
X145799069Y-77837312D01*
X145799066Y-77837307D01*
X145718879Y-77687287D01*
X145711280Y-77662238D01*
X145669496Y-77524495D01*
X145652822Y-77355200D01*
X145669496Y-77185905D01*
X145718878Y-77023116D01*
X145718879Y-77023113D01*
X145799066Y-76873093D01*
X145799067Y-76873092D01*
X145799069Y-76873088D01*
X145906988Y-76741588D01*
X146038488Y-76633669D01*
X146038492Y-76633667D01*
X146038493Y-76633666D01*
X146188513Y-76553479D01*
X146188516Y-76553478D01*
X146351305Y-76504096D01*
X146435888Y-76495765D01*
X146478179Y-76491600D01*
X146563021Y-76491600D01*
X146605312Y-76495765D01*
X146605312Y-76495765D01*
G37*
G36*
X144065312Y-76495765D02*
G01*
X144149895Y-76504096D01*
X144312684Y-76553478D01*
X144312687Y-76553479D01*
X144462707Y-76633666D01*
X144462708Y-76633667D01*
X144462712Y-76633669D01*
X144594212Y-76741588D01*
X144702131Y-76873088D01*
X144702133Y-76873092D01*
X144702134Y-76873093D01*
X144782321Y-77023113D01*
X144782322Y-77023116D01*
X144831704Y-77185905D01*
X144848378Y-77355200D01*
X144831704Y-77524495D01*
X144789920Y-77662238D01*
X144782321Y-77687287D01*
X144702134Y-77837307D01*
X144702131Y-77837312D01*
X144594212Y-77968812D01*
X144462712Y-78076731D01*
X144462708Y-78076733D01*
X144462707Y-78076734D01*
X144312687Y-78156921D01*
X144312684Y-78156922D01*
X144149895Y-78206304D01*
X144065312Y-78214635D01*
X144023021Y-78218800D01*
X143938179Y-78218800D01*
X143895888Y-78214635D01*
X143811305Y-78206304D01*
X143648516Y-78156922D01*
X143648513Y-78156921D01*
X143498493Y-78076734D01*
X143498492Y-78076733D01*
X143498488Y-78076731D01*
X143366988Y-77968812D01*
X143259069Y-77837312D01*
X143259066Y-77837307D01*
X143178879Y-77687287D01*
X143171280Y-77662238D01*
X143129496Y-77524495D01*
X143112822Y-77355200D01*
X143129496Y-77185905D01*
X143178878Y-77023116D01*
X143178879Y-77023113D01*
X143259066Y-76873093D01*
X143259067Y-76873092D01*
X143259069Y-76873088D01*
X143366988Y-76741588D01*
X143498488Y-76633669D01*
X143498492Y-76633667D01*
X143498493Y-76633666D01*
X143648513Y-76553479D01*
X143648516Y-76553478D01*
X143811305Y-76504096D01*
X143895888Y-76495765D01*
X143938179Y-76491600D01*
X144023021Y-76491600D01*
X144065312Y-76495765D01*
X144065312Y-76495765D01*
G37*
G36*
X141525312Y-76495765D02*
G01*
X141609895Y-76504096D01*
X141772684Y-76553478D01*
X141772687Y-76553479D01*
X141922707Y-76633666D01*
X141922708Y-76633667D01*
X141922712Y-76633669D01*
X142054212Y-76741588D01*
X142162131Y-76873088D01*
X142162133Y-76873092D01*
X142162134Y-76873093D01*
X142242321Y-77023113D01*
X142242322Y-77023116D01*
X142291704Y-77185905D01*
X142308378Y-77355200D01*
X142291704Y-77524495D01*
X142249920Y-77662238D01*
X142242321Y-77687287D01*
X142162134Y-77837307D01*
X142162131Y-77837312D01*
X142054212Y-77968812D01*
X141922712Y-78076731D01*
X141922708Y-78076733D01*
X141922707Y-78076734D01*
X141772687Y-78156921D01*
X141772684Y-78156922D01*
X141609895Y-78206304D01*
X141525312Y-78214635D01*
X141483021Y-78218800D01*
X141398179Y-78218800D01*
X141355888Y-78214635D01*
X141271305Y-78206304D01*
X141108516Y-78156922D01*
X141108513Y-78156921D01*
X140958493Y-78076734D01*
X140958492Y-78076733D01*
X140958488Y-78076731D01*
X140826988Y-77968812D01*
X140719069Y-77837312D01*
X140719066Y-77837307D01*
X140638879Y-77687287D01*
X140631280Y-77662238D01*
X140589496Y-77524495D01*
X140572822Y-77355200D01*
X140589496Y-77185905D01*
X140638878Y-77023116D01*
X140638879Y-77023113D01*
X140719066Y-76873093D01*
X140719067Y-76873092D01*
X140719069Y-76873088D01*
X140826988Y-76741588D01*
X140958488Y-76633669D01*
X140958492Y-76633667D01*
X140958493Y-76633666D01*
X141108513Y-76553479D01*
X141108516Y-76553478D01*
X141271305Y-76504096D01*
X141355888Y-76495765D01*
X141398179Y-76491600D01*
X141483021Y-76491600D01*
X141525312Y-76495765D01*
X141525312Y-76495765D01*
G37*
G36*
X136445312Y-76495765D02*
G01*
X136529895Y-76504096D01*
X136692684Y-76553478D01*
X136692687Y-76553479D01*
X136842707Y-76633666D01*
X136842708Y-76633667D01*
X136842712Y-76633669D01*
X136974212Y-76741588D01*
X137082131Y-76873088D01*
X137082133Y-76873092D01*
X137082134Y-76873093D01*
X137162321Y-77023113D01*
X137162322Y-77023116D01*
X137211704Y-77185905D01*
X137228378Y-77355200D01*
X137211704Y-77524495D01*
X137169920Y-77662238D01*
X137162321Y-77687287D01*
X137082134Y-77837307D01*
X137082131Y-77837312D01*
X136974212Y-77968812D01*
X136842712Y-78076731D01*
X136842708Y-78076733D01*
X136842707Y-78076734D01*
X136692687Y-78156921D01*
X136692684Y-78156922D01*
X136529895Y-78206304D01*
X136445312Y-78214635D01*
X136403021Y-78218800D01*
X136318179Y-78218800D01*
X136275888Y-78214635D01*
X136191305Y-78206304D01*
X136028516Y-78156922D01*
X136028513Y-78156921D01*
X135878493Y-78076734D01*
X135878492Y-78076733D01*
X135878488Y-78076731D01*
X135746988Y-77968812D01*
X135639069Y-77837312D01*
X135639066Y-77837307D01*
X135558879Y-77687287D01*
X135551280Y-77662238D01*
X135509496Y-77524495D01*
X135492822Y-77355200D01*
X135509496Y-77185905D01*
X135558878Y-77023116D01*
X135558879Y-77023113D01*
X135639066Y-76873093D01*
X135639067Y-76873092D01*
X135639069Y-76873088D01*
X135746988Y-76741588D01*
X135878488Y-76633669D01*
X135878492Y-76633667D01*
X135878493Y-76633666D01*
X136028513Y-76553479D01*
X136028516Y-76553478D01*
X136191305Y-76504096D01*
X136275888Y-76495765D01*
X136318179Y-76491600D01*
X136403021Y-76491600D01*
X136445312Y-76495765D01*
X136445312Y-76495765D01*
G37*
G36*
X133905312Y-76495765D02*
G01*
X133989895Y-76504096D01*
X134152684Y-76553478D01*
X134152687Y-76553479D01*
X134302707Y-76633666D01*
X134302708Y-76633667D01*
X134302712Y-76633669D01*
X134434212Y-76741588D01*
X134542131Y-76873088D01*
X134542133Y-76873092D01*
X134542134Y-76873093D01*
X134622321Y-77023113D01*
X134622322Y-77023116D01*
X134671704Y-77185905D01*
X134688378Y-77355200D01*
X134671704Y-77524495D01*
X134629920Y-77662238D01*
X134622321Y-77687287D01*
X134542134Y-77837307D01*
X134542131Y-77837312D01*
X134434212Y-77968812D01*
X134302712Y-78076731D01*
X134302708Y-78076733D01*
X134302707Y-78076734D01*
X134152687Y-78156921D01*
X134152684Y-78156922D01*
X133989895Y-78206304D01*
X133905312Y-78214635D01*
X133863021Y-78218800D01*
X133778179Y-78218800D01*
X133735888Y-78214635D01*
X133651305Y-78206304D01*
X133488516Y-78156922D01*
X133488513Y-78156921D01*
X133338493Y-78076734D01*
X133338492Y-78076733D01*
X133338488Y-78076731D01*
X133206988Y-77968812D01*
X133099069Y-77837312D01*
X133099066Y-77837307D01*
X133018879Y-77687287D01*
X133011280Y-77662238D01*
X132969496Y-77524495D01*
X132952822Y-77355200D01*
X132969496Y-77185905D01*
X133018878Y-77023116D01*
X133018879Y-77023113D01*
X133099066Y-76873093D01*
X133099067Y-76873092D01*
X133099069Y-76873088D01*
X133206988Y-76741588D01*
X133338488Y-76633669D01*
X133338492Y-76633667D01*
X133338493Y-76633666D01*
X133488513Y-76553479D01*
X133488516Y-76553478D01*
X133651305Y-76504096D01*
X133735888Y-76495765D01*
X133778179Y-76491600D01*
X133863021Y-76491600D01*
X133905312Y-76495765D01*
X133905312Y-76495765D01*
G37*
G36*
X131365312Y-76495765D02*
G01*
X131449895Y-76504096D01*
X131612684Y-76553478D01*
X131612687Y-76553479D01*
X131762707Y-76633666D01*
X131762708Y-76633667D01*
X131762712Y-76633669D01*
X131894212Y-76741588D01*
X132002131Y-76873088D01*
X132002133Y-76873092D01*
X132002134Y-76873093D01*
X132082321Y-77023113D01*
X132082322Y-77023116D01*
X132131704Y-77185905D01*
X132148378Y-77355200D01*
X132131704Y-77524495D01*
X132089920Y-77662238D01*
X132082321Y-77687287D01*
X132002134Y-77837307D01*
X132002131Y-77837312D01*
X131894212Y-77968812D01*
X131762712Y-78076731D01*
X131762708Y-78076733D01*
X131762707Y-78076734D01*
X131612687Y-78156921D01*
X131612684Y-78156922D01*
X131449895Y-78206304D01*
X131365312Y-78214635D01*
X131323021Y-78218800D01*
X131238179Y-78218800D01*
X131195888Y-78214635D01*
X131111305Y-78206304D01*
X130948516Y-78156922D01*
X130948513Y-78156921D01*
X130798493Y-78076734D01*
X130798492Y-78076733D01*
X130798488Y-78076731D01*
X130666988Y-77968812D01*
X130559069Y-77837312D01*
X130559066Y-77837307D01*
X130478879Y-77687287D01*
X130471280Y-77662238D01*
X130429496Y-77524495D01*
X130412822Y-77355200D01*
X130429496Y-77185905D01*
X130478878Y-77023116D01*
X130478879Y-77023113D01*
X130559066Y-76873093D01*
X130559067Y-76873092D01*
X130559069Y-76873088D01*
X130666988Y-76741588D01*
X130798488Y-76633669D01*
X130798492Y-76633667D01*
X130798493Y-76633666D01*
X130948513Y-76553479D01*
X130948516Y-76553478D01*
X131111305Y-76504096D01*
X131195888Y-76495765D01*
X131238179Y-76491600D01*
X131323021Y-76491600D01*
X131365312Y-76495765D01*
X131365312Y-76495765D01*
G37*
G36*
X128825312Y-76495765D02*
G01*
X128909895Y-76504096D01*
X129072684Y-76553478D01*
X129072687Y-76553479D01*
X129222707Y-76633666D01*
X129222708Y-76633667D01*
X129222712Y-76633669D01*
X129354212Y-76741588D01*
X129462131Y-76873088D01*
X129462133Y-76873092D01*
X129462134Y-76873093D01*
X129542321Y-77023113D01*
X129542322Y-77023116D01*
X129591704Y-77185905D01*
X129608378Y-77355200D01*
X129591704Y-77524495D01*
X129549920Y-77662238D01*
X129542321Y-77687287D01*
X129462134Y-77837307D01*
X129462131Y-77837312D01*
X129354212Y-77968812D01*
X129222712Y-78076731D01*
X129222708Y-78076733D01*
X129222707Y-78076734D01*
X129072687Y-78156921D01*
X129072684Y-78156922D01*
X128909895Y-78206304D01*
X128825312Y-78214635D01*
X128783021Y-78218800D01*
X128698179Y-78218800D01*
X128655888Y-78214635D01*
X128571305Y-78206304D01*
X128408516Y-78156922D01*
X128408513Y-78156921D01*
X128258493Y-78076734D01*
X128258492Y-78076733D01*
X128258488Y-78076731D01*
X128126988Y-77968812D01*
X128019069Y-77837312D01*
X128019066Y-77837307D01*
X127938879Y-77687287D01*
X127931280Y-77662238D01*
X127889496Y-77524495D01*
X127872822Y-77355200D01*
X127889496Y-77185905D01*
X127938878Y-77023116D01*
X127938879Y-77023113D01*
X128019066Y-76873093D01*
X128019067Y-76873092D01*
X128019069Y-76873088D01*
X128126988Y-76741588D01*
X128258488Y-76633669D01*
X128258492Y-76633667D01*
X128258493Y-76633666D01*
X128408513Y-76553479D01*
X128408516Y-76553478D01*
X128571305Y-76504096D01*
X128655888Y-76495765D01*
X128698179Y-76491600D01*
X128783021Y-76491600D01*
X128825312Y-76495765D01*
X128825312Y-76495765D01*
G37*
G36*
X126285312Y-76495765D02*
G01*
X126369895Y-76504096D01*
X126532684Y-76553478D01*
X126532687Y-76553479D01*
X126682707Y-76633666D01*
X126682708Y-76633667D01*
X126682712Y-76633669D01*
X126814212Y-76741588D01*
X126922131Y-76873088D01*
X126922133Y-76873092D01*
X126922134Y-76873093D01*
X127002321Y-77023113D01*
X127002322Y-77023116D01*
X127051704Y-77185905D01*
X127068378Y-77355200D01*
X127051704Y-77524495D01*
X127009920Y-77662238D01*
X127002321Y-77687287D01*
X126922134Y-77837307D01*
X126922131Y-77837312D01*
X126814212Y-77968812D01*
X126682712Y-78076731D01*
X126682708Y-78076733D01*
X126682707Y-78076734D01*
X126532687Y-78156921D01*
X126532684Y-78156922D01*
X126369895Y-78206304D01*
X126285312Y-78214635D01*
X126243021Y-78218800D01*
X126158179Y-78218800D01*
X126115888Y-78214635D01*
X126031305Y-78206304D01*
X125868516Y-78156922D01*
X125868513Y-78156921D01*
X125718493Y-78076734D01*
X125718492Y-78076733D01*
X125718488Y-78076731D01*
X125586988Y-77968812D01*
X125479069Y-77837312D01*
X125479066Y-77837307D01*
X125398879Y-77687287D01*
X125391280Y-77662238D01*
X125349496Y-77524495D01*
X125332822Y-77355200D01*
X125349496Y-77185905D01*
X125398878Y-77023116D01*
X125398879Y-77023113D01*
X125479066Y-76873093D01*
X125479067Y-76873092D01*
X125479069Y-76873088D01*
X125586988Y-76741588D01*
X125718488Y-76633669D01*
X125718492Y-76633667D01*
X125718493Y-76633666D01*
X125868513Y-76553479D01*
X125868516Y-76553478D01*
X126031305Y-76504096D01*
X126115888Y-76495765D01*
X126158179Y-76491600D01*
X126243021Y-76491600D01*
X126285312Y-76495765D01*
X126285312Y-76495765D01*
G37*
G36*
X121205312Y-76495765D02*
G01*
X121289895Y-76504096D01*
X121452684Y-76553478D01*
X121452687Y-76553479D01*
X121602707Y-76633666D01*
X121602708Y-76633667D01*
X121602712Y-76633669D01*
X121734212Y-76741588D01*
X121842131Y-76873088D01*
X121842133Y-76873092D01*
X121842134Y-76873093D01*
X121922321Y-77023113D01*
X121922322Y-77023116D01*
X121971704Y-77185905D01*
X121988378Y-77355200D01*
X121971704Y-77524495D01*
X121929920Y-77662238D01*
X121922321Y-77687287D01*
X121842134Y-77837307D01*
X121842131Y-77837312D01*
X121734212Y-77968812D01*
X121602712Y-78076731D01*
X121602708Y-78076733D01*
X121602707Y-78076734D01*
X121452687Y-78156921D01*
X121452684Y-78156922D01*
X121289895Y-78206304D01*
X121205312Y-78214635D01*
X121163021Y-78218800D01*
X121078179Y-78218800D01*
X121035888Y-78214635D01*
X120951305Y-78206304D01*
X120788516Y-78156922D01*
X120788513Y-78156921D01*
X120638493Y-78076734D01*
X120638492Y-78076733D01*
X120638488Y-78076731D01*
X120506988Y-77968812D01*
X120399069Y-77837312D01*
X120399066Y-77837307D01*
X120318879Y-77687287D01*
X120311280Y-77662238D01*
X120269496Y-77524495D01*
X120252822Y-77355200D01*
X120269496Y-77185905D01*
X120318878Y-77023116D01*
X120318879Y-77023113D01*
X120399066Y-76873093D01*
X120399067Y-76873092D01*
X120399069Y-76873088D01*
X120506988Y-76741588D01*
X120638488Y-76633669D01*
X120638492Y-76633667D01*
X120638493Y-76633666D01*
X120788513Y-76553479D01*
X120788516Y-76553478D01*
X120951305Y-76504096D01*
X121035888Y-76495765D01*
X121078179Y-76491600D01*
X121163021Y-76491600D01*
X121205312Y-76495765D01*
X121205312Y-76495765D01*
G37*
G36*
X123745312Y-76495765D02*
G01*
X123829895Y-76504096D01*
X123992684Y-76553478D01*
X123992687Y-76553479D01*
X124142707Y-76633666D01*
X124142708Y-76633667D01*
X124142712Y-76633669D01*
X124274212Y-76741588D01*
X124382131Y-76873088D01*
X124382133Y-76873092D01*
X124382134Y-76873093D01*
X124462321Y-77023113D01*
X124462322Y-77023116D01*
X124511704Y-77185905D01*
X124528378Y-77355200D01*
X124511704Y-77524495D01*
X124469920Y-77662238D01*
X124462321Y-77687287D01*
X124382134Y-77837307D01*
X124382131Y-77837312D01*
X124274212Y-77968812D01*
X124142712Y-78076731D01*
X124142708Y-78076733D01*
X124142707Y-78076734D01*
X123992687Y-78156921D01*
X123992684Y-78156922D01*
X123829895Y-78206304D01*
X123745312Y-78214635D01*
X123703021Y-78218800D01*
X123618179Y-78218800D01*
X123575888Y-78214635D01*
X123491305Y-78206304D01*
X123328516Y-78156922D01*
X123328513Y-78156921D01*
X123178493Y-78076734D01*
X123178492Y-78076733D01*
X123178488Y-78076731D01*
X123046988Y-77968812D01*
X122939069Y-77837312D01*
X122939066Y-77837307D01*
X122858879Y-77687287D01*
X122851280Y-77662238D01*
X122809496Y-77524495D01*
X122792822Y-77355200D01*
X122809496Y-77185905D01*
X122858878Y-77023116D01*
X122858879Y-77023113D01*
X122939066Y-76873093D01*
X122939067Y-76873092D01*
X122939069Y-76873088D01*
X123046988Y-76741588D01*
X123178488Y-76633669D01*
X123178492Y-76633667D01*
X123178493Y-76633666D01*
X123328513Y-76553479D01*
X123328516Y-76553478D01*
X123491305Y-76504096D01*
X123575888Y-76495765D01*
X123618179Y-76491600D01*
X123703021Y-76491600D01*
X123745312Y-76495765D01*
X123745312Y-76495765D01*
G37*
G36*
X118665312Y-76495765D02*
G01*
X118749895Y-76504096D01*
X118912684Y-76553478D01*
X118912687Y-76553479D01*
X119062707Y-76633666D01*
X119062708Y-76633667D01*
X119062712Y-76633669D01*
X119194212Y-76741588D01*
X119302131Y-76873088D01*
X119302133Y-76873092D01*
X119302134Y-76873093D01*
X119382321Y-77023113D01*
X119382322Y-77023116D01*
X119431704Y-77185905D01*
X119448378Y-77355200D01*
X119431704Y-77524495D01*
X119389920Y-77662238D01*
X119382321Y-77687287D01*
X119302134Y-77837307D01*
X119302131Y-77837312D01*
X119194212Y-77968812D01*
X119062712Y-78076731D01*
X119062708Y-78076733D01*
X119062707Y-78076734D01*
X118912687Y-78156921D01*
X118912684Y-78156922D01*
X118749895Y-78206304D01*
X118665312Y-78214635D01*
X118623021Y-78218800D01*
X118538179Y-78218800D01*
X118495888Y-78214635D01*
X118411305Y-78206304D01*
X118248516Y-78156922D01*
X118248513Y-78156921D01*
X118098493Y-78076734D01*
X118098492Y-78076733D01*
X118098488Y-78076731D01*
X117966988Y-77968812D01*
X117859069Y-77837312D01*
X117859066Y-77837307D01*
X117778879Y-77687287D01*
X117771280Y-77662238D01*
X117729496Y-77524495D01*
X117712822Y-77355200D01*
X117729496Y-77185905D01*
X117778878Y-77023116D01*
X117778879Y-77023113D01*
X117859066Y-76873093D01*
X117859067Y-76873092D01*
X117859069Y-76873088D01*
X117966988Y-76741588D01*
X118098488Y-76633669D01*
X118098492Y-76633667D01*
X118098493Y-76633666D01*
X118248513Y-76553479D01*
X118248516Y-76553478D01*
X118411305Y-76504096D01*
X118495888Y-76495765D01*
X118538179Y-76491600D01*
X118623021Y-76491600D01*
X118665312Y-76495765D01*
X118665312Y-76495765D01*
G37*
G36*
X138985312Y-76495765D02*
G01*
X139069895Y-76504096D01*
X139232684Y-76553478D01*
X139232687Y-76553479D01*
X139382707Y-76633666D01*
X139382708Y-76633667D01*
X139382712Y-76633669D01*
X139514212Y-76741588D01*
X139622131Y-76873088D01*
X139622133Y-76873092D01*
X139622134Y-76873093D01*
X139702321Y-77023113D01*
X139702322Y-77023116D01*
X139751704Y-77185905D01*
X139768378Y-77355200D01*
X139751704Y-77524495D01*
X139709920Y-77662238D01*
X139702321Y-77687287D01*
X139622134Y-77837307D01*
X139622131Y-77837312D01*
X139514212Y-77968812D01*
X139382712Y-78076731D01*
X139382708Y-78076733D01*
X139382707Y-78076734D01*
X139232687Y-78156921D01*
X139232684Y-78156922D01*
X139069895Y-78206304D01*
X138985312Y-78214635D01*
X138943021Y-78218800D01*
X138858179Y-78218800D01*
X138815888Y-78214635D01*
X138731305Y-78206304D01*
X138568516Y-78156922D01*
X138568513Y-78156921D01*
X138418493Y-78076734D01*
X138418492Y-78076733D01*
X138418488Y-78076731D01*
X138286988Y-77968812D01*
X138179069Y-77837312D01*
X138179066Y-77837307D01*
X138098879Y-77687287D01*
X138091280Y-77662238D01*
X138049496Y-77524495D01*
X138032822Y-77355200D01*
X138049496Y-77185905D01*
X138098878Y-77023116D01*
X138098879Y-77023113D01*
X138179066Y-76873093D01*
X138179067Y-76873092D01*
X138179069Y-76873088D01*
X138286988Y-76741588D01*
X138418488Y-76633669D01*
X138418492Y-76633667D01*
X138418493Y-76633666D01*
X138568513Y-76553479D01*
X138568516Y-76553478D01*
X138731305Y-76504096D01*
X138815888Y-76495765D01*
X138858179Y-76491600D01*
X138943021Y-76491600D01*
X138985312Y-76495765D01*
X138985312Y-76495765D01*
G37*
G36*
X111014552Y-76807853D02*
G01*
X111068419Y-76813158D01*
X111145118Y-76836425D01*
X111172098Y-76844609D01*
X111267638Y-76895676D01*
X111351390Y-76964410D01*
X111420124Y-77048162D01*
X111471191Y-77143702D01*
X111471192Y-77143706D01*
X111502642Y-77247381D01*
X111513261Y-77355200D01*
X111502642Y-77463019D01*
X111483994Y-77524493D01*
X111471191Y-77566698D01*
X111420124Y-77662238D01*
X111351390Y-77745990D01*
X111267638Y-77814724D01*
X111172098Y-77865791D01*
X111145118Y-77873975D01*
X111068419Y-77897242D01*
X111014552Y-77902547D01*
X110987619Y-77905200D01*
X110933581Y-77905200D01*
X110906648Y-77902547D01*
X110852781Y-77897242D01*
X110776082Y-77873975D01*
X110749102Y-77865791D01*
X110653562Y-77814724D01*
X110569810Y-77745990D01*
X110501076Y-77662238D01*
X110450009Y-77566698D01*
X110437206Y-77524493D01*
X110418558Y-77463019D01*
X110407939Y-77355200D01*
X110418558Y-77247381D01*
X110450008Y-77143706D01*
X110450009Y-77143702D01*
X110501076Y-77048162D01*
X110569810Y-76964410D01*
X110653562Y-76895676D01*
X110749102Y-76844609D01*
X110776082Y-76836425D01*
X110852781Y-76813158D01*
X110906648Y-76807853D01*
X110933581Y-76805200D01*
X110987619Y-76805200D01*
X111014552Y-76807853D01*
X111014552Y-76807853D01*
G37*
G36*
X108474552Y-76807853D02*
G01*
X108528419Y-76813158D01*
X108605118Y-76836425D01*
X108632098Y-76844609D01*
X108727638Y-76895676D01*
X108811390Y-76964410D01*
X108880124Y-77048162D01*
X108931191Y-77143702D01*
X108931192Y-77143706D01*
X108962642Y-77247381D01*
X108973261Y-77355200D01*
X108962642Y-77463019D01*
X108943994Y-77524493D01*
X108931191Y-77566698D01*
X108880124Y-77662238D01*
X108811390Y-77745990D01*
X108727638Y-77814724D01*
X108632098Y-77865791D01*
X108605118Y-77873975D01*
X108528419Y-77897242D01*
X108474552Y-77902547D01*
X108447619Y-77905200D01*
X108393581Y-77905200D01*
X108366648Y-77902547D01*
X108312781Y-77897242D01*
X108236082Y-77873975D01*
X108209102Y-77865791D01*
X108113562Y-77814724D01*
X108029810Y-77745990D01*
X107961076Y-77662238D01*
X107910009Y-77566698D01*
X107897206Y-77524493D01*
X107878558Y-77463019D01*
X107867939Y-77355200D01*
X107878558Y-77247381D01*
X107910008Y-77143706D01*
X107910009Y-77143702D01*
X107961076Y-77048162D01*
X108029810Y-76964410D01*
X108113562Y-76895676D01*
X108209102Y-76844609D01*
X108236082Y-76836425D01*
X108312781Y-76813158D01*
X108366648Y-76807853D01*
X108393581Y-76805200D01*
X108447619Y-76805200D01*
X108474552Y-76807853D01*
X108474552Y-76807853D01*
G37*
G36*
X123745312Y-73955765D02*
G01*
X123829895Y-73964096D01*
X123992684Y-74013478D01*
X123992687Y-74013479D01*
X124142707Y-74093666D01*
X124142708Y-74093667D01*
X124142712Y-74093669D01*
X124274212Y-74201588D01*
X124382131Y-74333088D01*
X124382133Y-74333092D01*
X124382134Y-74333093D01*
X124462321Y-74483113D01*
X124462322Y-74483116D01*
X124511704Y-74645905D01*
X124528378Y-74815200D01*
X124511704Y-74984495D01*
X124462322Y-75147284D01*
X124462321Y-75147287D01*
X124382134Y-75297307D01*
X124382131Y-75297312D01*
X124274212Y-75428812D01*
X124142712Y-75536731D01*
X124142708Y-75536733D01*
X124142707Y-75536734D01*
X123992687Y-75616921D01*
X123992684Y-75616922D01*
X123829895Y-75666304D01*
X123745312Y-75674635D01*
X123703021Y-75678800D01*
X123618179Y-75678800D01*
X123575888Y-75674635D01*
X123491305Y-75666304D01*
X123328516Y-75616922D01*
X123328513Y-75616921D01*
X123178493Y-75536734D01*
X123178492Y-75536733D01*
X123178488Y-75536731D01*
X123046988Y-75428812D01*
X122939069Y-75297312D01*
X122939066Y-75297307D01*
X122858879Y-75147287D01*
X122858878Y-75147284D01*
X122809496Y-74984495D01*
X122792822Y-74815200D01*
X122809496Y-74645905D01*
X122858878Y-74483116D01*
X122858879Y-74483113D01*
X122939066Y-74333093D01*
X122939067Y-74333092D01*
X122939069Y-74333088D01*
X123046988Y-74201588D01*
X123178488Y-74093669D01*
X123178492Y-74093667D01*
X123178493Y-74093666D01*
X123328513Y-74013479D01*
X123328516Y-74013478D01*
X123491305Y-73964096D01*
X123575888Y-73955765D01*
X123618179Y-73951600D01*
X123703021Y-73951600D01*
X123745312Y-73955765D01*
X123745312Y-73955765D01*
G37*
G36*
X121205312Y-73955765D02*
G01*
X121289895Y-73964096D01*
X121452684Y-74013478D01*
X121452687Y-74013479D01*
X121602707Y-74093666D01*
X121602708Y-74093667D01*
X121602712Y-74093669D01*
X121734212Y-74201588D01*
X121842131Y-74333088D01*
X121842133Y-74333092D01*
X121842134Y-74333093D01*
X121922321Y-74483113D01*
X121922322Y-74483116D01*
X121971704Y-74645905D01*
X121988378Y-74815200D01*
X121971704Y-74984495D01*
X121922322Y-75147284D01*
X121922321Y-75147287D01*
X121842134Y-75297307D01*
X121842131Y-75297312D01*
X121734212Y-75428812D01*
X121602712Y-75536731D01*
X121602708Y-75536733D01*
X121602707Y-75536734D01*
X121452687Y-75616921D01*
X121452684Y-75616922D01*
X121289895Y-75666304D01*
X121205312Y-75674635D01*
X121163021Y-75678800D01*
X121078179Y-75678800D01*
X121035888Y-75674635D01*
X120951305Y-75666304D01*
X120788516Y-75616922D01*
X120788513Y-75616921D01*
X120638493Y-75536734D01*
X120638492Y-75536733D01*
X120638488Y-75536731D01*
X120506988Y-75428812D01*
X120399069Y-75297312D01*
X120399066Y-75297307D01*
X120318879Y-75147287D01*
X120318878Y-75147284D01*
X120269496Y-74984495D01*
X120252822Y-74815200D01*
X120269496Y-74645905D01*
X120318878Y-74483116D01*
X120318879Y-74483113D01*
X120399066Y-74333093D01*
X120399067Y-74333092D01*
X120399069Y-74333088D01*
X120506988Y-74201588D01*
X120638488Y-74093669D01*
X120638492Y-74093667D01*
X120638493Y-74093666D01*
X120788513Y-74013479D01*
X120788516Y-74013478D01*
X120951305Y-73964096D01*
X121035888Y-73955765D01*
X121078179Y-73951600D01*
X121163021Y-73951600D01*
X121205312Y-73955765D01*
X121205312Y-73955765D01*
G37*
G36*
X118665312Y-73955765D02*
G01*
X118749895Y-73964096D01*
X118912684Y-74013478D01*
X118912687Y-74013479D01*
X119062707Y-74093666D01*
X119062708Y-74093667D01*
X119062712Y-74093669D01*
X119194212Y-74201588D01*
X119302131Y-74333088D01*
X119302133Y-74333092D01*
X119302134Y-74333093D01*
X119382321Y-74483113D01*
X119382322Y-74483116D01*
X119431704Y-74645905D01*
X119448378Y-74815200D01*
X119431704Y-74984495D01*
X119382322Y-75147284D01*
X119382321Y-75147287D01*
X119302134Y-75297307D01*
X119302131Y-75297312D01*
X119194212Y-75428812D01*
X119062712Y-75536731D01*
X119062708Y-75536733D01*
X119062707Y-75536734D01*
X118912687Y-75616921D01*
X118912684Y-75616922D01*
X118749895Y-75666304D01*
X118665312Y-75674635D01*
X118623021Y-75678800D01*
X118538179Y-75678800D01*
X118495888Y-75674635D01*
X118411305Y-75666304D01*
X118248516Y-75616922D01*
X118248513Y-75616921D01*
X118098493Y-75536734D01*
X118098492Y-75536733D01*
X118098488Y-75536731D01*
X117966988Y-75428812D01*
X117859069Y-75297312D01*
X117859066Y-75297307D01*
X117778879Y-75147287D01*
X117778878Y-75147284D01*
X117729496Y-74984495D01*
X117712822Y-74815200D01*
X117729496Y-74645905D01*
X117778878Y-74483116D01*
X117778879Y-74483113D01*
X117859066Y-74333093D01*
X117859067Y-74333092D01*
X117859069Y-74333088D01*
X117966988Y-74201588D01*
X118098488Y-74093669D01*
X118098492Y-74093667D01*
X118098493Y-74093666D01*
X118248513Y-74013479D01*
X118248516Y-74013478D01*
X118411305Y-73964096D01*
X118495888Y-73955765D01*
X118538179Y-73951600D01*
X118623021Y-73951600D01*
X118665312Y-73955765D01*
X118665312Y-73955765D01*
G37*
G36*
X116125312Y-73955765D02*
G01*
X116209895Y-73964096D01*
X116372684Y-74013478D01*
X116372687Y-74013479D01*
X116522707Y-74093666D01*
X116522708Y-74093667D01*
X116522712Y-74093669D01*
X116654212Y-74201588D01*
X116762131Y-74333088D01*
X116762133Y-74333092D01*
X116762134Y-74333093D01*
X116842321Y-74483113D01*
X116842322Y-74483116D01*
X116891704Y-74645905D01*
X116908378Y-74815200D01*
X116891704Y-74984495D01*
X116842322Y-75147284D01*
X116842321Y-75147287D01*
X116762134Y-75297307D01*
X116762131Y-75297312D01*
X116654212Y-75428812D01*
X116522712Y-75536731D01*
X116522708Y-75536733D01*
X116522707Y-75536734D01*
X116372687Y-75616921D01*
X116372684Y-75616922D01*
X116209895Y-75666304D01*
X116125312Y-75674635D01*
X116083021Y-75678800D01*
X115998179Y-75678800D01*
X115955888Y-75674635D01*
X115871305Y-75666304D01*
X115708516Y-75616922D01*
X115708513Y-75616921D01*
X115558493Y-75536734D01*
X115558492Y-75536733D01*
X115558488Y-75536731D01*
X115426988Y-75428812D01*
X115319069Y-75297312D01*
X115319066Y-75297307D01*
X115238879Y-75147287D01*
X115238878Y-75147284D01*
X115189496Y-74984495D01*
X115172822Y-74815200D01*
X115189496Y-74645905D01*
X115238878Y-74483116D01*
X115238879Y-74483113D01*
X115319066Y-74333093D01*
X115319067Y-74333092D01*
X115319069Y-74333088D01*
X115426988Y-74201588D01*
X115558488Y-74093669D01*
X115558492Y-74093667D01*
X115558493Y-74093666D01*
X115708513Y-74013479D01*
X115708516Y-74013478D01*
X115871305Y-73964096D01*
X115955888Y-73955765D01*
X115998179Y-73951600D01*
X116083021Y-73951600D01*
X116125312Y-73955765D01*
X116125312Y-73955765D01*
G37*
G36*
X113585312Y-73955765D02*
G01*
X113669895Y-73964096D01*
X113832684Y-74013478D01*
X113832687Y-74013479D01*
X113982707Y-74093666D01*
X113982708Y-74093667D01*
X113982712Y-74093669D01*
X114114212Y-74201588D01*
X114222131Y-74333088D01*
X114222133Y-74333092D01*
X114222134Y-74333093D01*
X114302321Y-74483113D01*
X114302322Y-74483116D01*
X114351704Y-74645905D01*
X114368378Y-74815200D01*
X114351704Y-74984495D01*
X114302322Y-75147284D01*
X114302321Y-75147287D01*
X114222134Y-75297307D01*
X114222131Y-75297312D01*
X114114212Y-75428812D01*
X113982712Y-75536731D01*
X113982708Y-75536733D01*
X113982707Y-75536734D01*
X113832687Y-75616921D01*
X113832684Y-75616922D01*
X113669895Y-75666304D01*
X113585312Y-75674635D01*
X113543021Y-75678800D01*
X113458179Y-75678800D01*
X113415888Y-75674635D01*
X113331305Y-75666304D01*
X113168516Y-75616922D01*
X113168513Y-75616921D01*
X113018493Y-75536734D01*
X113018492Y-75536733D01*
X113018488Y-75536731D01*
X112886988Y-75428812D01*
X112779069Y-75297312D01*
X112779066Y-75297307D01*
X112698879Y-75147287D01*
X112698878Y-75147284D01*
X112649496Y-74984495D01*
X112632822Y-74815200D01*
X112649496Y-74645905D01*
X112698878Y-74483116D01*
X112698879Y-74483113D01*
X112779066Y-74333093D01*
X112779067Y-74333092D01*
X112779069Y-74333088D01*
X112886988Y-74201588D01*
X113018488Y-74093669D01*
X113018492Y-74093667D01*
X113018493Y-74093666D01*
X113168513Y-74013479D01*
X113168516Y-74013478D01*
X113331305Y-73964096D01*
X113415888Y-73955765D01*
X113458179Y-73951600D01*
X113543021Y-73951600D01*
X113585312Y-73955765D01*
X113585312Y-73955765D01*
G37*
G36*
X111045312Y-73955765D02*
G01*
X111129895Y-73964096D01*
X111292684Y-74013478D01*
X111292687Y-74013479D01*
X111442707Y-74093666D01*
X111442708Y-74093667D01*
X111442712Y-74093669D01*
X111574212Y-74201588D01*
X111682131Y-74333088D01*
X111682133Y-74333092D01*
X111682134Y-74333093D01*
X111762321Y-74483113D01*
X111762322Y-74483116D01*
X111811704Y-74645905D01*
X111828378Y-74815200D01*
X111811704Y-74984495D01*
X111762322Y-75147284D01*
X111762321Y-75147287D01*
X111682134Y-75297307D01*
X111682131Y-75297312D01*
X111574212Y-75428812D01*
X111442712Y-75536731D01*
X111442708Y-75536733D01*
X111442707Y-75536734D01*
X111292687Y-75616921D01*
X111292684Y-75616922D01*
X111129895Y-75666304D01*
X111045312Y-75674635D01*
X111003021Y-75678800D01*
X110918179Y-75678800D01*
X110875888Y-75674635D01*
X110791305Y-75666304D01*
X110628516Y-75616922D01*
X110628513Y-75616921D01*
X110478493Y-75536734D01*
X110478492Y-75536733D01*
X110478488Y-75536731D01*
X110346988Y-75428812D01*
X110239069Y-75297312D01*
X110239066Y-75297307D01*
X110158879Y-75147287D01*
X110158878Y-75147284D01*
X110109496Y-74984495D01*
X110092822Y-74815200D01*
X110109496Y-74645905D01*
X110158878Y-74483116D01*
X110158879Y-74483113D01*
X110239066Y-74333093D01*
X110239067Y-74333092D01*
X110239069Y-74333088D01*
X110346988Y-74201588D01*
X110478488Y-74093669D01*
X110478492Y-74093667D01*
X110478493Y-74093666D01*
X110628513Y-74013479D01*
X110628516Y-74013478D01*
X110791305Y-73964096D01*
X110875888Y-73955765D01*
X110918179Y-73951600D01*
X111003021Y-73951600D01*
X111045312Y-73955765D01*
X111045312Y-73955765D01*
G37*
G36*
X108505312Y-73955765D02*
G01*
X108589895Y-73964096D01*
X108752684Y-74013478D01*
X108752687Y-74013479D01*
X108902707Y-74093666D01*
X108902708Y-74093667D01*
X108902712Y-74093669D01*
X109034212Y-74201588D01*
X109142131Y-74333088D01*
X109142133Y-74333092D01*
X109142134Y-74333093D01*
X109222321Y-74483113D01*
X109222322Y-74483116D01*
X109271704Y-74645905D01*
X109288378Y-74815200D01*
X109271704Y-74984495D01*
X109222322Y-75147284D01*
X109222321Y-75147287D01*
X109142134Y-75297307D01*
X109142131Y-75297312D01*
X109034212Y-75428812D01*
X108902712Y-75536731D01*
X108902708Y-75536733D01*
X108902707Y-75536734D01*
X108752687Y-75616921D01*
X108752684Y-75616922D01*
X108589895Y-75666304D01*
X108505312Y-75674635D01*
X108463021Y-75678800D01*
X108378179Y-75678800D01*
X108335888Y-75674635D01*
X108251305Y-75666304D01*
X108088516Y-75616922D01*
X108088513Y-75616921D01*
X107938493Y-75536734D01*
X107938492Y-75536733D01*
X107938488Y-75536731D01*
X107806988Y-75428812D01*
X107699069Y-75297312D01*
X107699066Y-75297307D01*
X107618879Y-75147287D01*
X107618878Y-75147284D01*
X107569496Y-74984495D01*
X107552822Y-74815200D01*
X107569496Y-74645905D01*
X107618878Y-74483116D01*
X107618879Y-74483113D01*
X107699066Y-74333093D01*
X107699067Y-74333092D01*
X107699069Y-74333088D01*
X107806988Y-74201588D01*
X107938488Y-74093669D01*
X107938492Y-74093667D01*
X107938493Y-74093666D01*
X108088513Y-74013479D01*
X108088516Y-74013478D01*
X108251305Y-73964096D01*
X108335888Y-73955765D01*
X108378179Y-73951600D01*
X108463021Y-73951600D01*
X108505312Y-73955765D01*
X108505312Y-73955765D01*
G37*
G36*
X138985312Y-73955765D02*
G01*
X139069895Y-73964096D01*
X139232684Y-74013478D01*
X139232687Y-74013479D01*
X139382707Y-74093666D01*
X139382708Y-74093667D01*
X139382712Y-74093669D01*
X139514212Y-74201588D01*
X139622131Y-74333088D01*
X139622133Y-74333092D01*
X139622134Y-74333093D01*
X139702321Y-74483113D01*
X139702322Y-74483116D01*
X139751704Y-74645905D01*
X139768378Y-74815200D01*
X139751704Y-74984495D01*
X139702322Y-75147284D01*
X139702321Y-75147287D01*
X139622134Y-75297307D01*
X139622131Y-75297312D01*
X139514212Y-75428812D01*
X139382712Y-75536731D01*
X139382708Y-75536733D01*
X139382707Y-75536734D01*
X139232687Y-75616921D01*
X139232684Y-75616922D01*
X139069895Y-75666304D01*
X138985312Y-75674635D01*
X138943021Y-75678800D01*
X138858179Y-75678800D01*
X138815888Y-75674635D01*
X138731305Y-75666304D01*
X138568516Y-75616922D01*
X138568513Y-75616921D01*
X138418493Y-75536734D01*
X138418492Y-75536733D01*
X138418488Y-75536731D01*
X138286988Y-75428812D01*
X138179069Y-75297312D01*
X138179066Y-75297307D01*
X138098879Y-75147287D01*
X138098878Y-75147284D01*
X138049496Y-74984495D01*
X138032822Y-74815200D01*
X138049496Y-74645905D01*
X138098878Y-74483116D01*
X138098879Y-74483113D01*
X138179066Y-74333093D01*
X138179067Y-74333092D01*
X138179069Y-74333088D01*
X138286988Y-74201588D01*
X138418488Y-74093669D01*
X138418492Y-74093667D01*
X138418493Y-74093666D01*
X138568513Y-74013479D01*
X138568516Y-74013478D01*
X138731305Y-73964096D01*
X138815888Y-73955765D01*
X138858179Y-73951600D01*
X138943021Y-73951600D01*
X138985312Y-73955765D01*
X138985312Y-73955765D01*
G37*
G36*
X136445312Y-73955765D02*
G01*
X136529895Y-73964096D01*
X136692684Y-74013478D01*
X136692687Y-74013479D01*
X136842707Y-74093666D01*
X136842708Y-74093667D01*
X136842712Y-74093669D01*
X136974212Y-74201588D01*
X137082131Y-74333088D01*
X137082133Y-74333092D01*
X137082134Y-74333093D01*
X137162321Y-74483113D01*
X137162322Y-74483116D01*
X137211704Y-74645905D01*
X137228378Y-74815200D01*
X137211704Y-74984495D01*
X137162322Y-75147284D01*
X137162321Y-75147287D01*
X137082134Y-75297307D01*
X137082131Y-75297312D01*
X136974212Y-75428812D01*
X136842712Y-75536731D01*
X136842708Y-75536733D01*
X136842707Y-75536734D01*
X136692687Y-75616921D01*
X136692684Y-75616922D01*
X136529895Y-75666304D01*
X136445312Y-75674635D01*
X136403021Y-75678800D01*
X136318179Y-75678800D01*
X136275888Y-75674635D01*
X136191305Y-75666304D01*
X136028516Y-75616922D01*
X136028513Y-75616921D01*
X135878493Y-75536734D01*
X135878492Y-75536733D01*
X135878488Y-75536731D01*
X135746988Y-75428812D01*
X135639069Y-75297312D01*
X135639066Y-75297307D01*
X135558879Y-75147287D01*
X135558878Y-75147284D01*
X135509496Y-74984495D01*
X135492822Y-74815200D01*
X135509496Y-74645905D01*
X135558878Y-74483116D01*
X135558879Y-74483113D01*
X135639066Y-74333093D01*
X135639067Y-74333092D01*
X135639069Y-74333088D01*
X135746988Y-74201588D01*
X135878488Y-74093669D01*
X135878492Y-74093667D01*
X135878493Y-74093666D01*
X136028513Y-74013479D01*
X136028516Y-74013478D01*
X136191305Y-73964096D01*
X136275888Y-73955765D01*
X136318179Y-73951600D01*
X136403021Y-73951600D01*
X136445312Y-73955765D01*
X136445312Y-73955765D01*
G37*
G36*
X141525312Y-73955765D02*
G01*
X141609895Y-73964096D01*
X141772684Y-74013478D01*
X141772687Y-74013479D01*
X141922707Y-74093666D01*
X141922708Y-74093667D01*
X141922712Y-74093669D01*
X142054212Y-74201588D01*
X142162131Y-74333088D01*
X142162133Y-74333092D01*
X142162134Y-74333093D01*
X142242321Y-74483113D01*
X142242322Y-74483116D01*
X142291704Y-74645905D01*
X142308378Y-74815200D01*
X142291704Y-74984495D01*
X142242322Y-75147284D01*
X142242321Y-75147287D01*
X142162134Y-75297307D01*
X142162131Y-75297312D01*
X142054212Y-75428812D01*
X141922712Y-75536731D01*
X141922708Y-75536733D01*
X141922707Y-75536734D01*
X141772687Y-75616921D01*
X141772684Y-75616922D01*
X141609895Y-75666304D01*
X141525312Y-75674635D01*
X141483021Y-75678800D01*
X141398179Y-75678800D01*
X141355888Y-75674635D01*
X141271305Y-75666304D01*
X141108516Y-75616922D01*
X141108513Y-75616921D01*
X140958493Y-75536734D01*
X140958492Y-75536733D01*
X140958488Y-75536731D01*
X140826988Y-75428812D01*
X140719069Y-75297312D01*
X140719066Y-75297307D01*
X140638879Y-75147287D01*
X140638878Y-75147284D01*
X140589496Y-74984495D01*
X140572822Y-74815200D01*
X140589496Y-74645905D01*
X140638878Y-74483116D01*
X140638879Y-74483113D01*
X140719066Y-74333093D01*
X140719067Y-74333092D01*
X140719069Y-74333088D01*
X140826988Y-74201588D01*
X140958488Y-74093669D01*
X140958492Y-74093667D01*
X140958493Y-74093666D01*
X141108513Y-74013479D01*
X141108516Y-74013478D01*
X141271305Y-73964096D01*
X141355888Y-73955765D01*
X141398179Y-73951600D01*
X141483021Y-73951600D01*
X141525312Y-73955765D01*
X141525312Y-73955765D01*
G37*
G36*
X144065312Y-73955765D02*
G01*
X144149895Y-73964096D01*
X144312684Y-74013478D01*
X144312687Y-74013479D01*
X144462707Y-74093666D01*
X144462708Y-74093667D01*
X144462712Y-74093669D01*
X144594212Y-74201588D01*
X144702131Y-74333088D01*
X144702133Y-74333092D01*
X144702134Y-74333093D01*
X144782321Y-74483113D01*
X144782322Y-74483116D01*
X144831704Y-74645905D01*
X144848378Y-74815200D01*
X144831704Y-74984495D01*
X144782322Y-75147284D01*
X144782321Y-75147287D01*
X144702134Y-75297307D01*
X144702131Y-75297312D01*
X144594212Y-75428812D01*
X144462712Y-75536731D01*
X144462708Y-75536733D01*
X144462707Y-75536734D01*
X144312687Y-75616921D01*
X144312684Y-75616922D01*
X144149895Y-75666304D01*
X144065312Y-75674635D01*
X144023021Y-75678800D01*
X143938179Y-75678800D01*
X143895888Y-75674635D01*
X143811305Y-75666304D01*
X143648516Y-75616922D01*
X143648513Y-75616921D01*
X143498493Y-75536734D01*
X143498492Y-75536733D01*
X143498488Y-75536731D01*
X143366988Y-75428812D01*
X143259069Y-75297312D01*
X143259066Y-75297307D01*
X143178879Y-75147287D01*
X143178878Y-75147284D01*
X143129496Y-74984495D01*
X143112822Y-74815200D01*
X143129496Y-74645905D01*
X143178878Y-74483116D01*
X143178879Y-74483113D01*
X143259066Y-74333093D01*
X143259067Y-74333092D01*
X143259069Y-74333088D01*
X143366988Y-74201588D01*
X143498488Y-74093669D01*
X143498492Y-74093667D01*
X143498493Y-74093666D01*
X143648513Y-74013479D01*
X143648516Y-74013478D01*
X143811305Y-73964096D01*
X143895888Y-73955765D01*
X143938179Y-73951600D01*
X144023021Y-73951600D01*
X144065312Y-73955765D01*
X144065312Y-73955765D01*
G37*
G36*
X133905312Y-73955765D02*
G01*
X133989895Y-73964096D01*
X134152684Y-74013478D01*
X134152687Y-74013479D01*
X134302707Y-74093666D01*
X134302708Y-74093667D01*
X134302712Y-74093669D01*
X134434212Y-74201588D01*
X134542131Y-74333088D01*
X134542133Y-74333092D01*
X134542134Y-74333093D01*
X134622321Y-74483113D01*
X134622322Y-74483116D01*
X134671704Y-74645905D01*
X134688378Y-74815200D01*
X134671704Y-74984495D01*
X134622322Y-75147284D01*
X134622321Y-75147287D01*
X134542134Y-75297307D01*
X134542131Y-75297312D01*
X134434212Y-75428812D01*
X134302712Y-75536731D01*
X134302708Y-75536733D01*
X134302707Y-75536734D01*
X134152687Y-75616921D01*
X134152684Y-75616922D01*
X133989895Y-75666304D01*
X133905312Y-75674635D01*
X133863021Y-75678800D01*
X133778179Y-75678800D01*
X133735888Y-75674635D01*
X133651305Y-75666304D01*
X133488516Y-75616922D01*
X133488513Y-75616921D01*
X133338493Y-75536734D01*
X133338492Y-75536733D01*
X133338488Y-75536731D01*
X133206988Y-75428812D01*
X133099069Y-75297312D01*
X133099066Y-75297307D01*
X133018879Y-75147287D01*
X133018878Y-75147284D01*
X132969496Y-74984495D01*
X132952822Y-74815200D01*
X132969496Y-74645905D01*
X133018878Y-74483116D01*
X133018879Y-74483113D01*
X133099066Y-74333093D01*
X133099067Y-74333092D01*
X133099069Y-74333088D01*
X133206988Y-74201588D01*
X133338488Y-74093669D01*
X133338492Y-74093667D01*
X133338493Y-74093666D01*
X133488513Y-74013479D01*
X133488516Y-74013478D01*
X133651305Y-73964096D01*
X133735888Y-73955765D01*
X133778179Y-73951600D01*
X133863021Y-73951600D01*
X133905312Y-73955765D01*
X133905312Y-73955765D01*
G37*
G36*
X146605312Y-73955765D02*
G01*
X146689895Y-73964096D01*
X146852684Y-74013478D01*
X146852687Y-74013479D01*
X147002707Y-74093666D01*
X147002708Y-74093667D01*
X147002712Y-74093669D01*
X147134212Y-74201588D01*
X147242131Y-74333088D01*
X147242133Y-74333092D01*
X147242134Y-74333093D01*
X147322321Y-74483113D01*
X147322322Y-74483116D01*
X147371704Y-74645905D01*
X147388378Y-74815200D01*
X147371704Y-74984495D01*
X147322322Y-75147284D01*
X147322321Y-75147287D01*
X147242134Y-75297307D01*
X147242131Y-75297312D01*
X147134212Y-75428812D01*
X147002712Y-75536731D01*
X147002708Y-75536733D01*
X147002707Y-75536734D01*
X146852687Y-75616921D01*
X146852684Y-75616922D01*
X146689895Y-75666304D01*
X146605312Y-75674635D01*
X146563021Y-75678800D01*
X146478179Y-75678800D01*
X146435888Y-75674635D01*
X146351305Y-75666304D01*
X146188516Y-75616922D01*
X146188513Y-75616921D01*
X146038493Y-75536734D01*
X146038492Y-75536733D01*
X146038488Y-75536731D01*
X145906988Y-75428812D01*
X145799069Y-75297312D01*
X145799066Y-75297307D01*
X145718879Y-75147287D01*
X145718878Y-75147284D01*
X145669496Y-74984495D01*
X145652822Y-74815200D01*
X145669496Y-74645905D01*
X145718878Y-74483116D01*
X145718879Y-74483113D01*
X145799066Y-74333093D01*
X145799067Y-74333092D01*
X145799069Y-74333088D01*
X145906988Y-74201588D01*
X146038488Y-74093669D01*
X146038492Y-74093667D01*
X146038493Y-74093666D01*
X146188513Y-74013479D01*
X146188516Y-74013478D01*
X146351305Y-73964096D01*
X146435888Y-73955765D01*
X146478179Y-73951600D01*
X146563021Y-73951600D01*
X146605312Y-73955765D01*
X146605312Y-73955765D01*
G37*
G36*
X131365312Y-73955765D02*
G01*
X131449895Y-73964096D01*
X131612684Y-74013478D01*
X131612687Y-74013479D01*
X131762707Y-74093666D01*
X131762708Y-74093667D01*
X131762712Y-74093669D01*
X131894212Y-74201588D01*
X132002131Y-74333088D01*
X132002133Y-74333092D01*
X132002134Y-74333093D01*
X132082321Y-74483113D01*
X132082322Y-74483116D01*
X132131704Y-74645905D01*
X132148378Y-74815200D01*
X132131704Y-74984495D01*
X132082322Y-75147284D01*
X132082321Y-75147287D01*
X132002134Y-75297307D01*
X132002131Y-75297312D01*
X131894212Y-75428812D01*
X131762712Y-75536731D01*
X131762708Y-75536733D01*
X131762707Y-75536734D01*
X131612687Y-75616921D01*
X131612684Y-75616922D01*
X131449895Y-75666304D01*
X131365312Y-75674635D01*
X131323021Y-75678800D01*
X131238179Y-75678800D01*
X131195888Y-75674635D01*
X131111305Y-75666304D01*
X130948516Y-75616922D01*
X130948513Y-75616921D01*
X130798493Y-75536734D01*
X130798492Y-75536733D01*
X130798488Y-75536731D01*
X130666988Y-75428812D01*
X130559069Y-75297312D01*
X130559066Y-75297307D01*
X130478879Y-75147287D01*
X130478878Y-75147284D01*
X130429496Y-74984495D01*
X130412822Y-74815200D01*
X130429496Y-74645905D01*
X130478878Y-74483116D01*
X130478879Y-74483113D01*
X130559066Y-74333093D01*
X130559067Y-74333092D01*
X130559069Y-74333088D01*
X130666988Y-74201588D01*
X130798488Y-74093669D01*
X130798492Y-74093667D01*
X130798493Y-74093666D01*
X130948513Y-74013479D01*
X130948516Y-74013478D01*
X131111305Y-73964096D01*
X131195888Y-73955765D01*
X131238179Y-73951600D01*
X131323021Y-73951600D01*
X131365312Y-73955765D01*
X131365312Y-73955765D01*
G37*
G36*
X149145312Y-73955765D02*
G01*
X149229895Y-73964096D01*
X149392684Y-74013478D01*
X149392687Y-74013479D01*
X149542707Y-74093666D01*
X149542708Y-74093667D01*
X149542712Y-74093669D01*
X149674212Y-74201588D01*
X149782131Y-74333088D01*
X149782133Y-74333092D01*
X149782134Y-74333093D01*
X149862321Y-74483113D01*
X149862322Y-74483116D01*
X149911704Y-74645905D01*
X149928378Y-74815200D01*
X149911704Y-74984495D01*
X149862322Y-75147284D01*
X149862321Y-75147287D01*
X149782134Y-75297307D01*
X149782131Y-75297312D01*
X149674212Y-75428812D01*
X149542712Y-75536731D01*
X149542708Y-75536733D01*
X149542707Y-75536734D01*
X149392687Y-75616921D01*
X149392684Y-75616922D01*
X149229895Y-75666304D01*
X149145312Y-75674635D01*
X149103021Y-75678800D01*
X149018179Y-75678800D01*
X148975888Y-75674635D01*
X148891305Y-75666304D01*
X148728516Y-75616922D01*
X148728513Y-75616921D01*
X148578493Y-75536734D01*
X148578492Y-75536733D01*
X148578488Y-75536731D01*
X148446988Y-75428812D01*
X148339069Y-75297312D01*
X148339066Y-75297307D01*
X148258879Y-75147287D01*
X148258878Y-75147284D01*
X148209496Y-74984495D01*
X148192822Y-74815200D01*
X148209496Y-74645905D01*
X148258878Y-74483116D01*
X148258879Y-74483113D01*
X148339066Y-74333093D01*
X148339067Y-74333092D01*
X148339069Y-74333088D01*
X148446988Y-74201588D01*
X148578488Y-74093669D01*
X148578492Y-74093667D01*
X148578493Y-74093666D01*
X148728513Y-74013479D01*
X148728516Y-74013478D01*
X148891305Y-73964096D01*
X148975888Y-73955765D01*
X149018179Y-73951600D01*
X149103021Y-73951600D01*
X149145312Y-73955765D01*
X149145312Y-73955765D01*
G37*
G36*
X128825312Y-73955765D02*
G01*
X128909895Y-73964096D01*
X129072684Y-74013478D01*
X129072687Y-74013479D01*
X129222707Y-74093666D01*
X129222708Y-74093667D01*
X129222712Y-74093669D01*
X129354212Y-74201588D01*
X129462131Y-74333088D01*
X129462133Y-74333092D01*
X129462134Y-74333093D01*
X129542321Y-74483113D01*
X129542322Y-74483116D01*
X129591704Y-74645905D01*
X129608378Y-74815200D01*
X129591704Y-74984495D01*
X129542322Y-75147284D01*
X129542321Y-75147287D01*
X129462134Y-75297307D01*
X129462131Y-75297312D01*
X129354212Y-75428812D01*
X129222712Y-75536731D01*
X129222708Y-75536733D01*
X129222707Y-75536734D01*
X129072687Y-75616921D01*
X129072684Y-75616922D01*
X128909895Y-75666304D01*
X128825312Y-75674635D01*
X128783021Y-75678800D01*
X128698179Y-75678800D01*
X128655888Y-75674635D01*
X128571305Y-75666304D01*
X128408516Y-75616922D01*
X128408513Y-75616921D01*
X128258493Y-75536734D01*
X128258492Y-75536733D01*
X128258488Y-75536731D01*
X128126988Y-75428812D01*
X128019069Y-75297312D01*
X128019066Y-75297307D01*
X127938879Y-75147287D01*
X127938878Y-75147284D01*
X127889496Y-74984495D01*
X127872822Y-74815200D01*
X127889496Y-74645905D01*
X127938878Y-74483116D01*
X127938879Y-74483113D01*
X128019066Y-74333093D01*
X128019067Y-74333092D01*
X128019069Y-74333088D01*
X128126988Y-74201588D01*
X128258488Y-74093669D01*
X128258492Y-74093667D01*
X128258493Y-74093666D01*
X128408513Y-74013479D01*
X128408516Y-74013478D01*
X128571305Y-73964096D01*
X128655888Y-73955765D01*
X128698179Y-73951600D01*
X128783021Y-73951600D01*
X128825312Y-73955765D01*
X128825312Y-73955765D01*
G37*
G36*
X151685312Y-73955765D02*
G01*
X151769895Y-73964096D01*
X151932684Y-74013478D01*
X151932687Y-74013479D01*
X152082707Y-74093666D01*
X152082708Y-74093667D01*
X152082712Y-74093669D01*
X152214212Y-74201588D01*
X152322131Y-74333088D01*
X152322133Y-74333092D01*
X152322134Y-74333093D01*
X152402321Y-74483113D01*
X152402322Y-74483116D01*
X152451704Y-74645905D01*
X152468378Y-74815200D01*
X152451704Y-74984495D01*
X152402322Y-75147284D01*
X152402321Y-75147287D01*
X152322134Y-75297307D01*
X152322131Y-75297312D01*
X152214212Y-75428812D01*
X152082712Y-75536731D01*
X152082708Y-75536733D01*
X152082707Y-75536734D01*
X151932687Y-75616921D01*
X151932684Y-75616922D01*
X151769895Y-75666304D01*
X151685312Y-75674635D01*
X151643021Y-75678800D01*
X151558179Y-75678800D01*
X151515888Y-75674635D01*
X151431305Y-75666304D01*
X151268516Y-75616922D01*
X151268513Y-75616921D01*
X151118493Y-75536734D01*
X151118492Y-75536733D01*
X151118488Y-75536731D01*
X150986988Y-75428812D01*
X150879069Y-75297312D01*
X150879066Y-75297307D01*
X150798879Y-75147287D01*
X150798878Y-75147284D01*
X150749496Y-74984495D01*
X150732822Y-74815200D01*
X150749496Y-74645905D01*
X150798878Y-74483116D01*
X150798879Y-74483113D01*
X150879066Y-74333093D01*
X150879067Y-74333092D01*
X150879069Y-74333088D01*
X150986988Y-74201588D01*
X151118488Y-74093669D01*
X151118492Y-74093667D01*
X151118493Y-74093666D01*
X151268513Y-74013479D01*
X151268516Y-74013478D01*
X151431305Y-73964096D01*
X151515888Y-73955765D01*
X151558179Y-73951600D01*
X151643021Y-73951600D01*
X151685312Y-73955765D01*
X151685312Y-73955765D01*
G37*
G36*
X126285312Y-73955765D02*
G01*
X126369895Y-73964096D01*
X126532684Y-74013478D01*
X126532687Y-74013479D01*
X126682707Y-74093666D01*
X126682708Y-74093667D01*
X126682712Y-74093669D01*
X126814212Y-74201588D01*
X126922131Y-74333088D01*
X126922133Y-74333092D01*
X126922134Y-74333093D01*
X127002321Y-74483113D01*
X127002322Y-74483116D01*
X127051704Y-74645905D01*
X127068378Y-74815200D01*
X127051704Y-74984495D01*
X127002322Y-75147284D01*
X127002321Y-75147287D01*
X126922134Y-75297307D01*
X126922131Y-75297312D01*
X126814212Y-75428812D01*
X126682712Y-75536731D01*
X126682708Y-75536733D01*
X126682707Y-75536734D01*
X126532687Y-75616921D01*
X126532684Y-75616922D01*
X126369895Y-75666304D01*
X126285312Y-75674635D01*
X126243021Y-75678800D01*
X126158179Y-75678800D01*
X126115888Y-75674635D01*
X126031305Y-75666304D01*
X125868516Y-75616922D01*
X125868513Y-75616921D01*
X125718493Y-75536734D01*
X125718492Y-75536733D01*
X125718488Y-75536731D01*
X125586988Y-75428812D01*
X125479069Y-75297312D01*
X125479066Y-75297307D01*
X125398879Y-75147287D01*
X125398878Y-75147284D01*
X125349496Y-74984495D01*
X125332822Y-74815200D01*
X125349496Y-74645905D01*
X125398878Y-74483116D01*
X125398879Y-74483113D01*
X125479066Y-74333093D01*
X125479067Y-74333092D01*
X125479069Y-74333088D01*
X125586988Y-74201588D01*
X125718488Y-74093669D01*
X125718492Y-74093667D01*
X125718493Y-74093666D01*
X125868513Y-74013479D01*
X125868516Y-74013478D01*
X126031305Y-73964096D01*
X126115888Y-73955765D01*
X126158179Y-73951600D01*
X126243021Y-73951600D01*
X126285312Y-73955765D01*
X126285312Y-73955765D01*
G37*
G36*
X154225312Y-73955765D02*
G01*
X154309895Y-73964096D01*
X154472684Y-74013478D01*
X154472687Y-74013479D01*
X154622707Y-74093666D01*
X154622708Y-74093667D01*
X154622712Y-74093669D01*
X154754212Y-74201588D01*
X154862131Y-74333088D01*
X154862133Y-74333092D01*
X154862134Y-74333093D01*
X154942321Y-74483113D01*
X154942322Y-74483116D01*
X154991704Y-74645905D01*
X155008378Y-74815200D01*
X154991704Y-74984495D01*
X154942322Y-75147284D01*
X154942321Y-75147287D01*
X154862134Y-75297307D01*
X154862131Y-75297312D01*
X154754212Y-75428812D01*
X154622712Y-75536731D01*
X154622708Y-75536733D01*
X154622707Y-75536734D01*
X154472687Y-75616921D01*
X154472684Y-75616922D01*
X154309895Y-75666304D01*
X154225312Y-75674635D01*
X154183021Y-75678800D01*
X154098179Y-75678800D01*
X154055888Y-75674635D01*
X153971305Y-75666304D01*
X153808516Y-75616922D01*
X153808513Y-75616921D01*
X153658493Y-75536734D01*
X153658492Y-75536733D01*
X153658488Y-75536731D01*
X153526988Y-75428812D01*
X153419069Y-75297312D01*
X153419066Y-75297307D01*
X153338879Y-75147287D01*
X153338878Y-75147284D01*
X153289496Y-74984495D01*
X153272822Y-74815200D01*
X153289496Y-74645905D01*
X153338878Y-74483116D01*
X153338879Y-74483113D01*
X153419066Y-74333093D01*
X153419067Y-74333092D01*
X153419069Y-74333088D01*
X153526988Y-74201588D01*
X153658488Y-74093669D01*
X153658492Y-74093667D01*
X153658493Y-74093666D01*
X153808513Y-74013479D01*
X153808516Y-74013478D01*
X153971305Y-73964096D01*
X154055888Y-73955765D01*
X154098179Y-73951600D01*
X154183021Y-73951600D01*
X154225312Y-73955765D01*
X154225312Y-73955765D01*
G37*
G36*
X105965312Y-73955765D02*
G01*
X106049895Y-73964096D01*
X106212684Y-74013478D01*
X106212687Y-74013479D01*
X106362707Y-74093666D01*
X106362708Y-74093667D01*
X106362712Y-74093669D01*
X106494212Y-74201588D01*
X106602131Y-74333088D01*
X106602133Y-74333092D01*
X106602134Y-74333093D01*
X106682321Y-74483113D01*
X106682322Y-74483116D01*
X106731704Y-74645905D01*
X106748378Y-74815200D01*
X106731704Y-74984495D01*
X106682322Y-75147284D01*
X106682321Y-75147287D01*
X106602134Y-75297307D01*
X106602131Y-75297312D01*
X106494212Y-75428812D01*
X106362712Y-75536731D01*
X106362708Y-75536733D01*
X106362707Y-75536734D01*
X106212687Y-75616921D01*
X106212684Y-75616922D01*
X106049895Y-75666304D01*
X105965312Y-75674635D01*
X105923021Y-75678800D01*
X105838179Y-75678800D01*
X105795888Y-75674635D01*
X105711305Y-75666304D01*
X105548516Y-75616922D01*
X105548513Y-75616921D01*
X105398493Y-75536734D01*
X105398492Y-75536733D01*
X105398488Y-75536731D01*
X105266988Y-75428812D01*
X105159069Y-75297312D01*
X105159066Y-75297307D01*
X105078879Y-75147287D01*
X105078878Y-75147284D01*
X105029496Y-74984495D01*
X105012822Y-74815200D01*
X105029496Y-74645905D01*
X105078878Y-74483116D01*
X105078879Y-74483113D01*
X105159066Y-74333093D01*
X105159067Y-74333092D01*
X105159069Y-74333088D01*
X105266988Y-74201588D01*
X105398488Y-74093669D01*
X105398492Y-74093667D01*
X105398493Y-74093666D01*
X105548513Y-74013479D01*
X105548516Y-74013478D01*
X105711305Y-73964096D01*
X105795888Y-73955765D01*
X105838179Y-73951600D01*
X105923021Y-73951600D01*
X105965312Y-73955765D01*
X105965312Y-73955765D01*
G37*
M02*
