G04 #@! TF.GenerationSoftware,KiCad,Pcbnew,(5.1.0)-1*
G04 #@! TF.CreationDate,2019-03-28T22:22:43+01:00*
G04 #@! TF.ProjectId,debounce_shield,6465626f-756e-4636-955f-736869656c64,rev?*
G04 #@! TF.SameCoordinates,Original*
G04 #@! TF.FileFunction,Legend,Top*
G04 #@! TF.FilePolarity,Positive*
%FSLAX46Y46*%
G04 Gerber Fmt 4.6, Leading zero omitted, Abs format (unit mm)*
G04 Created by KiCad (PCBNEW (5.1.0)-1) date 2019-03-28 22:22:43*
%MOMM*%
%LPD*%
G04 APERTURE LIST*
%ADD10C,0.300000*%
%ADD11C,0.200000*%
%ADD12C,0.010000*%
%ADD13C,0.120000*%
%ADD14C,0.100000*%
%ADD15C,0.254000*%
%ADD16C,0.150000*%
G04 APERTURE END LIST*
D10*
X157716671Y-120693571D02*
X157716671Y-119193571D01*
X158288100Y-119193571D01*
X158430957Y-119265000D01*
X158502385Y-119336428D01*
X158573814Y-119479285D01*
X158573814Y-119693571D01*
X158502385Y-119836428D01*
X158430957Y-119907857D01*
X158288100Y-119979285D01*
X157716671Y-119979285D01*
X159216671Y-119907857D02*
X159716671Y-119907857D01*
X159930957Y-120693571D02*
X159216671Y-120693571D01*
X159216671Y-119193571D01*
X159930957Y-119193571D01*
X100388871Y-120541171D02*
X100388871Y-119041171D01*
X100960300Y-119041171D01*
X101103157Y-119112600D01*
X101174585Y-119184028D01*
X101246014Y-119326885D01*
X101246014Y-119541171D01*
X101174585Y-119684028D01*
X101103157Y-119755457D01*
X100960300Y-119826885D01*
X100388871Y-119826885D01*
X101888871Y-119755457D02*
X102388871Y-119755457D01*
X102603157Y-120541171D02*
X101888871Y-120541171D01*
X101888871Y-119041171D01*
X102603157Y-119041171D01*
D11*
X109256414Y-118329909D02*
X109256414Y-118568004D01*
X107827842Y-118568004D01*
X107827842Y-118329909D01*
X108923080Y-116425147D02*
X107923080Y-116425147D01*
X108875461Y-115996576D02*
X108923080Y-115901338D01*
X108923080Y-115710861D01*
X108875461Y-115615623D01*
X108780223Y-115568004D01*
X108732604Y-115568004D01*
X108637366Y-115615623D01*
X108589747Y-115710861D01*
X108589747Y-115853719D01*
X108542128Y-115948957D01*
X108446890Y-115996576D01*
X108399271Y-115996576D01*
X108304033Y-115948957D01*
X108256414Y-115853719D01*
X108256414Y-115710861D01*
X108304033Y-115615623D01*
X108923080Y-114996576D02*
X108875461Y-115091814D01*
X108827842Y-115139433D01*
X108732604Y-115187052D01*
X108446890Y-115187052D01*
X108351652Y-115139433D01*
X108304033Y-115091814D01*
X108256414Y-114996576D01*
X108256414Y-114853719D01*
X108304033Y-114758480D01*
X108351652Y-114710861D01*
X108446890Y-114663242D01*
X108732604Y-114663242D01*
X108827842Y-114710861D01*
X108875461Y-114758480D01*
X108923080Y-114853719D01*
X108923080Y-114996576D01*
X108923080Y-114091814D02*
X108875461Y-114187052D01*
X108780223Y-114234671D01*
X107923080Y-114234671D01*
X108923080Y-113282290D02*
X108399271Y-113282290D01*
X108304033Y-113329909D01*
X108256414Y-113425147D01*
X108256414Y-113615623D01*
X108304033Y-113710861D01*
X108875461Y-113282290D02*
X108923080Y-113377528D01*
X108923080Y-113615623D01*
X108875461Y-113710861D01*
X108780223Y-113758480D01*
X108684985Y-113758480D01*
X108589747Y-113710861D01*
X108542128Y-113615623D01*
X108542128Y-113377528D01*
X108494509Y-113282290D01*
X108256414Y-112948957D02*
X108256414Y-112568004D01*
X107923080Y-112806100D02*
X108780223Y-112806100D01*
X108875461Y-112758480D01*
X108923080Y-112663242D01*
X108923080Y-112568004D01*
X108875461Y-111853719D02*
X108923080Y-111948957D01*
X108923080Y-112139433D01*
X108875461Y-112234671D01*
X108780223Y-112282290D01*
X108399271Y-112282290D01*
X108304033Y-112234671D01*
X108256414Y-112139433D01*
X108256414Y-111948957D01*
X108304033Y-111853719D01*
X108399271Y-111806100D01*
X108494509Y-111806100D01*
X108589747Y-112282290D01*
X108923080Y-110948957D02*
X107923080Y-110948957D01*
X108875461Y-110948957D02*
X108923080Y-111044195D01*
X108923080Y-111234671D01*
X108875461Y-111329909D01*
X108827842Y-111377528D01*
X108732604Y-111425147D01*
X108446890Y-111425147D01*
X108351652Y-111377528D01*
X108304033Y-111329909D01*
X108256414Y-111234671D01*
X108256414Y-111044195D01*
X108304033Y-110948957D01*
X108923080Y-109710861D02*
X107923080Y-109710861D01*
X107923080Y-109472766D01*
X107970700Y-109329909D01*
X108065938Y-109234671D01*
X108161176Y-109187052D01*
X108351652Y-109139433D01*
X108494509Y-109139433D01*
X108684985Y-109187052D01*
X108780223Y-109234671D01*
X108875461Y-109329909D01*
X108923080Y-109472766D01*
X108923080Y-109710861D01*
X108827842Y-108139433D02*
X108875461Y-108187052D01*
X108923080Y-108329909D01*
X108923080Y-108425147D01*
X108875461Y-108568004D01*
X108780223Y-108663242D01*
X108684985Y-108710861D01*
X108494509Y-108758480D01*
X108351652Y-108758480D01*
X108161176Y-108710861D01*
X108065938Y-108663242D01*
X107970700Y-108568004D01*
X107923080Y-108425147D01*
X107923080Y-108329909D01*
X107970700Y-108187052D01*
X108018319Y-108139433D01*
X109256414Y-106282290D02*
X109256414Y-106044195D01*
X107827842Y-106044195D01*
X107827842Y-106282290D01*
X123772514Y-120004480D02*
X123772514Y-120242576D01*
X122343942Y-120242576D01*
X122343942Y-120004480D01*
X123058228Y-118861623D02*
X123058228Y-118099719D01*
X123439180Y-118480671D02*
X122677276Y-118480671D01*
X123058228Y-116861623D02*
X123058228Y-116099719D01*
X123439180Y-116480671D02*
X122677276Y-116480671D01*
X123058228Y-114861623D02*
X123058228Y-114099719D01*
X123439180Y-114480671D02*
X122677276Y-114480671D01*
X123772514Y-112956861D02*
X123772514Y-112718766D01*
X122343942Y-112718766D01*
X122343942Y-112956861D01*
X123772514Y-111147338D02*
X123772514Y-111385433D01*
X122343942Y-111385433D01*
X122343942Y-111147338D01*
X123058228Y-110004480D02*
X123058228Y-109242576D01*
X123058228Y-108004480D02*
X123058228Y-107242576D01*
X123058228Y-106004480D02*
X123058228Y-105242576D01*
X123772514Y-104099719D02*
X123772514Y-103861623D01*
X122343942Y-103861623D01*
X122343942Y-104099719D01*
X109141595Y-126366614D02*
X109332071Y-127033280D01*
X109522547Y-126557090D01*
X109713023Y-127033280D01*
X109903500Y-126366614D01*
X110189214Y-126366614D02*
X110379690Y-127033280D01*
X110570166Y-126557090D01*
X110760642Y-127033280D01*
X110951119Y-126366614D01*
X111236833Y-126366614D02*
X111427309Y-127033280D01*
X111617785Y-126557090D01*
X111808261Y-127033280D01*
X111998738Y-126366614D01*
X112379690Y-126938042D02*
X112427309Y-126985661D01*
X112379690Y-127033280D01*
X112332071Y-126985661D01*
X112379690Y-126938042D01*
X112379690Y-127033280D01*
X112855880Y-126366614D02*
X112855880Y-127033280D01*
X112855880Y-126461852D02*
X112903500Y-126414233D01*
X112998738Y-126366614D01*
X113141595Y-126366614D01*
X113236833Y-126414233D01*
X113284452Y-126509471D01*
X113284452Y-127033280D01*
X113665404Y-126366614D02*
X113903500Y-127033280D01*
X114141595Y-126366614D02*
X113903500Y-127033280D01*
X113808261Y-127271376D01*
X113760642Y-127318995D01*
X113665404Y-127366614D01*
X114951119Y-127033280D02*
X114951119Y-126509471D01*
X114903500Y-126414233D01*
X114808261Y-126366614D01*
X114617785Y-126366614D01*
X114522547Y-126414233D01*
X114951119Y-126985661D02*
X114855880Y-127033280D01*
X114617785Y-127033280D01*
X114522547Y-126985661D01*
X114474928Y-126890423D01*
X114474928Y-126795185D01*
X114522547Y-126699947D01*
X114617785Y-126652328D01*
X114855880Y-126652328D01*
X114951119Y-126604709D01*
X115427309Y-126366614D02*
X115427309Y-127033280D01*
X115427309Y-126461852D02*
X115474928Y-126414233D01*
X115570166Y-126366614D01*
X115713023Y-126366614D01*
X115808261Y-126414233D01*
X115855880Y-126509471D01*
X115855880Y-127033280D01*
X116189214Y-126366614D02*
X116570166Y-126366614D01*
X116332071Y-126033280D02*
X116332071Y-126890423D01*
X116379690Y-126985661D01*
X116474928Y-127033280D01*
X116570166Y-127033280D01*
X116903500Y-127033280D02*
X116903500Y-126366614D01*
X116903500Y-126557090D02*
X116951119Y-126461852D01*
X116998738Y-126414233D01*
X117093976Y-126366614D01*
X117189214Y-126366614D01*
X117665404Y-127033280D02*
X117570166Y-126985661D01*
X117522547Y-126938042D01*
X117474928Y-126842804D01*
X117474928Y-126557090D01*
X117522547Y-126461852D01*
X117570166Y-126414233D01*
X117665404Y-126366614D01*
X117808261Y-126366614D01*
X117903500Y-126414233D01*
X117951119Y-126461852D01*
X117998738Y-126557090D01*
X117998738Y-126842804D01*
X117951119Y-126938042D01*
X117903500Y-126985661D01*
X117808261Y-127033280D01*
X117665404Y-127033280D01*
X118427309Y-126366614D02*
X118427309Y-127033280D01*
X118427309Y-126461852D02*
X118474928Y-126414233D01*
X118570166Y-126366614D01*
X118713023Y-126366614D01*
X118808261Y-126414233D01*
X118855880Y-126509471D01*
X118855880Y-127033280D01*
X119332071Y-127033280D02*
X119332071Y-126366614D01*
X119332071Y-126033280D02*
X119284452Y-126080900D01*
X119332071Y-126128519D01*
X119379690Y-126080900D01*
X119332071Y-126033280D01*
X119332071Y-126128519D01*
X120236833Y-126985661D02*
X120141595Y-127033280D01*
X119951119Y-127033280D01*
X119855880Y-126985661D01*
X119808261Y-126938042D01*
X119760642Y-126842804D01*
X119760642Y-126557090D01*
X119808261Y-126461852D01*
X119855880Y-126414233D01*
X119951119Y-126366614D01*
X120141595Y-126366614D01*
X120236833Y-126414233D01*
X120617785Y-126985661D02*
X120713023Y-127033280D01*
X120903500Y-127033280D01*
X120998738Y-126985661D01*
X121046357Y-126890423D01*
X121046357Y-126842804D01*
X120998738Y-126747566D01*
X120903500Y-126699947D01*
X120760642Y-126699947D01*
X120665404Y-126652328D01*
X120617785Y-126557090D01*
X120617785Y-126509471D01*
X120665404Y-126414233D01*
X120760642Y-126366614D01*
X120903500Y-126366614D01*
X120998738Y-126414233D01*
X121474928Y-126938042D02*
X121522547Y-126985661D01*
X121474928Y-127033280D01*
X121427309Y-126985661D01*
X121474928Y-126938042D01*
X121474928Y-127033280D01*
X122379690Y-126985661D02*
X122284452Y-127033280D01*
X122093976Y-127033280D01*
X121998738Y-126985661D01*
X121951119Y-126938042D01*
X121903500Y-126842804D01*
X121903500Y-126557090D01*
X121951119Y-126461852D01*
X121998738Y-126414233D01*
X122093976Y-126366614D01*
X122284452Y-126366614D01*
X122379690Y-126414233D01*
X122951119Y-127033280D02*
X122855880Y-126985661D01*
X122808261Y-126938042D01*
X122760642Y-126842804D01*
X122760642Y-126557090D01*
X122808261Y-126461852D01*
X122855880Y-126414233D01*
X122951119Y-126366614D01*
X123093976Y-126366614D01*
X123189214Y-126414233D01*
X123236833Y-126461852D01*
X123284452Y-126557090D01*
X123284452Y-126842804D01*
X123236833Y-126938042D01*
X123189214Y-126985661D01*
X123093976Y-127033280D01*
X122951119Y-127033280D01*
X123713023Y-127033280D02*
X123713023Y-126366614D01*
X123713023Y-126461852D02*
X123760642Y-126414233D01*
X123855880Y-126366614D01*
X123998738Y-126366614D01*
X124093976Y-126414233D01*
X124141595Y-126509471D01*
X124141595Y-127033280D01*
X124141595Y-126509471D02*
X124189214Y-126414233D01*
X124284452Y-126366614D01*
X124427309Y-126366614D01*
X124522547Y-126414233D01*
X124570166Y-126509471D01*
X124570166Y-127033280D01*
X117132885Y-88574809D02*
X117132885Y-88336714D01*
X118561457Y-88336714D01*
X118561457Y-88574809D01*
X118466219Y-88860523D02*
X117466219Y-89098619D01*
X118180504Y-89289095D01*
X117466219Y-89479571D01*
X118466219Y-89717666D01*
X117466219Y-90098619D02*
X118132885Y-90098619D01*
X117942409Y-90098619D02*
X118037647Y-90146238D01*
X118085266Y-90193857D01*
X118132885Y-90289095D01*
X118132885Y-90384333D01*
X117466219Y-90717666D02*
X118132885Y-90717666D01*
X118466219Y-90717666D02*
X118418600Y-90670047D01*
X118370980Y-90717666D01*
X118418600Y-90765285D01*
X118466219Y-90717666D01*
X118370980Y-90717666D01*
X118132885Y-91051000D02*
X118132885Y-91431952D01*
X118466219Y-91193857D02*
X117609076Y-91193857D01*
X117513838Y-91241476D01*
X117466219Y-91336714D01*
X117466219Y-91431952D01*
X117513838Y-92146238D02*
X117466219Y-92051000D01*
X117466219Y-91860523D01*
X117513838Y-91765285D01*
X117609076Y-91717666D01*
X117990028Y-91717666D01*
X118085266Y-91765285D01*
X118132885Y-91860523D01*
X118132885Y-92051000D01*
X118085266Y-92146238D01*
X117990028Y-92193857D01*
X117894790Y-92193857D01*
X117799552Y-91717666D01*
X117132885Y-92527190D02*
X117132885Y-92765285D01*
X118561457Y-92765285D01*
X118561457Y-92527190D01*
X115432885Y-84170047D02*
X115432885Y-83931952D01*
X116861457Y-83931952D01*
X116861457Y-84170047D01*
X115766219Y-84551000D02*
X116766219Y-84551000D01*
X116766219Y-84931952D01*
X116718600Y-85027190D01*
X116670980Y-85074809D01*
X116575742Y-85122428D01*
X116432885Y-85122428D01*
X116337647Y-85074809D01*
X116290028Y-85027190D01*
X116242409Y-84931952D01*
X116242409Y-84551000D01*
X115766219Y-85551000D02*
X116432885Y-85551000D01*
X116242409Y-85551000D02*
X116337647Y-85598619D01*
X116385266Y-85646238D01*
X116432885Y-85741476D01*
X116432885Y-85836714D01*
X115766219Y-86312904D02*
X115813838Y-86217666D01*
X115861457Y-86170047D01*
X115956695Y-86122428D01*
X116242409Y-86122428D01*
X116337647Y-86170047D01*
X116385266Y-86217666D01*
X116432885Y-86312904D01*
X116432885Y-86455761D01*
X116385266Y-86551000D01*
X116337647Y-86598619D01*
X116242409Y-86646238D01*
X115956695Y-86646238D01*
X115861457Y-86598619D01*
X115813838Y-86551000D01*
X115766219Y-86455761D01*
X115766219Y-86312904D01*
X116432885Y-86931952D02*
X116432885Y-87312904D01*
X116766219Y-87074809D02*
X115909076Y-87074809D01*
X115813838Y-87122428D01*
X115766219Y-87217666D01*
X115766219Y-87312904D01*
X115813838Y-88027190D02*
X115766219Y-87931952D01*
X115766219Y-87741476D01*
X115813838Y-87646238D01*
X115909076Y-87598619D01*
X116290028Y-87598619D01*
X116385266Y-87646238D01*
X116432885Y-87741476D01*
X116432885Y-87931952D01*
X116385266Y-88027190D01*
X116290028Y-88074809D01*
X116194790Y-88074809D01*
X116099552Y-87598619D01*
X115813838Y-88931952D02*
X115766219Y-88836714D01*
X115766219Y-88646238D01*
X115813838Y-88551000D01*
X115861457Y-88503380D01*
X115956695Y-88455761D01*
X116242409Y-88455761D01*
X116337647Y-88503380D01*
X116385266Y-88551000D01*
X116432885Y-88646238D01*
X116432885Y-88836714D01*
X116385266Y-88931952D01*
X116432885Y-89217666D02*
X116432885Y-89598619D01*
X116766219Y-89360523D02*
X115909076Y-89360523D01*
X115813838Y-89408142D01*
X115766219Y-89503380D01*
X115766219Y-89598619D01*
X115432885Y-89836714D02*
X115432885Y-90074809D01*
X116861457Y-90074809D01*
X116861457Y-89836714D01*
X115432885Y-91646238D02*
X115432885Y-91408142D01*
X116861457Y-91408142D01*
X116861457Y-91646238D01*
X116290028Y-92027190D02*
X116290028Y-92360523D01*
X115766219Y-92503380D02*
X115766219Y-92027190D01*
X116766219Y-92027190D01*
X116766219Y-92503380D01*
X116432885Y-92931952D02*
X115766219Y-92931952D01*
X116337647Y-92931952D02*
X116385266Y-92979571D01*
X116432885Y-93074809D01*
X116432885Y-93217666D01*
X116385266Y-93312904D01*
X116290028Y-93360523D01*
X115766219Y-93360523D01*
X115766219Y-94265285D02*
X116290028Y-94265285D01*
X116385266Y-94217666D01*
X116432885Y-94122428D01*
X116432885Y-93931952D01*
X116385266Y-93836714D01*
X115813838Y-94265285D02*
X115766219Y-94170047D01*
X115766219Y-93931952D01*
X115813838Y-93836714D01*
X115909076Y-93789095D01*
X116004314Y-93789095D01*
X116099552Y-93836714D01*
X116147171Y-93931952D01*
X116147171Y-94170047D01*
X116194790Y-94265285D01*
X115766219Y-94741476D02*
X116766219Y-94741476D01*
X116385266Y-94741476D02*
X116432885Y-94836714D01*
X116432885Y-95027190D01*
X116385266Y-95122428D01*
X116337647Y-95170047D01*
X116242409Y-95217666D01*
X115956695Y-95217666D01*
X115861457Y-95170047D01*
X115813838Y-95122428D01*
X115766219Y-95027190D01*
X115766219Y-94836714D01*
X115813838Y-94741476D01*
X115766219Y-95789095D02*
X115813838Y-95693857D01*
X115909076Y-95646238D01*
X116766219Y-95646238D01*
X115813838Y-96551000D02*
X115766219Y-96455761D01*
X115766219Y-96265285D01*
X115813838Y-96170047D01*
X115909076Y-96122428D01*
X116290028Y-96122428D01*
X116385266Y-96170047D01*
X116432885Y-96265285D01*
X116432885Y-96455761D01*
X116385266Y-96551000D01*
X116290028Y-96598619D01*
X116194790Y-96598619D01*
X116099552Y-96122428D01*
X115432885Y-96931952D02*
X115432885Y-97170047D01*
X116861457Y-97170047D01*
X116861457Y-96931952D01*
X106214800Y-83947333D02*
X106262419Y-83852095D01*
X106262419Y-83709238D01*
X106214800Y-83566380D01*
X106119561Y-83471142D01*
X106024323Y-83423523D01*
X105833847Y-83375904D01*
X105690990Y-83375904D01*
X105500514Y-83423523D01*
X105405276Y-83471142D01*
X105310038Y-83566380D01*
X105262419Y-83709238D01*
X105262419Y-83804476D01*
X105310038Y-83947333D01*
X105357657Y-83994952D01*
X105690990Y-83994952D01*
X105690990Y-83804476D01*
X105262419Y-84423523D02*
X106262419Y-84423523D01*
X105262419Y-84994952D01*
X106262419Y-84994952D01*
X105262419Y-85471142D02*
X106262419Y-85471142D01*
X106262419Y-85709238D01*
X106214800Y-85852095D01*
X106119561Y-85947333D01*
X106024323Y-85994952D01*
X105833847Y-86042571D01*
X105690990Y-86042571D01*
X105500514Y-85994952D01*
X105405276Y-85947333D01*
X105310038Y-85852095D01*
X105262419Y-85709238D01*
X105262419Y-85471142D01*
X105643371Y-87233047D02*
X105643371Y-87994952D01*
X105262419Y-87614000D02*
X106024323Y-87614000D01*
X106262419Y-88947333D02*
X106262419Y-88471142D01*
X105786228Y-88423523D01*
X105833847Y-88471142D01*
X105881466Y-88566380D01*
X105881466Y-88804476D01*
X105833847Y-88899714D01*
X105786228Y-88947333D01*
X105690990Y-88994952D01*
X105452895Y-88994952D01*
X105357657Y-88947333D01*
X105310038Y-88899714D01*
X105262419Y-88804476D01*
X105262419Y-88566380D01*
X105310038Y-88471142D01*
X105357657Y-88423523D01*
X106262419Y-89280666D02*
X105262419Y-89614000D01*
X106262419Y-89947333D01*
X161471428Y-117480952D02*
X161471428Y-116642857D01*
X161852380Y-117061904D02*
X161090476Y-117061904D01*
X161852380Y-115542857D02*
X161852380Y-116171428D01*
X161852380Y-115857142D02*
X160852380Y-115857142D01*
X160995238Y-115961904D01*
X161090476Y-116066666D01*
X161138095Y-116171428D01*
X161471428Y-115071428D02*
X161471428Y-114233333D01*
X161471428Y-112033333D02*
X161471428Y-111195238D01*
X161852380Y-111614285D02*
X161090476Y-111614285D01*
X160947619Y-110723809D02*
X160900000Y-110671428D01*
X160852380Y-110566666D01*
X160852380Y-110304761D01*
X160900000Y-110200000D01*
X160947619Y-110147619D01*
X161042857Y-110095238D01*
X161138095Y-110095238D01*
X161280952Y-110147619D01*
X161852380Y-110776190D01*
X161852380Y-110095238D01*
X161471428Y-109623809D02*
X161471428Y-108785714D01*
X161471428Y-106585714D02*
X161471428Y-105747619D01*
X161852380Y-106166666D02*
X161090476Y-106166666D01*
X160852380Y-105328571D02*
X160852380Y-104647619D01*
X161233333Y-105014285D01*
X161233333Y-104857142D01*
X161280952Y-104752380D01*
X161328571Y-104700000D01*
X161423809Y-104647619D01*
X161661904Y-104647619D01*
X161757142Y-104700000D01*
X161804761Y-104752380D01*
X161852380Y-104857142D01*
X161852380Y-105171428D01*
X161804761Y-105276190D01*
X161757142Y-105328571D01*
X161471428Y-104176190D02*
X161471428Y-103338095D01*
X161471428Y-99461904D02*
X161471428Y-98623809D01*
X161852380Y-99042857D02*
X161090476Y-99042857D01*
X161185714Y-97628571D02*
X161852380Y-97628571D01*
X160804761Y-97890476D02*
X161519047Y-98152380D01*
X161519047Y-97471428D01*
X161471428Y-97052380D02*
X161471428Y-96214285D01*
X161471428Y-94014285D02*
X161471428Y-93176190D01*
X161852380Y-93595238D02*
X161090476Y-93595238D01*
X160852380Y-92128571D02*
X160852380Y-92652380D01*
X161328571Y-92704761D01*
X161280952Y-92652380D01*
X161233333Y-92547619D01*
X161233333Y-92285714D01*
X161280952Y-92180952D01*
X161328571Y-92128571D01*
X161423809Y-92076190D01*
X161661904Y-92076190D01*
X161757142Y-92128571D01*
X161804761Y-92180952D01*
X161852380Y-92285714D01*
X161852380Y-92547619D01*
X161804761Y-92652380D01*
X161757142Y-92704761D01*
X161471428Y-91604761D02*
X161471428Y-90766666D01*
X161471428Y-88566666D02*
X161471428Y-87728571D01*
X161852380Y-88147619D02*
X161090476Y-88147619D01*
X160852380Y-86733333D02*
X160852380Y-86942857D01*
X160900000Y-87047619D01*
X160947619Y-87100000D01*
X161090476Y-87204761D01*
X161280952Y-87257142D01*
X161661904Y-87257142D01*
X161757142Y-87204761D01*
X161804761Y-87152380D01*
X161852380Y-87047619D01*
X161852380Y-86838095D01*
X161804761Y-86733333D01*
X161757142Y-86680952D01*
X161661904Y-86628571D01*
X161423809Y-86628571D01*
X161328571Y-86680952D01*
X161280952Y-86733333D01*
X161233333Y-86838095D01*
X161233333Y-87047619D01*
X161280952Y-87152380D01*
X161328571Y-87204761D01*
X161423809Y-87257142D01*
X161471428Y-86157142D02*
X161471428Y-85319047D01*
X127445738Y-126969780D02*
X127445738Y-125969780D01*
X127683833Y-125969780D01*
X127826690Y-126017400D01*
X127921928Y-126112638D01*
X127969547Y-126207876D01*
X128017166Y-126398352D01*
X128017166Y-126541209D01*
X127969547Y-126731685D01*
X127921928Y-126826923D01*
X127826690Y-126922161D01*
X127683833Y-126969780D01*
X127445738Y-126969780D01*
X128826690Y-126922161D02*
X128731452Y-126969780D01*
X128540976Y-126969780D01*
X128445738Y-126922161D01*
X128398119Y-126826923D01*
X128398119Y-126445971D01*
X128445738Y-126350733D01*
X128540976Y-126303114D01*
X128731452Y-126303114D01*
X128826690Y-126350733D01*
X128874309Y-126445971D01*
X128874309Y-126541209D01*
X128398119Y-126636447D01*
X129302880Y-126969780D02*
X129302880Y-125969780D01*
X129302880Y-126350733D02*
X129398119Y-126303114D01*
X129588595Y-126303114D01*
X129683833Y-126350733D01*
X129731452Y-126398352D01*
X129779071Y-126493590D01*
X129779071Y-126779304D01*
X129731452Y-126874542D01*
X129683833Y-126922161D01*
X129588595Y-126969780D01*
X129398119Y-126969780D01*
X129302880Y-126922161D01*
X130350500Y-126969780D02*
X130255261Y-126922161D01*
X130207642Y-126874542D01*
X130160023Y-126779304D01*
X130160023Y-126493590D01*
X130207642Y-126398352D01*
X130255261Y-126350733D01*
X130350500Y-126303114D01*
X130493357Y-126303114D01*
X130588595Y-126350733D01*
X130636214Y-126398352D01*
X130683833Y-126493590D01*
X130683833Y-126779304D01*
X130636214Y-126874542D01*
X130588595Y-126922161D01*
X130493357Y-126969780D01*
X130350500Y-126969780D01*
X131540976Y-126303114D02*
X131540976Y-126969780D01*
X131112404Y-126303114D02*
X131112404Y-126826923D01*
X131160023Y-126922161D01*
X131255261Y-126969780D01*
X131398119Y-126969780D01*
X131493357Y-126922161D01*
X131540976Y-126874542D01*
X132017166Y-126303114D02*
X132017166Y-126969780D01*
X132017166Y-126398352D02*
X132064785Y-126350733D01*
X132160023Y-126303114D01*
X132302880Y-126303114D01*
X132398119Y-126350733D01*
X132445738Y-126445971D01*
X132445738Y-126969780D01*
X133350500Y-126922161D02*
X133255261Y-126969780D01*
X133064785Y-126969780D01*
X132969547Y-126922161D01*
X132921928Y-126874542D01*
X132874309Y-126779304D01*
X132874309Y-126493590D01*
X132921928Y-126398352D01*
X132969547Y-126350733D01*
X133064785Y-126303114D01*
X133255261Y-126303114D01*
X133350500Y-126350733D01*
X134160023Y-126922161D02*
X134064785Y-126969780D01*
X133874309Y-126969780D01*
X133779071Y-126922161D01*
X133731452Y-126826923D01*
X133731452Y-126445971D01*
X133779071Y-126350733D01*
X133874309Y-126303114D01*
X134064785Y-126303114D01*
X134160023Y-126350733D01*
X134207642Y-126445971D01*
X134207642Y-126541209D01*
X133731452Y-126636447D01*
X135398119Y-126969780D02*
X135398119Y-125969780D01*
X135398119Y-126445971D02*
X135969547Y-126445971D01*
X135969547Y-126969780D02*
X135969547Y-125969780D01*
X136398119Y-126684066D02*
X136874309Y-126684066D01*
X136302880Y-126969780D02*
X136636214Y-125969780D01*
X136969547Y-126969780D01*
X137160023Y-125969780D02*
X137731452Y-125969780D01*
X137445738Y-126969780D02*
X137445738Y-125969780D01*
X138826690Y-126588828D02*
X139588595Y-126588828D01*
X140826690Y-126969780D02*
X140826690Y-125969780D01*
X141207642Y-125969780D01*
X141302880Y-126017400D01*
X141350500Y-126065019D01*
X141398119Y-126160257D01*
X141398119Y-126303114D01*
X141350500Y-126398352D01*
X141302880Y-126445971D01*
X141207642Y-126493590D01*
X140826690Y-126493590D01*
X142398119Y-126874542D02*
X142350500Y-126922161D01*
X142207642Y-126969780D01*
X142112404Y-126969780D01*
X141969547Y-126922161D01*
X141874309Y-126826923D01*
X141826690Y-126731685D01*
X141779071Y-126541209D01*
X141779071Y-126398352D01*
X141826690Y-126207876D01*
X141874309Y-126112638D01*
X141969547Y-126017400D01*
X142112404Y-125969780D01*
X142207642Y-125969780D01*
X142350500Y-126017400D01*
X142398119Y-126065019D01*
X143160023Y-126445971D02*
X143302880Y-126493590D01*
X143350500Y-126541209D01*
X143398119Y-126636447D01*
X143398119Y-126779304D01*
X143350500Y-126874542D01*
X143302880Y-126922161D01*
X143207642Y-126969780D01*
X142826690Y-126969780D01*
X142826690Y-125969780D01*
X143160023Y-125969780D01*
X143255261Y-126017400D01*
X143302880Y-126065019D01*
X143350500Y-126160257D01*
X143350500Y-126255495D01*
X143302880Y-126350733D01*
X143255261Y-126398352D01*
X143160023Y-126445971D01*
X142826690Y-126445971D01*
X144493357Y-126303114D02*
X144731452Y-126969780D01*
X144969547Y-126303114D01*
X145874309Y-126969780D02*
X145302880Y-126969780D01*
X145588595Y-126969780D02*
X145588595Y-125969780D01*
X145493357Y-126112638D01*
X145398119Y-126207876D01*
X145302880Y-126255495D01*
X146302880Y-126874542D02*
X146350500Y-126922161D01*
X146302880Y-126969780D01*
X146255261Y-126922161D01*
X146302880Y-126874542D01*
X146302880Y-126969780D01*
X147302880Y-126969780D02*
X146731452Y-126969780D01*
X147017166Y-126969780D02*
X147017166Y-125969780D01*
X146921928Y-126112638D01*
X146826690Y-126207876D01*
X146731452Y-126255495D01*
D12*
G36*
X129532324Y-99965072D02*
G01*
X129507372Y-100109313D01*
X129447255Y-100214333D01*
X129334763Y-100314407D01*
X129182305Y-100380918D01*
X129015644Y-100410010D01*
X128860542Y-100397823D01*
X128742765Y-100340500D01*
X128725260Y-100322457D01*
X128697716Y-100245956D01*
X128693921Y-100153391D01*
X128743386Y-100025492D01*
X128853543Y-99906731D01*
X129000565Y-99811251D01*
X129160625Y-99753196D01*
X129309897Y-99746709D01*
X129356813Y-99759885D01*
X129481451Y-99845144D01*
X129532324Y-99965072D01*
X129532324Y-99965072D01*
G37*
X129532324Y-99965072D02*
X129507372Y-100109313D01*
X129447255Y-100214333D01*
X129334763Y-100314407D01*
X129182305Y-100380918D01*
X129015644Y-100410010D01*
X128860542Y-100397823D01*
X128742765Y-100340500D01*
X128725260Y-100322457D01*
X128697716Y-100245956D01*
X128693921Y-100153391D01*
X128743386Y-100025492D01*
X128853543Y-99906731D01*
X129000565Y-99811251D01*
X129160625Y-99753196D01*
X129309897Y-99746709D01*
X129356813Y-99759885D01*
X129481451Y-99845144D01*
X129532324Y-99965072D01*
G36*
X129716546Y-100766872D02*
G01*
X129719456Y-100779146D01*
X129709312Y-100911503D01*
X129629549Y-101021816D01*
X129494333Y-101100259D01*
X129317825Y-101137014D01*
X129205413Y-101135655D01*
X129028508Y-101092476D01*
X128903572Y-101005526D01*
X128841707Y-100886406D01*
X128848643Y-100762880D01*
X128922666Y-100645929D01*
X129048232Y-100568804D01*
X129204407Y-100531112D01*
X129370259Y-100532465D01*
X129524856Y-100572469D01*
X129647263Y-100650735D01*
X129716546Y-100766872D01*
X129716546Y-100766872D01*
G37*
X129716546Y-100766872D02*
X129719456Y-100779146D01*
X129709312Y-100911503D01*
X129629549Y-101021816D01*
X129494333Y-101100259D01*
X129317825Y-101137014D01*
X129205413Y-101135655D01*
X129028508Y-101092476D01*
X128903572Y-101005526D01*
X128841707Y-100886406D01*
X128848643Y-100762880D01*
X128922666Y-100645929D01*
X129048232Y-100568804D01*
X129204407Y-100531112D01*
X129370259Y-100532465D01*
X129524856Y-100572469D01*
X129647263Y-100650735D01*
X129716546Y-100766872D01*
G36*
X128700590Y-99553878D02*
G01*
X128713389Y-99671132D01*
X128661728Y-99799744D01*
X128560635Y-99921929D01*
X128425144Y-100019901D01*
X128270286Y-100075876D01*
X128257632Y-100077989D01*
X128112359Y-100068764D01*
X128007852Y-100002466D01*
X127959621Y-99894226D01*
X127969115Y-99796564D01*
X128046599Y-99639024D01*
X128162915Y-99517956D01*
X128301023Y-99439014D01*
X128443887Y-99407850D01*
X128574469Y-99430116D01*
X128675732Y-99511468D01*
X128700590Y-99553878D01*
X128700590Y-99553878D01*
G37*
X128700590Y-99553878D02*
X128713389Y-99671132D01*
X128661728Y-99799744D01*
X128560635Y-99921929D01*
X128425144Y-100019901D01*
X128270286Y-100075876D01*
X128257632Y-100077989D01*
X128112359Y-100068764D01*
X128007852Y-100002466D01*
X127959621Y-99894226D01*
X127969115Y-99796564D01*
X128046599Y-99639024D01*
X128162915Y-99517956D01*
X128301023Y-99439014D01*
X128443887Y-99407850D01*
X128574469Y-99430116D01*
X128675732Y-99511468D01*
X128700590Y-99553878D01*
G36*
X125899565Y-97144011D02*
G01*
X125891904Y-97223884D01*
X125816290Y-97362372D01*
X125684683Y-97475949D01*
X125521629Y-97553537D01*
X125351680Y-97584060D01*
X125199386Y-97556440D01*
X125178288Y-97545879D01*
X125102166Y-97502745D01*
X125071416Y-97472204D01*
X125059493Y-97422173D01*
X125055412Y-97397358D01*
X125071431Y-97273640D01*
X125144842Y-97140937D01*
X125257532Y-97028578D01*
X125300171Y-97001008D01*
X125463150Y-96938868D01*
X125621158Y-96928344D01*
X125757615Y-96963187D01*
X125855944Y-97037158D01*
X125899565Y-97144011D01*
X125899565Y-97144011D01*
G37*
X125899565Y-97144011D02*
X125891904Y-97223884D01*
X125816290Y-97362372D01*
X125684683Y-97475949D01*
X125521629Y-97553537D01*
X125351680Y-97584060D01*
X125199386Y-97556440D01*
X125178288Y-97545879D01*
X125102166Y-97502745D01*
X125071416Y-97472204D01*
X125059493Y-97422173D01*
X125055412Y-97397358D01*
X125071431Y-97273640D01*
X125144842Y-97140937D01*
X125257532Y-97028578D01*
X125300171Y-97001008D01*
X125463150Y-96938868D01*
X125621158Y-96928344D01*
X125757615Y-96963187D01*
X125855944Y-97037158D01*
X125899565Y-97144011D01*
G36*
X129148574Y-101451238D02*
G01*
X129148929Y-101557463D01*
X129070412Y-101660588D01*
X129052637Y-101676047D01*
X128933498Y-101738088D01*
X128768159Y-101753127D01*
X128740468Y-101751860D01*
X128598299Y-101733493D01*
X128501775Y-101687393D01*
X128421199Y-101606565D01*
X128348285Y-101499932D01*
X128333365Y-101408316D01*
X128344509Y-101356756D01*
X128379187Y-101274370D01*
X128438690Y-101226691D01*
X128529714Y-101193380D01*
X128732826Y-101166731D01*
X128918614Y-101211330D01*
X129066719Y-101322175D01*
X129070133Y-101326192D01*
X129148574Y-101451238D01*
X129148574Y-101451238D01*
G37*
X129148574Y-101451238D02*
X129148929Y-101557463D01*
X129070412Y-101660588D01*
X129052637Y-101676047D01*
X128933498Y-101738088D01*
X128768159Y-101753127D01*
X128740468Y-101751860D01*
X128598299Y-101733493D01*
X128501775Y-101687393D01*
X128421199Y-101606565D01*
X128348285Y-101499932D01*
X128333365Y-101408316D01*
X128344509Y-101356756D01*
X128379187Y-101274370D01*
X128438690Y-101226691D01*
X128529714Y-101193380D01*
X128732826Y-101166731D01*
X128918614Y-101211330D01*
X129066719Y-101322175D01*
X129070133Y-101326192D01*
X129148574Y-101451238D01*
G36*
X126062544Y-97902739D02*
G01*
X126067736Y-97915577D01*
X126082143Y-98053982D01*
X126018372Y-98170135D01*
X125881465Y-98257345D01*
X125786998Y-98288046D01*
X125599784Y-98308124D01*
X125431611Y-98277515D01*
X125298807Y-98204834D01*
X125217698Y-98098697D01*
X125202659Y-97979715D01*
X125257650Y-97854520D01*
X125369587Y-97764847D01*
X125517872Y-97712221D01*
X125681906Y-97698170D01*
X125841095Y-97724222D01*
X125974841Y-97791902D01*
X126062544Y-97902739D01*
X126062544Y-97902739D01*
G37*
X126062544Y-97902739D02*
X126067736Y-97915577D01*
X126082143Y-98053982D01*
X126018372Y-98170135D01*
X125881465Y-98257345D01*
X125786998Y-98288046D01*
X125599784Y-98308124D01*
X125431611Y-98277515D01*
X125298807Y-98204834D01*
X125217698Y-98098697D01*
X125202659Y-97979715D01*
X125257650Y-97854520D01*
X125369587Y-97764847D01*
X125517872Y-97712221D01*
X125681906Y-97698170D01*
X125841095Y-97724222D01*
X125974841Y-97791902D01*
X126062544Y-97902739D01*
G36*
X125076421Y-96814096D02*
G01*
X125050058Y-96933181D01*
X124983147Y-97050781D01*
X124881702Y-97152846D01*
X124751742Y-97225328D01*
X124599282Y-97254179D01*
X124567210Y-97253510D01*
X124424364Y-97214071D01*
X124342557Y-97120647D01*
X124328834Y-96985996D01*
X124368084Y-96880574D01*
X124465341Y-96768423D01*
X124519479Y-96720752D01*
X124637954Y-96631499D01*
X124733755Y-96591598D01*
X124840896Y-96587510D01*
X124852042Y-96588418D01*
X124983429Y-96627666D01*
X125056216Y-96707574D01*
X125076421Y-96814096D01*
X125076421Y-96814096D01*
G37*
X125076421Y-96814096D02*
X125050058Y-96933181D01*
X124983147Y-97050781D01*
X124881702Y-97152846D01*
X124751742Y-97225328D01*
X124599282Y-97254179D01*
X124567210Y-97253510D01*
X124424364Y-97214071D01*
X124342557Y-97120647D01*
X124328834Y-96985996D01*
X124368084Y-96880574D01*
X124465341Y-96768423D01*
X124519479Y-96720752D01*
X124637954Y-96631499D01*
X124733755Y-96591598D01*
X124840896Y-96587510D01*
X124852042Y-96588418D01*
X124983429Y-96627666D01*
X125056216Y-96707574D01*
X125076421Y-96814096D01*
G36*
X128434018Y-100565087D02*
G01*
X128471121Y-100752607D01*
X128431688Y-100948432D01*
X128429933Y-100952682D01*
X128341197Y-101108617D01*
X128209070Y-101275563D01*
X128056290Y-101429579D01*
X127905598Y-101546730D01*
X127824767Y-101589721D01*
X127711060Y-101625803D01*
X127633921Y-101615030D01*
X127561630Y-101557897D01*
X127509100Y-101493130D01*
X127483976Y-101415100D01*
X127481916Y-101298668D01*
X127493635Y-101164034D01*
X127507695Y-101016056D01*
X127515097Y-100905666D01*
X127514365Y-100855357D01*
X127513981Y-100854681D01*
X127454042Y-100765167D01*
X127385014Y-100636896D01*
X127319932Y-100497740D01*
X127271827Y-100375572D01*
X127253730Y-100298269D01*
X127253738Y-100298050D01*
X127292861Y-100173199D01*
X127398582Y-100098059D01*
X127567872Y-100074165D01*
X127679248Y-100082401D01*
X127942993Y-100144529D01*
X128162003Y-100251831D01*
X128328329Y-100395089D01*
X128434018Y-100565087D01*
X128434018Y-100565087D01*
G37*
X128434018Y-100565087D02*
X128471121Y-100752607D01*
X128431688Y-100948432D01*
X128429933Y-100952682D01*
X128341197Y-101108617D01*
X128209070Y-101275563D01*
X128056290Y-101429579D01*
X127905598Y-101546730D01*
X127824767Y-101589721D01*
X127711060Y-101625803D01*
X127633921Y-101615030D01*
X127561630Y-101557897D01*
X127509100Y-101493130D01*
X127483976Y-101415100D01*
X127481916Y-101298668D01*
X127493635Y-101164034D01*
X127507695Y-101016056D01*
X127515097Y-100905666D01*
X127514365Y-100855357D01*
X127513981Y-100854681D01*
X127454042Y-100765167D01*
X127385014Y-100636896D01*
X127319932Y-100497740D01*
X127271827Y-100375572D01*
X127253730Y-100298269D01*
X127253738Y-100298050D01*
X127292861Y-100173199D01*
X127398582Y-100098059D01*
X127567872Y-100074165D01*
X127679248Y-100082401D01*
X127942993Y-100144529D01*
X128162003Y-100251831D01*
X128328329Y-100395089D01*
X128434018Y-100565087D01*
G36*
X125505993Y-98639197D02*
G01*
X125498596Y-98753304D01*
X125425739Y-98844662D01*
X125297013Y-98902865D01*
X125122011Y-98917512D01*
X125069450Y-98912820D01*
X124894790Y-98863249D01*
X124768258Y-98771025D01*
X124703716Y-98649154D01*
X124700567Y-98566806D01*
X124753861Y-98444006D01*
X124861044Y-98365153D01*
X125002798Y-98331662D01*
X125159804Y-98344950D01*
X125312744Y-98406432D01*
X125438337Y-98512741D01*
X125505993Y-98639197D01*
X125505993Y-98639197D01*
G37*
X125505993Y-98639197D02*
X125498596Y-98753304D01*
X125425739Y-98844662D01*
X125297013Y-98902865D01*
X125122011Y-98917512D01*
X125069450Y-98912820D01*
X124894790Y-98863249D01*
X124768258Y-98771025D01*
X124703716Y-98649154D01*
X124700567Y-98566806D01*
X124753861Y-98444006D01*
X124861044Y-98365153D01*
X125002798Y-98331662D01*
X125159804Y-98344950D01*
X125312744Y-98406432D01*
X125438337Y-98512741D01*
X125505993Y-98639197D01*
G36*
X124802980Y-97743219D02*
G01*
X124831675Y-97938888D01*
X124777469Y-98145051D01*
X124640119Y-98362769D01*
X124463821Y-98552041D01*
X124272278Y-98710230D01*
X124114175Y-98792375D01*
X123991512Y-98799161D01*
X123906284Y-98731270D01*
X123860488Y-98589388D01*
X123856121Y-98374199D01*
X123858386Y-98344539D01*
X123866893Y-98168339D01*
X123851543Y-98036458D01*
X123804802Y-97910140D01*
X123755543Y-97815420D01*
X123668069Y-97617461D01*
X123638680Y-97452437D01*
X123667601Y-97330048D01*
X123742745Y-97264760D01*
X123902029Y-97235080D01*
X124098930Y-97253876D01*
X124307876Y-97313273D01*
X124503294Y-97405396D01*
X124659611Y-97522368D01*
X124691626Y-97556988D01*
X124802980Y-97743219D01*
X124802980Y-97743219D01*
G37*
X124802980Y-97743219D02*
X124831675Y-97938888D01*
X124777469Y-98145051D01*
X124640119Y-98362769D01*
X124463821Y-98552041D01*
X124272278Y-98710230D01*
X124114175Y-98792375D01*
X123991512Y-98799161D01*
X123906284Y-98731270D01*
X123860488Y-98589388D01*
X123856121Y-98374199D01*
X123858386Y-98344539D01*
X123866893Y-98168339D01*
X123851543Y-98036458D01*
X123804802Y-97910140D01*
X123755543Y-97815420D01*
X123668069Y-97617461D01*
X123638680Y-97452437D01*
X123667601Y-97330048D01*
X123742745Y-97264760D01*
X123902029Y-97235080D01*
X124098930Y-97253876D01*
X124307876Y-97313273D01*
X124503294Y-97405396D01*
X124659611Y-97522368D01*
X124691626Y-97556988D01*
X124802980Y-97743219D01*
G36*
X124121385Y-100522582D02*
G01*
X124139512Y-100645574D01*
X124090234Y-100770782D01*
X123989464Y-100885371D01*
X123853116Y-100976504D01*
X123697104Y-101031346D01*
X123537339Y-101037060D01*
X123494524Y-101028223D01*
X123364700Y-100969333D01*
X123308424Y-100875064D01*
X123314553Y-100747608D01*
X123378741Y-100601702D01*
X123492005Y-100486771D01*
X123635544Y-100408061D01*
X123790557Y-100370813D01*
X123938246Y-100380271D01*
X124059813Y-100441677D01*
X124121385Y-100522582D01*
X124121385Y-100522582D01*
G37*
X124121385Y-100522582D02*
X124139512Y-100645574D01*
X124090234Y-100770782D01*
X123989464Y-100885371D01*
X123853116Y-100976504D01*
X123697104Y-101031346D01*
X123537339Y-101037060D01*
X123494524Y-101028223D01*
X123364700Y-100969333D01*
X123308424Y-100875064D01*
X123314553Y-100747608D01*
X123378741Y-100601702D01*
X123492005Y-100486771D01*
X123635544Y-100408061D01*
X123790557Y-100370813D01*
X123938246Y-100380271D01*
X124059813Y-100441677D01*
X124121385Y-100522582D01*
G36*
X124307315Y-101367829D02*
G01*
X124311120Y-101387040D01*
X124314136Y-101487607D01*
X124268618Y-101575727D01*
X124205671Y-101643244D01*
X124119643Y-101716623D01*
X124037207Y-101750587D01*
X123923893Y-101755122D01*
X123840321Y-101749078D01*
X123680688Y-101724536D01*
X123575391Y-101677414D01*
X123512180Y-101617674D01*
X123449870Y-101521560D01*
X123425243Y-101439184D01*
X123425443Y-101435273D01*
X123469612Y-101344269D01*
X123570042Y-101252685D01*
X123700724Y-101179949D01*
X123809427Y-101148412D01*
X123947496Y-101150040D01*
X124097452Y-101182848D01*
X124121529Y-101191658D01*
X124228439Y-101239935D01*
X124281483Y-101289502D01*
X124307315Y-101367829D01*
X124307315Y-101367829D01*
G37*
X124307315Y-101367829D02*
X124311120Y-101387040D01*
X124314136Y-101487607D01*
X124268618Y-101575727D01*
X124205671Y-101643244D01*
X124119643Y-101716623D01*
X124037207Y-101750587D01*
X123923893Y-101755122D01*
X123840321Y-101749078D01*
X123680688Y-101724536D01*
X123575391Y-101677414D01*
X123512180Y-101617674D01*
X123449870Y-101521560D01*
X123425243Y-101439184D01*
X123425443Y-101435273D01*
X123469612Y-101344269D01*
X123570042Y-101252685D01*
X123700724Y-101179949D01*
X123809427Y-101148412D01*
X123947496Y-101150040D01*
X124097452Y-101182848D01*
X124121529Y-101191658D01*
X124228439Y-101239935D01*
X124281483Y-101289502D01*
X124307315Y-101367829D01*
G36*
X123313686Y-100243723D02*
G01*
X123287596Y-100370642D01*
X123216886Y-100497376D01*
X123107516Y-100604823D01*
X123025118Y-100652400D01*
X122853930Y-100700708D01*
X122715494Y-100686565D01*
X122621756Y-100616557D01*
X122584661Y-100497265D01*
X122592527Y-100414002D01*
X122663648Y-100256242D01*
X122790326Y-100133230D01*
X122949699Y-100057899D01*
X123118900Y-100043184D01*
X123208169Y-100065733D01*
X123289196Y-100135720D01*
X123313686Y-100243723D01*
X123313686Y-100243723D01*
G37*
X123313686Y-100243723D02*
X123287596Y-100370642D01*
X123216886Y-100497376D01*
X123107516Y-100604823D01*
X123025118Y-100652400D01*
X122853930Y-100700708D01*
X122715494Y-100686565D01*
X122621756Y-100616557D01*
X122584661Y-100497265D01*
X122592527Y-100414002D01*
X122663648Y-100256242D01*
X122790326Y-100133230D01*
X122949699Y-100057899D01*
X123118900Y-100043184D01*
X123208169Y-100065733D01*
X123289196Y-100135720D01*
X123313686Y-100243723D01*
G36*
X123746341Y-102042634D02*
G01*
X123761674Y-102125757D01*
X123726703Y-102200868D01*
X123650465Y-102285310D01*
X123645153Y-102289845D01*
X123500727Y-102360475D01*
X123329820Y-102370961D01*
X123162012Y-102324605D01*
X123026883Y-102224707D01*
X123023214Y-102220408D01*
X122955653Y-102120733D01*
X122923703Y-102035330D01*
X122923351Y-102022365D01*
X122968909Y-101927204D01*
X123070915Y-101842165D01*
X123201848Y-101788190D01*
X123239946Y-101781496D01*
X123393084Y-101791803D01*
X123542917Y-101848255D01*
X123667863Y-101936613D01*
X123746341Y-102042634D01*
X123746341Y-102042634D01*
G37*
X123746341Y-102042634D02*
X123761674Y-102125757D01*
X123726703Y-102200868D01*
X123650465Y-102285310D01*
X123645153Y-102289845D01*
X123500727Y-102360475D01*
X123329820Y-102370961D01*
X123162012Y-102324605D01*
X123026883Y-102224707D01*
X123023214Y-102220408D01*
X122955653Y-102120733D01*
X122923703Y-102035330D01*
X122923351Y-102022365D01*
X122968909Y-101927204D01*
X123070915Y-101842165D01*
X123201848Y-101788190D01*
X123239946Y-101781496D01*
X123393084Y-101791803D01*
X123542917Y-101848255D01*
X123667863Y-101936613D01*
X123746341Y-102042634D01*
G36*
X120727026Y-98157082D02*
G01*
X120707345Y-98286026D01*
X120623684Y-98410587D01*
X120484702Y-98516766D01*
X120339114Y-98579188D01*
X120157832Y-98608492D01*
X120016031Y-98577329D01*
X119924616Y-98491689D01*
X119894498Y-98357564D01*
X119895756Y-98335684D01*
X119944833Y-98186944D01*
X120050706Y-98065279D01*
X120193254Y-97978391D01*
X120352357Y-97933982D01*
X120507892Y-97939754D01*
X120639741Y-98003409D01*
X120674062Y-98037759D01*
X120727026Y-98157082D01*
X120727026Y-98157082D01*
G37*
X120727026Y-98157082D02*
X120707345Y-98286026D01*
X120623684Y-98410587D01*
X120484702Y-98516766D01*
X120339114Y-98579188D01*
X120157832Y-98608492D01*
X120016031Y-98577329D01*
X119924616Y-98491689D01*
X119894498Y-98357564D01*
X119895756Y-98335684D01*
X119944833Y-98186944D01*
X120050706Y-98065279D01*
X120193254Y-97978391D01*
X120352357Y-97933982D01*
X120507892Y-97939754D01*
X120639741Y-98003409D01*
X120674062Y-98037759D01*
X120727026Y-98157082D01*
G36*
X120897435Y-98926851D02*
G01*
X120900902Y-99050560D01*
X120822965Y-99180826D01*
X120768123Y-99232998D01*
X120672647Y-99295682D01*
X120564090Y-99320394D01*
X120413706Y-99315842D01*
X120222414Y-99273801D01*
X120090974Y-99190447D01*
X120027918Y-99072611D01*
X120024576Y-99004290D01*
X120073903Y-98884628D01*
X120185063Y-98789724D01*
X120336688Y-98728654D01*
X120507411Y-98710490D01*
X120654857Y-98736653D01*
X120814706Y-98819086D01*
X120897435Y-98926851D01*
X120897435Y-98926851D01*
G37*
X120897435Y-98926851D02*
X120900902Y-99050560D01*
X120822965Y-99180826D01*
X120768123Y-99232998D01*
X120672647Y-99295682D01*
X120564090Y-99320394D01*
X120413706Y-99315842D01*
X120222414Y-99273801D01*
X120090974Y-99190447D01*
X120027918Y-99072611D01*
X120024576Y-99004290D01*
X120073903Y-98884628D01*
X120185063Y-98789724D01*
X120336688Y-98728654D01*
X120507411Y-98710490D01*
X120654857Y-98736653D01*
X120814706Y-98819086D01*
X120897435Y-98926851D01*
G36*
X119873054Y-97711858D02*
G01*
X119880230Y-97736417D01*
X119880455Y-97874566D01*
X119824260Y-98023949D01*
X119727541Y-98151764D01*
X119652275Y-98206808D01*
X119502498Y-98257458D01*
X119353859Y-98262988D01*
X119236177Y-98224095D01*
X119204537Y-98196357D01*
X119166297Y-98097944D01*
X119169507Y-97981081D01*
X119244056Y-97816660D01*
X119378884Y-97691259D01*
X119552840Y-97620702D01*
X119663856Y-97611163D01*
X119780745Y-97620132D01*
X119841113Y-97648276D01*
X119873054Y-97711858D01*
X119873054Y-97711858D01*
G37*
X119873054Y-97711858D02*
X119880230Y-97736417D01*
X119880455Y-97874566D01*
X119824260Y-98023949D01*
X119727541Y-98151764D01*
X119652275Y-98206808D01*
X119502498Y-98257458D01*
X119353859Y-98262988D01*
X119236177Y-98224095D01*
X119204537Y-98196357D01*
X119166297Y-98097944D01*
X119169507Y-97981081D01*
X119244056Y-97816660D01*
X119378884Y-97691259D01*
X119552840Y-97620702D01*
X119663856Y-97611163D01*
X119780745Y-97620132D01*
X119841113Y-97648276D01*
X119873054Y-97711858D01*
G36*
X123031273Y-101171383D02*
G01*
X123060271Y-101371440D01*
X123025772Y-101574216D01*
X123005115Y-101625710D01*
X122936472Y-101737512D01*
X122828409Y-101874452D01*
X122712244Y-101998823D01*
X122542415Y-102148347D01*
X122405849Y-102228623D01*
X122292014Y-102242857D01*
X122190375Y-102194261D01*
X122159867Y-102167107D01*
X122105369Y-102098787D01*
X122082732Y-102016705D01*
X122086952Y-101892978D01*
X122096551Y-101814271D01*
X122109022Y-101633413D01*
X122086477Y-101476000D01*
X122021317Y-101310387D01*
X121939909Y-101161754D01*
X121879446Y-101007491D01*
X121874681Y-100861995D01*
X121925544Y-100750490D01*
X121941122Y-100735536D01*
X122052534Y-100691102D01*
X122212814Y-100687836D01*
X122400376Y-100719949D01*
X122593636Y-100781656D01*
X122771005Y-100867170D01*
X122910898Y-100970704D01*
X122941805Y-101003786D01*
X123031273Y-101171383D01*
X123031273Y-101171383D01*
G37*
X123031273Y-101171383D02*
X123060271Y-101371440D01*
X123025772Y-101574216D01*
X123005115Y-101625710D01*
X122936472Y-101737512D01*
X122828409Y-101874452D01*
X122712244Y-101998823D01*
X122542415Y-102148347D01*
X122405849Y-102228623D01*
X122292014Y-102242857D01*
X122190375Y-102194261D01*
X122159867Y-102167107D01*
X122105369Y-102098787D01*
X122082732Y-102016705D01*
X122086952Y-101892978D01*
X122096551Y-101814271D01*
X122109022Y-101633413D01*
X122086477Y-101476000D01*
X122021317Y-101310387D01*
X121939909Y-101161754D01*
X121879446Y-101007491D01*
X121874681Y-100861995D01*
X121925544Y-100750490D01*
X121941122Y-100735536D01*
X122052534Y-100691102D01*
X122212814Y-100687836D01*
X122400376Y-100719949D01*
X122593636Y-100781656D01*
X122771005Y-100867170D01*
X122910898Y-100970704D01*
X122941805Y-101003786D01*
X123031273Y-101171383D01*
G36*
X120322261Y-99624340D02*
G01*
X120324886Y-99729892D01*
X120249324Y-99832914D01*
X120222134Y-99856924D01*
X120077708Y-99927555D01*
X119906801Y-99938040D01*
X119738993Y-99891683D01*
X119603864Y-99791786D01*
X119600195Y-99787486D01*
X119532633Y-99687813D01*
X119500684Y-99602409D01*
X119500332Y-99589444D01*
X119547286Y-99478745D01*
X119651923Y-99401619D01*
X119793139Y-99360635D01*
X119949832Y-99358362D01*
X120100899Y-99397368D01*
X120225236Y-99480221D01*
X120242420Y-99499118D01*
X120322261Y-99624340D01*
X120322261Y-99624340D01*
G37*
X120322261Y-99624340D02*
X120324886Y-99729892D01*
X120249324Y-99832914D01*
X120222134Y-99856924D01*
X120077708Y-99927555D01*
X119906801Y-99938040D01*
X119738993Y-99891683D01*
X119603864Y-99791786D01*
X119600195Y-99787486D01*
X119532633Y-99687813D01*
X119500684Y-99602409D01*
X119500332Y-99589444D01*
X119547286Y-99478745D01*
X119651923Y-99401619D01*
X119793139Y-99360635D01*
X119949832Y-99358362D01*
X120100899Y-99397368D01*
X120225236Y-99480221D01*
X120242420Y-99499118D01*
X120322261Y-99624340D01*
G36*
X119531015Y-98598905D02*
G01*
X119544318Y-98618006D01*
X119635234Y-98814048D01*
X119642828Y-99017783D01*
X119566926Y-99230812D01*
X119458851Y-99392912D01*
X119320238Y-99546209D01*
X119168602Y-99678050D01*
X119023515Y-99773868D01*
X118904551Y-99819096D01*
X118883949Y-99820809D01*
X118771797Y-99784725D01*
X118700452Y-99680272D01*
X118673806Y-99515279D01*
X118678870Y-99408515D01*
X118689706Y-99193110D01*
X118665384Y-99021580D01*
X118598289Y-98857743D01*
X118542706Y-98761531D01*
X118465375Y-98591153D01*
X118449673Y-98439917D01*
X118496473Y-98324152D01*
X118518103Y-98302614D01*
X118621127Y-98262641D01*
X118778282Y-98256373D01*
X118966729Y-98282247D01*
X119163628Y-98338698D01*
X119189814Y-98348655D01*
X119339580Y-98416132D01*
X119441713Y-98490735D01*
X119531015Y-98598905D01*
X119531015Y-98598905D01*
G37*
X119531015Y-98598905D02*
X119544318Y-98618006D01*
X119635234Y-98814048D01*
X119642828Y-99017783D01*
X119566926Y-99230812D01*
X119458851Y-99392912D01*
X119320238Y-99546209D01*
X119168602Y-99678050D01*
X119023515Y-99773868D01*
X118904551Y-99819096D01*
X118883949Y-99820809D01*
X118771797Y-99784725D01*
X118700452Y-99680272D01*
X118673806Y-99515279D01*
X118678870Y-99408515D01*
X118689706Y-99193110D01*
X118665384Y-99021580D01*
X118598289Y-98857743D01*
X118542706Y-98761531D01*
X118465375Y-98591153D01*
X118449673Y-98439917D01*
X118496473Y-98324152D01*
X118518103Y-98302614D01*
X118621127Y-98262641D01*
X118778282Y-98256373D01*
X118966729Y-98282247D01*
X119163628Y-98338698D01*
X119189814Y-98348655D01*
X119339580Y-98416132D01*
X119441713Y-98490735D01*
X119531015Y-98598905D01*
G36*
X117001359Y-100546482D02*
G01*
X116982078Y-100652423D01*
X116965813Y-100690952D01*
X116849832Y-100850295D01*
X116680770Y-100949094D01*
X116470478Y-100981138D01*
X116417299Y-100978392D01*
X116277881Y-100960977D01*
X116202538Y-100928015D01*
X116170709Y-100861632D01*
X116162214Y-100756621D01*
X116173288Y-100650624D01*
X116226846Y-100563760D01*
X116302916Y-100492950D01*
X116489584Y-100373352D01*
X116668737Y-100329031D01*
X116830734Y-100360431D01*
X116961476Y-100462604D01*
X117001359Y-100546482D01*
X117001359Y-100546482D01*
G37*
X117001359Y-100546482D02*
X116982078Y-100652423D01*
X116965813Y-100690952D01*
X116849832Y-100850295D01*
X116680770Y-100949094D01*
X116470478Y-100981138D01*
X116417299Y-100978392D01*
X116277881Y-100960977D01*
X116202538Y-100928015D01*
X116170709Y-100861632D01*
X116162214Y-100756621D01*
X116173288Y-100650624D01*
X116226846Y-100563760D01*
X116302916Y-100492950D01*
X116489584Y-100373352D01*
X116668737Y-100329031D01*
X116830734Y-100360431D01*
X116961476Y-100462604D01*
X117001359Y-100546482D01*
G36*
X117176273Y-101364571D02*
G01*
X117161873Y-101490066D01*
X117082634Y-101602054D01*
X116947712Y-101685805D01*
X116817998Y-101720850D01*
X116628513Y-101717479D01*
X116459982Y-101656233D01*
X116334490Y-101548076D01*
X116286112Y-101456753D01*
X116293354Y-101356450D01*
X116362016Y-101250842D01*
X116474185Y-101164215D01*
X116516442Y-101144430D01*
X116670558Y-101112620D01*
X116842975Y-101120658D01*
X117001131Y-101163342D01*
X117112471Y-101235474D01*
X117116679Y-101240298D01*
X117176273Y-101364571D01*
X117176273Y-101364571D01*
G37*
X117176273Y-101364571D02*
X117161873Y-101490066D01*
X117082634Y-101602054D01*
X116947712Y-101685805D01*
X116817998Y-101720850D01*
X116628513Y-101717479D01*
X116459982Y-101656233D01*
X116334490Y-101548076D01*
X116286112Y-101456753D01*
X116293354Y-101356450D01*
X116362016Y-101250842D01*
X116474185Y-101164215D01*
X116516442Y-101144430D01*
X116670558Y-101112620D01*
X116842975Y-101120658D01*
X117001131Y-101163342D01*
X117112471Y-101235474D01*
X117116679Y-101240298D01*
X117176273Y-101364571D01*
G36*
X116167958Y-100168827D02*
G01*
X116149817Y-100298883D01*
X116087601Y-100430170D01*
X116011610Y-100516337D01*
X115850538Y-100621245D01*
X115698573Y-100667404D01*
X115569374Y-100657440D01*
X115476599Y-100593975D01*
X115433905Y-100479635D01*
X115435426Y-100405656D01*
X115496843Y-100222036D01*
X115628073Y-100084730D01*
X115736744Y-100027542D01*
X115888028Y-99994425D01*
X116030341Y-100008477D01*
X116131527Y-100066325D01*
X116134027Y-100069220D01*
X116167958Y-100168827D01*
X116167958Y-100168827D01*
G37*
X116167958Y-100168827D02*
X116149817Y-100298883D01*
X116087601Y-100430170D01*
X116011610Y-100516337D01*
X115850538Y-100621245D01*
X115698573Y-100667404D01*
X115569374Y-100657440D01*
X115476599Y-100593975D01*
X115433905Y-100479635D01*
X115435426Y-100405656D01*
X115496843Y-100222036D01*
X115628073Y-100084730D01*
X115736744Y-100027542D01*
X115888028Y-99994425D01*
X116030341Y-100008477D01*
X116131527Y-100066325D01*
X116134027Y-100069220D01*
X116167958Y-100168827D01*
G36*
X116599032Y-102032064D02*
G01*
X116593313Y-102150600D01*
X116511830Y-102249861D01*
X116359032Y-102320667D01*
X116317207Y-102331309D01*
X116168658Y-102334327D01*
X116019638Y-102288785D01*
X115890835Y-102208053D01*
X115802937Y-102105501D01*
X115776633Y-101994498D01*
X115778263Y-101983028D01*
X115837605Y-101865216D01*
X115951810Y-101787340D01*
X116099932Y-101751634D01*
X116261028Y-101760330D01*
X116414150Y-101815664D01*
X116524539Y-101903434D01*
X116599032Y-102032064D01*
X116599032Y-102032064D01*
G37*
X116599032Y-102032064D02*
X116593313Y-102150600D01*
X116511830Y-102249861D01*
X116359032Y-102320667D01*
X116317207Y-102331309D01*
X116168658Y-102334327D01*
X116019638Y-102288785D01*
X115890835Y-102208053D01*
X115802937Y-102105501D01*
X115776633Y-101994498D01*
X115778263Y-101983028D01*
X115837605Y-101865216D01*
X115951810Y-101787340D01*
X116099932Y-101751634D01*
X116261028Y-101760330D01*
X116414150Y-101815664D01*
X116524539Y-101903434D01*
X116599032Y-102032064D01*
G36*
X115812788Y-101018923D02*
G01*
X115900963Y-101184283D01*
X115922676Y-101343043D01*
X115878941Y-101520396D01*
X115836749Y-101615930D01*
X115742101Y-101766533D01*
X115612099Y-101916193D01*
X115465467Y-102048655D01*
X115320934Y-102147665D01*
X115197225Y-102196964D01*
X115164407Y-102199564D01*
X115037724Y-102167208D01*
X114964481Y-102077793D01*
X114941541Y-101925678D01*
X114949247Y-101813076D01*
X114962232Y-101596799D01*
X114936894Y-101422637D01*
X114865975Y-101253942D01*
X114824087Y-101181213D01*
X114733227Y-100989534D01*
X114714938Y-100837437D01*
X114767332Y-100728556D01*
X114888518Y-100666521D01*
X115076607Y-100654966D01*
X115097020Y-100656550D01*
X115390362Y-100714763D01*
X115627329Y-100832071D01*
X115804075Y-101006524D01*
X115812788Y-101018923D01*
X115812788Y-101018923D01*
G37*
X115812788Y-101018923D02*
X115900963Y-101184283D01*
X115922676Y-101343043D01*
X115878941Y-101520396D01*
X115836749Y-101615930D01*
X115742101Y-101766533D01*
X115612099Y-101916193D01*
X115465467Y-102048655D01*
X115320934Y-102147665D01*
X115197225Y-102196964D01*
X115164407Y-102199564D01*
X115037724Y-102167208D01*
X114964481Y-102077793D01*
X114941541Y-101925678D01*
X114949247Y-101813076D01*
X114962232Y-101596799D01*
X114936894Y-101422637D01*
X114865975Y-101253942D01*
X114824087Y-101181213D01*
X114733227Y-100989534D01*
X114714938Y-100837437D01*
X114767332Y-100728556D01*
X114888518Y-100666521D01*
X115076607Y-100654966D01*
X115097020Y-100656550D01*
X115390362Y-100714763D01*
X115627329Y-100832071D01*
X115804075Y-101006524D01*
X115812788Y-101018923D01*
D13*
X128090000Y-96938748D02*
X128090000Y-97461252D01*
X129510000Y-96938748D02*
X129510000Y-97461252D01*
X132261252Y-95510000D02*
X131738748Y-95510000D01*
X132261252Y-94090000D02*
X131738748Y-94090000D01*
D11*
X147600000Y-116000000D02*
G75*
G02X147400000Y-116000000I-100000J0D01*
G01*
X147400000Y-116000000D02*
G75*
G02X147600000Y-116000000I100000J0D01*
G01*
X147400000Y-116000000D02*
X147400000Y-116000000D01*
X147600000Y-116000000D02*
X147600000Y-116000000D01*
D14*
X160000000Y-118000000D02*
X148000000Y-118000000D01*
X160000000Y-101500000D02*
X160000000Y-118000000D01*
X148000000Y-101500000D02*
X160000000Y-101500000D01*
X148000000Y-118000000D02*
X148000000Y-101500000D01*
X148000000Y-101000000D02*
X148000000Y-84500000D01*
X148000000Y-84500000D02*
X160000000Y-84500000D01*
X160000000Y-84500000D02*
X160000000Y-101000000D01*
X160000000Y-101000000D02*
X148000000Y-101000000D01*
D11*
X147600000Y-99000000D02*
X147600000Y-99000000D01*
X147400000Y-99000000D02*
X147400000Y-99000000D01*
X147400000Y-99000000D02*
G75*
G02X147600000Y-99000000I100000J0D01*
G01*
X147600000Y-99000000D02*
G75*
G02X147400000Y-99000000I-100000J0D01*
G01*
X109245700Y-118389400D02*
G75*
G02X109045700Y-118389400I-100000J0D01*
G01*
X109045700Y-118389400D02*
G75*
G02X109245700Y-118389400I100000J0D01*
G01*
X109045700Y-118389400D02*
X109045700Y-118389400D01*
X109245700Y-118389400D02*
X109245700Y-118389400D01*
D14*
X121645700Y-120389400D02*
X109645700Y-120389400D01*
X121645700Y-103889400D02*
X121645700Y-120389400D01*
X109645700Y-103889400D02*
X121645700Y-103889400D01*
X109645700Y-120389400D02*
X109645700Y-103889400D01*
D13*
X136540000Y-122830000D02*
X138190000Y-122830000D01*
X136540000Y-112550000D02*
X136540000Y-122830000D01*
X141840000Y-112550000D02*
X136540000Y-112550000D01*
X141840000Y-122830000D02*
X141840000Y-112550000D01*
X140190000Y-122830000D02*
X141840000Y-122830000D01*
X138190000Y-122830000D02*
G75*
G02X140190000Y-122830000I1000000J0D01*
G01*
X104309500Y-110838836D02*
X104309500Y-112042964D01*
X106129500Y-110838836D02*
X106129500Y-112042964D01*
D15*
X133791820Y-120306000D02*
G75*
G03X133791820Y-120306000I-57155J0D01*
G01*
X133791820Y-106306000D02*
G75*
G03X133791820Y-106306000I-57155J0D01*
G01*
X133791820Y-92906000D02*
G75*
G03X133791820Y-92906000I-57155J0D01*
G01*
D11*
X114038000Y-83085000D02*
G75*
G03X114038000Y-83285000I0J-100000D01*
G01*
X114038000Y-83285000D02*
G75*
G03X114038000Y-83085000I0J100000D01*
G01*
X114038000Y-83285000D02*
X114038000Y-83285000D01*
X114038000Y-83085000D02*
X114038000Y-83085000D01*
D14*
X107538000Y-81185000D02*
X113538000Y-81185000D01*
X107538000Y-100785000D02*
X107538000Y-81185000D01*
X113538000Y-100785000D02*
X107538000Y-100785000D01*
X113538000Y-81185000D02*
X113538000Y-100785000D01*
D13*
X104234100Y-105111600D02*
X104234100Y-107796600D01*
X106154100Y-105111600D02*
X104234100Y-105111600D01*
X106154100Y-107796600D02*
X106154100Y-105111600D01*
X130461252Y-79490000D02*
X129938748Y-79490000D01*
X130461252Y-80910000D02*
X129938748Y-80910000D01*
X138190000Y-95330000D02*
G75*
G02X140190000Y-95330000I1000000J0D01*
G01*
X140190000Y-95330000D02*
X141840000Y-95330000D01*
X141840000Y-95330000D02*
X141840000Y-85050000D01*
X141840000Y-85050000D02*
X136540000Y-85050000D01*
X136540000Y-85050000D02*
X136540000Y-95330000D01*
X136540000Y-95330000D02*
X138190000Y-95330000D01*
X138190000Y-108830000D02*
G75*
G02X140190000Y-108830000I1000000J0D01*
G01*
X140190000Y-108830000D02*
X141840000Y-108830000D01*
X141840000Y-108830000D02*
X141840000Y-98550000D01*
X141840000Y-98550000D02*
X136540000Y-98550000D01*
X136540000Y-98550000D02*
X136540000Y-108830000D01*
X136540000Y-108830000D02*
X138190000Y-108830000D01*
D16*
X129250000Y-89525000D02*
X129225000Y-89525000D01*
X129250000Y-93675000D02*
X129135000Y-93675000D01*
X120350000Y-93675000D02*
X120465000Y-93675000D01*
X120350000Y-89525000D02*
X120465000Y-89525000D01*
X129250000Y-89525000D02*
X129250000Y-93675000D01*
X120350000Y-89525000D02*
X120350000Y-93675000D01*
X129225000Y-89525000D02*
X129225000Y-88150000D01*
X122359600Y-79390800D02*
X122359600Y-79440800D01*
X126509600Y-79390800D02*
X126509600Y-79535800D01*
X126509600Y-84540800D02*
X126509600Y-84395800D01*
X122359600Y-84540800D02*
X122359600Y-84395800D01*
X122359600Y-79390800D02*
X126509600Y-79390800D01*
X122359600Y-84540800D02*
X126509600Y-84540800D01*
X122359600Y-79440800D02*
X120959600Y-79440800D01*
D13*
X146510000Y-87714564D02*
X146510000Y-86510436D01*
X144690000Y-87714564D02*
X144690000Y-86510436D01*
X144690000Y-93914564D02*
X144690000Y-92710436D01*
X146510000Y-93914564D02*
X146510000Y-92710436D01*
X146510000Y-101002064D02*
X146510000Y-99797936D01*
X144690000Y-101002064D02*
X144690000Y-99797936D01*
X144690000Y-107314564D02*
X144690000Y-106110436D01*
X146510000Y-107314564D02*
X146510000Y-106110436D01*
X146510000Y-115314564D02*
X146510000Y-114110436D01*
X144690000Y-115314564D02*
X144690000Y-114110436D01*
X144690000Y-121289564D02*
X144690000Y-120085436D01*
X146510000Y-121289564D02*
X146510000Y-120085436D01*
X132261252Y-87690000D02*
X131738748Y-87690000D01*
X132261252Y-89110000D02*
X131738748Y-89110000D01*
X132261252Y-101090000D02*
X131738748Y-101090000D01*
X132261252Y-102510000D02*
X131738748Y-102510000D01*
X132261252Y-108910000D02*
X131738748Y-108910000D01*
X132261252Y-107490000D02*
X131738748Y-107490000D01*
X132261252Y-115090000D02*
X131738748Y-115090000D01*
X132261252Y-116510000D02*
X131738748Y-116510000D01*
X132261252Y-122910000D02*
X131738748Y-122910000D01*
X132261252Y-121490000D02*
X131738748Y-121490000D01*
X120151200Y-79670600D02*
X117491200Y-79670600D01*
X120151200Y-84810600D02*
X120151200Y-79670600D01*
X117491200Y-84810600D02*
X117491200Y-79670600D01*
X120151200Y-84810600D02*
X117491200Y-84810600D01*
X120151200Y-86080600D02*
X120151200Y-87410600D01*
X120151200Y-87410600D02*
X118821200Y-87410600D01*
X104352600Y-80612100D02*
X101492600Y-80612100D01*
X101492600Y-80612100D02*
X101492600Y-82532100D01*
X101492600Y-82532100D02*
X104352600Y-82532100D01*
X130461252Y-81490000D02*
X129938748Y-81490000D01*
X130461252Y-82910000D02*
X129938748Y-82910000D01*
X129938748Y-83490000D02*
X130461252Y-83490000D01*
X129938748Y-84910000D02*
X130461252Y-84910000D01*
X116648300Y-81325352D02*
X116648300Y-80802848D01*
X115228300Y-81325352D02*
X115228300Y-80802848D01*
X98949200Y-83733200D02*
X98949200Y-84503200D01*
X98949200Y-86083200D02*
X98949200Y-87043200D01*
X98949200Y-88623200D02*
X98949200Y-89393200D01*
X104249200Y-83733200D02*
X104249200Y-89393200D01*
X104709200Y-83733200D02*
X104709200Y-89393200D01*
X98389200Y-83733200D02*
X98389200Y-84503200D01*
X98389200Y-86083200D02*
X98389200Y-87043200D01*
X98389200Y-88623200D02*
X98389200Y-89393200D01*
X104709200Y-83733200D02*
X98389200Y-83733200D01*
X104709200Y-89393200D02*
X98389200Y-89393200D01*
X98889200Y-83493200D02*
X98149200Y-83493200D01*
X98149200Y-83493200D02*
X98149200Y-83993200D01*
D16*
X155410600Y-73545200D02*
X104610600Y-73545200D01*
X107150600Y-78625200D02*
X155410600Y-78625200D01*
X155410600Y-73545200D02*
X155410600Y-78625200D01*
X104610600Y-73545200D02*
X104610600Y-76085200D01*
X104330600Y-77355200D02*
X104330600Y-78905200D01*
X104610600Y-76085200D02*
X107150600Y-76085200D01*
X107150600Y-76085200D02*
X107150600Y-78625200D01*
X104330600Y-78905200D02*
X105880600Y-78905200D01*
D12*
G36*
X118670404Y-123307407D02*
G01*
X118823097Y-123315966D01*
X118923795Y-123338812D01*
X118982785Y-123382966D01*
X119010355Y-123455451D01*
X119016794Y-123563286D01*
X119013376Y-123686907D01*
X119006141Y-123832684D01*
X118994263Y-123923277D01*
X118972468Y-123976071D01*
X118935479Y-124008451D01*
X118911914Y-124021276D01*
X118826719Y-124043980D01*
X118690164Y-124059036D01*
X118523058Y-124066444D01*
X118346209Y-124066202D01*
X118180425Y-124058312D01*
X118046514Y-124042772D01*
X117968485Y-124021286D01*
X117921469Y-123991244D01*
X117893049Y-123947806D01*
X117877420Y-123872860D01*
X117868779Y-123748294D01*
X117866911Y-123704321D01*
X117864397Y-123558058D01*
X117877017Y-123452799D01*
X117914711Y-123381819D01*
X117987420Y-123338390D01*
X118105085Y-123315788D01*
X118277645Y-123307285D01*
X118455427Y-123306115D01*
X118670404Y-123307407D01*
X118670404Y-123307407D01*
G37*
X118670404Y-123307407D02*
X118823097Y-123315966D01*
X118923795Y-123338812D01*
X118982785Y-123382966D01*
X119010355Y-123455451D01*
X119016794Y-123563286D01*
X119013376Y-123686907D01*
X119006141Y-123832684D01*
X118994263Y-123923277D01*
X118972468Y-123976071D01*
X118935479Y-124008451D01*
X118911914Y-124021276D01*
X118826719Y-124043980D01*
X118690164Y-124059036D01*
X118523058Y-124066444D01*
X118346209Y-124066202D01*
X118180425Y-124058312D01*
X118046514Y-124042772D01*
X117968485Y-124021286D01*
X117921469Y-123991244D01*
X117893049Y-123947806D01*
X117877420Y-123872860D01*
X117868779Y-123748294D01*
X117866911Y-123704321D01*
X117864397Y-123558058D01*
X117877017Y-123452799D01*
X117914711Y-123381819D01*
X117987420Y-123338390D01*
X118105085Y-123315788D01*
X118277645Y-123307285D01*
X118455427Y-123306115D01*
X118670404Y-123307407D01*
G36*
X112948977Y-123649828D02*
G01*
X113072579Y-123694477D01*
X113093148Y-123709482D01*
X113130111Y-123779787D01*
X113135267Y-123865453D01*
X113114134Y-123947372D01*
X113056528Y-123995439D01*
X112997343Y-124017717D01*
X112855655Y-124053847D01*
X112707931Y-124077660D01*
X112581786Y-124085589D01*
X112519646Y-124079415D01*
X112452426Y-124034693D01*
X112435625Y-123958914D01*
X112463892Y-123867455D01*
X112531877Y-123775695D01*
X112634230Y-123699013D01*
X112655812Y-123688036D01*
X112800364Y-123647206D01*
X112948977Y-123649828D01*
X112948977Y-123649828D01*
G37*
X112948977Y-123649828D02*
X113072579Y-123694477D01*
X113093148Y-123709482D01*
X113130111Y-123779787D01*
X113135267Y-123865453D01*
X113114134Y-123947372D01*
X113056528Y-123995439D01*
X112997343Y-124017717D01*
X112855655Y-124053847D01*
X112707931Y-124077660D01*
X112581786Y-124085589D01*
X112519646Y-124079415D01*
X112452426Y-124034693D01*
X112435625Y-123958914D01*
X112463892Y-123867455D01*
X112531877Y-123775695D01*
X112634230Y-123699013D01*
X112655812Y-123688036D01*
X112800364Y-123647206D01*
X112948977Y-123649828D01*
G36*
X117576941Y-121820294D02*
G01*
X118021398Y-121822827D01*
X118443951Y-121827229D01*
X118832794Y-121833499D01*
X119176119Y-121841638D01*
X119462121Y-121851646D01*
X119532523Y-121854892D01*
X120472317Y-121909267D01*
X121365339Y-121977204D01*
X122209067Y-122058267D01*
X123000981Y-122152020D01*
X123738560Y-122258025D01*
X124419284Y-122375848D01*
X125040632Y-122505050D01*
X125600084Y-122645197D01*
X126095120Y-122795851D01*
X126523218Y-122956576D01*
X126881858Y-123126935D01*
X126882879Y-123127489D01*
X127029194Y-123201310D01*
X127119995Y-123233581D01*
X127158471Y-123225415D01*
X127159116Y-123223862D01*
X127190645Y-123208735D01*
X127244682Y-123242247D01*
X127307830Y-123309969D01*
X127366696Y-123397472D01*
X127407883Y-123490326D01*
X127408562Y-123492562D01*
X127421472Y-123655921D01*
X127362356Y-123817782D01*
X127231754Y-123977499D01*
X127030208Y-124134428D01*
X126758257Y-124287921D01*
X126732495Y-124300507D01*
X126330825Y-124472127D01*
X125859028Y-124632846D01*
X125318771Y-124782374D01*
X124711717Y-124920425D01*
X124039533Y-125046711D01*
X123303883Y-125160942D01*
X122506433Y-125262832D01*
X121648847Y-125352091D01*
X120732791Y-125428432D01*
X119891628Y-125483995D01*
X119654114Y-125495356D01*
X119355223Y-125505575D01*
X119006141Y-125514568D01*
X118618055Y-125522250D01*
X118202151Y-125528534D01*
X117769616Y-125533334D01*
X117331637Y-125536566D01*
X116899399Y-125538144D01*
X116484090Y-125537981D01*
X116096896Y-125535992D01*
X115749004Y-125532092D01*
X115451600Y-125526195D01*
X115247057Y-125519556D01*
X114370040Y-125476398D01*
X113527244Y-125420785D01*
X112721544Y-125353276D01*
X111955817Y-125274426D01*
X111232939Y-125184793D01*
X110555784Y-125084934D01*
X109927230Y-124975404D01*
X109350151Y-124856762D01*
X108827424Y-124729563D01*
X108361924Y-124594364D01*
X107956527Y-124451722D01*
X107614109Y-124302194D01*
X107337546Y-124146336D01*
X107129713Y-123984706D01*
X107085129Y-123939470D01*
X106990061Y-123822947D01*
X106943236Y-123734715D01*
X106947193Y-123681619D01*
X106984768Y-123668972D01*
X107004751Y-123654273D01*
X109412822Y-123654273D01*
X109412990Y-123661459D01*
X109423200Y-124086258D01*
X109550200Y-124086258D01*
X109634852Y-124080407D01*
X109666915Y-124052701D01*
X109667002Y-123995845D01*
X109672219Y-123851214D01*
X109709117Y-123678627D01*
X109769011Y-123510436D01*
X109826150Y-123403044D01*
X109950386Y-123266526D01*
X110096267Y-123195340D01*
X110256512Y-123192700D01*
X110286808Y-123199886D01*
X110414790Y-123260795D01*
X110522302Y-123371346D01*
X110615086Y-123539352D01*
X110692590Y-123752068D01*
X110760098Y-123964635D01*
X110814043Y-124117073D01*
X110860232Y-124219191D01*
X110904473Y-124280798D01*
X110952571Y-124311704D01*
X111010333Y-124321718D01*
X111030030Y-124322115D01*
X111113843Y-124317522D01*
X111143887Y-124289897D01*
X111138931Y-124218466D01*
X111136579Y-124204186D01*
X111101454Y-124060871D01*
X111041086Y-123878280D01*
X110965110Y-123680777D01*
X110883161Y-123492728D01*
X110804874Y-123338495D01*
X110774173Y-123287779D01*
X110747503Y-123253714D01*
X111156119Y-123253714D01*
X111172156Y-123353078D01*
X111237578Y-123499256D01*
X111289003Y-123591415D01*
X111425201Y-123797031D01*
X111565242Y-123947717D01*
X111711389Y-124052651D01*
X111752469Y-124085371D01*
X111756907Y-124130327D01*
X111727115Y-124213806D01*
X111726343Y-124215671D01*
X111651217Y-124350407D01*
X111547806Y-124477245D01*
X111434722Y-124576867D01*
X111330579Y-124629953D01*
X111326182Y-124630986D01*
X111246537Y-124663574D01*
X111219956Y-124725066D01*
X111219343Y-124742283D01*
X111229245Y-124801589D01*
X111273027Y-124825995D01*
X111347508Y-124830115D01*
X111475933Y-124814945D01*
X111594131Y-124780620D01*
X111729733Y-124692425D01*
X111859104Y-124551953D01*
X111965072Y-124378671D01*
X111982606Y-124340257D01*
X112018705Y-124219840D01*
X112050935Y-124045829D01*
X112066403Y-123925356D01*
X112181662Y-123925356D01*
X112199189Y-124032379D01*
X112256562Y-124191580D01*
X112342491Y-124293315D01*
X112416771Y-124334062D01*
X112506030Y-124344656D01*
X112645642Y-124332338D01*
X112818008Y-124299679D01*
X113005532Y-124249252D01*
X113012976Y-124246940D01*
X113210946Y-124175365D01*
X113354378Y-124102530D01*
X113437487Y-124032096D01*
X113454485Y-123967726D01*
X113454426Y-123967530D01*
X113439707Y-123901232D01*
X113419377Y-123787616D01*
X113412097Y-123741543D01*
X113620686Y-123741543D01*
X113632343Y-124086258D01*
X113768414Y-124097519D01*
X113904485Y-124108781D01*
X113905282Y-123897948D01*
X113937436Y-123651316D01*
X114029254Y-123436406D01*
X114137939Y-123299201D01*
X114259858Y-123210443D01*
X114391805Y-123186246D01*
X114500468Y-123204169D01*
X114621191Y-123255115D01*
X114721190Y-123344231D01*
X114807547Y-123481353D01*
X114887342Y-123676315D01*
X114925942Y-123795125D01*
X114991260Y-124000459D01*
X115045048Y-124145405D01*
X115093386Y-124239981D01*
X115142352Y-124294201D01*
X115198023Y-124318083D01*
X115245752Y-124322115D01*
X115328155Y-124312337D01*
X115371185Y-124290475D01*
X115369856Y-124240113D01*
X115345199Y-124138587D01*
X115302584Y-124001391D01*
X115247377Y-123844018D01*
X115184946Y-123681964D01*
X115120659Y-123530720D01*
X115074156Y-123433115D01*
X114993746Y-123295883D01*
X114900084Y-123165558D01*
X114833460Y-123090745D01*
X114746384Y-123016850D01*
X114661586Y-122975988D01*
X114548086Y-122955658D01*
X114485376Y-122950306D01*
X114272932Y-122954527D01*
X114110186Y-123004004D01*
X113987798Y-123101791D01*
X113975260Y-123117069D01*
X113926177Y-123176901D01*
X113909322Y-123181355D01*
X113912298Y-123132279D01*
X113912990Y-123126363D01*
X113893941Y-123042048D01*
X113831011Y-122989791D01*
X113749257Y-122989573D01*
X113701812Y-123043388D01*
X113663237Y-123157691D01*
X113635543Y-123320723D01*
X113620739Y-123520727D01*
X113620686Y-123741543D01*
X113412097Y-123741543D01*
X113397828Y-123651241D01*
X113397766Y-123650829D01*
X113359439Y-123421707D01*
X113319576Y-123252475D01*
X113273801Y-123130508D01*
X113217738Y-123043180D01*
X113171000Y-122996715D01*
X113030577Y-122922963D01*
X112861713Y-122902231D01*
X112685256Y-122934279D01*
X112543123Y-123004005D01*
X112433938Y-123082130D01*
X112377370Y-123139213D01*
X112362634Y-123189522D01*
X112372124Y-123230253D01*
X112409692Y-123293628D01*
X112467592Y-123311095D01*
X112558783Y-123282637D01*
X112659099Y-123229841D01*
X112767299Y-123170583D01*
X112837077Y-123144760D01*
X112892023Y-123148107D01*
X112955534Y-123176258D01*
X113042395Y-123246235D01*
X113097229Y-123332226D01*
X113132413Y-123433115D01*
X112838092Y-123433115D01*
X112686335Y-123435452D01*
X112584183Y-123446196D01*
X112508726Y-123470948D01*
X112437053Y-123515307D01*
X112405561Y-123538838D01*
X112269457Y-123663189D01*
X112197085Y-123786619D01*
X112181662Y-123925356D01*
X112066403Y-123925356D01*
X112077727Y-123837167D01*
X112097510Y-123612796D01*
X112108714Y-123391658D01*
X112109771Y-123192695D01*
X112099108Y-123034848D01*
X112093697Y-122999992D01*
X112071106Y-122884929D01*
X112052574Y-122803233D01*
X112043642Y-122775748D01*
X112017023Y-122794395D01*
X111962971Y-122853789D01*
X111940045Y-122881807D01*
X111895489Y-122945744D01*
X111865994Y-123015745D01*
X111847143Y-123110461D01*
X111834516Y-123248545D01*
X111828458Y-123352883D01*
X111818015Y-123506892D01*
X111805004Y-123632857D01*
X111791430Y-123713690D01*
X111783815Y-123733451D01*
X111745449Y-123723791D01*
X111677133Y-123648038D01*
X111578872Y-123506196D01*
X111489221Y-123362552D01*
X111418491Y-123255797D01*
X111360742Y-123199981D01*
X111298341Y-123180247D01*
X111271507Y-123179115D01*
X111189294Y-123197085D01*
X111156119Y-123253714D01*
X110747503Y-123253714D01*
X110638413Y-123114378D01*
X110495426Y-123005113D01*
X110331917Y-122951800D01*
X110214318Y-122943257D01*
X110004961Y-122967886D01*
X109841924Y-123039930D01*
X109765903Y-123108967D01*
X109726349Y-123147591D01*
X109705373Y-123125331D01*
X109694487Y-123084145D01*
X109645541Y-123007171D01*
X109593314Y-122985992D01*
X109520251Y-123000600D01*
X109466676Y-123070968D01*
X109431583Y-123200859D01*
X109413966Y-123394040D01*
X109412822Y-123654273D01*
X107004751Y-123654273D01*
X107026711Y-123638121D01*
X107070041Y-123561983D01*
X107077571Y-123542689D01*
X107163202Y-123402995D01*
X107317708Y-123261553D01*
X107537474Y-123120092D01*
X107818888Y-122980341D01*
X108158336Y-122844030D01*
X108552204Y-122712890D01*
X108636785Y-122689258D01*
X115428486Y-122689258D01*
X115428486Y-122943257D01*
X116154200Y-122943257D01*
X116154200Y-123575290D01*
X116155462Y-123785674D01*
X116158961Y-123973403D01*
X116164263Y-124125336D01*
X116170937Y-124228333D01*
X116176960Y-124266633D01*
X116218987Y-124307983D01*
X116309932Y-124316424D01*
X116331174Y-124314958D01*
X116462628Y-124303972D01*
X116467883Y-123941787D01*
X116661050Y-123941787D01*
X116662928Y-124095429D01*
X116669447Y-124216309D01*
X116680972Y-124287636D01*
X116686390Y-124297924D01*
X116736187Y-124314528D01*
X116824349Y-124322073D01*
X116831533Y-124322115D01*
X116952486Y-124322115D01*
X116952981Y-123913900D01*
X116954349Y-123697924D01*
X117569343Y-123697924D01*
X117570526Y-123864425D01*
X117576481Y-123975520D01*
X117590818Y-124048362D01*
X117617146Y-124100108D01*
X117659073Y-124147913D01*
X117665335Y-124154211D01*
X117735934Y-124214619D01*
X117816930Y-124258270D01*
X117921126Y-124287811D01*
X118061326Y-124305887D01*
X118250333Y-124315141D01*
X118458343Y-124318045D01*
X118667257Y-124317268D01*
X118819585Y-124311264D01*
X118931225Y-124298343D01*
X119018074Y-124276817D01*
X119081344Y-124251831D01*
X119182721Y-124193997D01*
X119256995Y-124130640D01*
X119271844Y-124109871D01*
X119288778Y-124042989D01*
X119302035Y-123923562D01*
X119309784Y-123771781D01*
X119492485Y-123771781D01*
X119494266Y-123955946D01*
X119499149Y-124113613D01*
X119506451Y-124230808D01*
X119515483Y-124293557D01*
X119518396Y-124299644D01*
X119569685Y-124314842D01*
X119654467Y-124314763D01*
X119764628Y-124303972D01*
X119774871Y-123852707D01*
X119782085Y-123667802D01*
X119793908Y-123513277D01*
X119808907Y-123403469D01*
X119824671Y-123353779D01*
X119864315Y-123332871D01*
X119948305Y-123318569D01*
X120085131Y-123310123D01*
X120283282Y-123306785D01*
X120358714Y-123306670D01*
X120543470Y-123308849D01*
X120703621Y-123314431D01*
X120824392Y-123322629D01*
X120891013Y-123332658D01*
X120897416Y-123335321D01*
X120919305Y-123382790D01*
X120935758Y-123495584D01*
X120947068Y-123676373D01*
X120951844Y-123833694D01*
X120962057Y-124303972D01*
X121216057Y-124303972D01*
X121226155Y-123804577D01*
X121227555Y-123572159D01*
X121221630Y-123392729D01*
X121208757Y-123273464D01*
X121196020Y-123230005D01*
X121147077Y-123166310D01*
X121071579Y-123118949D01*
X120960058Y-123085889D01*
X120803046Y-123065100D01*
X120591075Y-123054550D01*
X120366870Y-123052115D01*
X120124379Y-123054078D01*
X119942239Y-123061422D01*
X119808301Y-123076329D01*
X119710415Y-123100979D01*
X119636432Y-123137553D01*
X119574202Y-123188234D01*
X119566506Y-123195808D01*
X119536744Y-123231501D01*
X119516185Y-123277418D01*
X119503156Y-123346579D01*
X119495982Y-123452006D01*
X119492991Y-123606720D01*
X119492485Y-123771781D01*
X119309784Y-123771781D01*
X119309794Y-123771595D01*
X119311057Y-123679431D01*
X119306047Y-123480219D01*
X119285356Y-123328027D01*
X119240495Y-123216606D01*
X119162972Y-123139707D01*
X119044296Y-123091081D01*
X118875978Y-123064480D01*
X118649526Y-123053654D01*
X118458699Y-123052115D01*
X118243341Y-123053339D01*
X118086197Y-123058048D01*
X117972937Y-123067790D01*
X117889230Y-123084116D01*
X117820745Y-123108577D01*
X117786825Y-123124805D01*
X117689418Y-123185763D01*
X117619022Y-123249828D01*
X117606842Y-123267562D01*
X117590730Y-123332837D01*
X117578085Y-123450994D01*
X117570622Y-123602365D01*
X117569343Y-123697924D01*
X116954349Y-123697924D01*
X116954383Y-123692573D01*
X116961887Y-123533174D01*
X116981370Y-123425060D01*
X117018710Y-123357589D01*
X117079785Y-123320118D01*
X117170471Y-123302003D01*
X117296074Y-123292636D01*
X117434496Y-123272464D01*
X117508416Y-123229467D01*
X117523476Y-123159431D01*
X117516073Y-123128339D01*
X117494824Y-123087195D01*
X117452244Y-123064149D01*
X117370692Y-123054160D01*
X117249397Y-123052171D01*
X117025439Y-123072261D01*
X116852472Y-123130874D01*
X116736238Y-123225701D01*
X116708597Y-123269829D01*
X116692705Y-123335416D01*
X116679641Y-123452197D01*
X116669769Y-123603379D01*
X116663451Y-123772173D01*
X116661050Y-123941787D01*
X116467883Y-123941787D01*
X116472500Y-123623615D01*
X116482373Y-122943257D01*
X116842288Y-122943257D01*
X117012555Y-122939484D01*
X117140715Y-122928997D01*
X117214249Y-122913050D01*
X117225903Y-122904909D01*
X117229500Y-122882932D01*
X121421471Y-122882932D01*
X121467457Y-122976285D01*
X121475681Y-122985757D01*
X121508211Y-123036330D01*
X121493824Y-123052115D01*
X121480684Y-123086009D01*
X121469630Y-123178173D01*
X121460846Y-123314331D01*
X121454515Y-123480206D01*
X121450819Y-123661524D01*
X121449942Y-123844006D01*
X121452067Y-124013377D01*
X121457376Y-124155362D01*
X121466054Y-124255682D01*
X121477824Y-124299644D01*
X121529114Y-124314842D01*
X121613896Y-124314763D01*
X121724057Y-124303972D01*
X121733404Y-123728638D01*
X121923897Y-123728638D01*
X121925319Y-123887468D01*
X121931619Y-124021005D01*
X121943100Y-124109691D01*
X121947281Y-124123816D01*
X121993134Y-124175897D01*
X122080312Y-124233677D01*
X122119638Y-124253381D01*
X122178303Y-124276872D01*
X122244045Y-124294009D01*
X122328327Y-124305569D01*
X122442611Y-124312329D01*
X122598359Y-124315065D01*
X122807035Y-124314554D01*
X122994057Y-124312640D01*
X123719771Y-124303972D01*
X123719771Y-124211335D01*
X123844919Y-124211335D01*
X123852282Y-124255058D01*
X123884457Y-124285458D01*
X123950610Y-124304948D01*
X124059910Y-124315943D01*
X124221524Y-124320854D01*
X124444618Y-124322094D01*
X124499941Y-124322115D01*
X124764864Y-124319920D01*
X124965644Y-124312959D01*
X125110589Y-124300663D01*
X125208004Y-124282465D01*
X125240194Y-124271519D01*
X125373499Y-124182299D01*
X125455946Y-124057491D01*
X125483061Y-123914274D01*
X125450369Y-123769826D01*
X125393746Y-123682031D01*
X125357043Y-123642516D01*
X125317522Y-123614312D01*
X125262117Y-123594659D01*
X125177767Y-123580794D01*
X125051408Y-123569956D01*
X124869976Y-123559382D01*
X124794984Y-123555438D01*
X124559157Y-123542134D01*
X124386556Y-123528987D01*
X124267876Y-123513814D01*
X124193809Y-123494434D01*
X124155048Y-123468662D01*
X124142288Y-123434318D01*
X124144013Y-123402784D01*
X124156590Y-123362477D01*
X124190566Y-123336925D01*
X124261420Y-123320982D01*
X124384633Y-123309499D01*
X124434736Y-123306115D01*
X124608462Y-123288731D01*
X124718302Y-123260693D01*
X124772672Y-123217580D01*
X124779990Y-123154973D01*
X124773216Y-123128339D01*
X124755523Y-123091620D01*
X124720840Y-123069016D01*
X124654007Y-123057155D01*
X124539867Y-123052671D01*
X124430263Y-123052115D01*
X124265883Y-123054912D01*
X124153047Y-123065914D01*
X124070855Y-123089037D01*
X123998407Y-123128197D01*
X123988209Y-123134942D01*
X123903604Y-123205504D01*
X123864711Y-123287436D01*
X123853824Y-123369413D01*
X123855204Y-123501941D01*
X123886162Y-123604432D01*
X123954243Y-123681095D01*
X124066992Y-123736139D01*
X124231956Y-123773775D01*
X124456680Y-123798210D01*
X124642198Y-123809188D01*
X125134914Y-123832258D01*
X125146396Y-123932043D01*
X125151124Y-124006875D01*
X125146396Y-124038721D01*
X125108202Y-124042060D01*
X125009359Y-124047055D01*
X124861759Y-124053205D01*
X124677290Y-124060010D01*
X124500339Y-124065935D01*
X124270367Y-124073908D01*
X124102900Y-124081771D01*
X123987885Y-124090859D01*
X123915269Y-124102506D01*
X123874999Y-124118049D01*
X123857024Y-124138822D01*
X123853199Y-124151877D01*
X123844919Y-124211335D01*
X123719771Y-124211335D01*
X123719771Y-124086258D01*
X123012200Y-124068115D01*
X122790844Y-124061047D01*
X122593085Y-124052099D01*
X122430883Y-124042026D01*
X122316195Y-124031581D01*
X122260981Y-124021519D01*
X122259271Y-124020616D01*
X122235890Y-123970358D01*
X122220597Y-123869230D01*
X122213451Y-123738488D01*
X122214509Y-123599389D01*
X122223829Y-123473187D01*
X122241467Y-123381140D01*
X122257457Y-123349658D01*
X122303165Y-123332183D01*
X122403685Y-123319420D01*
X122563900Y-123311065D01*
X122788693Y-123306818D01*
X122962061Y-123306115D01*
X123177019Y-123304947D01*
X123369222Y-123301704D01*
X123525934Y-123296777D01*
X123634420Y-123290556D01*
X123680518Y-123284090D01*
X123724844Y-123232243D01*
X123737914Y-123157090D01*
X123737914Y-123052115D01*
X122974112Y-123052115D01*
X122687454Y-123053504D01*
X122464214Y-123058749D01*
X122295274Y-123069465D01*
X122171517Y-123087266D01*
X122083823Y-123113766D01*
X122023075Y-123150582D01*
X121980155Y-123199327D01*
X121960990Y-123231533D01*
X121945900Y-123295963D01*
X121934488Y-123413329D01*
X121927053Y-123564073D01*
X121923897Y-123728638D01*
X121733404Y-123728638D01*
X121734035Y-123689816D01*
X121736495Y-123447434D01*
X121734583Y-123269760D01*
X121727872Y-123149041D01*
X121715935Y-123077521D01*
X121698766Y-123047697D01*
X121678117Y-123018884D01*
X121716002Y-122995756D01*
X121763179Y-122945203D01*
X121778352Y-122864162D01*
X121760835Y-122786094D01*
X121721089Y-122747568D01*
X121596727Y-122723305D01*
X121497644Y-122745244D01*
X121435380Y-122802186D01*
X121421471Y-122882932D01*
X117229500Y-122882932D01*
X117236053Y-122842895D01*
X117227353Y-122777909D01*
X117205103Y-122689258D01*
X115428486Y-122689258D01*
X108636785Y-122689258D01*
X108996879Y-122588648D01*
X109151057Y-122550208D01*
X109852645Y-122396836D01*
X110623998Y-122259923D01*
X111464174Y-122139583D01*
X112372231Y-122035931D01*
X113347226Y-121949083D01*
X114388216Y-121879153D01*
X114844162Y-121854892D01*
X115111369Y-121844343D01*
X115439316Y-121835663D01*
X115816198Y-121828851D01*
X116230208Y-121823909D01*
X116669539Y-121820835D01*
X117122386Y-121819630D01*
X117576941Y-121820294D01*
X117576941Y-121820294D01*
G37*
X117576941Y-121820294D02*
X118021398Y-121822827D01*
X118443951Y-121827229D01*
X118832794Y-121833499D01*
X119176119Y-121841638D01*
X119462121Y-121851646D01*
X119532523Y-121854892D01*
X120472317Y-121909267D01*
X121365339Y-121977204D01*
X122209067Y-122058267D01*
X123000981Y-122152020D01*
X123738560Y-122258025D01*
X124419284Y-122375848D01*
X125040632Y-122505050D01*
X125600084Y-122645197D01*
X126095120Y-122795851D01*
X126523218Y-122956576D01*
X126881858Y-123126935D01*
X126882879Y-123127489D01*
X127029194Y-123201310D01*
X127119995Y-123233581D01*
X127158471Y-123225415D01*
X127159116Y-123223862D01*
X127190645Y-123208735D01*
X127244682Y-123242247D01*
X127307830Y-123309969D01*
X127366696Y-123397472D01*
X127407883Y-123490326D01*
X127408562Y-123492562D01*
X127421472Y-123655921D01*
X127362356Y-123817782D01*
X127231754Y-123977499D01*
X127030208Y-124134428D01*
X126758257Y-124287921D01*
X126732495Y-124300507D01*
X126330825Y-124472127D01*
X125859028Y-124632846D01*
X125318771Y-124782374D01*
X124711717Y-124920425D01*
X124039533Y-125046711D01*
X123303883Y-125160942D01*
X122506433Y-125262832D01*
X121648847Y-125352091D01*
X120732791Y-125428432D01*
X119891628Y-125483995D01*
X119654114Y-125495356D01*
X119355223Y-125505575D01*
X119006141Y-125514568D01*
X118618055Y-125522250D01*
X118202151Y-125528534D01*
X117769616Y-125533334D01*
X117331637Y-125536566D01*
X116899399Y-125538144D01*
X116484090Y-125537981D01*
X116096896Y-125535992D01*
X115749004Y-125532092D01*
X115451600Y-125526195D01*
X115247057Y-125519556D01*
X114370040Y-125476398D01*
X113527244Y-125420785D01*
X112721544Y-125353276D01*
X111955817Y-125274426D01*
X111232939Y-125184793D01*
X110555784Y-125084934D01*
X109927230Y-124975404D01*
X109350151Y-124856762D01*
X108827424Y-124729563D01*
X108361924Y-124594364D01*
X107956527Y-124451722D01*
X107614109Y-124302194D01*
X107337546Y-124146336D01*
X107129713Y-123984706D01*
X107085129Y-123939470D01*
X106990061Y-123822947D01*
X106943236Y-123734715D01*
X106947193Y-123681619D01*
X106984768Y-123668972D01*
X107004751Y-123654273D01*
X109412822Y-123654273D01*
X109412990Y-123661459D01*
X109423200Y-124086258D01*
X109550200Y-124086258D01*
X109634852Y-124080407D01*
X109666915Y-124052701D01*
X109667002Y-123995845D01*
X109672219Y-123851214D01*
X109709117Y-123678627D01*
X109769011Y-123510436D01*
X109826150Y-123403044D01*
X109950386Y-123266526D01*
X110096267Y-123195340D01*
X110256512Y-123192700D01*
X110286808Y-123199886D01*
X110414790Y-123260795D01*
X110522302Y-123371346D01*
X110615086Y-123539352D01*
X110692590Y-123752068D01*
X110760098Y-123964635D01*
X110814043Y-124117073D01*
X110860232Y-124219191D01*
X110904473Y-124280798D01*
X110952571Y-124311704D01*
X111010333Y-124321718D01*
X111030030Y-124322115D01*
X111113843Y-124317522D01*
X111143887Y-124289897D01*
X111138931Y-124218466D01*
X111136579Y-124204186D01*
X111101454Y-124060871D01*
X111041086Y-123878280D01*
X110965110Y-123680777D01*
X110883161Y-123492728D01*
X110804874Y-123338495D01*
X110774173Y-123287779D01*
X110747503Y-123253714D01*
X111156119Y-123253714D01*
X111172156Y-123353078D01*
X111237578Y-123499256D01*
X111289003Y-123591415D01*
X111425201Y-123797031D01*
X111565242Y-123947717D01*
X111711389Y-124052651D01*
X111752469Y-124085371D01*
X111756907Y-124130327D01*
X111727115Y-124213806D01*
X111726343Y-124215671D01*
X111651217Y-124350407D01*
X111547806Y-124477245D01*
X111434722Y-124576867D01*
X111330579Y-124629953D01*
X111326182Y-124630986D01*
X111246537Y-124663574D01*
X111219956Y-124725066D01*
X111219343Y-124742283D01*
X111229245Y-124801589D01*
X111273027Y-124825995D01*
X111347508Y-124830115D01*
X111475933Y-124814945D01*
X111594131Y-124780620D01*
X111729733Y-124692425D01*
X111859104Y-124551953D01*
X111965072Y-124378671D01*
X111982606Y-124340257D01*
X112018705Y-124219840D01*
X112050935Y-124045829D01*
X112066403Y-123925356D01*
X112181662Y-123925356D01*
X112199189Y-124032379D01*
X112256562Y-124191580D01*
X112342491Y-124293315D01*
X112416771Y-124334062D01*
X112506030Y-124344656D01*
X112645642Y-124332338D01*
X112818008Y-124299679D01*
X113005532Y-124249252D01*
X113012976Y-124246940D01*
X113210946Y-124175365D01*
X113354378Y-124102530D01*
X113437487Y-124032096D01*
X113454485Y-123967726D01*
X113454426Y-123967530D01*
X113439707Y-123901232D01*
X113419377Y-123787616D01*
X113412097Y-123741543D01*
X113620686Y-123741543D01*
X113632343Y-124086258D01*
X113768414Y-124097519D01*
X113904485Y-124108781D01*
X113905282Y-123897948D01*
X113937436Y-123651316D01*
X114029254Y-123436406D01*
X114137939Y-123299201D01*
X114259858Y-123210443D01*
X114391805Y-123186246D01*
X114500468Y-123204169D01*
X114621191Y-123255115D01*
X114721190Y-123344231D01*
X114807547Y-123481353D01*
X114887342Y-123676315D01*
X114925942Y-123795125D01*
X114991260Y-124000459D01*
X115045048Y-124145405D01*
X115093386Y-124239981D01*
X115142352Y-124294201D01*
X115198023Y-124318083D01*
X115245752Y-124322115D01*
X115328155Y-124312337D01*
X115371185Y-124290475D01*
X115369856Y-124240113D01*
X115345199Y-124138587D01*
X115302584Y-124001391D01*
X115247377Y-123844018D01*
X115184946Y-123681964D01*
X115120659Y-123530720D01*
X115074156Y-123433115D01*
X114993746Y-123295883D01*
X114900084Y-123165558D01*
X114833460Y-123090745D01*
X114746384Y-123016850D01*
X114661586Y-122975988D01*
X114548086Y-122955658D01*
X114485376Y-122950306D01*
X114272932Y-122954527D01*
X114110186Y-123004004D01*
X113987798Y-123101791D01*
X113975260Y-123117069D01*
X113926177Y-123176901D01*
X113909322Y-123181355D01*
X113912298Y-123132279D01*
X113912990Y-123126363D01*
X113893941Y-123042048D01*
X113831011Y-122989791D01*
X113749257Y-122989573D01*
X113701812Y-123043388D01*
X113663237Y-123157691D01*
X113635543Y-123320723D01*
X113620739Y-123520727D01*
X113620686Y-123741543D01*
X113412097Y-123741543D01*
X113397828Y-123651241D01*
X113397766Y-123650829D01*
X113359439Y-123421707D01*
X113319576Y-123252475D01*
X113273801Y-123130508D01*
X113217738Y-123043180D01*
X113171000Y-122996715D01*
X113030577Y-122922963D01*
X112861713Y-122902231D01*
X112685256Y-122934279D01*
X112543123Y-123004005D01*
X112433938Y-123082130D01*
X112377370Y-123139213D01*
X112362634Y-123189522D01*
X112372124Y-123230253D01*
X112409692Y-123293628D01*
X112467592Y-123311095D01*
X112558783Y-123282637D01*
X112659099Y-123229841D01*
X112767299Y-123170583D01*
X112837077Y-123144760D01*
X112892023Y-123148107D01*
X112955534Y-123176258D01*
X113042395Y-123246235D01*
X113097229Y-123332226D01*
X113132413Y-123433115D01*
X112838092Y-123433115D01*
X112686335Y-123435452D01*
X112584183Y-123446196D01*
X112508726Y-123470948D01*
X112437053Y-123515307D01*
X112405561Y-123538838D01*
X112269457Y-123663189D01*
X112197085Y-123786619D01*
X112181662Y-123925356D01*
X112066403Y-123925356D01*
X112077727Y-123837167D01*
X112097510Y-123612796D01*
X112108714Y-123391658D01*
X112109771Y-123192695D01*
X112099108Y-123034848D01*
X112093697Y-122999992D01*
X112071106Y-122884929D01*
X112052574Y-122803233D01*
X112043642Y-122775748D01*
X112017023Y-122794395D01*
X111962971Y-122853789D01*
X111940045Y-122881807D01*
X111895489Y-122945744D01*
X111865994Y-123015745D01*
X111847143Y-123110461D01*
X111834516Y-123248545D01*
X111828458Y-123352883D01*
X111818015Y-123506892D01*
X111805004Y-123632857D01*
X111791430Y-123713690D01*
X111783815Y-123733451D01*
X111745449Y-123723791D01*
X111677133Y-123648038D01*
X111578872Y-123506196D01*
X111489221Y-123362552D01*
X111418491Y-123255797D01*
X111360742Y-123199981D01*
X111298341Y-123180247D01*
X111271507Y-123179115D01*
X111189294Y-123197085D01*
X111156119Y-123253714D01*
X110747503Y-123253714D01*
X110638413Y-123114378D01*
X110495426Y-123005113D01*
X110331917Y-122951800D01*
X110214318Y-122943257D01*
X110004961Y-122967886D01*
X109841924Y-123039930D01*
X109765903Y-123108967D01*
X109726349Y-123147591D01*
X109705373Y-123125331D01*
X109694487Y-123084145D01*
X109645541Y-123007171D01*
X109593314Y-122985992D01*
X109520251Y-123000600D01*
X109466676Y-123070968D01*
X109431583Y-123200859D01*
X109413966Y-123394040D01*
X109412822Y-123654273D01*
X107004751Y-123654273D01*
X107026711Y-123638121D01*
X107070041Y-123561983D01*
X107077571Y-123542689D01*
X107163202Y-123402995D01*
X107317708Y-123261553D01*
X107537474Y-123120092D01*
X107818888Y-122980341D01*
X108158336Y-122844030D01*
X108552204Y-122712890D01*
X108636785Y-122689258D01*
X115428486Y-122689258D01*
X115428486Y-122943257D01*
X116154200Y-122943257D01*
X116154200Y-123575290D01*
X116155462Y-123785674D01*
X116158961Y-123973403D01*
X116164263Y-124125336D01*
X116170937Y-124228333D01*
X116176960Y-124266633D01*
X116218987Y-124307983D01*
X116309932Y-124316424D01*
X116331174Y-124314958D01*
X116462628Y-124303972D01*
X116467883Y-123941787D01*
X116661050Y-123941787D01*
X116662928Y-124095429D01*
X116669447Y-124216309D01*
X116680972Y-124287636D01*
X116686390Y-124297924D01*
X116736187Y-124314528D01*
X116824349Y-124322073D01*
X116831533Y-124322115D01*
X116952486Y-124322115D01*
X116952981Y-123913900D01*
X116954349Y-123697924D01*
X117569343Y-123697924D01*
X117570526Y-123864425D01*
X117576481Y-123975520D01*
X117590818Y-124048362D01*
X117617146Y-124100108D01*
X117659073Y-124147913D01*
X117665335Y-124154211D01*
X117735934Y-124214619D01*
X117816930Y-124258270D01*
X117921126Y-124287811D01*
X118061326Y-124305887D01*
X118250333Y-124315141D01*
X118458343Y-124318045D01*
X118667257Y-124317268D01*
X118819585Y-124311264D01*
X118931225Y-124298343D01*
X119018074Y-124276817D01*
X119081344Y-124251831D01*
X119182721Y-124193997D01*
X119256995Y-124130640D01*
X119271844Y-124109871D01*
X119288778Y-124042989D01*
X119302035Y-123923562D01*
X119309784Y-123771781D01*
X119492485Y-123771781D01*
X119494266Y-123955946D01*
X119499149Y-124113613D01*
X119506451Y-124230808D01*
X119515483Y-124293557D01*
X119518396Y-124299644D01*
X119569685Y-124314842D01*
X119654467Y-124314763D01*
X119764628Y-124303972D01*
X119774871Y-123852707D01*
X119782085Y-123667802D01*
X119793908Y-123513277D01*
X119808907Y-123403469D01*
X119824671Y-123353779D01*
X119864315Y-123332871D01*
X119948305Y-123318569D01*
X120085131Y-123310123D01*
X120283282Y-123306785D01*
X120358714Y-123306670D01*
X120543470Y-123308849D01*
X120703621Y-123314431D01*
X120824392Y-123322629D01*
X120891013Y-123332658D01*
X120897416Y-123335321D01*
X120919305Y-123382790D01*
X120935758Y-123495584D01*
X120947068Y-123676373D01*
X120951844Y-123833694D01*
X120962057Y-124303972D01*
X121216057Y-124303972D01*
X121226155Y-123804577D01*
X121227555Y-123572159D01*
X121221630Y-123392729D01*
X121208757Y-123273464D01*
X121196020Y-123230005D01*
X121147077Y-123166310D01*
X121071579Y-123118949D01*
X120960058Y-123085889D01*
X120803046Y-123065100D01*
X120591075Y-123054550D01*
X120366870Y-123052115D01*
X120124379Y-123054078D01*
X119942239Y-123061422D01*
X119808301Y-123076329D01*
X119710415Y-123100979D01*
X119636432Y-123137553D01*
X119574202Y-123188234D01*
X119566506Y-123195808D01*
X119536744Y-123231501D01*
X119516185Y-123277418D01*
X119503156Y-123346579D01*
X119495982Y-123452006D01*
X119492991Y-123606720D01*
X119492485Y-123771781D01*
X119309784Y-123771781D01*
X119309794Y-123771595D01*
X119311057Y-123679431D01*
X119306047Y-123480219D01*
X119285356Y-123328027D01*
X119240495Y-123216606D01*
X119162972Y-123139707D01*
X119044296Y-123091081D01*
X118875978Y-123064480D01*
X118649526Y-123053654D01*
X118458699Y-123052115D01*
X118243341Y-123053339D01*
X118086197Y-123058048D01*
X117972937Y-123067790D01*
X117889230Y-123084116D01*
X117820745Y-123108577D01*
X117786825Y-123124805D01*
X117689418Y-123185763D01*
X117619022Y-123249828D01*
X117606842Y-123267562D01*
X117590730Y-123332837D01*
X117578085Y-123450994D01*
X117570622Y-123602365D01*
X117569343Y-123697924D01*
X116954349Y-123697924D01*
X116954383Y-123692573D01*
X116961887Y-123533174D01*
X116981370Y-123425060D01*
X117018710Y-123357589D01*
X117079785Y-123320118D01*
X117170471Y-123302003D01*
X117296074Y-123292636D01*
X117434496Y-123272464D01*
X117508416Y-123229467D01*
X117523476Y-123159431D01*
X117516073Y-123128339D01*
X117494824Y-123087195D01*
X117452244Y-123064149D01*
X117370692Y-123054160D01*
X117249397Y-123052171D01*
X117025439Y-123072261D01*
X116852472Y-123130874D01*
X116736238Y-123225701D01*
X116708597Y-123269829D01*
X116692705Y-123335416D01*
X116679641Y-123452197D01*
X116669769Y-123603379D01*
X116663451Y-123772173D01*
X116661050Y-123941787D01*
X116467883Y-123941787D01*
X116472500Y-123623615D01*
X116482373Y-122943257D01*
X116842288Y-122943257D01*
X117012555Y-122939484D01*
X117140715Y-122928997D01*
X117214249Y-122913050D01*
X117225903Y-122904909D01*
X117229500Y-122882932D01*
X121421471Y-122882932D01*
X121467457Y-122976285D01*
X121475681Y-122985757D01*
X121508211Y-123036330D01*
X121493824Y-123052115D01*
X121480684Y-123086009D01*
X121469630Y-123178173D01*
X121460846Y-123314331D01*
X121454515Y-123480206D01*
X121450819Y-123661524D01*
X121449942Y-123844006D01*
X121452067Y-124013377D01*
X121457376Y-124155362D01*
X121466054Y-124255682D01*
X121477824Y-124299644D01*
X121529114Y-124314842D01*
X121613896Y-124314763D01*
X121724057Y-124303972D01*
X121733404Y-123728638D01*
X121923897Y-123728638D01*
X121925319Y-123887468D01*
X121931619Y-124021005D01*
X121943100Y-124109691D01*
X121947281Y-124123816D01*
X121993134Y-124175897D01*
X122080312Y-124233677D01*
X122119638Y-124253381D01*
X122178303Y-124276872D01*
X122244045Y-124294009D01*
X122328327Y-124305569D01*
X122442611Y-124312329D01*
X122598359Y-124315065D01*
X122807035Y-124314554D01*
X122994057Y-124312640D01*
X123719771Y-124303972D01*
X123719771Y-124211335D01*
X123844919Y-124211335D01*
X123852282Y-124255058D01*
X123884457Y-124285458D01*
X123950610Y-124304948D01*
X124059910Y-124315943D01*
X124221524Y-124320854D01*
X124444618Y-124322094D01*
X124499941Y-124322115D01*
X124764864Y-124319920D01*
X124965644Y-124312959D01*
X125110589Y-124300663D01*
X125208004Y-124282465D01*
X125240194Y-124271519D01*
X125373499Y-124182299D01*
X125455946Y-124057491D01*
X125483061Y-123914274D01*
X125450369Y-123769826D01*
X125393746Y-123682031D01*
X125357043Y-123642516D01*
X125317522Y-123614312D01*
X125262117Y-123594659D01*
X125177767Y-123580794D01*
X125051408Y-123569956D01*
X124869976Y-123559382D01*
X124794984Y-123555438D01*
X124559157Y-123542134D01*
X124386556Y-123528987D01*
X124267876Y-123513814D01*
X124193809Y-123494434D01*
X124155048Y-123468662D01*
X124142288Y-123434318D01*
X124144013Y-123402784D01*
X124156590Y-123362477D01*
X124190566Y-123336925D01*
X124261420Y-123320982D01*
X124384633Y-123309499D01*
X124434736Y-123306115D01*
X124608462Y-123288731D01*
X124718302Y-123260693D01*
X124772672Y-123217580D01*
X124779990Y-123154973D01*
X124773216Y-123128339D01*
X124755523Y-123091620D01*
X124720840Y-123069016D01*
X124654007Y-123057155D01*
X124539867Y-123052671D01*
X124430263Y-123052115D01*
X124265883Y-123054912D01*
X124153047Y-123065914D01*
X124070855Y-123089037D01*
X123998407Y-123128197D01*
X123988209Y-123134942D01*
X123903604Y-123205504D01*
X123864711Y-123287436D01*
X123853824Y-123369413D01*
X123855204Y-123501941D01*
X123886162Y-123604432D01*
X123954243Y-123681095D01*
X124066992Y-123736139D01*
X124231956Y-123773775D01*
X124456680Y-123798210D01*
X124642198Y-123809188D01*
X125134914Y-123832258D01*
X125146396Y-123932043D01*
X125151124Y-124006875D01*
X125146396Y-124038721D01*
X125108202Y-124042060D01*
X125009359Y-124047055D01*
X124861759Y-124053205D01*
X124677290Y-124060010D01*
X124500339Y-124065935D01*
X124270367Y-124073908D01*
X124102900Y-124081771D01*
X123987885Y-124090859D01*
X123915269Y-124102506D01*
X123874999Y-124118049D01*
X123857024Y-124138822D01*
X123853199Y-124151877D01*
X123844919Y-124211335D01*
X123719771Y-124211335D01*
X123719771Y-124086258D01*
X123012200Y-124068115D01*
X122790844Y-124061047D01*
X122593085Y-124052099D01*
X122430883Y-124042026D01*
X122316195Y-124031581D01*
X122260981Y-124021519D01*
X122259271Y-124020616D01*
X122235890Y-123970358D01*
X122220597Y-123869230D01*
X122213451Y-123738488D01*
X122214509Y-123599389D01*
X122223829Y-123473187D01*
X122241467Y-123381140D01*
X122257457Y-123349658D01*
X122303165Y-123332183D01*
X122403685Y-123319420D01*
X122563900Y-123311065D01*
X122788693Y-123306818D01*
X122962061Y-123306115D01*
X123177019Y-123304947D01*
X123369222Y-123301704D01*
X123525934Y-123296777D01*
X123634420Y-123290556D01*
X123680518Y-123284090D01*
X123724844Y-123232243D01*
X123737914Y-123157090D01*
X123737914Y-123052115D01*
X122974112Y-123052115D01*
X122687454Y-123053504D01*
X122464214Y-123058749D01*
X122295274Y-123069465D01*
X122171517Y-123087266D01*
X122083823Y-123113766D01*
X122023075Y-123150582D01*
X121980155Y-123199327D01*
X121960990Y-123231533D01*
X121945900Y-123295963D01*
X121934488Y-123413329D01*
X121927053Y-123564073D01*
X121923897Y-123728638D01*
X121733404Y-123728638D01*
X121734035Y-123689816D01*
X121736495Y-123447434D01*
X121734583Y-123269760D01*
X121727872Y-123149041D01*
X121715935Y-123077521D01*
X121698766Y-123047697D01*
X121678117Y-123018884D01*
X121716002Y-122995756D01*
X121763179Y-122945203D01*
X121778352Y-122864162D01*
X121760835Y-122786094D01*
X121721089Y-122747568D01*
X121596727Y-122723305D01*
X121497644Y-122745244D01*
X121435380Y-122802186D01*
X121421471Y-122882932D01*
X117229500Y-122882932D01*
X117236053Y-122842895D01*
X117227353Y-122777909D01*
X117205103Y-122689258D01*
X115428486Y-122689258D01*
X108636785Y-122689258D01*
X108996879Y-122588648D01*
X109151057Y-122550208D01*
X109852645Y-122396836D01*
X110623998Y-122259923D01*
X111464174Y-122139583D01*
X112372231Y-122035931D01*
X113347226Y-121949083D01*
X114388216Y-121879153D01*
X114844162Y-121854892D01*
X115111369Y-121844343D01*
X115439316Y-121835663D01*
X115816198Y-121828851D01*
X116230208Y-121823909D01*
X116669539Y-121820835D01*
X117122386Y-121819630D01*
X117576941Y-121820294D01*
G36*
X152220789Y-124013706D02*
G01*
X152223079Y-124311514D01*
X152229371Y-124573387D01*
X152238796Y-124776410D01*
X152250484Y-124897666D01*
X152255050Y-124916817D01*
X152285035Y-124953640D01*
X152353548Y-124978984D01*
X152478185Y-124994836D01*
X152676541Y-125003185D01*
X152966213Y-125006019D01*
X153045272Y-125006100D01*
X153801233Y-125006100D01*
X153801233Y-125401211D01*
X150358122Y-125401211D01*
X150358122Y-125006100D01*
X151882122Y-125006100D01*
X151882122Y-123199878D01*
X152220789Y-123199878D01*
X152220789Y-124013706D01*
X152220789Y-124013706D01*
G37*
X152220789Y-124013706D02*
X152223079Y-124311514D01*
X152229371Y-124573387D01*
X152238796Y-124776410D01*
X152250484Y-124897666D01*
X152255050Y-124916817D01*
X152285035Y-124953640D01*
X152353548Y-124978984D01*
X152478185Y-124994836D01*
X152676541Y-125003185D01*
X152966213Y-125006019D01*
X153045272Y-125006100D01*
X153801233Y-125006100D01*
X153801233Y-125401211D01*
X150358122Y-125401211D01*
X150358122Y-125006100D01*
X151882122Y-125006100D01*
X151882122Y-123199878D01*
X152220789Y-123199878D01*
X152220789Y-124013706D01*
G36*
X152065566Y-125696376D02*
G01*
X153208566Y-125711655D01*
X153226254Y-125895100D01*
X153243941Y-126078544D01*
X150922566Y-126078544D01*
X150922566Y-125681096D01*
X152065566Y-125696376D01*
X152065566Y-125696376D01*
G37*
X152065566Y-125696376D02*
X153208566Y-125711655D01*
X153226254Y-125895100D01*
X153243941Y-126078544D01*
X150922566Y-126078544D01*
X150922566Y-125681096D01*
X152065566Y-125696376D01*
G36*
X152672344Y-126755878D02*
G01*
X152089085Y-126755878D01*
X151842856Y-126752442D01*
X151640257Y-126743167D01*
X151506855Y-126729604D01*
X151468196Y-126718248D01*
X151438496Y-126637482D01*
X151430566Y-126548915D01*
X151434593Y-126491407D01*
X151459772Y-126453679D01*
X151525747Y-126431561D01*
X151652166Y-126420888D01*
X151858675Y-126417491D01*
X152051455Y-126417211D01*
X152672344Y-126417211D01*
X152672344Y-126755878D01*
X152672344Y-126755878D01*
G37*
X152672344Y-126755878D02*
X152089085Y-126755878D01*
X151842856Y-126752442D01*
X151640257Y-126743167D01*
X151506855Y-126729604D01*
X151468196Y-126718248D01*
X151438496Y-126637482D01*
X151430566Y-126548915D01*
X151434593Y-126491407D01*
X151459772Y-126453679D01*
X151525747Y-126431561D01*
X151652166Y-126420888D01*
X151858675Y-126417491D01*
X152051455Y-126417211D01*
X152672344Y-126417211D01*
X152672344Y-126755878D01*
G36*
X152502957Y-122450489D02*
G01*
X152984671Y-122589497D01*
X153432170Y-122816652D01*
X153831343Y-123123805D01*
X154168083Y-123502806D01*
X154428280Y-123945505D01*
X154538667Y-124228570D01*
X154600166Y-124445252D01*
X154634149Y-124647900D01*
X154645235Y-124879441D01*
X154638956Y-125160559D01*
X154623505Y-125437618D01*
X154596885Y-125644326D01*
X154549358Y-125823214D01*
X154471189Y-126016811D01*
X154415472Y-126136840D01*
X154137736Y-126607831D01*
X153793071Y-126988556D01*
X153377371Y-127282388D01*
X152886529Y-127492704D01*
X152700785Y-127546044D01*
X152382113Y-127617660D01*
X152119280Y-127647663D01*
X151863633Y-127637165D01*
X151566518Y-127587272D01*
X151501187Y-127573393D01*
X151009798Y-127410675D01*
X150564681Y-127152190D01*
X150177828Y-126809728D01*
X149861231Y-126395079D01*
X149626881Y-125920035D01*
X149539207Y-125644300D01*
X149476480Y-125223430D01*
X149832980Y-125223430D01*
X149915870Y-125669737D01*
X150090612Y-126096567D01*
X150359562Y-126489248D01*
X150536731Y-126674425D01*
X150940091Y-126981554D01*
X151378453Y-127181435D01*
X151851093Y-127273903D01*
X152357285Y-127258796D01*
X152764400Y-127175153D01*
X153031884Y-127065899D01*
X153322524Y-126890790D01*
X153596967Y-126677974D01*
X153815859Y-126455597D01*
X153869152Y-126384976D01*
X154054308Y-126091900D01*
X154176216Y-125828045D01*
X154246557Y-125554300D01*
X154277016Y-125231549D01*
X154281011Y-125006100D01*
X154278549Y-124731527D01*
X154266716Y-124534737D01*
X154238837Y-124380657D01*
X154188241Y-124234213D01*
X154108252Y-124060331D01*
X154096470Y-124036177D01*
X153877672Y-123687578D01*
X153585329Y-123363652D01*
X153250008Y-123093354D01*
X152903474Y-122906116D01*
X152703111Y-122838713D01*
X152492972Y-122799130D01*
X152233021Y-122781382D01*
X152051455Y-122778752D01*
X151785726Y-122781693D01*
X151592554Y-122797376D01*
X151431712Y-122833653D01*
X151262976Y-122898380D01*
X151132807Y-122958104D01*
X150713987Y-123213197D01*
X150372902Y-123536835D01*
X150111906Y-123914348D01*
X149933352Y-124331065D01*
X149839592Y-124772316D01*
X149832980Y-125223430D01*
X149476480Y-125223430D01*
X149464826Y-125145237D01*
X149494199Y-124648701D01*
X149618765Y-124168599D01*
X149829965Y-123718840D01*
X150119237Y-123313330D01*
X150478023Y-122965977D01*
X150897761Y-122690689D01*
X151369892Y-122501372D01*
X151493320Y-122469517D01*
X152001137Y-122407779D01*
X152502957Y-122450489D01*
X152502957Y-122450489D01*
G37*
X152502957Y-122450489D02*
X152984671Y-122589497D01*
X153432170Y-122816652D01*
X153831343Y-123123805D01*
X154168083Y-123502806D01*
X154428280Y-123945505D01*
X154538667Y-124228570D01*
X154600166Y-124445252D01*
X154634149Y-124647900D01*
X154645235Y-124879441D01*
X154638956Y-125160559D01*
X154623505Y-125437618D01*
X154596885Y-125644326D01*
X154549358Y-125823214D01*
X154471189Y-126016811D01*
X154415472Y-126136840D01*
X154137736Y-126607831D01*
X153793071Y-126988556D01*
X153377371Y-127282388D01*
X152886529Y-127492704D01*
X152700785Y-127546044D01*
X152382113Y-127617660D01*
X152119280Y-127647663D01*
X151863633Y-127637165D01*
X151566518Y-127587272D01*
X151501187Y-127573393D01*
X151009798Y-127410675D01*
X150564681Y-127152190D01*
X150177828Y-126809728D01*
X149861231Y-126395079D01*
X149626881Y-125920035D01*
X149539207Y-125644300D01*
X149476480Y-125223430D01*
X149832980Y-125223430D01*
X149915870Y-125669737D01*
X150090612Y-126096567D01*
X150359562Y-126489248D01*
X150536731Y-126674425D01*
X150940091Y-126981554D01*
X151378453Y-127181435D01*
X151851093Y-127273903D01*
X152357285Y-127258796D01*
X152764400Y-127175153D01*
X153031884Y-127065899D01*
X153322524Y-126890790D01*
X153596967Y-126677974D01*
X153815859Y-126455597D01*
X153869152Y-126384976D01*
X154054308Y-126091900D01*
X154176216Y-125828045D01*
X154246557Y-125554300D01*
X154277016Y-125231549D01*
X154281011Y-125006100D01*
X154278549Y-124731527D01*
X154266716Y-124534737D01*
X154238837Y-124380657D01*
X154188241Y-124234213D01*
X154108252Y-124060331D01*
X154096470Y-124036177D01*
X153877672Y-123687578D01*
X153585329Y-123363652D01*
X153250008Y-123093354D01*
X152903474Y-122906116D01*
X152703111Y-122838713D01*
X152492972Y-122799130D01*
X152233021Y-122781382D01*
X152051455Y-122778752D01*
X151785726Y-122781693D01*
X151592554Y-122797376D01*
X151431712Y-122833653D01*
X151262976Y-122898380D01*
X151132807Y-122958104D01*
X150713987Y-123213197D01*
X150372902Y-123536835D01*
X150111906Y-123914348D01*
X149933352Y-124331065D01*
X149839592Y-124772316D01*
X149832980Y-125223430D01*
X149476480Y-125223430D01*
X149464826Y-125145237D01*
X149494199Y-124648701D01*
X149618765Y-124168599D01*
X149829965Y-123718840D01*
X150119237Y-123313330D01*
X150478023Y-122965977D01*
X150897761Y-122690689D01*
X151369892Y-122501372D01*
X151493320Y-122469517D01*
X152001137Y-122407779D01*
X152502957Y-122450489D01*
D16*
X130807142Y-97366666D02*
X130854761Y-97414285D01*
X130902380Y-97557142D01*
X130902380Y-97652380D01*
X130854761Y-97795238D01*
X130759523Y-97890476D01*
X130664285Y-97938095D01*
X130473809Y-97985714D01*
X130330952Y-97985714D01*
X130140476Y-97938095D01*
X130045238Y-97890476D01*
X129950000Y-97795238D01*
X129902380Y-97652380D01*
X129902380Y-97557142D01*
X129950000Y-97414285D01*
X129997619Y-97366666D01*
X130330952Y-96795238D02*
X130283333Y-96890476D01*
X130235714Y-96938095D01*
X130140476Y-96985714D01*
X130092857Y-96985714D01*
X129997619Y-96938095D01*
X129950000Y-96890476D01*
X129902380Y-96795238D01*
X129902380Y-96604761D01*
X129950000Y-96509523D01*
X129997619Y-96461904D01*
X130092857Y-96414285D01*
X130140476Y-96414285D01*
X130235714Y-96461904D01*
X130283333Y-96509523D01*
X130330952Y-96604761D01*
X130330952Y-96795238D01*
X130378571Y-96890476D01*
X130426190Y-96938095D01*
X130521428Y-96985714D01*
X130711904Y-96985714D01*
X130807142Y-96938095D01*
X130854761Y-96890476D01*
X130902380Y-96795238D01*
X130902380Y-96604761D01*
X130854761Y-96509523D01*
X130807142Y-96461904D01*
X130711904Y-96414285D01*
X130521428Y-96414285D01*
X130426190Y-96461904D01*
X130378571Y-96509523D01*
X130330952Y-96604761D01*
X131837133Y-96839042D02*
X131789514Y-96886661D01*
X131646657Y-96934280D01*
X131551419Y-96934280D01*
X131408561Y-96886661D01*
X131313323Y-96791423D01*
X131265704Y-96696185D01*
X131218085Y-96505709D01*
X131218085Y-96362852D01*
X131265704Y-96172376D01*
X131313323Y-96077138D01*
X131408561Y-95981900D01*
X131551419Y-95934280D01*
X131646657Y-95934280D01*
X131789514Y-95981900D01*
X131837133Y-96029519D01*
X132218085Y-96029519D02*
X132265704Y-95981900D01*
X132360942Y-95934280D01*
X132599038Y-95934280D01*
X132694276Y-95981900D01*
X132741895Y-96029519D01*
X132789514Y-96124757D01*
X132789514Y-96219995D01*
X132741895Y-96362852D01*
X132170466Y-96934280D01*
X132789514Y-96934280D01*
D11*
X153590666Y-119162580D02*
X153590666Y-119876866D01*
X153543047Y-120019723D01*
X153447809Y-120114961D01*
X153304952Y-120162580D01*
X153209714Y-120162580D01*
X154495428Y-119495914D02*
X154495428Y-120162580D01*
X154257333Y-119114961D02*
X154019238Y-119829247D01*
X154638285Y-119829247D01*
X153704966Y-82383380D02*
X153704966Y-83097666D01*
X153657347Y-83240523D01*
X153562109Y-83335761D01*
X153419252Y-83383380D01*
X153324014Y-83383380D01*
X154085919Y-82383380D02*
X154704966Y-82383380D01*
X154371633Y-82764333D01*
X154514490Y-82764333D01*
X154609728Y-82811952D01*
X154657347Y-82859571D01*
X154704966Y-82954809D01*
X154704966Y-83192904D01*
X154657347Y-83288142D01*
X154609728Y-83335761D01*
X154514490Y-83383380D01*
X154228776Y-83383380D01*
X154133538Y-83335761D01*
X154085919Y-83288142D01*
X120507166Y-102284280D02*
X120507166Y-102998566D01*
X120459547Y-103141423D01*
X120364309Y-103236661D01*
X120221452Y-103284280D01*
X120126214Y-103284280D01*
X121507166Y-103284280D02*
X120935738Y-103284280D01*
X121221452Y-103284280D02*
X121221452Y-102284280D01*
X121126214Y-102427138D01*
X121030976Y-102522376D01*
X120935738Y-102569995D01*
D16*
X138428095Y-123282380D02*
X138428095Y-124091904D01*
X138475714Y-124187142D01*
X138523333Y-124234761D01*
X138618571Y-124282380D01*
X138809047Y-124282380D01*
X138904285Y-124234761D01*
X138951904Y-124187142D01*
X138999523Y-124091904D01*
X138999523Y-123282380D01*
X139951904Y-123282380D02*
X139475714Y-123282380D01*
X139428095Y-123758571D01*
X139475714Y-123710952D01*
X139570952Y-123663333D01*
X139809047Y-123663333D01*
X139904285Y-123710952D01*
X139951904Y-123758571D01*
X139999523Y-123853809D01*
X139999523Y-124091904D01*
X139951904Y-124187142D01*
X139904285Y-124234761D01*
X139809047Y-124282380D01*
X139570952Y-124282380D01*
X139475714Y-124234761D01*
X139428095Y-124187142D01*
X104989333Y-115222280D02*
X104656000Y-114746090D01*
X104417904Y-115222280D02*
X104417904Y-114222280D01*
X104798857Y-114222280D01*
X104894095Y-114269900D01*
X104941714Y-114317519D01*
X104989333Y-114412757D01*
X104989333Y-114555614D01*
X104941714Y-114650852D01*
X104894095Y-114698471D01*
X104798857Y-114746090D01*
X104417904Y-114746090D01*
X105846476Y-114555614D02*
X105846476Y-115222280D01*
X105608380Y-114174661D02*
X105370285Y-114888947D01*
X105989333Y-114888947D01*
D11*
X129030433Y-119489480D02*
X128697100Y-119013290D01*
X128459004Y-119489480D02*
X128459004Y-118489480D01*
X128839957Y-118489480D01*
X128935195Y-118537100D01*
X128982814Y-118584719D01*
X129030433Y-118679957D01*
X129030433Y-118822814D01*
X128982814Y-118918052D01*
X128935195Y-118965671D01*
X128839957Y-119013290D01*
X128459004Y-119013290D01*
X129363766Y-118489480D02*
X129982814Y-118489480D01*
X129649480Y-118870433D01*
X129792338Y-118870433D01*
X129887576Y-118918052D01*
X129935195Y-118965671D01*
X129982814Y-119060909D01*
X129982814Y-119299004D01*
X129935195Y-119394242D01*
X129887576Y-119441861D01*
X129792338Y-119489480D01*
X129506623Y-119489480D01*
X129411385Y-119441861D01*
X129363766Y-119394242D01*
X129005033Y-105316280D02*
X128671700Y-104840090D01*
X128433604Y-105316280D02*
X128433604Y-104316280D01*
X128814557Y-104316280D01*
X128909795Y-104363900D01*
X128957414Y-104411519D01*
X129005033Y-104506757D01*
X129005033Y-104649614D01*
X128957414Y-104744852D01*
X128909795Y-104792471D01*
X128814557Y-104840090D01*
X128433604Y-104840090D01*
X129385985Y-104411519D02*
X129433604Y-104363900D01*
X129528842Y-104316280D01*
X129766938Y-104316280D01*
X129862176Y-104363900D01*
X129909795Y-104411519D01*
X129957414Y-104506757D01*
X129957414Y-104601995D01*
X129909795Y-104744852D01*
X129338366Y-105316280D01*
X129957414Y-105316280D01*
X134653280Y-90628766D02*
X134177090Y-90962100D01*
X134653280Y-91200195D02*
X133653280Y-91200195D01*
X133653280Y-90819242D01*
X133700900Y-90724004D01*
X133748519Y-90676385D01*
X133843757Y-90628766D01*
X133986614Y-90628766D01*
X134081852Y-90676385D01*
X134129471Y-90724004D01*
X134177090Y-90819242D01*
X134177090Y-91200195D01*
X134653280Y-89676385D02*
X134653280Y-90247814D01*
X134653280Y-89962100D02*
X133653280Y-89962100D01*
X133796138Y-90057338D01*
X133891376Y-90152576D01*
X133938995Y-90247814D01*
X108518604Y-102407980D02*
X108518604Y-101407980D01*
X108756700Y-101407980D01*
X108899557Y-101455600D01*
X108994795Y-101550838D01*
X109042414Y-101646076D01*
X109090033Y-101836552D01*
X109090033Y-101979409D01*
X109042414Y-102169885D01*
X108994795Y-102265123D01*
X108899557Y-102360361D01*
X108756700Y-102407980D01*
X108518604Y-102407980D01*
X110090033Y-102312742D02*
X110042414Y-102360361D01*
X109899557Y-102407980D01*
X109804319Y-102407980D01*
X109661461Y-102360361D01*
X109566223Y-102265123D01*
X109518604Y-102169885D01*
X109470985Y-101979409D01*
X109470985Y-101836552D01*
X109518604Y-101646076D01*
X109566223Y-101550838D01*
X109661461Y-101455600D01*
X109804319Y-101407980D01*
X109899557Y-101407980D01*
X110042414Y-101455600D01*
X110090033Y-101503219D01*
X110518604Y-102407980D02*
X110518604Y-101407980D01*
X110756700Y-101407980D01*
X110899557Y-101455600D01*
X110994795Y-101550838D01*
X111042414Y-101646076D01*
X111090033Y-101836552D01*
X111090033Y-101979409D01*
X111042414Y-102169885D01*
X110994795Y-102265123D01*
X110899557Y-102360361D01*
X110756700Y-102407980D01*
X110518604Y-102407980D01*
X112090033Y-102312742D02*
X112042414Y-102360361D01*
X111899557Y-102407980D01*
X111804319Y-102407980D01*
X111661461Y-102360361D01*
X111566223Y-102265123D01*
X111518604Y-102169885D01*
X111470985Y-101979409D01*
X111470985Y-101836552D01*
X111518604Y-101646076D01*
X111566223Y-101550838D01*
X111661461Y-101455600D01*
X111804319Y-101407980D01*
X111899557Y-101407980D01*
X112042414Y-101455600D01*
X112090033Y-101503219D01*
X113042414Y-102407980D02*
X112470985Y-102407980D01*
X112756700Y-102407980D02*
X112756700Y-101407980D01*
X112661461Y-101550838D01*
X112566223Y-101646076D01*
X112470985Y-101693695D01*
D16*
X103575076Y-104808280D02*
X103575076Y-103808280D01*
X103956028Y-103808280D01*
X104051266Y-103855900D01*
X104098885Y-103903519D01*
X104146504Y-103998757D01*
X104146504Y-104141614D01*
X104098885Y-104236852D01*
X104051266Y-104284471D01*
X103956028Y-104332090D01*
X103575076Y-104332090D01*
X104479838Y-103808280D02*
X104717933Y-104808280D01*
X104908409Y-104093995D01*
X105098885Y-104808280D01*
X105336980Y-103808280D01*
X106289361Y-104808280D02*
X105956028Y-104332090D01*
X105717933Y-104808280D02*
X105717933Y-103808280D01*
X106098885Y-103808280D01*
X106194123Y-103855900D01*
X106241742Y-103903519D01*
X106289361Y-103998757D01*
X106289361Y-104141614D01*
X106241742Y-104236852D01*
X106194123Y-104284471D01*
X106098885Y-104332090D01*
X105717933Y-104332090D01*
X107241742Y-104808280D02*
X106670314Y-104808280D01*
X106956028Y-104808280D02*
X106956028Y-103808280D01*
X106860790Y-103951138D01*
X106765552Y-104046376D01*
X106670314Y-104093995D01*
X132980133Y-80633842D02*
X132932514Y-80681461D01*
X132789657Y-80729080D01*
X132694419Y-80729080D01*
X132551561Y-80681461D01*
X132456323Y-80586223D01*
X132408704Y-80490985D01*
X132361085Y-80300509D01*
X132361085Y-80157652D01*
X132408704Y-79967176D01*
X132456323Y-79871938D01*
X132551561Y-79776700D01*
X132694419Y-79729080D01*
X132789657Y-79729080D01*
X132932514Y-79776700D01*
X132980133Y-79824319D01*
X133313466Y-79729080D02*
X133980133Y-79729080D01*
X133551561Y-80729080D01*
X138391995Y-95667580D02*
X138391995Y-96477104D01*
X138439614Y-96572342D01*
X138487233Y-96619961D01*
X138582471Y-96667580D01*
X138772947Y-96667580D01*
X138868185Y-96619961D01*
X138915804Y-96572342D01*
X138963423Y-96477104D01*
X138963423Y-95667580D01*
X139344376Y-95667580D02*
X139963423Y-95667580D01*
X139630090Y-96048533D01*
X139772947Y-96048533D01*
X139868185Y-96096152D01*
X139915804Y-96143771D01*
X139963423Y-96239009D01*
X139963423Y-96477104D01*
X139915804Y-96572342D01*
X139868185Y-96619961D01*
X139772947Y-96667580D01*
X139487233Y-96667580D01*
X139391995Y-96619961D01*
X139344376Y-96572342D01*
X138430095Y-109129580D02*
X138430095Y-109939104D01*
X138477714Y-110034342D01*
X138525333Y-110081961D01*
X138620571Y-110129580D01*
X138811047Y-110129580D01*
X138906285Y-110081961D01*
X138953904Y-110034342D01*
X139001523Y-109939104D01*
X139001523Y-109129580D01*
X139906285Y-109462914D02*
X139906285Y-110129580D01*
X139668190Y-109081961D02*
X139430095Y-109796247D01*
X140049142Y-109796247D01*
X129627380Y-92361904D02*
X130436904Y-92361904D01*
X130532142Y-92314285D01*
X130579761Y-92266666D01*
X130627380Y-92171428D01*
X130627380Y-91980952D01*
X130579761Y-91885714D01*
X130532142Y-91838095D01*
X130436904Y-91790476D01*
X129627380Y-91790476D01*
X130627380Y-90790476D02*
X130627380Y-91361904D01*
X130627380Y-91076190D02*
X129627380Y-91076190D01*
X129770238Y-91171428D01*
X129865476Y-91266666D01*
X129913095Y-91361904D01*
X123348495Y-84914580D02*
X123348495Y-85724104D01*
X123396114Y-85819342D01*
X123443733Y-85866961D01*
X123538971Y-85914580D01*
X123729447Y-85914580D01*
X123824685Y-85866961D01*
X123872304Y-85819342D01*
X123919923Y-85724104D01*
X123919923Y-84914580D01*
X124348495Y-85009819D02*
X124396114Y-84962200D01*
X124491352Y-84914580D01*
X124729447Y-84914580D01*
X124824685Y-84962200D01*
X124872304Y-85009819D01*
X124919923Y-85105057D01*
X124919923Y-85200295D01*
X124872304Y-85343152D01*
X124300876Y-85914580D01*
X124919923Y-85914580D01*
X144797542Y-84615280D02*
X144464209Y-84139090D01*
X144226114Y-84615280D02*
X144226114Y-83615280D01*
X144607066Y-83615280D01*
X144702304Y-83662900D01*
X144749923Y-83710519D01*
X144797542Y-83805757D01*
X144797542Y-83948614D01*
X144749923Y-84043852D01*
X144702304Y-84091471D01*
X144607066Y-84139090D01*
X144226114Y-84139090D01*
X145178495Y-83710519D02*
X145226114Y-83662900D01*
X145321352Y-83615280D01*
X145559447Y-83615280D01*
X145654685Y-83662900D01*
X145702304Y-83710519D01*
X145749923Y-83805757D01*
X145749923Y-83900995D01*
X145702304Y-84043852D01*
X145130876Y-84615280D01*
X145749923Y-84615280D01*
X146130876Y-83710519D02*
X146178495Y-83662900D01*
X146273733Y-83615280D01*
X146511828Y-83615280D01*
X146607066Y-83662900D01*
X146654685Y-83710519D01*
X146702304Y-83805757D01*
X146702304Y-83900995D01*
X146654685Y-84043852D01*
X146083257Y-84615280D01*
X146702304Y-84615280D01*
X144861042Y-96731080D02*
X144527709Y-96254890D01*
X144289614Y-96731080D02*
X144289614Y-95731080D01*
X144670566Y-95731080D01*
X144765804Y-95778700D01*
X144813423Y-95826319D01*
X144861042Y-95921557D01*
X144861042Y-96064414D01*
X144813423Y-96159652D01*
X144765804Y-96207271D01*
X144670566Y-96254890D01*
X144289614Y-96254890D01*
X145241995Y-95826319D02*
X145289614Y-95778700D01*
X145384852Y-95731080D01*
X145622947Y-95731080D01*
X145718185Y-95778700D01*
X145765804Y-95826319D01*
X145813423Y-95921557D01*
X145813423Y-96016795D01*
X145765804Y-96159652D01*
X145194376Y-96731080D01*
X145813423Y-96731080D01*
X146146757Y-95731080D02*
X146765804Y-95731080D01*
X146432471Y-96112033D01*
X146575328Y-96112033D01*
X146670566Y-96159652D01*
X146718185Y-96207271D01*
X146765804Y-96302509D01*
X146765804Y-96540604D01*
X146718185Y-96635842D01*
X146670566Y-96683461D01*
X146575328Y-96731080D01*
X146289614Y-96731080D01*
X146194376Y-96683461D01*
X146146757Y-96635842D01*
X144886442Y-98001080D02*
X144553109Y-97524890D01*
X144315014Y-98001080D02*
X144315014Y-97001080D01*
X144695966Y-97001080D01*
X144791204Y-97048700D01*
X144838823Y-97096319D01*
X144886442Y-97191557D01*
X144886442Y-97334414D01*
X144838823Y-97429652D01*
X144791204Y-97477271D01*
X144695966Y-97524890D01*
X144315014Y-97524890D01*
X145267395Y-97096319D02*
X145315014Y-97048700D01*
X145410252Y-97001080D01*
X145648347Y-97001080D01*
X145743585Y-97048700D01*
X145791204Y-97096319D01*
X145838823Y-97191557D01*
X145838823Y-97286795D01*
X145791204Y-97429652D01*
X145219776Y-98001080D01*
X145838823Y-98001080D01*
X146695966Y-97334414D02*
X146695966Y-98001080D01*
X146457871Y-96953461D02*
X146219776Y-97667747D01*
X146838823Y-97667747D01*
X144962642Y-110243880D02*
X144629309Y-109767690D01*
X144391214Y-110243880D02*
X144391214Y-109243880D01*
X144772166Y-109243880D01*
X144867404Y-109291500D01*
X144915023Y-109339119D01*
X144962642Y-109434357D01*
X144962642Y-109577214D01*
X144915023Y-109672452D01*
X144867404Y-109720071D01*
X144772166Y-109767690D01*
X144391214Y-109767690D01*
X145343595Y-109339119D02*
X145391214Y-109291500D01*
X145486452Y-109243880D01*
X145724547Y-109243880D01*
X145819785Y-109291500D01*
X145867404Y-109339119D01*
X145915023Y-109434357D01*
X145915023Y-109529595D01*
X145867404Y-109672452D01*
X145295976Y-110243880D01*
X145915023Y-110243880D01*
X146819785Y-109243880D02*
X146343595Y-109243880D01*
X146295976Y-109720071D01*
X146343595Y-109672452D01*
X146438833Y-109624833D01*
X146676928Y-109624833D01*
X146772166Y-109672452D01*
X146819785Y-109720071D01*
X146867404Y-109815309D01*
X146867404Y-110053404D01*
X146819785Y-110148642D01*
X146772166Y-110196261D01*
X146676928Y-110243880D01*
X146438833Y-110243880D01*
X146343595Y-110196261D01*
X146295976Y-110148642D01*
X144962642Y-112123480D02*
X144629309Y-111647290D01*
X144391214Y-112123480D02*
X144391214Y-111123480D01*
X144772166Y-111123480D01*
X144867404Y-111171100D01*
X144915023Y-111218719D01*
X144962642Y-111313957D01*
X144962642Y-111456814D01*
X144915023Y-111552052D01*
X144867404Y-111599671D01*
X144772166Y-111647290D01*
X144391214Y-111647290D01*
X145343595Y-111218719D02*
X145391214Y-111171100D01*
X145486452Y-111123480D01*
X145724547Y-111123480D01*
X145819785Y-111171100D01*
X145867404Y-111218719D01*
X145915023Y-111313957D01*
X145915023Y-111409195D01*
X145867404Y-111552052D01*
X145295976Y-112123480D01*
X145915023Y-112123480D01*
X146772166Y-111123480D02*
X146581690Y-111123480D01*
X146486452Y-111171100D01*
X146438833Y-111218719D01*
X146343595Y-111361576D01*
X146295976Y-111552052D01*
X146295976Y-111933004D01*
X146343595Y-112028242D01*
X146391214Y-112075861D01*
X146486452Y-112123480D01*
X146676928Y-112123480D01*
X146772166Y-112075861D01*
X146819785Y-112028242D01*
X146867404Y-111933004D01*
X146867404Y-111694909D01*
X146819785Y-111599671D01*
X146772166Y-111552052D01*
X146676928Y-111504433D01*
X146486452Y-111504433D01*
X146391214Y-111552052D01*
X146343595Y-111599671D01*
X146295976Y-111694909D01*
X144911842Y-124391680D02*
X144578509Y-123915490D01*
X144340414Y-124391680D02*
X144340414Y-123391680D01*
X144721366Y-123391680D01*
X144816604Y-123439300D01*
X144864223Y-123486919D01*
X144911842Y-123582157D01*
X144911842Y-123725014D01*
X144864223Y-123820252D01*
X144816604Y-123867871D01*
X144721366Y-123915490D01*
X144340414Y-123915490D01*
X145292795Y-123486919D02*
X145340414Y-123439300D01*
X145435652Y-123391680D01*
X145673747Y-123391680D01*
X145768985Y-123439300D01*
X145816604Y-123486919D01*
X145864223Y-123582157D01*
X145864223Y-123677395D01*
X145816604Y-123820252D01*
X145245176Y-124391680D01*
X145864223Y-124391680D01*
X146197557Y-123391680D02*
X146864223Y-123391680D01*
X146435652Y-124391680D01*
X131752053Y-87126462D02*
X131704434Y-87174081D01*
X131561577Y-87221700D01*
X131466339Y-87221700D01*
X131323481Y-87174081D01*
X131228243Y-87078843D01*
X131180624Y-86983605D01*
X131133005Y-86793129D01*
X131133005Y-86650272D01*
X131180624Y-86459796D01*
X131228243Y-86364558D01*
X131323481Y-86269320D01*
X131466339Y-86221700D01*
X131561577Y-86221700D01*
X131704434Y-86269320D01*
X131752053Y-86316939D01*
X132704434Y-87221700D02*
X132133005Y-87221700D01*
X132418720Y-87221700D02*
X132418720Y-86221700D01*
X132323481Y-86364558D01*
X132228243Y-86459796D01*
X132133005Y-86507415D01*
X131924773Y-100475662D02*
X131877154Y-100523281D01*
X131734297Y-100570900D01*
X131639059Y-100570900D01*
X131496201Y-100523281D01*
X131400963Y-100428043D01*
X131353344Y-100332805D01*
X131305725Y-100142329D01*
X131305725Y-99999472D01*
X131353344Y-99808996D01*
X131400963Y-99713758D01*
X131496201Y-99618520D01*
X131639059Y-99570900D01*
X131734297Y-99570900D01*
X131877154Y-99618520D01*
X131924773Y-99666139D01*
X132258106Y-99570900D02*
X132877154Y-99570900D01*
X132543820Y-99951853D01*
X132686678Y-99951853D01*
X132781916Y-99999472D01*
X132829535Y-100047091D01*
X132877154Y-100142329D01*
X132877154Y-100380424D01*
X132829535Y-100475662D01*
X132781916Y-100523281D01*
X132686678Y-100570900D01*
X132400963Y-100570900D01*
X132305725Y-100523281D01*
X132258106Y-100475662D01*
X131760933Y-110250242D02*
X131713314Y-110297861D01*
X131570457Y-110345480D01*
X131475219Y-110345480D01*
X131332361Y-110297861D01*
X131237123Y-110202623D01*
X131189504Y-110107385D01*
X131141885Y-109916909D01*
X131141885Y-109774052D01*
X131189504Y-109583576D01*
X131237123Y-109488338D01*
X131332361Y-109393100D01*
X131475219Y-109345480D01*
X131570457Y-109345480D01*
X131713314Y-109393100D01*
X131760933Y-109440719D01*
X132618076Y-109678814D02*
X132618076Y-110345480D01*
X132379980Y-109297861D02*
X132141885Y-110012147D01*
X132760933Y-110012147D01*
X131813013Y-114501062D02*
X131765394Y-114548681D01*
X131622537Y-114596300D01*
X131527299Y-114596300D01*
X131384441Y-114548681D01*
X131289203Y-114453443D01*
X131241584Y-114358205D01*
X131193965Y-114167729D01*
X131193965Y-114024872D01*
X131241584Y-113834396D01*
X131289203Y-113739158D01*
X131384441Y-113643920D01*
X131527299Y-113596300D01*
X131622537Y-113596300D01*
X131765394Y-113643920D01*
X131813013Y-113691539D01*
X132717775Y-113596300D02*
X132241584Y-113596300D01*
X132193965Y-114072491D01*
X132241584Y-114024872D01*
X132336822Y-113977253D01*
X132574918Y-113977253D01*
X132670156Y-114024872D01*
X132717775Y-114072491D01*
X132765394Y-114167729D01*
X132765394Y-114405824D01*
X132717775Y-114501062D01*
X132670156Y-114548681D01*
X132574918Y-114596300D01*
X132336822Y-114596300D01*
X132241584Y-114548681D01*
X132193965Y-114501062D01*
X131786333Y-124296442D02*
X131738714Y-124344061D01*
X131595857Y-124391680D01*
X131500619Y-124391680D01*
X131357761Y-124344061D01*
X131262523Y-124248823D01*
X131214904Y-124153585D01*
X131167285Y-123963109D01*
X131167285Y-123820252D01*
X131214904Y-123629776D01*
X131262523Y-123534538D01*
X131357761Y-123439300D01*
X131500619Y-123391680D01*
X131595857Y-123391680D01*
X131738714Y-123439300D01*
X131786333Y-123486919D01*
X132643476Y-123391680D02*
X132453000Y-123391680D01*
X132357761Y-123439300D01*
X132310142Y-123486919D01*
X132214904Y-123629776D01*
X132167285Y-123820252D01*
X132167285Y-124201204D01*
X132214904Y-124296442D01*
X132262523Y-124344061D01*
X132357761Y-124391680D01*
X132548238Y-124391680D01*
X132643476Y-124344061D01*
X132691095Y-124296442D01*
X132738714Y-124201204D01*
X132738714Y-123963109D01*
X132691095Y-123867871D01*
X132643476Y-123820252D01*
X132548238Y-123772633D01*
X132357761Y-123772633D01*
X132262523Y-123820252D01*
X132214904Y-123867871D01*
X132167285Y-123963109D01*
X120902504Y-86875880D02*
X120902504Y-85875880D01*
X121473933Y-86875880D02*
X121045361Y-86304452D01*
X121473933Y-85875880D02*
X120902504Y-86447309D01*
X122426314Y-86875880D02*
X121854885Y-86875880D01*
X122140600Y-86875880D02*
X122140600Y-85875880D01*
X122045361Y-86018738D01*
X121950123Y-86113976D01*
X121854885Y-86161595D01*
X101188780Y-82221295D02*
X100188780Y-82221295D01*
X100188780Y-81983200D01*
X100236400Y-81840342D01*
X100331638Y-81745104D01*
X100426876Y-81697485D01*
X100617352Y-81649866D01*
X100760209Y-81649866D01*
X100950685Y-81697485D01*
X101045923Y-81745104D01*
X101141161Y-81840342D01*
X101188780Y-81983200D01*
X101188780Y-82221295D01*
X100188780Y-81316533D02*
X100188780Y-80649866D01*
X101188780Y-81078438D01*
X132888462Y-82698100D02*
X132555129Y-82221910D01*
X132317034Y-82698100D02*
X132317034Y-81698100D01*
X132697986Y-81698100D01*
X132793224Y-81745720D01*
X132840843Y-81793339D01*
X132888462Y-81888577D01*
X132888462Y-82031434D01*
X132840843Y-82126672D01*
X132793224Y-82174291D01*
X132697986Y-82221910D01*
X132317034Y-82221910D01*
X133269415Y-81793339D02*
X133317034Y-81745720D01*
X133412272Y-81698100D01*
X133650367Y-81698100D01*
X133745605Y-81745720D01*
X133793224Y-81793339D01*
X133840843Y-81888577D01*
X133840843Y-81983815D01*
X133793224Y-82126672D01*
X133221796Y-82698100D01*
X133840843Y-82698100D01*
X134459891Y-81698100D02*
X134555129Y-81698100D01*
X134650367Y-81745720D01*
X134697986Y-81793339D01*
X134745605Y-81888577D01*
X134793224Y-82079053D01*
X134793224Y-82317148D01*
X134745605Y-82507624D01*
X134697986Y-82602862D01*
X134650367Y-82650481D01*
X134555129Y-82698100D01*
X134459891Y-82698100D01*
X134364653Y-82650481D01*
X134317034Y-82602862D01*
X134269415Y-82507624D01*
X134221796Y-82317148D01*
X134221796Y-82079053D01*
X134269415Y-81888577D01*
X134317034Y-81793339D01*
X134364653Y-81745720D01*
X134459891Y-81698100D01*
X132766542Y-84535540D02*
X132433209Y-84059350D01*
X132195114Y-84535540D02*
X132195114Y-83535540D01*
X132576066Y-83535540D01*
X132671304Y-83583160D01*
X132718923Y-83630779D01*
X132766542Y-83726017D01*
X132766542Y-83868874D01*
X132718923Y-83964112D01*
X132671304Y-84011731D01*
X132576066Y-84059350D01*
X132195114Y-84059350D01*
X133147495Y-83630779D02*
X133195114Y-83583160D01*
X133290352Y-83535540D01*
X133528447Y-83535540D01*
X133623685Y-83583160D01*
X133671304Y-83630779D01*
X133718923Y-83726017D01*
X133718923Y-83821255D01*
X133671304Y-83964112D01*
X133099876Y-84535540D01*
X133718923Y-84535540D01*
X134671304Y-84535540D02*
X134099876Y-84535540D01*
X134385590Y-84535540D02*
X134385590Y-83535540D01*
X134290352Y-83678398D01*
X134195114Y-83773636D01*
X134099876Y-83821255D01*
X114740680Y-81706957D02*
X114264490Y-82040290D01*
X114740680Y-82278385D02*
X113740680Y-82278385D01*
X113740680Y-81897433D01*
X113788300Y-81802195D01*
X113835919Y-81754576D01*
X113931157Y-81706957D01*
X114074014Y-81706957D01*
X114169252Y-81754576D01*
X114216871Y-81802195D01*
X114264490Y-81897433D01*
X114264490Y-82278385D01*
X114740680Y-80754576D02*
X114740680Y-81326004D01*
X114740680Y-81040290D02*
X113740680Y-81040290D01*
X113883538Y-81135528D01*
X113978776Y-81230766D01*
X114026395Y-81326004D01*
X114740680Y-80278385D02*
X114740680Y-80087909D01*
X114693061Y-79992671D01*
X114645442Y-79945052D01*
X114502585Y-79849814D01*
X114312109Y-79802195D01*
X113931157Y-79802195D01*
X113835919Y-79849814D01*
X113788300Y-79897433D01*
X113740680Y-79992671D01*
X113740680Y-80183147D01*
X113788300Y-80278385D01*
X113835919Y-80326004D01*
X113931157Y-80373623D01*
X114169252Y-80373623D01*
X114264490Y-80326004D01*
X114312109Y-80278385D01*
X114359728Y-80183147D01*
X114359728Y-79992671D01*
X114312109Y-79897433D01*
X114264490Y-79849814D01*
X114169252Y-79802195D01*
X98042504Y-83027780D02*
X98042504Y-82027780D01*
X98423457Y-82027780D01*
X98518695Y-82075400D01*
X98566314Y-82123019D01*
X98613933Y-82218257D01*
X98613933Y-82361114D01*
X98566314Y-82456352D01*
X98518695Y-82503971D01*
X98423457Y-82551590D01*
X98042504Y-82551590D01*
X98994885Y-82123019D02*
X99042504Y-82075400D01*
X99137742Y-82027780D01*
X99375838Y-82027780D01*
X99471076Y-82075400D01*
X99518695Y-82123019D01*
X99566314Y-82218257D01*
X99566314Y-82313495D01*
X99518695Y-82456352D01*
X98947266Y-83027780D01*
X99566314Y-83027780D01*
X105000538Y-80144880D02*
X104667204Y-79668690D01*
X104429109Y-80144880D02*
X104429109Y-79144880D01*
X104810061Y-79144880D01*
X104905300Y-79192500D01*
X104952919Y-79240119D01*
X105000538Y-79335357D01*
X105000538Y-79478214D01*
X104952919Y-79573452D01*
X104905300Y-79621071D01*
X104810061Y-79668690D01*
X104429109Y-79668690D01*
X105429109Y-80144880D02*
X105429109Y-79144880D01*
X105810061Y-79144880D01*
X105905300Y-79192500D01*
X105952919Y-79240119D01*
X106000538Y-79335357D01*
X106000538Y-79478214D01*
X105952919Y-79573452D01*
X105905300Y-79621071D01*
X105810061Y-79668690D01*
X105429109Y-79668690D01*
X106429109Y-80144880D02*
X106429109Y-79144880D01*
X107429109Y-80144880D02*
X106857680Y-80144880D01*
X107143395Y-80144880D02*
X107143395Y-79144880D01*
X107048157Y-79287738D01*
X106952919Y-79382976D01*
X106857680Y-79430595D01*
M02*
