G04 This is an RS-274x file exported by *
G04 gerbv version 2.6A *
G04 More information is available about gerbv at *
G04 http://gerbv.geda-project.org/ *
G04 --End of header info--*
%MOIN*%
%FSLAX34Y34*%
%IPPOS*%
G04 --Define apertures--*
%ADD10C,0.0098*%
%ADD11C,0.0059*%
%ADD12C,0.0039*%
%ADD13C,0.0079*%
%ADD14C,0.0047*%
%ADD15C,0.0004*%
%ADD16C,0.0157*%
%ADD17C,0.0100*%
G04 --Start main section--*
G54D10*
G01X0049685Y-039449D02*
G01X0049685Y-039764D01*
G01X0049370Y-039449D02*
G01X0049685Y-039449D01*
G01X0050000Y-039764D02*
G01X0050000Y-039449D01*
G01X0049370Y-039764D02*
G01X0050000Y-039764D01*
G01X0049370Y-039449D02*
G01X0049370Y-039764D01*
G01X0049370Y-039449D02*
G01X0049370Y-039213D01*
G01X0049055Y-039449D02*
G01X0049370Y-039449D01*
G01X0049055Y-039134D02*
G01X0049055Y-039764D01*
G01X0050472Y-038898D02*
G01X0050472Y-040000D01*
G01X0050236Y-038898D02*
G01X0048819Y-038898D01*
G01X0050236Y-040000D02*
G01X0050236Y-038898D01*
G01X0048819Y-040000D02*
G01X0050236Y-040000D01*
G01X0048819Y-038898D02*
G01X0048819Y-040000D01*
G54D11*
G01X0051182Y-030180D02*
G01X0051187Y-030955D01*
G01X0056181Y-028960D02*
G01X0056181Y-030945D01*
G01X0051187Y-028955D02*
G01X0051187Y-029695D01*
G01X0046181Y-028955D02*
G01X0046181Y-030945D01*
G01X0051310Y-028840D02*
G01X0056040Y-028840D01*
G01X0041160Y-028825D02*
G01X0046145Y-028825D01*
G01X0058660Y-046300D02*
G01X0055140Y-046300D01*
G01X0058660Y-043520D02*
G01X0055140Y-043520D01*
G01X0058660Y-040700D02*
G01X0055140Y-040700D01*
G01X0058660Y-037880D02*
G01X0055140Y-037880D01*
G01X0058660Y-035080D02*
G01X0055140Y-035080D01*
G54D12*
G36*
G01X0062680Y-046860D02*
G01X0059380Y-046920D01*
G01X0059300Y-040920D01*
G01X0059340Y-040860D01*
G01X0062680Y-040860D01*
G01X0062680Y-046860D01*
G37*
G01X0062680Y-046860D02*
G01X0059380Y-046920D01*
G01X0059380Y-046920D02*
G01X0059300Y-040920D01*
G01X0059300Y-040920D02*
G01X0059340Y-040860D01*
G01X0059340Y-040860D02*
G01X0062680Y-040860D01*
G01X0062680Y-040860D02*
G01X0062680Y-046860D01*
G36*
G01X0062660Y-039400D02*
G01X0059320Y-039380D01*
G01X0059320Y-033200D01*
G01X0062700Y-033200D01*
G01X0062660Y-039400D01*
G37*
G01X0062660Y-039400D02*
G01X0059320Y-039380D01*
G01X0059320Y-039380D02*
G01X0059320Y-033200D01*
G01X0059320Y-033200D02*
G01X0062700Y-033200D01*
G01X0062700Y-033200D02*
G01X0062660Y-039400D01*
G54D11*
G01X0050971Y-029822D02*
G01X0050945Y-029809D01*
G01X0050945Y-029809D02*
G01X0050906Y-029809D01*
G01X0050906Y-029809D02*
G01X0050866Y-029822D01*
G01X0050866Y-029822D02*
G01X0050840Y-029848D01*
G01X0050840Y-029848D02*
G01X0050827Y-029875D01*
G01X0050827Y-029875D02*
G01X0050814Y-029927D01*
G01X0050814Y-029927D02*
G01X0050814Y-029967D01*
G01X0050814Y-029967D02*
G01X0050827Y-030019D01*
G01X0050827Y-030019D02*
G01X0050840Y-030045D01*
G01X0050840Y-030045D02*
G01X0050866Y-030072D01*
G01X0050866Y-030072D02*
G01X0050906Y-030085D01*
G01X0050906Y-030085D02*
G01X0050932Y-030085D01*
G01X0050932Y-030085D02*
G01X0050971Y-030072D01*
G01X0050971Y-030072D02*
G01X0050984Y-030058D01*
G01X0050984Y-030058D02*
G01X0050984Y-029967D01*
G01X0050984Y-029967D02*
G01X0050932Y-029967D01*
G01X0051102Y-030085D02*
G01X0051102Y-029809D01*
G01X0051102Y-029809D02*
G01X0051260Y-030085D01*
G01X0051260Y-030085D02*
G01X0051260Y-029809D01*
G01X0051391Y-030085D02*
G01X0051391Y-029809D01*
G01X0051391Y-029809D02*
G01X0051457Y-029809D01*
G01X0051457Y-029809D02*
G01X0051496Y-029822D01*
G01X0051496Y-029822D02*
G01X0051522Y-029848D01*
G01X0051522Y-029848D02*
G01X0051535Y-029875D01*
G01X0051535Y-029875D02*
G01X0051549Y-029927D01*
G01X0051549Y-029927D02*
G01X0051549Y-029967D01*
G01X0051549Y-029967D02*
G01X0051535Y-030019D01*
G01X0051535Y-030019D02*
G01X0051522Y-030045D01*
G01X0051522Y-030045D02*
G01X0051496Y-030072D01*
G01X0051496Y-030072D02*
G01X0051457Y-030085D01*
G01X0051457Y-030085D02*
G01X0051391Y-030085D01*
G54D12*
G36*
G01X0051080Y-029517D02*
G01X0050720Y-029757D01*
G01X0050300Y-029757D01*
G01X0050300Y-028957D01*
G01X0051080Y-028957D01*
G01X0051080Y-029517D01*
G37*
G01X0051080Y-029517D02*
G01X0050720Y-029757D01*
G01X0050720Y-029757D02*
G01X0050300Y-029757D01*
G01X0050300Y-029757D02*
G01X0050300Y-028957D01*
G01X0050300Y-028957D02*
G01X0051080Y-028957D01*
G01X0051080Y-028957D02*
G01X0051080Y-029517D01*
G54D11*
G01X0047335Y-029765D02*
G01X0047260Y-029765D01*
G01X0047260Y-029765D02*
G01X0047223Y-029783D01*
G01X0047223Y-029783D02*
G01X0047204Y-029802D01*
G01X0047204Y-029802D02*
G01X0047166Y-029858D01*
G01X0047166Y-029858D02*
G01X0047148Y-029933D01*
G01X0047148Y-029933D02*
G01X0047148Y-030083D01*
G01X0047148Y-030083D02*
G01X0047166Y-030121D01*
G01X0047166Y-030121D02*
G01X0047185Y-030140D01*
G01X0047185Y-030140D02*
G01X0047223Y-030158D01*
G01X0047223Y-030158D02*
G01X0047297Y-030158D01*
G01X0047297Y-030158D02*
G01X0047335Y-030140D01*
G01X0047335Y-030140D02*
G01X0047354Y-030121D01*
G01X0047354Y-030121D02*
G01X0047372Y-030083D01*
G01X0047372Y-030083D02*
G01X0047372Y-029990D01*
G01X0047372Y-029990D02*
G01X0047354Y-029952D01*
G01X0047354Y-029952D02*
G01X0047335Y-029933D01*
G01X0047335Y-029933D02*
G01X0047297Y-029915D01*
G01X0047297Y-029915D02*
G01X0047223Y-029915D01*
G01X0047223Y-029915D02*
G01X0047185Y-029933D01*
G01X0047185Y-029933D02*
G01X0047166Y-029952D01*
G01X0047166Y-029952D02*
G01X0047148Y-029990D01*
G54D12*
G36*
G01X0047080Y-030965D02*
G01X0046300Y-030965D01*
G01X0046300Y-030185D01*
G01X0047080Y-030185D01*
G01X0047080Y-030965D01*
G37*
G01X0047080Y-030965D02*
G01X0046300Y-030965D01*
G01X0046300Y-030965D02*
G01X0046300Y-030185D01*
G01X0046300Y-030185D02*
G01X0047080Y-030185D01*
G01X0047080Y-030185D02*
G01X0047080Y-030965D01*
G54D11*
G01X0049365Y-029784D02*
G01X0049178Y-029784D01*
G01X0049178Y-029784D02*
G01X0049159Y-029972D01*
G01X0049159Y-029972D02*
G01X0049178Y-029953D01*
G01X0049178Y-029953D02*
G01X0049215Y-029934D01*
G01X0049215Y-029934D02*
G01X0049309Y-029934D01*
G01X0049309Y-029934D02*
G01X0049347Y-029953D01*
G01X0049347Y-029953D02*
G01X0049365Y-029972D01*
G01X0049365Y-029972D02*
G01X0049384Y-030009D01*
G01X0049384Y-030009D02*
G01X0049384Y-030103D01*
G01X0049384Y-030103D02*
G01X0049365Y-030141D01*
G01X0049365Y-030141D02*
G01X0049347Y-030159D01*
G01X0049347Y-030159D02*
G01X0049309Y-030178D01*
G01X0049309Y-030178D02*
G01X0049215Y-030178D01*
G01X0049215Y-030178D02*
G01X0049178Y-030159D01*
G01X0049178Y-030159D02*
G01X0049159Y-030141D01*
G54D12*
G36*
G01X0049080Y-030965D02*
G01X0048300Y-030965D01*
G01X0048300Y-030185D01*
G01X0049080Y-030185D01*
G01X0049080Y-030965D01*
G37*
G01X0049080Y-030965D02*
G01X0048300Y-030965D01*
G01X0048300Y-030965D02*
G01X0048300Y-030185D01*
G01X0048300Y-030185D02*
G01X0049080Y-030185D01*
G01X0049080Y-030185D02*
G01X0049080Y-030965D01*
G54D11*
G01X0055292Y-029876D02*
G01X0055292Y-030139D01*
G01X0055198Y-029726D02*
G01X0055104Y-030007D01*
G01X0055104Y-030007D02*
G01X0055348Y-030007D01*
G54D12*
G36*
G01X0056080Y-030958D02*
G01X0055280Y-030958D01*
G01X0055280Y-030178D01*
G01X0056080Y-030178D01*
G01X0056080Y-030958D01*
G37*
G01X0056080Y-030958D02*
G01X0055280Y-030958D01*
G01X0055280Y-030958D02*
G01X0055280Y-030178D01*
G01X0055280Y-030178D02*
G01X0056080Y-030178D01*
G01X0056080Y-030178D02*
G01X0056080Y-030958D01*
G54D11*
G01X0057073Y-029765D02*
G01X0057317Y-029765D01*
G01X0057317Y-029765D02*
G01X0057186Y-029915D01*
G01X0057186Y-029915D02*
G01X0057242Y-029915D01*
G01X0057242Y-029915D02*
G01X0057280Y-029933D01*
G01X0057280Y-029933D02*
G01X0057298Y-029952D01*
G01X0057298Y-029952D02*
G01X0057317Y-029990D01*
G01X0057317Y-029990D02*
G01X0057317Y-030083D01*
G01X0057317Y-030083D02*
G01X0057298Y-030121D01*
G01X0057298Y-030121D02*
G01X0057280Y-030140D01*
G01X0057280Y-030140D02*
G01X0057242Y-030158D01*
G01X0057242Y-030158D02*
G01X0057130Y-030158D01*
G01X0057130Y-030158D02*
G01X0057092Y-030140D01*
G01X0057092Y-030140D02*
G01X0057073Y-030121D01*
G54D12*
G36*
G01X0057080Y-030958D02*
G01X0056280Y-030958D01*
G01X0056280Y-030178D01*
G01X0057080Y-030178D01*
G01X0057080Y-030958D01*
G37*
G01X0057080Y-030958D02*
G01X0056280Y-030958D01*
G01X0056280Y-030958D02*
G01X0056280Y-030178D01*
G01X0056280Y-030178D02*
G01X0057080Y-030178D01*
G01X0057080Y-030178D02*
G01X0057080Y-030958D01*
G54D11*
G01X0060084Y-029802D02*
G01X0060103Y-029783D01*
G01X0060103Y-029783D02*
G01X0060141Y-029765D01*
G01X0060141Y-029765D02*
G01X0060234Y-029765D01*
G01X0060234Y-029765D02*
G01X0060272Y-029783D01*
G01X0060272Y-029783D02*
G01X0060291Y-029802D01*
G01X0060291Y-029802D02*
G01X0060309Y-029840D01*
G01X0060309Y-029840D02*
G01X0060309Y-029877D01*
G01X0060309Y-029877D02*
G01X0060291Y-029933D01*
G01X0060291Y-029933D02*
G01X0060066Y-030158D01*
G01X0060066Y-030158D02*
G01X0060309Y-030158D01*
G54D12*
G36*
G01X0060059Y-030957D02*
G01X0059299Y-030957D01*
G01X0059299Y-030177D01*
G01X0060059Y-030177D01*
G01X0060059Y-030957D01*
G37*
G01X0060059Y-030957D02*
G01X0059299Y-030957D01*
G01X0059299Y-030957D02*
G01X0059299Y-030177D01*
G01X0059299Y-030177D02*
G01X0060059Y-030177D01*
G01X0060059Y-030177D02*
G01X0060059Y-030957D01*
G36*
G01X0049080Y-029757D02*
G01X0048280Y-029757D01*
G01X0048280Y-028937D01*
G01X0049080Y-028937D01*
G01X0049080Y-029757D01*
G37*
G01X0049080Y-029757D02*
G01X0048280Y-029757D01*
G01X0048280Y-029757D02*
G01X0048280Y-028937D01*
G01X0048280Y-028937D02*
G01X0049080Y-028937D01*
G01X0049080Y-028937D02*
G01X0049080Y-029757D01*
G54D11*
G01X0049372Y-029418D02*
G01X0049148Y-029418D01*
G01X0049260Y-029418D02*
G01X0049260Y-029024D01*
G01X0049260Y-029024D02*
G01X0049223Y-029081D01*
G01X0049223Y-029081D02*
G01X0049185Y-029118D01*
G01X0049185Y-029118D02*
G01X0049148Y-029137D01*
G01X0046430Y-034514D02*
G01X0046483Y-034514D01*
G01X0046483Y-034514D02*
G01X0046509Y-034528D01*
G01X0046509Y-034528D02*
G01X0046535Y-034554D01*
G01X0046535Y-034554D02*
G01X0046549Y-034606D01*
G01X0046549Y-034606D02*
G01X0046549Y-034698D01*
G01X0046549Y-034698D02*
G01X0046535Y-034751D01*
G01X0046535Y-034751D02*
G01X0046509Y-034777D01*
G01X0046509Y-034777D02*
G01X0046483Y-034790D01*
G01X0046483Y-034790D02*
G01X0046430Y-034790D01*
G01X0046430Y-034790D02*
G01X0046404Y-034777D01*
G01X0046404Y-034777D02*
G01X0046378Y-034751D01*
G01X0046378Y-034751D02*
G01X0046365Y-034698D01*
G01X0046365Y-034698D02*
G01X0046365Y-034606D01*
G01X0046365Y-034606D02*
G01X0046378Y-034554D01*
G01X0046378Y-034554D02*
G01X0046404Y-034528D01*
G01X0046404Y-034528D02*
G01X0046430Y-034514D01*
G01X0046627Y-034514D02*
G01X0046719Y-034790D01*
G01X0046719Y-034790D02*
G01X0046811Y-034514D01*
G01X0046903Y-034790D02*
G01X0046903Y-034514D01*
G01X0046903Y-034514D02*
G01X0047008Y-034514D01*
G01X0047008Y-034514D02*
G01X0047034Y-034528D01*
G01X0047034Y-034528D02*
G01X0047047Y-034541D01*
G01X0047047Y-034541D02*
G01X0047060Y-034567D01*
G01X0047060Y-034567D02*
G01X0047060Y-034606D01*
G01X0047060Y-034606D02*
G01X0047047Y-034633D01*
G01X0047047Y-034633D02*
G01X0047034Y-034646D01*
G01X0047034Y-034646D02*
G01X0047008Y-034659D01*
G01X0047008Y-034659D02*
G01X0046903Y-034659D01*
G01X0058788Y-034401D02*
G01X0058788Y-034101D01*
G01X0058938Y-034251D02*
G01X0058638Y-034251D01*
G01X0058544Y-033745D02*
G01X0058544Y-033820D01*
G01X0058544Y-033820D02*
G01X0058563Y-033857D01*
G01X0058563Y-033857D02*
G01X0058582Y-033876D01*
G01X0058582Y-033876D02*
G01X0058638Y-033914D01*
G01X0058638Y-033914D02*
G01X0058713Y-033932D01*
G01X0058713Y-033932D02*
G01X0058863Y-033932D01*
G01X0058863Y-033932D02*
G01X0058901Y-033914D01*
G01X0058901Y-033914D02*
G01X0058919Y-033895D01*
G01X0058919Y-033895D02*
G01X0058938Y-033857D01*
G01X0058938Y-033857D02*
G01X0058938Y-033783D01*
G01X0058938Y-033783D02*
G01X0058919Y-033745D01*
G01X0058919Y-033745D02*
G01X0058901Y-033726D01*
G01X0058901Y-033726D02*
G01X0058863Y-033708D01*
G01X0058863Y-033708D02*
G01X0058769Y-033708D01*
G01X0058769Y-033708D02*
G01X0058732Y-033726D01*
G01X0058732Y-033726D02*
G01X0058713Y-033745D01*
G01X0058713Y-033745D02*
G01X0058694Y-033783D01*
G01X0058694Y-033783D02*
G01X0058694Y-033857D01*
G01X0058694Y-033857D02*
G01X0058713Y-033895D01*
G01X0058713Y-033895D02*
G01X0058732Y-033914D01*
G01X0058732Y-033914D02*
G01X0058769Y-033932D01*
G01X0058788Y-033539D02*
G01X0058788Y-033239D01*
G01X0058788Y-037181D02*
G01X0058788Y-036881D01*
G01X0058938Y-037031D02*
G01X0058638Y-037031D01*
G01X0058544Y-036506D02*
G01X0058544Y-036694D01*
G01X0058544Y-036694D02*
G01X0058732Y-036712D01*
G01X0058732Y-036712D02*
G01X0058713Y-036694D01*
G01X0058713Y-036694D02*
G01X0058694Y-036656D01*
G01X0058694Y-036656D02*
G01X0058694Y-036563D01*
G01X0058694Y-036563D02*
G01X0058713Y-036525D01*
G01X0058713Y-036525D02*
G01X0058732Y-036506D01*
G01X0058732Y-036506D02*
G01X0058769Y-036488D01*
G01X0058769Y-036488D02*
G01X0058863Y-036488D01*
G01X0058863Y-036488D02*
G01X0058901Y-036506D01*
G01X0058901Y-036506D02*
G01X0058919Y-036525D01*
G01X0058919Y-036525D02*
G01X0058938Y-036563D01*
G01X0058938Y-036563D02*
G01X0058938Y-036656D01*
G01X0058938Y-036656D02*
G01X0058919Y-036694D01*
G01X0058919Y-036694D02*
G01X0058901Y-036712D01*
G01X0058788Y-036319D02*
G01X0058788Y-036019D01*
G01X0058788Y-042621D02*
G01X0058788Y-042321D01*
G01X0058938Y-042471D02*
G01X0058638Y-042471D01*
G01X0058544Y-042171D02*
G01X0058544Y-041928D01*
G01X0058544Y-041928D02*
G01X0058694Y-042059D01*
G01X0058694Y-042059D02*
G01X0058694Y-042003D01*
G01X0058694Y-042003D02*
G01X0058713Y-041965D01*
G01X0058713Y-041965D02*
G01X0058732Y-041946D01*
G01X0058732Y-041946D02*
G01X0058769Y-041928D01*
G01X0058769Y-041928D02*
G01X0058863Y-041928D01*
G01X0058863Y-041928D02*
G01X0058901Y-041946D01*
G01X0058901Y-041946D02*
G01X0058919Y-041965D01*
G01X0058919Y-041965D02*
G01X0058938Y-042003D01*
G01X0058938Y-042003D02*
G01X0058938Y-042115D01*
G01X0058938Y-042115D02*
G01X0058919Y-042152D01*
G01X0058919Y-042152D02*
G01X0058901Y-042171D01*
G01X0058788Y-041759D02*
G01X0058788Y-041459D01*
G01X0058788Y-045401D02*
G01X0058788Y-045101D01*
G01X0058938Y-045251D02*
G01X0058638Y-045251D01*
G01X0058582Y-044932D02*
G01X0058563Y-044914D01*
G01X0058563Y-044914D02*
G01X0058544Y-044876D01*
G01X0058544Y-044876D02*
G01X0058544Y-044783D01*
G01X0058544Y-044783D02*
G01X0058563Y-044745D01*
G01X0058563Y-044745D02*
G01X0058582Y-044726D01*
G01X0058582Y-044726D02*
G01X0058619Y-044708D01*
G01X0058619Y-044708D02*
G01X0058657Y-044708D01*
G01X0058657Y-044708D02*
G01X0058713Y-044726D01*
G01X0058713Y-044726D02*
G01X0058938Y-044951D01*
G01X0058938Y-044951D02*
G01X0058938Y-044708D01*
G01X0058788Y-044539D02*
G01X0058788Y-044239D01*
G01X0058808Y-048141D02*
G01X0058808Y-047841D01*
G01X0058958Y-047991D02*
G01X0058658Y-047991D01*
G01X0058958Y-047448D02*
G01X0058958Y-047672D01*
G01X0058958Y-047560D02*
G01X0058564Y-047560D01*
G01X0058564Y-047560D02*
G01X0058621Y-047597D01*
G01X0058621Y-047597D02*
G01X0058658Y-047635D01*
G01X0058658Y-047635D02*
G01X0058677Y-047672D01*
G01X0058808Y-047279D02*
G01X0058808Y-046979D01*
G54D13*
G01X0041648Y-050411D02*
G01X0041085Y-050411D01*
G01X0041517Y-049830D02*
G01X0041254Y-049830D01*
G01X0041123Y-049830D02*
G01X0041142Y-049849D01*
G01X0041142Y-049849D02*
G01X0041160Y-049830D01*
G01X0041160Y-049830D02*
G01X0041142Y-049811D01*
G01X0041142Y-049811D02*
G01X0041123Y-049830D01*
G01X0041123Y-049830D02*
G01X0041160Y-049830D01*
G01X0041498Y-049661D02*
G01X0041517Y-049624D01*
G01X0041517Y-049624D02*
G01X0041517Y-049549D01*
G01X0041517Y-049549D02*
G01X0041498Y-049511D01*
G01X0041498Y-049511D02*
G01X0041460Y-049492D01*
G01X0041460Y-049492D02*
G01X0041442Y-049492D01*
G01X0041442Y-049492D02*
G01X0041404Y-049511D01*
G01X0041404Y-049511D02*
G01X0041385Y-049549D01*
G01X0041385Y-049549D02*
G01X0041385Y-049605D01*
G01X0041385Y-049605D02*
G01X0041367Y-049642D01*
G01X0041367Y-049642D02*
G01X0041329Y-049661D01*
G01X0041329Y-049661D02*
G01X0041310Y-049661D01*
G01X0041310Y-049661D02*
G01X0041273Y-049642D01*
G01X0041273Y-049642D02*
G01X0041254Y-049605D01*
G01X0041254Y-049605D02*
G01X0041254Y-049549D01*
G01X0041254Y-049549D02*
G01X0041273Y-049511D01*
G01X0041517Y-049267D02*
G01X0041498Y-049305D01*
G01X0041498Y-049305D02*
G01X0041479Y-049324D01*
G01X0041479Y-049324D02*
G01X0041442Y-049342D01*
G01X0041442Y-049342D02*
G01X0041329Y-049342D01*
G01X0041329Y-049342D02*
G01X0041292Y-049324D01*
G01X0041292Y-049324D02*
G01X0041273Y-049305D01*
G01X0041273Y-049305D02*
G01X0041254Y-049267D01*
G01X0041254Y-049267D02*
G01X0041254Y-049211D01*
G01X0041254Y-049211D02*
G01X0041273Y-049174D01*
G01X0041273Y-049174D02*
G01X0041292Y-049155D01*
G01X0041292Y-049155D02*
G01X0041329Y-049136D01*
G01X0041329Y-049136D02*
G01X0041442Y-049136D01*
G01X0041442Y-049136D02*
G01X0041479Y-049155D01*
G01X0041479Y-049155D02*
G01X0041498Y-049174D01*
G01X0041498Y-049174D02*
G01X0041517Y-049211D01*
G01X0041517Y-049211D02*
G01X0041517Y-049267D01*
G01X0041517Y-048911D02*
G01X0041498Y-048949D01*
G01X0041498Y-048949D02*
G01X0041460Y-048967D01*
G01X0041460Y-048967D02*
G01X0041123Y-048967D01*
G01X0041517Y-048592D02*
G01X0041310Y-048592D01*
G01X0041310Y-048592D02*
G01X0041273Y-048611D01*
G01X0041273Y-048611D02*
G01X0041254Y-048649D01*
G01X0041254Y-048649D02*
G01X0041254Y-048724D01*
G01X0041254Y-048724D02*
G01X0041273Y-048761D01*
G01X0041498Y-048592D02*
G01X0041517Y-048630D01*
G01X0041517Y-048630D02*
G01X0041517Y-048724D01*
G01X0041517Y-048724D02*
G01X0041498Y-048761D01*
G01X0041498Y-048761D02*
G01X0041460Y-048780D01*
G01X0041460Y-048780D02*
G01X0041423Y-048780D01*
G01X0041423Y-048780D02*
G01X0041385Y-048761D01*
G01X0041385Y-048761D02*
G01X0041367Y-048724D01*
G01X0041367Y-048724D02*
G01X0041367Y-048630D01*
G01X0041367Y-048630D02*
G01X0041348Y-048592D01*
G01X0041254Y-048461D02*
G01X0041254Y-048311D01*
G01X0041123Y-048405D02*
G01X0041460Y-048405D01*
G01X0041460Y-048405D02*
G01X0041498Y-048386D01*
G01X0041498Y-048386D02*
G01X0041517Y-048349D01*
G01X0041517Y-048349D02*
G01X0041517Y-048311D01*
G01X0041498Y-048030D02*
G01X0041517Y-048067D01*
G01X0041517Y-048067D02*
G01X0041517Y-048142D01*
G01X0041517Y-048142D02*
G01X0041498Y-048180D01*
G01X0041498Y-048180D02*
G01X0041460Y-048199D01*
G01X0041460Y-048199D02*
G01X0041310Y-048199D01*
G01X0041310Y-048199D02*
G01X0041273Y-048180D01*
G01X0041273Y-048180D02*
G01X0041254Y-048142D01*
G01X0041254Y-048142D02*
G01X0041254Y-048067D01*
G01X0041254Y-048067D02*
G01X0041273Y-048030D01*
G01X0041273Y-048030D02*
G01X0041310Y-048011D01*
G01X0041310Y-048011D02*
G01X0041348Y-048011D01*
G01X0041348Y-048011D02*
G01X0041385Y-048199D01*
G01X0041517Y-047674D02*
G01X0041123Y-047674D01*
G01X0041498Y-047674D02*
G01X0041517Y-047711D01*
G01X0041517Y-047711D02*
G01X0041517Y-047786D01*
G01X0041517Y-047786D02*
G01X0041498Y-047824D01*
G01X0041498Y-047824D02*
G01X0041479Y-047843D01*
G01X0041479Y-047843D02*
G01X0041442Y-047861D01*
G01X0041442Y-047861D02*
G01X0041329Y-047861D01*
G01X0041329Y-047861D02*
G01X0041292Y-047843D01*
G01X0041292Y-047843D02*
G01X0041273Y-047824D01*
G01X0041273Y-047824D02*
G01X0041254Y-047786D01*
G01X0041254Y-047786D02*
G01X0041254Y-047711D01*
G01X0041254Y-047711D02*
G01X0041273Y-047674D01*
G01X0042238Y-050411D02*
G01X0041676Y-050411D01*
G01X0041957Y-049830D02*
G01X0041957Y-049530D01*
G01X0042107Y-049680D02*
G01X0041807Y-049680D01*
G01X0041957Y-049042D02*
G01X0041957Y-048742D01*
G01X0042107Y-048892D02*
G01X0041807Y-048892D01*
G01X0041957Y-048255D02*
G01X0041957Y-047955D01*
G01X0042107Y-048105D02*
G01X0041807Y-048105D01*
G01X0041714Y-047280D02*
G01X0041714Y-047468D01*
G01X0041714Y-047468D02*
G01X0041901Y-047486D01*
G01X0041901Y-047486D02*
G01X0041882Y-047468D01*
G01X0041882Y-047468D02*
G01X0041864Y-047430D01*
G01X0041864Y-047430D02*
G01X0041864Y-047336D01*
G01X0041864Y-047336D02*
G01X0041882Y-047299D01*
G01X0041882Y-047299D02*
G01X0041901Y-047280D01*
G01X0041901Y-047280D02*
G01X0041939Y-047261D01*
G01X0041939Y-047261D02*
G01X0042032Y-047261D01*
G01X0042032Y-047261D02*
G01X0042070Y-047280D01*
G01X0042070Y-047280D02*
G01X0042088Y-047299D01*
G01X0042088Y-047299D02*
G01X0042107Y-047336D01*
G01X0042107Y-047336D02*
G01X0042107Y-047430D01*
G01X0042107Y-047430D02*
G01X0042088Y-047468D01*
G01X0042088Y-047468D02*
G01X0042070Y-047486D01*
G01X0041714Y-047149D02*
G01X0042107Y-047018D01*
G01X0042107Y-047018D02*
G01X0041714Y-046886D01*
G01X0041957Y-046455D02*
G01X0041957Y-046155D01*
G01X0041957Y-045668D02*
G01X0041957Y-045368D01*
G01X0041957Y-044880D02*
G01X0041957Y-044580D01*
G01X0042238Y-043999D02*
G01X0041676Y-043999D01*
G01X0051169Y-049871D02*
G01X0051244Y-050133D01*
G01X0051244Y-050133D02*
G01X0051319Y-049946D01*
G01X0051319Y-049946D02*
G01X0051394Y-050133D01*
G01X0051394Y-050133D02*
G01X0051469Y-049871D01*
G01X0051582Y-049871D02*
G01X0051657Y-050133D01*
G01X0051657Y-050133D02*
G01X0051732Y-049946D01*
G01X0051732Y-049946D02*
G01X0051807Y-050133D01*
G01X0051807Y-050133D02*
G01X0051882Y-049871D01*
G01X0051994Y-049871D02*
G01X0052069Y-050133D01*
G01X0052069Y-050133D02*
G01X0052144Y-049946D01*
G01X0052144Y-049946D02*
G01X0052219Y-050133D01*
G01X0052219Y-050133D02*
G01X0052294Y-049871D01*
G01X0052444Y-050096D02*
G01X0052463Y-050114D01*
G01X0052463Y-050114D02*
G01X0052444Y-050133D01*
G01X0052444Y-050133D02*
G01X0052425Y-050114D01*
G01X0052425Y-050114D02*
G01X0052444Y-050096D01*
G01X0052444Y-050096D02*
G01X0052444Y-050133D01*
G01X0052631Y-049871D02*
G01X0052631Y-050133D01*
G01X0052631Y-049908D02*
G01X0052650Y-049889D01*
G01X0052650Y-049889D02*
G01X0052688Y-049871D01*
G01X0052688Y-049871D02*
G01X0052744Y-049871D01*
G01X0052744Y-049871D02*
G01X0052781Y-049889D01*
G01X0052781Y-049889D02*
G01X0052800Y-049927D01*
G01X0052800Y-049927D02*
G01X0052800Y-050133D01*
G01X0052950Y-049871D02*
G01X0053044Y-050133D01*
G01X0053138Y-049871D02*
G01X0053044Y-050133D01*
G01X0053044Y-050133D02*
G01X0053006Y-050227D01*
G01X0053006Y-050227D02*
G01X0052988Y-050246D01*
G01X0052988Y-050246D02*
G01X0052950Y-050264D01*
G01X0053456Y-050133D02*
G01X0053456Y-049927D01*
G01X0053456Y-049927D02*
G01X0053438Y-049889D01*
G01X0053438Y-049889D02*
G01X0053400Y-049871D01*
G01X0053400Y-049871D02*
G01X0053325Y-049871D01*
G01X0053325Y-049871D02*
G01X0053288Y-049889D01*
G01X0053456Y-050114D02*
G01X0053419Y-050133D01*
G01X0053419Y-050133D02*
G01X0053325Y-050133D01*
G01X0053325Y-050133D02*
G01X0053288Y-050114D01*
G01X0053288Y-050114D02*
G01X0053269Y-050077D01*
G01X0053269Y-050077D02*
G01X0053269Y-050039D01*
G01X0053269Y-050039D02*
G01X0053288Y-050002D01*
G01X0053288Y-050002D02*
G01X0053325Y-049983D01*
G01X0053325Y-049983D02*
G01X0053419Y-049983D01*
G01X0053419Y-049983D02*
G01X0053456Y-049964D01*
G01X0053644Y-049871D02*
G01X0053644Y-050133D01*
G01X0053644Y-049908D02*
G01X0053663Y-049889D01*
G01X0053663Y-049889D02*
G01X0053700Y-049871D01*
G01X0053700Y-049871D02*
G01X0053756Y-049871D01*
G01X0053756Y-049871D02*
G01X0053794Y-049889D01*
G01X0053794Y-049889D02*
G01X0053813Y-049927D01*
G01X0053813Y-049927D02*
G01X0053813Y-050133D01*
G01X0053944Y-049871D02*
G01X0054094Y-049871D01*
G01X0054000Y-049739D02*
G01X0054000Y-050077D01*
G01X0054000Y-050077D02*
G01X0054019Y-050114D01*
G01X0054019Y-050114D02*
G01X0054056Y-050133D01*
G01X0054056Y-050133D02*
G01X0054094Y-050133D01*
G01X0054225Y-050133D02*
G01X0054225Y-049871D01*
G01X0054225Y-049946D02*
G01X0054244Y-049908D01*
G01X0054244Y-049908D02*
G01X0054262Y-049889D01*
G01X0054262Y-049889D02*
G01X0054300Y-049871D01*
G01X0054300Y-049871D02*
G01X0054337Y-049871D01*
G01X0054525Y-050133D02*
G01X0054487Y-050114D01*
G01X0054487Y-050114D02*
G01X0054469Y-050096D01*
G01X0054469Y-050096D02*
G01X0054450Y-050058D01*
G01X0054450Y-050058D02*
G01X0054450Y-049946D01*
G01X0054450Y-049946D02*
G01X0054469Y-049908D01*
G01X0054469Y-049908D02*
G01X0054487Y-049889D01*
G01X0054487Y-049889D02*
G01X0054525Y-049871D01*
G01X0054525Y-049871D02*
G01X0054581Y-049871D01*
G01X0054581Y-049871D02*
G01X0054619Y-049889D01*
G01X0054619Y-049889D02*
G01X0054637Y-049908D01*
G01X0054637Y-049908D02*
G01X0054656Y-049946D01*
G01X0054656Y-049946D02*
G01X0054656Y-050058D01*
G01X0054656Y-050058D02*
G01X0054637Y-050096D01*
G01X0054637Y-050096D02*
G01X0054619Y-050114D01*
G01X0054619Y-050114D02*
G01X0054581Y-050133D01*
G01X0054581Y-050133D02*
G01X0054525Y-050133D01*
G01X0054825Y-049871D02*
G01X0054825Y-050133D01*
G01X0054825Y-049908D02*
G01X0054844Y-049889D01*
G01X0054844Y-049889D02*
G01X0054881Y-049871D01*
G01X0054881Y-049871D02*
G01X0054937Y-049871D01*
G01X0054937Y-049871D02*
G01X0054975Y-049889D01*
G01X0054975Y-049889D02*
G01X0054994Y-049927D01*
G01X0054994Y-049927D02*
G01X0054994Y-050133D01*
G01X0055181Y-050133D02*
G01X0055181Y-049871D01*
G01X0055181Y-049739D02*
G01X0055162Y-049758D01*
G01X0055162Y-049758D02*
G01X0055181Y-049777D01*
G01X0055181Y-049777D02*
G01X0055200Y-049758D01*
G01X0055200Y-049758D02*
G01X0055181Y-049739D01*
G01X0055181Y-049739D02*
G01X0055181Y-049777D01*
G01X0055537Y-050114D02*
G01X0055500Y-050133D01*
G01X0055500Y-050133D02*
G01X0055425Y-050133D01*
G01X0055425Y-050133D02*
G01X0055387Y-050114D01*
G01X0055387Y-050114D02*
G01X0055369Y-050096D01*
G01X0055369Y-050096D02*
G01X0055350Y-050058D01*
G01X0055350Y-050058D02*
G01X0055350Y-049946D01*
G01X0055350Y-049946D02*
G01X0055369Y-049908D01*
G01X0055369Y-049908D02*
G01X0055387Y-049889D01*
G01X0055387Y-049889D02*
G01X0055425Y-049871D01*
G01X0055425Y-049871D02*
G01X0055500Y-049871D01*
G01X0055500Y-049871D02*
G01X0055537Y-049889D01*
G01X0055687Y-050114D02*
G01X0055725Y-050133D01*
G01X0055725Y-050133D02*
G01X0055800Y-050133D01*
G01X0055800Y-050133D02*
G01X0055837Y-050114D01*
G01X0055837Y-050114D02*
G01X0055856Y-050077D01*
G01X0055856Y-050077D02*
G01X0055856Y-050058D01*
G01X0055856Y-050058D02*
G01X0055837Y-050021D01*
G01X0055837Y-050021D02*
G01X0055800Y-050002D01*
G01X0055800Y-050002D02*
G01X0055744Y-050002D01*
G01X0055744Y-050002D02*
G01X0055706Y-049983D01*
G01X0055706Y-049983D02*
G01X0055687Y-049946D01*
G01X0055687Y-049946D02*
G01X0055687Y-049927D01*
G01X0055687Y-049927D02*
G01X0055706Y-049889D01*
G01X0055706Y-049889D02*
G01X0055744Y-049871D01*
G01X0055744Y-049871D02*
G01X0055800Y-049871D01*
G01X0055800Y-049871D02*
G01X0055837Y-049889D01*
G01X0056025Y-050096D02*
G01X0056044Y-050114D01*
G01X0056044Y-050114D02*
G01X0056025Y-050133D01*
G01X0056025Y-050133D02*
G01X0056006Y-050114D01*
G01X0056006Y-050114D02*
G01X0056025Y-050096D01*
G01X0056025Y-050096D02*
G01X0056025Y-050133D01*
G01X0056381Y-050114D02*
G01X0056343Y-050133D01*
G01X0056343Y-050133D02*
G01X0056268Y-050133D01*
G01X0056268Y-050133D02*
G01X0056231Y-050114D01*
G01X0056231Y-050114D02*
G01X0056212Y-050096D01*
G01X0056212Y-050096D02*
G01X0056194Y-050058D01*
G01X0056194Y-050058D02*
G01X0056194Y-049946D01*
G01X0056194Y-049946D02*
G01X0056212Y-049908D01*
G01X0056212Y-049908D02*
G01X0056231Y-049889D01*
G01X0056231Y-049889D02*
G01X0056268Y-049871D01*
G01X0056268Y-049871D02*
G01X0056343Y-049871D01*
G01X0056343Y-049871D02*
G01X0056381Y-049889D01*
G01X0056606Y-050133D02*
G01X0056568Y-050114D01*
G01X0056568Y-050114D02*
G01X0056550Y-050096D01*
G01X0056550Y-050096D02*
G01X0056531Y-050058D01*
G01X0056531Y-050058D02*
G01X0056531Y-049946D01*
G01X0056531Y-049946D02*
G01X0056550Y-049908D01*
G01X0056550Y-049908D02*
G01X0056568Y-049889D01*
G01X0056568Y-049889D02*
G01X0056606Y-049871D01*
G01X0056606Y-049871D02*
G01X0056662Y-049871D01*
G01X0056662Y-049871D02*
G01X0056700Y-049889D01*
G01X0056700Y-049889D02*
G01X0056718Y-049908D01*
G01X0056718Y-049908D02*
G01X0056737Y-049946D01*
G01X0056737Y-049946D02*
G01X0056737Y-050058D01*
G01X0056737Y-050058D02*
G01X0056718Y-050096D01*
G01X0056718Y-050096D02*
G01X0056700Y-050114D01*
G01X0056700Y-050114D02*
G01X0056662Y-050133D01*
G01X0056662Y-050133D02*
G01X0056606Y-050133D01*
G01X0056906Y-050133D02*
G01X0056906Y-049871D01*
G01X0056906Y-049908D02*
G01X0056925Y-049889D01*
G01X0056925Y-049889D02*
G01X0056962Y-049871D01*
G01X0056962Y-049871D02*
G01X0057018Y-049871D01*
G01X0057018Y-049871D02*
G01X0057056Y-049889D01*
G01X0057056Y-049889D02*
G01X0057075Y-049927D01*
G01X0057075Y-049927D02*
G01X0057075Y-050133D01*
G01X0057075Y-049927D02*
G01X0057093Y-049889D01*
G01X0057093Y-049889D02*
G01X0057131Y-049871D01*
G01X0057131Y-049871D02*
G01X0057187Y-049871D01*
G01X0057187Y-049871D02*
G01X0057225Y-049889D01*
G01X0057225Y-049889D02*
G01X0057243Y-049927D01*
G01X0057243Y-049927D02*
G01X0057243Y-050133D01*
G01X0047711Y-034400D02*
G01X0047148Y-034400D01*
G01X0047373Y-034119D02*
G01X0047373Y-033988D01*
G01X0047580Y-033931D02*
G01X0047580Y-034119D01*
G01X0047580Y-034119D02*
G01X0047186Y-034119D01*
G01X0047186Y-034119D02*
G01X0047186Y-033931D01*
G01X0047373Y-033763D02*
G01X0047373Y-033631D01*
G01X0047580Y-033575D02*
G01X0047580Y-033763D01*
G01X0047580Y-033763D02*
G01X0047186Y-033763D01*
G01X0047186Y-033763D02*
G01X0047186Y-033575D01*
G01X0047580Y-033406D02*
G01X0047186Y-033406D01*
G01X0047186Y-033406D02*
G01X0047186Y-033256D01*
G01X0047186Y-033256D02*
G01X0047205Y-033219D01*
G01X0047205Y-033219D02*
G01X0047223Y-033200D01*
G01X0047223Y-033200D02*
G01X0047261Y-033181D01*
G01X0047261Y-033181D02*
G01X0047317Y-033181D01*
G01X0047317Y-033181D02*
G01X0047355Y-033200D01*
G01X0047355Y-033200D02*
G01X0047373Y-033219D01*
G01X0047373Y-033219D02*
G01X0047392Y-033256D01*
G01X0047392Y-033256D02*
G01X0047392Y-033406D01*
G01X0047580Y-032788D02*
G01X0047392Y-032919D01*
G01X0047580Y-033013D02*
G01X0047186Y-033013D01*
G01X0047186Y-033013D02*
G01X0047186Y-032863D01*
G01X0047186Y-032863D02*
G01X0047205Y-032825D01*
G01X0047205Y-032825D02*
G01X0047223Y-032807D01*
G01X0047223Y-032807D02*
G01X0047261Y-032788D01*
G01X0047261Y-032788D02*
G01X0047317Y-032788D01*
G01X0047317Y-032788D02*
G01X0047355Y-032807D01*
G01X0047355Y-032807D02*
G01X0047373Y-032825D01*
G01X0047373Y-032825D02*
G01X0047392Y-032863D01*
G01X0047392Y-032863D02*
G01X0047392Y-033013D01*
G01X0047186Y-032544D02*
G01X0047186Y-032469D01*
G01X0047186Y-032469D02*
G01X0047205Y-032432D01*
G01X0047205Y-032432D02*
G01X0047242Y-032394D01*
G01X0047242Y-032394D02*
G01X0047317Y-032375D01*
G01X0047317Y-032375D02*
G01X0047448Y-032375D01*
G01X0047448Y-032375D02*
G01X0047523Y-032394D01*
G01X0047523Y-032394D02*
G01X0047561Y-032432D01*
G01X0047561Y-032432D02*
G01X0047580Y-032469D01*
G01X0047580Y-032469D02*
G01X0047580Y-032544D01*
G01X0047580Y-032544D02*
G01X0047561Y-032582D01*
G01X0047561Y-032582D02*
G01X0047523Y-032619D01*
G01X0047523Y-032619D02*
G01X0047448Y-032638D01*
G01X0047448Y-032638D02*
G01X0047317Y-032638D01*
G01X0047317Y-032638D02*
G01X0047242Y-032619D01*
G01X0047242Y-032619D02*
G01X0047205Y-032582D01*
G01X0047205Y-032582D02*
G01X0047186Y-032544D01*
G01X0047580Y-032207D02*
G01X0047186Y-032207D01*
G01X0047186Y-032207D02*
G01X0047467Y-032075D01*
G01X0047467Y-032075D02*
G01X0047186Y-031944D01*
G01X0047186Y-031944D02*
G01X0047580Y-031944D01*
G01X0047711Y-031663D02*
G01X0047148Y-031663D01*
G01X0046254Y-039625D02*
G01X0045692Y-039625D01*
G01X0045729Y-038856D02*
G01X0045729Y-039044D01*
G01X0045729Y-039044D02*
G01X0045917Y-039063D01*
G01X0045917Y-039063D02*
G01X0045898Y-039044D01*
G01X0045898Y-039044D02*
G01X0045879Y-039006D01*
G01X0045879Y-039006D02*
G01X0045879Y-038913D01*
G01X0045879Y-038913D02*
G01X0045898Y-038875D01*
G01X0045898Y-038875D02*
G01X0045917Y-038856D01*
G01X0045917Y-038856D02*
G01X0045954Y-038838D01*
G01X0045954Y-038838D02*
G01X0046048Y-038838D01*
G01X0046048Y-038838D02*
G01X0046085Y-038856D01*
G01X0046085Y-038856D02*
G01X0046104Y-038875D01*
G01X0046104Y-038875D02*
G01X0046123Y-038913D01*
G01X0046123Y-038913D02*
G01X0046123Y-039006D01*
G01X0046123Y-039006D02*
G01X0046104Y-039044D01*
G01X0046104Y-039044D02*
G01X0046085Y-039063D01*
G01X0045729Y-038725D02*
G01X0046123Y-038594D01*
G01X0046123Y-038594D02*
G01X0045729Y-038463D01*
G01X0046123Y-038031D02*
G01X0045729Y-038031D01*
G01X0046123Y-037844D02*
G01X0045729Y-037844D01*
G01X0045729Y-037844D02*
G01X0046123Y-037619D01*
G01X0046123Y-037619D02*
G01X0045729Y-037619D01*
G01X0046254Y-037038D02*
G01X0045692Y-037038D01*
G01X0045748Y-036250D02*
G01X0045729Y-036288D01*
G01X0045729Y-036288D02*
G01X0045729Y-036344D01*
G01X0045729Y-036344D02*
G01X0045748Y-036400D01*
G01X0045748Y-036400D02*
G01X0045786Y-036438D01*
G01X0045786Y-036438D02*
G01X0045823Y-036457D01*
G01X0045823Y-036457D02*
G01X0045898Y-036475D01*
G01X0045898Y-036475D02*
G01X0045954Y-036475D01*
G01X0045954Y-036475D02*
G01X0046029Y-036457D01*
G01X0046029Y-036457D02*
G01X0046067Y-036438D01*
G01X0046067Y-036438D02*
G01X0046104Y-036400D01*
G01X0046104Y-036400D02*
G01X0046123Y-036344D01*
G01X0046123Y-036344D02*
G01X0046123Y-036307D01*
G01X0046123Y-036307D02*
G01X0046104Y-036250D01*
G01X0046104Y-036250D02*
G01X0046085Y-036232D01*
G01X0046085Y-036232D02*
G01X0045954Y-036232D01*
G01X0045954Y-036232D02*
G01X0045954Y-036307D01*
G01X0046123Y-036063D02*
G01X0045729Y-036063D01*
G01X0045729Y-036063D02*
G01X0046123Y-035838D01*
G01X0046123Y-035838D02*
G01X0045729Y-035838D01*
G01X0046123Y-035651D02*
G01X0045729Y-035651D01*
G01X0045729Y-035651D02*
G01X0045729Y-035557D01*
G01X0045729Y-035557D02*
G01X0045748Y-035501D01*
G01X0045748Y-035501D02*
G01X0045786Y-035463D01*
G01X0045786Y-035463D02*
G01X0045823Y-035444D01*
G01X0045823Y-035444D02*
G01X0045898Y-035426D01*
G01X0045898Y-035426D02*
G01X0045954Y-035426D01*
G01X0045954Y-035426D02*
G01X0046029Y-035444D01*
G01X0046029Y-035444D02*
G01X0046067Y-035463D01*
G01X0046067Y-035463D02*
G01X0046104Y-035501D01*
G01X0046104Y-035501D02*
G01X0046123Y-035557D01*
G01X0046123Y-035557D02*
G01X0046123Y-035651D01*
G01X0046254Y-034863D02*
G01X0045692Y-034863D01*
G54D11*
G01X0058788Y-039821D02*
G01X0058788Y-039521D01*
G01X0058938Y-039671D02*
G01X0058638Y-039671D01*
G01X0058676Y-039165D02*
G01X0058938Y-039165D01*
G01X0058526Y-039259D02*
G01X0058807Y-039352D01*
G01X0058807Y-039352D02*
G01X0058807Y-039109D01*
G01X0058788Y-038959D02*
G01X0058788Y-038659D01*
G54D13*
G01X0056034Y-031563D02*
G01X0056034Y-031169D01*
G01X0056034Y-031169D02*
G01X0056128Y-031169D01*
G01X0056128Y-031169D02*
G01X0056184Y-031188D01*
G01X0056184Y-031188D02*
G01X0056221Y-031226D01*
G01X0056221Y-031226D02*
G01X0056240Y-031263D01*
G01X0056240Y-031263D02*
G01X0056259Y-031338D01*
G01X0056259Y-031338D02*
G01X0056259Y-031394D01*
G01X0056259Y-031394D02*
G01X0056240Y-031469D01*
G01X0056240Y-031469D02*
G01X0056221Y-031507D01*
G01X0056221Y-031507D02*
G01X0056184Y-031544D01*
G01X0056184Y-031544D02*
G01X0056128Y-031563D01*
G01X0056128Y-031563D02*
G01X0056034Y-031563D01*
G01X0056578Y-031544D02*
G01X0056540Y-031563D01*
G01X0056540Y-031563D02*
G01X0056465Y-031563D01*
G01X0056465Y-031563D02*
G01X0056428Y-031544D01*
G01X0056428Y-031544D02*
G01X0056409Y-031507D01*
G01X0056409Y-031507D02*
G01X0056409Y-031357D01*
G01X0056409Y-031357D02*
G01X0056428Y-031319D01*
G01X0056428Y-031319D02*
G01X0056465Y-031301D01*
G01X0056465Y-031301D02*
G01X0056540Y-031301D01*
G01X0056540Y-031301D02*
G01X0056578Y-031319D01*
G01X0056578Y-031319D02*
G01X0056596Y-031357D01*
G01X0056596Y-031357D02*
G01X0056596Y-031394D01*
G01X0056596Y-031394D02*
G01X0056409Y-031432D01*
G01X0056765Y-031563D02*
G01X0056765Y-031169D01*
G01X0056765Y-031319D02*
G01X0056803Y-031301D01*
G01X0056803Y-031301D02*
G01X0056878Y-031301D01*
G01X0056878Y-031301D02*
G01X0056915Y-031319D01*
G01X0056915Y-031319D02*
G01X0056934Y-031338D01*
G01X0056934Y-031338D02*
G01X0056953Y-031376D01*
G01X0056953Y-031376D02*
G01X0056953Y-031488D01*
G01X0056953Y-031488D02*
G01X0056934Y-031526D01*
G01X0056934Y-031526D02*
G01X0056915Y-031544D01*
G01X0056915Y-031544D02*
G01X0056878Y-031563D01*
G01X0056878Y-031563D02*
G01X0056803Y-031563D01*
G01X0056803Y-031563D02*
G01X0056765Y-031544D01*
G01X0057178Y-031563D02*
G01X0057140Y-031544D01*
G01X0057140Y-031544D02*
G01X0057121Y-031526D01*
G01X0057121Y-031526D02*
G01X0057103Y-031488D01*
G01X0057103Y-031488D02*
G01X0057103Y-031376D01*
G01X0057103Y-031376D02*
G01X0057121Y-031338D01*
G01X0057121Y-031338D02*
G01X0057140Y-031319D01*
G01X0057140Y-031319D02*
G01X0057178Y-031301D01*
G01X0057178Y-031301D02*
G01X0057234Y-031301D01*
G01X0057234Y-031301D02*
G01X0057271Y-031319D01*
G01X0057271Y-031319D02*
G01X0057290Y-031338D01*
G01X0057290Y-031338D02*
G01X0057309Y-031376D01*
G01X0057309Y-031376D02*
G01X0057309Y-031488D01*
G01X0057309Y-031488D02*
G01X0057290Y-031526D01*
G01X0057290Y-031526D02*
G01X0057271Y-031544D01*
G01X0057271Y-031544D02*
G01X0057234Y-031563D01*
G01X0057234Y-031563D02*
G01X0057178Y-031563D01*
G01X0057646Y-031301D02*
G01X0057646Y-031563D01*
G01X0057478Y-031301D02*
G01X0057478Y-031507D01*
G01X0057478Y-031507D02*
G01X0057496Y-031544D01*
G01X0057496Y-031544D02*
G01X0057534Y-031563D01*
G01X0057534Y-031563D02*
G01X0057590Y-031563D01*
G01X0057590Y-031563D02*
G01X0057627Y-031544D01*
G01X0057627Y-031544D02*
G01X0057646Y-031526D01*
G01X0057834Y-031301D02*
G01X0057834Y-031563D01*
G01X0057834Y-031338D02*
G01X0057852Y-031319D01*
G01X0057852Y-031319D02*
G01X0057890Y-031301D01*
G01X0057890Y-031301D02*
G01X0057946Y-031301D01*
G01X0057946Y-031301D02*
G01X0057984Y-031319D01*
G01X0057984Y-031319D02*
G01X0058002Y-031357D01*
G01X0058002Y-031357D02*
G01X0058002Y-031563D01*
G01X0058359Y-031544D02*
G01X0058321Y-031563D01*
G01X0058321Y-031563D02*
G01X0058246Y-031563D01*
G01X0058246Y-031563D02*
G01X0058209Y-031544D01*
G01X0058209Y-031544D02*
G01X0058190Y-031526D01*
G01X0058190Y-031526D02*
G01X0058171Y-031488D01*
G01X0058171Y-031488D02*
G01X0058171Y-031376D01*
G01X0058171Y-031376D02*
G01X0058190Y-031338D01*
G01X0058190Y-031338D02*
G01X0058209Y-031319D01*
G01X0058209Y-031319D02*
G01X0058246Y-031301D01*
G01X0058246Y-031301D02*
G01X0058321Y-031301D01*
G01X0058321Y-031301D02*
G01X0058359Y-031319D01*
G01X0058677Y-031544D02*
G01X0058640Y-031563D01*
G01X0058640Y-031563D02*
G01X0058565Y-031563D01*
G01X0058565Y-031563D02*
G01X0058527Y-031544D01*
G01X0058527Y-031544D02*
G01X0058509Y-031507D01*
G01X0058509Y-031507D02*
G01X0058509Y-031357D01*
G01X0058509Y-031357D02*
G01X0058527Y-031319D01*
G01X0058527Y-031319D02*
G01X0058565Y-031301D01*
G01X0058565Y-031301D02*
G01X0058640Y-031301D01*
G01X0058640Y-031301D02*
G01X0058677Y-031319D01*
G01X0058677Y-031319D02*
G01X0058696Y-031357D01*
G01X0058696Y-031357D02*
G01X0058696Y-031394D01*
G01X0058696Y-031394D02*
G01X0058509Y-031432D01*
G01X0059165Y-031563D02*
G01X0059165Y-031169D01*
G01X0059165Y-031357D02*
G01X0059390Y-031357D01*
G01X0059390Y-031563D02*
G01X0059390Y-031169D01*
G01X0059558Y-031451D02*
G01X0059746Y-031451D01*
G01X0059521Y-031563D02*
G01X0059652Y-031169D01*
G01X0059652Y-031169D02*
G01X0059783Y-031563D01*
G01X0059858Y-031169D02*
G01X0060083Y-031169D01*
G01X0059971Y-031563D02*
G01X0059971Y-031169D01*
G01X0060477Y-031301D02*
G01X0060571Y-031563D01*
G01X0060571Y-031563D02*
G01X0060665Y-031301D01*
G01X0061021Y-031563D02*
G01X0060796Y-031563D01*
G01X0060908Y-031563D02*
G01X0060908Y-031169D01*
G01X0060908Y-031169D02*
G01X0060871Y-031226D01*
G01X0060871Y-031226D02*
G01X0060833Y-031263D01*
G01X0060833Y-031263D02*
G01X0060796Y-031282D01*
G01X0061190Y-031526D02*
G01X0061208Y-031544D01*
G01X0061208Y-031544D02*
G01X0061190Y-031563D01*
G01X0061190Y-031563D02*
G01X0061171Y-031544D01*
G01X0061171Y-031544D02*
G01X0061190Y-031526D01*
G01X0061190Y-031526D02*
G01X0061190Y-031563D01*
G01X0061340Y-031169D02*
G01X0061583Y-031169D01*
G01X0061583Y-031169D02*
G01X0061452Y-031319D01*
G01X0061452Y-031319D02*
G01X0061508Y-031319D01*
G01X0061508Y-031319D02*
G01X0061546Y-031338D01*
G01X0061546Y-031338D02*
G01X0061564Y-031357D01*
G01X0061564Y-031357D02*
G01X0061583Y-031394D01*
G01X0061583Y-031394D02*
G01X0061583Y-031488D01*
G01X0061583Y-031488D02*
G01X0061564Y-031526D01*
G01X0061564Y-031526D02*
G01X0061546Y-031544D01*
G01X0061546Y-031544D02*
G01X0061508Y-031563D01*
G01X0061508Y-031563D02*
G01X0061396Y-031563D01*
G01X0061396Y-031563D02*
G01X0061358Y-031544D01*
G01X0061358Y-031544D02*
G01X0061340Y-031526D01*
G54D11*
G01X0049873Y-031206D02*
G01X0049873Y-031226D01*
G01X0051507Y-031206D02*
G01X0051507Y-031263D01*
G01X0051507Y-033234D02*
G01X0051507Y-033177D01*
G01X0049873Y-033234D02*
G01X0049873Y-033177D01*
G01X0049873Y-031206D02*
G01X0051507Y-031206D01*
G01X0049873Y-033234D02*
G01X0051507Y-033234D01*
G01X0049873Y-031226D02*
G01X0049322Y-031226D01*
G54D14*
G01X0056113Y-047909D02*
G01X0056113Y-047435D01*
G01X0056830Y-047909D02*
G01X0056830Y-047435D01*
G01X0056815Y-045158D02*
G01X0056815Y-044684D01*
G01X0056098Y-045158D02*
G01X0056098Y-044684D01*
G01X0056113Y-042323D02*
G01X0056113Y-041849D01*
G01X0056830Y-042323D02*
G01X0056830Y-041849D01*
G01X0056830Y-039551D02*
G01X0056830Y-039077D01*
G01X0056113Y-039551D02*
G01X0056113Y-039077D01*
G01X0056113Y-036723D02*
G01X0056113Y-036249D01*
G01X0056830Y-036723D02*
G01X0056830Y-036249D01*
G01X0056830Y-033951D02*
G01X0056830Y-033477D01*
G01X0056113Y-033951D02*
G01X0056113Y-033477D01*
G01X0039236Y-047184D02*
G01X0039236Y-046127D01*
G01X0038480Y-047184D02*
G01X0039236Y-047184D01*
G01X0038480Y-046127D02*
G01X0038480Y-047184D01*
G01X0051444Y-034699D02*
G01X0051316Y-034699D01*
G01X0051444Y-035101D02*
G01X0051316Y-035101D01*
G01X0051413Y-039258D02*
G01X0051284Y-039258D01*
G01X0051413Y-039660D02*
G01X0051284Y-039660D01*
G01X0051413Y-043373D02*
G01X0051284Y-043373D01*
G01X0051413Y-043775D02*
G01X0051284Y-043775D01*
G01X0051634Y-046098D02*
G01X0051506Y-046098D01*
G01X0051634Y-046500D02*
G01X0051506Y-046500D01*
G01X0052854Y-031249D02*
G01X0052726Y-031249D01*
G01X0052854Y-031651D02*
G01X0052726Y-031651D01*
G01X0050099Y-038076D02*
G01X0050099Y-038204D01*
G01X0050501Y-038076D02*
G01X0050501Y-038204D01*
G01X0048564Y-031249D02*
G01X0048436Y-031249D01*
G01X0048564Y-031651D02*
G01X0048436Y-031651D01*
G01X0052716Y-032406D02*
G01X0052845Y-032406D01*
G01X0052716Y-032004D02*
G01X0052845Y-032004D01*
G01X0050956Y-033841D02*
G01X0051084Y-033841D01*
G01X0050956Y-033439D02*
G01X0051084Y-033439D01*
G54D15*
G36*
G01X0049847Y-045433D02*
G01X0049850Y-045373D01*
G01X0049859Y-045333D01*
G01X0049877Y-045310D01*
G01X0049905Y-045299D01*
G01X0049948Y-045297D01*
G01X0049996Y-045298D01*
G01X0050054Y-045301D01*
G01X0050089Y-045305D01*
G01X0050110Y-045314D01*
G01X0050123Y-045329D01*
G01X0050128Y-045338D01*
G01X0050137Y-045371D01*
G01X0050143Y-045425D01*
G01X0050146Y-045491D01*
G01X0050146Y-045561D01*
G01X0050142Y-045626D01*
G01X0050136Y-045679D01*
G01X0050128Y-045709D01*
G01X0050116Y-045728D01*
G01X0050099Y-045739D01*
G01X0050069Y-045745D01*
G01X0050020Y-045749D01*
G01X0050003Y-045749D01*
G01X0049946Y-045750D01*
G01X0049904Y-045745D01*
G01X0049876Y-045731D01*
G01X0049859Y-045702D01*
G01X0049850Y-045656D01*
G01X0049847Y-045588D01*
G01X0049846Y-045518D01*
G01X0049847Y-045433D01*
G01X0049847Y-045433D01*
G37*
G01X0049847Y-045433D02*
G01X0049850Y-045373D01*
G01X0049850Y-045373D02*
G01X0049859Y-045333D01*
G01X0049859Y-045333D02*
G01X0049877Y-045310D01*
G01X0049877Y-045310D02*
G01X0049905Y-045299D01*
G01X0049905Y-045299D02*
G01X0049948Y-045297D01*
G01X0049948Y-045297D02*
G01X0049996Y-045298D01*
G01X0049996Y-045298D02*
G01X0050054Y-045301D01*
G01X0050054Y-045301D02*
G01X0050089Y-045305D01*
G01X0050089Y-045305D02*
G01X0050110Y-045314D01*
G01X0050110Y-045314D02*
G01X0050123Y-045329D01*
G01X0050123Y-045329D02*
G01X0050128Y-045338D01*
G01X0050128Y-045338D02*
G01X0050137Y-045371D01*
G01X0050137Y-045371D02*
G01X0050143Y-045425D01*
G01X0050143Y-045425D02*
G01X0050146Y-045491D01*
G01X0050146Y-045491D02*
G01X0050146Y-045561D01*
G01X0050146Y-045561D02*
G01X0050142Y-045626D01*
G01X0050142Y-045626D02*
G01X0050136Y-045679D01*
G01X0050136Y-045679D02*
G01X0050128Y-045709D01*
G01X0050128Y-045709D02*
G01X0050116Y-045728D01*
G01X0050116Y-045728D02*
G01X0050099Y-045739D01*
G01X0050099Y-045739D02*
G01X0050069Y-045745D01*
G01X0050069Y-045745D02*
G01X0050020Y-045749D01*
G01X0050020Y-045749D02*
G01X0050003Y-045749D01*
G01X0050003Y-045749D02*
G01X0049946Y-045750D01*
G01X0049946Y-045750D02*
G01X0049904Y-045745D01*
G01X0049904Y-045745D02*
G01X0049876Y-045731D01*
G01X0049876Y-045731D02*
G01X0049859Y-045702D01*
G01X0049859Y-045702D02*
G01X0049850Y-045656D01*
G01X0049850Y-045656D02*
G01X0049847Y-045588D01*
G01X0049847Y-045588D02*
G01X0049846Y-045518D01*
G01X0049846Y-045518D02*
G01X0049847Y-045433D01*
G36*
G01X0049982Y-047686D02*
G01X0049999Y-047637D01*
G01X0050005Y-047629D01*
G01X0050033Y-047614D01*
G01X0050067Y-047612D01*
G01X0050099Y-047620D01*
G01X0050118Y-047643D01*
G01X0050127Y-047666D01*
G01X0050141Y-047722D01*
G01X0050150Y-047780D01*
G01X0050153Y-047830D01*
G01X0050151Y-047855D01*
G01X0050133Y-047881D01*
G01X0050103Y-047888D01*
G01X0050067Y-047876D01*
G01X0050031Y-047850D01*
G01X0050001Y-047809D01*
G01X0049997Y-047801D01*
G01X0049981Y-047744D01*
G01X0049982Y-047686D01*
G01X0049982Y-047686D01*
G37*
G01X0049982Y-047686D02*
G01X0049999Y-047637D01*
G01X0049999Y-047637D02*
G01X0050005Y-047629D01*
G01X0050005Y-047629D02*
G01X0050033Y-047614D01*
G01X0050033Y-047614D02*
G01X0050067Y-047612D01*
G01X0050067Y-047612D02*
G01X0050099Y-047620D01*
G01X0050099Y-047620D02*
G01X0050118Y-047643D01*
G01X0050118Y-047643D02*
G01X0050127Y-047666D01*
G01X0050127Y-047666D02*
G01X0050141Y-047722D01*
G01X0050141Y-047722D02*
G01X0050150Y-047780D01*
G01X0050150Y-047780D02*
G01X0050153Y-047830D01*
G01X0050153Y-047830D02*
G01X0050151Y-047855D01*
G01X0050151Y-047855D02*
G01X0050133Y-047881D01*
G01X0050133Y-047881D02*
G01X0050103Y-047888D01*
G01X0050103Y-047888D02*
G01X0050067Y-047876D01*
G01X0050067Y-047876D02*
G01X0050031Y-047850D01*
G01X0050031Y-047850D02*
G01X0050001Y-047809D01*
G01X0050001Y-047809D02*
G01X0049997Y-047801D01*
G01X0049997Y-047801D02*
G01X0049981Y-047744D01*
G01X0049981Y-047744D02*
G01X0049982Y-047686D01*
G36*
G01X0049261Y-045863D02*
G01X0049262Y-045689D01*
G01X0049264Y-045522D01*
G01X0049267Y-045369D01*
G01X0049270Y-045234D01*
G01X0049274Y-045121D01*
G01X0049275Y-045094D01*
G01X0049296Y-044724D01*
G01X0049323Y-044372D01*
G01X0049355Y-044040D01*
G01X0049392Y-043728D01*
G01X0049434Y-043438D01*
G01X0049480Y-043170D01*
G01X0049531Y-042925D01*
G01X0049586Y-042705D01*
G01X0049645Y-042510D01*
G01X0049709Y-042341D01*
G01X0049776Y-042200D01*
G01X0049776Y-042200D01*
G01X0049805Y-042142D01*
G01X0049818Y-042106D01*
G01X0049815Y-042091D01*
G01X0049814Y-042091D01*
G01X0049808Y-042079D01*
G01X0049821Y-042057D01*
G01X0049848Y-042032D01*
G01X0049882Y-042009D01*
G01X0049919Y-041993D01*
G01X0049920Y-041993D01*
G01X0049984Y-041988D01*
G01X0050048Y-042011D01*
G01X0050111Y-042062D01*
G01X0050172Y-042142D01*
G01X0050233Y-042249D01*
G01X0050238Y-042259D01*
G01X0050305Y-042417D01*
G01X0050369Y-042603D01*
G01X0050428Y-042816D01*
G01X0050482Y-043055D01*
G01X0050532Y-043319D01*
G01X0050577Y-043609D01*
G01X0050617Y-043923D01*
G01X0050652Y-044260D01*
G01X0050682Y-044621D01*
G01X0050704Y-044952D01*
G01X0050708Y-045046D01*
G01X0050712Y-045163D01*
G01X0050716Y-045301D01*
G01X0050719Y-045454D01*
G01X0050721Y-045617D01*
G01X0050723Y-045788D01*
G01X0050724Y-045960D01*
G01X0050725Y-046130D01*
G01X0050725Y-046294D01*
G01X0050724Y-046446D01*
G01X0050723Y-046583D01*
G01X0050720Y-046700D01*
G01X0050718Y-046781D01*
G01X0050701Y-047126D01*
G01X0050679Y-047458D01*
G01X0050652Y-047775D01*
G01X0050621Y-048077D01*
G01X0050586Y-048361D01*
G01X0050547Y-048628D01*
G01X0050504Y-048875D01*
G01X0050457Y-049102D01*
G01X0050407Y-049308D01*
G01X0050354Y-049491D01*
G01X0050297Y-049651D01*
G01X0050239Y-049786D01*
G01X0050177Y-049895D01*
G01X0050114Y-049977D01*
G01X0050096Y-049994D01*
G01X0050050Y-050032D01*
G01X0050015Y-050050D01*
G01X0049994Y-050048D01*
G01X0049989Y-050034D01*
G01X0049983Y-050026D01*
G01X0049983Y-049078D01*
G01X0049986Y-049078D01*
G01X0050153Y-049074D01*
G01X0050153Y-049024D01*
G01X0050151Y-048990D01*
G01X0050140Y-048978D01*
G01X0050118Y-048978D01*
G01X0050061Y-048976D01*
G01X0049993Y-048961D01*
G01X0049927Y-048937D01*
G01X0049885Y-048915D01*
G01X0049831Y-048866D01*
G01X0049803Y-048809D01*
G01X0049802Y-048746D01*
G01X0049805Y-048734D01*
G01X0049829Y-048683D01*
G01X0049872Y-048641D01*
G01X0049938Y-048604D01*
G01X0050022Y-048574D01*
G01X0050106Y-048547D01*
G01X0050166Y-048526D01*
G01X0050206Y-048508D01*
G01X0050230Y-048490D01*
G01X0050242Y-048472D01*
G01X0050246Y-048449D01*
G01X0050246Y-048441D01*
G01X0050245Y-048408D01*
G01X0050234Y-048396D01*
G01X0050206Y-048398D01*
G01X0050200Y-048399D01*
G01X0050143Y-048413D01*
G01X0050072Y-048437D01*
G01X0049994Y-048467D01*
G01X0049920Y-048499D01*
G01X0049859Y-048530D01*
G01X0049839Y-048542D01*
G01X0049826Y-048552D01*
G01X0049826Y-048391D01*
G01X0049865Y-048385D01*
G01X0049922Y-048359D01*
G01X0049959Y-048339D01*
G01X0050040Y-048285D01*
G01X0050099Y-048230D01*
G01X0050140Y-048173D01*
G01X0050153Y-048157D01*
G01X0050171Y-048155D01*
G01X0050204Y-048167D01*
G01X0050204Y-048167D01*
G01X0050257Y-048196D01*
G01X0050307Y-048237D01*
G01X0050347Y-048282D01*
G01X0050368Y-048323D01*
G01X0050368Y-048324D01*
G01X0050381Y-048356D01*
G01X0050405Y-048366D01*
G01X0050412Y-048366D01*
G01X0050435Y-048363D01*
G01X0050445Y-048345D01*
G01X0050446Y-048316D01*
G01X0050440Y-048265D01*
G01X0050427Y-048219D01*
G01X0050392Y-048166D01*
G01X0050337Y-048115D01*
G01X0050269Y-048073D01*
G01X0050253Y-048066D01*
G01X0050206Y-048052D01*
G01X0050138Y-048039D01*
G01X0050090Y-048033D01*
G01X0050090Y-047988D01*
G01X0050132Y-047981D01*
G01X0050195Y-047958D01*
G01X0050235Y-047924D01*
G01X0050251Y-047895D01*
G01X0050255Y-047860D01*
G01X0050250Y-047805D01*
G01X0050238Y-047737D01*
G01X0050218Y-047663D01*
G01X0050217Y-047660D01*
G01X0050189Y-047582D01*
G01X0050160Y-047526D01*
G01X0050132Y-047493D01*
G01X0050107Y-047487D01*
G01X0050107Y-047487D01*
G01X0050081Y-047492D01*
G01X0050036Y-047500D01*
G01X0050018Y-047503D01*
G01X0050018Y-047421D01*
G01X0050153Y-047416D01*
G01X0050158Y-047363D01*
G01X0050162Y-047309D01*
G01X0050079Y-047309D01*
G01X0049982Y-047296D01*
G01X0049898Y-047260D01*
G01X0049844Y-047217D01*
G01X0049809Y-047169D01*
G01X0049799Y-047117D01*
G01X0049806Y-047075D01*
G01X0049826Y-047027D01*
G01X0049861Y-046988D01*
G01X0049915Y-046954D01*
G01X0049992Y-046922D01*
G01X0050039Y-046907D01*
G01X0050120Y-046881D01*
G01X0050177Y-046860D01*
G01X0050214Y-046841D01*
G01X0050235Y-046822D01*
G01X0050245Y-046800D01*
G01X0050246Y-046781D01*
G01X0050242Y-046749D01*
G01X0050234Y-046732D01*
G01X0050214Y-046732D01*
G01X0050174Y-046742D01*
G01X0050120Y-046759D01*
G01X0050058Y-046781D01*
G01X0049994Y-046805D01*
G01X0049935Y-046831D01*
G01X0049896Y-046849D01*
G01X0049842Y-046880D01*
G01X0049791Y-046917D01*
G01X0049762Y-046944D01*
G01X0049732Y-046978D01*
G01X0049716Y-047011D01*
G01X0049708Y-047056D01*
G01X0049706Y-047081D01*
G01X0049708Y-047164D01*
G01X0049727Y-047228D01*
G01X0049766Y-047277D01*
G01X0049772Y-047281D01*
G01X0049795Y-047301D01*
G01X0049797Y-047307D01*
G01X0049778Y-047306D01*
G01X0049776Y-047306D01*
G01X0049742Y-047313D01*
G01X0049722Y-047338D01*
G01X0049722Y-047370D01*
G01X0049743Y-047389D01*
G01X0049788Y-047404D01*
G01X0049852Y-047415D01*
G01X0049931Y-047421D01*
G01X0050018Y-047421D01*
G01X0050018Y-047503D01*
G01X0049982Y-047509D01*
G01X0049982Y-047509D01*
G01X0049892Y-047524D01*
G01X0049825Y-047540D01*
G01X0049777Y-047558D01*
G01X0049743Y-047580D01*
G01X0049725Y-047598D01*
G01X0049695Y-047653D01*
G01X0049687Y-047720D01*
G01X0049700Y-047789D01*
G01X0049727Y-047845D01*
G01X0049758Y-047888D01*
G01X0049781Y-047911D01*
G01X0049800Y-047916D01*
G01X0049816Y-047913D01*
G01X0049841Y-047898D01*
G01X0049848Y-047875D01*
G01X0049837Y-047839D01*
G01X0049816Y-047800D01*
G01X0049793Y-047757D01*
G01X0049783Y-047730D01*
G01X0049784Y-047708D01*
G01X0049795Y-047683D01*
G01X0049823Y-047649D01*
G01X0049857Y-047627D01*
G01X0049896Y-047613D01*
G01X0049896Y-047729D01*
G01X0049897Y-047789D01*
G01X0049901Y-047829D01*
G01X0049911Y-047859D01*
G01X0049929Y-047887D01*
G01X0049938Y-047899D01*
G01X0049987Y-047953D01*
G01X0050036Y-047982D01*
G01X0050090Y-047988D01*
G01X0050090Y-048033D01*
G01X0050055Y-048029D01*
G01X0049967Y-048021D01*
G01X0049880Y-048016D01*
G01X0049802Y-048016D01*
G01X0049740Y-048020D01*
G01X0049726Y-048022D01*
G01X0049681Y-048031D01*
G01X0049648Y-048038D01*
G01X0049638Y-048042D01*
G01X0049645Y-048052D01*
G01X0049668Y-048074D01*
G01X0049679Y-048083D01*
G01X0049704Y-048100D01*
G01X0049732Y-048112D01*
G01X0049769Y-048119D01*
G01X0049824Y-048124D01*
G01X0049865Y-048127D01*
G01X0049925Y-048131D01*
G01X0049975Y-048136D01*
G01X0050007Y-048141D01*
G01X0050015Y-048144D01*
G01X0050011Y-048159D01*
G01X0049981Y-048186D01*
G01X0049925Y-048225D01*
G01X0049869Y-048260D01*
G01X0049827Y-048288D01*
G01X0049805Y-048311D01*
G01X0049797Y-048335D01*
G01X0049796Y-048346D01*
G01X0049803Y-048378D01*
G01X0049826Y-048391D01*
G01X0049826Y-048552D01*
G01X0049771Y-048595D01*
G01X0049728Y-048651D01*
G01X0049707Y-048716D01*
G01X0049703Y-048762D01*
G01X0049713Y-048845D01*
G01X0049742Y-048909D01*
G01X0049769Y-048939D01*
G01X0049784Y-048954D01*
G01X0049775Y-048963D01*
G01X0049759Y-048967D01*
G01X0049729Y-048986D01*
G01X0049720Y-049007D01*
G01X0049726Y-049035D01*
G01X0049754Y-049057D01*
G01X0049805Y-049070D01*
G01X0049881Y-049077D01*
G01X0049983Y-049078D01*
G01X0049983Y-050026D01*
G01X0049977Y-050017D01*
G01X0049947Y-050000D01*
G01X0049939Y-049997D01*
G01X0049884Y-049963D01*
G01X0049829Y-049903D01*
G01X0049773Y-049816D01*
G01X0049718Y-049705D01*
G01X0049664Y-049572D01*
G01X0049613Y-049417D01*
G01X0049603Y-049383D01*
G01X0049603Y-046709D01*
G01X0049703Y-046709D01*
G01X0049703Y-046424D01*
G01X0049952Y-046424D01*
G01X0050035Y-046423D01*
G01X0050109Y-046422D01*
G01X0050169Y-046420D01*
G01X0050209Y-046417D01*
G01X0050225Y-046415D01*
G01X0050241Y-046398D01*
G01X0050244Y-046362D01*
G01X0050244Y-046354D01*
G01X0050239Y-046302D01*
G01X0050097Y-046300D01*
G01X0050097Y-046224D01*
G01X0050157Y-046223D01*
G01X0050205Y-046221D01*
G01X0050233Y-046216D01*
G01X0050237Y-046214D01*
G01X0050243Y-046194D01*
G01X0050246Y-046160D01*
G01X0050246Y-046157D01*
G01X0050246Y-046109D01*
G01X0050086Y-046109D01*
G01X0050001Y-046109D01*
G01X0050001Y-045866D01*
G01X0050066Y-045866D01*
G01X0050110Y-045864D01*
G01X0050139Y-045858D01*
G01X0050159Y-045848D01*
G01X0050178Y-045831D01*
G01X0050180Y-045829D01*
G01X0050204Y-045801D01*
G01X0050221Y-045769D01*
G01X0050233Y-045728D01*
G01X0050240Y-045673D01*
G01X0050244Y-045598D01*
G01X0050245Y-045516D01*
G01X0050244Y-045434D01*
G01X0050242Y-045374D01*
G01X0050237Y-045330D01*
G01X0050229Y-045296D01*
G01X0050219Y-045271D01*
G01X0050196Y-045231D01*
G01X0050171Y-045202D01*
G01X0050163Y-045196D01*
G01X0050136Y-045190D01*
G01X0050089Y-045184D01*
G01X0050030Y-045181D01*
G01X0050030Y-045109D01*
G01X0050102Y-045109D01*
G01X0050164Y-045107D01*
G01X0050210Y-045104D01*
G01X0050235Y-045100D01*
G01X0050237Y-045099D01*
G01X0050243Y-045079D01*
G01X0050243Y-045046D01*
G01X0050239Y-045002D01*
G01X0050062Y-044998D01*
G01X0049989Y-044995D01*
G01X0049928Y-044991D01*
G01X0049885Y-044985D01*
G01X0049865Y-044979D01*
G01X0049857Y-044963D01*
G01X0049851Y-044930D01*
G01X0049848Y-044876D01*
G01X0049847Y-044798D01*
G01X0049847Y-044768D01*
G01X0049847Y-044696D01*
G01X0049850Y-044633D01*
G01X0049853Y-044585D01*
G01X0049857Y-044559D01*
G01X0049858Y-044556D01*
G01X0049877Y-044548D01*
G01X0049921Y-044541D01*
G01X0049992Y-044537D01*
G01X0050054Y-044535D01*
G01X0050239Y-044531D01*
G01X0050239Y-044431D01*
G01X0050043Y-044427D01*
G01X0049951Y-044426D01*
G01X0049880Y-044429D01*
G01X0049833Y-044434D01*
G01X0049816Y-044439D01*
G01X0049791Y-044458D01*
G01X0049773Y-044488D01*
G01X0049760Y-044532D01*
G01X0049751Y-044593D01*
G01X0049747Y-044677D01*
G01X0049746Y-044765D01*
G01X0049747Y-044861D01*
G01X0049750Y-044932D01*
G01X0049756Y-044985D01*
G01X0049766Y-045024D01*
G01X0049780Y-045053D01*
G01X0049800Y-045077D01*
G01X0049803Y-045080D01*
G01X0049817Y-045092D01*
G01X0049835Y-045100D01*
G01X0049862Y-045105D01*
G01X0049904Y-045108D01*
G01X0049965Y-045109D01*
G01X0050030Y-045109D01*
G01X0050030Y-045181D01*
G01X0050030Y-045181D01*
G01X0049993Y-045181D01*
G01X0049915Y-045183D01*
G01X0049855Y-045191D01*
G01X0049811Y-045209D01*
G01X0049781Y-045239D01*
G01X0049762Y-045286D01*
G01X0049751Y-045352D01*
G01X0049747Y-045441D01*
G01X0049746Y-045516D01*
G01X0049747Y-045601D01*
G01X0049749Y-045663D01*
G01X0049753Y-045708D01*
G01X0049759Y-045741D01*
G01X0049769Y-045768D01*
G01X0049775Y-045781D01*
G01X0049799Y-045819D01*
G01X0049824Y-045847D01*
G01X0049831Y-045852D01*
G01X0049857Y-045858D01*
G01X0049903Y-045863D01*
G01X0049963Y-045866D01*
G01X0050001Y-045866D01*
G01X0050001Y-046109D01*
G01X0049998Y-046109D01*
G01X0049936Y-046106D01*
G01X0049893Y-046098D01*
G01X0049867Y-046083D01*
G01X0049852Y-046059D01*
G01X0049845Y-046024D01*
G01X0049841Y-045974D01*
G01X0049833Y-045920D01*
G01X0049816Y-045890D01*
G01X0049789Y-045885D01*
G01X0049776Y-045887D01*
G01X0049760Y-045896D01*
G01X0049751Y-045913D01*
G01X0049747Y-045945D01*
G01X0049746Y-045992D01*
G01X0049754Y-046081D01*
G01X0049777Y-046149D01*
G01X0049815Y-046194D01*
G01X0049832Y-046205D01*
G01X0049858Y-046212D01*
G01X0049904Y-046217D01*
G01X0049963Y-046221D01*
G01X0050030Y-046223D01*
G01X0050097Y-046224D01*
G01X0050097Y-046300D01*
G01X0049971Y-046298D01*
G01X0049703Y-046294D01*
G01X0049703Y-046153D01*
G01X0049702Y-046086D01*
G01X0049698Y-046035D01*
G01X0049692Y-046006D01*
G01X0049688Y-046002D01*
G01X0049680Y-046000D01*
G01X0049680Y-044350D01*
G01X0049716Y-044332D01*
G01X0049720Y-044329D01*
G01X0049740Y-044316D01*
G01X0049746Y-044321D01*
G01X0049760Y-044327D01*
G01X0049796Y-044331D01*
G01X0049850Y-044334D01*
G01X0049915Y-044337D01*
G01X0049986Y-044338D01*
G01X0050058Y-044339D01*
G01X0050125Y-044338D01*
G01X0050181Y-044336D01*
G01X0050220Y-044332D01*
G01X0050237Y-044328D01*
G01X0050243Y-044308D01*
G01X0050243Y-044274D01*
G01X0050239Y-044231D01*
G01X0050013Y-044227D01*
G01X0050013Y-044152D01*
G01X0050075Y-044152D01*
G01X0050128Y-044149D01*
G01X0050163Y-044145D01*
G01X0050168Y-044143D01*
G01X0050189Y-044125D01*
G01X0050212Y-044091D01*
G01X0050219Y-044075D01*
G01X0050229Y-044052D01*
G01X0050235Y-044026D01*
G01X0050240Y-043993D01*
G01X0050242Y-043948D01*
G01X0050244Y-043887D01*
G01X0050243Y-043804D01*
G01X0050243Y-043731D01*
G01X0050239Y-043445D01*
G01X0050203Y-043445D01*
G01X0050203Y-043396D01*
G01X0050220Y-043393D01*
G01X0050232Y-043380D01*
G01X0050240Y-043354D01*
G01X0050244Y-043311D01*
G01X0050246Y-043248D01*
G01X0050246Y-043160D01*
G01X0050246Y-043138D01*
G01X0050245Y-043034D01*
G01X0050243Y-042955D01*
G01X0050238Y-042897D01*
G01X0050231Y-042859D01*
G01X0050226Y-042846D01*
G01X0050191Y-042794D01*
G01X0050142Y-042762D01*
G01X0050086Y-042751D01*
G01X0050029Y-042764D01*
G01X0049994Y-042786D01*
G01X0049979Y-042800D01*
G01X0049968Y-042816D01*
G01X0049960Y-042838D01*
G01X0049954Y-042871D01*
G01X0049950Y-042921D01*
G01X0049946Y-042992D01*
G01X0049945Y-043022D01*
G01X0049939Y-043115D01*
G01X0049934Y-043183D01*
G01X0049928Y-043229D01*
G01X0049920Y-043258D01*
G01X0049910Y-043274D01*
G01X0049897Y-043279D01*
G01X0049884Y-043278D01*
G01X0049869Y-043273D01*
G01X0049858Y-043260D01*
G01X0049852Y-043232D01*
G01X0049848Y-043183D01*
G01X0049846Y-043164D01*
G01X0049840Y-043095D01*
G01X0049828Y-043052D01*
G01X0049811Y-043031D01*
G01X0049787Y-043028D01*
G01X0049776Y-043030D01*
G01X0049762Y-043037D01*
G01X0049753Y-043051D01*
G01X0049748Y-043077D01*
G01X0049747Y-043122D01*
G01X0049746Y-043165D01*
G01X0049747Y-043230D01*
G01X0049752Y-043274D01*
G01X0049761Y-043307D01*
G01X0049776Y-043335D01*
G01X0049779Y-043339D01*
G01X0049807Y-043373D01*
G01X0049839Y-043388D01*
G01X0049871Y-043392D01*
G01X0049923Y-043392D01*
G01X0049964Y-043380D01*
G01X0049994Y-043353D01*
G01X0050016Y-043308D01*
G01X0050030Y-043243D01*
G01X0050040Y-043155D01*
G01X0050044Y-043082D01*
G01X0050053Y-042888D01*
G01X0050093Y-042883D01*
G01X0050122Y-042882D01*
G01X0050135Y-042883D01*
G01X0050136Y-042898D01*
G01X0050138Y-042937D01*
G01X0050140Y-042995D01*
G01X0050143Y-043068D01*
G01X0050145Y-043138D01*
G01X0050149Y-043228D01*
G01X0050152Y-043294D01*
G01X0050155Y-043339D01*
G01X0050160Y-043368D01*
G01X0050166Y-043384D01*
G01X0050174Y-043391D01*
G01X0050179Y-043393D01*
G01X0050203Y-043396D01*
G01X0050203Y-043445D01*
G01X0050153Y-043445D01*
G01X0050146Y-043724D01*
G01X0050144Y-043811D01*
G01X0050140Y-043889D01*
G01X0050136Y-043952D01*
G01X0050132Y-043998D01*
G01X0050128Y-044019D01*
G01X0050128Y-044020D01*
G01X0050108Y-044029D01*
G01X0050068Y-044035D01*
G01X0050017Y-044038D01*
G01X0049962Y-044038D01*
G01X0049912Y-044034D01*
G01X0049876Y-044027D01*
G01X0049863Y-044021D01*
G01X0049857Y-044003D01*
G01X0049852Y-043963D01*
G01X0049848Y-043900D01*
G01X0049847Y-043812D01*
G01X0049846Y-043743D01*
G01X0049846Y-043659D01*
G01X0049845Y-043583D01*
G01X0049843Y-043521D01*
G01X0049840Y-043479D01*
G01X0049838Y-043461D01*
G01X0049817Y-043443D01*
G01X0049788Y-043438D01*
G01X0049746Y-043438D01*
G01X0049746Y-043739D01*
G01X0049747Y-043851D01*
G01X0049749Y-043939D01*
G01X0049753Y-044006D01*
G01X0049760Y-044055D01*
G01X0049771Y-044089D01*
G01X0049785Y-044113D01*
G01X0049804Y-044130D01*
G01X0049817Y-044137D01*
G01X0049842Y-044143D01*
G01X0049889Y-044148D01*
G01X0049948Y-044151D01*
G01X0050013Y-044152D01*
G01X0050013Y-044227D01*
G01X0049997Y-044227D01*
G01X0049902Y-044226D01*
G01X0049832Y-044227D01*
G01X0049785Y-044229D01*
G01X0049756Y-044234D01*
G01X0049745Y-044241D01*
G01X0049733Y-044249D01*
G01X0049724Y-044234D01*
G01X0049704Y-044215D01*
G01X0049672Y-044209D01*
G01X0049642Y-044216D01*
G01X0049626Y-044232D01*
G01X0049617Y-044281D01*
G01X0049626Y-044320D01*
G01X0049648Y-044344D01*
G01X0049680Y-044350D01*
G01X0049680Y-046000D01*
G01X0049664Y-045998D01*
G01X0049638Y-046001D01*
G01X0049603Y-046010D01*
G01X0049603Y-046709D01*
G01X0049603Y-049383D01*
G01X0049564Y-049241D01*
G01X0049549Y-049181D01*
G01X0049488Y-048905D01*
G01X0049434Y-048601D01*
G01X0049387Y-048270D01*
G01X0049346Y-047913D01*
G01X0049312Y-047529D01*
G01X0049285Y-047119D01*
G01X0049275Y-046939D01*
G01X0049271Y-046834D01*
G01X0049267Y-046705D01*
G01X0049265Y-046557D01*
G01X0049263Y-046394D01*
G01X0049262Y-046221D01*
G01X0049261Y-046042D01*
G01X0049261Y-045863D01*
G01X0049261Y-045863D01*
G37*
G01X0049261Y-045863D02*
G01X0049262Y-045689D01*
G01X0049262Y-045689D02*
G01X0049264Y-045522D01*
G01X0049264Y-045522D02*
G01X0049267Y-045369D01*
G01X0049267Y-045369D02*
G01X0049270Y-045234D01*
G01X0049270Y-045234D02*
G01X0049274Y-045121D01*
G01X0049274Y-045121D02*
G01X0049275Y-045094D01*
G01X0049275Y-045094D02*
G01X0049296Y-044724D01*
G01X0049296Y-044724D02*
G01X0049323Y-044372D01*
G01X0049323Y-044372D02*
G01X0049355Y-044040D01*
G01X0049355Y-044040D02*
G01X0049392Y-043728D01*
G01X0049392Y-043728D02*
G01X0049434Y-043438D01*
G01X0049434Y-043438D02*
G01X0049480Y-043170D01*
G01X0049480Y-043170D02*
G01X0049531Y-042925D01*
G01X0049531Y-042925D02*
G01X0049586Y-042705D01*
G01X0049586Y-042705D02*
G01X0049645Y-042510D01*
G01X0049645Y-042510D02*
G01X0049709Y-042341D01*
G01X0049709Y-042341D02*
G01X0049776Y-042200D01*
G01X0049776Y-042200D02*
G01X0049776Y-042200D01*
G01X0049776Y-042200D02*
G01X0049805Y-042142D01*
G01X0049805Y-042142D02*
G01X0049818Y-042106D01*
G01X0049818Y-042106D02*
G01X0049815Y-042091D01*
G01X0049815Y-042091D02*
G01X0049814Y-042091D01*
G01X0049814Y-042091D02*
G01X0049808Y-042079D01*
G01X0049808Y-042079D02*
G01X0049821Y-042057D01*
G01X0049821Y-042057D02*
G01X0049848Y-042032D01*
G01X0049848Y-042032D02*
G01X0049882Y-042009D01*
G01X0049882Y-042009D02*
G01X0049919Y-041993D01*
G01X0049919Y-041993D02*
G01X0049920Y-041993D01*
G01X0049920Y-041993D02*
G01X0049984Y-041988D01*
G01X0049984Y-041988D02*
G01X0050048Y-042011D01*
G01X0050048Y-042011D02*
G01X0050111Y-042062D01*
G01X0050111Y-042062D02*
G01X0050172Y-042142D01*
G01X0050172Y-042142D02*
G01X0050233Y-042249D01*
G01X0050233Y-042249D02*
G01X0050238Y-042259D01*
G01X0050238Y-042259D02*
G01X0050305Y-042417D01*
G01X0050305Y-042417D02*
G01X0050369Y-042603D01*
G01X0050369Y-042603D02*
G01X0050428Y-042816D01*
G01X0050428Y-042816D02*
G01X0050482Y-043055D01*
G01X0050482Y-043055D02*
G01X0050532Y-043319D01*
G01X0050532Y-043319D02*
G01X0050577Y-043609D01*
G01X0050577Y-043609D02*
G01X0050617Y-043923D01*
G01X0050617Y-043923D02*
G01X0050652Y-044260D01*
G01X0050652Y-044260D02*
G01X0050682Y-044621D01*
G01X0050682Y-044621D02*
G01X0050704Y-044952D01*
G01X0050704Y-044952D02*
G01X0050708Y-045046D01*
G01X0050708Y-045046D02*
G01X0050712Y-045163D01*
G01X0050712Y-045163D02*
G01X0050716Y-045301D01*
G01X0050716Y-045301D02*
G01X0050719Y-045454D01*
G01X0050719Y-045454D02*
G01X0050721Y-045617D01*
G01X0050721Y-045617D02*
G01X0050723Y-045788D01*
G01X0050723Y-045788D02*
G01X0050724Y-045960D01*
G01X0050724Y-045960D02*
G01X0050725Y-046130D01*
G01X0050725Y-046130D02*
G01X0050725Y-046294D01*
G01X0050725Y-046294D02*
G01X0050724Y-046446D01*
G01X0050724Y-046446D02*
G01X0050723Y-046583D01*
G01X0050723Y-046583D02*
G01X0050720Y-046700D01*
G01X0050720Y-046700D02*
G01X0050718Y-046781D01*
G01X0050718Y-046781D02*
G01X0050701Y-047126D01*
G01X0050701Y-047126D02*
G01X0050679Y-047458D01*
G01X0050679Y-047458D02*
G01X0050652Y-047775D01*
G01X0050652Y-047775D02*
G01X0050621Y-048077D01*
G01X0050621Y-048077D02*
G01X0050586Y-048361D01*
G01X0050586Y-048361D02*
G01X0050547Y-048628D01*
G01X0050547Y-048628D02*
G01X0050504Y-048875D01*
G01X0050504Y-048875D02*
G01X0050457Y-049102D01*
G01X0050457Y-049102D02*
G01X0050407Y-049308D01*
G01X0050407Y-049308D02*
G01X0050354Y-049491D01*
G01X0050354Y-049491D02*
G01X0050297Y-049651D01*
G01X0050297Y-049651D02*
G01X0050239Y-049786D01*
G01X0050239Y-049786D02*
G01X0050177Y-049895D01*
G01X0050177Y-049895D02*
G01X0050114Y-049977D01*
G01X0050114Y-049977D02*
G01X0050096Y-049994D01*
G01X0050096Y-049994D02*
G01X0050050Y-050032D01*
G01X0050050Y-050032D02*
G01X0050015Y-050050D01*
G01X0050015Y-050050D02*
G01X0049994Y-050048D01*
G01X0049994Y-050048D02*
G01X0049989Y-050034D01*
G01X0049989Y-050034D02*
G01X0049983Y-050026D01*
G01X0049983Y-050026D02*
G01X0049983Y-049078D01*
G01X0049983Y-049078D02*
G01X0049986Y-049078D01*
G01X0049986Y-049078D02*
G01X0050153Y-049074D01*
G01X0050153Y-049074D02*
G01X0050153Y-049024D01*
G01X0050153Y-049024D02*
G01X0050151Y-048990D01*
G01X0050151Y-048990D02*
G01X0050140Y-048978D01*
G01X0050140Y-048978D02*
G01X0050118Y-048978D01*
G01X0050118Y-048978D02*
G01X0050061Y-048976D01*
G01X0050061Y-048976D02*
G01X0049993Y-048961D01*
G01X0049993Y-048961D02*
G01X0049927Y-048937D01*
G01X0049927Y-048937D02*
G01X0049885Y-048915D01*
G01X0049885Y-048915D02*
G01X0049831Y-048866D01*
G01X0049831Y-048866D02*
G01X0049803Y-048809D01*
G01X0049803Y-048809D02*
G01X0049802Y-048746D01*
G01X0049802Y-048746D02*
G01X0049805Y-048734D01*
G01X0049805Y-048734D02*
G01X0049829Y-048683D01*
G01X0049829Y-048683D02*
G01X0049872Y-048641D01*
G01X0049872Y-048641D02*
G01X0049938Y-048604D01*
G01X0049938Y-048604D02*
G01X0050022Y-048574D01*
G01X0050022Y-048574D02*
G01X0050106Y-048547D01*
G01X0050106Y-048547D02*
G01X0050166Y-048526D01*
G01X0050166Y-048526D02*
G01X0050206Y-048508D01*
G01X0050206Y-048508D02*
G01X0050230Y-048490D01*
G01X0050230Y-048490D02*
G01X0050242Y-048472D01*
G01X0050242Y-048472D02*
G01X0050246Y-048449D01*
G01X0050246Y-048449D02*
G01X0050246Y-048441D01*
G01X0050246Y-048441D02*
G01X0050245Y-048408D01*
G01X0050245Y-048408D02*
G01X0050234Y-048396D01*
G01X0050234Y-048396D02*
G01X0050206Y-048398D01*
G01X0050206Y-048398D02*
G01X0050200Y-048399D01*
G01X0050200Y-048399D02*
G01X0050143Y-048413D01*
G01X0050143Y-048413D02*
G01X0050072Y-048437D01*
G01X0050072Y-048437D02*
G01X0049994Y-048467D01*
G01X0049994Y-048467D02*
G01X0049920Y-048499D01*
G01X0049920Y-048499D02*
G01X0049859Y-048530D01*
G01X0049859Y-048530D02*
G01X0049839Y-048542D01*
G01X0049839Y-048542D02*
G01X0049826Y-048552D01*
G01X0049826Y-048552D02*
G01X0049826Y-048391D01*
G01X0049826Y-048391D02*
G01X0049865Y-048385D01*
G01X0049865Y-048385D02*
G01X0049922Y-048359D01*
G01X0049922Y-048359D02*
G01X0049959Y-048339D01*
G01X0049959Y-048339D02*
G01X0050040Y-048285D01*
G01X0050040Y-048285D02*
G01X0050099Y-048230D01*
G01X0050099Y-048230D02*
G01X0050140Y-048173D01*
G01X0050140Y-048173D02*
G01X0050153Y-048157D01*
G01X0050153Y-048157D02*
G01X0050171Y-048155D01*
G01X0050171Y-048155D02*
G01X0050204Y-048167D01*
G01X0050204Y-048167D02*
G01X0050204Y-048167D01*
G01X0050204Y-048167D02*
G01X0050257Y-048196D01*
G01X0050257Y-048196D02*
G01X0050307Y-048237D01*
G01X0050307Y-048237D02*
G01X0050347Y-048282D01*
G01X0050347Y-048282D02*
G01X0050368Y-048323D01*
G01X0050368Y-048323D02*
G01X0050368Y-048324D01*
G01X0050368Y-048324D02*
G01X0050381Y-048356D01*
G01X0050381Y-048356D02*
G01X0050405Y-048366D01*
G01X0050405Y-048366D02*
G01X0050412Y-048366D01*
G01X0050412Y-048366D02*
G01X0050435Y-048363D01*
G01X0050435Y-048363D02*
G01X0050445Y-048345D01*
G01X0050445Y-048345D02*
G01X0050446Y-048316D01*
G01X0050446Y-048316D02*
G01X0050440Y-048265D01*
G01X0050440Y-048265D02*
G01X0050427Y-048219D01*
G01X0050427Y-048219D02*
G01X0050392Y-048166D01*
G01X0050392Y-048166D02*
G01X0050337Y-048115D01*
G01X0050337Y-048115D02*
G01X0050269Y-048073D01*
G01X0050269Y-048073D02*
G01X0050253Y-048066D01*
G01X0050253Y-048066D02*
G01X0050206Y-048052D01*
G01X0050206Y-048052D02*
G01X0050138Y-048039D01*
G01X0050138Y-048039D02*
G01X0050090Y-048033D01*
G01X0050090Y-048033D02*
G01X0050090Y-047988D01*
G01X0050090Y-047988D02*
G01X0050132Y-047981D01*
G01X0050132Y-047981D02*
G01X0050195Y-047958D01*
G01X0050195Y-047958D02*
G01X0050235Y-047924D01*
G01X0050235Y-047924D02*
G01X0050251Y-047895D01*
G01X0050251Y-047895D02*
G01X0050255Y-047860D01*
G01X0050255Y-047860D02*
G01X0050250Y-047805D01*
G01X0050250Y-047805D02*
G01X0050238Y-047737D01*
G01X0050238Y-047737D02*
G01X0050218Y-047663D01*
G01X0050218Y-047663D02*
G01X0050217Y-047660D01*
G01X0050217Y-047660D02*
G01X0050189Y-047582D01*
G01X0050189Y-047582D02*
G01X0050160Y-047526D01*
G01X0050160Y-047526D02*
G01X0050132Y-047493D01*
G01X0050132Y-047493D02*
G01X0050107Y-047487D01*
G01X0050107Y-047487D02*
G01X0050107Y-047487D01*
G01X0050107Y-047487D02*
G01X0050081Y-047492D01*
G01X0050081Y-047492D02*
G01X0050036Y-047500D01*
G01X0050036Y-047500D02*
G01X0050018Y-047503D01*
G01X0050018Y-047503D02*
G01X0050018Y-047421D01*
G01X0050018Y-047421D02*
G01X0050153Y-047416D01*
G01X0050153Y-047416D02*
G01X0050158Y-047363D01*
G01X0050158Y-047363D02*
G01X0050162Y-047309D01*
G01X0050162Y-047309D02*
G01X0050079Y-047309D01*
G01X0050079Y-047309D02*
G01X0049982Y-047296D01*
G01X0049982Y-047296D02*
G01X0049898Y-047260D01*
G01X0049898Y-047260D02*
G01X0049844Y-047217D01*
G01X0049844Y-047217D02*
G01X0049809Y-047169D01*
G01X0049809Y-047169D02*
G01X0049799Y-047117D01*
G01X0049799Y-047117D02*
G01X0049806Y-047075D01*
G01X0049806Y-047075D02*
G01X0049826Y-047027D01*
G01X0049826Y-047027D02*
G01X0049861Y-046988D01*
G01X0049861Y-046988D02*
G01X0049915Y-046954D01*
G01X0049915Y-046954D02*
G01X0049992Y-046922D01*
G01X0049992Y-046922D02*
G01X0050039Y-046907D01*
G01X0050039Y-046907D02*
G01X0050120Y-046881D01*
G01X0050120Y-046881D02*
G01X0050177Y-046860D01*
G01X0050177Y-046860D02*
G01X0050214Y-046841D01*
G01X0050214Y-046841D02*
G01X0050235Y-046822D01*
G01X0050235Y-046822D02*
G01X0050245Y-046800D01*
G01X0050245Y-046800D02*
G01X0050246Y-046781D01*
G01X0050246Y-046781D02*
G01X0050242Y-046749D01*
G01X0050242Y-046749D02*
G01X0050234Y-046732D01*
G01X0050234Y-046732D02*
G01X0050214Y-046732D01*
G01X0050214Y-046732D02*
G01X0050174Y-046742D01*
G01X0050174Y-046742D02*
G01X0050120Y-046759D01*
G01X0050120Y-046759D02*
G01X0050058Y-046781D01*
G01X0050058Y-046781D02*
G01X0049994Y-046805D01*
G01X0049994Y-046805D02*
G01X0049935Y-046831D01*
G01X0049935Y-046831D02*
G01X0049896Y-046849D01*
G01X0049896Y-046849D02*
G01X0049842Y-046880D01*
G01X0049842Y-046880D02*
G01X0049791Y-046917D01*
G01X0049791Y-046917D02*
G01X0049762Y-046944D01*
G01X0049762Y-046944D02*
G01X0049732Y-046978D01*
G01X0049732Y-046978D02*
G01X0049716Y-047011D01*
G01X0049716Y-047011D02*
G01X0049708Y-047056D01*
G01X0049708Y-047056D02*
G01X0049706Y-047081D01*
G01X0049706Y-047081D02*
G01X0049708Y-047164D01*
G01X0049708Y-047164D02*
G01X0049727Y-047228D01*
G01X0049727Y-047228D02*
G01X0049766Y-047277D01*
G01X0049766Y-047277D02*
G01X0049772Y-047281D01*
G01X0049772Y-047281D02*
G01X0049795Y-047301D01*
G01X0049795Y-047301D02*
G01X0049797Y-047307D01*
G01X0049797Y-047307D02*
G01X0049778Y-047306D01*
G01X0049778Y-047306D02*
G01X0049776Y-047306D01*
G01X0049776Y-047306D02*
G01X0049742Y-047313D01*
G01X0049742Y-047313D02*
G01X0049722Y-047338D01*
G01X0049722Y-047338D02*
G01X0049722Y-047370D01*
G01X0049722Y-047370D02*
G01X0049743Y-047389D01*
G01X0049743Y-047389D02*
G01X0049788Y-047404D01*
G01X0049788Y-047404D02*
G01X0049852Y-047415D01*
G01X0049852Y-047415D02*
G01X0049931Y-047421D01*
G01X0049931Y-047421D02*
G01X0050018Y-047421D01*
G01X0050018Y-047421D02*
G01X0050018Y-047503D01*
G01X0050018Y-047503D02*
G01X0049982Y-047509D01*
G01X0049982Y-047509D02*
G01X0049982Y-047509D01*
G01X0049982Y-047509D02*
G01X0049892Y-047524D01*
G01X0049892Y-047524D02*
G01X0049825Y-047540D01*
G01X0049825Y-047540D02*
G01X0049777Y-047558D01*
G01X0049777Y-047558D02*
G01X0049743Y-047580D01*
G01X0049743Y-047580D02*
G01X0049725Y-047598D01*
G01X0049725Y-047598D02*
G01X0049695Y-047653D01*
G01X0049695Y-047653D02*
G01X0049687Y-047720D01*
G01X0049687Y-047720D02*
G01X0049700Y-047789D01*
G01X0049700Y-047789D02*
G01X0049727Y-047845D01*
G01X0049727Y-047845D02*
G01X0049758Y-047888D01*
G01X0049758Y-047888D02*
G01X0049781Y-047911D01*
G01X0049781Y-047911D02*
G01X0049800Y-047916D01*
G01X0049800Y-047916D02*
G01X0049816Y-047913D01*
G01X0049816Y-047913D02*
G01X0049841Y-047898D01*
G01X0049841Y-047898D02*
G01X0049848Y-047875D01*
G01X0049848Y-047875D02*
G01X0049837Y-047839D01*
G01X0049837Y-047839D02*
G01X0049816Y-047800D01*
G01X0049816Y-047800D02*
G01X0049793Y-047757D01*
G01X0049793Y-047757D02*
G01X0049783Y-047730D01*
G01X0049783Y-047730D02*
G01X0049784Y-047708D01*
G01X0049784Y-047708D02*
G01X0049795Y-047683D01*
G01X0049795Y-047683D02*
G01X0049823Y-047649D01*
G01X0049823Y-047649D02*
G01X0049857Y-047627D01*
G01X0049857Y-047627D02*
G01X0049896Y-047613D01*
G01X0049896Y-047613D02*
G01X0049896Y-047729D01*
G01X0049896Y-047729D02*
G01X0049897Y-047789D01*
G01X0049897Y-047789D02*
G01X0049901Y-047829D01*
G01X0049901Y-047829D02*
G01X0049911Y-047859D01*
G01X0049911Y-047859D02*
G01X0049929Y-047887D01*
G01X0049929Y-047887D02*
G01X0049938Y-047899D01*
G01X0049938Y-047899D02*
G01X0049987Y-047953D01*
G01X0049987Y-047953D02*
G01X0050036Y-047982D01*
G01X0050036Y-047982D02*
G01X0050090Y-047988D01*
G01X0050090Y-047988D02*
G01X0050090Y-048033D01*
G01X0050090Y-048033D02*
G01X0050055Y-048029D01*
G01X0050055Y-048029D02*
G01X0049967Y-048021D01*
G01X0049967Y-048021D02*
G01X0049880Y-048016D01*
G01X0049880Y-048016D02*
G01X0049802Y-048016D01*
G01X0049802Y-048016D02*
G01X0049740Y-048020D01*
G01X0049740Y-048020D02*
G01X0049726Y-048022D01*
G01X0049726Y-048022D02*
G01X0049681Y-048031D01*
G01X0049681Y-048031D02*
G01X0049648Y-048038D01*
G01X0049648Y-048038D02*
G01X0049638Y-048042D01*
G01X0049638Y-048042D02*
G01X0049645Y-048052D01*
G01X0049645Y-048052D02*
G01X0049668Y-048074D01*
G01X0049668Y-048074D02*
G01X0049679Y-048083D01*
G01X0049679Y-048083D02*
G01X0049704Y-048100D01*
G01X0049704Y-048100D02*
G01X0049732Y-048112D01*
G01X0049732Y-048112D02*
G01X0049769Y-048119D01*
G01X0049769Y-048119D02*
G01X0049824Y-048124D01*
G01X0049824Y-048124D02*
G01X0049865Y-048127D01*
G01X0049865Y-048127D02*
G01X0049925Y-048131D01*
G01X0049925Y-048131D02*
G01X0049975Y-048136D01*
G01X0049975Y-048136D02*
G01X0050007Y-048141D01*
G01X0050007Y-048141D02*
G01X0050015Y-048144D01*
G01X0050015Y-048144D02*
G01X0050011Y-048159D01*
G01X0050011Y-048159D02*
G01X0049981Y-048186D01*
G01X0049981Y-048186D02*
G01X0049925Y-048225D01*
G01X0049925Y-048225D02*
G01X0049869Y-048260D01*
G01X0049869Y-048260D02*
G01X0049827Y-048288D01*
G01X0049827Y-048288D02*
G01X0049805Y-048311D01*
G01X0049805Y-048311D02*
G01X0049797Y-048335D01*
G01X0049797Y-048335D02*
G01X0049796Y-048346D01*
G01X0049796Y-048346D02*
G01X0049803Y-048378D01*
G01X0049803Y-048378D02*
G01X0049826Y-048391D01*
G01X0049826Y-048391D02*
G01X0049826Y-048552D01*
G01X0049826Y-048552D02*
G01X0049771Y-048595D01*
G01X0049771Y-048595D02*
G01X0049728Y-048651D01*
G01X0049728Y-048651D02*
G01X0049707Y-048716D01*
G01X0049707Y-048716D02*
G01X0049703Y-048762D01*
G01X0049703Y-048762D02*
G01X0049713Y-048845D01*
G01X0049713Y-048845D02*
G01X0049742Y-048909D01*
G01X0049742Y-048909D02*
G01X0049769Y-048939D01*
G01X0049769Y-048939D02*
G01X0049784Y-048954D01*
G01X0049784Y-048954D02*
G01X0049775Y-048963D01*
G01X0049775Y-048963D02*
G01X0049759Y-048967D01*
G01X0049759Y-048967D02*
G01X0049729Y-048986D01*
G01X0049729Y-048986D02*
G01X0049720Y-049007D01*
G01X0049720Y-049007D02*
G01X0049726Y-049035D01*
G01X0049726Y-049035D02*
G01X0049754Y-049057D01*
G01X0049754Y-049057D02*
G01X0049805Y-049070D01*
G01X0049805Y-049070D02*
G01X0049881Y-049077D01*
G01X0049881Y-049077D02*
G01X0049983Y-049078D01*
G01X0049983Y-049078D02*
G01X0049983Y-050026D01*
G01X0049983Y-050026D02*
G01X0049977Y-050017D01*
G01X0049977Y-050017D02*
G01X0049947Y-050000D01*
G01X0049947Y-050000D02*
G01X0049939Y-049997D01*
G01X0049939Y-049997D02*
G01X0049884Y-049963D01*
G01X0049884Y-049963D02*
G01X0049829Y-049903D01*
G01X0049829Y-049903D02*
G01X0049773Y-049816D01*
G01X0049773Y-049816D02*
G01X0049718Y-049705D01*
G01X0049718Y-049705D02*
G01X0049664Y-049572D01*
G01X0049664Y-049572D02*
G01X0049613Y-049417D01*
G01X0049613Y-049417D02*
G01X0049603Y-049383D01*
G01X0049603Y-049383D02*
G01X0049603Y-046709D01*
G01X0049603Y-046709D02*
G01X0049703Y-046709D01*
G01X0049703Y-046709D02*
G01X0049703Y-046424D01*
G01X0049703Y-046424D02*
G01X0049952Y-046424D01*
G01X0049952Y-046424D02*
G01X0050035Y-046423D01*
G01X0050035Y-046423D02*
G01X0050109Y-046422D01*
G01X0050109Y-046422D02*
G01X0050169Y-046420D01*
G01X0050169Y-046420D02*
G01X0050209Y-046417D01*
G01X0050209Y-046417D02*
G01X0050225Y-046415D01*
G01X0050225Y-046415D02*
G01X0050241Y-046398D01*
G01X0050241Y-046398D02*
G01X0050244Y-046362D01*
G01X0050244Y-046362D02*
G01X0050244Y-046354D01*
G01X0050244Y-046354D02*
G01X0050239Y-046302D01*
G01X0050239Y-046302D02*
G01X0050097Y-046300D01*
G01X0050097Y-046300D02*
G01X0050097Y-046224D01*
G01X0050097Y-046224D02*
G01X0050157Y-046223D01*
G01X0050157Y-046223D02*
G01X0050205Y-046221D01*
G01X0050205Y-046221D02*
G01X0050233Y-046216D01*
G01X0050233Y-046216D02*
G01X0050237Y-046214D01*
G01X0050237Y-046214D02*
G01X0050243Y-046194D01*
G01X0050243Y-046194D02*
G01X0050246Y-046160D01*
G01X0050246Y-046160D02*
G01X0050246Y-046157D01*
G01X0050246Y-046157D02*
G01X0050246Y-046109D01*
G01X0050246Y-046109D02*
G01X0050086Y-046109D01*
G01X0050086Y-046109D02*
G01X0050001Y-046109D01*
G01X0050001Y-046109D02*
G01X0050001Y-045866D01*
G01X0050001Y-045866D02*
G01X0050066Y-045866D01*
G01X0050066Y-045866D02*
G01X0050110Y-045864D01*
G01X0050110Y-045864D02*
G01X0050139Y-045858D01*
G01X0050139Y-045858D02*
G01X0050159Y-045848D01*
G01X0050159Y-045848D02*
G01X0050178Y-045831D01*
G01X0050178Y-045831D02*
G01X0050180Y-045829D01*
G01X0050180Y-045829D02*
G01X0050204Y-045801D01*
G01X0050204Y-045801D02*
G01X0050221Y-045769D01*
G01X0050221Y-045769D02*
G01X0050233Y-045728D01*
G01X0050233Y-045728D02*
G01X0050240Y-045673D01*
G01X0050240Y-045673D02*
G01X0050244Y-045598D01*
G01X0050244Y-045598D02*
G01X0050245Y-045516D01*
G01X0050245Y-045516D02*
G01X0050244Y-045434D01*
G01X0050244Y-045434D02*
G01X0050242Y-045374D01*
G01X0050242Y-045374D02*
G01X0050237Y-045330D01*
G01X0050237Y-045330D02*
G01X0050229Y-045296D01*
G01X0050229Y-045296D02*
G01X0050219Y-045271D01*
G01X0050219Y-045271D02*
G01X0050196Y-045231D01*
G01X0050196Y-045231D02*
G01X0050171Y-045202D01*
G01X0050171Y-045202D02*
G01X0050163Y-045196D01*
G01X0050163Y-045196D02*
G01X0050136Y-045190D01*
G01X0050136Y-045190D02*
G01X0050089Y-045184D01*
G01X0050089Y-045184D02*
G01X0050030Y-045181D01*
G01X0050030Y-045181D02*
G01X0050030Y-045109D01*
G01X0050030Y-045109D02*
G01X0050102Y-045109D01*
G01X0050102Y-045109D02*
G01X0050164Y-045107D01*
G01X0050164Y-045107D02*
G01X0050210Y-045104D01*
G01X0050210Y-045104D02*
G01X0050235Y-045100D01*
G01X0050235Y-045100D02*
G01X0050237Y-045099D01*
G01X0050237Y-045099D02*
G01X0050243Y-045079D01*
G01X0050243Y-045079D02*
G01X0050243Y-045046D01*
G01X0050243Y-045046D02*
G01X0050239Y-045002D01*
G01X0050239Y-045002D02*
G01X0050062Y-044998D01*
G01X0050062Y-044998D02*
G01X0049989Y-044995D01*
G01X0049989Y-044995D02*
G01X0049928Y-044991D01*
G01X0049928Y-044991D02*
G01X0049885Y-044985D01*
G01X0049885Y-044985D02*
G01X0049865Y-044979D01*
G01X0049865Y-044979D02*
G01X0049857Y-044963D01*
G01X0049857Y-044963D02*
G01X0049851Y-044930D01*
G01X0049851Y-044930D02*
G01X0049848Y-044876D01*
G01X0049848Y-044876D02*
G01X0049847Y-044798D01*
G01X0049847Y-044798D02*
G01X0049847Y-044768D01*
G01X0049847Y-044768D02*
G01X0049847Y-044696D01*
G01X0049847Y-044696D02*
G01X0049850Y-044633D01*
G01X0049850Y-044633D02*
G01X0049853Y-044585D01*
G01X0049853Y-044585D02*
G01X0049857Y-044559D01*
G01X0049857Y-044559D02*
G01X0049858Y-044556D01*
G01X0049858Y-044556D02*
G01X0049877Y-044548D01*
G01X0049877Y-044548D02*
G01X0049921Y-044541D01*
G01X0049921Y-044541D02*
G01X0049992Y-044537D01*
G01X0049992Y-044537D02*
G01X0050054Y-044535D01*
G01X0050054Y-044535D02*
G01X0050239Y-044531D01*
G01X0050239Y-044531D02*
G01X0050239Y-044431D01*
G01X0050239Y-044431D02*
G01X0050043Y-044427D01*
G01X0050043Y-044427D02*
G01X0049951Y-044426D01*
G01X0049951Y-044426D02*
G01X0049880Y-044429D01*
G01X0049880Y-044429D02*
G01X0049833Y-044434D01*
G01X0049833Y-044434D02*
G01X0049816Y-044439D01*
G01X0049816Y-044439D02*
G01X0049791Y-044458D01*
G01X0049791Y-044458D02*
G01X0049773Y-044488D01*
G01X0049773Y-044488D02*
G01X0049760Y-044532D01*
G01X0049760Y-044532D02*
G01X0049751Y-044593D01*
G01X0049751Y-044593D02*
G01X0049747Y-044677D01*
G01X0049747Y-044677D02*
G01X0049746Y-044765D01*
G01X0049746Y-044765D02*
G01X0049747Y-044861D01*
G01X0049747Y-044861D02*
G01X0049750Y-044932D01*
G01X0049750Y-044932D02*
G01X0049756Y-044985D01*
G01X0049756Y-044985D02*
G01X0049766Y-045024D01*
G01X0049766Y-045024D02*
G01X0049780Y-045053D01*
G01X0049780Y-045053D02*
G01X0049800Y-045077D01*
G01X0049800Y-045077D02*
G01X0049803Y-045080D01*
G01X0049803Y-045080D02*
G01X0049817Y-045092D01*
G01X0049817Y-045092D02*
G01X0049835Y-045100D01*
G01X0049835Y-045100D02*
G01X0049862Y-045105D01*
G01X0049862Y-045105D02*
G01X0049904Y-045108D01*
G01X0049904Y-045108D02*
G01X0049965Y-045109D01*
G01X0049965Y-045109D02*
G01X0050030Y-045109D01*
G01X0050030Y-045109D02*
G01X0050030Y-045181D01*
G01X0050030Y-045181D02*
G01X0050030Y-045181D01*
G01X0050030Y-045181D02*
G01X0049993Y-045181D01*
G01X0049993Y-045181D02*
G01X0049915Y-045183D01*
G01X0049915Y-045183D02*
G01X0049855Y-045191D01*
G01X0049855Y-045191D02*
G01X0049811Y-045209D01*
G01X0049811Y-045209D02*
G01X0049781Y-045239D01*
G01X0049781Y-045239D02*
G01X0049762Y-045286D01*
G01X0049762Y-045286D02*
G01X0049751Y-045352D01*
G01X0049751Y-045352D02*
G01X0049747Y-045441D01*
G01X0049747Y-045441D02*
G01X0049746Y-045516D01*
G01X0049746Y-045516D02*
G01X0049747Y-045601D01*
G01X0049747Y-045601D02*
G01X0049749Y-045663D01*
G01X0049749Y-045663D02*
G01X0049753Y-045708D01*
G01X0049753Y-045708D02*
G01X0049759Y-045741D01*
G01X0049759Y-045741D02*
G01X0049769Y-045768D01*
G01X0049769Y-045768D02*
G01X0049775Y-045781D01*
G01X0049775Y-045781D02*
G01X0049799Y-045819D01*
G01X0049799Y-045819D02*
G01X0049824Y-045847D01*
G01X0049824Y-045847D02*
G01X0049831Y-045852D01*
G01X0049831Y-045852D02*
G01X0049857Y-045858D01*
G01X0049857Y-045858D02*
G01X0049903Y-045863D01*
G01X0049903Y-045863D02*
G01X0049963Y-045866D01*
G01X0049963Y-045866D02*
G01X0050001Y-045866D01*
G01X0050001Y-045866D02*
G01X0050001Y-046109D01*
G01X0050001Y-046109D02*
G01X0049998Y-046109D01*
G01X0049998Y-046109D02*
G01X0049936Y-046106D01*
G01X0049936Y-046106D02*
G01X0049893Y-046098D01*
G01X0049893Y-046098D02*
G01X0049867Y-046083D01*
G01X0049867Y-046083D02*
G01X0049852Y-046059D01*
G01X0049852Y-046059D02*
G01X0049845Y-046024D01*
G01X0049845Y-046024D02*
G01X0049841Y-045974D01*
G01X0049841Y-045974D02*
G01X0049833Y-045920D01*
G01X0049833Y-045920D02*
G01X0049816Y-045890D01*
G01X0049816Y-045890D02*
G01X0049789Y-045885D01*
G01X0049789Y-045885D02*
G01X0049776Y-045887D01*
G01X0049776Y-045887D02*
G01X0049760Y-045896D01*
G01X0049760Y-045896D02*
G01X0049751Y-045913D01*
G01X0049751Y-045913D02*
G01X0049747Y-045945D01*
G01X0049747Y-045945D02*
G01X0049746Y-045992D01*
G01X0049746Y-045992D02*
G01X0049754Y-046081D01*
G01X0049754Y-046081D02*
G01X0049777Y-046149D01*
G01X0049777Y-046149D02*
G01X0049815Y-046194D01*
G01X0049815Y-046194D02*
G01X0049832Y-046205D01*
G01X0049832Y-046205D02*
G01X0049858Y-046212D01*
G01X0049858Y-046212D02*
G01X0049904Y-046217D01*
G01X0049904Y-046217D02*
G01X0049963Y-046221D01*
G01X0049963Y-046221D02*
G01X0050030Y-046223D01*
G01X0050030Y-046223D02*
G01X0050097Y-046224D01*
G01X0050097Y-046224D02*
G01X0050097Y-046300D01*
G01X0050097Y-046300D02*
G01X0049971Y-046298D01*
G01X0049971Y-046298D02*
G01X0049703Y-046294D01*
G01X0049703Y-046294D02*
G01X0049703Y-046153D01*
G01X0049703Y-046153D02*
G01X0049702Y-046086D01*
G01X0049702Y-046086D02*
G01X0049698Y-046035D01*
G01X0049698Y-046035D02*
G01X0049692Y-046006D01*
G01X0049692Y-046006D02*
G01X0049688Y-046002D01*
G01X0049688Y-046002D02*
G01X0049680Y-046000D01*
G01X0049680Y-046000D02*
G01X0049680Y-044350D01*
G01X0049680Y-044350D02*
G01X0049716Y-044332D01*
G01X0049716Y-044332D02*
G01X0049720Y-044329D01*
G01X0049720Y-044329D02*
G01X0049740Y-044316D01*
G01X0049740Y-044316D02*
G01X0049746Y-044321D01*
G01X0049746Y-044321D02*
G01X0049760Y-044327D01*
G01X0049760Y-044327D02*
G01X0049796Y-044331D01*
G01X0049796Y-044331D02*
G01X0049850Y-044334D01*
G01X0049850Y-044334D02*
G01X0049915Y-044337D01*
G01X0049915Y-044337D02*
G01X0049986Y-044338D01*
G01X0049986Y-044338D02*
G01X0050058Y-044339D01*
G01X0050058Y-044339D02*
G01X0050125Y-044338D01*
G01X0050125Y-044338D02*
G01X0050181Y-044336D01*
G01X0050181Y-044336D02*
G01X0050220Y-044332D01*
G01X0050220Y-044332D02*
G01X0050237Y-044328D01*
G01X0050237Y-044328D02*
G01X0050243Y-044308D01*
G01X0050243Y-044308D02*
G01X0050243Y-044274D01*
G01X0050243Y-044274D02*
G01X0050239Y-044231D01*
G01X0050239Y-044231D02*
G01X0050013Y-044227D01*
G01X0050013Y-044227D02*
G01X0050013Y-044152D01*
G01X0050013Y-044152D02*
G01X0050075Y-044152D01*
G01X0050075Y-044152D02*
G01X0050128Y-044149D01*
G01X0050128Y-044149D02*
G01X0050163Y-044145D01*
G01X0050163Y-044145D02*
G01X0050168Y-044143D01*
G01X0050168Y-044143D02*
G01X0050189Y-044125D01*
G01X0050189Y-044125D02*
G01X0050212Y-044091D01*
G01X0050212Y-044091D02*
G01X0050219Y-044075D01*
G01X0050219Y-044075D02*
G01X0050229Y-044052D01*
G01X0050229Y-044052D02*
G01X0050235Y-044026D01*
G01X0050235Y-044026D02*
G01X0050240Y-043993D01*
G01X0050240Y-043993D02*
G01X0050242Y-043948D01*
G01X0050242Y-043948D02*
G01X0050244Y-043887D01*
G01X0050244Y-043887D02*
G01X0050243Y-043804D01*
G01X0050243Y-043804D02*
G01X0050243Y-043731D01*
G01X0050243Y-043731D02*
G01X0050239Y-043445D01*
G01X0050239Y-043445D02*
G01X0050203Y-043445D01*
G01X0050203Y-043445D02*
G01X0050203Y-043396D01*
G01X0050203Y-043396D02*
G01X0050220Y-043393D01*
G01X0050220Y-043393D02*
G01X0050232Y-043380D01*
G01X0050232Y-043380D02*
G01X0050240Y-043354D01*
G01X0050240Y-043354D02*
G01X0050244Y-043311D01*
G01X0050244Y-043311D02*
G01X0050246Y-043248D01*
G01X0050246Y-043248D02*
G01X0050246Y-043160D01*
G01X0050246Y-043160D02*
G01X0050246Y-043138D01*
G01X0050246Y-043138D02*
G01X0050245Y-043034D01*
G01X0050245Y-043034D02*
G01X0050243Y-042955D01*
G01X0050243Y-042955D02*
G01X0050238Y-042897D01*
G01X0050238Y-042897D02*
G01X0050231Y-042859D01*
G01X0050231Y-042859D02*
G01X0050226Y-042846D01*
G01X0050226Y-042846D02*
G01X0050191Y-042794D01*
G01X0050191Y-042794D02*
G01X0050142Y-042762D01*
G01X0050142Y-042762D02*
G01X0050086Y-042751D01*
G01X0050086Y-042751D02*
G01X0050029Y-042764D01*
G01X0050029Y-042764D02*
G01X0049994Y-042786D01*
G01X0049994Y-042786D02*
G01X0049979Y-042800D01*
G01X0049979Y-042800D02*
G01X0049968Y-042816D01*
G01X0049968Y-042816D02*
G01X0049960Y-042838D01*
G01X0049960Y-042838D02*
G01X0049954Y-042871D01*
G01X0049954Y-042871D02*
G01X0049950Y-042921D01*
G01X0049950Y-042921D02*
G01X0049946Y-042992D01*
G01X0049946Y-042992D02*
G01X0049945Y-043022D01*
G01X0049945Y-043022D02*
G01X0049939Y-043115D01*
G01X0049939Y-043115D02*
G01X0049934Y-043183D01*
G01X0049934Y-043183D02*
G01X0049928Y-043229D01*
G01X0049928Y-043229D02*
G01X0049920Y-043258D01*
G01X0049920Y-043258D02*
G01X0049910Y-043274D01*
G01X0049910Y-043274D02*
G01X0049897Y-043279D01*
G01X0049897Y-043279D02*
G01X0049884Y-043278D01*
G01X0049884Y-043278D02*
G01X0049869Y-043273D01*
G01X0049869Y-043273D02*
G01X0049858Y-043260D01*
G01X0049858Y-043260D02*
G01X0049852Y-043232D01*
G01X0049852Y-043232D02*
G01X0049848Y-043183D01*
G01X0049848Y-043183D02*
G01X0049846Y-043164D01*
G01X0049846Y-043164D02*
G01X0049840Y-043095D01*
G01X0049840Y-043095D02*
G01X0049828Y-043052D01*
G01X0049828Y-043052D02*
G01X0049811Y-043031D01*
G01X0049811Y-043031D02*
G01X0049787Y-043028D01*
G01X0049787Y-043028D02*
G01X0049776Y-043030D01*
G01X0049776Y-043030D02*
G01X0049762Y-043037D01*
G01X0049762Y-043037D02*
G01X0049753Y-043051D01*
G01X0049753Y-043051D02*
G01X0049748Y-043077D01*
G01X0049748Y-043077D02*
G01X0049747Y-043122D01*
G01X0049747Y-043122D02*
G01X0049746Y-043165D01*
G01X0049746Y-043165D02*
G01X0049747Y-043230D01*
G01X0049747Y-043230D02*
G01X0049752Y-043274D01*
G01X0049752Y-043274D02*
G01X0049761Y-043307D01*
G01X0049761Y-043307D02*
G01X0049776Y-043335D01*
G01X0049776Y-043335D02*
G01X0049779Y-043339D01*
G01X0049779Y-043339D02*
G01X0049807Y-043373D01*
G01X0049807Y-043373D02*
G01X0049839Y-043388D01*
G01X0049839Y-043388D02*
G01X0049871Y-043392D01*
G01X0049871Y-043392D02*
G01X0049923Y-043392D01*
G01X0049923Y-043392D02*
G01X0049964Y-043380D01*
G01X0049964Y-043380D02*
G01X0049994Y-043353D01*
G01X0049994Y-043353D02*
G01X0050016Y-043308D01*
G01X0050016Y-043308D02*
G01X0050030Y-043243D01*
G01X0050030Y-043243D02*
G01X0050040Y-043155D01*
G01X0050040Y-043155D02*
G01X0050044Y-043082D01*
G01X0050044Y-043082D02*
G01X0050053Y-042888D01*
G01X0050053Y-042888D02*
G01X0050093Y-042883D01*
G01X0050093Y-042883D02*
G01X0050122Y-042882D01*
G01X0050122Y-042882D02*
G01X0050135Y-042883D01*
G01X0050135Y-042883D02*
G01X0050136Y-042898D01*
G01X0050136Y-042898D02*
G01X0050138Y-042937D01*
G01X0050138Y-042937D02*
G01X0050140Y-042995D01*
G01X0050140Y-042995D02*
G01X0050143Y-043068D01*
G01X0050143Y-043068D02*
G01X0050145Y-043138D01*
G01X0050145Y-043138D02*
G01X0050149Y-043228D01*
G01X0050149Y-043228D02*
G01X0050152Y-043294D01*
G01X0050152Y-043294D02*
G01X0050155Y-043339D01*
G01X0050155Y-043339D02*
G01X0050160Y-043368D01*
G01X0050160Y-043368D02*
G01X0050166Y-043384D01*
G01X0050166Y-043384D02*
G01X0050174Y-043391D01*
G01X0050174Y-043391D02*
G01X0050179Y-043393D01*
G01X0050179Y-043393D02*
G01X0050203Y-043396D01*
G01X0050203Y-043396D02*
G01X0050203Y-043445D01*
G01X0050203Y-043445D02*
G01X0050153Y-043445D01*
G01X0050153Y-043445D02*
G01X0050146Y-043724D01*
G01X0050146Y-043724D02*
G01X0050144Y-043811D01*
G01X0050144Y-043811D02*
G01X0050140Y-043889D01*
G01X0050140Y-043889D02*
G01X0050136Y-043952D01*
G01X0050136Y-043952D02*
G01X0050132Y-043998D01*
G01X0050132Y-043998D02*
G01X0050128Y-044019D01*
G01X0050128Y-044019D02*
G01X0050128Y-044020D01*
G01X0050128Y-044020D02*
G01X0050108Y-044029D01*
G01X0050108Y-044029D02*
G01X0050068Y-044035D01*
G01X0050068Y-044035D02*
G01X0050017Y-044038D01*
G01X0050017Y-044038D02*
G01X0049962Y-044038D01*
G01X0049962Y-044038D02*
G01X0049912Y-044034D01*
G01X0049912Y-044034D02*
G01X0049876Y-044027D01*
G01X0049876Y-044027D02*
G01X0049863Y-044021D01*
G01X0049863Y-044021D02*
G01X0049857Y-044003D01*
G01X0049857Y-044003D02*
G01X0049852Y-043963D01*
G01X0049852Y-043963D02*
G01X0049848Y-043900D01*
G01X0049848Y-043900D02*
G01X0049847Y-043812D01*
G01X0049847Y-043812D02*
G01X0049846Y-043743D01*
G01X0049846Y-043743D02*
G01X0049846Y-043659D01*
G01X0049846Y-043659D02*
G01X0049845Y-043583D01*
G01X0049845Y-043583D02*
G01X0049843Y-043521D01*
G01X0049843Y-043521D02*
G01X0049840Y-043479D01*
G01X0049840Y-043479D02*
G01X0049838Y-043461D01*
G01X0049838Y-043461D02*
G01X0049817Y-043443D01*
G01X0049817Y-043443D02*
G01X0049788Y-043438D01*
G01X0049788Y-043438D02*
G01X0049746Y-043438D01*
G01X0049746Y-043438D02*
G01X0049746Y-043739D01*
G01X0049746Y-043739D02*
G01X0049747Y-043851D01*
G01X0049747Y-043851D02*
G01X0049749Y-043939D01*
G01X0049749Y-043939D02*
G01X0049753Y-044006D01*
G01X0049753Y-044006D02*
G01X0049760Y-044055D01*
G01X0049760Y-044055D02*
G01X0049771Y-044089D01*
G01X0049771Y-044089D02*
G01X0049785Y-044113D01*
G01X0049785Y-044113D02*
G01X0049804Y-044130D01*
G01X0049804Y-044130D02*
G01X0049817Y-044137D01*
G01X0049817Y-044137D02*
G01X0049842Y-044143D01*
G01X0049842Y-044143D02*
G01X0049889Y-044148D01*
G01X0049889Y-044148D02*
G01X0049948Y-044151D01*
G01X0049948Y-044151D02*
G01X0050013Y-044152D01*
G01X0050013Y-044152D02*
G01X0050013Y-044227D01*
G01X0050013Y-044227D02*
G01X0049997Y-044227D01*
G01X0049997Y-044227D02*
G01X0049902Y-044226D01*
G01X0049902Y-044226D02*
G01X0049832Y-044227D01*
G01X0049832Y-044227D02*
G01X0049785Y-044229D01*
G01X0049785Y-044229D02*
G01X0049756Y-044234D01*
G01X0049756Y-044234D02*
G01X0049745Y-044241D01*
G01X0049745Y-044241D02*
G01X0049733Y-044249D01*
G01X0049733Y-044249D02*
G01X0049724Y-044234D01*
G01X0049724Y-044234D02*
G01X0049704Y-044215D01*
G01X0049704Y-044215D02*
G01X0049672Y-044209D01*
G01X0049672Y-044209D02*
G01X0049642Y-044216D01*
G01X0049642Y-044216D02*
G01X0049626Y-044232D01*
G01X0049626Y-044232D02*
G01X0049617Y-044281D01*
G01X0049617Y-044281D02*
G01X0049626Y-044320D01*
G01X0049626Y-044320D02*
G01X0049648Y-044344D01*
G01X0049648Y-044344D02*
G01X0049680Y-044350D01*
G01X0049680Y-044350D02*
G01X0049680Y-046000D01*
G01X0049680Y-046000D02*
G01X0049664Y-045998D01*
G01X0049664Y-045998D02*
G01X0049638Y-046001D01*
G01X0049638Y-046001D02*
G01X0049603Y-046010D01*
G01X0049603Y-046010D02*
G01X0049603Y-046709D01*
G01X0049603Y-046709D02*
G01X0049603Y-049383D01*
G01X0049603Y-049383D02*
G01X0049564Y-049241D01*
G01X0049564Y-049241D02*
G01X0049549Y-049181D01*
G01X0049549Y-049181D02*
G01X0049488Y-048905D01*
G01X0049488Y-048905D02*
G01X0049434Y-048601D01*
G01X0049434Y-048601D02*
G01X0049387Y-048270D01*
G01X0049387Y-048270D02*
G01X0049346Y-047913D01*
G01X0049346Y-047913D02*
G01X0049312Y-047529D01*
G01X0049312Y-047529D02*
G01X0049285Y-047119D01*
G01X0049285Y-047119D02*
G01X0049275Y-046939D01*
G01X0049275Y-046939D02*
G01X0049271Y-046834D01*
G01X0049271Y-046834D02*
G01X0049267Y-046705D01*
G01X0049267Y-046705D02*
G01X0049265Y-046557D01*
G01X0049265Y-046557D02*
G01X0049263Y-046394D01*
G01X0049263Y-046394D02*
G01X0049262Y-046221D01*
G01X0049262Y-046221D02*
G01X0049261Y-046042D01*
G01X0049261Y-046042D02*
G01X0049261Y-045863D01*
G36*
G01X0060182Y-047995D02*
G01X0060183Y-048112D01*
G01X0060186Y-048215D01*
G01X0060189Y-048295D01*
G01X0060194Y-048343D01*
G01X0060196Y-048351D01*
G01X0060208Y-048365D01*
G01X0060235Y-048375D01*
G01X0060284Y-048381D01*
G01X0060362Y-048385D01*
G01X0060476Y-048386D01*
G01X0060507Y-048386D01*
G01X0060804Y-048386D01*
G01X0060804Y-048541D01*
G01X0059449Y-048541D01*
G01X0059449Y-048386D01*
G01X0060049Y-048386D01*
G01X0060049Y-047675D01*
G01X0060182Y-047675D01*
G01X0060182Y-047995D01*
G01X0060182Y-047995D01*
G37*
G01X0060182Y-047995D02*
G01X0060183Y-048112D01*
G01X0060183Y-048112D02*
G01X0060186Y-048215D01*
G01X0060186Y-048215D02*
G01X0060189Y-048295D01*
G01X0060189Y-048295D02*
G01X0060194Y-048343D01*
G01X0060194Y-048343D02*
G01X0060196Y-048351D01*
G01X0060196Y-048351D02*
G01X0060208Y-048365D01*
G01X0060208Y-048365D02*
G01X0060235Y-048375D01*
G01X0060235Y-048375D02*
G01X0060284Y-048381D01*
G01X0060284Y-048381D02*
G01X0060362Y-048385D01*
G01X0060362Y-048385D02*
G01X0060476Y-048386D01*
G01X0060476Y-048386D02*
G01X0060507Y-048386D01*
G01X0060507Y-048386D02*
G01X0060804Y-048386D01*
G01X0060804Y-048386D02*
G01X0060804Y-048541D01*
G01X0060804Y-048541D02*
G01X0059449Y-048541D01*
G01X0059449Y-048541D02*
G01X0059449Y-048386D01*
G01X0059449Y-048386D02*
G01X0060049Y-048386D01*
G01X0060049Y-048386D02*
G01X0060049Y-047675D01*
G01X0060049Y-047675D02*
G01X0060182Y-047675D01*
G01X0060182Y-047675D02*
G01X0060182Y-047995D01*
G36*
G01X0060121Y-048658D02*
G01X0060571Y-048664D01*
G01X0060578Y-048736D01*
G01X0060585Y-048808D01*
G01X0059671Y-048808D01*
G01X0059671Y-048652D01*
G01X0060121Y-048658D01*
G01X0060121Y-048658D01*
G37*
G01X0060121Y-048658D02*
G01X0060571Y-048664D01*
G01X0060571Y-048664D02*
G01X0060578Y-048736D01*
G01X0060578Y-048736D02*
G01X0060585Y-048808D01*
G01X0060585Y-048808D02*
G01X0059671Y-048808D01*
G01X0059671Y-048808D02*
G01X0059671Y-048652D01*
G01X0059671Y-048652D02*
G01X0060121Y-048658D01*
G36*
G01X0060360Y-049075D02*
G01X0060130Y-049075D01*
G01X0060033Y-049073D01*
G01X0059954Y-049070D01*
G01X0059901Y-049064D01*
G01X0059886Y-049060D01*
G01X0059874Y-049028D01*
G01X0059871Y-048993D01*
G01X0059873Y-048971D01*
G01X0059883Y-048956D01*
G01X0059909Y-048947D01*
G01X0059958Y-048943D01*
G01X0060040Y-048941D01*
G01X0060116Y-048941D01*
G01X0060360Y-048941D01*
G01X0060360Y-049075D01*
G01X0060360Y-049075D01*
G37*
G01X0060360Y-049075D02*
G01X0060130Y-049075D01*
G01X0060130Y-049075D02*
G01X0060033Y-049073D01*
G01X0060033Y-049073D02*
G01X0059954Y-049070D01*
G01X0059954Y-049070D02*
G01X0059901Y-049064D01*
G01X0059901Y-049064D02*
G01X0059886Y-049060D01*
G01X0059886Y-049060D02*
G01X0059874Y-049028D01*
G01X0059874Y-049028D02*
G01X0059871Y-048993D01*
G01X0059871Y-048993D02*
G01X0059873Y-048971D01*
G01X0059873Y-048971D02*
G01X0059883Y-048956D01*
G01X0059883Y-048956D02*
G01X0059909Y-048947D01*
G01X0059909Y-048947D02*
G01X0059958Y-048943D01*
G01X0059958Y-048943D02*
G01X0060040Y-048941D01*
G01X0060040Y-048941D02*
G01X0060116Y-048941D01*
G01X0060116Y-048941D02*
G01X0060360Y-048941D01*
G01X0060360Y-048941D02*
G01X0060360Y-049075D01*
G36*
G01X0060293Y-047380D02*
G01X0060483Y-047434D01*
G01X0060659Y-047524D01*
G01X0060816Y-047645D01*
G01X0060949Y-047794D01*
G01X0061051Y-047968D01*
G01X0061095Y-048080D01*
G01X0061119Y-048165D01*
G01X0061132Y-048245D01*
G01X0061137Y-048336D01*
G01X0061134Y-048447D01*
G01X0061128Y-048556D01*
G01X0061118Y-048637D01*
G01X0061099Y-048708D01*
G01X0061068Y-048784D01*
G01X0061046Y-048831D01*
G01X0060937Y-049016D01*
G01X0060801Y-049166D01*
G01X0060638Y-049282D01*
G01X0060444Y-049365D01*
G01X0060371Y-049386D01*
G01X0060246Y-049414D01*
G01X0060142Y-049426D01*
G01X0060042Y-049422D01*
G01X0059925Y-049402D01*
G01X0059899Y-049397D01*
G01X0059705Y-049333D01*
G01X0059530Y-049231D01*
G01X0059378Y-049096D01*
G01X0059253Y-048933D01*
G01X0059161Y-048746D01*
G01X0059126Y-048637D01*
G01X0059102Y-048471D01*
G01X0059242Y-048471D01*
G01X0059275Y-048647D01*
G01X0059344Y-048815D01*
G01X0059449Y-048970D01*
G01X0059519Y-049043D01*
G01X0059678Y-049164D01*
G01X0059851Y-049242D01*
G01X0060037Y-049279D01*
G01X0060236Y-049273D01*
G01X0060396Y-049240D01*
G01X0060502Y-049197D01*
G01X0060616Y-049128D01*
G01X0060724Y-049044D01*
G01X0060810Y-048956D01*
G01X0060831Y-048929D01*
G01X0060904Y-048813D01*
G01X0060952Y-048709D01*
G01X0060980Y-048602D01*
G01X0060992Y-048475D01*
G01X0060993Y-048386D01*
G01X0060992Y-048278D01*
G01X0060988Y-048200D01*
G01X0060977Y-048140D01*
G01X0060957Y-048082D01*
G01X0060925Y-048013D01*
G01X0060921Y-048004D01*
G01X0060835Y-047867D01*
G01X0060719Y-047739D01*
G01X0060587Y-047633D01*
G01X0060451Y-047559D01*
G01X0060372Y-047533D01*
G01X0060289Y-047517D01*
G01X0060187Y-047510D01*
G01X0060116Y-047509D01*
G01X0060011Y-047510D01*
G01X0059935Y-047516D01*
G01X0059872Y-047531D01*
G01X0059805Y-047556D01*
G01X0059754Y-047580D01*
G01X0059589Y-047680D01*
G01X0059455Y-047807D01*
G01X0059352Y-047956D01*
G01X0059282Y-048120D01*
G01X0059245Y-048294D01*
G01X0059242Y-048471D01*
G01X0059102Y-048471D01*
G01X0059097Y-048441D01*
G01X0059109Y-048245D01*
G01X0059158Y-048056D01*
G01X0059241Y-047879D01*
G01X0059355Y-047719D01*
G01X0059496Y-047583D01*
G01X0059661Y-047474D01*
G01X0059847Y-047400D01*
G01X0059896Y-047387D01*
G01X0060096Y-047363D01*
G01X0060293Y-047380D01*
G01X0060293Y-047380D01*
G37*
G01X0060293Y-047380D02*
G01X0060483Y-047434D01*
G01X0060483Y-047434D02*
G01X0060659Y-047524D01*
G01X0060659Y-047524D02*
G01X0060816Y-047645D01*
G01X0060816Y-047645D02*
G01X0060949Y-047794D01*
G01X0060949Y-047794D02*
G01X0061051Y-047968D01*
G01X0061051Y-047968D02*
G01X0061095Y-048080D01*
G01X0061095Y-048080D02*
G01X0061119Y-048165D01*
G01X0061119Y-048165D02*
G01X0061132Y-048245D01*
G01X0061132Y-048245D02*
G01X0061137Y-048336D01*
G01X0061137Y-048336D02*
G01X0061134Y-048447D01*
G01X0061134Y-048447D02*
G01X0061128Y-048556D01*
G01X0061128Y-048556D02*
G01X0061118Y-048637D01*
G01X0061118Y-048637D02*
G01X0061099Y-048708D01*
G01X0061099Y-048708D02*
G01X0061068Y-048784D01*
G01X0061068Y-048784D02*
G01X0061046Y-048831D01*
G01X0061046Y-048831D02*
G01X0060937Y-049016D01*
G01X0060937Y-049016D02*
G01X0060801Y-049166D01*
G01X0060801Y-049166D02*
G01X0060638Y-049282D01*
G01X0060638Y-049282D02*
G01X0060444Y-049365D01*
G01X0060444Y-049365D02*
G01X0060371Y-049386D01*
G01X0060371Y-049386D02*
G01X0060246Y-049414D01*
G01X0060246Y-049414D02*
G01X0060142Y-049426D01*
G01X0060142Y-049426D02*
G01X0060042Y-049422D01*
G01X0060042Y-049422D02*
G01X0059925Y-049402D01*
G01X0059925Y-049402D02*
G01X0059899Y-049397D01*
G01X0059899Y-049397D02*
G01X0059705Y-049333D01*
G01X0059705Y-049333D02*
G01X0059530Y-049231D01*
G01X0059530Y-049231D02*
G01X0059378Y-049096D01*
G01X0059378Y-049096D02*
G01X0059253Y-048933D01*
G01X0059253Y-048933D02*
G01X0059161Y-048746D01*
G01X0059161Y-048746D02*
G01X0059126Y-048637D01*
G01X0059126Y-048637D02*
G01X0059102Y-048471D01*
G01X0059102Y-048471D02*
G01X0059242Y-048471D01*
G01X0059242Y-048471D02*
G01X0059275Y-048647D01*
G01X0059275Y-048647D02*
G01X0059344Y-048815D01*
G01X0059344Y-048815D02*
G01X0059449Y-048970D01*
G01X0059449Y-048970D02*
G01X0059519Y-049043D01*
G01X0059519Y-049043D02*
G01X0059678Y-049164D01*
G01X0059678Y-049164D02*
G01X0059851Y-049242D01*
G01X0059851Y-049242D02*
G01X0060037Y-049279D01*
G01X0060037Y-049279D02*
G01X0060236Y-049273D01*
G01X0060236Y-049273D02*
G01X0060396Y-049240D01*
G01X0060396Y-049240D02*
G01X0060502Y-049197D01*
G01X0060502Y-049197D02*
G01X0060616Y-049128D01*
G01X0060616Y-049128D02*
G01X0060724Y-049044D01*
G01X0060724Y-049044D02*
G01X0060810Y-048956D01*
G01X0060810Y-048956D02*
G01X0060831Y-048929D01*
G01X0060831Y-048929D02*
G01X0060904Y-048813D01*
G01X0060904Y-048813D02*
G01X0060952Y-048709D01*
G01X0060952Y-048709D02*
G01X0060980Y-048602D01*
G01X0060980Y-048602D02*
G01X0060992Y-048475D01*
G01X0060992Y-048475D02*
G01X0060993Y-048386D01*
G01X0060993Y-048386D02*
G01X0060992Y-048278D01*
G01X0060992Y-048278D02*
G01X0060988Y-048200D01*
G01X0060988Y-048200D02*
G01X0060977Y-048140D01*
G01X0060977Y-048140D02*
G01X0060957Y-048082D01*
G01X0060957Y-048082D02*
G01X0060925Y-048013D01*
G01X0060925Y-048013D02*
G01X0060921Y-048004D01*
G01X0060921Y-048004D02*
G01X0060835Y-047867D01*
G01X0060835Y-047867D02*
G01X0060719Y-047739D01*
G01X0060719Y-047739D02*
G01X0060587Y-047633D01*
G01X0060587Y-047633D02*
G01X0060451Y-047559D01*
G01X0060451Y-047559D02*
G01X0060372Y-047533D01*
G01X0060372Y-047533D02*
G01X0060289Y-047517D01*
G01X0060289Y-047517D02*
G01X0060187Y-047510D01*
G01X0060187Y-047510D02*
G01X0060116Y-047509D01*
G01X0060116Y-047509D02*
G01X0060011Y-047510D01*
G01X0060011Y-047510D02*
G01X0059935Y-047516D01*
G01X0059935Y-047516D02*
G01X0059872Y-047531D01*
G01X0059872Y-047531D02*
G01X0059805Y-047556D01*
G01X0059805Y-047556D02*
G01X0059754Y-047580D01*
G01X0059754Y-047580D02*
G01X0059589Y-047680D01*
G01X0059589Y-047680D02*
G01X0059455Y-047807D01*
G01X0059455Y-047807D02*
G01X0059352Y-047956D01*
G01X0059352Y-047956D02*
G01X0059282Y-048120D01*
G01X0059282Y-048120D02*
G01X0059245Y-048294D01*
G01X0059245Y-048294D02*
G01X0059242Y-048471D01*
G01X0059242Y-048471D02*
G01X0059102Y-048471D01*
G01X0059102Y-048471D02*
G01X0059097Y-048441D01*
G01X0059097Y-048441D02*
G01X0059109Y-048245D01*
G01X0059109Y-048245D02*
G01X0059158Y-048056D01*
G01X0059158Y-048056D02*
G01X0059241Y-047879D01*
G01X0059241Y-047879D02*
G01X0059355Y-047719D01*
G01X0059355Y-047719D02*
G01X0059496Y-047583D01*
G01X0059496Y-047583D02*
G01X0059661Y-047474D01*
G01X0059661Y-047474D02*
G01X0059847Y-047400D01*
G01X0059847Y-047400D02*
G01X0059896Y-047387D01*
G01X0059896Y-047387D02*
G01X0060096Y-047363D01*
G01X0060096Y-047363D02*
G01X0060293Y-047380D01*
G54D14*
G01X0051419Y-041804D02*
G01X0051291Y-041804D01*
G01X0051419Y-042206D02*
G01X0051291Y-042206D01*
G01X0048949Y-034024D02*
G01X0048425Y-034024D01*
G01X0048949Y-033500D02*
G01X0048949Y-034024D01*
G01X0048949Y-033000D02*
G01X0047901Y-033000D01*
G01X0047901Y-033000D02*
G01X0047901Y-031976D01*
G01X0048949Y-033000D02*
G01X0048949Y-031976D01*
G01X0048949Y-031976D02*
G01X0047901Y-031976D01*
G54D12*
G01X0047479Y-038310D02*
G01X0047321Y-038310D01*
G01X0047479Y-039570D02*
G01X0047321Y-039570D01*
G54D14*
G01X0057657Y-032829D02*
G01X0057657Y-034364D01*
G01X0056870Y-032829D02*
G01X0056870Y-034364D01*
G01X0057657Y-032829D02*
G01X0056870Y-032829D01*
G01X0057657Y-035600D02*
G01X0057657Y-037135D01*
G01X0056870Y-035600D02*
G01X0056870Y-037135D01*
G01X0057657Y-035600D02*
G01X0056870Y-035600D01*
G01X0057657Y-038429D02*
G01X0057657Y-039964D01*
G01X0056870Y-038429D02*
G01X0056870Y-039964D01*
G01X0057657Y-038429D02*
G01X0056870Y-038429D01*
G01X0057657Y-041200D02*
G01X0057657Y-042735D01*
G01X0056870Y-041200D02*
G01X0056870Y-042735D01*
G01X0057657Y-041200D02*
G01X0056870Y-041200D01*
G01X0057657Y-044035D02*
G01X0057657Y-045571D01*
G01X0056870Y-044035D02*
G01X0056870Y-045571D01*
G01X0057657Y-044035D02*
G01X0056870Y-044035D01*
G01X0057657Y-046786D02*
G01X0057657Y-048321D01*
G01X0056870Y-046786D02*
G01X0056870Y-048321D01*
G01X0057657Y-046786D02*
G01X0056870Y-046786D01*
G01X0058404Y-033951D02*
G01X0058404Y-033477D01*
G01X0057687Y-033951D02*
G01X0057687Y-033477D01*
G01X0058404Y-036723D02*
G01X0058404Y-036249D01*
G01X0057687Y-036723D02*
G01X0057687Y-036249D01*
G01X0058404Y-039551D02*
G01X0058404Y-039077D01*
G01X0057687Y-039551D02*
G01X0057687Y-039077D01*
G01X0058404Y-042323D02*
G01X0058404Y-041849D01*
G01X0057687Y-042323D02*
G01X0057687Y-041849D01*
G01X0058404Y-045158D02*
G01X0058404Y-044684D01*
G01X0057687Y-045158D02*
G01X0057687Y-044684D01*
G01X0058404Y-047909D02*
G01X0058404Y-047435D01*
G01X0057687Y-047909D02*
G01X0057687Y-047435D01*
G01X0053039Y-048724D02*
G01X0053688Y-048724D01*
G01X0053039Y-046676D02*
G01X0053039Y-048724D01*
G01X0055125Y-046676D02*
G01X0053039Y-046676D01*
G01X0055125Y-048724D02*
G01X0055125Y-046676D01*
G01X0054476Y-048724D02*
G01X0055125Y-048724D01*
G01X0053688Y-048724D02*
G75*
G02X0054476Y-048724I0000394J0000000D01*
G01X0053039Y-045924D02*
G01X0053688Y-045924D01*
G01X0053039Y-043876D02*
G01X0053039Y-045924D01*
G01X0055125Y-043876D02*
G01X0053039Y-043876D01*
G01X0055125Y-045924D02*
G01X0055125Y-043876D01*
G01X0054476Y-045924D02*
G01X0055125Y-045924D01*
G01X0053688Y-045924D02*
G75*
G02X0054476Y-045924I0000394J0000000D01*
G01X0053039Y-043124D02*
G01X0053688Y-043124D01*
G01X0053039Y-041076D02*
G01X0053039Y-043124D01*
G01X0055125Y-041076D02*
G01X0053039Y-041076D01*
G01X0055125Y-043124D02*
G01X0055125Y-041076D01*
G01X0054476Y-043124D02*
G01X0055125Y-043124D01*
G01X0053688Y-043124D02*
G75*
G02X0054476Y-043124I0000394J0000000D01*
G01X0053039Y-040324D02*
G01X0053688Y-040324D01*
G01X0053039Y-038276D02*
G01X0053039Y-040324D01*
G01X0055125Y-038276D02*
G01X0053039Y-038276D01*
G01X0055125Y-040324D02*
G01X0055125Y-038276D01*
G01X0054476Y-040324D02*
G01X0055125Y-040324D01*
G01X0053688Y-040324D02*
G75*
G02X0054476Y-040324I0000394J0000000D01*
G01X0053039Y-037524D02*
G01X0053688Y-037524D01*
G01X0053039Y-035476D02*
G01X0053039Y-037524D01*
G01X0055125Y-035476D02*
G01X0053039Y-035476D01*
G01X0055125Y-037524D02*
G01X0055125Y-035476D01*
G01X0054476Y-037524D02*
G01X0055125Y-037524D01*
G01X0053688Y-037524D02*
G75*
G02X0054476Y-037524I0000394J0000000D01*
G54D12*
G01X0063858Y-033142D02*
G01X0059134Y-033142D01*
G01X0063858Y-039638D02*
G01X0063858Y-033142D01*
G01X0059134Y-039638D02*
G01X0063858Y-039638D01*
G01X0059134Y-033142D02*
G01X0059134Y-039638D01*
G01X0063858Y-040846D02*
G01X0059134Y-040846D01*
G01X0063858Y-047343D02*
G01X0063858Y-040846D01*
G01X0059134Y-047343D02*
G01X0063858Y-047343D01*
G01X0059134Y-040846D02*
G01X0059134Y-047343D01*
G54D16*
G01X0047780Y-043347D02*
G75*
G03X0047780Y-043387I0000000J-000020D01*
G01X0047780Y-043387D02*
G75*
G03X0047780Y-043347I0000000J0000020D01*
G01X0047780Y-043387D02*
G01X0047780Y-043387D01*
G01X0047780Y-043347D02*
G01X0047780Y-043347D01*
G54D12*
G01X0048648Y-040284D02*
G01X0048648Y-043060D01*
G01X0040912Y-040284D02*
G01X0048648Y-040284D01*
G01X0040912Y-043060D02*
G01X0040912Y-040284D01*
G01X0048648Y-043060D02*
G01X0040912Y-043060D01*
G54D14*
G01X0051444Y-037059D02*
G01X0051316Y-037059D01*
G01X0051444Y-037461D02*
G01X0051316Y-037461D01*
G54D11*
G01X0050512Y-035243D02*
G01X0050502Y-035243D01*
G01X0050512Y-036877D02*
G01X0050467Y-036877D01*
G01X0047008Y-036877D02*
G01X0047053Y-036877D01*
G01X0047008Y-035243D02*
G01X0047053Y-035243D01*
G01X0050512Y-035243D02*
G01X0050512Y-036877D01*
G01X0047008Y-035243D02*
G01X0047008Y-036877D01*
G01X0050502Y-035243D02*
G01X0050502Y-034702D01*
G54D12*
G01X0047087Y-044047D02*
G01X0042362Y-044047D01*
G01X0047087Y-050543D02*
G01X0047087Y-044047D01*
G01X0042362Y-050543D02*
G01X0047087Y-050543D01*
G01X0042362Y-044047D02*
G01X0042362Y-050543D01*
G01X0045591Y-039862D02*
G01X0045591Y-033760D01*
G01X0045591Y-033760D02*
G01X0040866Y-033760D01*
G01X0040866Y-033760D02*
G01X0040866Y-039862D01*
G01X0040866Y-039862D02*
G01X0045591Y-039862D01*
G54D14*
G01X0049846Y-041418D02*
G01X0049846Y-040944D01*
G01X0049130Y-041418D02*
G01X0049130Y-040944D01*
G01X0038654Y-036018D02*
G01X0038654Y-033774D01*
G01X0040346Y-036018D02*
G01X0040346Y-033774D01*
G01X0038654Y-036018D02*
G01X0040346Y-036018D01*
G01X0053039Y-034724D02*
G01X0053688Y-034724D01*
G01X0053039Y-032676D02*
G01X0053039Y-034724D01*
G01X0055125Y-032676D02*
G01X0053039Y-032676D01*
G01X0055125Y-034724D02*
G01X0055125Y-032676D01*
G01X0054476Y-034724D02*
G01X0055125Y-034724D01*
G01X0053688Y-034724D02*
G75*
G02X0054476Y-034724I0000394J0000000D01*
G01X0051163Y-036701D02*
G01X0051557Y-036701D01*
G01X0051163Y-035379D02*
G01X0051557Y-035379D01*
G01X0051103Y-041361D02*
G01X0051497Y-041361D01*
G01X0051103Y-040039D02*
G01X0051497Y-040039D01*
G01X0051143Y-045505D02*
G01X0051537Y-045505D01*
G01X0051143Y-044182D02*
G01X0051537Y-044182D01*
G54D12*
G01X0060256Y-049311D02*
G01X0060256Y-049311D01*
G01X0058256Y-049006D02*
G01X0058256Y-049006D01*
G01X0058256Y-049006D02*
G01X0058256Y-049006D01*
G54D14*
G01X0051669Y-033878D02*
G01X0051669Y-034006D01*
G01X0052071Y-033878D02*
G01X0052071Y-034006D01*
G01X0046413Y-031217D02*
G01X0046284Y-031217D01*
G01X0046413Y-031618D02*
G01X0046284Y-031618D01*
G01X0045065Y-031663D02*
G01X0045065Y-031791D01*
G01X0045467Y-031663D02*
G01X0045467Y-031791D01*
G01X0041323Y-032471D02*
G01X0041323Y-032342D01*
G01X0040921Y-032471D02*
G01X0040921Y-032342D01*
G54D13*
G01X0045669Y-034291D02*
G01X0045669Y-033740D01*
G01X0046850Y-033602D02*
G01X0045669Y-033602D01*
G01X0046850Y-032697D02*
G01X0046850Y-033602D01*
G01X0045669Y-032697D02*
G01X0046850Y-032697D01*
G01X0045669Y-033602D02*
G01X0045669Y-032697D01*
G54D12*
G01X0042018Y-033307D02*
G75*
G03X0042057Y-033307I0000020J0000000D01*
G01X0042057Y-033307D02*
G75*
G03X0042018Y-033307I-000020J0000000D01*
G01X0042057Y-033307D02*
G01X0042057Y-033307D01*
G01X0042018Y-033307D02*
G01X0042018Y-033307D01*
G01X0042687Y-032362D02*
G01X0042687Y-033150D01*
G01X0041900Y-032362D02*
G01X0041900Y-033150D01*
G01X0043848Y-032205D02*
G75*
G03X0043809Y-032205I-000020J0000000D01*
G01X0043809Y-032205D02*
G75*
G03X0043848Y-032205I0000020J0000000D01*
G01X0043809Y-032205D02*
G01X0043809Y-032205D01*
G01X0043848Y-032205D02*
G01X0043848Y-032205D01*
G01X0043179Y-033150D02*
G01X0043179Y-032362D01*
G01X0043967Y-033150D02*
G01X0043967Y-032362D01*
G54D14*
G01X0047012Y-036160D02*
G01X0047012Y-035103D01*
G01X0046256Y-036160D02*
G01X0047012Y-036160D01*
G01X0046256Y-035103D02*
G01X0046256Y-036160D01*
G01X0046433Y-036732D02*
G01X0046433Y-036860D01*
G01X0046835Y-036732D02*
G01X0046835Y-036860D01*
G01X0040487Y-047091D02*
G01X0040615Y-047091D01*
G01X0040487Y-046689D02*
G01X0040615Y-046689D01*
G01X0042716Y-043744D02*
G01X0042844Y-043744D01*
G01X0042716Y-043343D02*
G01X0042844Y-043343D01*
G01X0040511Y-045909D02*
G01X0040985Y-045909D01*
G01X0040511Y-045193D02*
G01X0040985Y-045193D01*
G01X0040862Y-044268D02*
G01X0040862Y-044472D01*
G01X0041421Y-044268D02*
G01X0041421Y-044472D01*
G01X0040035Y-044268D02*
G01X0040035Y-044472D01*
G01X0040594Y-044268D02*
G01X0040594Y-044472D01*
G54D11*
G01X0049252Y-045807D02*
G01X0047441Y-045807D01*
G01X0049252Y-050531D02*
G01X0047441Y-050531D01*
G01X0049252Y-045807D02*
G01X0049252Y-050531D01*
G01X0047441Y-045807D02*
G01X0047441Y-050531D01*
G54D14*
G01X0039996Y-032204D02*
G01X0039996Y-032678D01*
G01X0040713Y-032204D02*
G01X0040713Y-032678D01*
G54D11*
G01X0061185Y-028955D02*
G01X0041185Y-028955D01*
G01X0042185Y-030955D02*
G01X0061185Y-030955D01*
G01X0061185Y-028955D02*
G01X0061185Y-030955D01*
G01X0041185Y-028955D02*
G01X0041185Y-029955D01*
G01X0041075Y-030455D02*
G01X0041075Y-031065D01*
G01X0041185Y-029955D02*
G01X0042185Y-029955D01*
G01X0042185Y-029955D02*
G01X0042185Y-030955D01*
G01X0041075Y-031065D02*
G01X0041685Y-031065D01*
G01X0049602Y-033406D02*
G01X0049602Y-033725D01*
G01X0049602Y-033725D02*
G01X0049620Y-033763D01*
G01X0049620Y-033763D02*
G01X0049639Y-033781D01*
G01X0049639Y-033781D02*
G01X0049677Y-033800D01*
G01X0049677Y-033800D02*
G01X0049752Y-033800D01*
G01X0049752Y-033800D02*
G01X0049789Y-033781D01*
G01X0049789Y-033781D02*
G01X0049808Y-033763D01*
G01X0049808Y-033763D02*
G01X0049827Y-033725D01*
G01X0049827Y-033725D02*
G01X0049827Y-033406D01*
G01X0049995Y-033444D02*
G01X0050014Y-033425D01*
G01X0050014Y-033425D02*
G01X0050052Y-033406D01*
G01X0050052Y-033406D02*
G01X0050145Y-033406D01*
G01X0050145Y-033406D02*
G01X0050183Y-033425D01*
G01X0050183Y-033425D02*
G01X0050202Y-033444D01*
G01X0050202Y-033444D02*
G01X0050220Y-033481D01*
G01X0050220Y-033481D02*
G01X0050220Y-033519D01*
G01X0050220Y-033519D02*
G01X0050202Y-033575D01*
G01X0050202Y-033575D02*
G01X0049977Y-033800D01*
G01X0049977Y-033800D02*
G01X0050220Y-033800D01*
G01X0039745Y-047208D02*
G01X0039351Y-047208D01*
G01X0039351Y-047208D02*
G01X0039351Y-047058D01*
G01X0039351Y-047058D02*
G01X0039370Y-047021D01*
G01X0039370Y-047021D02*
G01X0039389Y-047002D01*
G01X0039389Y-047002D02*
G01X0039426Y-046984D01*
G01X0039426Y-046984D02*
G01X0039483Y-046984D01*
G01X0039483Y-046984D02*
G01X0039520Y-047002D01*
G01X0039520Y-047002D02*
G01X0039539Y-047021D01*
G01X0039539Y-047021D02*
G01X0039558Y-047058D01*
G01X0039558Y-047058D02*
G01X0039558Y-047208D01*
G01X0039351Y-046852D02*
G01X0039745Y-046759D01*
G01X0039745Y-046759D02*
G01X0039464Y-046684D01*
G01X0039464Y-046684D02*
G01X0039745Y-046609D01*
G01X0039745Y-046609D02*
G01X0039351Y-046515D01*
G01X0039745Y-046140D02*
G01X0039558Y-046271D01*
G01X0039745Y-046365D02*
G01X0039351Y-046365D01*
G01X0039351Y-046365D02*
G01X0039351Y-046215D01*
G01X0039351Y-046215D02*
G01X0039370Y-046177D01*
G01X0039370Y-046177D02*
G01X0039389Y-046159D01*
G01X0039389Y-046159D02*
G01X0039426Y-046140D01*
G01X0039426Y-046140D02*
G01X0039483Y-046140D01*
G01X0039483Y-046140D02*
G01X0039520Y-046159D01*
G01X0039520Y-046159D02*
G01X0039539Y-046177D01*
G01X0039539Y-046177D02*
G01X0039558Y-046215D01*
G01X0039558Y-046215D02*
G01X0039558Y-046365D01*
G01X0039745Y-045765D02*
G01X0039745Y-045990D01*
G01X0039745Y-045877D02*
G01X0039351Y-045877D01*
G01X0039351Y-045877D02*
G01X0039408Y-045915D01*
G01X0039408Y-045915D02*
G01X0039445Y-045952D01*
G01X0039445Y-045952D02*
G01X0039464Y-045990D01*
G01X0051017Y-034547D02*
G01X0051004Y-034560D01*
G01X0051004Y-034560D02*
G01X0050965Y-034573D01*
G01X0050965Y-034573D02*
G01X0050938Y-034573D01*
G01X0050938Y-034573D02*
G01X0050899Y-034560D01*
G01X0050899Y-034560D02*
G01X0050873Y-034534D01*
G01X0050873Y-034534D02*
G01X0050860Y-034508D01*
G01X0050860Y-034508D02*
G01X0050846Y-034455D01*
G01X0050846Y-034455D02*
G01X0050846Y-034416D01*
G01X0050846Y-034416D02*
G01X0050860Y-034364D01*
G01X0050860Y-034364D02*
G01X0050873Y-034337D01*
G01X0050873Y-034337D02*
G01X0050899Y-034311D01*
G01X0050899Y-034311D02*
G01X0050938Y-034298D01*
G01X0050938Y-034298D02*
G01X0050965Y-034298D01*
G01X0050965Y-034298D02*
G01X0051004Y-034311D01*
G01X0051004Y-034311D02*
G01X0051017Y-034324D01*
G01X0051253Y-034298D02*
G01X0051201Y-034298D01*
G01X0051201Y-034298D02*
G01X0051175Y-034311D01*
G01X0051175Y-034311D02*
G01X0051161Y-034324D01*
G01X0051161Y-034324D02*
G01X0051135Y-034364D01*
G01X0051135Y-034364D02*
G01X0051122Y-034416D01*
G01X0051122Y-034416D02*
G01X0051122Y-034521D01*
G01X0051122Y-034521D02*
G01X0051135Y-034547D01*
G01X0051135Y-034547D02*
G01X0051148Y-034560D01*
G01X0051148Y-034560D02*
G01X0051175Y-034573D01*
G01X0051175Y-034573D02*
G01X0051227Y-034573D01*
G01X0051227Y-034573D02*
G01X0051253Y-034560D01*
G01X0051253Y-034560D02*
G01X0051266Y-034547D01*
G01X0051266Y-034547D02*
G01X0051280Y-034521D01*
G01X0051280Y-034521D02*
G01X0051280Y-034455D01*
G01X0051280Y-034455D02*
G01X0051266Y-034429D01*
G01X0051266Y-034429D02*
G01X0051253Y-034416D01*
G01X0051253Y-034416D02*
G01X0051227Y-034403D01*
G01X0051227Y-034403D02*
G01X0051175Y-034403D01*
G01X0051175Y-034403D02*
G01X0051148Y-034416D01*
G01X0051148Y-034416D02*
G01X0051135Y-034429D01*
G01X0051135Y-034429D02*
G01X0051122Y-034455D01*
G01X0051289Y-039071D02*
G01X0051271Y-039089D01*
G01X0051271Y-039089D02*
G01X0051214Y-039108D01*
G01X0051214Y-039108D02*
G01X0051177Y-039108D01*
G01X0051177Y-039108D02*
G01X0051121Y-039089D01*
G01X0051121Y-039089D02*
G01X0051083Y-039052D01*
G01X0051083Y-039052D02*
G01X0051064Y-039014D01*
G01X0051064Y-039014D02*
G01X0051046Y-038939D01*
G01X0051046Y-038939D02*
G01X0051046Y-038883D01*
G01X0051046Y-038883D02*
G01X0051064Y-038808D01*
G01X0051064Y-038808D02*
G01X0051083Y-038771D01*
G01X0051083Y-038771D02*
G01X0051121Y-038733D01*
G01X0051121Y-038733D02*
G01X0051177Y-038714D01*
G01X0051177Y-038714D02*
G01X0051214Y-038714D01*
G01X0051214Y-038714D02*
G01X0051271Y-038733D01*
G01X0051271Y-038733D02*
G01X0051289Y-038752D01*
G01X0051627Y-038846D02*
G01X0051627Y-039108D01*
G01X0051533Y-038696D02*
G01X0051439Y-038977D01*
G01X0051439Y-038977D02*
G01X0051683Y-038977D01*
G01X0051283Y-043174D02*
G01X0051264Y-043193D01*
G01X0051264Y-043193D02*
G01X0051208Y-043211D01*
G01X0051208Y-043211D02*
G01X0051170Y-043211D01*
G01X0051170Y-043211D02*
G01X0051114Y-043193D01*
G01X0051114Y-043193D02*
G01X0051077Y-043155D01*
G01X0051077Y-043155D02*
G01X0051058Y-043118D01*
G01X0051058Y-043118D02*
G01X0051039Y-043043D01*
G01X0051039Y-043043D02*
G01X0051039Y-042986D01*
G01X0051039Y-042986D02*
G01X0051058Y-042911D01*
G01X0051058Y-042911D02*
G01X0051077Y-042874D01*
G01X0051077Y-042874D02*
G01X0051114Y-042836D01*
G01X0051114Y-042836D02*
G01X0051170Y-042818D01*
G01X0051170Y-042818D02*
G01X0051208Y-042818D01*
G01X0051208Y-042818D02*
G01X0051264Y-042836D01*
G01X0051264Y-042836D02*
G01X0051283Y-042855D01*
G01X0051433Y-042855D02*
G01X0051452Y-042836D01*
G01X0051452Y-042836D02*
G01X0051489Y-042818D01*
G01X0051489Y-042818D02*
G01X0051583Y-042818D01*
G01X0051583Y-042818D02*
G01X0051620Y-042836D01*
G01X0051620Y-042836D02*
G01X0051639Y-042855D01*
G01X0051639Y-042855D02*
G01X0051658Y-042893D01*
G01X0051658Y-042893D02*
G01X0051658Y-042930D01*
G01X0051658Y-042930D02*
G01X0051639Y-042986D01*
G01X0051639Y-042986D02*
G01X0051414Y-043211D01*
G01X0051414Y-043211D02*
G01X0051658Y-043211D01*
G01X0051534Y-046960D02*
G01X0051515Y-046979D01*
G01X0051515Y-046979D02*
G01X0051459Y-046998D01*
G01X0051459Y-046998D02*
G01X0051421Y-046998D01*
G01X0051421Y-046998D02*
G01X0051365Y-046979D01*
G01X0051365Y-046979D02*
G01X0051327Y-046942D01*
G01X0051327Y-046942D02*
G01X0051309Y-046904D01*
G01X0051309Y-046904D02*
G01X0051290Y-046829D01*
G01X0051290Y-046829D02*
G01X0051290Y-046773D01*
G01X0051290Y-046773D02*
G01X0051309Y-046698D01*
G01X0051309Y-046698D02*
G01X0051327Y-046660D01*
G01X0051327Y-046660D02*
G01X0051365Y-046623D01*
G01X0051365Y-046623D02*
G01X0051421Y-046604D01*
G01X0051421Y-046604D02*
G01X0051459Y-046604D01*
G01X0051459Y-046604D02*
G01X0051515Y-046623D01*
G01X0051515Y-046623D02*
G01X0051534Y-046642D01*
G01X0051909Y-046998D02*
G01X0051684Y-046998D01*
G01X0051796Y-046998D02*
G01X0051796Y-046604D01*
G01X0051796Y-046604D02*
G01X0051759Y-046660D01*
G01X0051759Y-046660D02*
G01X0051721Y-046698D01*
G01X0051721Y-046698D02*
G01X0051684Y-046717D01*
G01X0053684Y-031591D02*
G01X0053665Y-031609D01*
G01X0053665Y-031609D02*
G01X0053609Y-031628D01*
G01X0053609Y-031628D02*
G01X0053571Y-031628D01*
G01X0053571Y-031628D02*
G01X0053515Y-031609D01*
G01X0053515Y-031609D02*
G01X0053478Y-031572D01*
G01X0053478Y-031572D02*
G01X0053459Y-031534D01*
G01X0053459Y-031534D02*
G01X0053440Y-031459D01*
G01X0053440Y-031459D02*
G01X0053440Y-031403D01*
G01X0053440Y-031403D02*
G01X0053459Y-031328D01*
G01X0053459Y-031328D02*
G01X0053478Y-031291D01*
G01X0053478Y-031291D02*
G01X0053515Y-031253D01*
G01X0053515Y-031253D02*
G01X0053571Y-031234D01*
G01X0053571Y-031234D02*
G01X0053609Y-031234D01*
G01X0053609Y-031234D02*
G01X0053665Y-031253D01*
G01X0053665Y-031253D02*
G01X0053684Y-031272D01*
G01X0054059Y-031628D02*
G01X0053834Y-031628D01*
G01X0053946Y-031628D02*
G01X0053946Y-031234D01*
G01X0053946Y-031234D02*
G01X0053909Y-031291D01*
G01X0053909Y-031291D02*
G01X0053871Y-031328D01*
G01X0053871Y-031328D02*
G01X0053834Y-031347D01*
G01X0054190Y-031234D02*
G01X0054434Y-031234D01*
G01X0054434Y-031234D02*
G01X0054303Y-031384D01*
G01X0054303Y-031384D02*
G01X0054359Y-031384D01*
G01X0054359Y-031384D02*
G01X0054396Y-031403D01*
G01X0054396Y-031403D02*
G01X0054415Y-031422D01*
G01X0054415Y-031422D02*
G01X0054434Y-031459D01*
G01X0054434Y-031459D02*
G01X0054434Y-031553D01*
G01X0054434Y-031553D02*
G01X0054415Y-031591D01*
G01X0054415Y-031591D02*
G01X0054396Y-031609D01*
G01X0054396Y-031609D02*
G01X0054359Y-031628D01*
G01X0054359Y-031628D02*
G01X0054246Y-031628D01*
G01X0054246Y-031628D02*
G01X0054209Y-031609D01*
G01X0054209Y-031609D02*
G01X0054190Y-031591D01*
G01X0049235Y-038271D02*
G01X0049216Y-038289D01*
G01X0049216Y-038289D02*
G01X0049160Y-038308D01*
G01X0049160Y-038308D02*
G01X0049123Y-038308D01*
G01X0049123Y-038308D02*
G01X0049066Y-038289D01*
G01X0049066Y-038289D02*
G01X0049029Y-038252D01*
G01X0049029Y-038252D02*
G01X0049010Y-038214D01*
G01X0049010Y-038214D02*
G01X0048991Y-038139D01*
G01X0048991Y-038139D02*
G01X0048991Y-038083D01*
G01X0048991Y-038083D02*
G01X0049010Y-038008D01*
G01X0049010Y-038008D02*
G01X0049029Y-037971D01*
G01X0049029Y-037971D02*
G01X0049066Y-037933D01*
G01X0049066Y-037933D02*
G01X0049123Y-037914D01*
G01X0049123Y-037914D02*
G01X0049160Y-037914D01*
G01X0049160Y-037914D02*
G01X0049216Y-037933D01*
G01X0049216Y-037933D02*
G01X0049235Y-037952D01*
G01X0049610Y-038308D02*
G01X0049385Y-038308D01*
G01X0049498Y-038308D02*
G01X0049498Y-037914D01*
G01X0049498Y-037914D02*
G01X0049460Y-037971D01*
G01X0049460Y-037971D02*
G01X0049423Y-038008D01*
G01X0049423Y-038008D02*
G01X0049385Y-038027D01*
G01X0049760Y-037952D02*
G01X0049779Y-037933D01*
G01X0049779Y-037933D02*
G01X0049816Y-037914D01*
G01X0049816Y-037914D02*
G01X0049910Y-037914D01*
G01X0049910Y-037914D02*
G01X0049948Y-037933D01*
G01X0049948Y-037933D02*
G01X0049966Y-037952D01*
G01X0049966Y-037952D02*
G01X0049985Y-037989D01*
G01X0049985Y-037989D02*
G01X0049985Y-038027D01*
G01X0049985Y-038027D02*
G01X0049966Y-038083D01*
G01X0049966Y-038083D02*
G01X0049741Y-038308D01*
G01X0049741Y-038308D02*
G01X0049985Y-038308D01*
G01X0047533Y-031517D02*
G01X0047402Y-031329D01*
G01X0047308Y-031517D02*
G01X0047308Y-031123D01*
G01X0047308Y-031123D02*
G01X0047458Y-031123D01*
G01X0047458Y-031123D02*
G01X0047495Y-031142D01*
G01X0047495Y-031142D02*
G01X0047514Y-031160D01*
G01X0047514Y-031160D02*
G01X0047533Y-031198D01*
G01X0047533Y-031198D02*
G01X0047533Y-031254D01*
G01X0047533Y-031254D02*
G01X0047514Y-031292D01*
G01X0047514Y-031292D02*
G01X0047495Y-031310D01*
G01X0047495Y-031310D02*
G01X0047458Y-031329D01*
G01X0047458Y-031329D02*
G01X0047308Y-031329D01*
G01X0047870Y-031254D02*
G01X0047870Y-031517D01*
G01X0047777Y-031104D02*
G01X0047683Y-031385D01*
G01X0047683Y-031385D02*
G01X0047927Y-031385D01*
G01X0053675Y-032403D02*
G01X0053543Y-032215D01*
G01X0053450Y-032403D02*
G01X0053450Y-032009D01*
G01X0053450Y-032009D02*
G01X0053600Y-032009D01*
G01X0053600Y-032009D02*
G01X0053637Y-032028D01*
G01X0053637Y-032028D02*
G01X0053656Y-032046D01*
G01X0053656Y-032046D02*
G01X0053675Y-032084D01*
G01X0053675Y-032084D02*
G01X0053675Y-032140D01*
G01X0053675Y-032140D02*
G01X0053656Y-032178D01*
G01X0053656Y-032178D02*
G01X0053637Y-032196D01*
G01X0053637Y-032196D02*
G01X0053600Y-032215D01*
G01X0053600Y-032215D02*
G01X0053450Y-032215D01*
G01X0053825Y-032046D02*
G01X0053843Y-032028D01*
G01X0053843Y-032028D02*
G01X0053881Y-032009D01*
G01X0053881Y-032009D02*
G01X0053975Y-032009D01*
G01X0053975Y-032009D02*
G01X0054012Y-032028D01*
G01X0054012Y-032028D02*
G01X0054031Y-032046D01*
G01X0054031Y-032046D02*
G01X0054049Y-032084D01*
G01X0054049Y-032084D02*
G01X0054049Y-032121D01*
G01X0054049Y-032121D02*
G01X0054031Y-032178D01*
G01X0054031Y-032178D02*
G01X0053806Y-032403D01*
G01X0053806Y-032403D02*
G01X0054049Y-032403D01*
G01X0050525Y-034239D02*
G01X0050433Y-034108D01*
G01X0050367Y-034239D02*
G01X0050367Y-033963D01*
G01X0050367Y-033963D02*
G01X0050472Y-033963D01*
G01X0050472Y-033963D02*
G01X0050499Y-033976D01*
G01X0050499Y-033976D02*
G01X0050512Y-033990D01*
G01X0050512Y-033990D02*
G01X0050525Y-034016D01*
G01X0050525Y-034016D02*
G01X0050525Y-034055D01*
G01X0050525Y-034055D02*
G01X0050512Y-034081D01*
G01X0050512Y-034081D02*
G01X0050499Y-034094D01*
G01X0050499Y-034094D02*
G01X0050472Y-034108D01*
G01X0050472Y-034108D02*
G01X0050367Y-034108D01*
G01X0050617Y-033963D02*
G01X0050787Y-033963D01*
G01X0050787Y-033963D02*
G01X0050696Y-034068D01*
G01X0050696Y-034068D02*
G01X0050735Y-034068D01*
G01X0050735Y-034068D02*
G01X0050761Y-034081D01*
G01X0050761Y-034081D02*
G01X0050774Y-034094D01*
G01X0050774Y-034094D02*
G01X0050787Y-034121D01*
G01X0050787Y-034121D02*
G01X0050787Y-034186D01*
G01X0050787Y-034186D02*
G01X0050774Y-034213D01*
G01X0050774Y-034213D02*
G01X0050761Y-034226D01*
G01X0050761Y-034226D02*
G01X0050735Y-034239D01*
G01X0050735Y-034239D02*
G01X0050656Y-034239D01*
G01X0050656Y-034239D02*
G01X0050630Y-034226D01*
G01X0050630Y-034226D02*
G01X0050617Y-034213D01*
G01X0051293Y-042739D02*
G01X0051274Y-042758D01*
G01X0051274Y-042758D02*
G01X0051218Y-042777D01*
G01X0051218Y-042777D02*
G01X0051180Y-042777D01*
G01X0051180Y-042777D02*
G01X0051124Y-042758D01*
G01X0051124Y-042758D02*
G01X0051086Y-042720D01*
G01X0051086Y-042720D02*
G01X0051068Y-042683D01*
G01X0051068Y-042683D02*
G01X0051049Y-042608D01*
G01X0051049Y-042608D02*
G01X0051049Y-042552D01*
G01X0051049Y-042552D02*
G01X0051068Y-042477D01*
G01X0051068Y-042477D02*
G01X0051086Y-042439D01*
G01X0051086Y-042439D02*
G01X0051124Y-042402D01*
G01X0051124Y-042402D02*
G01X0051180Y-042383D01*
G01X0051180Y-042383D02*
G01X0051218Y-042383D01*
G01X0051218Y-042383D02*
G01X0051274Y-042402D01*
G01X0051274Y-042402D02*
G01X0051293Y-042420D01*
G01X0051424Y-042383D02*
G01X0051668Y-042383D01*
G01X0051668Y-042383D02*
G01X0051536Y-042533D01*
G01X0051536Y-042533D02*
G01X0051593Y-042533D01*
G01X0051593Y-042533D02*
G01X0051630Y-042552D01*
G01X0051630Y-042552D02*
G01X0051649Y-042570D01*
G01X0051649Y-042570D02*
G01X0051668Y-042608D01*
G01X0051668Y-042608D02*
G01X0051668Y-042702D01*
G01X0051668Y-042702D02*
G01X0051649Y-042739D01*
G01X0051649Y-042739D02*
G01X0051630Y-042758D01*
G01X0051630Y-042758D02*
G01X0051593Y-042777D01*
G01X0051593Y-042777D02*
G01X0051480Y-042777D01*
G01X0051480Y-042777D02*
G01X0051443Y-042758D01*
G01X0051443Y-042758D02*
G01X0051424Y-042739D01*
G01X0048550Y-034135D02*
G01X0048550Y-034416D01*
G01X0048550Y-034416D02*
G01X0048531Y-034472D01*
G01X0048531Y-034472D02*
G01X0048494Y-034510D01*
G01X0048494Y-034510D02*
G01X0048437Y-034528D01*
G01X0048437Y-034528D02*
G01X0048400Y-034528D01*
G01X0048925Y-034135D02*
G01X0048737Y-034135D01*
G01X0048737Y-034135D02*
G01X0048719Y-034322D01*
G01X0048719Y-034322D02*
G01X0048737Y-034304D01*
G01X0048737Y-034304D02*
G01X0048775Y-034285D01*
G01X0048775Y-034285D02*
G01X0048869Y-034285D01*
G01X0048869Y-034285D02*
G01X0048906Y-034304D01*
G01X0048906Y-034304D02*
G01X0048925Y-034322D01*
G01X0048925Y-034322D02*
G01X0048944Y-034360D01*
G01X0048944Y-034360D02*
G01X0048944Y-034454D01*
G01X0048944Y-034454D02*
G01X0048925Y-034491D01*
G01X0048925Y-034491D02*
G01X0048906Y-034510D01*
G01X0048906Y-034510D02*
G01X0048869Y-034528D01*
G01X0048869Y-034528D02*
G01X0048775Y-034528D01*
G01X0048775Y-034528D02*
G01X0048737Y-034510D01*
G01X0048737Y-034510D02*
G01X0048719Y-034491D01*
G54D13*
G01X0047334Y-038055D02*
G01X0047147Y-038055D01*
G01X0047147Y-038055D02*
G01X0047147Y-037661D01*
G01X0047672Y-038055D02*
G01X0047447Y-038055D01*
G01X0047559Y-038055D02*
G01X0047559Y-037661D01*
G01X0047559Y-037661D02*
G01X0047522Y-037718D01*
G01X0047522Y-037718D02*
G01X0047484Y-037755D01*
G01X0047484Y-037755D02*
G01X0047447Y-037774D01*
G54D11*
G01X0054340Y-049295D02*
G01X0054340Y-048902D01*
G01X0054753Y-049258D02*
G01X0054734Y-049277D01*
G01X0054734Y-049277D02*
G01X0054678Y-049295D01*
G01X0054678Y-049295D02*
G01X0054640Y-049295D01*
G01X0054640Y-049295D02*
G01X0054584Y-049277D01*
G01X0054584Y-049277D02*
G01X0054546Y-049239D01*
G01X0054546Y-049239D02*
G01X0054528Y-049202D01*
G01X0054528Y-049202D02*
G01X0054509Y-049127D01*
G01X0054509Y-049127D02*
G01X0054509Y-049070D01*
G01X0054509Y-049070D02*
G01X0054528Y-048995D01*
G01X0054528Y-048995D02*
G01X0054546Y-048958D01*
G01X0054546Y-048958D02*
G01X0054584Y-048920D01*
G01X0054584Y-048920D02*
G01X0054640Y-048902D01*
G01X0054640Y-048902D02*
G01X0054678Y-048902D01*
G01X0054678Y-048902D02*
G01X0054734Y-048920D01*
G01X0054734Y-048920D02*
G01X0054753Y-048939D01*
G01X0055127Y-049295D02*
G01X0054903Y-049295D01*
G01X0055015Y-049295D02*
G01X0055015Y-048902D01*
G01X0055015Y-048902D02*
G01X0054978Y-048958D01*
G01X0054978Y-048958D02*
G01X0054940Y-048995D01*
G01X0054940Y-048995D02*
G01X0054903Y-049014D01*
G01X0053698Y-046495D02*
G01X0053698Y-046102D01*
G01X0054110Y-046458D02*
G01X0054091Y-046477D01*
G01X0054091Y-046477D02*
G01X0054035Y-046495D01*
G01X0054035Y-046495D02*
G01X0053998Y-046495D01*
G01X0053998Y-046495D02*
G01X0053941Y-046477D01*
G01X0053941Y-046477D02*
G01X0053904Y-046439D01*
G01X0053904Y-046439D02*
G01X0053885Y-046402D01*
G01X0053885Y-046402D02*
G01X0053866Y-046327D01*
G01X0053866Y-046327D02*
G01X0053866Y-046270D01*
G01X0053866Y-046270D02*
G01X0053885Y-046195D01*
G01X0053885Y-046195D02*
G01X0053904Y-046158D01*
G01X0053904Y-046158D02*
G01X0053941Y-046120D01*
G01X0053941Y-046120D02*
G01X0053998Y-046102D01*
G01X0053998Y-046102D02*
G01X0054035Y-046102D01*
G01X0054035Y-046102D02*
G01X0054091Y-046120D01*
G01X0054091Y-046120D02*
G01X0054110Y-046139D01*
G01X0054260Y-046139D02*
G01X0054279Y-046120D01*
G01X0054279Y-046120D02*
G01X0054316Y-046102D01*
G01X0054316Y-046102D02*
G01X0054410Y-046102D01*
G01X0054410Y-046102D02*
G01X0054447Y-046120D01*
G01X0054447Y-046120D02*
G01X0054466Y-046139D01*
G01X0054466Y-046139D02*
G01X0054485Y-046177D01*
G01X0054485Y-046177D02*
G01X0054485Y-046214D01*
G01X0054485Y-046214D02*
G01X0054466Y-046270D01*
G01X0054466Y-046270D02*
G01X0054241Y-046495D01*
G01X0054241Y-046495D02*
G01X0054485Y-046495D01*
G01X0053698Y-043695D02*
G01X0053698Y-043302D01*
G01X0054110Y-043658D02*
G01X0054091Y-043677D01*
G01X0054091Y-043677D02*
G01X0054035Y-043695D01*
G01X0054035Y-043695D02*
G01X0053998Y-043695D01*
G01X0053998Y-043695D02*
G01X0053941Y-043677D01*
G01X0053941Y-043677D02*
G01X0053904Y-043639D01*
G01X0053904Y-043639D02*
G01X0053885Y-043602D01*
G01X0053885Y-043602D02*
G01X0053866Y-043527D01*
G01X0053866Y-043527D02*
G01X0053866Y-043470D01*
G01X0053866Y-043470D02*
G01X0053885Y-043395D01*
G01X0053885Y-043395D02*
G01X0053904Y-043358D01*
G01X0053904Y-043358D02*
G01X0053941Y-043320D01*
G01X0053941Y-043320D02*
G01X0053998Y-043302D01*
G01X0053998Y-043302D02*
G01X0054035Y-043302D01*
G01X0054035Y-043302D02*
G01X0054091Y-043320D01*
G01X0054091Y-043320D02*
G01X0054110Y-043339D01*
G01X0054241Y-043302D02*
G01X0054485Y-043302D01*
G01X0054485Y-043302D02*
G01X0054354Y-043452D01*
G01X0054354Y-043452D02*
G01X0054410Y-043452D01*
G01X0054410Y-043452D02*
G01X0054447Y-043470D01*
G01X0054447Y-043470D02*
G01X0054466Y-043489D01*
G01X0054466Y-043489D02*
G01X0054485Y-043527D01*
G01X0054485Y-043527D02*
G01X0054485Y-043620D01*
G01X0054485Y-043620D02*
G01X0054466Y-043658D01*
G01X0054466Y-043658D02*
G01X0054447Y-043677D01*
G01X0054447Y-043677D02*
G01X0054410Y-043695D01*
G01X0054410Y-043695D02*
G01X0054297Y-043695D01*
G01X0054297Y-043695D02*
G01X0054260Y-043677D01*
G01X0054260Y-043677D02*
G01X0054241Y-043658D01*
G01X0053698Y-040895D02*
G01X0053698Y-040502D01*
G01X0054110Y-040858D02*
G01X0054091Y-040877D01*
G01X0054091Y-040877D02*
G01X0054035Y-040895D01*
G01X0054035Y-040895D02*
G01X0053998Y-040895D01*
G01X0053998Y-040895D02*
G01X0053941Y-040877D01*
G01X0053941Y-040877D02*
G01X0053904Y-040839D01*
G01X0053904Y-040839D02*
G01X0053885Y-040802D01*
G01X0053885Y-040802D02*
G01X0053866Y-040727D01*
G01X0053866Y-040727D02*
G01X0053866Y-040670D01*
G01X0053866Y-040670D02*
G01X0053885Y-040595D01*
G01X0053885Y-040595D02*
G01X0053904Y-040558D01*
G01X0053904Y-040558D02*
G01X0053941Y-040520D01*
G01X0053941Y-040520D02*
G01X0053998Y-040502D01*
G01X0053998Y-040502D02*
G01X0054035Y-040502D01*
G01X0054035Y-040502D02*
G01X0054091Y-040520D01*
G01X0054091Y-040520D02*
G01X0054110Y-040539D01*
G01X0054447Y-040633D02*
G01X0054447Y-040895D01*
G01X0054354Y-040483D02*
G01X0054260Y-040764D01*
G01X0054260Y-040764D02*
G01X0054504Y-040764D01*
G01X0053698Y-038095D02*
G01X0053698Y-037702D01*
G01X0054110Y-038058D02*
G01X0054091Y-038077D01*
G01X0054091Y-038077D02*
G01X0054035Y-038095D01*
G01X0054035Y-038095D02*
G01X0053998Y-038095D01*
G01X0053998Y-038095D02*
G01X0053941Y-038077D01*
G01X0053941Y-038077D02*
G01X0053904Y-038039D01*
G01X0053904Y-038039D02*
G01X0053885Y-038002D01*
G01X0053885Y-038002D02*
G01X0053866Y-037927D01*
G01X0053866Y-037927D02*
G01X0053866Y-037870D01*
G01X0053866Y-037870D02*
G01X0053885Y-037795D01*
G01X0053885Y-037795D02*
G01X0053904Y-037758D01*
G01X0053904Y-037758D02*
G01X0053941Y-037720D01*
G01X0053941Y-037720D02*
G01X0053998Y-037702D01*
G01X0053998Y-037702D02*
G01X0054035Y-037702D01*
G01X0054035Y-037702D02*
G01X0054091Y-037720D01*
G01X0054091Y-037720D02*
G01X0054110Y-037739D01*
G01X0054466Y-037702D02*
G01X0054279Y-037702D01*
G01X0054279Y-037702D02*
G01X0054260Y-037889D01*
G01X0054260Y-037889D02*
G01X0054279Y-037870D01*
G01X0054279Y-037870D02*
G01X0054316Y-037852D01*
G01X0054316Y-037852D02*
G01X0054410Y-037852D01*
G01X0054410Y-037852D02*
G01X0054447Y-037870D01*
G01X0054447Y-037870D02*
G01X0054466Y-037889D01*
G01X0054466Y-037889D02*
G01X0054485Y-037927D01*
G01X0054485Y-037927D02*
G01X0054485Y-038020D01*
G01X0054485Y-038020D02*
G01X0054466Y-038058D01*
G01X0054466Y-038058D02*
G01X0054447Y-038077D01*
G01X0054447Y-038077D02*
G01X0054410Y-038095D01*
G01X0054410Y-038095D02*
G01X0054316Y-038095D01*
G01X0054316Y-038095D02*
G01X0054279Y-038077D01*
G01X0054279Y-038077D02*
G01X0054260Y-038058D01*
G54D17*
G01X0062797Y-032804D02*
G01X0063154Y-032804D01*
G01X0063154Y-032804D02*
G01X0063226Y-032828D01*
G01X0063226Y-032828D02*
G01X0063273Y-032876D01*
G01X0063273Y-032876D02*
G01X0063297Y-032947D01*
G01X0063297Y-032947D02*
G01X0063297Y-032995D01*
G01X0062797Y-032614D02*
G01X0062797Y-032304D01*
G01X0062797Y-032304D02*
G01X0062988Y-032471D01*
G01X0062988Y-032471D02*
G01X0062988Y-032400D01*
G01X0062988Y-032400D02*
G01X0063011Y-032352D01*
G01X0063011Y-032352D02*
G01X0063035Y-032328D01*
G01X0063035Y-032328D02*
G01X0063083Y-032304D01*
G01X0063083Y-032304D02*
G01X0063202Y-032304D01*
G01X0063202Y-032304D02*
G01X0063249Y-032328D01*
G01X0063249Y-032328D02*
G01X0063273Y-032352D01*
G01X0063273Y-032352D02*
G01X0063297Y-032400D01*
G01X0063297Y-032400D02*
G01X0063297Y-032543D01*
G01X0063297Y-032543D02*
G01X0063273Y-032590D01*
G01X0063273Y-032590D02*
G01X0063249Y-032614D01*
G01X0062836Y-040521D02*
G01X0063194Y-040521D01*
G01X0063194Y-040521D02*
G01X0063265Y-040545D01*
G01X0063265Y-040545D02*
G01X0063313Y-040592D01*
G01X0063313Y-040592D02*
G01X0063336Y-040664D01*
G01X0063336Y-040664D02*
G01X0063336Y-040711D01*
G01X0063003Y-040069D02*
G01X0063336Y-040069D01*
G01X0062813Y-040188D02*
G01X0063170Y-040307D01*
G01X0063170Y-040307D02*
G01X0063170Y-039997D01*
G01X0044173Y-042062D02*
G01X0044173Y-041562D01*
G01X0044173Y-041562D02*
G01X0044363Y-041562D01*
G01X0044363Y-041562D02*
G01X0044411Y-041586D01*
G01X0044411Y-041586D02*
G01X0044435Y-041609D01*
G01X0044435Y-041609D02*
G01X0044459Y-041657D01*
G01X0044459Y-041657D02*
G01X0044459Y-041728D01*
G01X0044459Y-041728D02*
G01X0044435Y-041776D01*
G01X0044435Y-041776D02*
G01X0044411Y-041800D01*
G01X0044411Y-041800D02*
G01X0044363Y-041824D01*
G01X0044363Y-041824D02*
G01X0044173Y-041824D01*
G01X0044649Y-042038D02*
G01X0044720Y-042062D01*
G01X0044720Y-042062D02*
G01X0044840Y-042062D01*
G01X0044840Y-042062D02*
G01X0044887Y-042038D01*
G01X0044887Y-042038D02*
G01X0044911Y-042014D01*
G01X0044911Y-042014D02*
G01X0044935Y-041967D01*
G01X0044935Y-041967D02*
G01X0044935Y-041919D01*
G01X0044935Y-041919D02*
G01X0044911Y-041871D01*
G01X0044911Y-041871D02*
G01X0044887Y-041847D01*
G01X0044887Y-041847D02*
G01X0044840Y-041824D01*
G01X0044840Y-041824D02*
G01X0044744Y-041800D01*
G01X0044744Y-041800D02*
G01X0044697Y-041776D01*
G01X0044697Y-041776D02*
G01X0044673Y-041752D01*
G01X0044673Y-041752D02*
G01X0044649Y-041705D01*
G01X0044649Y-041705D02*
G01X0044649Y-041657D01*
G01X0044649Y-041657D02*
G01X0044673Y-041609D01*
G01X0044673Y-041609D02*
G01X0044697Y-041586D01*
G01X0044697Y-041586D02*
G01X0044744Y-041562D01*
G01X0044744Y-041562D02*
G01X0044863Y-041562D01*
G01X0044863Y-041562D02*
G01X0044935Y-041586D01*
G01X0045411Y-042062D02*
G01X0045125Y-042062D01*
G01X0045268Y-042062D02*
G01X0045268Y-041562D01*
G01X0045268Y-041562D02*
G01X0045220Y-041633D01*
G01X0045220Y-041633D02*
G01X0045173Y-041681D01*
G01X0045173Y-041681D02*
G01X0045125Y-041705D01*
G54D11*
G01X0051312Y-037961D02*
G01X0051294Y-037979D01*
G01X0051294Y-037979D02*
G01X0051237Y-037998D01*
G01X0051237Y-037998D02*
G01X0051200Y-037998D01*
G01X0051200Y-037998D02*
G01X0051144Y-037979D01*
G01X0051144Y-037979D02*
G01X0051106Y-037942D01*
G01X0051106Y-037942D02*
G01X0051087Y-037904D01*
G01X0051087Y-037904D02*
G01X0051069Y-037829D01*
G01X0051069Y-037829D02*
G01X0051069Y-037773D01*
G01X0051069Y-037773D02*
G01X0051087Y-037698D01*
G01X0051087Y-037698D02*
G01X0051106Y-037661D01*
G01X0051106Y-037661D02*
G01X0051144Y-037623D01*
G01X0051144Y-037623D02*
G01X0051200Y-037604D01*
G01X0051200Y-037604D02*
G01X0051237Y-037604D01*
G01X0051237Y-037604D02*
G01X0051294Y-037623D01*
G01X0051294Y-037623D02*
G01X0051312Y-037642D01*
G01X0051669Y-037604D02*
G01X0051481Y-037604D01*
G01X0051481Y-037604D02*
G01X0051462Y-037792D01*
G01X0051462Y-037792D02*
G01X0051481Y-037773D01*
G01X0051481Y-037773D02*
G01X0051519Y-037754D01*
G01X0051519Y-037754D02*
G01X0051612Y-037754D01*
G01X0051612Y-037754D02*
G01X0051650Y-037773D01*
G01X0051650Y-037773D02*
G01X0051669Y-037792D01*
G01X0051669Y-037792D02*
G01X0051687Y-037829D01*
G01X0051687Y-037829D02*
G01X0051687Y-037923D01*
G01X0051687Y-037923D02*
G01X0051669Y-037961D01*
G01X0051669Y-037961D02*
G01X0051650Y-037979D01*
G01X0051650Y-037979D02*
G01X0051612Y-037998D01*
G01X0051612Y-037998D02*
G01X0051519Y-037998D01*
G01X0051519Y-037998D02*
G01X0051481Y-037979D01*
G01X0051481Y-037979D02*
G01X0051462Y-037961D01*
G01X0049582Y-034115D02*
G01X0049582Y-034434D01*
G01X0049582Y-034434D02*
G01X0049601Y-034471D01*
G01X0049601Y-034471D02*
G01X0049619Y-034490D01*
G01X0049619Y-034490D02*
G01X0049657Y-034509D01*
G01X0049657Y-034509D02*
G01X0049732Y-034509D01*
G01X0049732Y-034509D02*
G01X0049769Y-034490D01*
G01X0049769Y-034490D02*
G01X0049788Y-034471D01*
G01X0049788Y-034471D02*
G01X0049807Y-034434D01*
G01X0049807Y-034434D02*
G01X0049807Y-034115D01*
G01X0050201Y-034509D02*
G01X0049976Y-034509D01*
G01X0050088Y-034509D02*
G01X0050088Y-034115D01*
G01X0050088Y-034115D02*
G01X0050051Y-034171D01*
G01X0050051Y-034171D02*
G01X0050013Y-034209D01*
G01X0050013Y-034209D02*
G01X0049976Y-034228D01*
G54D17*
G01X0047305Y-044714D02*
G01X0047662Y-044714D01*
G01X0047662Y-044714D02*
G01X0047734Y-044738D01*
G01X0047734Y-044738D02*
G01X0047781Y-044785D01*
G01X0047781Y-044785D02*
G01X0047805Y-044857D01*
G01X0047805Y-044857D02*
G01X0047805Y-044904D01*
G01X0047805Y-044214D02*
G01X0047805Y-044500D01*
G01X0047805Y-044357D02*
G01X0047305Y-044357D01*
G01X0047305Y-044357D02*
G01X0047376Y-044404D01*
G01X0047376Y-044404D02*
G01X0047424Y-044452D01*
G01X0047424Y-044452D02*
G01X0047448Y-044500D01*
G54D11*
G01X0044351Y-033360D02*
G01X0044633Y-033360D01*
G01X0044633Y-033360D02*
G01X0044689Y-033378D01*
G01X0044689Y-033378D02*
G01X0044726Y-033416D01*
G01X0044726Y-033416D02*
G01X0044745Y-033472D01*
G01X0044745Y-033472D02*
G01X0044745Y-033510D01*
G01X0044351Y-033003D02*
G01X0044351Y-033078D01*
G01X0044351Y-033078D02*
G01X0044370Y-033116D01*
G01X0044370Y-033116D02*
G01X0044389Y-033135D01*
G01X0044389Y-033135D02*
G01X0044445Y-033172D01*
G01X0044445Y-033172D02*
G01X0044520Y-033191D01*
G01X0044520Y-033191D02*
G01X0044670Y-033191D01*
G01X0044670Y-033191D02*
G01X0044708Y-033172D01*
G01X0044708Y-033172D02*
G01X0044726Y-033153D01*
G01X0044726Y-033153D02*
G01X0044745Y-033116D01*
G01X0044745Y-033116D02*
G01X0044745Y-033041D01*
G01X0044745Y-033041D02*
G01X0044726Y-033003D01*
G01X0044726Y-033003D02*
G01X0044708Y-032985D01*
G01X0044708Y-032985D02*
G01X0044670Y-032966D01*
G01X0044670Y-032966D02*
G01X0044576Y-032966D01*
G01X0044576Y-032966D02*
G01X0044539Y-032985D01*
G01X0044539Y-032985D02*
G01X0044520Y-033003D01*
G01X0044520Y-033003D02*
G01X0044501Y-033041D01*
G01X0044501Y-033041D02*
G01X0044501Y-033116D01*
G01X0044501Y-033116D02*
G01X0044520Y-033153D01*
G01X0044520Y-033153D02*
G01X0044539Y-033172D01*
G01X0044539Y-033172D02*
G01X0044576Y-033191D01*
G01X0050171Y-041322D02*
G01X0050152Y-041340D01*
G01X0050152Y-041340D02*
G01X0050096Y-041359D01*
G01X0050096Y-041359D02*
G01X0050058Y-041359D01*
G01X0050058Y-041359D02*
G01X0050002Y-041340D01*
G01X0050002Y-041340D02*
G01X0049964Y-041303D01*
G01X0049964Y-041303D02*
G01X0049946Y-041265D01*
G01X0049946Y-041265D02*
G01X0049927Y-041190D01*
G01X0049927Y-041190D02*
G01X0049927Y-041134D01*
G01X0049927Y-041134D02*
G01X0049946Y-041059D01*
G01X0049946Y-041059D02*
G01X0049964Y-041022D01*
G01X0049964Y-041022D02*
G01X0050002Y-040984D01*
G01X0050002Y-040984D02*
G01X0050058Y-040966D01*
G01X0050058Y-040966D02*
G01X0050096Y-040966D01*
G01X0050096Y-040966D02*
G01X0050152Y-040984D01*
G01X0050152Y-040984D02*
G01X0050171Y-041003D01*
G01X0050358Y-041359D02*
G01X0050433Y-041359D01*
G01X0050433Y-041359D02*
G01X0050471Y-041340D01*
G01X0050471Y-041340D02*
G01X0050489Y-041322D01*
G01X0050489Y-041322D02*
G01X0050527Y-041265D01*
G01X0050527Y-041265D02*
G01X0050546Y-041190D01*
G01X0050546Y-041190D02*
G01X0050546Y-041040D01*
G01X0050546Y-041040D02*
G01X0050527Y-041003D01*
G01X0050527Y-041003D02*
G01X0050508Y-040984D01*
G01X0050508Y-040984D02*
G01X0050471Y-040966D01*
G01X0050471Y-040966D02*
G01X0050396Y-040966D01*
G01X0050396Y-040966D02*
G01X0050358Y-040984D01*
G01X0050358Y-040984D02*
G01X0050339Y-041003D01*
G01X0050339Y-041003D02*
G01X0050321Y-041040D01*
G01X0050321Y-041040D02*
G01X0050321Y-041134D01*
G01X0050321Y-041134D02*
G01X0050339Y-041172D01*
G01X0050339Y-041172D02*
G01X0050358Y-041190D01*
G01X0050358Y-041190D02*
G01X0050396Y-041209D01*
G01X0050396Y-041209D02*
G01X0050471Y-041209D01*
G01X0050471Y-041209D02*
G01X0050508Y-041190D01*
G01X0050508Y-041190D02*
G01X0050527Y-041172D01*
G01X0050527Y-041172D02*
G01X0050546Y-041134D01*
G01X0039233Y-033086D02*
G01X0038840Y-033086D01*
G01X0038840Y-033086D02*
G01X0038840Y-032992D01*
G01X0038840Y-032992D02*
G01X0038858Y-032936D01*
G01X0038858Y-032936D02*
G01X0038896Y-032898D01*
G01X0038896Y-032898D02*
G01X0038933Y-032880D01*
G01X0038933Y-032880D02*
G01X0039008Y-032861D01*
G01X0039008Y-032861D02*
G01X0039064Y-032861D01*
G01X0039064Y-032861D02*
G01X0039139Y-032880D01*
G01X0039139Y-032880D02*
G01X0039177Y-032898D01*
G01X0039177Y-032898D02*
G01X0039214Y-032936D01*
G01X0039214Y-032936D02*
G01X0039233Y-032992D01*
G01X0039233Y-032992D02*
G01X0039233Y-033086D01*
G01X0038840Y-032730D02*
G01X0038840Y-032467D01*
G01X0038840Y-032467D02*
G01X0039233Y-032636D01*
G01X0053698Y-035295D02*
G01X0053698Y-034902D01*
G01X0054110Y-035258D02*
G01X0054091Y-035277D01*
G01X0054091Y-035277D02*
G01X0054035Y-035295D01*
G01X0054035Y-035295D02*
G01X0053998Y-035295D01*
G01X0053998Y-035295D02*
G01X0053941Y-035277D01*
G01X0053941Y-035277D02*
G01X0053904Y-035239D01*
G01X0053904Y-035239D02*
G01X0053885Y-035202D01*
G01X0053885Y-035202D02*
G01X0053866Y-035127D01*
G01X0053866Y-035127D02*
G01X0053866Y-035070D01*
G01X0053866Y-035070D02*
G01X0053885Y-034995D01*
G01X0053885Y-034995D02*
G01X0053904Y-034958D01*
G01X0053904Y-034958D02*
G01X0053941Y-034920D01*
G01X0053941Y-034920D02*
G01X0053998Y-034902D01*
G01X0053998Y-034902D02*
G01X0054035Y-034902D01*
G01X0054035Y-034902D02*
G01X0054091Y-034920D01*
G01X0054091Y-034920D02*
G01X0054110Y-034939D01*
G01X0054447Y-034902D02*
G01X0054372Y-034902D01*
G01X0054372Y-034902D02*
G01X0054335Y-034920D01*
G01X0054335Y-034920D02*
G01X0054316Y-034939D01*
G01X0054316Y-034939D02*
G01X0054279Y-034995D01*
G01X0054279Y-034995D02*
G01X0054260Y-035070D01*
G01X0054260Y-035070D02*
G01X0054260Y-035220D01*
G01X0054260Y-035220D02*
G01X0054279Y-035258D01*
G01X0054279Y-035258D02*
G01X0054297Y-035277D01*
G01X0054297Y-035277D02*
G01X0054335Y-035295D01*
G01X0054335Y-035295D02*
G01X0054410Y-035295D01*
G01X0054410Y-035295D02*
G01X0054447Y-035277D01*
G01X0054447Y-035277D02*
G01X0054466Y-035258D01*
G01X0054466Y-035258D02*
G01X0054485Y-035220D01*
G01X0054485Y-035220D02*
G01X0054485Y-035127D01*
G01X0054485Y-035127D02*
G01X0054466Y-035089D01*
G01X0054466Y-035089D02*
G01X0054447Y-035070D01*
G01X0054447Y-035070D02*
G01X0054410Y-035052D01*
G01X0054410Y-035052D02*
G01X0054335Y-035052D01*
G01X0054335Y-035052D02*
G01X0054297Y-035070D01*
G01X0054297Y-035070D02*
G01X0054279Y-035089D01*
G01X0054279Y-035089D02*
G01X0054260Y-035127D01*
G01X0052402Y-035427D02*
G01X0052253Y-035532D01*
G01X0052402Y-035607D02*
G01X0052088Y-035607D01*
G01X0052088Y-035607D02*
G01X0052088Y-035487D01*
G01X0052088Y-035487D02*
G01X0052103Y-035457D01*
G01X0052103Y-035457D02*
G01X0052118Y-035442D01*
G01X0052118Y-035442D02*
G01X0052148Y-035427D01*
G01X0052148Y-035427D02*
G01X0052193Y-035427D01*
G01X0052193Y-035427D02*
G01X0052223Y-035442D01*
G01X0052223Y-035442D02*
G01X0052238Y-035457D01*
G01X0052238Y-035457D02*
G01X0052253Y-035487D01*
G01X0052253Y-035487D02*
G01X0052253Y-035607D01*
G01X0052402Y-035292D02*
G01X0052088Y-035292D01*
G01X0052088Y-035292D02*
G01X0052402Y-035112D01*
G01X0052402Y-035112D02*
G01X0052088Y-035112D01*
G01X0052088Y-034813D02*
G01X0052088Y-034963D01*
G01X0052088Y-034963D02*
G01X0052238Y-034978D01*
G01X0052238Y-034978D02*
G01X0052223Y-034963D01*
G01X0052223Y-034963D02*
G01X0052208Y-034933D01*
G01X0052208Y-034933D02*
G01X0052208Y-034858D01*
G01X0052208Y-034858D02*
G01X0052223Y-034828D01*
G01X0052223Y-034828D02*
G01X0052238Y-034813D01*
G01X0052238Y-034813D02*
G01X0052267Y-034798D01*
G01X0052267Y-034798D02*
G01X0052342Y-034798D01*
G01X0052342Y-034798D02*
G01X0052372Y-034813D01*
G01X0052372Y-034813D02*
G01X0052387Y-034828D01*
G01X0052387Y-034828D02*
G01X0052402Y-034858D01*
G01X0052402Y-034858D02*
G01X0052402Y-034933D01*
G01X0052402Y-034933D02*
G01X0052387Y-034963D01*
G01X0052387Y-034963D02*
G01X0052372Y-034978D01*
G01X0052088Y-034528D02*
G01X0052088Y-034588D01*
G01X0052088Y-034588D02*
G01X0052103Y-034618D01*
G01X0052103Y-034618D02*
G01X0052118Y-034633D01*
G01X0052118Y-034633D02*
G01X0052163Y-034663D01*
G01X0052163Y-034663D02*
G01X0052223Y-034678D01*
G01X0052223Y-034678D02*
G01X0052342Y-034678D01*
G01X0052342Y-034678D02*
G01X0052372Y-034663D01*
G01X0052372Y-034663D02*
G01X0052387Y-034648D01*
G01X0052387Y-034648D02*
G01X0052402Y-034618D01*
G01X0052402Y-034618D02*
G01X0052402Y-034558D01*
G01X0052402Y-034558D02*
G01X0052387Y-034528D01*
G01X0052387Y-034528D02*
G01X0052372Y-034513D01*
G01X0052372Y-034513D02*
G01X0052342Y-034498D01*
G01X0052342Y-034498D02*
G01X0052267Y-034498D01*
G01X0052267Y-034498D02*
G01X0052238Y-034513D01*
G01X0052238Y-034513D02*
G01X0052223Y-034528D01*
G01X0052223Y-034528D02*
G01X0052208Y-034558D01*
G01X0052208Y-034558D02*
G01X0052208Y-034618D01*
G01X0052208Y-034618D02*
G01X0052223Y-034648D01*
G01X0052223Y-034648D02*
G01X0052238Y-034663D01*
G01X0052238Y-034663D02*
G01X0052267Y-034678D01*
G01X0052302Y-041107D02*
G01X0052153Y-041212D01*
G01X0052302Y-041287D02*
G01X0051988Y-041287D01*
G01X0051988Y-041287D02*
G01X0051988Y-041167D01*
G01X0051988Y-041167D02*
G01X0052003Y-041137D01*
G01X0052003Y-041137D02*
G01X0052018Y-041122D01*
G01X0052018Y-041122D02*
G01X0052048Y-041107D01*
G01X0052048Y-041107D02*
G01X0052093Y-041107D01*
G01X0052093Y-041107D02*
G01X0052123Y-041122D01*
G01X0052123Y-041122D02*
G01X0052138Y-041137D01*
G01X0052138Y-041137D02*
G01X0052153Y-041167D01*
G01X0052153Y-041167D02*
G01X0052153Y-041287D01*
G01X0052302Y-040972D02*
G01X0051988Y-040972D01*
G01X0051988Y-040972D02*
G01X0052302Y-040792D01*
G01X0052302Y-040792D02*
G01X0051988Y-040792D01*
G01X0051988Y-040673D02*
G01X0051988Y-040478D01*
G01X0051988Y-040478D02*
G01X0052108Y-040583D01*
G01X0052108Y-040583D02*
G01X0052108Y-040538D01*
G01X0052108Y-040538D02*
G01X0052123Y-040508D01*
G01X0052123Y-040508D02*
G01X0052138Y-040493D01*
G01X0052138Y-040493D02*
G01X0052167Y-040478D01*
G01X0052167Y-040478D02*
G01X0052242Y-040478D01*
G01X0052242Y-040478D02*
G01X0052272Y-040493D01*
G01X0052272Y-040493D02*
G01X0052287Y-040508D01*
G01X0052287Y-040508D02*
G01X0052302Y-040538D01*
G01X0052302Y-040538D02*
G01X0052302Y-040628D01*
G01X0052302Y-040628D02*
G01X0052287Y-040658D01*
G01X0052287Y-040658D02*
G01X0052272Y-040673D01*
G01X0052093Y-040208D02*
G01X0052302Y-040208D01*
G01X0051973Y-040283D02*
G01X0052197Y-040358D01*
G01X0052197Y-040358D02*
G01X0052197Y-040163D01*
G01X0052229Y-045289D02*
G01X0052079Y-045394D01*
G01X0052229Y-045469D02*
G01X0051914Y-045469D01*
G01X0051914Y-045469D02*
G01X0051914Y-045349D01*
G01X0051914Y-045349D02*
G01X0051929Y-045319D01*
G01X0051929Y-045319D02*
G01X0051944Y-045304D01*
G01X0051944Y-045304D02*
G01X0051974Y-045289D01*
G01X0051974Y-045289D02*
G01X0052019Y-045289D01*
G01X0052019Y-045289D02*
G01X0052049Y-045304D01*
G01X0052049Y-045304D02*
G01X0052064Y-045319D01*
G01X0052064Y-045319D02*
G01X0052079Y-045349D01*
G01X0052079Y-045349D02*
G01X0052079Y-045469D01*
G01X0052229Y-045154D02*
G01X0051914Y-045154D01*
G01X0051914Y-045154D02*
G01X0052229Y-044974D01*
G01X0052229Y-044974D02*
G01X0051914Y-044974D01*
G01X0052229Y-044659D02*
G01X0052229Y-044839D01*
G01X0052229Y-044749D02*
G01X0051914Y-044749D01*
G01X0051914Y-044749D02*
G01X0051959Y-044779D01*
G01X0051959Y-044779D02*
G01X0051989Y-044809D01*
G01X0051989Y-044809D02*
G01X0052004Y-044839D01*
G01X0051944Y-044539D02*
G01X0051929Y-044524D01*
G01X0051929Y-044524D02*
G01X0051914Y-044494D01*
G01X0051914Y-044494D02*
G01X0051914Y-044419D01*
G01X0051914Y-044419D02*
G01X0051929Y-044389D01*
G01X0051929Y-044389D02*
G01X0051944Y-044374D01*
G01X0051944Y-044374D02*
G01X0051974Y-044359D01*
G01X0051974Y-044359D02*
G01X0052004Y-044359D01*
G01X0052004Y-044359D02*
G01X0052049Y-044374D01*
G01X0052049Y-044374D02*
G01X0052229Y-044554D01*
G01X0052229Y-044554D02*
G01X0052229Y-044359D01*
G01X0057750Y-048925D02*
G01X0057750Y-049206D01*
G01X0057750Y-049206D02*
G01X0057731Y-049262D01*
G01X0057731Y-049262D02*
G01X0057694Y-049300D01*
G01X0057694Y-049300D02*
G01X0057637Y-049318D01*
G01X0057637Y-049318D02*
G01X0057600Y-049318D01*
G01X0057900Y-048925D02*
G01X0058162Y-048925D01*
G01X0058162Y-048925D02*
G01X0057993Y-049318D01*
G01X0051824Y-033412D02*
G01X0051732Y-033281D01*
G01X0051667Y-033412D02*
G01X0051667Y-033136D01*
G01X0051667Y-033136D02*
G01X0051772Y-033136D01*
G01X0051772Y-033136D02*
G01X0051798Y-033150D01*
G01X0051798Y-033150D02*
G01X0051811Y-033163D01*
G01X0051811Y-033163D02*
G01X0051824Y-033189D01*
G01X0051824Y-033189D02*
G01X0051824Y-033228D01*
G01X0051824Y-033228D02*
G01X0051811Y-033255D01*
G01X0051811Y-033255D02*
G01X0051798Y-033268D01*
G01X0051798Y-033268D02*
G01X0051772Y-033281D01*
G01X0051772Y-033281D02*
G01X0051667Y-033281D01*
G01X0052060Y-033136D02*
G01X0052008Y-033136D01*
G01X0052008Y-033136D02*
G01X0051982Y-033150D01*
G01X0051982Y-033150D02*
G01X0051969Y-033163D01*
G01X0051969Y-033163D02*
G01X0051942Y-033202D01*
G01X0051942Y-033202D02*
G01X0051929Y-033255D01*
G01X0051929Y-033255D02*
G01X0051929Y-033360D01*
G01X0051929Y-033360D02*
G01X0051942Y-033386D01*
G01X0051942Y-033386D02*
G01X0051955Y-033399D01*
G01X0051955Y-033399D02*
G01X0051982Y-033412D01*
G01X0051982Y-033412D02*
G01X0052034Y-033412D01*
G01X0052034Y-033412D02*
G01X0052060Y-033399D01*
G01X0052060Y-033399D02*
G01X0052073Y-033386D01*
G01X0052073Y-033386D02*
G01X0052087Y-033360D01*
G01X0052087Y-033360D02*
G01X0052087Y-033294D01*
G01X0052087Y-033294D02*
G01X0052073Y-033268D01*
G01X0052073Y-033268D02*
G01X0052060Y-033255D01*
G01X0052060Y-033255D02*
G01X0052034Y-033241D01*
G01X0052034Y-033241D02*
G01X0051982Y-033241D01*
G01X0051982Y-033241D02*
G01X0051955Y-033255D01*
G01X0051955Y-033255D02*
G01X0051942Y-033268D01*
G01X0051942Y-033268D02*
G01X0051929Y-033294D01*
G01X0044639Y-031497D02*
G01X0044508Y-031310D01*
G01X0044414Y-031497D02*
G01X0044414Y-031103D01*
G01X0044414Y-031103D02*
G01X0044564Y-031103D01*
G01X0044564Y-031103D02*
G01X0044602Y-031122D01*
G01X0044602Y-031122D02*
G01X0044620Y-031141D01*
G01X0044620Y-031141D02*
G01X0044639Y-031178D01*
G01X0044639Y-031178D02*
G01X0044639Y-031235D01*
G01X0044639Y-031235D02*
G01X0044620Y-031272D01*
G01X0044620Y-031272D02*
G01X0044602Y-031291D01*
G01X0044602Y-031291D02*
G01X0044564Y-031310D01*
G01X0044564Y-031310D02*
G01X0044414Y-031310D01*
G01X0044770Y-031103D02*
G01X0045033Y-031103D01*
G01X0045033Y-031103D02*
G01X0044864Y-031497D01*
G01X0044922Y-031975D02*
G01X0044735Y-032106D01*
G01X0044922Y-032200D02*
G01X0044528Y-032200D01*
G01X0044528Y-032200D02*
G01X0044528Y-032050D01*
G01X0044528Y-032050D02*
G01X0044547Y-032013D01*
G01X0044547Y-032013D02*
G01X0044566Y-031994D01*
G01X0044566Y-031994D02*
G01X0044603Y-031975D01*
G01X0044603Y-031975D02*
G01X0044660Y-031975D01*
G01X0044660Y-031975D02*
G01X0044697Y-031994D01*
G01X0044697Y-031994D02*
G01X0044716Y-032013D01*
G01X0044716Y-032013D02*
G01X0044735Y-032050D01*
G01X0044735Y-032050D02*
G01X0044735Y-032200D01*
G01X0044922Y-031600D02*
G01X0044922Y-031825D01*
G01X0044922Y-031713D02*
G01X0044528Y-031713D01*
G01X0044528Y-031713D02*
G01X0044585Y-031750D01*
G01X0044585Y-031750D02*
G01X0044622Y-031788D01*
G01X0044622Y-031788D02*
G01X0044641Y-031825D01*
G01X0041056Y-033428D02*
G01X0041038Y-033447D01*
G01X0041038Y-033447D02*
G01X0040981Y-033466D01*
G01X0040981Y-033466D02*
G01X0040944Y-033466D01*
G01X0040944Y-033466D02*
G01X0040888Y-033447D01*
G01X0040888Y-033447D02*
G01X0040850Y-033409D01*
G01X0040850Y-033409D02*
G01X0040831Y-033372D01*
G01X0040831Y-033372D02*
G01X0040813Y-033297D01*
G01X0040813Y-033297D02*
G01X0040813Y-033241D01*
G01X0040813Y-033241D02*
G01X0040831Y-033166D01*
G01X0040831Y-033166D02*
G01X0040850Y-033128D01*
G01X0040850Y-033128D02*
G01X0040888Y-033091D01*
G01X0040888Y-033091D02*
G01X0040944Y-033072D01*
G01X0040944Y-033072D02*
G01X0040981Y-033072D01*
G01X0040981Y-033072D02*
G01X0041038Y-033091D01*
G01X0041038Y-033091D02*
G01X0041056Y-033109D01*
G01X0041188Y-033072D02*
G01X0041450Y-033072D01*
G01X0041450Y-033072D02*
G01X0041281Y-033466D01*
G01X0045434Y-033475D02*
G01X0045040Y-033475D01*
G01X0045397Y-033062D02*
G01X0045415Y-033081D01*
G01X0045415Y-033081D02*
G01X0045434Y-033137D01*
G01X0045434Y-033137D02*
G01X0045434Y-033175D01*
G01X0045434Y-033175D02*
G01X0045415Y-033231D01*
G01X0045415Y-033231D02*
G01X0045378Y-033269D01*
G01X0045378Y-033269D02*
G01X0045340Y-033287D01*
G01X0045340Y-033287D02*
G01X0045265Y-033306D01*
G01X0045265Y-033306D02*
G01X0045209Y-033306D01*
G01X0045209Y-033306D02*
G01X0045134Y-033287D01*
G01X0045134Y-033287D02*
G01X0045097Y-033269D01*
G01X0045097Y-033269D02*
G01X0045059Y-033231D01*
G01X0045059Y-033231D02*
G01X0045040Y-033175D01*
G01X0045040Y-033175D02*
G01X0045040Y-033137D01*
G01X0045040Y-033137D02*
G01X0045059Y-033081D01*
G01X0045059Y-033081D02*
G01X0045078Y-033062D01*
G01X0045040Y-032931D02*
G01X0045040Y-032669D01*
G01X0045040Y-032669D02*
G01X0045434Y-032837D01*
G01X0042246Y-032184D02*
G01X0042208Y-032165D01*
G01X0042208Y-032165D02*
G01X0042171Y-032128D01*
G01X0042171Y-032128D02*
G01X0042115Y-032072D01*
G01X0042115Y-032072D02*
G01X0042077Y-032053D01*
G01X0042077Y-032053D02*
G01X0042040Y-032053D01*
G01X0042058Y-032147D02*
G01X0042021Y-032128D01*
G01X0042021Y-032128D02*
G01X0041984Y-032090D01*
G01X0041984Y-032090D02*
G01X0041965Y-032015D01*
G01X0041965Y-032015D02*
G01X0041965Y-031884D01*
G01X0041965Y-031884D02*
G01X0041984Y-031809D01*
G01X0041984Y-031809D02*
G01X0042021Y-031772D01*
G01X0042021Y-031772D02*
G01X0042058Y-031753D01*
G01X0042058Y-031753D02*
G01X0042133Y-031753D01*
G01X0042133Y-031753D02*
G01X0042171Y-031772D01*
G01X0042171Y-031772D02*
G01X0042208Y-031809D01*
G01X0042208Y-031809D02*
G01X0042227Y-031884D01*
G01X0042227Y-031884D02*
G01X0042227Y-032015D01*
G01X0042227Y-032015D02*
G01X0042208Y-032090D01*
G01X0042208Y-032090D02*
G01X0042171Y-032128D01*
G01X0042171Y-032128D02*
G01X0042133Y-032147D01*
G01X0042133Y-032147D02*
G01X0042058Y-032147D01*
G01X0042602Y-032147D02*
G01X0042377Y-032147D01*
G01X0042490Y-032147D02*
G01X0042490Y-031753D01*
G01X0042490Y-031753D02*
G01X0042452Y-031809D01*
G01X0042452Y-031809D02*
G01X0042415Y-031847D01*
G01X0042415Y-031847D02*
G01X0042377Y-031865D01*
G01X0043762Y-032184D02*
G01X0043724Y-032165D01*
G01X0043724Y-032165D02*
G01X0043687Y-032128D01*
G01X0043687Y-032128D02*
G01X0043630Y-032072D01*
G01X0043630Y-032072D02*
G01X0043593Y-032053D01*
G01X0043593Y-032053D02*
G01X0043555Y-032053D01*
G01X0043574Y-032147D02*
G01X0043537Y-032128D01*
G01X0043537Y-032128D02*
G01X0043499Y-032090D01*
G01X0043499Y-032090D02*
G01X0043481Y-032015D01*
G01X0043481Y-032015D02*
G01X0043481Y-031884D01*
G01X0043481Y-031884D02*
G01X0043499Y-031809D01*
G01X0043499Y-031809D02*
G01X0043537Y-031772D01*
G01X0043537Y-031772D02*
G01X0043574Y-031753D01*
G01X0043574Y-031753D02*
G01X0043649Y-031753D01*
G01X0043649Y-031753D02*
G01X0043687Y-031772D01*
G01X0043687Y-031772D02*
G01X0043724Y-031809D01*
G01X0043724Y-031809D02*
G01X0043743Y-031884D01*
G01X0043743Y-031884D02*
G01X0043743Y-032015D01*
G01X0043743Y-032015D02*
G01X0043724Y-032090D01*
G01X0043724Y-032090D02*
G01X0043687Y-032128D01*
G01X0043687Y-032128D02*
G01X0043649Y-032147D01*
G01X0043649Y-032147D02*
G01X0043574Y-032147D01*
G01X0043893Y-031790D02*
G01X0043912Y-031772D01*
G01X0043912Y-031772D02*
G01X0043949Y-031753D01*
G01X0043949Y-031753D02*
G01X0044043Y-031753D01*
G01X0044043Y-031753D02*
G01X0044080Y-031772D01*
G01X0044080Y-031772D02*
G01X0044099Y-031790D01*
G01X0044099Y-031790D02*
G01X0044118Y-031828D01*
G01X0044118Y-031828D02*
G01X0044118Y-031865D01*
G01X0044118Y-031865D02*
G01X0044099Y-031922D01*
G01X0044099Y-031922D02*
G01X0043874Y-032147D01*
G01X0043874Y-032147D02*
G01X0044118Y-032147D01*
G54D12*
G01X0046378Y-035406D02*
G01X0046408Y-035406D01*
G01X0046408Y-035406D02*
G01X0046423Y-035413D01*
G01X0046423Y-035413D02*
G01X0046438Y-035428D01*
G01X0046438Y-035428D02*
G01X0046445Y-035458D01*
G01X0046445Y-035458D02*
G01X0046445Y-035511D01*
G01X0046445Y-035511D02*
G01X0046438Y-035541D01*
G01X0046438Y-035541D02*
G01X0046423Y-035556D01*
G01X0046423Y-035556D02*
G01X0046408Y-035563D01*
G01X0046408Y-035563D02*
G01X0046378Y-035563D01*
G01X0046378Y-035563D02*
G01X0046363Y-035556D01*
G01X0046363Y-035556D02*
G01X0046348Y-035541D01*
G01X0046348Y-035541D02*
G01X0046340Y-035511D01*
G01X0046340Y-035511D02*
G01X0046340Y-035458D01*
G01X0046340Y-035458D02*
G01X0046348Y-035428D01*
G01X0046348Y-035428D02*
G01X0046363Y-035413D01*
G01X0046363Y-035413D02*
G01X0046378Y-035406D01*
G01X0046490Y-035406D02*
G01X0046543Y-035563D01*
G01X0046543Y-035563D02*
G01X0046595Y-035406D01*
G01X0046648Y-035563D02*
G01X0046648Y-035406D01*
G01X0046648Y-035406D02*
G01X0046708Y-035406D01*
G01X0046708Y-035406D02*
G01X0046723Y-035413D01*
G01X0046723Y-035413D02*
G01X0046730Y-035421D01*
G01X0046730Y-035421D02*
G01X0046738Y-035436D01*
G01X0046738Y-035436D02*
G01X0046738Y-035458D01*
G01X0046738Y-035458D02*
G01X0046730Y-035473D01*
G01X0046730Y-035473D02*
G01X0046723Y-035481D01*
G01X0046723Y-035481D02*
G01X0046708Y-035488D01*
G01X0046708Y-035488D02*
G01X0046648Y-035488D01*
G01X0046888Y-035563D02*
G01X0046798Y-035563D01*
G01X0046843Y-035563D02*
G01X0046843Y-035406D01*
G01X0046843Y-035406D02*
G01X0046828Y-035428D01*
G01X0046828Y-035428D02*
G01X0046813Y-035443D01*
G01X0046813Y-035443D02*
G01X0046798Y-035451D01*
G54D11*
G01X0046568Y-037703D02*
G01X0046476Y-037572D01*
G01X0046411Y-037703D02*
G01X0046411Y-037428D01*
G01X0046411Y-037428D02*
G01X0046516Y-037428D01*
G01X0046516Y-037428D02*
G01X0046542Y-037441D01*
G01X0046542Y-037441D02*
G01X0046555Y-037454D01*
G01X0046555Y-037454D02*
G01X0046568Y-037480D01*
G01X0046568Y-037480D02*
G01X0046568Y-037520D01*
G01X0046568Y-037520D02*
G01X0046555Y-037546D01*
G01X0046555Y-037546D02*
G01X0046542Y-037559D01*
G01X0046542Y-037559D02*
G01X0046516Y-037572D01*
G01X0046516Y-037572D02*
G01X0046411Y-037572D01*
G01X0046726Y-037546D02*
G01X0046699Y-037533D01*
G01X0046699Y-037533D02*
G01X0046686Y-037520D01*
G01X0046686Y-037520D02*
G01X0046673Y-037493D01*
G01X0046673Y-037493D02*
G01X0046673Y-037480D01*
G01X0046673Y-037480D02*
G01X0046686Y-037454D01*
G01X0046686Y-037454D02*
G01X0046699Y-037441D01*
G01X0046699Y-037441D02*
G01X0046726Y-037428D01*
G01X0046726Y-037428D02*
G01X0046778Y-037428D01*
G01X0046778Y-037428D02*
G01X0046804Y-037441D01*
G01X0046804Y-037441D02*
G01X0046818Y-037454D01*
G01X0046818Y-037454D02*
G01X0046831Y-037480D01*
G01X0046831Y-037480D02*
G01X0046831Y-037493D01*
G01X0046831Y-037493D02*
G01X0046818Y-037520D01*
G01X0046818Y-037520D02*
G01X0046804Y-037533D01*
G01X0046804Y-037533D02*
G01X0046778Y-037546D01*
G01X0046778Y-037546D02*
G01X0046726Y-037546D01*
G01X0046726Y-037546D02*
G01X0046699Y-037559D01*
G01X0046699Y-037559D02*
G01X0046686Y-037572D01*
G01X0046686Y-037572D02*
G01X0046673Y-037598D01*
G01X0046673Y-037598D02*
G01X0046673Y-037651D01*
G01X0046673Y-037651D02*
G01X0046686Y-037677D01*
G01X0046686Y-037677D02*
G01X0046699Y-037690D01*
G01X0046699Y-037690D02*
G01X0046726Y-037703D01*
G01X0046726Y-037703D02*
G01X0046778Y-037703D01*
G01X0046778Y-037703D02*
G01X0046804Y-037690D01*
G01X0046804Y-037690D02*
G01X0046818Y-037677D01*
G01X0046818Y-037677D02*
G01X0046831Y-037651D01*
G01X0046831Y-037651D02*
G01X0046831Y-037598D01*
G01X0046831Y-037598D02*
G01X0046818Y-037572D01*
G01X0046818Y-037572D02*
G01X0046804Y-037559D01*
G01X0046804Y-037559D02*
G01X0046778Y-037546D01*
G01X0040505Y-047487D02*
G01X0040413Y-047356D01*
G01X0040348Y-047487D02*
G01X0040348Y-047211D01*
G01X0040348Y-047211D02*
G01X0040453Y-047211D01*
G01X0040453Y-047211D02*
G01X0040479Y-047224D01*
G01X0040479Y-047224D02*
G01X0040492Y-047238D01*
G01X0040492Y-047238D02*
G01X0040505Y-047264D01*
G01X0040505Y-047264D02*
G01X0040505Y-047303D01*
G01X0040505Y-047303D02*
G01X0040492Y-047329D01*
G01X0040492Y-047329D02*
G01X0040479Y-047343D01*
G01X0040479Y-047343D02*
G01X0040453Y-047356D01*
G01X0040453Y-047356D02*
G01X0040348Y-047356D01*
G01X0040755Y-047211D02*
G01X0040623Y-047211D01*
G01X0040623Y-047211D02*
G01X0040610Y-047343D01*
G01X0040610Y-047343D02*
G01X0040623Y-047329D01*
G01X0040623Y-047329D02*
G01X0040650Y-047316D01*
G01X0040650Y-047316D02*
G01X0040715Y-047316D01*
G01X0040715Y-047316D02*
G01X0040741Y-047329D01*
G01X0040741Y-047329D02*
G01X0040755Y-047343D01*
G01X0040755Y-047343D02*
G01X0040768Y-047369D01*
G01X0040768Y-047369D02*
G01X0040768Y-047434D01*
G01X0040768Y-047434D02*
G01X0040755Y-047461D01*
G01X0040755Y-047461D02*
G01X0040741Y-047474D01*
G01X0040741Y-047474D02*
G01X0040715Y-047487D01*
G01X0040715Y-047487D02*
G01X0040650Y-047487D01*
G01X0040650Y-047487D02*
G01X0040623Y-047474D01*
G01X0040623Y-047474D02*
G01X0040610Y-047461D01*
G01X0043723Y-043645D02*
G01X0043705Y-043663D01*
G01X0043705Y-043663D02*
G01X0043648Y-043682D01*
G01X0043648Y-043682D02*
G01X0043611Y-043682D01*
G01X0043611Y-043682D02*
G01X0043555Y-043663D01*
G01X0043555Y-043663D02*
G01X0043517Y-043626D01*
G01X0043517Y-043626D02*
G01X0043498Y-043588D01*
G01X0043498Y-043588D02*
G01X0043480Y-043513D01*
G01X0043480Y-043513D02*
G01X0043480Y-043457D01*
G01X0043480Y-043457D02*
G01X0043498Y-043382D01*
G01X0043498Y-043382D02*
G01X0043517Y-043345D01*
G01X0043517Y-043345D02*
G01X0043555Y-043307D01*
G01X0043555Y-043307D02*
G01X0043611Y-043288D01*
G01X0043611Y-043288D02*
G01X0043648Y-043288D01*
G01X0043648Y-043288D02*
G01X0043705Y-043307D01*
G01X0043705Y-043307D02*
G01X0043723Y-043326D01*
G01X0044098Y-043682D02*
G01X0043873Y-043682D01*
G01X0043986Y-043682D02*
G01X0043986Y-043288D01*
G01X0043986Y-043288D02*
G01X0043948Y-043345D01*
G01X0043948Y-043345D02*
G01X0043911Y-043382D01*
G01X0043911Y-043382D02*
G01X0043873Y-043401D01*
G01X0044342Y-043288D02*
G01X0044379Y-043288D01*
G01X0044379Y-043288D02*
G01X0044417Y-043307D01*
G01X0044417Y-043307D02*
G01X0044436Y-043326D01*
G01X0044436Y-043326D02*
G01X0044454Y-043363D01*
G01X0044454Y-043363D02*
G01X0044473Y-043438D01*
G01X0044473Y-043438D02*
G01X0044473Y-043532D01*
G01X0044473Y-043532D02*
G01X0044454Y-043607D01*
G01X0044454Y-043607D02*
G01X0044436Y-043645D01*
G01X0044436Y-043645D02*
G01X0044417Y-043663D01*
G01X0044417Y-043663D02*
G01X0044379Y-043682D01*
G01X0044379Y-043682D02*
G01X0044342Y-043682D01*
G01X0044342Y-043682D02*
G01X0044304Y-043663D01*
G01X0044304Y-043663D02*
G01X0044286Y-043645D01*
G01X0044286Y-043645D02*
G01X0044267Y-043607D01*
G01X0044267Y-043607D02*
G01X0044248Y-043532D01*
G01X0044248Y-043532D02*
G01X0044248Y-043438D01*
G01X0044248Y-043438D02*
G01X0044267Y-043363D01*
G01X0044267Y-043363D02*
G01X0044286Y-043326D01*
G01X0044286Y-043326D02*
G01X0044304Y-043307D01*
G01X0044304Y-043307D02*
G01X0044342Y-043288D01*
G01X0040546Y-046333D02*
G01X0040531Y-046348D01*
G01X0040531Y-046348D02*
G01X0040486Y-046363D01*
G01X0040486Y-046363D02*
G01X0040456Y-046363D01*
G01X0040456Y-046363D02*
G01X0040411Y-046348D01*
G01X0040411Y-046348D02*
G01X0040381Y-046318D01*
G01X0040381Y-046318D02*
G01X0040366Y-046288D01*
G01X0040366Y-046288D02*
G01X0040351Y-046228D01*
G01X0040351Y-046228D02*
G01X0040351Y-046183D01*
G01X0040351Y-046183D02*
G01X0040366Y-046123D01*
G01X0040366Y-046123D02*
G01X0040381Y-046093D01*
G01X0040381Y-046093D02*
G01X0040411Y-046063D01*
G01X0040411Y-046063D02*
G01X0040456Y-046048D01*
G01X0040456Y-046048D02*
G01X0040486Y-046048D01*
G01X0040486Y-046048D02*
G01X0040531Y-046063D01*
G01X0040531Y-046063D02*
G01X0040546Y-046078D01*
G01X0040846Y-046363D02*
G01X0040666Y-046363D01*
G01X0040756Y-046363D02*
G01X0040756Y-046048D01*
G01X0040756Y-046048D02*
G01X0040726Y-046093D01*
G01X0040726Y-046093D02*
G01X0040696Y-046123D01*
G01X0040696Y-046123D02*
G01X0040666Y-046138D01*
G01X0041115Y-046153D02*
G01X0041115Y-046363D01*
G01X0041040Y-046033D02*
G01X0040966Y-046258D01*
G01X0040966Y-046258D02*
G01X0041160Y-046258D01*
G01X0040958Y-043442D02*
G01X0040853Y-043442D01*
G01X0040853Y-043607D02*
G01X0040853Y-043292D01*
G01X0040853Y-043292D02*
G01X0041003Y-043292D01*
G01X0041228Y-043442D02*
G01X0041273Y-043457D01*
G01X0041273Y-043457D02*
G01X0041288Y-043472D01*
G01X0041288Y-043472D02*
G01X0041303Y-043502D01*
G01X0041303Y-043502D02*
G01X0041303Y-043547D01*
G01X0041303Y-043547D02*
G01X0041288Y-043577D01*
G01X0041288Y-043577D02*
G01X0041273Y-043592D01*
G01X0041273Y-043592D02*
G01X0041243Y-043607D01*
G01X0041243Y-043607D02*
G01X0041123Y-043607D01*
G01X0041123Y-043607D02*
G01X0041123Y-043292D01*
G01X0041123Y-043292D02*
G01X0041228Y-043292D01*
G01X0041228Y-043292D02*
G01X0041258Y-043307D01*
G01X0041258Y-043307D02*
G01X0041273Y-043322D01*
G01X0041273Y-043322D02*
G01X0041288Y-043352D01*
G01X0041288Y-043352D02*
G01X0041288Y-043382D01*
G01X0041288Y-043382D02*
G01X0041273Y-043412D01*
G01X0041273Y-043412D02*
G01X0041258Y-043427D01*
G01X0041258Y-043427D02*
G01X0041228Y-043442D01*
G01X0041228Y-043442D02*
G01X0041123Y-043442D01*
G01X0041603Y-043607D02*
G01X0041423Y-043607D01*
G01X0041513Y-043607D02*
G01X0041513Y-043292D01*
G01X0041513Y-043292D02*
G01X0041483Y-043337D01*
G01X0041483Y-043337D02*
G01X0041453Y-043367D01*
G01X0041453Y-043367D02*
G01X0041423Y-043382D01*
G01X0039974Y-043442D02*
G01X0039869Y-043442D01*
G01X0039869Y-043607D02*
G01X0039869Y-043292D01*
G01X0039869Y-043292D02*
G01X0040019Y-043292D01*
G01X0040244Y-043442D02*
G01X0040289Y-043457D01*
G01X0040289Y-043457D02*
G01X0040304Y-043472D01*
G01X0040304Y-043472D02*
G01X0040319Y-043502D01*
G01X0040319Y-043502D02*
G01X0040319Y-043547D01*
G01X0040319Y-043547D02*
G01X0040304Y-043577D01*
G01X0040304Y-043577D02*
G01X0040289Y-043592D01*
G01X0040289Y-043592D02*
G01X0040259Y-043607D01*
G01X0040259Y-043607D02*
G01X0040139Y-043607D01*
G01X0040139Y-043607D02*
G01X0040139Y-043292D01*
G01X0040139Y-043292D02*
G01X0040244Y-043292D01*
G01X0040244Y-043292D02*
G01X0040274Y-043307D01*
G01X0040274Y-043307D02*
G01X0040289Y-043322D01*
G01X0040289Y-043322D02*
G01X0040304Y-043352D01*
G01X0040304Y-043352D02*
G01X0040304Y-043382D01*
G01X0040304Y-043382D02*
G01X0040289Y-043412D01*
G01X0040289Y-043412D02*
G01X0040274Y-043427D01*
G01X0040274Y-043427D02*
G01X0040244Y-043442D01*
G01X0040244Y-043442D02*
G01X0040139Y-043442D01*
G01X0040439Y-043322D02*
G01X0040454Y-043307D01*
G01X0040454Y-043307D02*
G01X0040484Y-043292D01*
G01X0040484Y-043292D02*
G01X0040559Y-043292D01*
G01X0040559Y-043292D02*
G01X0040589Y-043307D01*
G01X0040589Y-043307D02*
G01X0040604Y-043322D01*
G01X0040604Y-043322D02*
G01X0040619Y-043352D01*
G01X0040619Y-043352D02*
G01X0040619Y-043382D01*
G01X0040619Y-043382D02*
G01X0040604Y-043427D01*
G01X0040604Y-043427D02*
G01X0040424Y-043607D01*
G01X0040424Y-043607D02*
G01X0040619Y-043607D01*
G01X0048064Y-045574D02*
G01X0048046Y-045592D01*
G01X0048046Y-045592D02*
G01X0047989Y-045611D01*
G01X0047989Y-045611D02*
G01X0047952Y-045611D01*
G01X0047952Y-045611D02*
G01X0047896Y-045592D01*
G01X0047896Y-045592D02*
G01X0047858Y-045555D01*
G01X0047858Y-045555D02*
G01X0047839Y-045517D01*
G01X0047839Y-045517D02*
G01X0047821Y-045442D01*
G01X0047821Y-045442D02*
G01X0047821Y-045386D01*
G01X0047821Y-045386D02*
G01X0047839Y-045311D01*
G01X0047839Y-045311D02*
G01X0047858Y-045274D01*
G01X0047858Y-045274D02*
G01X0047896Y-045236D01*
G01X0047896Y-045236D02*
G01X0047952Y-045217D01*
G01X0047952Y-045217D02*
G01X0047989Y-045217D01*
G01X0047989Y-045217D02*
G01X0048046Y-045236D01*
G01X0048046Y-045236D02*
G01X0048064Y-045255D01*
G01X0048289Y-045386D02*
G01X0048252Y-045367D01*
G01X0048252Y-045367D02*
G01X0048233Y-045349D01*
G01X0048233Y-045349D02*
G01X0048214Y-045311D01*
G01X0048214Y-045311D02*
G01X0048214Y-045292D01*
G01X0048214Y-045292D02*
G01X0048233Y-045255D01*
G01X0048233Y-045255D02*
G01X0048252Y-045236D01*
G01X0048252Y-045236D02*
G01X0048289Y-045217D01*
G01X0048289Y-045217D02*
G01X0048364Y-045217D01*
G01X0048364Y-045217D02*
G01X0048402Y-045236D01*
G01X0048402Y-045236D02*
G01X0048421Y-045255D01*
G01X0048421Y-045255D02*
G01X0048439Y-045292D01*
G01X0048439Y-045292D02*
G01X0048439Y-045311D01*
G01X0048439Y-045311D02*
G01X0048421Y-045349D01*
G01X0048421Y-045349D02*
G01X0048402Y-045367D01*
G01X0048402Y-045367D02*
G01X0048364Y-045386D01*
G01X0048364Y-045386D02*
G01X0048289Y-045386D01*
G01X0048289Y-045386D02*
G01X0048252Y-045405D01*
G01X0048252Y-045405D02*
G01X0048233Y-045424D01*
G01X0048233Y-045424D02*
G01X0048214Y-045461D01*
G01X0048214Y-045461D02*
G01X0048214Y-045536D01*
G01X0048214Y-045536D02*
G01X0048233Y-045574D01*
G01X0048233Y-045574D02*
G01X0048252Y-045592D01*
G01X0048252Y-045592D02*
G01X0048289Y-045611D01*
G01X0048289Y-045611D02*
G01X0048364Y-045611D01*
G01X0048364Y-045611D02*
G01X0048402Y-045592D01*
G01X0048402Y-045592D02*
G01X0048421Y-045574D01*
G01X0048421Y-045574D02*
G01X0048439Y-045536D01*
G01X0048439Y-045536D02*
G01X0048439Y-045461D01*
G01X0048439Y-045461D02*
G01X0048421Y-045424D01*
G01X0048421Y-045424D02*
G01X0048402Y-045405D01*
G01X0048402Y-045405D02*
G01X0048364Y-045386D01*
G01X0041211Y-032694D02*
G01X0041230Y-032713D01*
G01X0041230Y-032713D02*
G01X0041249Y-032769D01*
G01X0041249Y-032769D02*
G01X0041249Y-032807D01*
G01X0041249Y-032807D02*
G01X0041230Y-032863D01*
G01X0041230Y-032863D02*
G01X0041193Y-032900D01*
G01X0041193Y-032900D02*
G01X0041155Y-032919D01*
G01X0041155Y-032919D02*
G01X0041080Y-032938D01*
G01X0041080Y-032938D02*
G01X0041024Y-032938D01*
G01X0041024Y-032938D02*
G01X0040949Y-032919D01*
G01X0040949Y-032919D02*
G01X0040912Y-032900D01*
G01X0040912Y-032900D02*
G01X0040874Y-032863D01*
G01X0040874Y-032863D02*
G01X0040855Y-032807D01*
G01X0040855Y-032807D02*
G01X0040855Y-032769D01*
G01X0040855Y-032769D02*
G01X0040874Y-032713D01*
G01X0040874Y-032713D02*
G01X0040893Y-032694D01*
G01X0041249Y-032319D02*
G01X0041249Y-032544D01*
G01X0041249Y-032432D02*
G01X0040855Y-032432D01*
G01X0040855Y-032432D02*
G01X0040912Y-032469D01*
G01X0040912Y-032469D02*
G01X0040949Y-032507D01*
G01X0040949Y-032507D02*
G01X0040968Y-032544D01*
G01X0041249Y-031944D02*
G01X0041249Y-032169D01*
G01X0041249Y-032057D02*
G01X0040855Y-032057D01*
G01X0040855Y-032057D02*
G01X0040912Y-032094D01*
G01X0040912Y-032094D02*
G01X0040949Y-032132D01*
G01X0040949Y-032132D02*
G01X0040968Y-032169D01*
G01X0041304Y-031194D02*
G01X0041304Y-031476D01*
G01X0041304Y-031476D02*
G01X0041285Y-031532D01*
G01X0041285Y-031532D02*
G01X0041248Y-031569D01*
G01X0041248Y-031569D02*
G01X0041191Y-031588D01*
G01X0041191Y-031588D02*
G01X0041154Y-031588D01*
G01X0041472Y-031232D02*
G01X0041491Y-031213D01*
G01X0041491Y-031213D02*
G01X0041529Y-031194D01*
G01X0041529Y-031194D02*
G01X0041622Y-031194D01*
G01X0041622Y-031194D02*
G01X0041660Y-031213D01*
G01X0041660Y-031213D02*
G01X0041679Y-031232D01*
G01X0041679Y-031232D02*
G01X0041697Y-031269D01*
G01X0041697Y-031269D02*
G01X0041697Y-031307D01*
G01X0041697Y-031307D02*
G01X0041679Y-031363D01*
G01X0041679Y-031363D02*
G01X0041454Y-031588D01*
G01X0041454Y-031588D02*
G01X0041697Y-031588D01*
M02*
