G04 #@! TF.GenerationSoftware,KiCad,Pcbnew,(5.1.4)-1*
G04 #@! TF.CreationDate,2020-05-08T11:58:51+02:00*
G04 #@! TF.ProjectId,debounce_shield,6465626f-756e-4636-955f-736869656c64,rev?*
G04 #@! TF.SameCoordinates,Original*
G04 #@! TF.FileFunction,Profile,NP*
%FSLAX46Y46*%
G04 Gerber Fmt 4.6, Leading zero omitted, Abs format (unit mm)*
G04 Created by KiCad (PCBNEW (5.1.4)-1) date 2020-05-08 11:58:51*
%MOMM*%
%LPD*%
G04 APERTURE LIST*
%ADD10C,0.100000*%
G04 APERTURE END LIST*
D10*
X130400000Y-125604000D02*
G75*
G02X130400000Y-123572000I0J1016000D01*
G01*
X136600000Y-125604000D02*
X130400000Y-125600000D01*
X136600000Y-123572000D02*
X130400000Y-123572000D01*
X136600000Y-123572000D02*
G75*
G02X136600000Y-125604000I0J-1016000D01*
G01*
X149910800Y-80772000D02*
G75*
G02X149910800Y-82804000I0J-1016000D01*
G01*
X149910800Y-80772000D02*
X139200000Y-80772000D01*
X149910800Y-82804000D02*
X139200000Y-82804000D01*
X139200000Y-82804000D02*
G75*
G02X139200000Y-80772000I0J1016000D01*
G01*
X116200000Y-111556800D02*
G75*
G02X116200000Y-109524800I0J1016000D01*
G01*
X122682000Y-109524800D02*
X116200000Y-109524800D01*
X122682000Y-109524800D02*
G75*
G02X122682000Y-111556800I0J-1016000D01*
G01*
X116200000Y-111556800D02*
X122682000Y-111556800D01*
X162510600Y-75585200D02*
G75*
G03X159510600Y-72585200I-3000000J0D01*
G01*
X101010600Y-72585200D02*
X159510600Y-72585200D01*
X101010600Y-72585200D02*
G75*
G03X97510600Y-75085200I-500000J-3000000D01*
G01*
X98510600Y-109085200D02*
G75*
G03X97510600Y-110085200I0J-1000000D01*
G01*
X101510600Y-109085200D02*
G75*
G03X102510600Y-108085200I0J1000000D01*
G01*
X102510600Y-93085200D02*
G75*
G03X101510600Y-92085200I-1000000J0D01*
G01*
X97510600Y-91085200D02*
G75*
G03X98510600Y-92085200I1000000J0D01*
G01*
X159510600Y-128585200D02*
G75*
G03X162510600Y-125585200I0J3000000D01*
G01*
X97510600Y-125585200D02*
G75*
G03X100510600Y-128585200I3000000J0D01*
G01*
X97510600Y-110085200D02*
X97510600Y-125585200D01*
X97510600Y-75085200D02*
X97510600Y-91085200D01*
X98510600Y-109085200D02*
X101510600Y-109085200D01*
X98510600Y-92085200D02*
X101510600Y-92085200D01*
X102510600Y-93085200D02*
X102510600Y-108085200D01*
X100510600Y-128585200D02*
X159510600Y-128585200D01*
X162510600Y-75585200D02*
X162510600Y-125585200D01*
M02*
