G04 #@! TF.GenerationSoftware,KiCad,Pcbnew,(5.1.4)-1*
G04 #@! TF.CreationDate,2020-04-28T19:45:40+02:00*
G04 #@! TF.ProjectId,debounce_shield,6465626f-756e-4636-955f-736869656c64,rev?*
G04 #@! TF.SameCoordinates,Original*
G04 #@! TF.FileFunction,Soldermask,Bot*
G04 #@! TF.FilePolarity,Negative*
%FSLAX46Y46*%
G04 Gerber Fmt 4.6, Leading zero omitted, Abs format (unit mm)*
G04 Created by KiCad (PCBNEW (5.1.4)-1) date 2020-04-28 19:45:40*
%MOMM*%
%LPD*%
G04 APERTURE LIST*
%ADD10C,0.100000*%
%ADD11C,0.500000*%
G04 APERTURE END LIST*
D10*
G36*
X162750000Y-129000000D02*
G01*
X155250000Y-129000000D01*
X155250000Y-124250000D01*
X158250000Y-121250000D01*
X162750000Y-121250000D01*
X162750000Y-129000000D01*
G37*
X162750000Y-129000000D02*
X155250000Y-129000000D01*
X155250000Y-124250000D01*
X158250000Y-121250000D01*
X162750000Y-121250000D01*
X162750000Y-129000000D01*
D11*
G36*
X129500000Y-116300000D02*
G01*
X129350000Y-116450000D01*
X129200000Y-116300000D01*
X129350000Y-116150000D01*
X129500000Y-116300000D01*
G37*
X129500000Y-116300000D02*
X129350000Y-116450000D01*
X129200000Y-116300000D01*
X129350000Y-116150000D01*
X129500000Y-116300000D01*
G36*
X129600000Y-118800000D02*
G01*
X129450000Y-118950000D01*
X129300000Y-118800000D01*
X129450000Y-118650000D01*
X129600000Y-118800000D01*
G37*
X129600000Y-118800000D02*
X129450000Y-118950000D01*
X129300000Y-118800000D01*
X129450000Y-118650000D01*
X129600000Y-118800000D01*
D10*
G36*
X151200000Y-118500000D02*
G01*
X151200000Y-120300000D01*
X150300000Y-120300000D01*
X150300000Y-118500000D01*
X150750000Y-118050000D01*
X151200000Y-118500000D01*
G37*
X151200000Y-118500000D02*
X151200000Y-120300000D01*
X150300000Y-120300000D01*
X150300000Y-118500000D01*
X150750000Y-118050000D01*
X151200000Y-118500000D01*
G36*
X150800000Y-113600000D02*
G01*
X149900000Y-113600000D01*
X149900000Y-111600000D01*
X150800000Y-111600000D01*
X150800000Y-113600000D01*
G37*
X150800000Y-113600000D02*
X149900000Y-113600000D01*
X149900000Y-111600000D01*
X150800000Y-111600000D01*
X150800000Y-113600000D01*
G36*
X150800000Y-108400000D02*
G01*
X149900000Y-108400000D01*
X149900000Y-105500000D01*
X150800000Y-105500000D01*
X150800000Y-108400000D01*
G37*
X150800000Y-108400000D02*
X149900000Y-108400000D01*
X149900000Y-105500000D01*
X150800000Y-105500000D01*
X150800000Y-108400000D01*
G36*
X150700000Y-98900000D02*
G01*
X149800000Y-98900000D01*
X149800000Y-97400000D01*
X150700000Y-97400000D01*
X150700000Y-98900000D01*
G37*
X150700000Y-98900000D02*
X149800000Y-98900000D01*
X149800000Y-97400000D01*
X150700000Y-97400000D01*
X150700000Y-98900000D01*
G36*
X150850000Y-93800000D02*
G01*
X149900000Y-93800000D01*
X149900000Y-91100000D01*
X150850000Y-91100000D01*
X150850000Y-93800000D01*
G37*
X150850000Y-93800000D02*
X149900000Y-93800000D01*
X149900000Y-91100000D01*
X150850000Y-91100000D01*
X150850000Y-93800000D01*
G36*
X150800000Y-88300000D02*
G01*
X149900000Y-88300000D01*
X149900000Y-86000000D01*
X150800000Y-86000000D01*
X150800000Y-88300000D01*
G37*
X150800000Y-88300000D02*
X149900000Y-88300000D01*
X149900000Y-86000000D01*
X150800000Y-86000000D01*
X150800000Y-88300000D01*
G36*
X118200000Y-127809600D02*
G01*
X115800000Y-127809600D01*
X115800000Y-126409600D01*
X116600000Y-125609600D01*
X116600000Y-121509600D01*
X116200000Y-121109600D01*
X112600000Y-121109600D01*
X111300000Y-119809600D01*
X112400000Y-118709600D01*
X113300000Y-119609600D01*
X116200000Y-119609600D01*
X116600000Y-119209600D01*
X116600000Y-112809600D01*
X118200000Y-112809600D01*
X118200000Y-127809600D01*
G37*
X118200000Y-127809600D02*
X115800000Y-127809600D01*
X115800000Y-126409600D01*
X116600000Y-125609600D01*
X116600000Y-121509600D01*
X116200000Y-121109600D01*
X112600000Y-121109600D01*
X111300000Y-119809600D01*
X112400000Y-118709600D01*
X113300000Y-119609600D01*
X116200000Y-119609600D01*
X116600000Y-119209600D01*
X116600000Y-112809600D01*
X118200000Y-112809600D01*
X118200000Y-127809600D01*
G36*
X157400000Y-117000000D02*
G01*
X155000000Y-119400000D01*
X152600000Y-119400000D01*
X152623327Y-86300017D01*
X154800000Y-84100000D01*
X157400000Y-84100000D01*
X157400000Y-117000000D01*
G37*
X157400000Y-117000000D02*
X155000000Y-119400000D01*
X152600000Y-119400000D01*
X152623327Y-86300017D01*
X154800000Y-84100000D01*
X157400000Y-84100000D01*
X157400000Y-117000000D01*
G36*
X159407416Y-121370152D02*
G01*
X159745512Y-121437403D01*
X160195908Y-121623963D01*
X160344043Y-121685322D01*
X160382472Y-121701240D01*
X160955720Y-122084272D01*
X161443228Y-122571780D01*
X161826260Y-123145028D01*
X162090097Y-123781988D01*
X162117051Y-123917496D01*
X162224600Y-124458179D01*
X162224600Y-125147621D01*
X162193807Y-125302429D01*
X162090097Y-125823812D01*
X161939866Y-126186503D01*
X161832359Y-126446049D01*
X161826260Y-126460772D01*
X161443228Y-127034020D01*
X160955720Y-127521528D01*
X160382472Y-127904560D01*
X159745512Y-128168397D01*
X159407416Y-128235648D01*
X159069321Y-128302900D01*
X158379879Y-128302900D01*
X158041784Y-128235648D01*
X157703688Y-128168397D01*
X157066728Y-127904560D01*
X156493480Y-127521528D01*
X156005972Y-127034020D01*
X155622940Y-126460772D01*
X155616842Y-126446049D01*
X155509334Y-126186503D01*
X155359103Y-125823812D01*
X155255393Y-125302429D01*
X155224600Y-125147621D01*
X155224600Y-124458179D01*
X155332149Y-123917496D01*
X155359103Y-123781988D01*
X155622940Y-123145028D01*
X156005972Y-122571780D01*
X156493480Y-122084272D01*
X157066728Y-121701240D01*
X157105158Y-121685322D01*
X157253292Y-121623963D01*
X157703688Y-121437403D01*
X158041784Y-121370152D01*
X158379879Y-121302900D01*
X159069321Y-121302900D01*
X159407416Y-121370152D01*
X159407416Y-121370152D01*
G37*
G36*
X101367723Y-121823425D02*
G01*
X101905698Y-121930435D01*
X102492610Y-122173542D01*
X103020817Y-122526479D01*
X103470021Y-122975683D01*
X103822958Y-123503890D01*
X104066065Y-124090802D01*
X104066065Y-124090803D01*
X104156991Y-124547915D01*
X104190000Y-124713865D01*
X104190000Y-125349135D01*
X104066065Y-125972198D01*
X103822958Y-126559110D01*
X103470021Y-127087317D01*
X103020817Y-127536521D01*
X102492610Y-127889458D01*
X101905698Y-128132565D01*
X101725558Y-128168397D01*
X101282636Y-128256500D01*
X100647364Y-128256500D01*
X100204442Y-128168397D01*
X100024302Y-128132565D01*
X99437390Y-127889458D01*
X98909183Y-127536521D01*
X98459979Y-127087317D01*
X98107042Y-126559110D01*
X97863935Y-125972198D01*
X97740000Y-125349135D01*
X97740000Y-124713865D01*
X97773010Y-124547915D01*
X97863935Y-124090803D01*
X97863935Y-124090802D01*
X98107042Y-123503890D01*
X98459979Y-122975683D01*
X98909183Y-122526479D01*
X99437390Y-122173542D01*
X100024302Y-121930435D01*
X100562277Y-121823425D01*
X100647364Y-121806500D01*
X101282636Y-121806500D01*
X101367723Y-121823425D01*
X101367723Y-121823425D01*
G37*
G36*
X153414610Y-125648036D02*
G01*
X153642095Y-125742264D01*
X153642097Y-125742265D01*
X153846828Y-125879062D01*
X154020938Y-126053172D01*
X154155388Y-126254390D01*
X154157736Y-126257905D01*
X154251964Y-126485390D01*
X154300000Y-126726884D01*
X154300000Y-126973116D01*
X154251964Y-127214610D01*
X154171752Y-127408258D01*
X154157735Y-127442097D01*
X154020938Y-127646828D01*
X153846828Y-127820938D01*
X153642097Y-127957735D01*
X153642096Y-127957736D01*
X153642095Y-127957736D01*
X153414610Y-128051964D01*
X153173116Y-128100000D01*
X152926884Y-128100000D01*
X152685390Y-128051964D01*
X152457905Y-127957736D01*
X152457904Y-127957736D01*
X152457903Y-127957735D01*
X152253172Y-127820938D01*
X152079062Y-127646828D01*
X151942265Y-127442097D01*
X151928248Y-127408258D01*
X151848036Y-127214610D01*
X151800000Y-126973116D01*
X151800000Y-126726884D01*
X151848036Y-126485390D01*
X151942264Y-126257905D01*
X151944613Y-126254390D01*
X152079062Y-126053172D01*
X152253172Y-125879062D01*
X152457903Y-125742265D01*
X152457905Y-125742264D01*
X152685390Y-125648036D01*
X152926884Y-125600000D01*
X153173116Y-125600000D01*
X153414610Y-125648036D01*
X153414610Y-125648036D01*
G37*
G36*
X148666032Y-125864469D02*
G01*
X148714138Y-125879062D01*
X148854535Y-125921651D01*
X148854537Y-125921652D01*
X149028258Y-126014507D01*
X149180528Y-126139472D01*
X149305493Y-126291742D01*
X149395841Y-126460772D01*
X149398349Y-126465465D01*
X149426755Y-126559108D01*
X149455531Y-126653968D01*
X149474838Y-126850000D01*
X149455531Y-127046032D01*
X149398348Y-127234537D01*
X149305493Y-127408258D01*
X149180528Y-127560528D01*
X149028258Y-127685493D01*
X148854537Y-127778348D01*
X148854535Y-127778349D01*
X148760284Y-127806940D01*
X148666032Y-127835531D01*
X148519124Y-127850000D01*
X147420876Y-127850000D01*
X147273968Y-127835531D01*
X147179716Y-127806940D01*
X147085465Y-127778349D01*
X147085463Y-127778348D01*
X146911742Y-127685493D01*
X146759472Y-127560528D01*
X146634507Y-127408258D01*
X146541652Y-127234537D01*
X146484469Y-127046032D01*
X146465162Y-126850000D01*
X146484469Y-126653968D01*
X146513245Y-126559108D01*
X146541651Y-126465465D01*
X146544159Y-126460772D01*
X146634507Y-126291742D01*
X146759472Y-126139472D01*
X146911742Y-126014507D01*
X147085463Y-125921652D01*
X147085465Y-125921651D01*
X147225862Y-125879062D01*
X147273968Y-125864469D01*
X147420876Y-125850000D01*
X148519124Y-125850000D01*
X148666032Y-125864469D01*
X148666032Y-125864469D01*
G37*
G36*
X121962520Y-125234586D02*
G01*
X122126310Y-125302430D01*
X122273717Y-125400924D01*
X122399076Y-125526283D01*
X122480429Y-125648037D01*
X122497571Y-125673692D01*
X122565414Y-125837480D01*
X122600000Y-126011356D01*
X122600000Y-126188644D01*
X122565414Y-126362520D01*
X122520798Y-126470234D01*
X122497570Y-126526310D01*
X122399076Y-126673717D01*
X122273717Y-126799076D01*
X122126310Y-126897570D01*
X122126309Y-126897571D01*
X122126308Y-126897571D01*
X121962520Y-126965414D01*
X121788644Y-127000000D01*
X121611356Y-127000000D01*
X121437480Y-126965414D01*
X121273692Y-126897571D01*
X121273691Y-126897571D01*
X121273690Y-126897570D01*
X121126283Y-126799076D01*
X121000924Y-126673717D01*
X120902430Y-126526310D01*
X120879203Y-126470234D01*
X120834586Y-126362520D01*
X120800000Y-126188644D01*
X120800000Y-126011356D01*
X120834586Y-125837480D01*
X120902429Y-125673692D01*
X120919571Y-125648037D01*
X121000924Y-125526283D01*
X121126283Y-125400924D01*
X121273690Y-125302430D01*
X121437480Y-125234586D01*
X121611356Y-125200000D01*
X121788644Y-125200000D01*
X121962520Y-125234586D01*
X121962520Y-125234586D01*
G37*
G36*
X110858103Y-124785958D02*
G01*
X110925990Y-124806552D01*
X110988559Y-124839996D01*
X111043399Y-124885001D01*
X111088404Y-124939841D01*
X111121848Y-125002410D01*
X111142442Y-125070297D01*
X111150000Y-125147040D01*
X111150000Y-126109760D01*
X111142442Y-126186503D01*
X111121848Y-126254390D01*
X111088404Y-126316959D01*
X111043399Y-126371799D01*
X110988559Y-126416804D01*
X110925990Y-126450248D01*
X110858103Y-126470842D01*
X110781360Y-126478400D01*
X109018640Y-126478400D01*
X108941897Y-126470842D01*
X108874010Y-126450248D01*
X108811441Y-126416804D01*
X108756601Y-126371799D01*
X108711596Y-126316959D01*
X108678152Y-126254390D01*
X108657558Y-126186503D01*
X108650000Y-126109760D01*
X108650000Y-125147040D01*
X108657558Y-125070297D01*
X108678152Y-125002410D01*
X108711596Y-124939841D01*
X108756601Y-124885001D01*
X108811441Y-124839996D01*
X108874010Y-124806552D01*
X108941897Y-124785958D01*
X109018640Y-124778400D01*
X110781360Y-124778400D01*
X110858103Y-124785958D01*
X110858103Y-124785958D01*
G37*
G36*
X115466627Y-122290699D02*
G01*
X115546742Y-122315002D01*
X115626855Y-122339303D01*
X115626857Y-122339304D01*
X115774518Y-122418231D01*
X115903949Y-122524451D01*
X116010169Y-122653882D01*
X116089096Y-122801543D01*
X116137701Y-122961773D01*
X116154112Y-123128400D01*
X116137701Y-123295027D01*
X116089096Y-123455257D01*
X116010169Y-123602918D01*
X115903949Y-123732349D01*
X115774518Y-123838569D01*
X115626857Y-123917496D01*
X115626855Y-123917497D01*
X115546742Y-123941798D01*
X115466627Y-123966101D01*
X115341752Y-123978400D01*
X114458248Y-123978400D01*
X114333373Y-123966101D01*
X114253258Y-123941798D01*
X114173145Y-123917497D01*
X114173143Y-123917496D01*
X114025482Y-123838569D01*
X113896051Y-123732349D01*
X113789831Y-123602918D01*
X113710904Y-123455257D01*
X113662299Y-123295027D01*
X113645888Y-123128400D01*
X113662299Y-122961773D01*
X113710904Y-122801543D01*
X113789831Y-122653882D01*
X113896051Y-122524451D01*
X114025482Y-122418231D01*
X114173143Y-122339304D01*
X114173145Y-122339303D01*
X114253258Y-122315002D01*
X114333373Y-122290699D01*
X114458248Y-122278400D01*
X115341752Y-122278400D01*
X115466627Y-122290699D01*
X115466627Y-122290699D01*
G37*
G36*
X133636471Y-121631859D02*
G01*
X133714827Y-121639576D01*
X133865628Y-121685321D01*
X133865630Y-121685322D01*
X134004605Y-121759606D01*
X134126422Y-121859578D01*
X134226394Y-121981395D01*
X134281383Y-122084272D01*
X134300679Y-122120372D01*
X134346424Y-122271173D01*
X134361870Y-122428000D01*
X134346424Y-122584827D01*
X134325476Y-122653882D01*
X134300678Y-122735630D01*
X134226394Y-122874605D01*
X134126422Y-122996422D01*
X134004605Y-123096394D01*
X133865630Y-123170678D01*
X133865628Y-123170679D01*
X133714827Y-123216424D01*
X133636471Y-123224141D01*
X133597294Y-123228000D01*
X133518706Y-123228000D01*
X133479529Y-123224141D01*
X133401173Y-123216424D01*
X133250372Y-123170679D01*
X133250370Y-123170678D01*
X133111395Y-123096394D01*
X132989578Y-122996422D01*
X132889606Y-122874605D01*
X132815322Y-122735630D01*
X132790524Y-122653882D01*
X132769576Y-122584827D01*
X132754130Y-122428000D01*
X132769576Y-122271173D01*
X132815321Y-122120372D01*
X132834617Y-122084272D01*
X132889606Y-121981395D01*
X132989578Y-121859578D01*
X133111395Y-121759606D01*
X133250370Y-121685322D01*
X133250372Y-121685321D01*
X133401173Y-121639576D01*
X133479529Y-121631859D01*
X133518706Y-121628000D01*
X133597294Y-121628000D01*
X133636471Y-121631859D01*
X133636471Y-121631859D01*
G37*
G36*
X141978000Y-123228000D02*
G01*
X140378000Y-123228000D01*
X140378000Y-121628000D01*
X141978000Y-121628000D01*
X141978000Y-123228000D01*
X141978000Y-123228000D01*
G37*
G36*
X110466627Y-119790699D02*
G01*
X110546742Y-119815002D01*
X110626855Y-119839303D01*
X110626857Y-119839304D01*
X110774518Y-119918231D01*
X110903949Y-120024451D01*
X111010169Y-120153882D01*
X111089096Y-120301543D01*
X111137701Y-120461773D01*
X111154112Y-120628400D01*
X111137701Y-120795027D01*
X111089096Y-120955257D01*
X111010169Y-121102918D01*
X110903949Y-121232349D01*
X110774518Y-121338569D01*
X110626857Y-121417496D01*
X110626855Y-121417497D01*
X110561232Y-121437403D01*
X110466627Y-121466101D01*
X110341752Y-121478400D01*
X109458248Y-121478400D01*
X109333373Y-121466101D01*
X109238768Y-121437403D01*
X109173145Y-121417497D01*
X109173143Y-121417496D01*
X109025482Y-121338569D01*
X108896051Y-121232349D01*
X108789831Y-121102918D01*
X108710904Y-120955257D01*
X108662299Y-120795027D01*
X108645888Y-120628400D01*
X108662299Y-120461773D01*
X108710904Y-120301543D01*
X108789831Y-120153882D01*
X108896051Y-120024451D01*
X109025482Y-119918231D01*
X109173143Y-119839304D01*
X109173145Y-119839303D01*
X109253258Y-119815002D01*
X109333373Y-119790699D01*
X109458248Y-119778400D01*
X110341752Y-119778400D01*
X110466627Y-119790699D01*
X110466627Y-119790699D01*
G37*
G36*
X133636471Y-119091859D02*
G01*
X133714827Y-119099576D01*
X133865628Y-119145321D01*
X133865630Y-119145322D01*
X134004605Y-119219606D01*
X134004607Y-119219607D01*
X134004606Y-119219607D01*
X134126422Y-119319578D01*
X134226393Y-119441394D01*
X134300679Y-119580372D01*
X134346424Y-119731173D01*
X134361870Y-119888000D01*
X134346424Y-120044827D01*
X134300679Y-120195628D01*
X134300678Y-120195630D01*
X134226394Y-120334605D01*
X134126422Y-120456422D01*
X134004605Y-120556394D01*
X133869892Y-120628400D01*
X133865628Y-120630679D01*
X133714827Y-120676424D01*
X133636471Y-120684141D01*
X133597294Y-120688000D01*
X133518706Y-120688000D01*
X133479529Y-120684141D01*
X133401173Y-120676424D01*
X133250372Y-120630679D01*
X133246108Y-120628400D01*
X133111395Y-120556394D01*
X132989578Y-120456422D01*
X132889606Y-120334605D01*
X132815322Y-120195630D01*
X132815321Y-120195628D01*
X132769576Y-120044827D01*
X132754130Y-119888000D01*
X132769576Y-119731173D01*
X132815321Y-119580372D01*
X132889607Y-119441394D01*
X132989578Y-119319578D01*
X133111394Y-119219607D01*
X133111393Y-119219607D01*
X133111395Y-119219606D01*
X133250370Y-119145322D01*
X133250372Y-119145321D01*
X133401173Y-119099576D01*
X133479529Y-119091859D01*
X133518706Y-119088000D01*
X133597294Y-119088000D01*
X133636471Y-119091859D01*
X133636471Y-119091859D01*
G37*
G36*
X141256471Y-119091859D02*
G01*
X141334827Y-119099576D01*
X141485628Y-119145321D01*
X141485630Y-119145322D01*
X141624605Y-119219606D01*
X141624607Y-119219607D01*
X141624606Y-119219607D01*
X141746422Y-119319578D01*
X141846393Y-119441394D01*
X141920679Y-119580372D01*
X141966424Y-119731173D01*
X141981870Y-119888000D01*
X141966424Y-120044827D01*
X141920679Y-120195628D01*
X141920678Y-120195630D01*
X141846394Y-120334605D01*
X141746422Y-120456422D01*
X141624605Y-120556394D01*
X141489892Y-120628400D01*
X141485628Y-120630679D01*
X141334827Y-120676424D01*
X141256471Y-120684141D01*
X141217294Y-120688000D01*
X141138706Y-120688000D01*
X141099529Y-120684141D01*
X141021173Y-120676424D01*
X140870372Y-120630679D01*
X140866108Y-120628400D01*
X140731395Y-120556394D01*
X140609578Y-120456422D01*
X140509606Y-120334605D01*
X140435322Y-120195630D01*
X140435321Y-120195628D01*
X140389576Y-120044827D01*
X140374130Y-119888000D01*
X140389576Y-119731173D01*
X140435321Y-119580372D01*
X140509607Y-119441394D01*
X140609578Y-119319578D01*
X140731394Y-119219607D01*
X140731393Y-119219607D01*
X140731395Y-119219606D01*
X140870370Y-119145322D01*
X140870372Y-119145321D01*
X141021173Y-119099576D01*
X141099529Y-119091859D01*
X141138706Y-119088000D01*
X141217294Y-119088000D01*
X141256471Y-119091859D01*
X141256471Y-119091859D01*
G37*
G36*
X124162520Y-117734586D02*
G01*
X124324174Y-117801545D01*
X124326310Y-117802430D01*
X124473717Y-117900924D01*
X124599076Y-118026283D01*
X124620337Y-118058103D01*
X124697571Y-118173692D01*
X124765414Y-118337480D01*
X124800000Y-118511356D01*
X124800000Y-118688644D01*
X124770178Y-118838568D01*
X124765414Y-118862520D01*
X124697570Y-119026310D01*
X124599076Y-119173717D01*
X124473717Y-119299076D01*
X124326310Y-119397570D01*
X124326309Y-119397571D01*
X124326308Y-119397571D01*
X124162520Y-119465414D01*
X123988644Y-119500000D01*
X123811356Y-119500000D01*
X123637480Y-119465414D01*
X123473692Y-119397571D01*
X123473691Y-119397571D01*
X123473690Y-119397570D01*
X123326283Y-119299076D01*
X123200924Y-119173717D01*
X123102430Y-119026310D01*
X123034586Y-118862520D01*
X123029822Y-118838568D01*
X123000000Y-118688644D01*
X123000000Y-118511356D01*
X123034586Y-118337480D01*
X123102429Y-118173692D01*
X123179663Y-118058103D01*
X123200924Y-118026283D01*
X123326283Y-117900924D01*
X123473690Y-117802430D01*
X123475827Y-117801545D01*
X123637480Y-117734586D01*
X123811356Y-117700000D01*
X123988644Y-117700000D01*
X124162520Y-117734586D01*
X124162520Y-117734586D01*
G37*
G36*
X115466627Y-117290699D02*
G01*
X115546742Y-117315002D01*
X115626855Y-117339303D01*
X115626857Y-117339304D01*
X115774518Y-117418231D01*
X115903949Y-117524451D01*
X116010169Y-117653882D01*
X116089096Y-117801543D01*
X116137701Y-117961773D01*
X116154112Y-118128400D01*
X116137701Y-118295027D01*
X116089096Y-118455257D01*
X116010169Y-118602918D01*
X115903949Y-118732349D01*
X115774518Y-118838569D01*
X115626857Y-118917496D01*
X115626855Y-118917497D01*
X115546742Y-118941798D01*
X115466627Y-118966101D01*
X115341752Y-118978400D01*
X114458248Y-118978400D01*
X114333373Y-118966101D01*
X114253258Y-118941798D01*
X114173145Y-118917497D01*
X114173143Y-118917496D01*
X114025482Y-118838569D01*
X113896051Y-118732349D01*
X113789831Y-118602918D01*
X113710904Y-118455257D01*
X113662299Y-118295027D01*
X113645888Y-118128400D01*
X113662299Y-117961773D01*
X113710904Y-117801543D01*
X113789831Y-117653882D01*
X113896051Y-117524451D01*
X114025482Y-117418231D01*
X114173143Y-117339304D01*
X114173145Y-117339303D01*
X114253258Y-117315002D01*
X114333373Y-117290699D01*
X114458248Y-117278400D01*
X115341752Y-117278400D01*
X115466627Y-117290699D01*
X115466627Y-117290699D01*
G37*
G36*
X153458103Y-116657558D02*
G01*
X153525990Y-116678152D01*
X153588559Y-116711596D01*
X153643399Y-116756601D01*
X153688404Y-116811441D01*
X153721848Y-116874010D01*
X153742442Y-116941897D01*
X153750000Y-117018640D01*
X153750000Y-117981360D01*
X153742442Y-118058103D01*
X153721848Y-118125990D01*
X153688404Y-118188559D01*
X153643399Y-118243399D01*
X153588559Y-118288404D01*
X153525990Y-118321848D01*
X153458103Y-118342442D01*
X153381360Y-118350000D01*
X151618640Y-118350000D01*
X151541897Y-118342442D01*
X151474010Y-118321848D01*
X151411441Y-118288404D01*
X151356601Y-118243399D01*
X151311596Y-118188559D01*
X151278152Y-118125990D01*
X151257558Y-118058103D01*
X151250000Y-117981360D01*
X151250000Y-117018640D01*
X151257558Y-116941897D01*
X151278152Y-116874010D01*
X151311596Y-116811441D01*
X151356601Y-116756601D01*
X151411441Y-116711596D01*
X151474010Y-116678152D01*
X151541897Y-116657558D01*
X151618640Y-116650000D01*
X153381360Y-116650000D01*
X153458103Y-116657558D01*
X153458103Y-116657558D01*
G37*
G36*
X110466627Y-114790699D02*
G01*
X110546742Y-114815001D01*
X110626855Y-114839303D01*
X110626857Y-114839304D01*
X110774518Y-114918231D01*
X110903949Y-115024451D01*
X111010168Y-115153881D01*
X111089097Y-115301545D01*
X111096775Y-115326857D01*
X111137701Y-115461773D01*
X111154112Y-115628400D01*
X111137701Y-115795027D01*
X111137700Y-115795029D01*
X111110584Y-115884422D01*
X111089096Y-115955257D01*
X111010169Y-116102918D01*
X110903949Y-116232349D01*
X110774518Y-116338569D01*
X110626857Y-116417496D01*
X110626855Y-116417497D01*
X110546742Y-116441799D01*
X110466627Y-116466101D01*
X110341752Y-116478400D01*
X109458248Y-116478400D01*
X109333373Y-116466101D01*
X109253258Y-116441799D01*
X109173145Y-116417497D01*
X109173143Y-116417496D01*
X109025482Y-116338569D01*
X108896051Y-116232349D01*
X108789831Y-116102918D01*
X108710904Y-115955257D01*
X108689417Y-115884422D01*
X108662300Y-115795029D01*
X108662299Y-115795027D01*
X108645888Y-115628400D01*
X108662299Y-115461773D01*
X108703225Y-115326857D01*
X108710903Y-115301545D01*
X108789832Y-115153881D01*
X108896051Y-115024451D01*
X109025482Y-114918231D01*
X109173143Y-114839304D01*
X109173145Y-114839303D01*
X109253258Y-114815001D01*
X109333373Y-114790699D01*
X109458248Y-114778400D01*
X110341752Y-114778400D01*
X110466627Y-114790699D01*
X110466627Y-114790699D01*
G37*
G36*
X141978000Y-116116000D02*
G01*
X140378000Y-116116000D01*
X140378000Y-114516000D01*
X141978000Y-114516000D01*
X141978000Y-116116000D01*
X141978000Y-116116000D01*
G37*
G36*
X133636471Y-114519859D02*
G01*
X133714827Y-114527576D01*
X133865628Y-114573321D01*
X133865630Y-114573322D01*
X134004605Y-114647606D01*
X134126422Y-114747578D01*
X134226393Y-114869394D01*
X134300679Y-115008372D01*
X134346424Y-115159173D01*
X134361870Y-115316000D01*
X134346424Y-115472827D01*
X134300679Y-115623628D01*
X134300678Y-115623630D01*
X134226394Y-115762605D01*
X134126422Y-115884422D01*
X134004605Y-115984394D01*
X133865630Y-116058678D01*
X133865628Y-116058679D01*
X133714827Y-116104424D01*
X133636471Y-116112141D01*
X133597294Y-116116000D01*
X133518706Y-116116000D01*
X133479529Y-116112141D01*
X133401173Y-116104424D01*
X133250372Y-116058679D01*
X133250370Y-116058678D01*
X133111395Y-115984394D01*
X132989578Y-115884422D01*
X132889606Y-115762605D01*
X132815322Y-115623630D01*
X132815321Y-115623628D01*
X132769576Y-115472827D01*
X132754130Y-115316000D01*
X132769576Y-115159173D01*
X132815321Y-115008372D01*
X132889607Y-114869394D01*
X132989578Y-114747578D01*
X133111395Y-114647606D01*
X133250370Y-114573322D01*
X133250372Y-114573321D01*
X133401173Y-114527576D01*
X133479529Y-114519859D01*
X133518706Y-114516000D01*
X133597294Y-114516000D01*
X133636471Y-114519859D01*
X133636471Y-114519859D01*
G37*
G36*
X158066627Y-114162299D02*
G01*
X158146742Y-114186602D01*
X158226855Y-114210903D01*
X158226857Y-114210904D01*
X158374518Y-114289831D01*
X158503949Y-114396051D01*
X158610169Y-114525482D01*
X158689096Y-114673143D01*
X158689097Y-114673145D01*
X158713399Y-114753258D01*
X158737701Y-114833373D01*
X158754112Y-115000000D01*
X158737701Y-115166627D01*
X158737700Y-115166629D01*
X158692390Y-115316000D01*
X158689096Y-115326857D01*
X158610169Y-115474518D01*
X158503949Y-115603949D01*
X158374518Y-115710169D01*
X158276416Y-115762606D01*
X158226855Y-115789097D01*
X158146742Y-115813399D01*
X158066627Y-115837701D01*
X157941752Y-115850000D01*
X157058248Y-115850000D01*
X156933373Y-115837701D01*
X156853258Y-115813399D01*
X156773145Y-115789097D01*
X156723584Y-115762606D01*
X156625482Y-115710169D01*
X156496051Y-115603949D01*
X156389831Y-115474518D01*
X156310904Y-115326857D01*
X156307611Y-115316000D01*
X156262300Y-115166629D01*
X156262299Y-115166627D01*
X156245888Y-115000000D01*
X156262299Y-114833373D01*
X156286601Y-114753258D01*
X156310903Y-114673145D01*
X156310904Y-114673143D01*
X156389831Y-114525482D01*
X156496051Y-114396051D01*
X156625482Y-114289831D01*
X156773143Y-114210904D01*
X156773145Y-114210903D01*
X156853258Y-114186602D01*
X156933373Y-114162299D01*
X157058248Y-114150000D01*
X157941752Y-114150000D01*
X158066627Y-114162299D01*
X158066627Y-114162299D01*
G37*
G36*
X115466627Y-112290699D02*
G01*
X115546742Y-112315002D01*
X115626855Y-112339303D01*
X115626857Y-112339304D01*
X115774518Y-112418231D01*
X115903949Y-112524451D01*
X116010168Y-112653881D01*
X116089097Y-112801545D01*
X116096775Y-112826857D01*
X116137701Y-112961773D01*
X116154112Y-113128400D01*
X116137701Y-113295027D01*
X116137700Y-113295029D01*
X116092392Y-113444394D01*
X116089096Y-113455257D01*
X116010169Y-113602918D01*
X115903949Y-113732349D01*
X115774518Y-113838569D01*
X115626857Y-113917496D01*
X115626855Y-113917497D01*
X115546742Y-113941798D01*
X115466627Y-113966101D01*
X115341752Y-113978400D01*
X114458248Y-113978400D01*
X114333373Y-113966101D01*
X114253258Y-113941798D01*
X114173145Y-113917497D01*
X114173143Y-113917496D01*
X114025482Y-113838569D01*
X113896051Y-113732349D01*
X113789831Y-113602918D01*
X113710904Y-113455257D01*
X113707609Y-113444394D01*
X113662300Y-113295029D01*
X113662299Y-113295027D01*
X113645888Y-113128400D01*
X113662299Y-112961773D01*
X113703225Y-112826857D01*
X113710903Y-112801545D01*
X113789832Y-112653881D01*
X113896051Y-112524451D01*
X114025482Y-112418231D01*
X114173143Y-112339304D01*
X114173145Y-112339303D01*
X114253258Y-112315002D01*
X114333373Y-112290699D01*
X114458248Y-112278400D01*
X115341752Y-112278400D01*
X115466627Y-112290699D01*
X115466627Y-112290699D01*
G37*
G36*
X133636471Y-111979859D02*
G01*
X133714827Y-111987576D01*
X133865628Y-112033321D01*
X133865630Y-112033322D01*
X134004605Y-112107606D01*
X134126422Y-112207578D01*
X134226394Y-112329395D01*
X134300678Y-112468370D01*
X134300679Y-112468372D01*
X134346424Y-112619173D01*
X134361870Y-112776000D01*
X134346424Y-112932827D01*
X134300679Y-113083628D01*
X134300678Y-113083630D01*
X134226394Y-113222605D01*
X134126422Y-113344422D01*
X134004605Y-113444394D01*
X133865630Y-113518678D01*
X133865628Y-113518679D01*
X133714827Y-113564424D01*
X133636471Y-113572141D01*
X133597294Y-113576000D01*
X133518706Y-113576000D01*
X133479529Y-113572141D01*
X133401173Y-113564424D01*
X133250372Y-113518679D01*
X133250370Y-113518678D01*
X133111395Y-113444394D01*
X132989578Y-113344422D01*
X132889606Y-113222605D01*
X132815322Y-113083630D01*
X132815321Y-113083628D01*
X132769576Y-112932827D01*
X132754130Y-112776000D01*
X132769576Y-112619173D01*
X132815321Y-112468372D01*
X132815322Y-112468370D01*
X132889606Y-112329395D01*
X132989578Y-112207578D01*
X133111395Y-112107606D01*
X133250370Y-112033322D01*
X133250372Y-112033321D01*
X133401173Y-111987576D01*
X133479529Y-111979859D01*
X133518706Y-111976000D01*
X133597294Y-111976000D01*
X133636471Y-111979859D01*
X133636471Y-111979859D01*
G37*
G36*
X141256471Y-111979859D02*
G01*
X141334827Y-111987576D01*
X141485628Y-112033321D01*
X141485630Y-112033322D01*
X141624605Y-112107606D01*
X141746422Y-112207578D01*
X141846394Y-112329395D01*
X141920678Y-112468370D01*
X141920679Y-112468372D01*
X141966424Y-112619173D01*
X141981870Y-112776000D01*
X141966424Y-112932827D01*
X141920679Y-113083628D01*
X141920678Y-113083630D01*
X141846394Y-113222605D01*
X141746422Y-113344422D01*
X141624605Y-113444394D01*
X141485630Y-113518678D01*
X141485628Y-113518679D01*
X141334827Y-113564424D01*
X141256471Y-113572141D01*
X141217294Y-113576000D01*
X141138706Y-113576000D01*
X141099529Y-113572141D01*
X141021173Y-113564424D01*
X140870372Y-113518679D01*
X140870370Y-113518678D01*
X140731395Y-113444394D01*
X140609578Y-113344422D01*
X140509606Y-113222605D01*
X140435322Y-113083630D01*
X140435321Y-113083628D01*
X140389576Y-112932827D01*
X140374130Y-112776000D01*
X140389576Y-112619173D01*
X140435321Y-112468372D01*
X140435322Y-112468370D01*
X140509606Y-112329395D01*
X140609578Y-112207578D01*
X140731395Y-112107606D01*
X140870370Y-112033322D01*
X140870372Y-112033321D01*
X141021173Y-111987576D01*
X141099529Y-111979859D01*
X141138706Y-111976000D01*
X141217294Y-111976000D01*
X141256471Y-111979859D01*
X141256471Y-111979859D01*
G37*
G36*
X153066627Y-111662299D02*
G01*
X153146742Y-111686601D01*
X153226855Y-111710903D01*
X153226857Y-111710904D01*
X153374518Y-111789831D01*
X153503949Y-111896051D01*
X153610169Y-112025482D01*
X153689096Y-112173143D01*
X153737701Y-112333373D01*
X153754112Y-112500000D01*
X153737701Y-112666627D01*
X153737700Y-112666629D01*
X153696775Y-112801545D01*
X153689096Y-112826857D01*
X153610169Y-112974518D01*
X153503949Y-113103949D01*
X153374518Y-113210169D01*
X153226857Y-113289096D01*
X153226855Y-113289097D01*
X153146742Y-113313399D01*
X153066627Y-113337701D01*
X152941752Y-113350000D01*
X152058248Y-113350000D01*
X151933373Y-113337701D01*
X151853258Y-113313399D01*
X151773145Y-113289097D01*
X151773143Y-113289096D01*
X151625482Y-113210169D01*
X151496051Y-113103949D01*
X151389831Y-112974518D01*
X151310904Y-112826857D01*
X151303226Y-112801545D01*
X151262300Y-112666629D01*
X151262299Y-112666627D01*
X151245888Y-112500000D01*
X151262299Y-112333373D01*
X151310904Y-112173143D01*
X151389831Y-112025482D01*
X151496051Y-111896051D01*
X151625482Y-111789831D01*
X151773143Y-111710904D01*
X151773145Y-111710903D01*
X151853258Y-111686601D01*
X151933373Y-111662299D01*
X152058248Y-111650000D01*
X152941752Y-111650000D01*
X153066627Y-111662299D01*
X153066627Y-111662299D01*
G37*
G36*
X158066627Y-109162299D02*
G01*
X158146742Y-109186601D01*
X158226855Y-109210903D01*
X158226857Y-109210904D01*
X158374518Y-109289831D01*
X158503949Y-109396051D01*
X158610169Y-109525482D01*
X158689096Y-109673143D01*
X158737701Y-109833373D01*
X158754112Y-110000000D01*
X158737701Y-110166627D01*
X158689096Y-110326857D01*
X158610169Y-110474518D01*
X158503949Y-110603949D01*
X158374518Y-110710169D01*
X158226857Y-110789096D01*
X158226855Y-110789097D01*
X158146742Y-110813399D01*
X158066627Y-110837701D01*
X157941752Y-110850000D01*
X157058248Y-110850000D01*
X156933373Y-110837701D01*
X156853258Y-110813399D01*
X156773145Y-110789097D01*
X156773143Y-110789096D01*
X156625482Y-110710169D01*
X156496051Y-110603949D01*
X156389831Y-110474518D01*
X156310904Y-110326857D01*
X156262299Y-110166627D01*
X156245888Y-110000000D01*
X156262299Y-109833373D01*
X156310904Y-109673143D01*
X156389831Y-109525482D01*
X156496051Y-109396051D01*
X156625482Y-109289831D01*
X156773143Y-109210904D01*
X156773145Y-109210903D01*
X156853258Y-109186601D01*
X156933373Y-109162299D01*
X157058248Y-109150000D01*
X157941752Y-109150000D01*
X158066627Y-109162299D01*
X158066627Y-109162299D01*
G37*
G36*
X106348490Y-107128019D02*
G01*
X106412889Y-107140829D01*
X106594878Y-107216211D01*
X106758663Y-107325649D01*
X106897951Y-107464937D01*
X107007389Y-107628722D01*
X107082771Y-107810711D01*
X107121200Y-108003909D01*
X107121200Y-108200891D01*
X107082771Y-108394089D01*
X107007389Y-108576078D01*
X106897951Y-108739863D01*
X106758663Y-108879151D01*
X106594878Y-108988589D01*
X106412889Y-109063971D01*
X106348490Y-109076781D01*
X106219693Y-109102400D01*
X106022707Y-109102400D01*
X105893910Y-109076781D01*
X105829511Y-109063971D01*
X105647522Y-108988589D01*
X105483737Y-108879151D01*
X105344449Y-108739863D01*
X105235011Y-108576078D01*
X105159629Y-108394089D01*
X105121200Y-108200891D01*
X105121200Y-108003909D01*
X105159629Y-107810711D01*
X105235011Y-107628722D01*
X105344449Y-107464937D01*
X105483737Y-107325649D01*
X105647522Y-107216211D01*
X105829511Y-107140829D01*
X105893910Y-107128019D01*
X106022707Y-107102400D01*
X106219693Y-107102400D01*
X106348490Y-107128019D01*
X106348490Y-107128019D01*
G37*
G36*
X108888490Y-107128019D02*
G01*
X108952889Y-107140829D01*
X109134878Y-107216211D01*
X109298663Y-107325649D01*
X109437951Y-107464937D01*
X109547389Y-107628722D01*
X109622771Y-107810711D01*
X109661200Y-108003909D01*
X109661200Y-108200891D01*
X109622771Y-108394089D01*
X109547389Y-108576078D01*
X109437951Y-108739863D01*
X109298663Y-108879151D01*
X109134878Y-108988589D01*
X108952889Y-109063971D01*
X108888490Y-109076781D01*
X108759693Y-109102400D01*
X108562707Y-109102400D01*
X108433910Y-109076781D01*
X108369511Y-109063971D01*
X108187522Y-108988589D01*
X108023737Y-108879151D01*
X107884449Y-108739863D01*
X107775011Y-108576078D01*
X107699629Y-108394089D01*
X107661200Y-108200891D01*
X107661200Y-108003909D01*
X107699629Y-107810711D01*
X107775011Y-107628722D01*
X107884449Y-107464937D01*
X108023737Y-107325649D01*
X108187522Y-107216211D01*
X108369511Y-107140829D01*
X108433910Y-107128019D01*
X108562707Y-107102400D01*
X108759693Y-107102400D01*
X108888490Y-107128019D01*
X108888490Y-107128019D01*
G37*
G36*
X121588490Y-107128019D02*
G01*
X121652889Y-107140829D01*
X121834878Y-107216211D01*
X121998663Y-107325649D01*
X122137951Y-107464937D01*
X122247389Y-107628722D01*
X122322771Y-107810711D01*
X122361200Y-108003909D01*
X122361200Y-108200891D01*
X122322771Y-108394089D01*
X122247389Y-108576078D01*
X122137951Y-108739863D01*
X121998663Y-108879151D01*
X121834878Y-108988589D01*
X121652889Y-109063971D01*
X121588490Y-109076781D01*
X121459693Y-109102400D01*
X121262707Y-109102400D01*
X121133910Y-109076781D01*
X121069511Y-109063971D01*
X120887522Y-108988589D01*
X120723737Y-108879151D01*
X120584449Y-108739863D01*
X120475011Y-108576078D01*
X120399629Y-108394089D01*
X120361200Y-108200891D01*
X120361200Y-108003909D01*
X120399629Y-107810711D01*
X120475011Y-107628722D01*
X120584449Y-107464937D01*
X120723737Y-107325649D01*
X120887522Y-107216211D01*
X121069511Y-107140829D01*
X121133910Y-107128019D01*
X121262707Y-107102400D01*
X121459693Y-107102400D01*
X121588490Y-107128019D01*
X121588490Y-107128019D01*
G37*
G36*
X119048490Y-107128019D02*
G01*
X119112889Y-107140829D01*
X119294878Y-107216211D01*
X119458663Y-107325649D01*
X119597951Y-107464937D01*
X119707389Y-107628722D01*
X119782771Y-107810711D01*
X119821200Y-108003909D01*
X119821200Y-108200891D01*
X119782771Y-108394089D01*
X119707389Y-108576078D01*
X119597951Y-108739863D01*
X119458663Y-108879151D01*
X119294878Y-108988589D01*
X119112889Y-109063971D01*
X119048490Y-109076781D01*
X118919693Y-109102400D01*
X118722707Y-109102400D01*
X118593910Y-109076781D01*
X118529511Y-109063971D01*
X118347522Y-108988589D01*
X118183737Y-108879151D01*
X118044449Y-108739863D01*
X117935011Y-108576078D01*
X117859629Y-108394089D01*
X117821200Y-108200891D01*
X117821200Y-108003909D01*
X117859629Y-107810711D01*
X117935011Y-107628722D01*
X118044449Y-107464937D01*
X118183737Y-107325649D01*
X118347522Y-107216211D01*
X118529511Y-107140829D01*
X118593910Y-107128019D01*
X118722707Y-107102400D01*
X118919693Y-107102400D01*
X119048490Y-107128019D01*
X119048490Y-107128019D01*
G37*
G36*
X111428490Y-107128019D02*
G01*
X111492889Y-107140829D01*
X111674878Y-107216211D01*
X111838663Y-107325649D01*
X111977951Y-107464937D01*
X112087389Y-107628722D01*
X112162771Y-107810711D01*
X112201200Y-108003909D01*
X112201200Y-108200891D01*
X112162771Y-108394089D01*
X112087389Y-108576078D01*
X111977951Y-108739863D01*
X111838663Y-108879151D01*
X111674878Y-108988589D01*
X111492889Y-109063971D01*
X111428490Y-109076781D01*
X111299693Y-109102400D01*
X111102707Y-109102400D01*
X110973910Y-109076781D01*
X110909511Y-109063971D01*
X110727522Y-108988589D01*
X110563737Y-108879151D01*
X110424449Y-108739863D01*
X110315011Y-108576078D01*
X110239629Y-108394089D01*
X110201200Y-108200891D01*
X110201200Y-108003909D01*
X110239629Y-107810711D01*
X110315011Y-107628722D01*
X110424449Y-107464937D01*
X110563737Y-107325649D01*
X110727522Y-107216211D01*
X110909511Y-107140829D01*
X110973910Y-107128019D01*
X111102707Y-107102400D01*
X111299693Y-107102400D01*
X111428490Y-107128019D01*
X111428490Y-107128019D01*
G37*
G36*
X141978000Y-109004000D02*
G01*
X140378000Y-109004000D01*
X140378000Y-107404000D01*
X141978000Y-107404000D01*
X141978000Y-109004000D01*
X141978000Y-109004000D01*
G37*
G36*
X133636471Y-107407859D02*
G01*
X133714827Y-107415576D01*
X133865628Y-107461321D01*
X133865630Y-107461322D01*
X134004605Y-107535606D01*
X134126422Y-107635578D01*
X134226394Y-107757395D01*
X134263521Y-107826855D01*
X134300679Y-107896372D01*
X134346424Y-108047173D01*
X134361870Y-108204000D01*
X134346424Y-108360827D01*
X134336334Y-108394088D01*
X134300678Y-108511630D01*
X134226394Y-108650605D01*
X134126422Y-108772422D01*
X134004605Y-108872394D01*
X133865630Y-108946678D01*
X133865628Y-108946679D01*
X133714827Y-108992424D01*
X133636471Y-109000141D01*
X133597294Y-109004000D01*
X133518706Y-109004000D01*
X133479529Y-109000141D01*
X133401173Y-108992424D01*
X133250372Y-108946679D01*
X133250370Y-108946678D01*
X133111395Y-108872394D01*
X132989578Y-108772422D01*
X132889606Y-108650605D01*
X132815322Y-108511630D01*
X132779666Y-108394088D01*
X132769576Y-108360827D01*
X132754130Y-108204000D01*
X132769576Y-108047173D01*
X132815321Y-107896372D01*
X132852479Y-107826855D01*
X132889606Y-107757395D01*
X132989578Y-107635578D01*
X133111395Y-107535606D01*
X133250370Y-107461322D01*
X133250372Y-107461321D01*
X133401173Y-107415576D01*
X133479529Y-107407859D01*
X133518706Y-107404000D01*
X133597294Y-107404000D01*
X133636471Y-107407859D01*
X133636471Y-107407859D01*
G37*
G36*
X153066627Y-106662299D02*
G01*
X153146742Y-106686601D01*
X153226855Y-106710903D01*
X153226857Y-106710904D01*
X153374518Y-106789831D01*
X153503949Y-106896051D01*
X153610168Y-107025481D01*
X153689097Y-107173145D01*
X153713399Y-107253258D01*
X153737701Y-107333373D01*
X153754112Y-107500000D01*
X153737701Y-107666627D01*
X153689096Y-107826857D01*
X153610169Y-107974518D01*
X153503949Y-108103949D01*
X153374518Y-108210169D01*
X153226857Y-108289096D01*
X153226855Y-108289097D01*
X153146742Y-108313399D01*
X153066627Y-108337701D01*
X152941752Y-108350000D01*
X152058248Y-108350000D01*
X151933373Y-108337701D01*
X151853258Y-108313399D01*
X151773145Y-108289097D01*
X151773143Y-108289096D01*
X151625482Y-108210169D01*
X151496051Y-108103949D01*
X151389831Y-107974518D01*
X151310904Y-107826857D01*
X151262299Y-107666627D01*
X151245888Y-107500000D01*
X151262299Y-107333373D01*
X151286601Y-107253258D01*
X151310903Y-107173145D01*
X151389832Y-107025481D01*
X151496051Y-106896051D01*
X151625482Y-106789831D01*
X151773143Y-106710904D01*
X151773145Y-106710903D01*
X151853258Y-106686601D01*
X151933373Y-106662299D01*
X152058248Y-106650000D01*
X152941752Y-106650000D01*
X153066627Y-106662299D01*
X153066627Y-106662299D01*
G37*
G36*
X133636471Y-104867859D02*
G01*
X133714827Y-104875576D01*
X133865628Y-104921321D01*
X133865630Y-104921322D01*
X134004605Y-104995606D01*
X134004607Y-104995607D01*
X134004606Y-104995607D01*
X134126422Y-105095578D01*
X134226393Y-105217394D01*
X134300679Y-105356372D01*
X134346424Y-105507173D01*
X134361870Y-105664000D01*
X134346424Y-105820827D01*
X134341305Y-105837701D01*
X134300678Y-105971630D01*
X134226394Y-106110605D01*
X134126422Y-106232422D01*
X134004605Y-106332394D01*
X133865630Y-106406678D01*
X133865628Y-106406679D01*
X133714827Y-106452424D01*
X133636471Y-106460141D01*
X133597294Y-106464000D01*
X133518706Y-106464000D01*
X133479529Y-106460141D01*
X133401173Y-106452424D01*
X133250372Y-106406679D01*
X133250370Y-106406678D01*
X133111395Y-106332394D01*
X132989578Y-106232422D01*
X132889606Y-106110605D01*
X132815322Y-105971630D01*
X132774695Y-105837701D01*
X132769576Y-105820827D01*
X132754130Y-105664000D01*
X132769576Y-105507173D01*
X132815321Y-105356372D01*
X132889607Y-105217394D01*
X132989578Y-105095578D01*
X133111394Y-104995607D01*
X133111393Y-104995607D01*
X133111395Y-104995606D01*
X133250370Y-104921322D01*
X133250372Y-104921321D01*
X133401173Y-104875576D01*
X133479529Y-104867859D01*
X133518706Y-104864000D01*
X133597294Y-104864000D01*
X133636471Y-104867859D01*
X133636471Y-104867859D01*
G37*
G36*
X141256471Y-104867859D02*
G01*
X141334827Y-104875576D01*
X141485628Y-104921321D01*
X141485630Y-104921322D01*
X141624605Y-104995606D01*
X141624607Y-104995607D01*
X141624606Y-104995607D01*
X141746422Y-105095578D01*
X141846393Y-105217394D01*
X141920679Y-105356372D01*
X141966424Y-105507173D01*
X141981870Y-105664000D01*
X141966424Y-105820827D01*
X141961305Y-105837701D01*
X141920678Y-105971630D01*
X141846394Y-106110605D01*
X141746422Y-106232422D01*
X141624605Y-106332394D01*
X141485630Y-106406678D01*
X141485628Y-106406679D01*
X141334827Y-106452424D01*
X141256471Y-106460141D01*
X141217294Y-106464000D01*
X141138706Y-106464000D01*
X141099529Y-106460141D01*
X141021173Y-106452424D01*
X140870372Y-106406679D01*
X140870370Y-106406678D01*
X140731395Y-106332394D01*
X140609578Y-106232422D01*
X140509606Y-106110605D01*
X140435322Y-105971630D01*
X140394695Y-105837701D01*
X140389576Y-105820827D01*
X140374130Y-105664000D01*
X140389576Y-105507173D01*
X140435321Y-105356372D01*
X140509607Y-105217394D01*
X140609578Y-105095578D01*
X140731394Y-104995607D01*
X140731393Y-104995607D01*
X140731395Y-104995606D01*
X140870370Y-104921322D01*
X140870372Y-104921321D01*
X141021173Y-104875576D01*
X141099529Y-104867859D01*
X141138706Y-104864000D01*
X141217294Y-104864000D01*
X141256471Y-104867859D01*
X141256471Y-104867859D01*
G37*
G36*
X158066627Y-104162299D02*
G01*
X158146742Y-104186601D01*
X158226855Y-104210903D01*
X158226857Y-104210904D01*
X158374518Y-104289831D01*
X158503949Y-104396051D01*
X158610169Y-104525482D01*
X158689096Y-104673143D01*
X158737701Y-104833373D01*
X158754112Y-105000000D01*
X158737701Y-105166627D01*
X158689096Y-105326857D01*
X158610169Y-105474518D01*
X158503949Y-105603949D01*
X158374518Y-105710169D01*
X158226857Y-105789096D01*
X158226855Y-105789097D01*
X158146742Y-105813399D01*
X158066627Y-105837701D01*
X157941752Y-105850000D01*
X157058248Y-105850000D01*
X156933373Y-105837701D01*
X156853258Y-105813399D01*
X156773145Y-105789097D01*
X156773143Y-105789096D01*
X156625482Y-105710169D01*
X156496051Y-105603949D01*
X156389831Y-105474518D01*
X156310904Y-105326857D01*
X156262299Y-105166627D01*
X156245888Y-105000000D01*
X156262299Y-104833373D01*
X156310904Y-104673143D01*
X156389831Y-104525482D01*
X156496051Y-104396051D01*
X156625482Y-104289831D01*
X156773143Y-104210904D01*
X156773145Y-104210903D01*
X156853258Y-104186601D01*
X156933373Y-104162299D01*
X157058248Y-104150000D01*
X157941752Y-104150000D01*
X158066627Y-104162299D01*
X158066627Y-104162299D01*
G37*
G36*
X141978000Y-101892000D02*
G01*
X140378000Y-101892000D01*
X140378000Y-100292000D01*
X141978000Y-100292000D01*
X141978000Y-101892000D01*
X141978000Y-101892000D01*
G37*
G36*
X133636471Y-100295859D02*
G01*
X133714827Y-100303576D01*
X133865628Y-100349321D01*
X133865630Y-100349322D01*
X134004605Y-100423606D01*
X134004607Y-100423607D01*
X134004606Y-100423607D01*
X134126422Y-100523578D01*
X134226393Y-100645394D01*
X134300679Y-100784372D01*
X134346424Y-100935173D01*
X134361870Y-101092000D01*
X134346424Y-101248827D01*
X134300679Y-101399628D01*
X134300678Y-101399630D01*
X134226394Y-101538605D01*
X134126422Y-101660422D01*
X134004605Y-101760394D01*
X133865630Y-101834678D01*
X133865628Y-101834679D01*
X133714827Y-101880424D01*
X133636471Y-101888141D01*
X133597294Y-101892000D01*
X133518706Y-101892000D01*
X133479529Y-101888141D01*
X133401173Y-101880424D01*
X133250372Y-101834679D01*
X133250370Y-101834678D01*
X133111395Y-101760394D01*
X132989578Y-101660422D01*
X132889606Y-101538605D01*
X132815322Y-101399630D01*
X132815321Y-101399628D01*
X132769576Y-101248827D01*
X132754130Y-101092000D01*
X132769576Y-100935173D01*
X132815321Y-100784372D01*
X132889607Y-100645394D01*
X132989578Y-100523578D01*
X133111394Y-100423607D01*
X133111393Y-100423607D01*
X133111395Y-100423606D01*
X133250370Y-100349322D01*
X133250372Y-100349321D01*
X133401173Y-100303576D01*
X133479529Y-100295859D01*
X133518706Y-100292000D01*
X133597294Y-100292000D01*
X133636471Y-100295859D01*
X133636471Y-100295859D01*
G37*
G36*
X109066627Y-98662299D02*
G01*
X109146742Y-98686602D01*
X109226855Y-98710903D01*
X109226857Y-98710904D01*
X109374518Y-98789831D01*
X109503949Y-98896051D01*
X109610168Y-99025481D01*
X109689097Y-99173145D01*
X109713399Y-99253258D01*
X109737701Y-99333373D01*
X109754112Y-99500000D01*
X109737701Y-99666627D01*
X109689096Y-99826857D01*
X109610169Y-99974518D01*
X109503949Y-100103949D01*
X109374518Y-100210169D01*
X109226857Y-100289096D01*
X109226855Y-100289097D01*
X109179123Y-100303576D01*
X109066627Y-100337701D01*
X108941752Y-100350000D01*
X108058248Y-100350000D01*
X107933373Y-100337701D01*
X107820877Y-100303576D01*
X107773145Y-100289097D01*
X107773143Y-100289096D01*
X107625482Y-100210169D01*
X107496051Y-100103949D01*
X107389831Y-99974518D01*
X107310904Y-99826857D01*
X107262299Y-99666627D01*
X107245888Y-99500000D01*
X107262299Y-99333373D01*
X107286601Y-99253258D01*
X107310903Y-99173145D01*
X107389832Y-99025481D01*
X107496051Y-98896051D01*
X107625482Y-98789831D01*
X107773143Y-98710904D01*
X107773145Y-98710903D01*
X107853258Y-98686602D01*
X107933373Y-98662299D01*
X108058248Y-98650000D01*
X108941752Y-98650000D01*
X109066627Y-98662299D01*
X109066627Y-98662299D01*
G37*
G36*
X141256471Y-97755859D02*
G01*
X141334827Y-97763576D01*
X141485628Y-97809321D01*
X141485630Y-97809322D01*
X141624605Y-97883606D01*
X141624607Y-97883607D01*
X141624606Y-97883607D01*
X141746422Y-97983578D01*
X141846393Y-98105394D01*
X141920679Y-98244372D01*
X141966424Y-98395173D01*
X141981870Y-98552000D01*
X141966424Y-98708827D01*
X141941851Y-98789832D01*
X141920678Y-98859630D01*
X141846394Y-98998605D01*
X141746422Y-99120422D01*
X141624605Y-99220394D01*
X141485630Y-99294678D01*
X141485628Y-99294679D01*
X141334827Y-99340424D01*
X141256471Y-99348141D01*
X141217294Y-99352000D01*
X141138706Y-99352000D01*
X141099529Y-99348141D01*
X141021173Y-99340424D01*
X140870372Y-99294679D01*
X140870370Y-99294678D01*
X140731395Y-99220394D01*
X140609578Y-99120422D01*
X140509606Y-98998605D01*
X140435322Y-98859630D01*
X140414149Y-98789832D01*
X140389576Y-98708827D01*
X140374130Y-98552000D01*
X140389576Y-98395173D01*
X140435321Y-98244372D01*
X140509607Y-98105394D01*
X140609578Y-97983578D01*
X140731394Y-97883607D01*
X140731393Y-97883607D01*
X140731395Y-97883606D01*
X140870370Y-97809322D01*
X140870372Y-97809321D01*
X141021173Y-97763576D01*
X141099529Y-97755859D01*
X141138706Y-97752000D01*
X141217294Y-97752000D01*
X141256471Y-97755859D01*
X141256471Y-97755859D01*
G37*
G36*
X133636471Y-97755859D02*
G01*
X133714827Y-97763576D01*
X133865628Y-97809321D01*
X133865630Y-97809322D01*
X134004605Y-97883606D01*
X134004607Y-97883607D01*
X134004606Y-97883607D01*
X134126422Y-97983578D01*
X134226393Y-98105394D01*
X134300679Y-98244372D01*
X134346424Y-98395173D01*
X134361870Y-98552000D01*
X134346424Y-98708827D01*
X134321851Y-98789832D01*
X134300678Y-98859630D01*
X134226394Y-98998605D01*
X134126422Y-99120422D01*
X134004605Y-99220394D01*
X133865630Y-99294678D01*
X133865628Y-99294679D01*
X133714827Y-99340424D01*
X133636471Y-99348141D01*
X133597294Y-99352000D01*
X133518706Y-99352000D01*
X133479529Y-99348141D01*
X133401173Y-99340424D01*
X133250372Y-99294679D01*
X133250370Y-99294678D01*
X133111395Y-99220394D01*
X132989578Y-99120422D01*
X132889606Y-98998605D01*
X132815322Y-98859630D01*
X132794149Y-98789832D01*
X132769576Y-98708827D01*
X132754130Y-98552000D01*
X132769576Y-98395173D01*
X132815321Y-98244372D01*
X132889607Y-98105394D01*
X132989578Y-97983578D01*
X133111394Y-97883607D01*
X133111393Y-97883607D01*
X133111395Y-97883606D01*
X133250370Y-97809322D01*
X133250372Y-97809321D01*
X133401173Y-97763576D01*
X133479529Y-97755859D01*
X133518706Y-97752000D01*
X133597294Y-97752000D01*
X133636471Y-97755859D01*
X133636471Y-97755859D01*
G37*
G36*
X153458103Y-97087558D02*
G01*
X153525990Y-97108152D01*
X153588559Y-97141596D01*
X153643399Y-97186601D01*
X153688404Y-97241441D01*
X153721848Y-97304010D01*
X153742442Y-97371897D01*
X153750000Y-97448640D01*
X153750000Y-98411360D01*
X153742442Y-98488103D01*
X153721848Y-98555990D01*
X153688404Y-98618559D01*
X153643399Y-98673399D01*
X153588559Y-98718404D01*
X153525990Y-98751848D01*
X153458103Y-98772442D01*
X153381360Y-98780000D01*
X151618640Y-98780000D01*
X151541897Y-98772442D01*
X151474010Y-98751848D01*
X151411441Y-98718404D01*
X151356601Y-98673399D01*
X151311596Y-98618559D01*
X151278152Y-98555990D01*
X151257558Y-98488103D01*
X151250000Y-98411360D01*
X151250000Y-97448640D01*
X151257558Y-97371897D01*
X151278152Y-97304010D01*
X151311596Y-97241441D01*
X151356601Y-97186601D01*
X151411441Y-97141596D01*
X151474010Y-97108152D01*
X151541897Y-97087558D01*
X151618640Y-97080000D01*
X153381360Y-97080000D01*
X153458103Y-97087558D01*
X153458103Y-97087558D01*
G37*
G36*
X114066627Y-95162299D02*
G01*
X114146742Y-95186602D01*
X114226855Y-95210903D01*
X114226857Y-95210904D01*
X114374518Y-95289831D01*
X114503949Y-95396051D01*
X114610169Y-95525482D01*
X114689096Y-95673143D01*
X114737701Y-95833373D01*
X114754112Y-96000000D01*
X114737701Y-96166627D01*
X114689096Y-96326857D01*
X114610169Y-96474518D01*
X114503949Y-96603949D01*
X114374518Y-96710169D01*
X114226857Y-96789096D01*
X114226855Y-96789097D01*
X114146742Y-96813398D01*
X114066627Y-96837701D01*
X113941752Y-96850000D01*
X113058248Y-96850000D01*
X112933373Y-96837701D01*
X112853258Y-96813398D01*
X112773145Y-96789097D01*
X112773143Y-96789096D01*
X112625482Y-96710169D01*
X112496051Y-96603949D01*
X112389831Y-96474518D01*
X112310904Y-96326857D01*
X112262299Y-96166627D01*
X112245888Y-96000000D01*
X112262299Y-95833373D01*
X112310904Y-95673143D01*
X112389831Y-95525482D01*
X112496051Y-95396051D01*
X112625482Y-95289831D01*
X112773143Y-95210904D01*
X112773145Y-95210903D01*
X112853258Y-95186602D01*
X112933373Y-95162299D01*
X113058248Y-95150000D01*
X113941752Y-95150000D01*
X114066627Y-95162299D01*
X114066627Y-95162299D01*
G37*
G36*
X158066627Y-94592299D02*
G01*
X158146742Y-94616602D01*
X158226855Y-94640903D01*
X158226857Y-94640904D01*
X158374518Y-94719831D01*
X158503949Y-94826051D01*
X158610169Y-94955482D01*
X158689096Y-95103143D01*
X158737701Y-95263373D01*
X158754112Y-95430000D01*
X158737701Y-95596627D01*
X158689096Y-95756857D01*
X158610169Y-95904518D01*
X158503949Y-96033949D01*
X158374518Y-96140169D01*
X158325015Y-96166629D01*
X158226855Y-96219097D01*
X158146742Y-96243399D01*
X158066627Y-96267701D01*
X157941752Y-96280000D01*
X157058248Y-96280000D01*
X156933373Y-96267701D01*
X156853258Y-96243399D01*
X156773145Y-96219097D01*
X156674985Y-96166629D01*
X156625482Y-96140169D01*
X156496051Y-96033949D01*
X156389831Y-95904518D01*
X156310904Y-95756857D01*
X156262299Y-95596627D01*
X156245888Y-95430000D01*
X156262299Y-95263373D01*
X156310904Y-95103143D01*
X156389831Y-94955482D01*
X156496051Y-94826051D01*
X156625482Y-94719831D01*
X156773143Y-94640904D01*
X156773145Y-94640903D01*
X156853258Y-94616602D01*
X156933373Y-94592299D01*
X157058248Y-94580000D01*
X157941752Y-94580000D01*
X158066627Y-94592299D01*
X158066627Y-94592299D01*
G37*
G36*
X133636471Y-93183859D02*
G01*
X133714827Y-93191576D01*
X133865628Y-93237321D01*
X133865630Y-93237322D01*
X134004605Y-93311606D01*
X134126422Y-93411578D01*
X134226394Y-93533395D01*
X134283466Y-93640169D01*
X134300679Y-93672372D01*
X134346424Y-93823173D01*
X134361870Y-93980000D01*
X134346424Y-94136827D01*
X134300679Y-94287628D01*
X134300678Y-94287630D01*
X134226394Y-94426605D01*
X134126422Y-94548422D01*
X134004605Y-94648394D01*
X133870956Y-94719831D01*
X133865628Y-94722679D01*
X133714827Y-94768424D01*
X133636471Y-94776141D01*
X133597294Y-94780000D01*
X133518706Y-94780000D01*
X133479529Y-94776141D01*
X133401173Y-94768424D01*
X133250372Y-94722679D01*
X133245044Y-94719831D01*
X133111395Y-94648394D01*
X132989578Y-94548422D01*
X132889606Y-94426605D01*
X132815322Y-94287630D01*
X132815321Y-94287628D01*
X132769576Y-94136827D01*
X132754130Y-93980000D01*
X132769576Y-93823173D01*
X132815321Y-93672372D01*
X132832534Y-93640169D01*
X132889606Y-93533395D01*
X132989578Y-93411578D01*
X133111395Y-93311606D01*
X133250370Y-93237322D01*
X133250372Y-93237321D01*
X133401173Y-93191576D01*
X133479529Y-93183859D01*
X133518706Y-93180000D01*
X133597294Y-93180000D01*
X133636471Y-93183859D01*
X133636471Y-93183859D01*
G37*
G36*
X141978000Y-94780000D02*
G01*
X140378000Y-94780000D01*
X140378000Y-93180000D01*
X141978000Y-93180000D01*
X141978000Y-94780000D01*
X141978000Y-94780000D01*
G37*
G36*
X153066627Y-92092299D02*
G01*
X153119682Y-92108393D01*
X153226855Y-92140903D01*
X153226857Y-92140904D01*
X153374518Y-92219831D01*
X153503949Y-92326051D01*
X153610169Y-92455482D01*
X153689096Y-92603143D01*
X153737701Y-92763373D01*
X153754112Y-92930000D01*
X153737701Y-93096627D01*
X153689096Y-93256857D01*
X153610169Y-93404518D01*
X153503949Y-93533949D01*
X153374518Y-93640169D01*
X153226857Y-93719096D01*
X153226855Y-93719097D01*
X153146742Y-93743398D01*
X153066627Y-93767701D01*
X152941752Y-93780000D01*
X152058248Y-93780000D01*
X151933373Y-93767701D01*
X151853258Y-93743398D01*
X151773145Y-93719097D01*
X151773143Y-93719096D01*
X151625482Y-93640169D01*
X151496051Y-93533949D01*
X151389831Y-93404518D01*
X151310904Y-93256857D01*
X151262299Y-93096627D01*
X151245888Y-92930000D01*
X151262299Y-92763373D01*
X151310904Y-92603143D01*
X151389831Y-92455482D01*
X151496051Y-92326051D01*
X151625482Y-92219831D01*
X151773143Y-92140904D01*
X151773145Y-92140903D01*
X151880318Y-92108393D01*
X151933373Y-92092299D01*
X152058248Y-92080000D01*
X152941752Y-92080000D01*
X153066627Y-92092299D01*
X153066627Y-92092299D01*
G37*
G36*
X109066627Y-91662299D02*
G01*
X109146742Y-91686601D01*
X109226855Y-91710903D01*
X109226857Y-91710904D01*
X109374518Y-91789831D01*
X109503949Y-91896051D01*
X109610169Y-92025482D01*
X109671863Y-92140903D01*
X109689097Y-92173145D01*
X109691989Y-92182679D01*
X109737701Y-92333373D01*
X109754112Y-92500000D01*
X109737701Y-92666627D01*
X109689096Y-92826857D01*
X109610169Y-92974518D01*
X109503949Y-93103949D01*
X109374518Y-93210169D01*
X109226857Y-93289096D01*
X109226855Y-93289097D01*
X109152651Y-93311606D01*
X109066627Y-93337701D01*
X108941752Y-93350000D01*
X108058248Y-93350000D01*
X107933373Y-93337701D01*
X107847349Y-93311606D01*
X107773145Y-93289097D01*
X107773143Y-93289096D01*
X107625482Y-93210169D01*
X107496051Y-93103949D01*
X107389831Y-92974518D01*
X107310904Y-92826857D01*
X107262299Y-92666627D01*
X107245888Y-92500000D01*
X107262299Y-92333373D01*
X107308011Y-92182679D01*
X107310903Y-92173145D01*
X107328137Y-92140903D01*
X107389831Y-92025482D01*
X107496051Y-91896051D01*
X107625482Y-91789831D01*
X107773143Y-91710904D01*
X107773145Y-91710903D01*
X107853258Y-91686601D01*
X107933373Y-91662299D01*
X108058248Y-91650000D01*
X108941752Y-91650000D01*
X109066627Y-91662299D01*
X109066627Y-91662299D01*
G37*
G36*
X133636471Y-90643859D02*
G01*
X133714827Y-90651576D01*
X133865628Y-90697321D01*
X133865630Y-90697322D01*
X134004605Y-90771606D01*
X134126422Y-90871578D01*
X134226394Y-90993395D01*
X134300678Y-91132370D01*
X134300679Y-91132372D01*
X134346424Y-91283173D01*
X134361870Y-91440000D01*
X134346424Y-91596827D01*
X134311819Y-91710903D01*
X134300678Y-91747630D01*
X134226394Y-91886605D01*
X134126422Y-92008422D01*
X134004605Y-92108394D01*
X133883465Y-92173145D01*
X133865628Y-92182679D01*
X133714827Y-92228424D01*
X133636471Y-92236141D01*
X133597294Y-92240000D01*
X133518706Y-92240000D01*
X133479529Y-92236141D01*
X133401173Y-92228424D01*
X133250372Y-92182679D01*
X133232535Y-92173145D01*
X133111395Y-92108394D01*
X132989578Y-92008422D01*
X132889606Y-91886605D01*
X132815322Y-91747630D01*
X132804181Y-91710903D01*
X132769576Y-91596827D01*
X132754130Y-91440000D01*
X132769576Y-91283173D01*
X132815321Y-91132372D01*
X132815322Y-91132370D01*
X132889606Y-90993395D01*
X132989578Y-90871578D01*
X133111395Y-90771606D01*
X133250370Y-90697322D01*
X133250372Y-90697321D01*
X133401173Y-90651576D01*
X133479529Y-90643859D01*
X133518706Y-90640000D01*
X133597294Y-90640000D01*
X133636471Y-90643859D01*
X133636471Y-90643859D01*
G37*
G36*
X141256471Y-90643859D02*
G01*
X141334827Y-90651576D01*
X141485628Y-90697321D01*
X141485630Y-90697322D01*
X141624605Y-90771606D01*
X141746422Y-90871578D01*
X141846394Y-90993395D01*
X141920678Y-91132370D01*
X141920679Y-91132372D01*
X141966424Y-91283173D01*
X141981870Y-91440000D01*
X141966424Y-91596827D01*
X141931819Y-91710903D01*
X141920678Y-91747630D01*
X141846394Y-91886605D01*
X141746422Y-92008422D01*
X141624605Y-92108394D01*
X141503465Y-92173145D01*
X141485628Y-92182679D01*
X141334827Y-92228424D01*
X141256471Y-92236141D01*
X141217294Y-92240000D01*
X141138706Y-92240000D01*
X141099529Y-92236141D01*
X141021173Y-92228424D01*
X140870372Y-92182679D01*
X140852535Y-92173145D01*
X140731395Y-92108394D01*
X140609578Y-92008422D01*
X140509606Y-91886605D01*
X140435322Y-91747630D01*
X140424181Y-91710903D01*
X140389576Y-91596827D01*
X140374130Y-91440000D01*
X140389576Y-91283173D01*
X140435321Y-91132372D01*
X140435322Y-91132370D01*
X140509606Y-90993395D01*
X140609578Y-90871578D01*
X140731395Y-90771606D01*
X140870370Y-90697322D01*
X140870372Y-90697321D01*
X141021173Y-90651576D01*
X141099529Y-90643859D01*
X141138706Y-90640000D01*
X141217294Y-90640000D01*
X141256471Y-90643859D01*
X141256471Y-90643859D01*
G37*
G36*
X158066627Y-89592299D02*
G01*
X158146742Y-89616601D01*
X158226855Y-89640903D01*
X158226857Y-89640904D01*
X158374518Y-89719831D01*
X158503949Y-89826051D01*
X158610169Y-89955482D01*
X158689096Y-90103143D01*
X158737701Y-90263373D01*
X158754112Y-90430000D01*
X158737701Y-90596627D01*
X158689096Y-90756857D01*
X158610169Y-90904518D01*
X158503949Y-91033949D01*
X158374518Y-91140169D01*
X158226857Y-91219096D01*
X158226855Y-91219097D01*
X158146742Y-91243399D01*
X158066627Y-91267701D01*
X157941752Y-91280000D01*
X157058248Y-91280000D01*
X156933373Y-91267701D01*
X156853258Y-91243399D01*
X156773145Y-91219097D01*
X156773143Y-91219096D01*
X156625482Y-91140169D01*
X156496051Y-91033949D01*
X156389831Y-90904518D01*
X156310904Y-90756857D01*
X156262299Y-90596627D01*
X156245888Y-90430000D01*
X156262299Y-90263373D01*
X156310904Y-90103143D01*
X156389831Y-89955482D01*
X156496051Y-89826051D01*
X156625482Y-89719831D01*
X156773143Y-89640904D01*
X156773145Y-89640903D01*
X156853258Y-89616601D01*
X156933373Y-89592299D01*
X157058248Y-89580000D01*
X157941752Y-89580000D01*
X158066627Y-89592299D01*
X158066627Y-89592299D01*
G37*
G36*
X114458103Y-88157558D02*
G01*
X114525990Y-88178152D01*
X114588559Y-88211596D01*
X114643399Y-88256601D01*
X114688404Y-88311441D01*
X114721848Y-88374010D01*
X114742442Y-88441897D01*
X114750000Y-88518640D01*
X114750000Y-89481360D01*
X114742442Y-89558103D01*
X114721848Y-89625990D01*
X114688404Y-89688559D01*
X114643399Y-89743399D01*
X114588559Y-89788404D01*
X114525990Y-89821848D01*
X114458103Y-89842442D01*
X114381360Y-89850000D01*
X112618640Y-89850000D01*
X112541897Y-89842442D01*
X112474010Y-89821848D01*
X112411441Y-89788404D01*
X112356601Y-89743399D01*
X112311596Y-89688559D01*
X112278152Y-89625990D01*
X112257558Y-89558103D01*
X112250000Y-89481360D01*
X112250000Y-88518640D01*
X112257558Y-88441897D01*
X112278152Y-88374010D01*
X112311596Y-88311441D01*
X112356601Y-88256601D01*
X112411441Y-88211596D01*
X112474010Y-88178152D01*
X112541897Y-88157558D01*
X112618640Y-88150000D01*
X114381360Y-88150000D01*
X114458103Y-88157558D01*
X114458103Y-88157558D01*
G37*
G36*
X153066627Y-87092299D02*
G01*
X153146742Y-87116602D01*
X153226855Y-87140903D01*
X153226857Y-87140904D01*
X153374518Y-87219831D01*
X153503949Y-87326051D01*
X153610169Y-87455482D01*
X153689096Y-87603143D01*
X153737701Y-87763373D01*
X153754112Y-87930000D01*
X153737701Y-88096627D01*
X153719218Y-88157558D01*
X153699784Y-88221625D01*
X153689096Y-88256857D01*
X153610169Y-88404518D01*
X153503949Y-88533949D01*
X153374518Y-88640169D01*
X153226857Y-88719096D01*
X153226855Y-88719097D01*
X153146742Y-88743398D01*
X153066627Y-88767701D01*
X152941752Y-88780000D01*
X152058248Y-88780000D01*
X151933373Y-88767701D01*
X151853258Y-88743398D01*
X151773145Y-88719097D01*
X151773143Y-88719096D01*
X151625482Y-88640169D01*
X151496051Y-88533949D01*
X151389831Y-88404518D01*
X151310904Y-88256857D01*
X151300217Y-88221625D01*
X151280782Y-88157558D01*
X151262299Y-88096627D01*
X151245888Y-87930000D01*
X151262299Y-87763373D01*
X151310904Y-87603143D01*
X151389831Y-87455482D01*
X151496051Y-87326051D01*
X151625482Y-87219831D01*
X151773143Y-87140904D01*
X151773145Y-87140903D01*
X151853258Y-87116602D01*
X151933373Y-87092299D01*
X152058248Y-87080000D01*
X152941752Y-87080000D01*
X153066627Y-87092299D01*
X153066627Y-87092299D01*
G37*
G36*
X133636471Y-86071859D02*
G01*
X133714827Y-86079576D01*
X133865628Y-86125321D01*
X133865630Y-86125322D01*
X134004605Y-86199606D01*
X134102566Y-86280000D01*
X134126422Y-86299578D01*
X134226393Y-86421394D01*
X134300679Y-86560372D01*
X134346424Y-86711173D01*
X134361870Y-86868000D01*
X134346424Y-87024827D01*
X134311212Y-87140904D01*
X134300678Y-87175630D01*
X134226394Y-87314605D01*
X134126422Y-87436422D01*
X134004605Y-87536394D01*
X133879727Y-87603143D01*
X133865628Y-87610679D01*
X133714827Y-87656424D01*
X133636471Y-87664141D01*
X133597294Y-87668000D01*
X133518706Y-87668000D01*
X133479529Y-87664141D01*
X133401173Y-87656424D01*
X133250372Y-87610679D01*
X133236273Y-87603143D01*
X133111395Y-87536394D01*
X132989578Y-87436422D01*
X132889606Y-87314605D01*
X132815322Y-87175630D01*
X132804788Y-87140904D01*
X132769576Y-87024827D01*
X132754130Y-86868000D01*
X132769576Y-86711173D01*
X132815321Y-86560372D01*
X132889607Y-86421394D01*
X132989578Y-86299578D01*
X133013434Y-86280000D01*
X133111395Y-86199606D01*
X133250370Y-86125322D01*
X133250372Y-86125321D01*
X133401173Y-86079576D01*
X133479529Y-86071859D01*
X133518706Y-86068000D01*
X133597294Y-86068000D01*
X133636471Y-86071859D01*
X133636471Y-86071859D01*
G37*
G36*
X141978000Y-87668000D02*
G01*
X140378000Y-87668000D01*
X140378000Y-86068000D01*
X141978000Y-86068000D01*
X141978000Y-87668000D01*
X141978000Y-87668000D01*
G37*
G36*
X158066627Y-84592299D02*
G01*
X158146742Y-84616601D01*
X158226855Y-84640903D01*
X158226857Y-84640904D01*
X158374518Y-84719831D01*
X158503949Y-84826051D01*
X158610169Y-84955482D01*
X158689096Y-85103143D01*
X158689097Y-85103145D01*
X158713399Y-85183258D01*
X158737701Y-85263373D01*
X158754112Y-85430000D01*
X158737701Y-85596627D01*
X158689096Y-85756857D01*
X158610169Y-85904518D01*
X158503949Y-86033949D01*
X158374518Y-86140169D01*
X158263320Y-86199606D01*
X158226855Y-86219097D01*
X158146742Y-86243399D01*
X158066627Y-86267701D01*
X157941752Y-86280000D01*
X157058248Y-86280000D01*
X156933373Y-86267701D01*
X156853258Y-86243399D01*
X156773145Y-86219097D01*
X156736680Y-86199606D01*
X156625482Y-86140169D01*
X156496051Y-86033949D01*
X156389831Y-85904518D01*
X156310904Y-85756857D01*
X156262299Y-85596627D01*
X156245888Y-85430000D01*
X156262299Y-85263373D01*
X156286602Y-85183258D01*
X156310903Y-85103145D01*
X156310904Y-85103143D01*
X156389831Y-84955482D01*
X156496051Y-84826051D01*
X156625482Y-84719831D01*
X156773143Y-84640904D01*
X156773145Y-84640903D01*
X156853258Y-84616601D01*
X156933373Y-84592299D01*
X157058248Y-84580000D01*
X157941752Y-84580000D01*
X158066627Y-84592299D01*
X158066627Y-84592299D01*
G37*
G36*
X123849500Y-85940000D02*
G01*
X122149500Y-85940000D01*
X122149500Y-84240000D01*
X123849500Y-84240000D01*
X123849500Y-85940000D01*
X123849500Y-85940000D01*
G37*
G36*
X141256471Y-83531859D02*
G01*
X141334827Y-83539576D01*
X141485628Y-83585321D01*
X141485630Y-83585322D01*
X141624605Y-83659606D01*
X141624607Y-83659607D01*
X141624606Y-83659607D01*
X141746422Y-83759578D01*
X141846393Y-83881394D01*
X141920679Y-84020372D01*
X141966424Y-84171173D01*
X141981870Y-84328000D01*
X141966424Y-84484827D01*
X141933822Y-84592300D01*
X141920678Y-84635630D01*
X141846394Y-84774605D01*
X141746422Y-84896422D01*
X141624605Y-84996394D01*
X141485630Y-85070678D01*
X141485628Y-85070679D01*
X141334827Y-85116424D01*
X141256471Y-85124141D01*
X141217294Y-85128000D01*
X141138706Y-85128000D01*
X141099529Y-85124141D01*
X141021173Y-85116424D01*
X140870372Y-85070679D01*
X140870370Y-85070678D01*
X140731395Y-84996394D01*
X140609578Y-84896422D01*
X140509606Y-84774605D01*
X140435322Y-84635630D01*
X140422178Y-84592300D01*
X140389576Y-84484827D01*
X140374130Y-84328000D01*
X140389576Y-84171173D01*
X140435321Y-84020372D01*
X140509607Y-83881394D01*
X140609578Y-83759578D01*
X140731394Y-83659607D01*
X140731393Y-83659607D01*
X140731395Y-83659606D01*
X140870370Y-83585322D01*
X140870372Y-83585321D01*
X141021173Y-83539576D01*
X141099529Y-83531859D01*
X141138706Y-83528000D01*
X141217294Y-83528000D01*
X141256471Y-83531859D01*
X141256471Y-83531859D01*
G37*
G36*
X133636471Y-83531859D02*
G01*
X133714827Y-83539576D01*
X133865628Y-83585321D01*
X133865630Y-83585322D01*
X134004605Y-83659606D01*
X134004607Y-83659607D01*
X134004606Y-83659607D01*
X134126422Y-83759578D01*
X134226393Y-83881394D01*
X134300679Y-84020372D01*
X134346424Y-84171173D01*
X134361870Y-84328000D01*
X134346424Y-84484827D01*
X134313822Y-84592300D01*
X134300678Y-84635630D01*
X134226394Y-84774605D01*
X134126422Y-84896422D01*
X134004605Y-84996394D01*
X133865630Y-85070678D01*
X133865628Y-85070679D01*
X133714827Y-85116424D01*
X133636471Y-85124141D01*
X133597294Y-85128000D01*
X133518706Y-85128000D01*
X133479529Y-85124141D01*
X133401173Y-85116424D01*
X133250372Y-85070679D01*
X133250370Y-85070678D01*
X133111395Y-84996394D01*
X132989578Y-84896422D01*
X132889606Y-84774605D01*
X132815322Y-84635630D01*
X132802178Y-84592300D01*
X132769576Y-84484827D01*
X132754130Y-84328000D01*
X132769576Y-84171173D01*
X132815321Y-84020372D01*
X132889607Y-83881394D01*
X132989578Y-83759578D01*
X133111394Y-83659607D01*
X133111393Y-83659607D01*
X133111395Y-83659606D01*
X133250370Y-83585322D01*
X133250372Y-83585321D01*
X133401173Y-83539576D01*
X133479529Y-83531859D01*
X133518706Y-83528000D01*
X133597294Y-83528000D01*
X133636471Y-83531859D01*
X133636471Y-83531859D01*
G37*
G36*
X129012203Y-80901201D02*
G01*
X129024453Y-80901803D01*
X129042872Y-80901803D01*
X129055150Y-80903012D01*
X129139232Y-80919737D01*
X129151052Y-80923323D01*
X129230256Y-80956130D01*
X129241136Y-80961945D01*
X129312426Y-81009579D01*
X129321963Y-81017407D01*
X129382593Y-81078037D01*
X129390421Y-81087574D01*
X129438055Y-81158864D01*
X129443870Y-81169744D01*
X129476677Y-81248948D01*
X129480263Y-81260768D01*
X129496988Y-81344850D01*
X129498197Y-81357128D01*
X129498197Y-81375547D01*
X129498799Y-81387797D01*
X129500605Y-81406137D01*
X129500605Y-81943863D01*
X129500001Y-81949999D01*
X129499999Y-81950001D01*
X129493873Y-81950604D01*
X129469840Y-81955384D01*
X129447201Y-81964761D01*
X129426826Y-81978374D01*
X129409499Y-81995701D01*
X129395885Y-82016075D01*
X129386507Y-82038713D01*
X129381726Y-82062746D01*
X129381726Y-82087251D01*
X129386506Y-82111284D01*
X129395883Y-82133923D01*
X129409496Y-82154298D01*
X129426823Y-82171625D01*
X129447197Y-82185239D01*
X129469835Y-82194617D01*
X129493868Y-82199398D01*
X129500000Y-82199699D01*
X129500000Y-83200603D01*
X129481737Y-83202402D01*
X129458288Y-83209515D01*
X129436677Y-83221066D01*
X129417735Y-83236611D01*
X129402190Y-83255553D01*
X129390639Y-83277164D01*
X129383526Y-83300613D01*
X129381124Y-83324999D01*
X129383526Y-83349385D01*
X129390639Y-83372834D01*
X129402190Y-83394445D01*
X129417735Y-83413387D01*
X129436677Y-83428932D01*
X129458288Y-83440483D01*
X129481737Y-83447596D01*
X129493873Y-83449396D01*
X129499999Y-83449999D01*
X129500001Y-83450001D01*
X129500605Y-83456137D01*
X129500605Y-83993863D01*
X129498799Y-84012203D01*
X129498197Y-84024453D01*
X129498197Y-84042872D01*
X129496988Y-84055150D01*
X129480263Y-84139232D01*
X129476677Y-84151052D01*
X129443870Y-84230256D01*
X129438055Y-84241136D01*
X129390421Y-84312426D01*
X129382593Y-84321963D01*
X129321963Y-84382593D01*
X129312426Y-84390421D01*
X129241136Y-84438055D01*
X129230256Y-84443870D01*
X129151052Y-84476677D01*
X129139232Y-84480263D01*
X129055150Y-84496988D01*
X129042872Y-84498197D01*
X129024453Y-84498197D01*
X129012203Y-84498799D01*
X128993863Y-84500605D01*
X128506137Y-84500605D01*
X128487797Y-84498799D01*
X128475547Y-84498197D01*
X128457128Y-84498197D01*
X128444850Y-84496988D01*
X128360768Y-84480263D01*
X128348948Y-84476677D01*
X128269744Y-84443870D01*
X128258864Y-84438055D01*
X128187574Y-84390421D01*
X128178037Y-84382593D01*
X128117407Y-84321963D01*
X128109579Y-84312426D01*
X128061945Y-84241136D01*
X128056130Y-84230256D01*
X128023323Y-84151052D01*
X128019737Y-84139232D01*
X128003012Y-84055150D01*
X128001803Y-84042872D01*
X128001803Y-84024453D01*
X128001201Y-84012203D01*
X127999395Y-83993863D01*
X127999395Y-83456137D01*
X127999999Y-83450001D01*
X128000001Y-83449999D01*
X128006127Y-83449396D01*
X128030160Y-83444616D01*
X128052799Y-83435239D01*
X128073174Y-83421626D01*
X128090501Y-83404299D01*
X128104115Y-83383925D01*
X128113493Y-83361287D01*
X128118274Y-83337254D01*
X128118274Y-83312749D01*
X128113494Y-83288716D01*
X128104117Y-83266077D01*
X128090504Y-83245702D01*
X128073177Y-83228375D01*
X128052803Y-83214761D01*
X128030165Y-83205383D01*
X128006132Y-83200602D01*
X128000000Y-83200301D01*
X128000000Y-82199397D01*
X128018263Y-82197598D01*
X128041712Y-82190485D01*
X128063323Y-82178934D01*
X128082265Y-82163389D01*
X128097810Y-82144447D01*
X128109361Y-82122836D01*
X128116474Y-82099387D01*
X128118876Y-82075001D01*
X128116474Y-82050615D01*
X128109361Y-82027166D01*
X128097810Y-82005555D01*
X128082265Y-81986613D01*
X128063323Y-81971068D01*
X128041712Y-81959517D01*
X128018263Y-81952404D01*
X128006127Y-81950604D01*
X128000001Y-81950001D01*
X127999999Y-81949999D01*
X127999395Y-81943863D01*
X127999395Y-81406137D01*
X128001201Y-81387797D01*
X128001803Y-81375547D01*
X128001803Y-81357128D01*
X128003012Y-81344850D01*
X128019737Y-81260768D01*
X128023323Y-81248948D01*
X128056130Y-81169744D01*
X128061945Y-81158864D01*
X128109579Y-81087574D01*
X128117407Y-81078037D01*
X128178037Y-81017407D01*
X128187574Y-81009579D01*
X128258864Y-80961945D01*
X128269744Y-80956130D01*
X128348948Y-80923323D01*
X128360768Y-80919737D01*
X128444850Y-80903012D01*
X128457128Y-80901803D01*
X128475547Y-80901803D01*
X128487797Y-80901201D01*
X128506137Y-80899395D01*
X128993863Y-80899395D01*
X129012203Y-80901201D01*
X129012203Y-80901201D01*
G37*
G36*
X126912203Y-80901201D02*
G01*
X126924453Y-80901803D01*
X126942872Y-80901803D01*
X126955150Y-80903012D01*
X127039232Y-80919737D01*
X127051052Y-80923323D01*
X127130256Y-80956130D01*
X127141136Y-80961945D01*
X127212426Y-81009579D01*
X127221963Y-81017407D01*
X127282593Y-81078037D01*
X127290421Y-81087574D01*
X127338055Y-81158864D01*
X127343870Y-81169744D01*
X127376677Y-81248948D01*
X127380263Y-81260768D01*
X127396988Y-81344850D01*
X127398197Y-81357128D01*
X127398197Y-81375547D01*
X127398799Y-81387797D01*
X127400605Y-81406137D01*
X127400605Y-81943863D01*
X127400001Y-81949999D01*
X127399999Y-81950001D01*
X127393873Y-81950604D01*
X127369840Y-81955384D01*
X127347201Y-81964761D01*
X127326826Y-81978374D01*
X127309499Y-81995701D01*
X127295885Y-82016075D01*
X127286507Y-82038713D01*
X127281726Y-82062746D01*
X127281726Y-82087251D01*
X127286506Y-82111284D01*
X127295883Y-82133923D01*
X127309496Y-82154298D01*
X127326823Y-82171625D01*
X127347197Y-82185239D01*
X127369835Y-82194617D01*
X127393868Y-82199398D01*
X127400000Y-82199699D01*
X127400000Y-83200603D01*
X127381737Y-83202402D01*
X127358288Y-83209515D01*
X127336677Y-83221066D01*
X127317735Y-83236611D01*
X127302190Y-83255553D01*
X127290639Y-83277164D01*
X127283526Y-83300613D01*
X127281124Y-83324999D01*
X127283526Y-83349385D01*
X127290639Y-83372834D01*
X127302190Y-83394445D01*
X127317735Y-83413387D01*
X127336677Y-83428932D01*
X127358288Y-83440483D01*
X127381737Y-83447596D01*
X127393873Y-83449396D01*
X127399999Y-83449999D01*
X127400001Y-83450001D01*
X127400605Y-83456137D01*
X127400605Y-83993863D01*
X127398799Y-84012203D01*
X127398197Y-84024453D01*
X127398197Y-84042872D01*
X127396988Y-84055150D01*
X127380263Y-84139232D01*
X127376677Y-84151052D01*
X127343870Y-84230256D01*
X127338055Y-84241136D01*
X127290421Y-84312426D01*
X127282593Y-84321963D01*
X127221963Y-84382593D01*
X127212426Y-84390421D01*
X127141136Y-84438055D01*
X127130256Y-84443870D01*
X127051052Y-84476677D01*
X127039232Y-84480263D01*
X126955150Y-84496988D01*
X126942872Y-84498197D01*
X126924453Y-84498197D01*
X126912203Y-84498799D01*
X126893863Y-84500605D01*
X126406137Y-84500605D01*
X126387797Y-84498799D01*
X126375547Y-84498197D01*
X126357128Y-84498197D01*
X126344850Y-84496988D01*
X126260768Y-84480263D01*
X126248948Y-84476677D01*
X126169744Y-84443870D01*
X126158864Y-84438055D01*
X126087574Y-84390421D01*
X126078037Y-84382593D01*
X126017407Y-84321963D01*
X126009579Y-84312426D01*
X125961945Y-84241136D01*
X125956130Y-84230256D01*
X125923323Y-84151052D01*
X125919737Y-84139232D01*
X125903012Y-84055150D01*
X125901803Y-84042872D01*
X125901803Y-84024453D01*
X125901201Y-84012203D01*
X125899395Y-83993863D01*
X125899395Y-83456137D01*
X125899999Y-83450001D01*
X125900001Y-83449999D01*
X125906127Y-83449396D01*
X125930160Y-83444616D01*
X125952799Y-83435239D01*
X125973174Y-83421626D01*
X125990501Y-83404299D01*
X126004115Y-83383925D01*
X126013493Y-83361287D01*
X126018274Y-83337254D01*
X126018274Y-83312749D01*
X126013494Y-83288716D01*
X126004117Y-83266077D01*
X125990504Y-83245702D01*
X125973177Y-83228375D01*
X125952803Y-83214761D01*
X125930165Y-83205383D01*
X125906132Y-83200602D01*
X125900000Y-83200301D01*
X125900000Y-82199397D01*
X125918263Y-82197598D01*
X125941712Y-82190485D01*
X125963323Y-82178934D01*
X125982265Y-82163389D01*
X125997810Y-82144447D01*
X126009361Y-82122836D01*
X126016474Y-82099387D01*
X126018876Y-82075001D01*
X126016474Y-82050615D01*
X126009361Y-82027166D01*
X125997810Y-82005555D01*
X125982265Y-81986613D01*
X125963323Y-81971068D01*
X125941712Y-81959517D01*
X125918263Y-81952404D01*
X125906127Y-81950604D01*
X125900001Y-81950001D01*
X125899999Y-81949999D01*
X125899395Y-81943863D01*
X125899395Y-81406137D01*
X125901201Y-81387797D01*
X125901803Y-81375547D01*
X125901803Y-81357128D01*
X125903012Y-81344850D01*
X125919737Y-81260768D01*
X125923323Y-81248948D01*
X125956130Y-81169744D01*
X125961945Y-81158864D01*
X126009579Y-81087574D01*
X126017407Y-81078037D01*
X126078037Y-81017407D01*
X126087574Y-81009579D01*
X126158864Y-80961945D01*
X126169744Y-80956130D01*
X126248948Y-80923323D01*
X126260768Y-80919737D01*
X126344850Y-80903012D01*
X126357128Y-80901803D01*
X126375547Y-80901803D01*
X126387797Y-80901201D01*
X126406137Y-80899395D01*
X126893863Y-80899395D01*
X126912203Y-80901201D01*
X126912203Y-80901201D01*
G37*
G36*
X123166127Y-81712299D02*
G01*
X123246242Y-81736602D01*
X123326355Y-81760903D01*
X123326357Y-81760904D01*
X123474018Y-81839831D01*
X123603449Y-81946051D01*
X123709669Y-82075482D01*
X123788596Y-82223143D01*
X123837201Y-82383373D01*
X123853612Y-82550000D01*
X123837201Y-82716627D01*
X123788596Y-82876857D01*
X123709669Y-83024518D01*
X123603449Y-83153949D01*
X123474018Y-83260169D01*
X123398353Y-83300613D01*
X123326355Y-83339097D01*
X123292439Y-83349385D01*
X123166127Y-83387701D01*
X123041252Y-83400000D01*
X122957748Y-83400000D01*
X122832873Y-83387701D01*
X122706561Y-83349385D01*
X122672645Y-83339097D01*
X122600647Y-83300613D01*
X122524982Y-83260169D01*
X122395551Y-83153949D01*
X122289331Y-83024518D01*
X122210404Y-82876857D01*
X122161799Y-82716627D01*
X122145388Y-82550000D01*
X122161799Y-82383373D01*
X122210404Y-82223143D01*
X122289331Y-82075482D01*
X122395551Y-81946051D01*
X122524982Y-81839831D01*
X122672643Y-81760904D01*
X122672645Y-81760903D01*
X122752758Y-81736602D01*
X122832873Y-81712299D01*
X122957748Y-81700000D01*
X123041252Y-81700000D01*
X123166127Y-81712299D01*
X123166127Y-81712299D01*
G37*
G36*
X126549999Y-78899999D02*
G01*
X126550001Y-78900001D01*
X126550604Y-78906127D01*
X126555384Y-78930160D01*
X126564761Y-78952799D01*
X126578374Y-78973174D01*
X126595701Y-78990501D01*
X126616075Y-79004115D01*
X126638713Y-79013493D01*
X126662746Y-79018274D01*
X126687251Y-79018274D01*
X126711284Y-79013494D01*
X126733923Y-79004117D01*
X126754298Y-78990504D01*
X126771625Y-78973177D01*
X126785239Y-78952803D01*
X126794617Y-78930165D01*
X126799398Y-78906132D01*
X126799699Y-78900000D01*
X127800603Y-78900000D01*
X127802402Y-78918263D01*
X127809515Y-78941712D01*
X127821066Y-78963323D01*
X127836611Y-78982265D01*
X127855553Y-78997810D01*
X127877164Y-79009361D01*
X127900613Y-79016474D01*
X127924999Y-79018876D01*
X127949385Y-79016474D01*
X127972834Y-79009361D01*
X127994445Y-78997810D01*
X128013387Y-78982265D01*
X128028932Y-78963323D01*
X128040483Y-78941712D01*
X128047596Y-78918263D01*
X128049396Y-78906127D01*
X128049999Y-78900001D01*
X128050001Y-78899999D01*
X128056137Y-78899395D01*
X128593863Y-78899395D01*
X128612203Y-78901201D01*
X128624453Y-78901803D01*
X128642872Y-78901803D01*
X128655150Y-78903012D01*
X128739232Y-78919737D01*
X128751052Y-78923323D01*
X128830256Y-78956130D01*
X128841136Y-78961945D01*
X128912426Y-79009579D01*
X128921963Y-79017407D01*
X128982593Y-79078037D01*
X128990421Y-79087574D01*
X129038055Y-79158864D01*
X129043870Y-79169744D01*
X129076677Y-79248948D01*
X129080263Y-79260768D01*
X129096988Y-79344850D01*
X129098197Y-79357128D01*
X129098197Y-79375547D01*
X129098799Y-79387797D01*
X129100605Y-79406137D01*
X129100605Y-79893863D01*
X129098799Y-79912203D01*
X129098197Y-79924453D01*
X129098197Y-79942872D01*
X129096988Y-79955150D01*
X129080263Y-80039232D01*
X129076677Y-80051052D01*
X129043870Y-80130256D01*
X129038055Y-80141136D01*
X128990421Y-80212426D01*
X128982593Y-80221963D01*
X128921963Y-80282593D01*
X128912426Y-80290421D01*
X128841136Y-80338055D01*
X128830256Y-80343870D01*
X128751052Y-80376677D01*
X128739232Y-80380263D01*
X128655150Y-80396988D01*
X128642872Y-80398197D01*
X128624453Y-80398197D01*
X128612203Y-80398799D01*
X128593863Y-80400605D01*
X128056137Y-80400605D01*
X128050001Y-80400001D01*
X128049999Y-80399999D01*
X128049396Y-80393873D01*
X128044616Y-80369840D01*
X128035239Y-80347201D01*
X128021626Y-80326826D01*
X128004299Y-80309499D01*
X127983925Y-80295885D01*
X127961287Y-80286507D01*
X127937254Y-80281726D01*
X127912749Y-80281726D01*
X127888716Y-80286506D01*
X127866077Y-80295883D01*
X127845702Y-80309496D01*
X127828375Y-80326823D01*
X127814761Y-80347197D01*
X127805383Y-80369835D01*
X127800602Y-80393868D01*
X127800301Y-80400000D01*
X126799397Y-80400000D01*
X126797598Y-80381737D01*
X126790485Y-80358288D01*
X126778934Y-80336677D01*
X126763389Y-80317735D01*
X126744447Y-80302190D01*
X126722836Y-80290639D01*
X126699387Y-80283526D01*
X126675001Y-80281124D01*
X126650615Y-80283526D01*
X126627166Y-80290639D01*
X126605555Y-80302190D01*
X126586613Y-80317735D01*
X126571068Y-80336677D01*
X126559517Y-80358288D01*
X126552404Y-80381737D01*
X126550604Y-80393873D01*
X126550001Y-80399999D01*
X126549999Y-80400001D01*
X126543863Y-80400605D01*
X126006137Y-80400605D01*
X125987797Y-80398799D01*
X125975547Y-80398197D01*
X125957128Y-80398197D01*
X125944850Y-80396988D01*
X125860768Y-80380263D01*
X125848948Y-80376677D01*
X125769744Y-80343870D01*
X125758864Y-80338055D01*
X125687574Y-80290421D01*
X125678037Y-80282593D01*
X125617407Y-80221963D01*
X125609579Y-80212426D01*
X125561945Y-80141136D01*
X125556130Y-80130256D01*
X125523323Y-80051052D01*
X125519737Y-80039232D01*
X125503012Y-79955150D01*
X125501803Y-79942872D01*
X125501803Y-79924453D01*
X125501201Y-79912203D01*
X125499395Y-79893863D01*
X125499395Y-79406137D01*
X125501201Y-79387797D01*
X125501803Y-79375547D01*
X125501803Y-79357128D01*
X125503012Y-79344850D01*
X125519737Y-79260768D01*
X125523323Y-79248948D01*
X125556130Y-79169744D01*
X125561945Y-79158864D01*
X125609579Y-79087574D01*
X125617407Y-79078037D01*
X125678037Y-79017407D01*
X125687574Y-79009579D01*
X125758864Y-78961945D01*
X125769744Y-78956130D01*
X125848948Y-78923323D01*
X125860768Y-78919737D01*
X125944850Y-78903012D01*
X125957128Y-78901803D01*
X125975547Y-78901803D01*
X125987797Y-78901201D01*
X126006137Y-78899395D01*
X126543863Y-78899395D01*
X126549999Y-78899999D01*
X126549999Y-78899999D01*
G37*
G36*
X101639767Y-72922168D02*
G01*
X101951298Y-72984135D01*
X102538210Y-73227242D01*
X103066417Y-73580179D01*
X103515621Y-74029383D01*
X103868558Y-74557590D01*
X104111665Y-75144502D01*
X104235600Y-75767565D01*
X104235600Y-76402835D01*
X104111665Y-77025898D01*
X103868558Y-77612810D01*
X103515621Y-78141017D01*
X103066417Y-78590221D01*
X102538210Y-78943158D01*
X101951298Y-79186265D01*
X101639767Y-79248232D01*
X101328236Y-79310200D01*
X100692964Y-79310200D01*
X100381433Y-79248232D01*
X100069902Y-79186265D01*
X99482990Y-78943158D01*
X98954783Y-78590221D01*
X98505579Y-78141017D01*
X98152642Y-77612810D01*
X97909535Y-77025898D01*
X97785600Y-76402835D01*
X97785600Y-75767565D01*
X97909535Y-75144502D01*
X98152642Y-74557590D01*
X98505579Y-74029383D01*
X98954783Y-73580179D01*
X99482990Y-73227242D01*
X100069902Y-72984135D01*
X100381433Y-72922168D01*
X100692964Y-72860200D01*
X101328236Y-72860200D01*
X101639767Y-72922168D01*
X101639767Y-72922168D01*
G37*
G36*
X159639767Y-72922168D02*
G01*
X159951298Y-72984135D01*
X160538210Y-73227242D01*
X161066417Y-73580179D01*
X161515621Y-74029383D01*
X161868558Y-74557590D01*
X162111665Y-75144502D01*
X162235600Y-75767565D01*
X162235600Y-76402835D01*
X162111665Y-77025898D01*
X161868558Y-77612810D01*
X161515621Y-78141017D01*
X161066417Y-78590221D01*
X160538210Y-78943158D01*
X159951298Y-79186265D01*
X159639766Y-79248233D01*
X159328236Y-79310200D01*
X158692964Y-79310200D01*
X158381433Y-79248232D01*
X158069902Y-79186265D01*
X157482990Y-78943158D01*
X156954783Y-78590221D01*
X156505579Y-78141017D01*
X156152642Y-77612810D01*
X155909535Y-77025898D01*
X155785600Y-76402835D01*
X155785600Y-75767565D01*
X155909535Y-75144502D01*
X156152642Y-74557590D01*
X156505579Y-74029383D01*
X156954783Y-73580179D01*
X157482990Y-73227242D01*
X158069902Y-72984135D01*
X158381433Y-72922168D01*
X158692964Y-72860200D01*
X159328236Y-72860200D01*
X159639767Y-72922168D01*
X159639767Y-72922168D01*
G37*
G36*
X116125312Y-76495765D02*
G01*
X116209895Y-76504096D01*
X116372684Y-76553478D01*
X116372687Y-76553479D01*
X116522707Y-76633666D01*
X116522708Y-76633667D01*
X116522712Y-76633669D01*
X116654212Y-76741588D01*
X116762131Y-76873088D01*
X116762133Y-76873092D01*
X116762134Y-76873093D01*
X116842321Y-77023113D01*
X116842322Y-77023116D01*
X116891704Y-77185905D01*
X116908378Y-77355200D01*
X116891704Y-77524495D01*
X116849920Y-77662238D01*
X116842321Y-77687287D01*
X116762134Y-77837307D01*
X116762131Y-77837312D01*
X116654212Y-77968812D01*
X116522712Y-78076731D01*
X116522708Y-78076733D01*
X116522707Y-78076734D01*
X116372687Y-78156921D01*
X116372684Y-78156922D01*
X116209895Y-78206304D01*
X116125312Y-78214635D01*
X116083021Y-78218800D01*
X115998179Y-78218800D01*
X115955888Y-78214635D01*
X115871305Y-78206304D01*
X115708516Y-78156922D01*
X115708513Y-78156921D01*
X115558493Y-78076734D01*
X115558492Y-78076733D01*
X115558488Y-78076731D01*
X115426988Y-77968812D01*
X115319069Y-77837312D01*
X115319066Y-77837307D01*
X115238879Y-77687287D01*
X115231280Y-77662238D01*
X115189496Y-77524495D01*
X115172822Y-77355200D01*
X115189496Y-77185905D01*
X115238878Y-77023116D01*
X115238879Y-77023113D01*
X115319066Y-76873093D01*
X115319067Y-76873092D01*
X115319069Y-76873088D01*
X115426988Y-76741588D01*
X115558488Y-76633669D01*
X115558492Y-76633667D01*
X115558493Y-76633666D01*
X115708513Y-76553479D01*
X115708516Y-76553478D01*
X115871305Y-76504096D01*
X115955888Y-76495765D01*
X115998179Y-76491600D01*
X116083021Y-76491600D01*
X116125312Y-76495765D01*
X116125312Y-76495765D01*
G37*
G36*
X123745312Y-76495765D02*
G01*
X123829895Y-76504096D01*
X123992684Y-76553478D01*
X123992687Y-76553479D01*
X124142707Y-76633666D01*
X124142708Y-76633667D01*
X124142712Y-76633669D01*
X124274212Y-76741588D01*
X124382131Y-76873088D01*
X124382133Y-76873092D01*
X124382134Y-76873093D01*
X124462321Y-77023113D01*
X124462322Y-77023116D01*
X124511704Y-77185905D01*
X124528378Y-77355200D01*
X124511704Y-77524495D01*
X124469920Y-77662238D01*
X124462321Y-77687287D01*
X124382134Y-77837307D01*
X124382131Y-77837312D01*
X124274212Y-77968812D01*
X124142712Y-78076731D01*
X124142708Y-78076733D01*
X124142707Y-78076734D01*
X123992687Y-78156921D01*
X123992684Y-78156922D01*
X123829895Y-78206304D01*
X123745312Y-78214635D01*
X123703021Y-78218800D01*
X123618179Y-78218800D01*
X123575888Y-78214635D01*
X123491305Y-78206304D01*
X123328516Y-78156922D01*
X123328513Y-78156921D01*
X123178493Y-78076734D01*
X123178492Y-78076733D01*
X123178488Y-78076731D01*
X123046988Y-77968812D01*
X122939069Y-77837312D01*
X122939066Y-77837307D01*
X122858879Y-77687287D01*
X122851280Y-77662238D01*
X122809496Y-77524495D01*
X122792822Y-77355200D01*
X122809496Y-77185905D01*
X122858878Y-77023116D01*
X122858879Y-77023113D01*
X122939066Y-76873093D01*
X122939067Y-76873092D01*
X122939069Y-76873088D01*
X123046988Y-76741588D01*
X123178488Y-76633669D01*
X123178492Y-76633667D01*
X123178493Y-76633666D01*
X123328513Y-76553479D01*
X123328516Y-76553478D01*
X123491305Y-76504096D01*
X123575888Y-76495765D01*
X123618179Y-76491600D01*
X123703021Y-76491600D01*
X123745312Y-76495765D01*
X123745312Y-76495765D01*
G37*
G36*
X121205312Y-76495765D02*
G01*
X121289895Y-76504096D01*
X121452684Y-76553478D01*
X121452687Y-76553479D01*
X121602707Y-76633666D01*
X121602708Y-76633667D01*
X121602712Y-76633669D01*
X121734212Y-76741588D01*
X121842131Y-76873088D01*
X121842133Y-76873092D01*
X121842134Y-76873093D01*
X121922321Y-77023113D01*
X121922322Y-77023116D01*
X121971704Y-77185905D01*
X121988378Y-77355200D01*
X121971704Y-77524495D01*
X121929920Y-77662238D01*
X121922321Y-77687287D01*
X121842134Y-77837307D01*
X121842131Y-77837312D01*
X121734212Y-77968812D01*
X121602712Y-78076731D01*
X121602708Y-78076733D01*
X121602707Y-78076734D01*
X121452687Y-78156921D01*
X121452684Y-78156922D01*
X121289895Y-78206304D01*
X121205312Y-78214635D01*
X121163021Y-78218800D01*
X121078179Y-78218800D01*
X121035888Y-78214635D01*
X120951305Y-78206304D01*
X120788516Y-78156922D01*
X120788513Y-78156921D01*
X120638493Y-78076734D01*
X120638492Y-78076733D01*
X120638488Y-78076731D01*
X120506988Y-77968812D01*
X120399069Y-77837312D01*
X120399066Y-77837307D01*
X120318879Y-77687287D01*
X120311280Y-77662238D01*
X120269496Y-77524495D01*
X120252822Y-77355200D01*
X120269496Y-77185905D01*
X120318878Y-77023116D01*
X120318879Y-77023113D01*
X120399066Y-76873093D01*
X120399067Y-76873092D01*
X120399069Y-76873088D01*
X120506988Y-76741588D01*
X120638488Y-76633669D01*
X120638492Y-76633667D01*
X120638493Y-76633666D01*
X120788513Y-76553479D01*
X120788516Y-76553478D01*
X120951305Y-76504096D01*
X121035888Y-76495765D01*
X121078179Y-76491600D01*
X121163021Y-76491600D01*
X121205312Y-76495765D01*
X121205312Y-76495765D01*
G37*
G36*
X118665312Y-76495765D02*
G01*
X118749895Y-76504096D01*
X118912684Y-76553478D01*
X118912687Y-76553479D01*
X119062707Y-76633666D01*
X119062708Y-76633667D01*
X119062712Y-76633669D01*
X119194212Y-76741588D01*
X119302131Y-76873088D01*
X119302133Y-76873092D01*
X119302134Y-76873093D01*
X119382321Y-77023113D01*
X119382322Y-77023116D01*
X119431704Y-77185905D01*
X119448378Y-77355200D01*
X119431704Y-77524495D01*
X119389920Y-77662238D01*
X119382321Y-77687287D01*
X119302134Y-77837307D01*
X119302131Y-77837312D01*
X119194212Y-77968812D01*
X119062712Y-78076731D01*
X119062708Y-78076733D01*
X119062707Y-78076734D01*
X118912687Y-78156921D01*
X118912684Y-78156922D01*
X118749895Y-78206304D01*
X118665312Y-78214635D01*
X118623021Y-78218800D01*
X118538179Y-78218800D01*
X118495888Y-78214635D01*
X118411305Y-78206304D01*
X118248516Y-78156922D01*
X118248513Y-78156921D01*
X118098493Y-78076734D01*
X118098492Y-78076733D01*
X118098488Y-78076731D01*
X117966988Y-77968812D01*
X117859069Y-77837312D01*
X117859066Y-77837307D01*
X117778879Y-77687287D01*
X117771280Y-77662238D01*
X117729496Y-77524495D01*
X117712822Y-77355200D01*
X117729496Y-77185905D01*
X117778878Y-77023116D01*
X117778879Y-77023113D01*
X117859066Y-76873093D01*
X117859067Y-76873092D01*
X117859069Y-76873088D01*
X117966988Y-76741588D01*
X118098488Y-76633669D01*
X118098492Y-76633667D01*
X118098493Y-76633666D01*
X118248513Y-76553479D01*
X118248516Y-76553478D01*
X118411305Y-76504096D01*
X118495888Y-76495765D01*
X118538179Y-76491600D01*
X118623021Y-76491600D01*
X118665312Y-76495765D01*
X118665312Y-76495765D01*
G37*
G36*
X126285312Y-76495765D02*
G01*
X126369895Y-76504096D01*
X126532684Y-76553478D01*
X126532687Y-76553479D01*
X126682707Y-76633666D01*
X126682708Y-76633667D01*
X126682712Y-76633669D01*
X126814212Y-76741588D01*
X126922131Y-76873088D01*
X126922133Y-76873092D01*
X126922134Y-76873093D01*
X127002321Y-77023113D01*
X127002322Y-77023116D01*
X127051704Y-77185905D01*
X127068378Y-77355200D01*
X127051704Y-77524495D01*
X127009920Y-77662238D01*
X127002321Y-77687287D01*
X126922134Y-77837307D01*
X126922131Y-77837312D01*
X126814212Y-77968812D01*
X126682712Y-78076731D01*
X126682708Y-78076733D01*
X126682707Y-78076734D01*
X126532687Y-78156921D01*
X126532684Y-78156922D01*
X126369895Y-78206304D01*
X126285312Y-78214635D01*
X126243021Y-78218800D01*
X126158179Y-78218800D01*
X126115888Y-78214635D01*
X126031305Y-78206304D01*
X125868516Y-78156922D01*
X125868513Y-78156921D01*
X125718493Y-78076734D01*
X125718492Y-78076733D01*
X125718488Y-78076731D01*
X125586988Y-77968812D01*
X125479069Y-77837312D01*
X125479066Y-77837307D01*
X125398879Y-77687287D01*
X125391280Y-77662238D01*
X125349496Y-77524495D01*
X125332822Y-77355200D01*
X125349496Y-77185905D01*
X125398878Y-77023116D01*
X125398879Y-77023113D01*
X125479066Y-76873093D01*
X125479067Y-76873092D01*
X125479069Y-76873088D01*
X125586988Y-76741588D01*
X125718488Y-76633669D01*
X125718492Y-76633667D01*
X125718493Y-76633666D01*
X125868513Y-76553479D01*
X125868516Y-76553478D01*
X126031305Y-76504096D01*
X126115888Y-76495765D01*
X126158179Y-76491600D01*
X126243021Y-76491600D01*
X126285312Y-76495765D01*
X126285312Y-76495765D01*
G37*
G36*
X113585312Y-76495765D02*
G01*
X113669895Y-76504096D01*
X113832684Y-76553478D01*
X113832687Y-76553479D01*
X113982707Y-76633666D01*
X113982708Y-76633667D01*
X113982712Y-76633669D01*
X114114212Y-76741588D01*
X114222131Y-76873088D01*
X114222133Y-76873092D01*
X114222134Y-76873093D01*
X114302321Y-77023113D01*
X114302322Y-77023116D01*
X114351704Y-77185905D01*
X114368378Y-77355200D01*
X114351704Y-77524495D01*
X114309920Y-77662238D01*
X114302321Y-77687287D01*
X114222134Y-77837307D01*
X114222131Y-77837312D01*
X114114212Y-77968812D01*
X113982712Y-78076731D01*
X113982708Y-78076733D01*
X113982707Y-78076734D01*
X113832687Y-78156921D01*
X113832684Y-78156922D01*
X113669895Y-78206304D01*
X113585312Y-78214635D01*
X113543021Y-78218800D01*
X113458179Y-78218800D01*
X113415888Y-78214635D01*
X113331305Y-78206304D01*
X113168516Y-78156922D01*
X113168513Y-78156921D01*
X113018493Y-78076734D01*
X113018492Y-78076733D01*
X113018488Y-78076731D01*
X112886988Y-77968812D01*
X112779069Y-77837312D01*
X112779066Y-77837307D01*
X112698879Y-77687287D01*
X112691280Y-77662238D01*
X112649496Y-77524495D01*
X112632822Y-77355200D01*
X112649496Y-77185905D01*
X112698878Y-77023116D01*
X112698879Y-77023113D01*
X112779066Y-76873093D01*
X112779067Y-76873092D01*
X112779069Y-76873088D01*
X112886988Y-76741588D01*
X113018488Y-76633669D01*
X113018492Y-76633667D01*
X113018493Y-76633666D01*
X113168513Y-76553479D01*
X113168516Y-76553478D01*
X113331305Y-76504096D01*
X113415888Y-76495765D01*
X113458179Y-76491600D01*
X113543021Y-76491600D01*
X113585312Y-76495765D01*
X113585312Y-76495765D01*
G37*
G36*
X106744200Y-78218800D02*
G01*
X105017000Y-78218800D01*
X105017000Y-76491600D01*
X106744200Y-76491600D01*
X106744200Y-78218800D01*
X106744200Y-78218800D01*
G37*
G36*
X154225312Y-76495765D02*
G01*
X154309895Y-76504096D01*
X154472684Y-76553478D01*
X154472687Y-76553479D01*
X154622707Y-76633666D01*
X154622708Y-76633667D01*
X154622712Y-76633669D01*
X154754212Y-76741588D01*
X154862131Y-76873088D01*
X154862133Y-76873092D01*
X154862134Y-76873093D01*
X154942321Y-77023113D01*
X154942322Y-77023116D01*
X154991704Y-77185905D01*
X155008378Y-77355200D01*
X154991704Y-77524495D01*
X154949920Y-77662238D01*
X154942321Y-77687287D01*
X154862134Y-77837307D01*
X154862131Y-77837312D01*
X154754212Y-77968812D01*
X154622712Y-78076731D01*
X154622708Y-78076733D01*
X154622707Y-78076734D01*
X154472687Y-78156921D01*
X154472684Y-78156922D01*
X154309895Y-78206304D01*
X154225312Y-78214635D01*
X154183021Y-78218800D01*
X154098179Y-78218800D01*
X154055888Y-78214635D01*
X153971305Y-78206304D01*
X153808516Y-78156922D01*
X153808513Y-78156921D01*
X153658493Y-78076734D01*
X153658492Y-78076733D01*
X153658488Y-78076731D01*
X153526988Y-77968812D01*
X153419069Y-77837312D01*
X153419066Y-77837307D01*
X153338879Y-77687287D01*
X153331280Y-77662238D01*
X153289496Y-77524495D01*
X153272822Y-77355200D01*
X153289496Y-77185905D01*
X153338878Y-77023116D01*
X153338879Y-77023113D01*
X153419066Y-76873093D01*
X153419067Y-76873092D01*
X153419069Y-76873088D01*
X153526988Y-76741588D01*
X153658488Y-76633669D01*
X153658492Y-76633667D01*
X153658493Y-76633666D01*
X153808513Y-76553479D01*
X153808516Y-76553478D01*
X153971305Y-76504096D01*
X154055888Y-76495765D01*
X154098179Y-76491600D01*
X154183021Y-76491600D01*
X154225312Y-76495765D01*
X154225312Y-76495765D01*
G37*
G36*
X151685312Y-76495765D02*
G01*
X151769895Y-76504096D01*
X151932684Y-76553478D01*
X151932687Y-76553479D01*
X152082707Y-76633666D01*
X152082708Y-76633667D01*
X152082712Y-76633669D01*
X152214212Y-76741588D01*
X152322131Y-76873088D01*
X152322133Y-76873092D01*
X152322134Y-76873093D01*
X152402321Y-77023113D01*
X152402322Y-77023116D01*
X152451704Y-77185905D01*
X152468378Y-77355200D01*
X152451704Y-77524495D01*
X152409920Y-77662238D01*
X152402321Y-77687287D01*
X152322134Y-77837307D01*
X152322131Y-77837312D01*
X152214212Y-77968812D01*
X152082712Y-78076731D01*
X152082708Y-78076733D01*
X152082707Y-78076734D01*
X151932687Y-78156921D01*
X151932684Y-78156922D01*
X151769895Y-78206304D01*
X151685312Y-78214635D01*
X151643021Y-78218800D01*
X151558179Y-78218800D01*
X151515888Y-78214635D01*
X151431305Y-78206304D01*
X151268516Y-78156922D01*
X151268513Y-78156921D01*
X151118493Y-78076734D01*
X151118492Y-78076733D01*
X151118488Y-78076731D01*
X150986988Y-77968812D01*
X150879069Y-77837312D01*
X150879066Y-77837307D01*
X150798879Y-77687287D01*
X150791280Y-77662238D01*
X150749496Y-77524495D01*
X150732822Y-77355200D01*
X150749496Y-77185905D01*
X150798878Y-77023116D01*
X150798879Y-77023113D01*
X150879066Y-76873093D01*
X150879067Y-76873092D01*
X150879069Y-76873088D01*
X150986988Y-76741588D01*
X151118488Y-76633669D01*
X151118492Y-76633667D01*
X151118493Y-76633666D01*
X151268513Y-76553479D01*
X151268516Y-76553478D01*
X151431305Y-76504096D01*
X151515888Y-76495765D01*
X151558179Y-76491600D01*
X151643021Y-76491600D01*
X151685312Y-76495765D01*
X151685312Y-76495765D01*
G37*
G36*
X146605312Y-76495765D02*
G01*
X146689895Y-76504096D01*
X146852684Y-76553478D01*
X146852687Y-76553479D01*
X147002707Y-76633666D01*
X147002708Y-76633667D01*
X147002712Y-76633669D01*
X147134212Y-76741588D01*
X147242131Y-76873088D01*
X147242133Y-76873092D01*
X147242134Y-76873093D01*
X147322321Y-77023113D01*
X147322322Y-77023116D01*
X147371704Y-77185905D01*
X147388378Y-77355200D01*
X147371704Y-77524495D01*
X147329920Y-77662238D01*
X147322321Y-77687287D01*
X147242134Y-77837307D01*
X147242131Y-77837312D01*
X147134212Y-77968812D01*
X147002712Y-78076731D01*
X147002708Y-78076733D01*
X147002707Y-78076734D01*
X146852687Y-78156921D01*
X146852684Y-78156922D01*
X146689895Y-78206304D01*
X146605312Y-78214635D01*
X146563021Y-78218800D01*
X146478179Y-78218800D01*
X146435888Y-78214635D01*
X146351305Y-78206304D01*
X146188516Y-78156922D01*
X146188513Y-78156921D01*
X146038493Y-78076734D01*
X146038492Y-78076733D01*
X146038488Y-78076731D01*
X145906988Y-77968812D01*
X145799069Y-77837312D01*
X145799066Y-77837307D01*
X145718879Y-77687287D01*
X145711280Y-77662238D01*
X145669496Y-77524495D01*
X145652822Y-77355200D01*
X145669496Y-77185905D01*
X145718878Y-77023116D01*
X145718879Y-77023113D01*
X145799066Y-76873093D01*
X145799067Y-76873092D01*
X145799069Y-76873088D01*
X145906988Y-76741588D01*
X146038488Y-76633669D01*
X146038492Y-76633667D01*
X146038493Y-76633666D01*
X146188513Y-76553479D01*
X146188516Y-76553478D01*
X146351305Y-76504096D01*
X146435888Y-76495765D01*
X146478179Y-76491600D01*
X146563021Y-76491600D01*
X146605312Y-76495765D01*
X146605312Y-76495765D01*
G37*
G36*
X144065312Y-76495765D02*
G01*
X144149895Y-76504096D01*
X144312684Y-76553478D01*
X144312687Y-76553479D01*
X144462707Y-76633666D01*
X144462708Y-76633667D01*
X144462712Y-76633669D01*
X144594212Y-76741588D01*
X144702131Y-76873088D01*
X144702133Y-76873092D01*
X144702134Y-76873093D01*
X144782321Y-77023113D01*
X144782322Y-77023116D01*
X144831704Y-77185905D01*
X144848378Y-77355200D01*
X144831704Y-77524495D01*
X144789920Y-77662238D01*
X144782321Y-77687287D01*
X144702134Y-77837307D01*
X144702131Y-77837312D01*
X144594212Y-77968812D01*
X144462712Y-78076731D01*
X144462708Y-78076733D01*
X144462707Y-78076734D01*
X144312687Y-78156921D01*
X144312684Y-78156922D01*
X144149895Y-78206304D01*
X144065312Y-78214635D01*
X144023021Y-78218800D01*
X143938179Y-78218800D01*
X143895888Y-78214635D01*
X143811305Y-78206304D01*
X143648516Y-78156922D01*
X143648513Y-78156921D01*
X143498493Y-78076734D01*
X143498492Y-78076733D01*
X143498488Y-78076731D01*
X143366988Y-77968812D01*
X143259069Y-77837312D01*
X143259066Y-77837307D01*
X143178879Y-77687287D01*
X143171280Y-77662238D01*
X143129496Y-77524495D01*
X143112822Y-77355200D01*
X143129496Y-77185905D01*
X143178878Y-77023116D01*
X143178879Y-77023113D01*
X143259066Y-76873093D01*
X143259067Y-76873092D01*
X143259069Y-76873088D01*
X143366988Y-76741588D01*
X143498488Y-76633669D01*
X143498492Y-76633667D01*
X143498493Y-76633666D01*
X143648513Y-76553479D01*
X143648516Y-76553478D01*
X143811305Y-76504096D01*
X143895888Y-76495765D01*
X143938179Y-76491600D01*
X144023021Y-76491600D01*
X144065312Y-76495765D01*
X144065312Y-76495765D01*
G37*
G36*
X141525312Y-76495765D02*
G01*
X141609895Y-76504096D01*
X141772684Y-76553478D01*
X141772687Y-76553479D01*
X141922707Y-76633666D01*
X141922708Y-76633667D01*
X141922712Y-76633669D01*
X142054212Y-76741588D01*
X142162131Y-76873088D01*
X142162133Y-76873092D01*
X142162134Y-76873093D01*
X142242321Y-77023113D01*
X142242322Y-77023116D01*
X142291704Y-77185905D01*
X142308378Y-77355200D01*
X142291704Y-77524495D01*
X142249920Y-77662238D01*
X142242321Y-77687287D01*
X142162134Y-77837307D01*
X142162131Y-77837312D01*
X142054212Y-77968812D01*
X141922712Y-78076731D01*
X141922708Y-78076733D01*
X141922707Y-78076734D01*
X141772687Y-78156921D01*
X141772684Y-78156922D01*
X141609895Y-78206304D01*
X141525312Y-78214635D01*
X141483021Y-78218800D01*
X141398179Y-78218800D01*
X141355888Y-78214635D01*
X141271305Y-78206304D01*
X141108516Y-78156922D01*
X141108513Y-78156921D01*
X140958493Y-78076734D01*
X140958492Y-78076733D01*
X140958488Y-78076731D01*
X140826988Y-77968812D01*
X140719069Y-77837312D01*
X140719066Y-77837307D01*
X140638879Y-77687287D01*
X140631280Y-77662238D01*
X140589496Y-77524495D01*
X140572822Y-77355200D01*
X140589496Y-77185905D01*
X140638878Y-77023116D01*
X140638879Y-77023113D01*
X140719066Y-76873093D01*
X140719067Y-76873092D01*
X140719069Y-76873088D01*
X140826988Y-76741588D01*
X140958488Y-76633669D01*
X140958492Y-76633667D01*
X140958493Y-76633666D01*
X141108513Y-76553479D01*
X141108516Y-76553478D01*
X141271305Y-76504096D01*
X141355888Y-76495765D01*
X141398179Y-76491600D01*
X141483021Y-76491600D01*
X141525312Y-76495765D01*
X141525312Y-76495765D01*
G37*
G36*
X138985312Y-76495765D02*
G01*
X139069895Y-76504096D01*
X139232684Y-76553478D01*
X139232687Y-76553479D01*
X139382707Y-76633666D01*
X139382708Y-76633667D01*
X139382712Y-76633669D01*
X139514212Y-76741588D01*
X139622131Y-76873088D01*
X139622133Y-76873092D01*
X139622134Y-76873093D01*
X139702321Y-77023113D01*
X139702322Y-77023116D01*
X139751704Y-77185905D01*
X139768378Y-77355200D01*
X139751704Y-77524495D01*
X139709920Y-77662238D01*
X139702321Y-77687287D01*
X139622134Y-77837307D01*
X139622131Y-77837312D01*
X139514212Y-77968812D01*
X139382712Y-78076731D01*
X139382708Y-78076733D01*
X139382707Y-78076734D01*
X139232687Y-78156921D01*
X139232684Y-78156922D01*
X139069895Y-78206304D01*
X138985312Y-78214635D01*
X138943021Y-78218800D01*
X138858179Y-78218800D01*
X138815888Y-78214635D01*
X138731305Y-78206304D01*
X138568516Y-78156922D01*
X138568513Y-78156921D01*
X138418493Y-78076734D01*
X138418492Y-78076733D01*
X138418488Y-78076731D01*
X138286988Y-77968812D01*
X138179069Y-77837312D01*
X138179066Y-77837307D01*
X138098879Y-77687287D01*
X138091280Y-77662238D01*
X138049496Y-77524495D01*
X138032822Y-77355200D01*
X138049496Y-77185905D01*
X138098878Y-77023116D01*
X138098879Y-77023113D01*
X138179066Y-76873093D01*
X138179067Y-76873092D01*
X138179069Y-76873088D01*
X138286988Y-76741588D01*
X138418488Y-76633669D01*
X138418492Y-76633667D01*
X138418493Y-76633666D01*
X138568513Y-76553479D01*
X138568516Y-76553478D01*
X138731305Y-76504096D01*
X138815888Y-76495765D01*
X138858179Y-76491600D01*
X138943021Y-76491600D01*
X138985312Y-76495765D01*
X138985312Y-76495765D01*
G37*
G36*
X133905312Y-76495765D02*
G01*
X133989895Y-76504096D01*
X134152684Y-76553478D01*
X134152687Y-76553479D01*
X134302707Y-76633666D01*
X134302708Y-76633667D01*
X134302712Y-76633669D01*
X134434212Y-76741588D01*
X134542131Y-76873088D01*
X134542133Y-76873092D01*
X134542134Y-76873093D01*
X134622321Y-77023113D01*
X134622322Y-77023116D01*
X134671704Y-77185905D01*
X134688378Y-77355200D01*
X134671704Y-77524495D01*
X134629920Y-77662238D01*
X134622321Y-77687287D01*
X134542134Y-77837307D01*
X134542131Y-77837312D01*
X134434212Y-77968812D01*
X134302712Y-78076731D01*
X134302708Y-78076733D01*
X134302707Y-78076734D01*
X134152687Y-78156921D01*
X134152684Y-78156922D01*
X133989895Y-78206304D01*
X133905312Y-78214635D01*
X133863021Y-78218800D01*
X133778179Y-78218800D01*
X133735888Y-78214635D01*
X133651305Y-78206304D01*
X133488516Y-78156922D01*
X133488513Y-78156921D01*
X133338493Y-78076734D01*
X133338492Y-78076733D01*
X133338488Y-78076731D01*
X133206988Y-77968812D01*
X133099069Y-77837312D01*
X133099066Y-77837307D01*
X133018879Y-77687287D01*
X133011280Y-77662238D01*
X132969496Y-77524495D01*
X132952822Y-77355200D01*
X132969496Y-77185905D01*
X133018878Y-77023116D01*
X133018879Y-77023113D01*
X133099066Y-76873093D01*
X133099067Y-76873092D01*
X133099069Y-76873088D01*
X133206988Y-76741588D01*
X133338488Y-76633669D01*
X133338492Y-76633667D01*
X133338493Y-76633666D01*
X133488513Y-76553479D01*
X133488516Y-76553478D01*
X133651305Y-76504096D01*
X133735888Y-76495765D01*
X133778179Y-76491600D01*
X133863021Y-76491600D01*
X133905312Y-76495765D01*
X133905312Y-76495765D01*
G37*
G36*
X131365312Y-76495765D02*
G01*
X131449895Y-76504096D01*
X131612684Y-76553478D01*
X131612687Y-76553479D01*
X131762707Y-76633666D01*
X131762708Y-76633667D01*
X131762712Y-76633669D01*
X131894212Y-76741588D01*
X132002131Y-76873088D01*
X132002133Y-76873092D01*
X132002134Y-76873093D01*
X132082321Y-77023113D01*
X132082322Y-77023116D01*
X132131704Y-77185905D01*
X132148378Y-77355200D01*
X132131704Y-77524495D01*
X132089920Y-77662238D01*
X132082321Y-77687287D01*
X132002134Y-77837307D01*
X132002131Y-77837312D01*
X131894212Y-77968812D01*
X131762712Y-78076731D01*
X131762708Y-78076733D01*
X131762707Y-78076734D01*
X131612687Y-78156921D01*
X131612684Y-78156922D01*
X131449895Y-78206304D01*
X131365312Y-78214635D01*
X131323021Y-78218800D01*
X131238179Y-78218800D01*
X131195888Y-78214635D01*
X131111305Y-78206304D01*
X130948516Y-78156922D01*
X130948513Y-78156921D01*
X130798493Y-78076734D01*
X130798492Y-78076733D01*
X130798488Y-78076731D01*
X130666988Y-77968812D01*
X130559069Y-77837312D01*
X130559066Y-77837307D01*
X130478879Y-77687287D01*
X130471280Y-77662238D01*
X130429496Y-77524495D01*
X130412822Y-77355200D01*
X130429496Y-77185905D01*
X130478878Y-77023116D01*
X130478879Y-77023113D01*
X130559066Y-76873093D01*
X130559067Y-76873092D01*
X130559069Y-76873088D01*
X130666988Y-76741588D01*
X130798488Y-76633669D01*
X130798492Y-76633667D01*
X130798493Y-76633666D01*
X130948513Y-76553479D01*
X130948516Y-76553478D01*
X131111305Y-76504096D01*
X131195888Y-76495765D01*
X131238179Y-76491600D01*
X131323021Y-76491600D01*
X131365312Y-76495765D01*
X131365312Y-76495765D01*
G37*
G36*
X136445312Y-76495765D02*
G01*
X136529895Y-76504096D01*
X136692684Y-76553478D01*
X136692687Y-76553479D01*
X136842707Y-76633666D01*
X136842708Y-76633667D01*
X136842712Y-76633669D01*
X136974212Y-76741588D01*
X137082131Y-76873088D01*
X137082133Y-76873092D01*
X137082134Y-76873093D01*
X137162321Y-77023113D01*
X137162322Y-77023116D01*
X137211704Y-77185905D01*
X137228378Y-77355200D01*
X137211704Y-77524495D01*
X137169920Y-77662238D01*
X137162321Y-77687287D01*
X137082134Y-77837307D01*
X137082131Y-77837312D01*
X136974212Y-77968812D01*
X136842712Y-78076731D01*
X136842708Y-78076733D01*
X136842707Y-78076734D01*
X136692687Y-78156921D01*
X136692684Y-78156922D01*
X136529895Y-78206304D01*
X136445312Y-78214635D01*
X136403021Y-78218800D01*
X136318179Y-78218800D01*
X136275888Y-78214635D01*
X136191305Y-78206304D01*
X136028516Y-78156922D01*
X136028513Y-78156921D01*
X135878493Y-78076734D01*
X135878492Y-78076733D01*
X135878488Y-78076731D01*
X135746988Y-77968812D01*
X135639069Y-77837312D01*
X135639066Y-77837307D01*
X135558879Y-77687287D01*
X135551280Y-77662238D01*
X135509496Y-77524495D01*
X135492822Y-77355200D01*
X135509496Y-77185905D01*
X135558878Y-77023116D01*
X135558879Y-77023113D01*
X135639066Y-76873093D01*
X135639067Y-76873092D01*
X135639069Y-76873088D01*
X135746988Y-76741588D01*
X135878488Y-76633669D01*
X135878492Y-76633667D01*
X135878493Y-76633666D01*
X136028513Y-76553479D01*
X136028516Y-76553478D01*
X136191305Y-76504096D01*
X136275888Y-76495765D01*
X136318179Y-76491600D01*
X136403021Y-76491600D01*
X136445312Y-76495765D01*
X136445312Y-76495765D01*
G37*
G36*
X128825312Y-76495765D02*
G01*
X128909895Y-76504096D01*
X129072684Y-76553478D01*
X129072687Y-76553479D01*
X129222707Y-76633666D01*
X129222708Y-76633667D01*
X129222712Y-76633669D01*
X129354212Y-76741588D01*
X129462131Y-76873088D01*
X129462133Y-76873092D01*
X129462134Y-76873093D01*
X129542321Y-77023113D01*
X129542322Y-77023116D01*
X129591704Y-77185905D01*
X129608378Y-77355200D01*
X129591704Y-77524495D01*
X129549920Y-77662238D01*
X129542321Y-77687287D01*
X129462134Y-77837307D01*
X129462131Y-77837312D01*
X129354212Y-77968812D01*
X129222712Y-78076731D01*
X129222708Y-78076733D01*
X129222707Y-78076734D01*
X129072687Y-78156921D01*
X129072684Y-78156922D01*
X128909895Y-78206304D01*
X128825312Y-78214635D01*
X128783021Y-78218800D01*
X128698179Y-78218800D01*
X128655888Y-78214635D01*
X128571305Y-78206304D01*
X128408516Y-78156922D01*
X128408513Y-78156921D01*
X128258493Y-78076734D01*
X128258492Y-78076733D01*
X128258488Y-78076731D01*
X128126988Y-77968812D01*
X128019069Y-77837312D01*
X128019066Y-77837307D01*
X127938879Y-77687287D01*
X127931280Y-77662238D01*
X127889496Y-77524495D01*
X127872822Y-77355200D01*
X127889496Y-77185905D01*
X127938878Y-77023116D01*
X127938879Y-77023113D01*
X128019066Y-76873093D01*
X128019067Y-76873092D01*
X128019069Y-76873088D01*
X128126988Y-76741588D01*
X128258488Y-76633669D01*
X128258492Y-76633667D01*
X128258493Y-76633666D01*
X128408513Y-76553479D01*
X128408516Y-76553478D01*
X128571305Y-76504096D01*
X128655888Y-76495765D01*
X128698179Y-76491600D01*
X128783021Y-76491600D01*
X128825312Y-76495765D01*
X128825312Y-76495765D01*
G37*
G36*
X149145312Y-76495765D02*
G01*
X149229895Y-76504096D01*
X149392684Y-76553478D01*
X149392687Y-76553479D01*
X149542707Y-76633666D01*
X149542708Y-76633667D01*
X149542712Y-76633669D01*
X149674212Y-76741588D01*
X149782131Y-76873088D01*
X149782133Y-76873092D01*
X149782134Y-76873093D01*
X149862321Y-77023113D01*
X149862322Y-77023116D01*
X149911704Y-77185905D01*
X149928378Y-77355200D01*
X149911704Y-77524495D01*
X149869920Y-77662238D01*
X149862321Y-77687287D01*
X149782134Y-77837307D01*
X149782131Y-77837312D01*
X149674212Y-77968812D01*
X149542712Y-78076731D01*
X149542708Y-78076733D01*
X149542707Y-78076734D01*
X149392687Y-78156921D01*
X149392684Y-78156922D01*
X149229895Y-78206304D01*
X149145312Y-78214635D01*
X149103021Y-78218800D01*
X149018179Y-78218800D01*
X148975888Y-78214635D01*
X148891305Y-78206304D01*
X148728516Y-78156922D01*
X148728513Y-78156921D01*
X148578493Y-78076734D01*
X148578492Y-78076733D01*
X148578488Y-78076731D01*
X148446988Y-77968812D01*
X148339069Y-77837312D01*
X148339066Y-77837307D01*
X148258879Y-77687287D01*
X148251280Y-77662238D01*
X148209496Y-77524495D01*
X148192822Y-77355200D01*
X148209496Y-77185905D01*
X148258878Y-77023116D01*
X148258879Y-77023113D01*
X148339066Y-76873093D01*
X148339067Y-76873092D01*
X148339069Y-76873088D01*
X148446988Y-76741588D01*
X148578488Y-76633669D01*
X148578492Y-76633667D01*
X148578493Y-76633666D01*
X148728513Y-76553479D01*
X148728516Y-76553478D01*
X148891305Y-76504096D01*
X148975888Y-76495765D01*
X149018179Y-76491600D01*
X149103021Y-76491600D01*
X149145312Y-76495765D01*
X149145312Y-76495765D01*
G37*
G36*
X108474552Y-76807853D02*
G01*
X108528419Y-76813158D01*
X108605118Y-76836425D01*
X108632098Y-76844609D01*
X108727638Y-76895676D01*
X108727641Y-76895678D01*
X108727642Y-76895679D01*
X108811390Y-76964410D01*
X108861852Y-77025897D01*
X108880124Y-77048162D01*
X108931191Y-77143702D01*
X108931192Y-77143706D01*
X108962642Y-77247381D01*
X108973261Y-77355200D01*
X108962642Y-77463019D01*
X108943994Y-77524493D01*
X108931191Y-77566698D01*
X108880124Y-77662238D01*
X108811390Y-77745990D01*
X108727638Y-77814724D01*
X108632098Y-77865791D01*
X108605118Y-77873975D01*
X108528419Y-77897242D01*
X108474552Y-77902547D01*
X108447619Y-77905200D01*
X108393581Y-77905200D01*
X108366648Y-77902547D01*
X108312781Y-77897242D01*
X108236082Y-77873975D01*
X108209102Y-77865791D01*
X108113562Y-77814724D01*
X108029810Y-77745990D01*
X107961076Y-77662238D01*
X107910009Y-77566698D01*
X107897206Y-77524493D01*
X107878558Y-77463019D01*
X107867939Y-77355200D01*
X107878558Y-77247381D01*
X107910008Y-77143706D01*
X107910009Y-77143702D01*
X107961076Y-77048162D01*
X107979349Y-77025897D01*
X108029810Y-76964410D01*
X108113558Y-76895679D01*
X108113559Y-76895678D01*
X108113562Y-76895676D01*
X108209102Y-76844609D01*
X108236082Y-76836425D01*
X108312781Y-76813158D01*
X108366648Y-76807853D01*
X108393581Y-76805200D01*
X108447619Y-76805200D01*
X108474552Y-76807853D01*
X108474552Y-76807853D01*
G37*
G36*
X111014552Y-76807853D02*
G01*
X111068419Y-76813158D01*
X111145118Y-76836425D01*
X111172098Y-76844609D01*
X111267638Y-76895676D01*
X111267641Y-76895678D01*
X111267642Y-76895679D01*
X111351390Y-76964410D01*
X111401852Y-77025897D01*
X111420124Y-77048162D01*
X111471191Y-77143702D01*
X111471192Y-77143706D01*
X111502642Y-77247381D01*
X111513261Y-77355200D01*
X111502642Y-77463019D01*
X111483994Y-77524493D01*
X111471191Y-77566698D01*
X111420124Y-77662238D01*
X111351390Y-77745990D01*
X111267638Y-77814724D01*
X111172098Y-77865791D01*
X111145118Y-77873975D01*
X111068419Y-77897242D01*
X111014552Y-77902547D01*
X110987619Y-77905200D01*
X110933581Y-77905200D01*
X110906648Y-77902547D01*
X110852781Y-77897242D01*
X110776082Y-77873975D01*
X110749102Y-77865791D01*
X110653562Y-77814724D01*
X110569810Y-77745990D01*
X110501076Y-77662238D01*
X110450009Y-77566698D01*
X110437206Y-77524493D01*
X110418558Y-77463019D01*
X110407939Y-77355200D01*
X110418558Y-77247381D01*
X110450008Y-77143706D01*
X110450009Y-77143702D01*
X110501076Y-77048162D01*
X110519349Y-77025897D01*
X110569810Y-76964410D01*
X110653558Y-76895679D01*
X110653559Y-76895678D01*
X110653562Y-76895676D01*
X110749102Y-76844609D01*
X110776082Y-76836425D01*
X110852781Y-76813158D01*
X110906648Y-76807853D01*
X110933581Y-76805200D01*
X110987619Y-76805200D01*
X111014552Y-76807853D01*
X111014552Y-76807853D01*
G37*
G36*
X116125312Y-73955765D02*
G01*
X116209895Y-73964096D01*
X116372684Y-74013478D01*
X116372687Y-74013479D01*
X116522707Y-74093666D01*
X116522708Y-74093667D01*
X116522712Y-74093669D01*
X116654212Y-74201588D01*
X116762131Y-74333088D01*
X116762133Y-74333092D01*
X116762134Y-74333093D01*
X116842321Y-74483113D01*
X116842322Y-74483116D01*
X116891704Y-74645905D01*
X116908378Y-74815200D01*
X116891704Y-74984495D01*
X116843166Y-75144502D01*
X116842321Y-75147287D01*
X116762134Y-75297307D01*
X116762131Y-75297312D01*
X116654212Y-75428812D01*
X116522712Y-75536731D01*
X116522708Y-75536733D01*
X116522707Y-75536734D01*
X116372687Y-75616921D01*
X116372684Y-75616922D01*
X116209895Y-75666304D01*
X116125312Y-75674635D01*
X116083021Y-75678800D01*
X115998179Y-75678800D01*
X115955888Y-75674635D01*
X115871305Y-75666304D01*
X115708516Y-75616922D01*
X115708513Y-75616921D01*
X115558493Y-75536734D01*
X115558492Y-75536733D01*
X115558488Y-75536731D01*
X115426988Y-75428812D01*
X115319069Y-75297312D01*
X115319066Y-75297307D01*
X115238879Y-75147287D01*
X115238034Y-75144502D01*
X115189496Y-74984495D01*
X115172822Y-74815200D01*
X115189496Y-74645905D01*
X115238878Y-74483116D01*
X115238879Y-74483113D01*
X115319066Y-74333093D01*
X115319067Y-74333092D01*
X115319069Y-74333088D01*
X115426988Y-74201588D01*
X115558488Y-74093669D01*
X115558492Y-74093667D01*
X115558493Y-74093666D01*
X115708513Y-74013479D01*
X115708516Y-74013478D01*
X115871305Y-73964096D01*
X115955888Y-73955765D01*
X115998179Y-73951600D01*
X116083021Y-73951600D01*
X116125312Y-73955765D01*
X116125312Y-73955765D01*
G37*
G36*
X108505312Y-73955765D02*
G01*
X108589895Y-73964096D01*
X108752684Y-74013478D01*
X108752687Y-74013479D01*
X108902707Y-74093666D01*
X108902708Y-74093667D01*
X108902712Y-74093669D01*
X109034212Y-74201588D01*
X109142131Y-74333088D01*
X109142133Y-74333092D01*
X109142134Y-74333093D01*
X109222321Y-74483113D01*
X109222322Y-74483116D01*
X109271704Y-74645905D01*
X109288378Y-74815200D01*
X109271704Y-74984495D01*
X109223166Y-75144502D01*
X109222321Y-75147287D01*
X109142134Y-75297307D01*
X109142131Y-75297312D01*
X109034212Y-75428812D01*
X108902712Y-75536731D01*
X108902708Y-75536733D01*
X108902707Y-75536734D01*
X108752687Y-75616921D01*
X108752684Y-75616922D01*
X108589895Y-75666304D01*
X108505312Y-75674635D01*
X108463021Y-75678800D01*
X108378179Y-75678800D01*
X108335888Y-75674635D01*
X108251305Y-75666304D01*
X108088516Y-75616922D01*
X108088513Y-75616921D01*
X107938493Y-75536734D01*
X107938492Y-75536733D01*
X107938488Y-75536731D01*
X107806988Y-75428812D01*
X107699069Y-75297312D01*
X107699066Y-75297307D01*
X107618879Y-75147287D01*
X107618034Y-75144502D01*
X107569496Y-74984495D01*
X107552822Y-74815200D01*
X107569496Y-74645905D01*
X107618878Y-74483116D01*
X107618879Y-74483113D01*
X107699066Y-74333093D01*
X107699067Y-74333092D01*
X107699069Y-74333088D01*
X107806988Y-74201588D01*
X107938488Y-74093669D01*
X107938492Y-74093667D01*
X107938493Y-74093666D01*
X108088513Y-74013479D01*
X108088516Y-74013478D01*
X108251305Y-73964096D01*
X108335888Y-73955765D01*
X108378179Y-73951600D01*
X108463021Y-73951600D01*
X108505312Y-73955765D01*
X108505312Y-73955765D01*
G37*
G36*
X111045312Y-73955765D02*
G01*
X111129895Y-73964096D01*
X111292684Y-74013478D01*
X111292687Y-74013479D01*
X111442707Y-74093666D01*
X111442708Y-74093667D01*
X111442712Y-74093669D01*
X111574212Y-74201588D01*
X111682131Y-74333088D01*
X111682133Y-74333092D01*
X111682134Y-74333093D01*
X111762321Y-74483113D01*
X111762322Y-74483116D01*
X111811704Y-74645905D01*
X111828378Y-74815200D01*
X111811704Y-74984495D01*
X111763166Y-75144502D01*
X111762321Y-75147287D01*
X111682134Y-75297307D01*
X111682131Y-75297312D01*
X111574212Y-75428812D01*
X111442712Y-75536731D01*
X111442708Y-75536733D01*
X111442707Y-75536734D01*
X111292687Y-75616921D01*
X111292684Y-75616922D01*
X111129895Y-75666304D01*
X111045312Y-75674635D01*
X111003021Y-75678800D01*
X110918179Y-75678800D01*
X110875888Y-75674635D01*
X110791305Y-75666304D01*
X110628516Y-75616922D01*
X110628513Y-75616921D01*
X110478493Y-75536734D01*
X110478492Y-75536733D01*
X110478488Y-75536731D01*
X110346988Y-75428812D01*
X110239069Y-75297312D01*
X110239066Y-75297307D01*
X110158879Y-75147287D01*
X110158034Y-75144502D01*
X110109496Y-74984495D01*
X110092822Y-74815200D01*
X110109496Y-74645905D01*
X110158878Y-74483116D01*
X110158879Y-74483113D01*
X110239066Y-74333093D01*
X110239067Y-74333092D01*
X110239069Y-74333088D01*
X110346988Y-74201588D01*
X110478488Y-74093669D01*
X110478492Y-74093667D01*
X110478493Y-74093666D01*
X110628513Y-74013479D01*
X110628516Y-74013478D01*
X110791305Y-73964096D01*
X110875888Y-73955765D01*
X110918179Y-73951600D01*
X111003021Y-73951600D01*
X111045312Y-73955765D01*
X111045312Y-73955765D01*
G37*
G36*
X113585312Y-73955765D02*
G01*
X113669895Y-73964096D01*
X113832684Y-74013478D01*
X113832687Y-74013479D01*
X113982707Y-74093666D01*
X113982708Y-74093667D01*
X113982712Y-74093669D01*
X114114212Y-74201588D01*
X114222131Y-74333088D01*
X114222133Y-74333092D01*
X114222134Y-74333093D01*
X114302321Y-74483113D01*
X114302322Y-74483116D01*
X114351704Y-74645905D01*
X114368378Y-74815200D01*
X114351704Y-74984495D01*
X114303166Y-75144502D01*
X114302321Y-75147287D01*
X114222134Y-75297307D01*
X114222131Y-75297312D01*
X114114212Y-75428812D01*
X113982712Y-75536731D01*
X113982708Y-75536733D01*
X113982707Y-75536734D01*
X113832687Y-75616921D01*
X113832684Y-75616922D01*
X113669895Y-75666304D01*
X113585312Y-75674635D01*
X113543021Y-75678800D01*
X113458179Y-75678800D01*
X113415888Y-75674635D01*
X113331305Y-75666304D01*
X113168516Y-75616922D01*
X113168513Y-75616921D01*
X113018493Y-75536734D01*
X113018492Y-75536733D01*
X113018488Y-75536731D01*
X112886988Y-75428812D01*
X112779069Y-75297312D01*
X112779066Y-75297307D01*
X112698879Y-75147287D01*
X112698034Y-75144502D01*
X112649496Y-74984495D01*
X112632822Y-74815200D01*
X112649496Y-74645905D01*
X112698878Y-74483116D01*
X112698879Y-74483113D01*
X112779066Y-74333093D01*
X112779067Y-74333092D01*
X112779069Y-74333088D01*
X112886988Y-74201588D01*
X113018488Y-74093669D01*
X113018492Y-74093667D01*
X113018493Y-74093666D01*
X113168513Y-74013479D01*
X113168516Y-74013478D01*
X113331305Y-73964096D01*
X113415888Y-73955765D01*
X113458179Y-73951600D01*
X113543021Y-73951600D01*
X113585312Y-73955765D01*
X113585312Y-73955765D01*
G37*
G36*
X121205312Y-73955765D02*
G01*
X121289895Y-73964096D01*
X121452684Y-74013478D01*
X121452687Y-74013479D01*
X121602707Y-74093666D01*
X121602708Y-74093667D01*
X121602712Y-74093669D01*
X121734212Y-74201588D01*
X121842131Y-74333088D01*
X121842133Y-74333092D01*
X121842134Y-74333093D01*
X121922321Y-74483113D01*
X121922322Y-74483116D01*
X121971704Y-74645905D01*
X121988378Y-74815200D01*
X121971704Y-74984495D01*
X121923166Y-75144502D01*
X121922321Y-75147287D01*
X121842134Y-75297307D01*
X121842131Y-75297312D01*
X121734212Y-75428812D01*
X121602712Y-75536731D01*
X121602708Y-75536733D01*
X121602707Y-75536734D01*
X121452687Y-75616921D01*
X121452684Y-75616922D01*
X121289895Y-75666304D01*
X121205312Y-75674635D01*
X121163021Y-75678800D01*
X121078179Y-75678800D01*
X121035888Y-75674635D01*
X120951305Y-75666304D01*
X120788516Y-75616922D01*
X120788513Y-75616921D01*
X120638493Y-75536734D01*
X120638492Y-75536733D01*
X120638488Y-75536731D01*
X120506988Y-75428812D01*
X120399069Y-75297312D01*
X120399066Y-75297307D01*
X120318879Y-75147287D01*
X120318034Y-75144502D01*
X120269496Y-74984495D01*
X120252822Y-74815200D01*
X120269496Y-74645905D01*
X120318878Y-74483116D01*
X120318879Y-74483113D01*
X120399066Y-74333093D01*
X120399067Y-74333092D01*
X120399069Y-74333088D01*
X120506988Y-74201588D01*
X120638488Y-74093669D01*
X120638492Y-74093667D01*
X120638493Y-74093666D01*
X120788513Y-74013479D01*
X120788516Y-74013478D01*
X120951305Y-73964096D01*
X121035888Y-73955765D01*
X121078179Y-73951600D01*
X121163021Y-73951600D01*
X121205312Y-73955765D01*
X121205312Y-73955765D01*
G37*
G36*
X118665312Y-73955765D02*
G01*
X118749895Y-73964096D01*
X118912684Y-74013478D01*
X118912687Y-74013479D01*
X119062707Y-74093666D01*
X119062708Y-74093667D01*
X119062712Y-74093669D01*
X119194212Y-74201588D01*
X119302131Y-74333088D01*
X119302133Y-74333092D01*
X119302134Y-74333093D01*
X119382321Y-74483113D01*
X119382322Y-74483116D01*
X119431704Y-74645905D01*
X119448378Y-74815200D01*
X119431704Y-74984495D01*
X119383166Y-75144502D01*
X119382321Y-75147287D01*
X119302134Y-75297307D01*
X119302131Y-75297312D01*
X119194212Y-75428812D01*
X119062712Y-75536731D01*
X119062708Y-75536733D01*
X119062707Y-75536734D01*
X118912687Y-75616921D01*
X118912684Y-75616922D01*
X118749895Y-75666304D01*
X118665312Y-75674635D01*
X118623021Y-75678800D01*
X118538179Y-75678800D01*
X118495888Y-75674635D01*
X118411305Y-75666304D01*
X118248516Y-75616922D01*
X118248513Y-75616921D01*
X118098493Y-75536734D01*
X118098492Y-75536733D01*
X118098488Y-75536731D01*
X117966988Y-75428812D01*
X117859069Y-75297312D01*
X117859066Y-75297307D01*
X117778879Y-75147287D01*
X117778034Y-75144502D01*
X117729496Y-74984495D01*
X117712822Y-74815200D01*
X117729496Y-74645905D01*
X117778878Y-74483116D01*
X117778879Y-74483113D01*
X117859066Y-74333093D01*
X117859067Y-74333092D01*
X117859069Y-74333088D01*
X117966988Y-74201588D01*
X118098488Y-74093669D01*
X118098492Y-74093667D01*
X118098493Y-74093666D01*
X118248513Y-74013479D01*
X118248516Y-74013478D01*
X118411305Y-73964096D01*
X118495888Y-73955765D01*
X118538179Y-73951600D01*
X118623021Y-73951600D01*
X118665312Y-73955765D01*
X118665312Y-73955765D01*
G37*
G36*
X105965312Y-73955765D02*
G01*
X106049895Y-73964096D01*
X106212684Y-74013478D01*
X106212687Y-74013479D01*
X106362707Y-74093666D01*
X106362708Y-74093667D01*
X106362712Y-74093669D01*
X106494212Y-74201588D01*
X106602131Y-74333088D01*
X106602133Y-74333092D01*
X106602134Y-74333093D01*
X106682321Y-74483113D01*
X106682322Y-74483116D01*
X106731704Y-74645905D01*
X106748378Y-74815200D01*
X106731704Y-74984495D01*
X106683166Y-75144502D01*
X106682321Y-75147287D01*
X106602134Y-75297307D01*
X106602131Y-75297312D01*
X106494212Y-75428812D01*
X106362712Y-75536731D01*
X106362708Y-75536733D01*
X106362707Y-75536734D01*
X106212687Y-75616921D01*
X106212684Y-75616922D01*
X106049895Y-75666304D01*
X105965312Y-75674635D01*
X105923021Y-75678800D01*
X105838179Y-75678800D01*
X105795888Y-75674635D01*
X105711305Y-75666304D01*
X105548516Y-75616922D01*
X105548513Y-75616921D01*
X105398493Y-75536734D01*
X105398492Y-75536733D01*
X105398488Y-75536731D01*
X105266988Y-75428812D01*
X105159069Y-75297312D01*
X105159066Y-75297307D01*
X105078879Y-75147287D01*
X105078034Y-75144502D01*
X105029496Y-74984495D01*
X105012822Y-74815200D01*
X105029496Y-74645905D01*
X105078878Y-74483116D01*
X105078879Y-74483113D01*
X105159066Y-74333093D01*
X105159067Y-74333092D01*
X105159069Y-74333088D01*
X105266988Y-74201588D01*
X105398488Y-74093669D01*
X105398492Y-74093667D01*
X105398493Y-74093666D01*
X105548513Y-74013479D01*
X105548516Y-74013478D01*
X105711305Y-73964096D01*
X105795888Y-73955765D01*
X105838179Y-73951600D01*
X105923021Y-73951600D01*
X105965312Y-73955765D01*
X105965312Y-73955765D01*
G37*
G36*
X136445312Y-73955765D02*
G01*
X136529895Y-73964096D01*
X136692684Y-74013478D01*
X136692687Y-74013479D01*
X136842707Y-74093666D01*
X136842708Y-74093667D01*
X136842712Y-74093669D01*
X136974212Y-74201588D01*
X137082131Y-74333088D01*
X137082133Y-74333092D01*
X137082134Y-74333093D01*
X137162321Y-74483113D01*
X137162322Y-74483116D01*
X137211704Y-74645905D01*
X137228378Y-74815200D01*
X137211704Y-74984495D01*
X137163166Y-75144502D01*
X137162321Y-75147287D01*
X137082134Y-75297307D01*
X137082131Y-75297312D01*
X136974212Y-75428812D01*
X136842712Y-75536731D01*
X136842708Y-75536733D01*
X136842707Y-75536734D01*
X136692687Y-75616921D01*
X136692684Y-75616922D01*
X136529895Y-75666304D01*
X136445312Y-75674635D01*
X136403021Y-75678800D01*
X136318179Y-75678800D01*
X136275888Y-75674635D01*
X136191305Y-75666304D01*
X136028516Y-75616922D01*
X136028513Y-75616921D01*
X135878493Y-75536734D01*
X135878492Y-75536733D01*
X135878488Y-75536731D01*
X135746988Y-75428812D01*
X135639069Y-75297312D01*
X135639066Y-75297307D01*
X135558879Y-75147287D01*
X135558034Y-75144502D01*
X135509496Y-74984495D01*
X135492822Y-74815200D01*
X135509496Y-74645905D01*
X135558878Y-74483116D01*
X135558879Y-74483113D01*
X135639066Y-74333093D01*
X135639067Y-74333092D01*
X135639069Y-74333088D01*
X135746988Y-74201588D01*
X135878488Y-74093669D01*
X135878492Y-74093667D01*
X135878493Y-74093666D01*
X136028513Y-74013479D01*
X136028516Y-74013478D01*
X136191305Y-73964096D01*
X136275888Y-73955765D01*
X136318179Y-73951600D01*
X136403021Y-73951600D01*
X136445312Y-73955765D01*
X136445312Y-73955765D01*
G37*
G36*
X133905312Y-73955765D02*
G01*
X133989895Y-73964096D01*
X134152684Y-74013478D01*
X134152687Y-74013479D01*
X134302707Y-74093666D01*
X134302708Y-74093667D01*
X134302712Y-74093669D01*
X134434212Y-74201588D01*
X134542131Y-74333088D01*
X134542133Y-74333092D01*
X134542134Y-74333093D01*
X134622321Y-74483113D01*
X134622322Y-74483116D01*
X134671704Y-74645905D01*
X134688378Y-74815200D01*
X134671704Y-74984495D01*
X134623166Y-75144502D01*
X134622321Y-75147287D01*
X134542134Y-75297307D01*
X134542131Y-75297312D01*
X134434212Y-75428812D01*
X134302712Y-75536731D01*
X134302708Y-75536733D01*
X134302707Y-75536734D01*
X134152687Y-75616921D01*
X134152684Y-75616922D01*
X133989895Y-75666304D01*
X133905312Y-75674635D01*
X133863021Y-75678800D01*
X133778179Y-75678800D01*
X133735888Y-75674635D01*
X133651305Y-75666304D01*
X133488516Y-75616922D01*
X133488513Y-75616921D01*
X133338493Y-75536734D01*
X133338492Y-75536733D01*
X133338488Y-75536731D01*
X133206988Y-75428812D01*
X133099069Y-75297312D01*
X133099066Y-75297307D01*
X133018879Y-75147287D01*
X133018034Y-75144502D01*
X132969496Y-74984495D01*
X132952822Y-74815200D01*
X132969496Y-74645905D01*
X133018878Y-74483116D01*
X133018879Y-74483113D01*
X133099066Y-74333093D01*
X133099067Y-74333092D01*
X133099069Y-74333088D01*
X133206988Y-74201588D01*
X133338488Y-74093669D01*
X133338492Y-74093667D01*
X133338493Y-74093666D01*
X133488513Y-74013479D01*
X133488516Y-74013478D01*
X133651305Y-73964096D01*
X133735888Y-73955765D01*
X133778179Y-73951600D01*
X133863021Y-73951600D01*
X133905312Y-73955765D01*
X133905312Y-73955765D01*
G37*
G36*
X138985312Y-73955765D02*
G01*
X139069895Y-73964096D01*
X139232684Y-74013478D01*
X139232687Y-74013479D01*
X139382707Y-74093666D01*
X139382708Y-74093667D01*
X139382712Y-74093669D01*
X139514212Y-74201588D01*
X139622131Y-74333088D01*
X139622133Y-74333092D01*
X139622134Y-74333093D01*
X139702321Y-74483113D01*
X139702322Y-74483116D01*
X139751704Y-74645905D01*
X139768378Y-74815200D01*
X139751704Y-74984495D01*
X139703166Y-75144502D01*
X139702321Y-75147287D01*
X139622134Y-75297307D01*
X139622131Y-75297312D01*
X139514212Y-75428812D01*
X139382712Y-75536731D01*
X139382708Y-75536733D01*
X139382707Y-75536734D01*
X139232687Y-75616921D01*
X139232684Y-75616922D01*
X139069895Y-75666304D01*
X138985312Y-75674635D01*
X138943021Y-75678800D01*
X138858179Y-75678800D01*
X138815888Y-75674635D01*
X138731305Y-75666304D01*
X138568516Y-75616922D01*
X138568513Y-75616921D01*
X138418493Y-75536734D01*
X138418492Y-75536733D01*
X138418488Y-75536731D01*
X138286988Y-75428812D01*
X138179069Y-75297312D01*
X138179066Y-75297307D01*
X138098879Y-75147287D01*
X138098034Y-75144502D01*
X138049496Y-74984495D01*
X138032822Y-74815200D01*
X138049496Y-74645905D01*
X138098878Y-74483116D01*
X138098879Y-74483113D01*
X138179066Y-74333093D01*
X138179067Y-74333092D01*
X138179069Y-74333088D01*
X138286988Y-74201588D01*
X138418488Y-74093669D01*
X138418492Y-74093667D01*
X138418493Y-74093666D01*
X138568513Y-74013479D01*
X138568516Y-74013478D01*
X138731305Y-73964096D01*
X138815888Y-73955765D01*
X138858179Y-73951600D01*
X138943021Y-73951600D01*
X138985312Y-73955765D01*
X138985312Y-73955765D01*
G37*
G36*
X141525312Y-73955765D02*
G01*
X141609895Y-73964096D01*
X141772684Y-74013478D01*
X141772687Y-74013479D01*
X141922707Y-74093666D01*
X141922708Y-74093667D01*
X141922712Y-74093669D01*
X142054212Y-74201588D01*
X142162131Y-74333088D01*
X142162133Y-74333092D01*
X142162134Y-74333093D01*
X142242321Y-74483113D01*
X142242322Y-74483116D01*
X142291704Y-74645905D01*
X142308378Y-74815200D01*
X142291704Y-74984495D01*
X142243166Y-75144502D01*
X142242321Y-75147287D01*
X142162134Y-75297307D01*
X142162131Y-75297312D01*
X142054212Y-75428812D01*
X141922712Y-75536731D01*
X141922708Y-75536733D01*
X141922707Y-75536734D01*
X141772687Y-75616921D01*
X141772684Y-75616922D01*
X141609895Y-75666304D01*
X141525312Y-75674635D01*
X141483021Y-75678800D01*
X141398179Y-75678800D01*
X141355888Y-75674635D01*
X141271305Y-75666304D01*
X141108516Y-75616922D01*
X141108513Y-75616921D01*
X140958493Y-75536734D01*
X140958492Y-75536733D01*
X140958488Y-75536731D01*
X140826988Y-75428812D01*
X140719069Y-75297312D01*
X140719066Y-75297307D01*
X140638879Y-75147287D01*
X140638034Y-75144502D01*
X140589496Y-74984495D01*
X140572822Y-74815200D01*
X140589496Y-74645905D01*
X140638878Y-74483116D01*
X140638879Y-74483113D01*
X140719066Y-74333093D01*
X140719067Y-74333092D01*
X140719069Y-74333088D01*
X140826988Y-74201588D01*
X140958488Y-74093669D01*
X140958492Y-74093667D01*
X140958493Y-74093666D01*
X141108513Y-74013479D01*
X141108516Y-74013478D01*
X141271305Y-73964096D01*
X141355888Y-73955765D01*
X141398179Y-73951600D01*
X141483021Y-73951600D01*
X141525312Y-73955765D01*
X141525312Y-73955765D01*
G37*
G36*
X131365312Y-73955765D02*
G01*
X131449895Y-73964096D01*
X131612684Y-74013478D01*
X131612687Y-74013479D01*
X131762707Y-74093666D01*
X131762708Y-74093667D01*
X131762712Y-74093669D01*
X131894212Y-74201588D01*
X132002131Y-74333088D01*
X132002133Y-74333092D01*
X132002134Y-74333093D01*
X132082321Y-74483113D01*
X132082322Y-74483116D01*
X132131704Y-74645905D01*
X132148378Y-74815200D01*
X132131704Y-74984495D01*
X132083166Y-75144502D01*
X132082321Y-75147287D01*
X132002134Y-75297307D01*
X132002131Y-75297312D01*
X131894212Y-75428812D01*
X131762712Y-75536731D01*
X131762708Y-75536733D01*
X131762707Y-75536734D01*
X131612687Y-75616921D01*
X131612684Y-75616922D01*
X131449895Y-75666304D01*
X131365312Y-75674635D01*
X131323021Y-75678800D01*
X131238179Y-75678800D01*
X131195888Y-75674635D01*
X131111305Y-75666304D01*
X130948516Y-75616922D01*
X130948513Y-75616921D01*
X130798493Y-75536734D01*
X130798492Y-75536733D01*
X130798488Y-75536731D01*
X130666988Y-75428812D01*
X130559069Y-75297312D01*
X130559066Y-75297307D01*
X130478879Y-75147287D01*
X130478034Y-75144502D01*
X130429496Y-74984495D01*
X130412822Y-74815200D01*
X130429496Y-74645905D01*
X130478878Y-74483116D01*
X130478879Y-74483113D01*
X130559066Y-74333093D01*
X130559067Y-74333092D01*
X130559069Y-74333088D01*
X130666988Y-74201588D01*
X130798488Y-74093669D01*
X130798492Y-74093667D01*
X130798493Y-74093666D01*
X130948513Y-74013479D01*
X130948516Y-74013478D01*
X131111305Y-73964096D01*
X131195888Y-73955765D01*
X131238179Y-73951600D01*
X131323021Y-73951600D01*
X131365312Y-73955765D01*
X131365312Y-73955765D01*
G37*
G36*
X144065312Y-73955765D02*
G01*
X144149895Y-73964096D01*
X144312684Y-74013478D01*
X144312687Y-74013479D01*
X144462707Y-74093666D01*
X144462708Y-74093667D01*
X144462712Y-74093669D01*
X144594212Y-74201588D01*
X144702131Y-74333088D01*
X144702133Y-74333092D01*
X144702134Y-74333093D01*
X144782321Y-74483113D01*
X144782322Y-74483116D01*
X144831704Y-74645905D01*
X144848378Y-74815200D01*
X144831704Y-74984495D01*
X144783166Y-75144502D01*
X144782321Y-75147287D01*
X144702134Y-75297307D01*
X144702131Y-75297312D01*
X144594212Y-75428812D01*
X144462712Y-75536731D01*
X144462708Y-75536733D01*
X144462707Y-75536734D01*
X144312687Y-75616921D01*
X144312684Y-75616922D01*
X144149895Y-75666304D01*
X144065312Y-75674635D01*
X144023021Y-75678800D01*
X143938179Y-75678800D01*
X143895888Y-75674635D01*
X143811305Y-75666304D01*
X143648516Y-75616922D01*
X143648513Y-75616921D01*
X143498493Y-75536734D01*
X143498492Y-75536733D01*
X143498488Y-75536731D01*
X143366988Y-75428812D01*
X143259069Y-75297312D01*
X143259066Y-75297307D01*
X143178879Y-75147287D01*
X143178034Y-75144502D01*
X143129496Y-74984495D01*
X143112822Y-74815200D01*
X143129496Y-74645905D01*
X143178878Y-74483116D01*
X143178879Y-74483113D01*
X143259066Y-74333093D01*
X143259067Y-74333092D01*
X143259069Y-74333088D01*
X143366988Y-74201588D01*
X143498488Y-74093669D01*
X143498492Y-74093667D01*
X143498493Y-74093666D01*
X143648513Y-74013479D01*
X143648516Y-74013478D01*
X143811305Y-73964096D01*
X143895888Y-73955765D01*
X143938179Y-73951600D01*
X144023021Y-73951600D01*
X144065312Y-73955765D01*
X144065312Y-73955765D01*
G37*
G36*
X128825312Y-73955765D02*
G01*
X128909895Y-73964096D01*
X129072684Y-74013478D01*
X129072687Y-74013479D01*
X129222707Y-74093666D01*
X129222708Y-74093667D01*
X129222712Y-74093669D01*
X129354212Y-74201588D01*
X129462131Y-74333088D01*
X129462133Y-74333092D01*
X129462134Y-74333093D01*
X129542321Y-74483113D01*
X129542322Y-74483116D01*
X129591704Y-74645905D01*
X129608378Y-74815200D01*
X129591704Y-74984495D01*
X129543166Y-75144502D01*
X129542321Y-75147287D01*
X129462134Y-75297307D01*
X129462131Y-75297312D01*
X129354212Y-75428812D01*
X129222712Y-75536731D01*
X129222708Y-75536733D01*
X129222707Y-75536734D01*
X129072687Y-75616921D01*
X129072684Y-75616922D01*
X128909895Y-75666304D01*
X128825312Y-75674635D01*
X128783021Y-75678800D01*
X128698179Y-75678800D01*
X128655888Y-75674635D01*
X128571305Y-75666304D01*
X128408516Y-75616922D01*
X128408513Y-75616921D01*
X128258493Y-75536734D01*
X128258492Y-75536733D01*
X128258488Y-75536731D01*
X128126988Y-75428812D01*
X128019069Y-75297312D01*
X128019066Y-75297307D01*
X127938879Y-75147287D01*
X127938034Y-75144502D01*
X127889496Y-74984495D01*
X127872822Y-74815200D01*
X127889496Y-74645905D01*
X127938878Y-74483116D01*
X127938879Y-74483113D01*
X128019066Y-74333093D01*
X128019067Y-74333092D01*
X128019069Y-74333088D01*
X128126988Y-74201588D01*
X128258488Y-74093669D01*
X128258492Y-74093667D01*
X128258493Y-74093666D01*
X128408513Y-74013479D01*
X128408516Y-74013478D01*
X128571305Y-73964096D01*
X128655888Y-73955765D01*
X128698179Y-73951600D01*
X128783021Y-73951600D01*
X128825312Y-73955765D01*
X128825312Y-73955765D01*
G37*
G36*
X146605312Y-73955765D02*
G01*
X146689895Y-73964096D01*
X146852684Y-74013478D01*
X146852687Y-74013479D01*
X147002707Y-74093666D01*
X147002708Y-74093667D01*
X147002712Y-74093669D01*
X147134212Y-74201588D01*
X147242131Y-74333088D01*
X147242133Y-74333092D01*
X147242134Y-74333093D01*
X147322321Y-74483113D01*
X147322322Y-74483116D01*
X147371704Y-74645905D01*
X147388378Y-74815200D01*
X147371704Y-74984495D01*
X147323166Y-75144502D01*
X147322321Y-75147287D01*
X147242134Y-75297307D01*
X147242131Y-75297312D01*
X147134212Y-75428812D01*
X147002712Y-75536731D01*
X147002708Y-75536733D01*
X147002707Y-75536734D01*
X146852687Y-75616921D01*
X146852684Y-75616922D01*
X146689895Y-75666304D01*
X146605312Y-75674635D01*
X146563021Y-75678800D01*
X146478179Y-75678800D01*
X146435888Y-75674635D01*
X146351305Y-75666304D01*
X146188516Y-75616922D01*
X146188513Y-75616921D01*
X146038493Y-75536734D01*
X146038492Y-75536733D01*
X146038488Y-75536731D01*
X145906988Y-75428812D01*
X145799069Y-75297312D01*
X145799066Y-75297307D01*
X145718879Y-75147287D01*
X145718034Y-75144502D01*
X145669496Y-74984495D01*
X145652822Y-74815200D01*
X145669496Y-74645905D01*
X145718878Y-74483116D01*
X145718879Y-74483113D01*
X145799066Y-74333093D01*
X145799067Y-74333092D01*
X145799069Y-74333088D01*
X145906988Y-74201588D01*
X146038488Y-74093669D01*
X146038492Y-74093667D01*
X146038493Y-74093666D01*
X146188513Y-74013479D01*
X146188516Y-74013478D01*
X146351305Y-73964096D01*
X146435888Y-73955765D01*
X146478179Y-73951600D01*
X146563021Y-73951600D01*
X146605312Y-73955765D01*
X146605312Y-73955765D01*
G37*
G36*
X154225312Y-73955765D02*
G01*
X154309895Y-73964096D01*
X154472684Y-74013478D01*
X154472687Y-74013479D01*
X154622707Y-74093666D01*
X154622708Y-74093667D01*
X154622712Y-74093669D01*
X154754212Y-74201588D01*
X154862131Y-74333088D01*
X154862133Y-74333092D01*
X154862134Y-74333093D01*
X154942321Y-74483113D01*
X154942322Y-74483116D01*
X154991704Y-74645905D01*
X155008378Y-74815200D01*
X154991704Y-74984495D01*
X154943166Y-75144502D01*
X154942321Y-75147287D01*
X154862134Y-75297307D01*
X154862131Y-75297312D01*
X154754212Y-75428812D01*
X154622712Y-75536731D01*
X154622708Y-75536733D01*
X154622707Y-75536734D01*
X154472687Y-75616921D01*
X154472684Y-75616922D01*
X154309895Y-75666304D01*
X154225312Y-75674635D01*
X154183021Y-75678800D01*
X154098179Y-75678800D01*
X154055888Y-75674635D01*
X153971305Y-75666304D01*
X153808516Y-75616922D01*
X153808513Y-75616921D01*
X153658493Y-75536734D01*
X153658492Y-75536733D01*
X153658488Y-75536731D01*
X153526988Y-75428812D01*
X153419069Y-75297312D01*
X153419066Y-75297307D01*
X153338879Y-75147287D01*
X153338034Y-75144502D01*
X153289496Y-74984495D01*
X153272822Y-74815200D01*
X153289496Y-74645905D01*
X153338878Y-74483116D01*
X153338879Y-74483113D01*
X153419066Y-74333093D01*
X153419067Y-74333092D01*
X153419069Y-74333088D01*
X153526988Y-74201588D01*
X153658488Y-74093669D01*
X153658492Y-74093667D01*
X153658493Y-74093666D01*
X153808513Y-74013479D01*
X153808516Y-74013478D01*
X153971305Y-73964096D01*
X154055888Y-73955765D01*
X154098179Y-73951600D01*
X154183021Y-73951600D01*
X154225312Y-73955765D01*
X154225312Y-73955765D01*
G37*
G36*
X126285312Y-73955765D02*
G01*
X126369895Y-73964096D01*
X126532684Y-74013478D01*
X126532687Y-74013479D01*
X126682707Y-74093666D01*
X126682708Y-74093667D01*
X126682712Y-74093669D01*
X126814212Y-74201588D01*
X126922131Y-74333088D01*
X126922133Y-74333092D01*
X126922134Y-74333093D01*
X127002321Y-74483113D01*
X127002322Y-74483116D01*
X127051704Y-74645905D01*
X127068378Y-74815200D01*
X127051704Y-74984495D01*
X127003166Y-75144502D01*
X127002321Y-75147287D01*
X126922134Y-75297307D01*
X126922131Y-75297312D01*
X126814212Y-75428812D01*
X126682712Y-75536731D01*
X126682708Y-75536733D01*
X126682707Y-75536734D01*
X126532687Y-75616921D01*
X126532684Y-75616922D01*
X126369895Y-75666304D01*
X126285312Y-75674635D01*
X126243021Y-75678800D01*
X126158179Y-75678800D01*
X126115888Y-75674635D01*
X126031305Y-75666304D01*
X125868516Y-75616922D01*
X125868513Y-75616921D01*
X125718493Y-75536734D01*
X125718492Y-75536733D01*
X125718488Y-75536731D01*
X125586988Y-75428812D01*
X125479069Y-75297312D01*
X125479066Y-75297307D01*
X125398879Y-75147287D01*
X125398034Y-75144502D01*
X125349496Y-74984495D01*
X125332822Y-74815200D01*
X125349496Y-74645905D01*
X125398878Y-74483116D01*
X125398879Y-74483113D01*
X125479066Y-74333093D01*
X125479067Y-74333092D01*
X125479069Y-74333088D01*
X125586988Y-74201588D01*
X125718488Y-74093669D01*
X125718492Y-74093667D01*
X125718493Y-74093666D01*
X125868513Y-74013479D01*
X125868516Y-74013478D01*
X126031305Y-73964096D01*
X126115888Y-73955765D01*
X126158179Y-73951600D01*
X126243021Y-73951600D01*
X126285312Y-73955765D01*
X126285312Y-73955765D01*
G37*
G36*
X149145312Y-73955765D02*
G01*
X149229895Y-73964096D01*
X149392684Y-74013478D01*
X149392687Y-74013479D01*
X149542707Y-74093666D01*
X149542708Y-74093667D01*
X149542712Y-74093669D01*
X149674212Y-74201588D01*
X149782131Y-74333088D01*
X149782133Y-74333092D01*
X149782134Y-74333093D01*
X149862321Y-74483113D01*
X149862322Y-74483116D01*
X149911704Y-74645905D01*
X149928378Y-74815200D01*
X149911704Y-74984495D01*
X149863166Y-75144502D01*
X149862321Y-75147287D01*
X149782134Y-75297307D01*
X149782131Y-75297312D01*
X149674212Y-75428812D01*
X149542712Y-75536731D01*
X149542708Y-75536733D01*
X149542707Y-75536734D01*
X149392687Y-75616921D01*
X149392684Y-75616922D01*
X149229895Y-75666304D01*
X149145312Y-75674635D01*
X149103021Y-75678800D01*
X149018179Y-75678800D01*
X148975888Y-75674635D01*
X148891305Y-75666304D01*
X148728516Y-75616922D01*
X148728513Y-75616921D01*
X148578493Y-75536734D01*
X148578492Y-75536733D01*
X148578488Y-75536731D01*
X148446988Y-75428812D01*
X148339069Y-75297312D01*
X148339066Y-75297307D01*
X148258879Y-75147287D01*
X148258034Y-75144502D01*
X148209496Y-74984495D01*
X148192822Y-74815200D01*
X148209496Y-74645905D01*
X148258878Y-74483116D01*
X148258879Y-74483113D01*
X148339066Y-74333093D01*
X148339067Y-74333092D01*
X148339069Y-74333088D01*
X148446988Y-74201588D01*
X148578488Y-74093669D01*
X148578492Y-74093667D01*
X148578493Y-74093666D01*
X148728513Y-74013479D01*
X148728516Y-74013478D01*
X148891305Y-73964096D01*
X148975888Y-73955765D01*
X149018179Y-73951600D01*
X149103021Y-73951600D01*
X149145312Y-73955765D01*
X149145312Y-73955765D01*
G37*
G36*
X151685312Y-73955765D02*
G01*
X151769895Y-73964096D01*
X151932684Y-74013478D01*
X151932687Y-74013479D01*
X152082707Y-74093666D01*
X152082708Y-74093667D01*
X152082712Y-74093669D01*
X152214212Y-74201588D01*
X152322131Y-74333088D01*
X152322133Y-74333092D01*
X152322134Y-74333093D01*
X152402321Y-74483113D01*
X152402322Y-74483116D01*
X152451704Y-74645905D01*
X152468378Y-74815200D01*
X152451704Y-74984495D01*
X152403166Y-75144502D01*
X152402321Y-75147287D01*
X152322134Y-75297307D01*
X152322131Y-75297312D01*
X152214212Y-75428812D01*
X152082712Y-75536731D01*
X152082708Y-75536733D01*
X152082707Y-75536734D01*
X151932687Y-75616921D01*
X151932684Y-75616922D01*
X151769895Y-75666304D01*
X151685312Y-75674635D01*
X151643021Y-75678800D01*
X151558179Y-75678800D01*
X151515888Y-75674635D01*
X151431305Y-75666304D01*
X151268516Y-75616922D01*
X151268513Y-75616921D01*
X151118493Y-75536734D01*
X151118492Y-75536733D01*
X151118488Y-75536731D01*
X150986988Y-75428812D01*
X150879069Y-75297312D01*
X150879066Y-75297307D01*
X150798879Y-75147287D01*
X150798034Y-75144502D01*
X150749496Y-74984495D01*
X150732822Y-74815200D01*
X150749496Y-74645905D01*
X150798878Y-74483116D01*
X150798879Y-74483113D01*
X150879066Y-74333093D01*
X150879067Y-74333092D01*
X150879069Y-74333088D01*
X150986988Y-74201588D01*
X151118488Y-74093669D01*
X151118492Y-74093667D01*
X151118493Y-74093666D01*
X151268513Y-74013479D01*
X151268516Y-74013478D01*
X151431305Y-73964096D01*
X151515888Y-73955765D01*
X151558179Y-73951600D01*
X151643021Y-73951600D01*
X151685312Y-73955765D01*
X151685312Y-73955765D01*
G37*
G36*
X123745312Y-73955765D02*
G01*
X123829895Y-73964096D01*
X123992684Y-74013478D01*
X123992687Y-74013479D01*
X124142707Y-74093666D01*
X124142708Y-74093667D01*
X124142712Y-74093669D01*
X124274212Y-74201588D01*
X124382131Y-74333088D01*
X124382133Y-74333092D01*
X124382134Y-74333093D01*
X124462321Y-74483113D01*
X124462322Y-74483116D01*
X124511704Y-74645905D01*
X124528378Y-74815200D01*
X124511704Y-74984495D01*
X124463166Y-75144502D01*
X124462321Y-75147287D01*
X124382134Y-75297307D01*
X124382131Y-75297312D01*
X124274212Y-75428812D01*
X124142712Y-75536731D01*
X124142708Y-75536733D01*
X124142707Y-75536734D01*
X123992687Y-75616921D01*
X123992684Y-75616922D01*
X123829895Y-75666304D01*
X123745312Y-75674635D01*
X123703021Y-75678800D01*
X123618179Y-75678800D01*
X123575888Y-75674635D01*
X123491305Y-75666304D01*
X123328516Y-75616922D01*
X123328513Y-75616921D01*
X123178493Y-75536734D01*
X123178492Y-75536733D01*
X123178488Y-75536731D01*
X123046988Y-75428812D01*
X122939069Y-75297312D01*
X122939066Y-75297307D01*
X122858879Y-75147287D01*
X122858034Y-75144502D01*
X122809496Y-74984495D01*
X122792822Y-74815200D01*
X122809496Y-74645905D01*
X122858878Y-74483116D01*
X122858879Y-74483113D01*
X122939066Y-74333093D01*
X122939067Y-74333092D01*
X122939069Y-74333088D01*
X123046988Y-74201588D01*
X123178488Y-74093669D01*
X123178492Y-74093667D01*
X123178493Y-74093666D01*
X123328513Y-74013479D01*
X123328516Y-74013478D01*
X123491305Y-73964096D01*
X123575888Y-73955765D01*
X123618179Y-73951600D01*
X123703021Y-73951600D01*
X123745312Y-73955765D01*
X123745312Y-73955765D01*
G37*
M02*
